%TF.GenerationSoftware,KiCad,Pcbnew,10.0.1*%
%TF.CreationDate,2026-07-26T18:01:25-07:00*%
%TF.ProjectId,Main Board,4d61696e-2042-46f6-9172-642e6b696361,rev?*%
%TF.SameCoordinates,Original*%
%TF.FileFunction,Copper,L1,Top*%
%TF.FilePolarity,Positive*%
%FSLAX46Y46*%
G04 Gerber Fmt 4.6, Leading zero omitted, Abs format (unit mm)*
G04 Created by KiCad (PCBNEW 10.0.1) date 2026-07-26 18:01:25*
%MOMM*%
%LPD*%
G01*
G04 APERTURE LIST*
G04 Aperture macros list*
%AMRoundRect*
0 Rectangle with rounded corners*
0 $1 Rounding radius*
0 $2 $3 $4 $5 $6 $7 $8 $9 X,Y pos of 4 corners*
0 Add a 4 corners polygon primitive as box body*
4,1,4,$2,$3,$4,$5,$6,$7,$8,$9,$2,$3,0*
0 Add four circle primitives for the rounded corners*
1,1,$1+$1,$2,$3*
1,1,$1+$1,$4,$5*
1,1,$1+$1,$6,$7*
1,1,$1+$1,$8,$9*
0 Add four rect primitives between the rounded corners*
20,1,$1+$1,$2,$3,$4,$5,0*
20,1,$1+$1,$4,$5,$6,$7,0*
20,1,$1+$1,$6,$7,$8,$9,0*
20,1,$1+$1,$8,$9,$2,$3,0*%
G04 Aperture macros list end*
%ADD10C,0.125000*%
%TA.AperFunction,NonConductor*%
%ADD11C,0.125000*%
%TD*%
%TA.AperFunction,SMDPad,CuDef*%
%ADD12RoundRect,0.062500X0.375000X0.062500X-0.375000X0.062500X-0.375000X-0.062500X0.375000X-0.062500X0*%
%TD*%
%TA.AperFunction,SMDPad,CuDef*%
%ADD13RoundRect,0.062500X0.062500X0.375000X-0.062500X0.375000X-0.062500X-0.375000X0.062500X-0.375000X0*%
%TD*%
%TA.AperFunction,HeatsinkPad*%
%ADD14R,2.100000X2.100000*%
%TD*%
%TA.AperFunction,SMDPad,CuDef*%
%ADD15RoundRect,0.140000X-0.170000X0.140000X-0.170000X-0.140000X0.170000X-0.140000X0.170000X0.140000X0*%
%TD*%
%TA.AperFunction,SMDPad,CuDef*%
%ADD16RoundRect,0.250000X-0.250000X-0.475000X0.250000X-0.475000X0.250000X0.475000X-0.250000X0.475000X0*%
%TD*%
%TA.AperFunction,SMDPad,CuDef*%
%ADD17RoundRect,0.135000X0.185000X-0.135000X0.185000X0.135000X-0.185000X0.135000X-0.185000X-0.135000X0*%
%TD*%
%TA.AperFunction,SMDPad,CuDef*%
%ADD18RoundRect,0.140000X-0.140000X-0.170000X0.140000X-0.170000X0.140000X0.170000X-0.140000X0.170000X0*%
%TD*%
%TA.AperFunction,SMDPad,CuDef*%
%ADD19RoundRect,0.112500X0.112500X-0.187500X0.112500X0.187500X-0.112500X0.187500X-0.112500X-0.187500X0*%
%TD*%
%TA.AperFunction,SMDPad,CuDef*%
%ADD20RoundRect,0.140000X0.170000X-0.140000X0.170000X0.140000X-0.170000X0.140000X-0.170000X-0.140000X0*%
%TD*%
%TA.AperFunction,ComponentPad*%
%ADD21R,1.000000X1.000000*%
%TD*%
%TA.AperFunction,ComponentPad*%
%ADD22C,1.000000*%
%TD*%
%TA.AperFunction,ComponentPad*%
%ADD23RoundRect,0.250000X-0.650000X0.650000X-0.650000X-0.650000X0.650000X-0.650000X0.650000X0.650000X0*%
%TD*%
%TA.AperFunction,ComponentPad*%
%ADD24C,1.800000*%
%TD*%
%TA.AperFunction,SMDPad,CuDef*%
%ADD25RoundRect,0.075000X0.075000X-0.350000X0.075000X0.350000X-0.075000X0.350000X-0.075000X-0.350000X0*%
%TD*%
%TA.AperFunction,HeatsinkPad*%
%ADD26R,4.200000X1.600000*%
%TD*%
%TA.AperFunction,SMDPad,CuDef*%
%ADD27RoundRect,0.250000X0.650000X-0.325000X0.650000X0.325000X-0.650000X0.325000X-0.650000X-0.325000X0*%
%TD*%
%TA.AperFunction,SMDPad,CuDef*%
%ADD28RoundRect,0.135000X-0.135000X-0.185000X0.135000X-0.185000X0.135000X0.185000X-0.135000X0.185000X0*%
%TD*%
%TA.AperFunction,SMDPad,CuDef*%
%ADD29RoundRect,0.135000X0.135000X0.185000X-0.135000X0.185000X-0.135000X-0.185000X0.135000X-0.185000X0*%
%TD*%
%TA.AperFunction,SMDPad,CuDef*%
%ADD30RoundRect,0.150000X0.512500X0.150000X-0.512500X0.150000X-0.512500X-0.150000X0.512500X-0.150000X0*%
%TD*%
%TA.AperFunction,SMDPad,CuDef*%
%ADD31RoundRect,0.135000X-0.185000X0.135000X-0.185000X-0.135000X0.185000X-0.135000X0.185000X0.135000X0*%
%TD*%
%TA.AperFunction,SMDPad,CuDef*%
%ADD32RoundRect,0.140000X0.140000X0.170000X-0.140000X0.170000X-0.140000X-0.170000X0.140000X-0.170000X0*%
%TD*%
%TA.AperFunction,SMDPad,CuDef*%
%ADD33RoundRect,0.250000X0.250000X0.475000X-0.250000X0.475000X-0.250000X-0.475000X0.250000X-0.475000X0*%
%TD*%
%TA.AperFunction,ComponentPad*%
%ADD34RoundRect,0.450000X-0.450000X0.450000X-0.450000X-0.450000X0.450000X-0.450000X0.450000X0.450000X0*%
%TD*%
%TA.AperFunction,SMDPad,CuDef*%
%ADD35RoundRect,0.218750X-0.218750X-0.256250X0.218750X-0.256250X0.218750X0.256250X-0.218750X0.256250X0*%
%TD*%
%TA.AperFunction,ComponentPad*%
%ADD36RoundRect,0.250000X-0.625000X0.350000X-0.625000X-0.350000X0.625000X-0.350000X0.625000X0.350000X0*%
%TD*%
%TA.AperFunction,ComponentPad*%
%ADD37O,1.750000X1.200000*%
%TD*%
%TA.AperFunction,SMDPad,CuDef*%
%ADD38RoundRect,0.250000X-1.600000X0.300000X-1.600000X-0.300000X1.600000X-0.300000X1.600000X0.300000X0*%
%TD*%
%TA.AperFunction,ComponentPad*%
%ADD39R,1.700000X1.700000*%
%TD*%
%TA.AperFunction,ComponentPad*%
%ADD40C,1.700000*%
%TD*%
%TA.AperFunction,SMDPad,CuDef*%
%ADD41RoundRect,0.250000X0.475000X-0.250000X0.475000X0.250000X-0.475000X0.250000X-0.475000X-0.250000X0*%
%TD*%
%TA.AperFunction,SMDPad,CuDef*%
%ADD42RoundRect,0.150000X0.150000X-0.512500X0.150000X0.512500X-0.150000X0.512500X-0.150000X-0.512500X0*%
%TD*%
%TA.AperFunction,SMDPad,CuDef*%
%ADD43RoundRect,0.100000X-0.100000X0.637500X-0.100000X-0.637500X0.100000X-0.637500X0.100000X0.637500X0*%
%TD*%
%TA.AperFunction,SMDPad,CuDef*%
%ADD44RoundRect,0.250000X0.350000X-0.450000X0.350000X0.450000X-0.350000X0.450000X-0.350000X-0.450000X0*%
%TD*%
%TA.AperFunction,SMDPad,CuDef*%
%ADD45RoundRect,0.212500X0.212500X0.787500X-0.212500X0.787500X-0.212500X-0.787500X0.212500X-0.787500X0*%
%TD*%
%TA.AperFunction,SMDPad,CuDef*%
%ADD46RoundRect,0.062500X0.400000X0.062500X-0.400000X0.062500X-0.400000X-0.062500X0.400000X-0.062500X0*%
%TD*%
%TA.AperFunction,SMDPad,CuDef*%
%ADD47RoundRect,0.062500X0.062500X0.400000X-0.062500X0.400000X-0.062500X-0.400000X0.062500X-0.400000X0*%
%TD*%
%TA.AperFunction,HeatsinkPad*%
%ADD48R,6.400000X6.400000*%
%TD*%
%TA.AperFunction,ViaPad*%
%ADD49C,0.600000*%
%TD*%
%TA.AperFunction,Conductor*%
%ADD50C,0.500000*%
%TD*%
%TA.AperFunction,Conductor*%
%ADD51C,0.200000*%
%TD*%
%TA.AperFunction,Conductor*%
%ADD52C,0.350000*%
%TD*%
%TA.AperFunction,Conductor*%
%ADD53C,0.250000*%
%TD*%
G04 APERTURE END LIST*
D10*
D11*
X151839378Y-73932309D02*
X151601283Y-73932309D01*
X151601283Y-73932309D02*
X151601283Y-73432309D01*
X152006045Y-73932309D02*
X152006045Y-73598976D01*
X152006045Y-73432309D02*
X151982236Y-73456119D01*
X151982236Y-73456119D02*
X152006045Y-73479928D01*
X152006045Y-73479928D02*
X152029855Y-73456119D01*
X152029855Y-73456119D02*
X152006045Y-73432309D01*
X152006045Y-73432309D02*
X152006045Y-73479928D01*
X152244140Y-73598976D02*
X152244140Y-73932309D01*
X152244140Y-73646595D02*
X152267950Y-73622785D01*
X152267950Y-73622785D02*
X152315569Y-73598976D01*
X152315569Y-73598976D02*
X152386997Y-73598976D01*
X152386997Y-73598976D02*
X152434616Y-73622785D01*
X152434616Y-73622785D02*
X152458426Y-73670404D01*
X152458426Y-73670404D02*
X152458426Y-73932309D01*
X152886997Y-73908500D02*
X152839378Y-73932309D01*
X152839378Y-73932309D02*
X152744140Y-73932309D01*
X152744140Y-73932309D02*
X152696521Y-73908500D01*
X152696521Y-73908500D02*
X152672712Y-73860880D01*
X152672712Y-73860880D02*
X152672712Y-73670404D01*
X152672712Y-73670404D02*
X152696521Y-73622785D01*
X152696521Y-73622785D02*
X152744140Y-73598976D01*
X152744140Y-73598976D02*
X152839378Y-73598976D01*
X152839378Y-73598976D02*
X152886997Y-73622785D01*
X152886997Y-73622785D02*
X152910807Y-73670404D01*
X152910807Y-73670404D02*
X152910807Y-73718023D01*
X152910807Y-73718023D02*
X152672712Y-73765642D01*
X153101283Y-73908500D02*
X153148902Y-73932309D01*
X153148902Y-73932309D02*
X153244140Y-73932309D01*
X153244140Y-73932309D02*
X153291759Y-73908500D01*
X153291759Y-73908500D02*
X153315568Y-73860880D01*
X153315568Y-73860880D02*
X153315568Y-73837071D01*
X153315568Y-73837071D02*
X153291759Y-73789452D01*
X153291759Y-73789452D02*
X153244140Y-73765642D01*
X153244140Y-73765642D02*
X153172711Y-73765642D01*
X153172711Y-73765642D02*
X153125092Y-73741833D01*
X153125092Y-73741833D02*
X153101283Y-73694214D01*
X153101283Y-73694214D02*
X153101283Y-73670404D01*
X153101283Y-73670404D02*
X153125092Y-73622785D01*
X153125092Y-73622785D02*
X153172711Y-73598976D01*
X153172711Y-73598976D02*
X153244140Y-73598976D01*
X153244140Y-73598976D02*
X153291759Y-73622785D01*
X153839378Y-73598976D02*
X154029854Y-73598976D01*
X153910806Y-73932309D02*
X153910806Y-73503738D01*
X153910806Y-73503738D02*
X153934616Y-73456119D01*
X153934616Y-73456119D02*
X153982235Y-73432309D01*
X153982235Y-73432309D02*
X154029854Y-73432309D01*
X154267949Y-73932309D02*
X154220330Y-73908500D01*
X154220330Y-73908500D02*
X154196520Y-73884690D01*
X154196520Y-73884690D02*
X154172711Y-73837071D01*
X154172711Y-73837071D02*
X154172711Y-73694214D01*
X154172711Y-73694214D02*
X154196520Y-73646595D01*
X154196520Y-73646595D02*
X154220330Y-73622785D01*
X154220330Y-73622785D02*
X154267949Y-73598976D01*
X154267949Y-73598976D02*
X154339377Y-73598976D01*
X154339377Y-73598976D02*
X154386996Y-73622785D01*
X154386996Y-73622785D02*
X154410806Y-73646595D01*
X154410806Y-73646595D02*
X154434615Y-73694214D01*
X154434615Y-73694214D02*
X154434615Y-73837071D01*
X154434615Y-73837071D02*
X154410806Y-73884690D01*
X154410806Y-73884690D02*
X154386996Y-73908500D01*
X154386996Y-73908500D02*
X154339377Y-73932309D01*
X154339377Y-73932309D02*
X154267949Y-73932309D01*
X154648901Y-73932309D02*
X154648901Y-73598976D01*
X154648901Y-73694214D02*
X154672711Y-73646595D01*
X154672711Y-73646595D02*
X154696520Y-73622785D01*
X154696520Y-73622785D02*
X154744139Y-73598976D01*
X154744139Y-73598976D02*
X154791758Y-73598976D01*
X155267949Y-73598976D02*
X155458425Y-73598976D01*
X155339377Y-73432309D02*
X155339377Y-73860880D01*
X155339377Y-73860880D02*
X155363187Y-73908500D01*
X155363187Y-73908500D02*
X155410806Y-73932309D01*
X155410806Y-73932309D02*
X155458425Y-73932309D01*
X155625091Y-73932309D02*
X155625091Y-73432309D01*
X155839377Y-73932309D02*
X155839377Y-73670404D01*
X155839377Y-73670404D02*
X155815567Y-73622785D01*
X155815567Y-73622785D02*
X155767948Y-73598976D01*
X155767948Y-73598976D02*
X155696520Y-73598976D01*
X155696520Y-73598976D02*
X155648901Y-73622785D01*
X155648901Y-73622785D02*
X155625091Y-73646595D01*
X156267948Y-73908500D02*
X156220329Y-73932309D01*
X156220329Y-73932309D02*
X156125091Y-73932309D01*
X156125091Y-73932309D02*
X156077472Y-73908500D01*
X156077472Y-73908500D02*
X156053663Y-73860880D01*
X156053663Y-73860880D02*
X156053663Y-73670404D01*
X156053663Y-73670404D02*
X156077472Y-73622785D01*
X156077472Y-73622785D02*
X156125091Y-73598976D01*
X156125091Y-73598976D02*
X156220329Y-73598976D01*
X156220329Y-73598976D02*
X156267948Y-73622785D01*
X156267948Y-73622785D02*
X156291758Y-73670404D01*
X156291758Y-73670404D02*
X156291758Y-73718023D01*
X156291758Y-73718023D02*
X156053663Y-73765642D01*
X157053662Y-73670404D02*
X157125090Y-73694214D01*
X157125090Y-73694214D02*
X157148900Y-73718023D01*
X157148900Y-73718023D02*
X157172709Y-73765642D01*
X157172709Y-73765642D02*
X157172709Y-73837071D01*
X157172709Y-73837071D02*
X157148900Y-73884690D01*
X157148900Y-73884690D02*
X157125090Y-73908500D01*
X157125090Y-73908500D02*
X157077471Y-73932309D01*
X157077471Y-73932309D02*
X156886995Y-73932309D01*
X156886995Y-73932309D02*
X156886995Y-73432309D01*
X156886995Y-73432309D02*
X157053662Y-73432309D01*
X157053662Y-73432309D02*
X157101281Y-73456119D01*
X157101281Y-73456119D02*
X157125090Y-73479928D01*
X157125090Y-73479928D02*
X157148900Y-73527547D01*
X157148900Y-73527547D02*
X157148900Y-73575166D01*
X157148900Y-73575166D02*
X157125090Y-73622785D01*
X157125090Y-73622785D02*
X157101281Y-73646595D01*
X157101281Y-73646595D02*
X157053662Y-73670404D01*
X157053662Y-73670404D02*
X156886995Y-73670404D01*
X157315567Y-73432309D02*
X157601281Y-73432309D01*
X157458424Y-73932309D02*
X157458424Y-73432309D01*
X158148899Y-73932309D02*
X158148899Y-73598976D01*
X158148899Y-73646595D02*
X158172709Y-73622785D01*
X158172709Y-73622785D02*
X158220328Y-73598976D01*
X158220328Y-73598976D02*
X158291756Y-73598976D01*
X158291756Y-73598976D02*
X158339375Y-73622785D01*
X158339375Y-73622785D02*
X158363185Y-73670404D01*
X158363185Y-73670404D02*
X158363185Y-73932309D01*
X158363185Y-73670404D02*
X158386994Y-73622785D01*
X158386994Y-73622785D02*
X158434613Y-73598976D01*
X158434613Y-73598976D02*
X158506042Y-73598976D01*
X158506042Y-73598976D02*
X158553661Y-73622785D01*
X158553661Y-73622785D02*
X158577471Y-73670404D01*
X158577471Y-73670404D02*
X158577471Y-73932309D01*
X158886995Y-73932309D02*
X158839376Y-73908500D01*
X158839376Y-73908500D02*
X158815566Y-73884690D01*
X158815566Y-73884690D02*
X158791757Y-73837071D01*
X158791757Y-73837071D02*
X158791757Y-73694214D01*
X158791757Y-73694214D02*
X158815566Y-73646595D01*
X158815566Y-73646595D02*
X158839376Y-73622785D01*
X158839376Y-73622785D02*
X158886995Y-73598976D01*
X158886995Y-73598976D02*
X158958423Y-73598976D01*
X158958423Y-73598976D02*
X159006042Y-73622785D01*
X159006042Y-73622785D02*
X159029852Y-73646595D01*
X159029852Y-73646595D02*
X159053661Y-73694214D01*
X159053661Y-73694214D02*
X159053661Y-73837071D01*
X159053661Y-73837071D02*
X159029852Y-73884690D01*
X159029852Y-73884690D02*
X159006042Y-73908500D01*
X159006042Y-73908500D02*
X158958423Y-73932309D01*
X158958423Y-73932309D02*
X158886995Y-73932309D01*
X159482233Y-73932309D02*
X159482233Y-73432309D01*
X159482233Y-73908500D02*
X159434614Y-73932309D01*
X159434614Y-73932309D02*
X159339376Y-73932309D01*
X159339376Y-73932309D02*
X159291757Y-73908500D01*
X159291757Y-73908500D02*
X159267947Y-73884690D01*
X159267947Y-73884690D02*
X159244138Y-73837071D01*
X159244138Y-73837071D02*
X159244138Y-73694214D01*
X159244138Y-73694214D02*
X159267947Y-73646595D01*
X159267947Y-73646595D02*
X159291757Y-73622785D01*
X159291757Y-73622785D02*
X159339376Y-73598976D01*
X159339376Y-73598976D02*
X159434614Y-73598976D01*
X159434614Y-73598976D02*
X159482233Y-73622785D01*
X159934614Y-73598976D02*
X159934614Y-73932309D01*
X159720328Y-73598976D02*
X159720328Y-73860880D01*
X159720328Y-73860880D02*
X159744138Y-73908500D01*
X159744138Y-73908500D02*
X159791757Y-73932309D01*
X159791757Y-73932309D02*
X159863185Y-73932309D01*
X159863185Y-73932309D02*
X159910804Y-73908500D01*
X159910804Y-73908500D02*
X159934614Y-73884690D01*
X160244138Y-73932309D02*
X160196519Y-73908500D01*
X160196519Y-73908500D02*
X160172709Y-73860880D01*
X160172709Y-73860880D02*
X160172709Y-73432309D01*
X160625090Y-73908500D02*
X160577471Y-73932309D01*
X160577471Y-73932309D02*
X160482233Y-73932309D01*
X160482233Y-73932309D02*
X160434614Y-73908500D01*
X160434614Y-73908500D02*
X160410805Y-73860880D01*
X160410805Y-73860880D02*
X160410805Y-73670404D01*
X160410805Y-73670404D02*
X160434614Y-73622785D01*
X160434614Y-73622785D02*
X160482233Y-73598976D01*
X160482233Y-73598976D02*
X160577471Y-73598976D01*
X160577471Y-73598976D02*
X160625090Y-73622785D01*
X160625090Y-73622785D02*
X160648900Y-73670404D01*
X160648900Y-73670404D02*
X160648900Y-73718023D01*
X160648900Y-73718023D02*
X160410805Y-73765642D01*
D12*
%TO.P,U4,1,AVDD_1*%
%TO.N,3V3_A*%
X107687500Y-88250000D03*
%TO.P,U4,2,AREG_2*%
%TO.N,Net-(U4-AREG)*%
X107687500Y-87750000D03*
%TO.P,U4,3,VREF_3*%
%TO.N,Net-(U4-VREF)*%
X107687500Y-87250000D03*
%TO.P,U4,4,AVSS_4*%
%TO.N,GND*%
X107687500Y-86750000D03*
%TO.P,U4,5,MICBIAS_5*%
%TO.N,Net-(J2-Pin_1)*%
X107687500Y-86250000D03*
%TO.P,U4,6,IN1P_GPI1_6*%
%TO.N,Net-(D6-K)*%
X107687500Y-85750000D03*
D13*
%TO.P,U4,7,IN1M_GPO1_7*%
%TO.N,Net-(U4-IN1M_GPO1)*%
X107000000Y-85062500D03*
%TO.P,U4,8,IN2P_GPI2_8*%
%TO.N,Net-(D7-K)*%
X106500000Y-85062500D03*
%TO.P,U4,9,IN2M_GPO2_9*%
%TO.N,Net-(U4-IN2M_GPO2)*%
X106000000Y-85062500D03*
%TO.P,U4,10,IN3P_GPI3_10*%
%TO.N,Net-(D8-K)*%
X105500000Y-85062500D03*
%TO.P,U4,11,IN3M_GPO3_11*%
%TO.N,Net-(U4-IN3M_GPO3)*%
X105000000Y-85062500D03*
%TO.P,U4,12,IN4P_GPI4_12*%
%TO.N,Net-(D9-K)*%
X104500000Y-85062500D03*
D12*
%TO.P,U4,13,IN4M_GPO4_13*%
%TO.N,Net-(U4-IN4M_GPO4)*%
X103812500Y-85750000D03*
%TO.P,U4,14,SHDNZ_14*%
%TO.N,CODEC_SHDNZ*%
X103812500Y-86250000D03*
%TO.P,U4,15,ADDR1_MISO_15*%
%TO.N,Net-(U4-ADDR1_MISO)*%
X103812500Y-86750000D03*
%TO.P,U4,16,ADDR0_SCLK_16*%
%TO.N,Net-(U4-ADDR0_SCLK)*%
X103812500Y-87250000D03*
%TO.P,U4,17,SCL_MOSI_17*%
%TO.N,I2C1_SCL*%
X103812500Y-87750000D03*
%TO.P,U4,18,SDA_SSZ_18*%
%TO.N,I2C1_SDA*%
X103812500Y-88250000D03*
D13*
%TO.P,U4,19,IOVDD_19*%
%TO.N,3V45_D*%
X104500000Y-88937500D03*
%TO.P,U4,20,GPIO1_20*%
%TO.N,unconnected-(U4-GPIO1-Pad20)*%
X105000000Y-88937500D03*
%TO.P,U4,21,SDOUT_21*%
%TO.N,SAI4_SD_B*%
X105500000Y-88937500D03*
%TO.P,U4,22,BCLK_22*%
%TO.N,SAI4_SCK_B*%
X106000000Y-88937500D03*
%TO.P,U4,23,FSYNC_23*%
%TO.N,SAI4_FS_B*%
X106500000Y-88937500D03*
%TO.P,U4,24,DREG_24*%
%TO.N,Net-(U4-DREG)*%
X107000000Y-88937500D03*
D14*
%TO.P,U4,25,EPAD_25*%
%TO.N,GND*%
X105750000Y-87000000D03*
%TD*%
D15*
%TO.P,C41,1*%
%TO.N,GND*%
X112750000Y-83270000D03*
%TO.P,C41,2*%
%TO.N,3V3_A*%
X112750000Y-84230000D03*
%TD*%
D16*
%TO.P,C40,1*%
%TO.N,GND*%
X160300000Y-89300000D03*
%TO.P,C40,2*%
%TO.N,VBAT*%
X162200000Y-89300000D03*
%TD*%
D15*
%TO.P,C96,1*%
%TO.N,3V45_D*%
X153450000Y-90645000D03*
%TO.P,C96,2*%
%TO.N,GND*%
X153450000Y-91605000D03*
%TD*%
D17*
%TO.P,R7,1*%
%TO.N,Net-(U6-OUTL)*%
X115750000Y-90510000D03*
%TO.P,R7,2*%
%TO.N,Net-(R7-Pad2)*%
X115750000Y-89490000D03*
%TD*%
D18*
%TO.P,C104,1*%
%TO.N,3V45_D*%
X150720000Y-90900000D03*
%TO.P,C104,2*%
%TO.N,GND*%
X151680000Y-90900000D03*
%TD*%
D19*
%TO.P,D5,1,K_1*%
%TO.N,Net-(D5-K)*%
X119500000Y-79550000D03*
%TO.P,D5,2,A_2*%
%TO.N,Net-(D5-A)*%
X119500000Y-77450000D03*
%TD*%
D20*
%TO.P,C17,1*%
%TO.N,Net-(U3-IN3M_GPO3)*%
X123450000Y-83755000D03*
%TO.P,C17,2*%
%TO.N,GND*%
X123450000Y-82795000D03*
%TD*%
D21*
%TO.P,J5,1,Pin_1_1*%
%TO.N,3V45_D*%
X151565000Y-98355000D03*
D22*
%TO.P,J5,2,Pin_2_2*%
%TO.N,SWDIO*%
X151565000Y-97085000D03*
%TO.P,J5,3,Pin_3_3*%
%TO.N,GND*%
X152835000Y-98355000D03*
%TO.P,J5,4,Pin_4_4*%
%TO.N,SWCLK*%
X152835000Y-97085000D03*
%TO.P,J5,5,Pin_5_5*%
%TO.N,GND*%
X154105000Y-98355000D03*
%TO.P,J5,6,Pin_6_6*%
%TO.N,SWO*%
X154105000Y-97085000D03*
%TO.P,J5,7,Pin_7_7*%
%TO.N,unconnected-(J5-Pin_7-Pad7)*%
X155375000Y-98355000D03*
%TO.P,J5,8,Pin_8_8*%
%TO.N,unconnected-(J5-Pin_8-Pad8)*%
X155375000Y-97085000D03*
%TO.P,J5,9,Pin_9_9*%
%TO.N,GND*%
X156645000Y-98355000D03*
%TO.P,J5,10,Pin_10_10*%
%TO.N,NRST*%
X156645000Y-97085000D03*
%TD*%
D15*
%TO.P,C2,1*%
%TO.N,GND*%
X152000000Y-82177500D03*
%TO.P,C2,2*%
%TO.N,NRST*%
X152000000Y-83137500D03*
%TD*%
D20*
%TO.P,C100,1*%
%TO.N,3V45_D*%
X147270272Y-81284103D03*
%TO.P,C100,2*%
%TO.N,GND*%
X147270272Y-80324103D03*
%TD*%
D15*
%TO.P,C30,1*%
%TO.N,Net-(J4-Pin_2)*%
X167250000Y-92520000D03*
%TO.P,C30,2*%
%TO.N,GND*%
X167250000Y-93480000D03*
%TD*%
D23*
%TO.P,RV2,1,1_1*%
%TO.N,3V3_A*%
X104750000Y-98000001D03*
D24*
%TO.P,RV2,2,2_2*%
%TO.N,Pot3*%
X107250000Y-98000001D03*
%TO.P,RV2,3,3_3*%
%TO.N,GND*%
X109750000Y-98000001D03*
%TD*%
D25*
%TO.P,U2,1,VINA_1*%
%TO.N,VBAT*%
X161350000Y-85250000D03*
%TO.P,U2,2,GND_2*%
%TO.N,GND*%
X162000000Y-85250000D03*
%TO.P,U2,3,FB_3*%
%TO.N,Net-(U2-FB)*%
X162650000Y-85250000D03*
%TO.P,U2,4,VOUT_4*%
%TO.N,3V45_D*%
X163300000Y-85250000D03*
%TO.P,U2,5,VOUT_5*%
X163950000Y-85250000D03*
%TO.P,U2,6,L2_6*%
%TO.N,Net-(L1-Pad2)*%
X164600000Y-85250000D03*
%TO.P,U2,7,L2_7*%
X165250000Y-85250000D03*
%TO.P,U2,8,L1_8*%
%TO.N,Net-(L1-Pad1)*%
X165250000Y-82350000D03*
%TO.P,U2,9,L1_9*%
X164600000Y-82350000D03*
%TO.P,U2,10,VIN_10*%
%TO.N,VBAT*%
X163950000Y-82350000D03*
%TO.P,U2,11,VIN_11*%
X163300000Y-82350000D03*
%TO.P,U2,12,EN_12*%
X162650000Y-82350000D03*
%TO.P,U2,13,PS/SYNC_13*%
%TO.N,GND*%
X162000000Y-82350000D03*
%TO.P,U2,14,PG_14*%
X161350000Y-82350000D03*
D26*
%TO.P,U2,15,EPAD_15*%
X163300000Y-83800000D03*
%TD*%
D18*
%TO.P,C36,1*%
%TO.N,Net-(J2-Pin_1)*%
X109520000Y-86250000D03*
%TO.P,C36,2*%
%TO.N,GND*%
X110480000Y-86250000D03*
%TD*%
%TO.P,C37,1*%
%TO.N,GND*%
X149520000Y-79250000D03*
%TO.P,C37,2*%
%TO.N,MCU_VDDA*%
X150480000Y-79250000D03*
%TD*%
D27*
%TO.P,C6,1*%
%TO.N,Net-(D4-K)*%
X121750000Y-80250000D03*
%TO.P,C6,2*%
%TO.N,Net-(D4-A)*%
X121750000Y-77300000D03*
%TD*%
D15*
%TO.P,C39,1*%
%TO.N,GND*%
X160000000Y-84520000D03*
%TO.P,C39,2*%
%TO.N,VBAT*%
X160000000Y-85480000D03*
%TD*%
D27*
%TO.P,C5,1*%
%TO.N,Net-(D3-K)*%
X126250000Y-80250000D03*
%TO.P,C5,2*%
%TO.N,Net-(D3-A)*%
X126250000Y-77300000D03*
%TD*%
D28*
%TO.P,R15,1*%
%TO.N,Net-(D1-K)*%
X144730000Y-74500000D03*
%TO.P,R15,2*%
%TO.N,GND*%
X145750000Y-74500000D03*
%TD*%
D19*
%TO.P,D4,1,K_1*%
%TO.N,Net-(D4-K)*%
X124000000Y-79550000D03*
%TO.P,D4,2,A_2*%
%TO.N,Net-(D4-A)*%
X124000000Y-77450000D03*
%TD*%
D28*
%TO.P,R3,1*%
%TO.N,GND*%
X119740000Y-87775000D03*
%TO.P,R3,2*%
%TO.N,Net-(U3-ADDR0_SCLK)*%
X120760000Y-87775000D03*
%TD*%
D29*
%TO.P,R1,1*%
%TO.N,3V45_D*%
X148460000Y-94137500D03*
%TO.P,R1,2*%
%TO.N,I2C1_SDA*%
X147440000Y-94137500D03*
%TD*%
D19*
%TO.P,D7,1,K_1*%
%TO.N,Net-(D7-K)*%
X109450000Y-79550000D03*
%TO.P,D7,2,A_2*%
%TO.N,Net-(D7-A)*%
X109450000Y-77450000D03*
%TD*%
D16*
%TO.P,C43,1*%
%TO.N,3V3_A*%
X114500000Y-86000000D03*
%TO.P,C43,2*%
%TO.N,GND*%
X116400000Y-86000000D03*
%TD*%
D30*
%TO.P,U1,1,IN_1*%
%TO.N,3V45_D*%
X116887500Y-84200000D03*
%TO.P,U1,2,GND_2*%
%TO.N,GND*%
X116887500Y-83250000D03*
%TO.P,U1,3,EN_3*%
%TO.N,3V45_D*%
X116887500Y-82300000D03*
%TO.P,U1,4,NC_4*%
%TO.N,unconnected-(U1-NC-Pad4)*%
X114612500Y-82300000D03*
%TO.P,U1,5,OUT_5*%
%TO.N,3V3_A*%
X114612500Y-84200000D03*
%TD*%
D27*
%TO.P,C20,1*%
%TO.N,Net-(D8-K)*%
X102700000Y-80225000D03*
%TO.P,C20,2*%
%TO.N,Net-(D8-A)*%
X102700000Y-77275000D03*
%TD*%
D31*
%TO.P,R11,1*%
%TO.N,VBAT*%
X159800000Y-81550000D03*
%TO.P,R11,2*%
%TO.N,GND*%
X159800000Y-82570000D03*
%TD*%
D32*
%TO.P,C44,1*%
%TO.N,GND*%
X109580000Y-89750000D03*
%TO.P,C44,2*%
%TO.N,3V3_A*%
X108620000Y-89750000D03*
%TD*%
D18*
%TO.P,C101,1*%
%TO.N,3V45_D*%
X149920000Y-91900000D03*
%TO.P,C101,2*%
%TO.N,GND*%
X150880000Y-91900000D03*
%TD*%
D27*
%TO.P,C21,1*%
%TO.N,Net-(D9-K)*%
X98200000Y-80225000D03*
%TO.P,C21,2*%
%TO.N,Net-(D9-A)*%
X98200000Y-77275000D03*
%TD*%
D20*
%TO.P,C15,1*%
%TO.N,Net-(U3-IN1M_GPO1)*%
X126700000Y-83755000D03*
%TO.P,C15,2*%
%TO.N,GND*%
X126700000Y-82795000D03*
%TD*%
D32*
%TO.P,C33,1*%
%TO.N,GND*%
X110230000Y-88750000D03*
%TO.P,C33,2*%
%TO.N,Net-(U4-AREG)*%
X109270000Y-88750000D03*
%TD*%
%TO.P,C11,1*%
%TO.N,Net-(U6-LDOO)*%
X117980000Y-99500000D03*
%TO.P,C11,2*%
%TO.N,GND*%
X117020000Y-99500000D03*
%TD*%
D33*
%TO.P,C42,1*%
%TO.N,GND*%
X165900000Y-87250000D03*
%TO.P,C42,2*%
%TO.N,3V45_D*%
X164000000Y-87250000D03*
%TD*%
D19*
%TO.P,D6,1,K_1*%
%TO.N,Net-(D6-K)*%
X113950000Y-79550000D03*
%TO.P,D6,2,A_2*%
%TO.N,Net-(D6-A)*%
X113950000Y-77450000D03*
%TD*%
D12*
%TO.P,U3,1,AVDD_1*%
%TO.N,3V3_A*%
X126687500Y-88275000D03*
%TO.P,U3,2,AREG_2*%
%TO.N,Net-(U3-AREG)*%
X126687500Y-87775000D03*
%TO.P,U3,3,VREF_3*%
%TO.N,Net-(U3-VREF)*%
X126687500Y-87275000D03*
%TO.P,U3,4,AVSS_4*%
%TO.N,GND*%
X126687500Y-86775000D03*
%TO.P,U3,5,MICBIAS_5*%
%TO.N,Net-(J1-Pin_1)*%
X126687500Y-86275000D03*
%TO.P,U3,6,IN1P_GPI1_6*%
%TO.N,Net-(D2-K)*%
X126687500Y-85775000D03*
D13*
%TO.P,U3,7,IN1M_GPO1_7*%
%TO.N,Net-(U3-IN1M_GPO1)*%
X126000000Y-85087500D03*
%TO.P,U3,8,IN2P_GPI2_8*%
%TO.N,Net-(D3-K)*%
X125500000Y-85087500D03*
%TO.P,U3,9,IN2M_GPO2_9*%
%TO.N,Net-(U3-IN2M_GPO2)*%
X125000000Y-85087500D03*
%TO.P,U3,10,IN3P_GPI3_10*%
%TO.N,Net-(D4-K)*%
X124500000Y-85087500D03*
%TO.P,U3,11,IN3M_GPO3_11*%
%TO.N,Net-(U3-IN3M_GPO3)*%
X124000000Y-85087500D03*
%TO.P,U3,12,IN4P_GPI4_12*%
%TO.N,Net-(D5-K)*%
X123500000Y-85087500D03*
D12*
%TO.P,U3,13,IN4M_GPO4_13*%
%TO.N,Net-(U3-IN4M_GPO4)*%
X122812500Y-85775000D03*
%TO.P,U3,14,SHDNZ_14*%
%TO.N,CODEC_SHDNZ*%
X122812500Y-86275000D03*
%TO.P,U3,15,ADDR1_MISO_15*%
%TO.N,Net-(U3-ADDR1_MISO)*%
X122812500Y-86775000D03*
%TO.P,U3,16,ADDR0_SCLK_16*%
%TO.N,Net-(U3-ADDR0_SCLK)*%
X122812500Y-87275000D03*
%TO.P,U3,17,SCL_MOSI_17*%
%TO.N,I2C1_SCL*%
X122812500Y-87775000D03*
%TO.P,U3,18,SDA_SSZ_18*%
%TO.N,I2C1_SDA*%
X122812500Y-88275000D03*
D13*
%TO.P,U3,19,IOVDD_19*%
%TO.N,3V45_D*%
X123500000Y-88962500D03*
%TO.P,U3,20,GPIO1_20*%
%TO.N,unconnected-(U3-GPIO1-Pad20)*%
X124000000Y-88962500D03*
%TO.P,U3,21,SDOUT_21*%
%TO.N,SAI4_SD_B*%
X124500000Y-88962500D03*
%TO.P,U3,22,BCLK_22*%
%TO.N,SAI4_SCK_B*%
X125000000Y-88962500D03*
%TO.P,U3,23,FSYNC_23*%
%TO.N,SAI4_FS_B*%
X125500000Y-88962500D03*
%TO.P,U3,24,DREG_24*%
%TO.N,Net-(U3-DREG)*%
X126000000Y-88962500D03*
D14*
%TO.P,U3,25,EPAD_25*%
%TO.N,GND*%
X124750000Y-87025000D03*
%TD*%
D20*
%TO.P,C12,1*%
%TO.N,3V3_A*%
X114750000Y-90480000D03*
%TO.P,C12,2*%
%TO.N,GND*%
X114750000Y-89520000D03*
%TD*%
D31*
%TO.P,R13,1*%
%TO.N,BATT_SENSE*%
X145920000Y-78730000D03*
%TO.P,R13,2*%
%TO.N,GND*%
X145920000Y-79750000D03*
%TD*%
D29*
%TO.P,R18,1*%
%TO.N,CODEC_SHDNZ*%
X140010000Y-85500000D03*
%TO.P,R18,2*%
%TO.N,GND*%
X138990000Y-85500000D03*
%TD*%
D34*
%TO.P,RV3,1,1_1*%
%TO.N,GND*%
X174600000Y-98000001D03*
D24*
%TO.P,RV3,2,2_2*%
%TO.N,/out*%
X177100000Y-98000001D03*
%TO.P,RV3,3,3_3*%
%TO.N,Net-(R7-Pad2)*%
X179600000Y-98000001D03*
%TO.P,RV3,4,A_4*%
%TO.N,/bat+*%
X174600000Y-92400001D03*
%TO.P,RV3,5,B_5*%
%TO.N,VBAT*%
X179600000Y-92400001D03*
%TD*%
D27*
%TO.P,C18,1*%
%TO.N,Net-(D6-K)*%
X111700000Y-80225000D03*
%TO.P,C18,2*%
%TO.N,Net-(D6-A)*%
X111700000Y-77275000D03*
%TD*%
D28*
%TO.P,R4,1*%
%TO.N,GND*%
X119740000Y-86775000D03*
%TO.P,R4,2*%
%TO.N,Net-(U3-ADDR1_MISO)*%
X120760000Y-86775000D03*
%TD*%
D31*
%TO.P,R9,1*%
%TO.N,Net-(U2-FB)*%
X168500000Y-87690000D03*
%TO.P,R9,2*%
%TO.N,3V45_D*%
X168500000Y-88710000D03*
%TD*%
D35*
%TO.P,FB1,1*%
%TO.N,3V3_A*%
X148712500Y-78000000D03*
%TO.P,FB1,2*%
%TO.N,MCU_VDDA*%
X150287500Y-78000000D03*
%TD*%
D18*
%TO.P,C35,1*%
%TO.N,Net-(J1-Pin_1)*%
X128470000Y-86025000D03*
%TO.P,C35,2*%
%TO.N,GND*%
X129430000Y-86025000D03*
%TD*%
D20*
%TO.P,C26,1*%
%TO.N,Net-(U4-IN3M_GPO3)*%
X104250000Y-83730000D03*
%TO.P,C26,2*%
%TO.N,GND*%
X104250000Y-82770000D03*
%TD*%
D23*
%TO.P,RV1,1,1_1*%
%TO.N,3V3_A*%
X139675000Y-98000001D03*
D24*
%TO.P,RV1,2,2_2*%
%TO.N,Pot2*%
X142175000Y-98000001D03*
%TO.P,RV1,3,3_3*%
%TO.N,GND*%
X144675000Y-98000001D03*
%TD*%
D32*
%TO.P,C34,1*%
%TO.N,GND*%
X110480000Y-87500000D03*
%TO.P,C34,2*%
%TO.N,Net-(U4-VREF)*%
X109520000Y-87500000D03*
%TD*%
D18*
%TO.P,C23,1*%
%TO.N,/bat+*%
X167270000Y-95250000D03*
%TO.P,C23,2*%
%TO.N,GND*%
X168230000Y-95250000D03*
%TD*%
D15*
%TO.P,C28,1*%
%TO.N,Net-(U3-DREG)*%
X126500000Y-90220000D03*
%TO.P,C28,2*%
%TO.N,GND*%
X126500000Y-91180000D03*
%TD*%
D27*
%TO.P,C8,1*%
%TO.N,Net-(D5-K)*%
X117200000Y-80250000D03*
%TO.P,C8,2*%
%TO.N,Net-(D5-A)*%
X117200000Y-77300000D03*
%TD*%
D32*
%TO.P,C49,1*%
%TO.N,3V45_D*%
X120930000Y-89000000D03*
%TO.P,C49,2*%
%TO.N,GND*%
X119970000Y-89000000D03*
%TD*%
%TO.P,C46,1*%
%TO.N,GND*%
X119980000Y-83330000D03*
%TO.P,C46,2*%
%TO.N,3V45_D*%
X119020000Y-83330000D03*
%TD*%
D36*
%TO.P,J3,1,Pin_1_1*%
%TO.N,GND*%
X167950000Y-75750000D03*
D37*
%TO.P,J3,2,Pin_2_2*%
%TO.N,/bat+*%
X167950000Y-77750000D03*
%TD*%
D29*
%TO.P,R2,1*%
%TO.N,3V45_D*%
X146460000Y-94137500D03*
%TO.P,R2,2*%
%TO.N,I2C1_SCL*%
X145440000Y-94137500D03*
%TD*%
D32*
%TO.P,C31,1*%
%TO.N,GND*%
X129430000Y-88275000D03*
%TO.P,C31,2*%
%TO.N,Net-(U3-AREG)*%
X128470000Y-88275000D03*
%TD*%
D27*
%TO.P,C19,1*%
%TO.N,Net-(D7-K)*%
X107200000Y-80225000D03*
%TO.P,C19,2*%
%TO.N,Net-(D7-A)*%
X107200000Y-77275000D03*
%TD*%
D32*
%TO.P,C99,1*%
%TO.N,3V45_D*%
X140630000Y-83450000D03*
%TO.P,C99,2*%
%TO.N,GND*%
X139670000Y-83450000D03*
%TD*%
%TO.P,C47,1*%
%TO.N,GND*%
X119980000Y-82330000D03*
%TO.P,C47,2*%
%TO.N,3V45_D*%
X119020000Y-82330000D03*
%TD*%
D28*
%TO.P,R12,1*%
%TO.N,VBAT*%
X143920000Y-78740000D03*
%TO.P,R12,2*%
%TO.N,BATT_SENSE*%
X144940000Y-78740000D03*
%TD*%
D32*
%TO.P,C7,1*%
%TO.N,Net-(U6-CAPP)*%
X119230000Y-90000000D03*
%TO.P,C7,2*%
%TO.N,Net-(U6-CAPM)*%
X118270000Y-90000000D03*
%TD*%
%TO.P,C91,1*%
%TO.N,Net-(C91-Pad1)*%
X140080000Y-89580000D03*
%TO.P,C91,2*%
%TO.N,GND*%
X139120000Y-89580000D03*
%TD*%
D15*
%TO.P,C13,1*%
%TO.N,GND*%
X120500000Y-91290000D03*
%TO.P,C13,2*%
%TO.N,3V3_A*%
X120500000Y-92250000D03*
%TD*%
D19*
%TO.P,D2,1,K_1*%
%TO.N,Net-(D2-K)*%
X133000000Y-79550000D03*
%TO.P,D2,2,A_2*%
%TO.N,Net-(D2-A)*%
X133000000Y-77450000D03*
%TD*%
D38*
%TO.P,L1,1,1_1*%
%TO.N,Net-(L1-Pad1)*%
X168550000Y-82300000D03*
%TO.P,L1,2,2_2*%
%TO.N,Net-(L1-Pad2)*%
X168550000Y-85300000D03*
%TD*%
D20*
%TO.P,C14,1*%
%TO.N,GND*%
X120750000Y-98500000D03*
%TO.P,C14,2*%
%TO.N,3V45_D*%
X120750000Y-97540000D03*
%TD*%
D19*
%TO.P,D8,1,K_1*%
%TO.N,Net-(D8-K)*%
X104950000Y-79550000D03*
%TO.P,D8,2,A_2*%
%TO.N,Net-(D8-A)*%
X104950000Y-77450000D03*
%TD*%
D15*
%TO.P,C93,1*%
%TO.N,Net-(U7-PH0)*%
X156850000Y-84420000D03*
%TO.P,C93,2*%
%TO.N,GND*%
X156850000Y-85380000D03*
%TD*%
D19*
%TO.P,D9,1,K_1*%
%TO.N,Net-(D9-K)*%
X100450000Y-79550000D03*
%TO.P,D9,2,A_2*%
%TO.N,Net-(D9-A)*%
X100450000Y-77450000D03*
%TD*%
D20*
%TO.P,C9,1*%
%TO.N,Net-(U3-IN4M_GPO4)*%
X121950000Y-83755000D03*
%TO.P,C9,2*%
%TO.N,GND*%
X121950000Y-82795000D03*
%TD*%
D39*
%TO.P,J1,1,Pin_1_1*%
%TO.N,Net-(J1-Pin_1)*%
X133120000Y-74500000D03*
D40*
%TO.P,J1,2,Pin_2_2*%
%TO.N,GND*%
X130580000Y-74500000D03*
%TO.P,J1,3,Pin_3_3*%
%TO.N,Net-(D2-A)*%
X128040000Y-74500000D03*
%TO.P,J1,4,Pin_4_4*%
%TO.N,Net-(D3-A)*%
X125500000Y-74500000D03*
%TO.P,J1,5,Pin_5_5*%
%TO.N,Net-(D4-A)*%
X122960000Y-74500000D03*
%TO.P,J1,6,Pin_6_6*%
%TO.N,Net-(D5-A)*%
X120420000Y-74500000D03*
%TD*%
D20*
%TO.P,C10,1*%
%TO.N,Net-(U6-VNEG)*%
X116750000Y-90480000D03*
%TO.P,C10,2*%
%TO.N,GND*%
X116750000Y-89520000D03*
%TD*%
D16*
%TO.P,C105,1*%
%TO.N,3V45_D*%
X154750000Y-91150000D03*
%TO.P,C105,2*%
%TO.N,GND*%
X156650000Y-91150000D03*
%TD*%
D32*
%TO.P,C45,1*%
%TO.N,GND*%
X128980000Y-89250000D03*
%TO.P,C45,2*%
%TO.N,3V3_A*%
X128020000Y-89250000D03*
%TD*%
D15*
%TO.P,C95,1*%
%TO.N,Net-(U7-VFBSMPS)*%
X154700000Y-87690000D03*
%TO.P,C95,2*%
%TO.N,GND*%
X154700000Y-88650000D03*
%TD*%
D32*
%TO.P,C32,1*%
%TO.N,GND*%
X129430000Y-87275000D03*
%TO.P,C32,2*%
%TO.N,Net-(U3-VREF)*%
X128470000Y-87275000D03*
%TD*%
D18*
%TO.P,C97,1*%
%TO.N,3V45_D*%
X152220000Y-86400000D03*
%TO.P,C97,2*%
%TO.N,GND*%
X153180000Y-86400000D03*
%TD*%
D41*
%TO.P,C27,1*%
%TO.N,3V3_A*%
X122000000Y-92250000D03*
%TO.P,C27,2*%
%TO.N,GND*%
X122000000Y-90350000D03*
%TD*%
D42*
%TO.P,U8,1,CHRG_1*%
%TO.N,unconnected-(U8-CHRG-Pad1)*%
X164050000Y-94137500D03*
%TO.P,U8,2,VSS_2*%
%TO.N,GND*%
X165000000Y-94137500D03*
%TO.P,U8,3,VBAT_3*%
%TO.N,/bat+*%
X165950000Y-94137500D03*
%TO.P,U8,4,VDD_4*%
%TO.N,Net-(J4-Pin_2)*%
X165950000Y-91862500D03*
%TO.P,U8,5,PROG_5*%
%TO.N,Net-(U8-PROG)*%
X164050000Y-91862500D03*
%TD*%
D28*
%TO.P,R6,1*%
%TO.N,GND*%
X101240000Y-87000000D03*
%TO.P,R6,2*%
%TO.N,Net-(U4-ADDR1_MISO)*%
X102260000Y-87000000D03*
%TD*%
D20*
%TO.P,C16,1*%
%TO.N,Net-(U3-IN2M_GPO2)*%
X124950000Y-83755000D03*
%TO.P,C16,2*%
%TO.N,GND*%
X124950000Y-82795000D03*
%TD*%
%TO.P,C25,1*%
%TO.N,Net-(U4-IN4M_GPO4)*%
X102500000Y-83730000D03*
%TO.P,C25,2*%
%TO.N,GND*%
X102500000Y-82770000D03*
%TD*%
D39*
%TO.P,J4,1,Pin_1_1*%
%TO.N,/out*%
X169040000Y-97750000D03*
D40*
%TO.P,J4,2,Pin_2_2*%
%TO.N,Net-(J4-Pin_2)*%
X166500000Y-97750000D03*
%TO.P,J4,3,Pin_3_3*%
%TO.N,GND*%
X163960000Y-97750000D03*
%TD*%
D39*
%TO.P,J2,1,Pin_1_1*%
%TO.N,Net-(J2-Pin_1)*%
X112550000Y-74500000D03*
D40*
%TO.P,J2,2,Pin_2_2*%
%TO.N,GND*%
X110010000Y-74500000D03*
%TO.P,J2,3,Pin_3_3*%
%TO.N,Net-(D6-A)*%
X107470000Y-74500000D03*
%TO.P,J2,4,Pin_4_4*%
%TO.N,Net-(D7-A)*%
X104930000Y-74500000D03*
%TO.P,J2,5,Pin_5_5*%
%TO.N,Net-(D8-A)*%
X102390000Y-74500000D03*
%TO.P,J2,6,Pin_6_6*%
%TO.N,Net-(D9-A)*%
X99850000Y-74500000D03*
%TD*%
D31*
%TO.P,R10,1*%
%TO.N,Net-(U2-FB)*%
X169500000Y-87690000D03*
%TO.P,R10,2*%
%TO.N,GND*%
X169500000Y-88710000D03*
%TD*%
D17*
%TO.P,R5,1*%
%TO.N,3V45_D*%
X101750000Y-90010000D03*
%TO.P,R5,2*%
%TO.N,Net-(U4-ADDR0_SCLK)*%
X101750000Y-88990000D03*
%TD*%
%TO.P,R17,1*%
%TO.N,GND*%
X162750000Y-93510000D03*
%TO.P,R17,2*%
%TO.N,Net-(U8-PROG)*%
X162750000Y-92490000D03*
%TD*%
D43*
%TO.P,U6,1,CPVDD_1*%
%TO.N,3V3_A*%
X119425000Y-92137500D03*
%TO.P,U6,2,CAPP_2*%
%TO.N,Net-(U6-CAPP)*%
X118775000Y-92137500D03*
%TO.P,U6,3,CPGND_3*%
%TO.N,GND*%
X118125000Y-92137500D03*
%TO.P,U6,4,CAPM_4*%
%TO.N,Net-(U6-CAPM)*%
X117475000Y-92137500D03*
%TO.P,U6,5,VNEG_5*%
%TO.N,Net-(U6-VNEG)*%
X116825000Y-92137500D03*
%TO.P,U6,6,OUTL_6*%
%TO.N,Net-(U6-OUTL)*%
X116175000Y-92137500D03*
%TO.P,U6,7,OUTR_7*%
%TO.N,/To Test Point*%
X115525000Y-92137500D03*
%TO.P,U6,8,AVDD_8*%
%TO.N,3V3_A*%
X114875000Y-92137500D03*
%TO.P,U6,9,AGND_9*%
%TO.N,GND*%
X114225000Y-92137500D03*
%TO.P,U6,10,DEMP_10*%
X113575000Y-92137500D03*
%TO.P,U6,11,FLT_11*%
X113575000Y-97862500D03*
%TO.P,U6,12,SCK_12*%
X114225000Y-97862500D03*
%TO.P,U6,13,BCK_13*%
%TO.N,I2S1_CK*%
X114875000Y-97862500D03*
%TO.P,U6,14,DIN_14*%
%TO.N,I2S1_SDO*%
X115525000Y-97862500D03*
%TO.P,U6,15,LRCK_15*%
%TO.N,I2S1_WS*%
X116175000Y-97862500D03*
%TO.P,U6,16,FMT_16*%
%TO.N,GND*%
X116825000Y-97862500D03*
%TO.P,U6,17,XSMT_17*%
%TO.N,DAC_XSMT*%
X117475000Y-97862500D03*
%TO.P,U6,18,LDOO_18*%
%TO.N,Net-(U6-LDOO)*%
X118125000Y-97862500D03*
%TO.P,U6,19,DGND_19*%
%TO.N,GND*%
X118775000Y-97862500D03*
%TO.P,U6,20,DVDD_20*%
%TO.N,3V45_D*%
X119425000Y-97862500D03*
%TD*%
D28*
%TO.P,R14,1*%
%TO.N,GND*%
X144690000Y-92637500D03*
%TO.P,R14,2*%
%TO.N,Net-(U7-BOOT0)*%
X145710000Y-92637500D03*
%TD*%
D20*
%TO.P,C22,1*%
%TO.N,Net-(U4-IN1M_GPO1)*%
X107750000Y-83730000D03*
%TO.P,C22,2*%
%TO.N,GND*%
X107750000Y-82770000D03*
%TD*%
D18*
%TO.P,C94,1*%
%TO.N,Net-(U7-PH1)*%
X153620000Y-80900000D03*
%TO.P,C94,2*%
%TO.N,GND*%
X154580000Y-80900000D03*
%TD*%
D20*
%TO.P,C90,1*%
%TO.N,Net-(C90-Pad1)*%
X142750000Y-81410000D03*
%TO.P,C90,2*%
%TO.N,GND*%
X142750000Y-80450000D03*
%TD*%
D18*
%TO.P,C38,1*%
%TO.N,GND*%
X149520000Y-80250000D03*
%TO.P,C38,2*%
%TO.N,MCU_VDDA*%
X150480000Y-80250000D03*
%TD*%
D20*
%TO.P,C24,1*%
%TO.N,Net-(U4-IN2M_GPO2)*%
X106000000Y-83730000D03*
%TO.P,C24,2*%
%TO.N,GND*%
X106000000Y-82770000D03*
%TD*%
D18*
%TO.P,C92,1*%
%TO.N,Net-(C92-Pad1)*%
X147900000Y-92700000D03*
%TO.P,C92,2*%
%TO.N,GND*%
X148860000Y-92700000D03*
%TD*%
D44*
%TO.P,Y1,1,1_1*%
%TO.N,Net-(U7-PH0)*%
X155200000Y-84750000D03*
%TO.P,Y1,2,G_2*%
%TO.N,GND*%
X155200000Y-82550000D03*
%TO.P,Y1,3,3_3*%
%TO.N,Net-(U7-PH1)*%
X153500000Y-82550000D03*
%TO.P,Y1,4,G_4*%
%TO.N,GND*%
X153500000Y-84750000D03*
%TD*%
D32*
%TO.P,C1,1*%
%TO.N,BATT_SENSE*%
X144900000Y-79740000D03*
%TO.P,C1,2*%
%TO.N,GND*%
X143940000Y-79740000D03*
%TD*%
D15*
%TO.P,C29,1*%
%TO.N,Net-(U4-DREG)*%
X107500000Y-90270000D03*
%TO.P,C29,2*%
%TO.N,GND*%
X107500000Y-91230000D03*
%TD*%
%TO.P,C48,1*%
%TO.N,3V45_D*%
X104550000Y-90170000D03*
%TO.P,C48,2*%
%TO.N,GND*%
X104550000Y-91130000D03*
%TD*%
D45*
%TO.P,L2,1,1_1*%
%TO.N,Net-(U7-VFBSMPS)*%
X153525000Y-88400000D03*
%TO.P,L2,2,2_2*%
%TO.N,Net-(U7-VLXSMPS)*%
X151875000Y-88400000D03*
%TD*%
D27*
%TO.P,C4,1*%
%TO.N,Net-(D2-K)*%
X130750000Y-80250000D03*
%TO.P,C4,2*%
%TO.N,Net-(D2-A)*%
X130750000Y-77300000D03*
%TD*%
D19*
%TO.P,D3,1,K_1*%
%TO.N,Net-(D3-K)*%
X128500000Y-79550000D03*
%TO.P,D3,2,A_2*%
%TO.N,Net-(D3-A)*%
X128500000Y-77450000D03*
%TD*%
D28*
%TO.P,R8,1*%
%TO.N,Net-(R7-Pad2)*%
X115740000Y-88500000D03*
%TO.P,R8,2*%
%TO.N,GND*%
X116760000Y-88500000D03*
%TD*%
D46*
%TO.P,U7,1,VBAT_1*%
%TO.N,3V45_D*%
X149637500Y-89950000D03*
%TO.P,U7,2,PC14_2*%
%TO.N,unconnected-(U7-PC14-Pad2)*%
X149637500Y-89550000D03*
%TO.P,U7,3,PC15_3*%
%TO.N,unconnected-(U7-PC15-Pad3)*%
X149637500Y-89150000D03*
%TO.P,U7,4,VSSSMPS_4*%
%TO.N,GND*%
X149637500Y-88750000D03*
%TO.P,U7,5,VLXSMPS_5*%
%TO.N,Net-(U7-VLXSMPS)*%
X149637500Y-88350000D03*
%TO.P,U7,6,VDDSMPS_6*%
%TO.N,3V45_D*%
X149637500Y-87950000D03*
%TO.P,U7,7,VFBSMPS_7*%
%TO.N,Net-(U7-VFBSMPS)*%
X149637500Y-87550000D03*
%TO.P,U7,8,VSS_8*%
%TO.N,GND*%
X149637500Y-87150000D03*
%TO.P,U7,9,VDD_9*%
%TO.N,3V45_D*%
X149637500Y-86750000D03*
%TO.P,U7,10,RCC_OSC_IN_10*%
%TO.N,Net-(U7-PH0)*%
X149637500Y-86350000D03*
%TO.P,U7,11,RCC_OSC_OUT_11*%
%TO.N,Net-(U7-PH1)*%
X149637500Y-85950000D03*
%TO.P,U7,12,NRST_12*%
%TO.N,NRST*%
X149637500Y-85550000D03*
%TO.P,U7,13,SAI4_FS_B_13*%
%TO.N,SAI4_FS_B*%
X149637500Y-85150000D03*
%TO.P,U7,14,PC1_14*%
%TO.N,Pot2*%
X149637500Y-84750000D03*
%TO.P,U7,15,VSSA_15*%
%TO.N,GND*%
X149637500Y-84350000D03*
%TO.P,U7,16,VDDA_16*%
%TO.N,MCU_VDDA*%
X149637500Y-83950000D03*
%TO.P,U7,17,SAI4_SD_B_17*%
%TO.N,SAI4_SD_B*%
X149637500Y-83550000D03*
D47*
%TO.P,U7,18,PA1_18*%
%TO.N,unconnected-(U7-PA1-Pad18)*%
X148950000Y-82862500D03*
%TO.P,U7,19,SAI4_SCK_B_19*%
%TO.N,SAI4_SCK_B*%
X148550000Y-82862500D03*
%TO.P,U7,20,PA3_20*%
%TO.N,unconnected-(U7-PA3-Pad20)*%
X148150000Y-82862500D03*
%TO.P,U7,21,VSS_21*%
%TO.N,GND*%
X147750000Y-82862500D03*
%TO.P,U7,22,VDD_22*%
%TO.N,3V45_D*%
X147350000Y-82862500D03*
%TO.P,U7,23,I2S1_WS_23*%
%TO.N,I2S1_WS*%
X146950000Y-82862500D03*
%TO.P,U7,24,I2S1_CK_24*%
%TO.N,I2S1_CK*%
X146550000Y-82862500D03*
%TO.P,U7,25,PA6_25*%
%TO.N,unconnected-(U7-PA6-Pad25)*%
X146150000Y-82862500D03*
%TO.P,U7,26,I2S1_SDO_26*%
%TO.N,I2S1_SDO*%
X145750000Y-82862500D03*
%TO.P,U7,27,PC4_27*%
%TO.N,BATT_SENSE*%
X145350000Y-82862500D03*
%TO.P,U7,28,PC5_28*%
%TO.N,Pot3*%
X144950000Y-82862500D03*
%TO.P,U7,29,PB0_29*%
%TO.N,unconnected-(U7-PB0-Pad29)*%
X144550000Y-82862500D03*
%TO.P,U7,30,PB1_30*%
%TO.N,unconnected-(U7-PB1-Pad30)*%
X144150000Y-82862500D03*
%TO.P,U7,31,PB2_31*%
%TO.N,unconnected-(U7-PB2-Pad31)*%
X143750000Y-82862500D03*
%TO.P,U7,32,PB10_32*%
%TO.N,unconnected-(U7-PB10-Pad32)*%
X143350000Y-82862500D03*
%TO.P,U7,33,VCAP_33*%
%TO.N,Net-(C90-Pad1)*%
X142950000Y-82862500D03*
%TO.P,U7,34,VSS_34*%
%TO.N,GND*%
X142550000Y-82862500D03*
D46*
%TO.P,U7,35,VDD_35*%
%TO.N,3V45_D*%
X141862500Y-83550000D03*
%TO.P,U7,36,PB12_36*%
%TO.N,/MCU/BT1*%
X141862500Y-83950000D03*
%TO.P,U7,37,USART3_CTS_37*%
%TO.N,/MCU/USART3_CTS*%
X141862500Y-84350000D03*
%TO.P,U7,38,USART3_RTS_38*%
%TO.N,/MCU/USART3_RTS*%
X141862500Y-84750000D03*
%TO.P,U7,39,PB15_39*%
%TO.N,/MCU/BT2*%
X141862500Y-85150000D03*
%TO.P,U7,40,PC6_40*%
%TO.N,CODEC_SHDNZ*%
X141862500Y-85550000D03*
%TO.P,U7,41,PC7_41*%
%TO.N,unconnected-(U7-PC7-Pad41)*%
X141862500Y-85950000D03*
%TO.P,U7,42,PC9_42*%
%TO.N,DAC_XSMT*%
X141862500Y-86350000D03*
%TO.P,U7,43,RCC_MCO_1_43*%
%TO.N,Net-(U7-PA8)*%
X141862500Y-86750000D03*
%TO.P,U7,44,PA9_44*%
%TO.N,unconnected-(U7-PA9-Pad44)*%
X141862500Y-87150000D03*
%TO.P,U7,45,PA10_45*%
%TO.N,unconnected-(U7-PA10-Pad45)*%
X141862500Y-87550000D03*
%TO.P,U7,46,USB_OTG_HS_DM_46*%
%TO.N,/MCU/OTG_FS_DM*%
X141862500Y-87950000D03*
%TO.P,U7,47,USB_OTG_HS_DP_47*%
%TO.N,/MCU/OTG_FS_DP*%
X141862500Y-88350000D03*
%TO.P,U7,48,PA13(JTMS_48*%
%TO.N,SWDIO*%
X141862500Y-88750000D03*
%TO.P,U7,49,VCAP_49*%
%TO.N,Net-(C91-Pad1)*%
X141862500Y-89150000D03*
%TO.P,U7,50,VSS_50*%
%TO.N,GND*%
X141862500Y-89550000D03*
%TO.P,U7,51,VDD_51*%
%TO.N,3V45_D*%
X141862500Y-89950000D03*
D47*
%TO.P,U7,52,PA14(JTCK_52*%
%TO.N,SWCLK*%
X142550000Y-90637500D03*
%TO.P,U7,53,PA15(JTDI)_53*%
%TO.N,unconnected-(U7-PA15(JTDI)-Pad53)*%
X142950000Y-90637500D03*
%TO.P,U7,54,USART3_TX_54*%
%TO.N,/MCU/USART3_TX*%
X143350000Y-90637500D03*
%TO.P,U7,55,USART3_RX_55*%
%TO.N,/MCU/USART3_RX*%
X143750000Y-90637500D03*
%TO.P,U7,56,PC12_56*%
%TO.N,unconnected-(U7-PC12-Pad56)*%
X144150000Y-90637500D03*
%TO.P,U7,57,PD2_57*%
%TO.N,LED*%
X144550000Y-90637500D03*
%TO.P,U7,58,PB3(JTDO_58*%
%TO.N,SWO*%
X144950000Y-90637500D03*
%TO.P,U7,59,PB4(NJTRST)_59*%
%TO.N,unconnected-(U7-PB4(NJTRST)-Pad59)*%
X145350000Y-90637500D03*
%TO.P,U7,60,PB5_60*%
%TO.N,unconnected-(U7-PB5-Pad60)*%
X145750000Y-90637500D03*
%TO.P,U7,61,PB6_61*%
%TO.N,unconnected-(U7-PB6-Pad61)*%
X146150000Y-90637500D03*
%TO.P,U7,62,PB7_62*%
%TO.N,unconnected-(U7-PB7-Pad62)*%
X146550000Y-90637500D03*
%TO.P,U7,63,BOOT0_63*%
%TO.N,Net-(U7-BOOT0)*%
X146950000Y-90637500D03*
%TO.P,U7,64,I2C1_SCL_64*%
%TO.N,I2C1_SCL*%
X147350000Y-90637500D03*
%TO.P,U7,65,I2C1_SDA_65*%
%TO.N,I2C1_SDA*%
X147750000Y-90637500D03*
%TO.P,U7,66,VCAP_66*%
%TO.N,Net-(C92-Pad1)*%
X148150000Y-90637500D03*
%TO.P,U7,67,VSS_67*%
%TO.N,GND*%
X148550000Y-90637500D03*
%TO.P,U7,68,VDD_68*%
%TO.N,3V45_D*%
X148950000Y-90637500D03*
D48*
%TO.P,U7,69,VSS_69*%
%TO.N,GND*%
X145750000Y-86750000D03*
%TD*%
D32*
%TO.P,C98,1*%
%TO.N,3V45_D*%
X141030000Y-90900000D03*
%TO.P,C98,2*%
%TO.N,GND*%
X140070000Y-90900000D03*
%TD*%
D49*
%TO.N,GND*%
X125112738Y-86629253D03*
X144550000Y-87750000D03*
X162818240Y-83800000D03*
X107500000Y-92000000D03*
X146950000Y-88950000D03*
X125112738Y-87429253D03*
X130200000Y-88275000D03*
X125550000Y-91200000D03*
X155600000Y-80900000D03*
X153950000Y-86400000D03*
X111250000Y-87500000D03*
X121950000Y-82050000D03*
X143350000Y-84150000D03*
X165000000Y-95500000D03*
X138250000Y-85500000D03*
X101250000Y-86250000D03*
X161918240Y-83800000D03*
X117750000Y-86000000D03*
X144263909Y-93236091D03*
X152200000Y-91650000D03*
X156600000Y-89800000D03*
X145750000Y-86550000D03*
X153450000Y-92400000D03*
X118286587Y-90796587D03*
X130200000Y-87275000D03*
X126750000Y-82000000D03*
X148150000Y-88950000D03*
X146950000Y-86550000D03*
X152100000Y-81400000D03*
X124312738Y-86629253D03*
X163718240Y-83800000D03*
X113500000Y-90612500D03*
X144550000Y-88950000D03*
X111250000Y-86250000D03*
X143350000Y-85350000D03*
X140100000Y-91660000D03*
X144550000Y-86550000D03*
X156850000Y-86150000D03*
X120500000Y-90300000D03*
X143350000Y-88950000D03*
X139150000Y-90100000D03*
X102500000Y-82000000D03*
X120750000Y-99520000D03*
X148150000Y-84150000D03*
X147270272Y-79554103D03*
X105337389Y-86602931D03*
X118790000Y-86775000D03*
X160250000Y-90800000D03*
X148750000Y-79250000D03*
X146950000Y-87750000D03*
X148150000Y-85350000D03*
X151700000Y-92400000D03*
X111000000Y-88750000D03*
X169600000Y-89600000D03*
X145750000Y-87750000D03*
X144550000Y-84150000D03*
X150548906Y-89050000D03*
X104800000Y-91900000D03*
X130000000Y-89250000D03*
X144550000Y-85350000D03*
X104250000Y-82000000D03*
X146950000Y-84150000D03*
X141900000Y-80450000D03*
X130200000Y-86025000D03*
X145750000Y-88950000D03*
X161644511Y-81443487D03*
X114750000Y-88750000D03*
X106137389Y-87402931D03*
X123450000Y-82050000D03*
X119150000Y-89000000D03*
X148150000Y-87750000D03*
X167250000Y-87250000D03*
X110330025Y-89680025D03*
X165750000Y-75750000D03*
X145750000Y-85350000D03*
X138900000Y-83450000D03*
X143250000Y-79650000D03*
X160000000Y-83600000D03*
X143350000Y-87750000D03*
X161726399Y-86152048D03*
X145750000Y-84150000D03*
X106000000Y-82000000D03*
X156600000Y-82650000D03*
X167250000Y-94250000D03*
X117500000Y-88500000D03*
X125000000Y-82000000D03*
X119000000Y-99500000D03*
X106137389Y-86602931D03*
X124312738Y-87429253D03*
X162750000Y-94250000D03*
X118000000Y-83250000D03*
X154700000Y-89400000D03*
X107750000Y-82000000D03*
X120750000Y-82750000D03*
X164618240Y-83800000D03*
X149450000Y-93400000D03*
X143350000Y-86550000D03*
X113850000Y-99250000D03*
X148250000Y-98000000D03*
X148150000Y-86550000D03*
X105337389Y-87402931D03*
X112750000Y-82250000D03*
X161000000Y-97750000D03*
X146950000Y-85350000D03*
X116250000Y-99500000D03*
%TO.N,CODEC_SHDNZ*%
X137256470Y-85685702D03*
X121750000Y-86000000D03*
X102500000Y-85750000D03*
%TO.N,I2C1_SCL*%
X134750000Y-93250000D03*
X121750000Y-87825000D03*
X102626872Y-88976870D03*
%TO.N,I2C1_SDA*%
X146757773Y-93252279D03*
X103204841Y-89454841D03*
X143450000Y-94000000D03*
X134250000Y-94000000D03*
X121750000Y-88575003D03*
%TO.N,3V45_D*%
X140700000Y-82637500D03*
X152450000Y-90150000D03*
X119500000Y-84500000D03*
X151252194Y-86600000D03*
X101850000Y-90950000D03*
X139150000Y-81500000D03*
X146450000Y-95050000D03*
X139300000Y-94750000D03*
X148450000Y-95137500D03*
X121750000Y-99350000D03*
X148070272Y-80761603D03*
X141200000Y-91637500D03*
X149950000Y-92637500D03*
X150950000Y-90150000D03*
X150800000Y-94600000D03*
X150752724Y-87950000D03*
%TO.N,SAI4_SD_B*%
X133527817Y-90450000D03*
X133500000Y-92500000D03*
X105500000Y-90000000D03*
X123999994Y-90000000D03*
X133500000Y-94550000D03*
X149700000Y-81750000D03*
%TO.N,SAI4_SCK_B*%
X106054957Y-90504506D03*
X148950000Y-81750000D03*
X132750000Y-90450000D03*
X132750000Y-94500000D03*
X124749997Y-90000000D03*
X132750000Y-91750000D03*
%TO.N,SAI4_FS_B*%
X125500000Y-90000000D03*
X132000000Y-91000000D03*
X151250000Y-84250000D03*
X132000000Y-94300000D03*
X106604957Y-89979561D03*
%TO.N,VBAT*%
X160000000Y-86400000D03*
X143200000Y-78800000D03*
X144000000Y-77400000D03*
X162200000Y-88000000D03*
%TO.N,Net-(R7-Pad2)*%
X111750000Y-90250000D03*
X112500000Y-99500000D03*
X113750000Y-101150000D03*
X113250000Y-89000000D03*
%TO.N,SWDIO*%
X141863909Y-92663909D03*
%TO.N,SWCLK*%
X142997794Y-92592477D03*
%TO.N,SWO*%
X144950000Y-91650000D03*
%TO.N,NRST*%
X157710051Y-93899999D03*
%TO.N,Net-(J4-Pin_2)*%
X168250000Y-92500000D03*
%TO.N,Pot3*%
X144002757Y-81956916D03*
X133500000Y-88000000D03*
%TO.N,Net-(U2-FB)*%
X168400000Y-86800000D03*
X162500000Y-86500000D03*
%TO.N,/bat+*%
X168000000Y-79250000D03*
%TO.N,Pot2*%
X151000000Y-81750000D03*
%TO.N,I2S1_CK*%
X136250000Y-91550000D03*
X136450000Y-88250000D03*
X145719035Y-80720711D03*
X114750000Y-99250000D03*
%TO.N,I2S1_SDO*%
X137500000Y-87500000D03*
X145000000Y-81000000D03*
X137000000Y-91550000D03*
X115500000Y-99250000D03*
%TO.N,I2S1_WS*%
X135700000Y-89000000D03*
X116500000Y-96500000D03*
X135500000Y-91550000D03*
X146263909Y-81236091D03*
%TO.N,DAC_XSMT*%
X137750000Y-91550000D03*
X122500000Y-98550000D03*
%TO.N,/MCU/USART3_CTS*%
X139516008Y-84385277D03*
%TO.N,/MCU/USART3_RTS*%
X140750000Y-84900000D03*
%TO.N,/MCU/USART3_TX*%
X142950000Y-91750000D03*
%TO.N,/MCU/USART3_RX*%
X143850000Y-91750000D03*
%TD*%
%TO.N,3V3_A*%
D50*
X126950000Y-92250000D02*
X122000000Y-92250000D01*
D51*
X104750000Y-98000001D02*
X104750000Y-96250000D01*
X131500000Y-83250000D02*
X134500000Y-80250000D01*
X134600000Y-80144974D02*
X134600000Y-78000000D01*
D52*
X127529212Y-89740788D02*
X128020000Y-89250000D01*
D51*
X107349999Y-100600000D02*
X137075001Y-100600000D01*
D53*
X120500000Y-92250000D02*
X122000000Y-92250000D01*
D51*
X127249604Y-88837104D02*
X127249604Y-89740788D01*
D52*
X114582500Y-84230000D02*
X114612500Y-84200000D01*
D51*
X126687500Y-88275000D02*
X127249604Y-88837104D01*
D50*
X109427444Y-90675000D02*
X108620000Y-89867556D01*
X112500000Y-93500000D02*
X120500000Y-93500000D01*
D51*
X107687500Y-88250000D02*
X108250000Y-88812500D01*
X129750000Y-91000000D02*
X131250000Y-89500000D01*
X114612500Y-84200000D02*
X114612500Y-85887500D01*
D50*
X108620000Y-89867556D02*
X108620000Y-89750000D01*
D52*
X112750000Y-84230000D02*
X114582500Y-84230000D01*
D50*
X127550000Y-91000000D02*
X127550000Y-91650000D01*
D51*
X104750000Y-96250000D02*
X110500000Y-90500000D01*
D52*
X119537500Y-92250000D02*
X119425000Y-92137500D01*
D51*
X108250000Y-89500000D02*
X108500000Y-89750000D01*
X114612500Y-85887500D02*
X114500000Y-86000000D01*
D50*
X110325000Y-90675000D02*
X109427444Y-90675000D01*
D51*
X131250000Y-83250000D02*
X131500000Y-83250000D01*
D50*
X112500000Y-90000000D02*
X112500000Y-93500000D01*
D51*
X114270000Y-90000000D02*
X114750000Y-90480000D01*
D52*
X114875000Y-90605000D02*
X114750000Y-90480000D01*
D51*
X129750000Y-91000000D02*
X127550000Y-91000000D01*
D50*
X112375000Y-88625000D02*
X112500000Y-88750000D01*
D51*
X137075001Y-100600000D02*
X139675000Y-98000001D01*
D50*
X127550000Y-89891184D02*
X127399604Y-89740788D01*
X112500000Y-88750000D02*
X112500000Y-90000000D01*
X127550000Y-91000000D02*
X127550000Y-89891184D01*
D52*
X114875000Y-92137500D02*
X114875000Y-90605000D01*
D50*
X113750000Y-87250000D02*
X113750000Y-86750000D01*
X113750000Y-86750000D02*
X114500000Y-86000000D01*
X127550000Y-91650000D02*
X126950000Y-92250000D01*
X110500000Y-90500000D02*
X110325000Y-90675000D01*
D51*
X134500000Y-80250000D02*
X134500000Y-80244974D01*
D50*
X112375000Y-88625000D02*
X113750000Y-87250000D01*
X120500000Y-93500000D02*
X122000000Y-92000000D01*
D52*
X120500000Y-92250000D02*
X119537500Y-92250000D01*
D51*
X131250000Y-89500000D02*
X131250000Y-83250000D01*
X104750000Y-98000001D02*
X107349999Y-100600000D01*
X112500000Y-90000000D02*
X114270000Y-90000000D01*
X134600000Y-78000000D02*
X148712500Y-78000000D01*
X134500000Y-80244974D02*
X134600000Y-80144974D01*
X108250000Y-88812500D02*
X108250000Y-89500000D01*
D50*
X110500000Y-90500000D02*
X112375000Y-88625000D01*
%TO.N,Net-(U4-AREG)*%
D51*
X109270000Y-88750000D02*
X108270000Y-87750000D01*
X108270000Y-87750000D02*
X107687500Y-87750000D01*
%TO.N,Net-(U4-VREF)*%
X108514975Y-87500000D02*
X109520000Y-87500000D01*
X107687500Y-87250000D02*
X108264975Y-87250000D01*
X108264975Y-87250000D02*
X108514975Y-87500000D01*
%TO.N,GND*%
X151680000Y-91130000D02*
X152200000Y-91650000D01*
X104250000Y-82770000D02*
X104250000Y-82000000D01*
D53*
X156650000Y-91150000D02*
X156650000Y-89850000D01*
D51*
X126687500Y-86775000D02*
X125000000Y-86775000D01*
D50*
X116750000Y-89520000D02*
X116750000Y-88510000D01*
D51*
X161943487Y-81443487D02*
X162000000Y-81500000D01*
X153180000Y-86400000D02*
X153950000Y-86400000D01*
X163025001Y-83800000D02*
X163300000Y-83800000D01*
X161726399Y-86152048D02*
X162000000Y-85878447D01*
X162800000Y-83800000D02*
X163300000Y-83800000D01*
X126700000Y-82795000D02*
X126700000Y-82050000D01*
X155200000Y-83050000D02*
X155200000Y-82550000D01*
D53*
X156650000Y-89850000D02*
X156600000Y-89800000D01*
D51*
X163960000Y-97750000D02*
X161000000Y-97750000D01*
X143340000Y-79740000D02*
X143250000Y-79650000D01*
D53*
X160300000Y-89300000D02*
X160300000Y-90750000D01*
D51*
X106000000Y-82770000D02*
X106000000Y-82000000D01*
X148860000Y-92700000D02*
X148860000Y-92810000D01*
X106000000Y-86750000D02*
X105750000Y-87000000D01*
X156850000Y-86150000D02*
X156850000Y-86100000D01*
D52*
X120750000Y-98750000D02*
X120750000Y-99520000D01*
D51*
X153500000Y-84750000D02*
X155200000Y-83050000D01*
X174600000Y-98750001D02*
X174500001Y-98750001D01*
X147750000Y-84750000D02*
X145750000Y-86750000D01*
X142575000Y-83575000D02*
X145750000Y-86750000D01*
X149637500Y-84350000D02*
X148150000Y-84350000D01*
X101240000Y-86260000D02*
X101250000Y-86250000D01*
X120560000Y-82750000D02*
X119980000Y-83330000D01*
X110480000Y-87500000D02*
X111250000Y-87500000D01*
D52*
X112750000Y-83270000D02*
X112750000Y-82250000D01*
D51*
X114225000Y-97862500D02*
X114225000Y-98875000D01*
D52*
X144690000Y-92637500D02*
X144690000Y-92810000D01*
X114225000Y-91337500D02*
X113500000Y-90612500D01*
D51*
X141887500Y-89525000D02*
X142975000Y-89525000D01*
X148150000Y-84350000D02*
X145750000Y-86750000D01*
X143940000Y-79740000D02*
X143340000Y-79740000D01*
X168230000Y-94730000D02*
X167750000Y-94250000D01*
D52*
X118775000Y-99275000D02*
X119000000Y-99500000D01*
D51*
X162000000Y-85250000D02*
X162000000Y-84825001D01*
D50*
X128980000Y-89250000D02*
X130000000Y-89250000D01*
D51*
X162000000Y-81500000D02*
X162000000Y-82350000D01*
D53*
X139120000Y-90070000D02*
X139150000Y-90100000D01*
D51*
X124950000Y-82050000D02*
X125000000Y-82000000D01*
X161350000Y-81737998D02*
X161644511Y-81443487D01*
D52*
X114750000Y-89520000D02*
X114750000Y-88750000D01*
D50*
X142750000Y-80450000D02*
X141900000Y-80450000D01*
D51*
X167250000Y-93480000D02*
X167250000Y-94250000D01*
X150880000Y-91900000D02*
X151200000Y-91900000D01*
X110480000Y-86250000D02*
X111250000Y-86250000D01*
X110350000Y-89700000D02*
X110330025Y-89680025D01*
D53*
X169500000Y-89500000D02*
X169600000Y-89600000D01*
D51*
X148550000Y-90637500D02*
X148550000Y-89550000D01*
D53*
X139120000Y-89580000D02*
X139120000Y-90070000D01*
D51*
X102500000Y-82770000D02*
X102500000Y-82000000D01*
X156500000Y-82550000D02*
X156600000Y-82650000D01*
X154700000Y-88650000D02*
X154700000Y-89400000D01*
D50*
X116400000Y-86000000D02*
X117750000Y-86000000D01*
D51*
X156750000Y-86000000D02*
X156850000Y-85900000D01*
X149637500Y-87150000D02*
X146150000Y-87150000D01*
X110300000Y-89750000D02*
X110350000Y-89700000D01*
X145920000Y-79750000D02*
X147074375Y-79750000D01*
X124950000Y-82795000D02*
X124950000Y-82050000D01*
X142975000Y-89525000D02*
X145750000Y-86750000D01*
X147270272Y-80324103D02*
X147270272Y-79554103D01*
X161350000Y-82350000D02*
X162800000Y-83800000D01*
X162000000Y-85878447D02*
X162000000Y-85250000D01*
D52*
X160000000Y-84520000D02*
X160000000Y-83750000D01*
D51*
X118125000Y-92137500D02*
X118125000Y-90958174D01*
X149520000Y-79250000D02*
X148750000Y-79250000D01*
D53*
X104550000Y-91650000D02*
X104800000Y-91900000D01*
D51*
X119970000Y-89000000D02*
X119150000Y-89000000D01*
X142550000Y-82862500D02*
X142575000Y-82887500D01*
X156850000Y-85900000D02*
X156850000Y-85380000D01*
X140070000Y-90900000D02*
X140070000Y-91630000D01*
X138990000Y-85500000D02*
X138250000Y-85500000D01*
X118125000Y-90958174D02*
X118286587Y-90796587D01*
D52*
X144690000Y-92690000D02*
X144750000Y-92750000D01*
D50*
X116750000Y-88510000D02*
X116760000Y-88500000D01*
D51*
X162000000Y-82350000D02*
X162000000Y-82774999D01*
X129430000Y-86025000D02*
X130200000Y-86025000D01*
X126700000Y-82050000D02*
X126750000Y-82000000D01*
X125000000Y-86775000D02*
X124750000Y-87025000D01*
D50*
X139670000Y-83450000D02*
X138900000Y-83450000D01*
D51*
X119740000Y-86775000D02*
X118990000Y-86775000D01*
D52*
X117020000Y-99500000D02*
X116250000Y-99500000D01*
D51*
X140070000Y-91630000D02*
X140100000Y-91660000D01*
X161350000Y-82350000D02*
X161350000Y-81737998D01*
X107687500Y-86750000D02*
X106000000Y-86750000D01*
X147750000Y-82862500D02*
X147750000Y-84750000D01*
D52*
X114225000Y-92137500D02*
X114225000Y-91337500D01*
D51*
X107750000Y-82770000D02*
X107750000Y-82000000D01*
D52*
X113575000Y-92137500D02*
X113575000Y-90687500D01*
D51*
X119740000Y-87775000D02*
X119740000Y-86775000D01*
D50*
X165900000Y-87250000D02*
X167250000Y-87250000D01*
D51*
X148860000Y-92810000D02*
X149450000Y-93400000D01*
X150248906Y-88750000D02*
X150548906Y-89050000D01*
X152000000Y-81500000D02*
X152100000Y-81400000D01*
X168230000Y-95250000D02*
X168230000Y-94730000D01*
X155200000Y-82550000D02*
X156500000Y-82550000D01*
X114225000Y-98875000D02*
X113850000Y-99250000D01*
X151200000Y-91900000D02*
X151700000Y-92400000D01*
X113575000Y-98975000D02*
X113575000Y-97862500D01*
D52*
X144690000Y-92810000D02*
X144263909Y-93236091D01*
D53*
X160300000Y-90750000D02*
X160250000Y-90800000D01*
D51*
X162750000Y-93510000D02*
X162750000Y-94250000D01*
D52*
X113575000Y-90687500D02*
X113500000Y-90612500D01*
D51*
X149500000Y-80250000D02*
X149520000Y-80230000D01*
X109580000Y-89750000D02*
X110300000Y-89750000D01*
X129430000Y-88275000D02*
X130200000Y-88275000D01*
D53*
X104550000Y-91130000D02*
X104550000Y-91650000D01*
D51*
X101240000Y-87000000D02*
X101240000Y-86260000D01*
X149520000Y-80250000D02*
X149500000Y-80250000D01*
X162000000Y-84825001D02*
X163025001Y-83800000D01*
D52*
X120500000Y-91290000D02*
X120500000Y-90300000D01*
D51*
X165000000Y-94137500D02*
X165000000Y-95500000D01*
D53*
X142550000Y-82862500D02*
X142550000Y-82850000D01*
X167950000Y-75750000D02*
X165750000Y-75750000D01*
D51*
X154580000Y-80900000D02*
X155600000Y-80900000D01*
X148550000Y-89550000D02*
X145750000Y-86750000D01*
X149637500Y-88750000D02*
X150248906Y-88750000D01*
X152000000Y-82177500D02*
X152000000Y-81500000D01*
X151680000Y-90900000D02*
X151680000Y-91130000D01*
X120750000Y-82750000D02*
X120560000Y-82750000D01*
X123500000Y-82000000D02*
X123450000Y-82050000D01*
X119980000Y-83330000D02*
X119980000Y-82330000D01*
X159800000Y-83400000D02*
X160000000Y-83600000D01*
X110230000Y-88750000D02*
X111000000Y-88750000D01*
X122000000Y-82000000D02*
X121950000Y-82050000D01*
D50*
X121950000Y-90300000D02*
X122000000Y-90350000D01*
D51*
X113850000Y-99250000D02*
X113575000Y-98975000D01*
D52*
X116825000Y-99305000D02*
X117020000Y-99500000D01*
D51*
X123450000Y-82795000D02*
X123450000Y-82050000D01*
X156850000Y-86100000D02*
X156750000Y-86000000D01*
X107500000Y-91230000D02*
X107500000Y-92000000D01*
X116887500Y-83250000D02*
X118000000Y-83250000D01*
X159800000Y-82570000D02*
X159800000Y-83400000D01*
D50*
X116760000Y-88500000D02*
X117500000Y-88500000D01*
D51*
X161644511Y-81443487D02*
X161943487Y-81443487D01*
X162000000Y-82774999D02*
X163025001Y-83800000D01*
X146150000Y-87150000D02*
X145750000Y-86750000D01*
D50*
X120500000Y-90300000D02*
X121950000Y-90300000D01*
D51*
X141862500Y-89550000D02*
X141887500Y-89525000D01*
D53*
X169500000Y-88710000D02*
X169500000Y-89500000D01*
D51*
X174500001Y-98750001D02*
X174500000Y-98750000D01*
X153450000Y-91605000D02*
X153450000Y-92400000D01*
X144675000Y-98000001D02*
X148250000Y-98000000D01*
D52*
X126500000Y-91180000D02*
X125570000Y-91180000D01*
D51*
X119980000Y-82330000D02*
X120330000Y-82330000D01*
X142575000Y-82887500D02*
X142575000Y-83575000D01*
X167750000Y-94250000D02*
X167250000Y-94250000D01*
X121950000Y-82795000D02*
X121950000Y-82050000D01*
X149520000Y-80230000D02*
X149520000Y-79250000D01*
X147074375Y-79750000D02*
X147270272Y-79554103D01*
D52*
X118775000Y-97862500D02*
X118775000Y-99275000D01*
X116825000Y-97862500D02*
X116825000Y-99305000D01*
D51*
X129430000Y-87275000D02*
X130200000Y-87275000D01*
X120330000Y-82330000D02*
X120750000Y-82750000D01*
%TO.N,Net-(J2-Pin_1)*%
X114400000Y-81200000D02*
X115400000Y-80200000D01*
X111400000Y-82200000D02*
X112400000Y-81200000D01*
X111400000Y-84370000D02*
X111400000Y-82200000D01*
X109520000Y-86250000D02*
X111400000Y-84370000D01*
X109270000Y-86250000D02*
X107687500Y-86250000D01*
X115400000Y-76000000D02*
X113900000Y-74500000D01*
X115400000Y-80200000D02*
X115400000Y-76000000D01*
X113900000Y-74500000D02*
X112550000Y-74500000D01*
X112400000Y-81200000D02*
X114400000Y-81200000D01*
%TO.N,Net-(D6-K)*%
X109500000Y-83937500D02*
X109500000Y-82425000D01*
X111700000Y-80225000D02*
X113275000Y-80225000D01*
X109500000Y-82425000D02*
X111700000Y-80225000D01*
X113275000Y-80225000D02*
X113950000Y-79550000D01*
X109500000Y-83937500D02*
X107687500Y-85750000D01*
%TO.N,Net-(U4-IN1M_GPO1)*%
X107750000Y-83730000D02*
X107750000Y-84312500D01*
X107750000Y-84312500D02*
X107000000Y-85062500D01*
%TO.N,Net-(D7-K)*%
X106750000Y-80675000D02*
X107200000Y-80225000D01*
X107875000Y-79550000D02*
X107200000Y-80225000D01*
X106500000Y-84625001D02*
X106500000Y-85062500D01*
X109450000Y-79550000D02*
X107875000Y-79550000D01*
X106750000Y-84375001D02*
X106750000Y-80675000D01*
X106750000Y-84375001D02*
X106500000Y-84625001D01*
%TO.N,Net-(U4-IN2M_GPO2)*%
X106000000Y-83730000D02*
X106000000Y-85062500D01*
%TO.N,Net-(D8-K)*%
X102700000Y-80225000D02*
X104275000Y-80225000D01*
X105440000Y-81915000D02*
X103750000Y-80225000D01*
X105440000Y-81915000D02*
X105440000Y-85002500D01*
X105440000Y-85002500D02*
X105500000Y-85062500D01*
X103750000Y-80225000D02*
X102700000Y-80225000D01*
X104275000Y-80225000D02*
X104950000Y-79550000D01*
%TO.N,Net-(U4-IN3M_GPO3)*%
X105000000Y-84480000D02*
X105000000Y-85062500D01*
X104250000Y-83730000D02*
X105000000Y-84480000D01*
%TO.N,Net-(D9-K)*%
X102700000Y-81250000D02*
X99225000Y-81250000D01*
X99225000Y-81250000D02*
X98200000Y-80225000D01*
X103250000Y-83812500D02*
X104500000Y-85062500D01*
X103250000Y-81800000D02*
X102700000Y-81250000D01*
X100450000Y-79550000D02*
X98875000Y-79550000D01*
X98875000Y-79550000D02*
X98200000Y-80225000D01*
X103250000Y-81800000D02*
X103250000Y-83812500D01*
%TO.N,Net-(U4-IN4M_GPO4)*%
X102500000Y-83730000D02*
X102500000Y-84437500D01*
X102500000Y-84437500D02*
X103812500Y-85750000D01*
%TO.N,CODEC_SHDNZ*%
X137256470Y-85685702D02*
X137256470Y-85493530D01*
X103812500Y-86250000D02*
X103000000Y-86250000D01*
X122812500Y-86275000D02*
X122025000Y-86275000D01*
X139440000Y-84930000D02*
X140010000Y-85500000D01*
X140060000Y-85550000D02*
X141862500Y-85550000D01*
X137820000Y-84930000D02*
X139440000Y-84930000D01*
X122025000Y-86275000D02*
X121750000Y-86000000D01*
X140010000Y-85500000D02*
X140060000Y-85550000D01*
X103000000Y-86250000D02*
X102500000Y-85750000D01*
X137256470Y-85493530D02*
X137820000Y-84930000D01*
%TO.N,Net-(U4-ADDR1_MISO)*%
X102510000Y-86750000D02*
X103812500Y-86750000D01*
X102260000Y-87000000D02*
X102510000Y-86750000D01*
%TO.N,Net-(U4-ADDR0_SCLK)*%
X101750000Y-88990000D02*
X102276872Y-88463128D01*
X103375000Y-87375000D02*
X103500000Y-87250000D01*
X103230027Y-87400000D02*
X103281326Y-87400000D01*
X103281326Y-87400000D02*
X103306326Y-87375000D01*
X102276872Y-88353155D02*
X103230027Y-87400000D01*
X103306326Y-87375000D02*
X103375000Y-87375000D01*
X103500000Y-87250000D02*
X103812500Y-87250000D01*
X102276872Y-88463128D02*
X102276872Y-88353155D01*
%TO.N,I2C1_SCL*%
X103812500Y-87750000D02*
X103375001Y-87750000D01*
X122812500Y-87775000D02*
X121800000Y-87775000D01*
X143500000Y-93250000D02*
X144387500Y-94137500D01*
X121800000Y-87775000D02*
X121750000Y-87825000D01*
X102626872Y-88498129D02*
X102626872Y-88976870D01*
X147350000Y-90637500D02*
X147350000Y-91492475D01*
X103375001Y-87750000D02*
X102626872Y-88498129D01*
X146230000Y-92612475D02*
X146230000Y-93097500D01*
X146230000Y-93097500D02*
X145440000Y-93887500D01*
X134750000Y-93250000D02*
X143500000Y-93250000D01*
X147350000Y-91492475D02*
X146230000Y-92612475D01*
X144387500Y-94137500D02*
X145440000Y-94137500D01*
%TO.N,I2C1_SDA*%
X122512497Y-88575003D02*
X121750000Y-88575003D01*
X147750000Y-91839670D02*
X147370000Y-92219670D01*
X146757773Y-93252279D02*
X147117721Y-93252279D01*
X147370000Y-94067500D02*
X147440000Y-94137500D01*
X103204841Y-88795159D02*
X103750000Y-88250000D01*
X147750000Y-90637500D02*
X147750000Y-91839670D01*
X134250000Y-94000000D02*
X143450000Y-94000000D01*
X147370000Y-92219670D02*
X147370000Y-93000000D01*
X103204841Y-89454841D02*
X103204841Y-88795159D01*
X122812500Y-88275000D02*
X122512497Y-88575003D01*
X147117721Y-93252279D02*
X147370000Y-93000000D01*
X103750000Y-88250000D02*
X103812500Y-88250000D01*
X147370000Y-93000000D02*
X147370000Y-93817500D01*
%TO.N,3V45_D*%
D53*
X141130000Y-90700000D02*
X141130000Y-91567500D01*
D52*
X119020000Y-84020000D02*
X119020000Y-83330000D01*
D53*
X148950000Y-90637500D02*
X148950000Y-90730000D01*
D51*
X116887500Y-82300000D02*
X118990000Y-82300000D01*
X101750000Y-90010000D02*
X102310000Y-90010000D01*
D53*
X165310000Y-88710000D02*
X168500000Y-88710000D01*
D51*
X118990000Y-82300000D02*
X119020000Y-82330000D01*
D53*
X147547772Y-81284103D02*
X148070272Y-80761603D01*
D51*
X150850000Y-86750000D02*
X149637500Y-86750000D01*
X146460000Y-95127500D02*
X146450000Y-95137500D01*
X150720000Y-90900000D02*
X150587500Y-90900000D01*
D53*
X147270272Y-81284103D02*
X147547772Y-81284103D01*
X163950000Y-87200000D02*
X164000000Y-87250000D01*
D51*
X152945000Y-90645000D02*
X152450000Y-90150000D01*
D53*
X163300000Y-86550000D02*
X164000000Y-87250000D01*
D51*
X151252194Y-86600000D02*
X151452194Y-86400000D01*
D53*
X141862500Y-83550000D02*
X140730000Y-83550000D01*
D50*
X158750000Y-87250000D02*
X158600000Y-87400000D01*
D53*
X148950000Y-90730000D02*
X149920000Y-91700000D01*
D51*
X119020000Y-82330000D02*
X119020000Y-83330000D01*
D53*
X140730000Y-83550000D02*
X140630000Y-83450000D01*
X141862500Y-89967500D02*
X141130000Y-90700000D01*
D50*
X116887500Y-84200000D02*
X118150000Y-84200000D01*
D51*
X102310000Y-90010000D02*
X103250000Y-90950000D01*
X156955661Y-99105000D02*
X158125000Y-97935661D01*
D50*
X157800000Y-94800000D02*
X157600000Y-94600000D01*
D51*
X153450000Y-90645000D02*
X154245000Y-90645000D01*
D52*
X120750000Y-97540000D02*
X119747500Y-97540000D01*
D51*
X118240000Y-86547182D02*
X118240000Y-87143214D01*
X151000000Y-86600000D02*
X150850000Y-86750000D01*
D53*
X147220272Y-81334103D02*
X147270272Y-81284103D01*
X140630000Y-82707500D02*
X140700000Y-82637500D01*
D50*
X164000000Y-87250000D02*
X158750000Y-87250000D01*
X158125000Y-94475000D02*
X157800000Y-94800000D01*
D51*
X150720000Y-90380000D02*
X150950000Y-90150000D01*
X120370000Y-88440000D02*
X120930000Y-89000000D01*
D50*
X157600000Y-94600000D02*
X150800000Y-94600000D01*
D51*
X146460000Y-94137500D02*
X146460000Y-95127500D01*
X158125000Y-97935661D02*
X158125000Y-94475000D01*
X150589249Y-88036525D02*
X150502724Y-87950000D01*
X147350000Y-82862500D02*
X147350000Y-81363831D01*
X150720000Y-90900000D02*
X150720000Y-90380000D01*
D53*
X120750000Y-97540000D02*
X121750000Y-98540000D01*
X104550000Y-90170000D02*
X104030000Y-90170000D01*
D51*
X104550000Y-88987500D02*
X104500000Y-88937500D01*
X147350000Y-81363831D02*
X147270272Y-81284103D01*
D52*
X119747500Y-97540000D02*
X119425000Y-97862500D01*
D53*
X103250000Y-90950000D02*
X101850000Y-90950000D01*
D51*
X149920000Y-91700000D02*
X150720000Y-90900000D01*
D53*
X149920000Y-91700000D02*
X149920000Y-92607500D01*
X141862500Y-89950000D02*
X141862500Y-89967500D01*
D51*
X119500000Y-85287182D02*
X118240000Y-86547182D01*
X152315000Y-99105000D02*
X156955661Y-99105000D01*
X151452194Y-86400000D02*
X152220000Y-86400000D01*
D52*
X119500000Y-84500000D02*
X119020000Y-84020000D01*
D53*
X149920000Y-92607500D02*
X149950000Y-92637500D01*
X164000000Y-87400000D02*
X165310000Y-88710000D01*
D50*
X158600000Y-94000000D02*
X158125000Y-94475000D01*
D53*
X163950000Y-85250000D02*
X163950000Y-87200000D01*
D51*
X148460000Y-94137500D02*
X148460000Y-95127500D01*
X153450000Y-90645000D02*
X152945000Y-90645000D01*
X149920000Y-91900000D02*
X149920000Y-91700000D01*
X118240000Y-87143214D02*
X119536786Y-88440000D01*
D53*
X120930000Y-89000000D02*
X121230000Y-89300000D01*
D51*
X151252194Y-86600000D02*
X151000000Y-86600000D01*
X154245000Y-90645000D02*
X154750000Y-91150000D01*
D53*
X121750000Y-99350000D02*
X121800000Y-99350000D01*
X164000000Y-87250000D02*
X164000000Y-87400000D01*
X141130000Y-91567500D02*
X141200000Y-91637500D01*
X140630000Y-83450000D02*
X140630000Y-82707500D01*
D51*
X119500000Y-84500000D02*
X119500000Y-85287182D01*
D53*
X104030000Y-90170000D02*
X103250000Y-90950000D01*
D51*
X119536786Y-88440000D02*
X120370000Y-88440000D01*
D53*
X121230000Y-89300000D02*
X123162500Y-89300000D01*
D50*
X118150000Y-84200000D02*
X119020000Y-83330000D01*
D51*
X149637500Y-87950000D02*
X150502724Y-87950000D01*
X151565000Y-98355000D02*
X152315000Y-99105000D01*
X148460000Y-95127500D02*
X148450000Y-95137500D01*
D50*
X158600000Y-87400000D02*
X158600000Y-94000000D01*
D53*
X121750000Y-98540000D02*
X121750000Y-99350000D01*
X123162500Y-89300000D02*
X123500000Y-88962500D01*
X163300000Y-85250000D02*
X163300000Y-86550000D01*
D51*
X150587500Y-90900000D02*
X149637500Y-89950000D01*
X104550000Y-90170000D02*
X104550000Y-88987500D01*
%TO.N,SAI4_SD_B*%
X133500000Y-92500000D02*
X133500000Y-90477817D01*
X124000000Y-90000000D02*
X123999994Y-90000000D01*
X124000000Y-89972179D02*
X124000000Y-90000000D01*
X133500000Y-90477817D02*
X133527817Y-90450000D01*
X149500000Y-83412500D02*
X149500000Y-82000000D01*
X105500000Y-88937500D02*
X105500000Y-90000000D01*
X149500000Y-82000000D02*
X149750000Y-81750000D01*
X133500000Y-94550000D02*
X133500000Y-92500000D01*
X149637500Y-83550000D02*
X149500000Y-83412500D01*
X149750000Y-81750000D02*
X149700000Y-81750000D01*
X124500000Y-88962500D02*
X124500000Y-89472179D01*
X124500000Y-89472179D02*
X124000000Y-89972179D01*
%TO.N,SAI4_SCK_B*%
X132750000Y-94500000D02*
X132750000Y-91750000D01*
X125000000Y-89749997D02*
X124749997Y-90000000D01*
X125000000Y-88962500D02*
X125000000Y-89749997D01*
X148550000Y-82200000D02*
X149000000Y-81750000D01*
X106054957Y-88992457D02*
X106054957Y-90504506D01*
X106000000Y-88937500D02*
X106054957Y-88992457D01*
X148550000Y-82862500D02*
X148550000Y-82200000D01*
X132750000Y-91750000D02*
X132750000Y-90450000D01*
X149000000Y-81750000D02*
X148950000Y-81750000D01*
%TO.N,SAI4_FS_B*%
X125500000Y-88962500D02*
X125500000Y-90000000D01*
X132000000Y-94300000D02*
X132000000Y-91000000D01*
X106500000Y-89874604D02*
X106604957Y-89979561D01*
X149637500Y-85150000D02*
X150350000Y-85150000D01*
X106500000Y-88937500D02*
X106500000Y-89874604D01*
X150350000Y-85150000D02*
X151250000Y-84250000D01*
%TO.N,Net-(U4-DREG)*%
X107520000Y-89457500D02*
X107000000Y-88937500D01*
X107520000Y-90250000D02*
X107520000Y-89457500D01*
%TO.N,VBAT*%
D52*
X161120000Y-85480000D02*
X161350000Y-85250000D01*
D51*
X163800000Y-81300000D02*
X163950000Y-81450000D01*
X159800000Y-81550000D02*
X160475000Y-80875000D01*
X160475000Y-80875000D02*
X160550000Y-80800000D01*
D53*
X177699999Y-90500000D02*
X163400000Y-90500000D01*
D51*
X160750000Y-81150000D02*
X160475000Y-80875000D01*
D53*
X162200000Y-89300000D02*
X162200000Y-88000000D01*
D51*
X143200000Y-78800000D02*
X143860000Y-78800000D01*
D53*
X160000000Y-86400000D02*
X160000000Y-85480000D01*
D51*
X153675000Y-77275000D02*
X144125000Y-77275000D01*
D53*
X179600000Y-92400001D02*
X177699999Y-90500000D01*
D51*
X160750000Y-85430000D02*
X160750000Y-81150000D01*
X163050000Y-81300000D02*
X163300000Y-81300000D01*
X163950000Y-81450000D02*
X163950000Y-82350000D01*
X144125000Y-77275000D02*
X144000000Y-77400000D01*
X157950000Y-81550000D02*
X153675000Y-77275000D01*
X159800000Y-81550000D02*
X157950000Y-81550000D01*
D53*
X163400000Y-90500000D02*
X162200000Y-89300000D01*
D52*
X160000000Y-85480000D02*
X160800000Y-85480000D01*
D51*
X143860000Y-78800000D02*
X143920000Y-78740000D01*
X162650000Y-81450000D02*
X162800000Y-81300000D01*
X160550000Y-80800000D02*
X162550000Y-80800000D01*
X162650000Y-82350000D02*
X162650000Y-81450000D01*
X162800000Y-81300000D02*
X163050000Y-81300000D01*
X163300000Y-82350000D02*
X163300000Y-81300000D01*
D52*
X160800000Y-85480000D02*
X161120000Y-85480000D01*
D51*
X162550000Y-80800000D02*
X163050000Y-81300000D01*
X163300000Y-81300000D02*
X163800000Y-81300000D01*
X160800000Y-85480000D02*
X160750000Y-85430000D01*
%TO.N,Net-(U6-OUTL)*%
D53*
X116175000Y-90935000D02*
X116175000Y-92137500D01*
X115750000Y-90510000D02*
X116175000Y-90935000D01*
%TO.N,Net-(R7-Pad2)*%
D51*
X114050000Y-88200000D02*
X113250000Y-89000000D01*
D53*
X115750000Y-89490000D02*
X115750000Y-88510000D01*
D51*
X179600000Y-98000001D02*
X176600001Y-101000000D01*
X115440000Y-88200000D02*
X114050000Y-88200000D01*
X176600001Y-101000000D02*
X113900000Y-101000000D01*
X115740000Y-88500000D02*
X115440000Y-88200000D01*
X111750000Y-94250000D02*
X112500000Y-95000000D01*
X112500000Y-95000000D02*
X112500000Y-99500000D01*
D53*
X115750000Y-88510000D02*
X115740000Y-88500000D01*
D51*
X113900000Y-101000000D02*
X113750000Y-101150000D01*
X111750000Y-90250000D02*
X111750000Y-94250000D01*
%TO.N,Net-(D5-K)*%
X121752818Y-81075000D02*
X118025000Y-81075000D01*
X122890000Y-84477500D02*
X122890000Y-82212182D01*
X118025000Y-81075000D02*
X117200000Y-80250000D01*
X122890000Y-82212182D02*
X121752818Y-81075000D01*
X118800000Y-80250000D02*
X119500000Y-79550000D01*
X123500000Y-85087500D02*
X122890000Y-84477500D01*
X117200000Y-80250000D02*
X118800000Y-80250000D01*
%TO.N,Net-(D5-A)*%
X117620000Y-77300000D02*
X117200000Y-77300000D01*
X119350000Y-77300000D02*
X119500000Y-77450000D01*
X120420000Y-74500000D02*
X117620000Y-77300000D01*
X117200000Y-77300000D02*
X119350000Y-77300000D01*
%TO.N,Net-(U3-IN3M_GPO3)*%
X124000000Y-84305000D02*
X124000000Y-85087500D01*
X123450000Y-83755000D02*
X124000000Y-84305000D01*
%TO.N,SWDIO*%
X138750000Y-88750000D02*
X141862500Y-88750000D01*
X141850000Y-92650000D02*
X139380000Y-92650000D01*
X138490000Y-89010000D02*
X138750000Y-88750000D01*
X139380000Y-92650000D02*
X138490000Y-91760000D01*
X138490000Y-91760000D02*
X138490000Y-89010000D01*
X141863909Y-92663909D02*
X141850000Y-92650000D01*
%TO.N,SWCLK*%
X142400000Y-91994683D02*
X142997794Y-92592477D01*
X142400000Y-90787500D02*
X142400000Y-91994683D01*
X142550000Y-90637500D02*
X142400000Y-90787500D01*
%TO.N,SWO*%
X144950000Y-90637500D02*
X144950000Y-91650000D01*
%TO.N,NRST*%
X151335918Y-84900000D02*
X151850000Y-84900000D01*
X152650000Y-82487500D02*
X152000000Y-83137500D01*
X153314576Y-80340000D02*
X152650000Y-81004576D01*
X152000000Y-84750000D02*
X152000000Y-83137500D01*
X155817818Y-80340000D02*
X153314576Y-80340000D01*
X151850000Y-84900000D02*
X152000000Y-84750000D01*
X150534427Y-85550000D02*
X150734428Y-85350000D01*
X150885918Y-85350000D02*
X151335918Y-84900000D01*
X149637500Y-85550000D02*
X150534427Y-85550000D01*
X157710051Y-93899999D02*
X157900000Y-93710050D01*
X152650000Y-81004576D02*
X152650000Y-82487500D01*
X157900000Y-82422182D02*
X155817818Y-80340000D01*
X150734428Y-85350000D02*
X150885918Y-85350000D01*
X157900000Y-93710050D02*
X157900000Y-82422182D01*
%TO.N,Net-(J4-Pin_2)*%
X167250000Y-92000000D02*
X167000000Y-92000000D01*
D53*
X168250000Y-92500000D02*
X167270000Y-92500000D01*
D51*
X166000000Y-91812500D02*
X165950000Y-91862500D01*
D53*
X167270000Y-92500000D02*
X167250000Y-92520000D01*
D51*
X167000000Y-92000000D02*
X166862500Y-91862500D01*
X167250000Y-92520000D02*
X167250000Y-92000000D01*
X166862500Y-91862500D02*
X165950000Y-91862500D01*
%TO.N,Pot3*%
X144950000Y-82356326D02*
X144550590Y-81956916D01*
X144950000Y-82862500D02*
X144950000Y-82356326D01*
X107250000Y-98000001D02*
X107250000Y-97750000D01*
X122750000Y-100250000D02*
X124175000Y-98825000D01*
X124175000Y-98825000D02*
X124175000Y-97325000D01*
X107250000Y-98000001D02*
X109499999Y-100250000D01*
X109499999Y-100250000D02*
X122750000Y-100250000D01*
X144550590Y-81956916D02*
X144002757Y-81956916D01*
X124175000Y-97325000D02*
X133500000Y-88000000D01*
%TO.N,Net-(U2-FB)*%
D53*
X168500000Y-87690000D02*
X168500000Y-86900000D01*
X162650000Y-85250000D02*
X162650000Y-86350000D01*
D51*
X169500000Y-87690000D02*
X168500000Y-87690000D01*
D53*
X162650000Y-86350000D02*
X162500000Y-86500000D01*
X168500000Y-86900000D02*
X168400000Y-86800000D01*
%TO.N,Net-(L1-Pad2)*%
D52*
X165250000Y-85250000D02*
X168500000Y-85250000D01*
X168500000Y-85250000D02*
X168550000Y-85300000D01*
D51*
X165300000Y-85300000D02*
X165250000Y-85250000D01*
D52*
X164600000Y-85250000D02*
X165250000Y-85250000D01*
%TO.N,Net-(L1-Pad1)*%
D51*
X165300000Y-82300000D02*
X165250000Y-82350000D01*
D52*
X165250000Y-82350000D02*
X168500000Y-82350000D01*
X164600000Y-82350000D02*
X165250000Y-82350000D01*
X168500000Y-82350000D02*
X168550000Y-82300000D01*
%TO.N,MCU_VDDA*%
D51*
X149637500Y-83950000D02*
X150143674Y-83950000D01*
X150480000Y-80250000D02*
X150480000Y-79250000D01*
X150480000Y-81270000D02*
X150480000Y-80250000D01*
X150350000Y-82850000D02*
X150250000Y-82750000D01*
X150287500Y-78000000D02*
X150287500Y-79057500D01*
X150287500Y-79057500D02*
X150480000Y-79250000D01*
X150350000Y-83743674D02*
X150350000Y-82850000D01*
X150250000Y-81500000D02*
X150480000Y-81270000D01*
X150143674Y-83950000D02*
X150350000Y-83743674D01*
X150250000Y-82750000D02*
X150250000Y-81500000D01*
%TO.N,Net-(D4-K)*%
X121750000Y-80250000D02*
X123300000Y-80250000D01*
X124500000Y-85087500D02*
X124375000Y-84962500D01*
X123300000Y-80250000D02*
X124000000Y-79550000D01*
X124375000Y-81975000D02*
X122650000Y-80250000D01*
X124375000Y-84962500D02*
X124375000Y-81975000D01*
X122650000Y-80250000D02*
X121750000Y-80250000D01*
%TO.N,Net-(D4-A)*%
X121750000Y-77300000D02*
X121550000Y-77300000D01*
X121750000Y-75710000D02*
X121750000Y-77300000D01*
X121550000Y-77300000D02*
X121700000Y-77450000D01*
X121700000Y-77450000D02*
X124000000Y-77450000D01*
X122960000Y-74500000D02*
X121750000Y-75710000D01*
%TO.N,Net-(D3-K)*%
X125500000Y-85087500D02*
X125624999Y-84962501D01*
X126250000Y-80250000D02*
X127800000Y-80250000D01*
X125624999Y-80875001D02*
X126250000Y-80250000D01*
X125624999Y-84962501D02*
X125624999Y-80875001D01*
X127800000Y-80250000D02*
X128500000Y-79550000D01*
%TO.N,Net-(D3-A)*%
X126250000Y-77300000D02*
X128350000Y-77300000D01*
X125500000Y-74500000D02*
X125500000Y-76550000D01*
X128350000Y-77300000D02*
X128500000Y-77450000D01*
X125500000Y-76550000D02*
X126250000Y-77300000D01*
%TO.N,Net-(U3-ADDR0_SCLK)*%
X121260000Y-87275000D02*
X122812500Y-87275000D01*
X120760000Y-87775000D02*
X121260000Y-87275000D01*
%TO.N,Net-(D7-A)*%
X107200000Y-76770000D02*
X107200000Y-77275000D01*
X104930000Y-74500000D02*
X107200000Y-76770000D01*
X107200000Y-77275000D02*
X109275000Y-77275000D01*
X109275000Y-77275000D02*
X109450000Y-77450000D01*
%TO.N,Net-(D8-A)*%
X102390000Y-76965000D02*
X102700000Y-77275000D01*
X102390000Y-74500000D02*
X102390000Y-76965000D01*
X104775000Y-77275000D02*
X104950000Y-77450000D01*
X102700000Y-77275000D02*
X104775000Y-77275000D01*
%TO.N,Net-(D9-A)*%
X99850000Y-74550000D02*
X99200000Y-75200000D01*
X99200000Y-76275000D02*
X98200000Y-77275000D01*
X100200000Y-77500000D02*
X99975000Y-77275000D01*
X99850000Y-74500000D02*
X99850000Y-74550000D01*
X100450000Y-77450000D02*
X100450000Y-77500000D01*
X100450000Y-77500000D02*
X100200000Y-77500000D01*
X99200000Y-75200000D02*
X99200000Y-76275000D01*
X99975000Y-77275000D02*
X98200000Y-77275000D01*
%TO.N,Net-(U3-IN1M_GPO1)*%
X126700000Y-83755000D02*
X126700000Y-84387500D01*
X126700000Y-84387500D02*
X126000000Y-85087500D01*
%TO.N,Net-(U6-LDOO)*%
D52*
X118125000Y-99355000D02*
X117980000Y-99500000D01*
X118125000Y-97862500D02*
X118125000Y-99355000D01*
%TO.N,Net-(D6-A)*%
D51*
X107470000Y-74500000D02*
X108970000Y-76000000D01*
X108970000Y-76000000D02*
X110425000Y-76000000D01*
X113775000Y-77275000D02*
X113950000Y-77450000D01*
X111700000Y-77275000D02*
X113775000Y-77275000D01*
X110425000Y-76000000D02*
X111700000Y-77275000D01*
%TO.N,Net-(U3-AREG)*%
X128470000Y-88275000D02*
X127970000Y-87775000D01*
X127970000Y-87775000D02*
X126687500Y-87775000D01*
%TO.N,Net-(U3-VREF)*%
X128470000Y-87275000D02*
X126687500Y-87275000D01*
%TO.N,Net-(J1-Pin_1)*%
X132250000Y-81500000D02*
X130950000Y-82800000D01*
X134250000Y-75630000D02*
X134250000Y-80000000D01*
X126687500Y-86275000D02*
X127068674Y-86275000D01*
X129600000Y-84895000D02*
X128470000Y-86025000D01*
X129600000Y-82800000D02*
X129600000Y-84895000D01*
X133120000Y-74500000D02*
X134250000Y-75630000D01*
X130950000Y-82800000D02*
X129600000Y-82800000D01*
X133500000Y-80750000D02*
X132250000Y-80750000D01*
X127318674Y-86025000D02*
X128470000Y-86025000D01*
X127068674Y-86275000D02*
X127318674Y-86025000D01*
X134250000Y-80000000D02*
X133500000Y-80750000D01*
X132250000Y-80750000D02*
X132250000Y-81500000D01*
%TO.N,Net-(D2-K)*%
X133000000Y-79550000D02*
X131450000Y-79550000D01*
X128500000Y-83962500D02*
X128500000Y-82500000D01*
X128500000Y-82500000D02*
X130750000Y-80250000D01*
X126687500Y-85775000D02*
X128500000Y-83962500D01*
X131450000Y-79550000D02*
X130750000Y-80250000D01*
%TO.N,Net-(U3-IN2M_GPO2)*%
X124950000Y-83755000D02*
X124950000Y-85037500D01*
X124950000Y-85037500D02*
X125000000Y-85087500D01*
%TO.N,Net-(U3-IN4M_GPO4)*%
X121950000Y-84912500D02*
X122812500Y-85775000D01*
X121950000Y-83735000D02*
X121950000Y-84912500D01*
%TO.N,Net-(U3-ADDR1_MISO)*%
X122812500Y-86775000D02*
X120760000Y-86775000D01*
%TO.N,Net-(U3-DREG)*%
D53*
X126500000Y-90000000D02*
X126500000Y-89462500D01*
D51*
X126470000Y-89432500D02*
X126000000Y-88962500D01*
D53*
X126500000Y-89462500D02*
X126470000Y-89432500D01*
%TO.N,BATT_SENSE*%
D51*
X144250000Y-80295424D02*
X144805424Y-79740000D01*
X144900000Y-79740000D02*
X144900000Y-78770000D01*
X144500000Y-81500000D02*
X144250000Y-81250000D01*
X144250000Y-81250000D02*
X144250000Y-80295424D01*
X145350000Y-82100000D02*
X144750000Y-81500000D01*
X144900000Y-78770000D02*
X144930000Y-78740000D01*
X145350000Y-82862500D02*
X145350000Y-82100000D01*
X145920000Y-78730000D02*
X144940000Y-78730000D01*
X144750000Y-81500000D02*
X144500000Y-81500000D01*
X145370000Y-82842500D02*
X145350000Y-82862500D01*
X144805424Y-79740000D02*
X144900000Y-79740000D01*
X144940000Y-78730000D02*
X144930000Y-78740000D01*
%TO.N,/out*%
X171040000Y-99750000D02*
X175350001Y-99750000D01*
X175350001Y-99750000D02*
X177100000Y-98000001D01*
X169040000Y-97750000D02*
X171040000Y-99750000D01*
%TO.N,/bat+*%
X167362500Y-95157500D02*
X167270000Y-95250000D01*
X165980000Y-94167500D02*
X165950000Y-94137500D01*
X169690000Y-95810000D02*
X173099999Y-92400001D01*
D53*
X167750000Y-77750000D02*
X168000000Y-78000000D01*
D51*
X167830000Y-95810000D02*
X169690000Y-95810000D01*
D53*
X167270000Y-95250000D02*
X167062500Y-95250000D01*
D51*
X173099999Y-92400001D02*
X174600000Y-92400001D01*
D53*
X168000000Y-78000000D02*
X168000000Y-79250000D01*
D51*
X167270000Y-95250000D02*
X167830000Y-95810000D01*
D53*
X167950000Y-77750000D02*
X167750000Y-77750000D01*
X167062500Y-95250000D02*
X165950000Y-94137500D01*
%TO.N,Pot2*%
D51*
X151000000Y-83000000D02*
X151000000Y-81750000D01*
X150700000Y-83888648D02*
X150700000Y-83300000D01*
X150500000Y-84500000D02*
X150500000Y-84088649D01*
X150250000Y-84750000D02*
X150500000Y-84500000D01*
X150500000Y-84088649D02*
X150700000Y-83888648D01*
X150700000Y-83300000D02*
X151000000Y-83000000D01*
X149637500Y-84750000D02*
X150250000Y-84750000D01*
%TO.N,Net-(U6-CAPP)*%
D53*
X119230000Y-90000000D02*
X119230000Y-90770000D01*
X118775000Y-91225000D02*
X118775000Y-92137500D01*
X119230000Y-90770000D02*
X118775000Y-91225000D01*
%TO.N,Net-(U6-CAPM)*%
X117475000Y-92137500D02*
X117475000Y-90795000D01*
X117475000Y-90795000D02*
X118270000Y-90000000D01*
%TO.N,Net-(C91-Pad1)*%
D51*
X140510000Y-89150000D02*
X141862500Y-89150000D01*
X139980000Y-89680000D02*
X140510000Y-89150000D01*
%TO.N,Net-(D2-A)*%
X130750000Y-77300000D02*
X132850000Y-77300000D01*
X132850000Y-77300000D02*
X133000000Y-77450000D01*
X130750000Y-77210000D02*
X130750000Y-77300000D01*
X128040000Y-74500000D02*
X130750000Y-77210000D01*
%TO.N,Net-(U7-PH0)*%
X150724376Y-86350000D02*
X151024376Y-86050000D01*
X151550000Y-85700000D02*
X154250000Y-85700000D01*
X151024376Y-86050000D02*
X151200000Y-86050000D01*
X154250000Y-85700000D02*
X155200000Y-84750000D01*
X151200000Y-86050000D02*
X151550000Y-85700000D01*
X156850000Y-84420000D02*
X155530000Y-84420000D01*
X149637500Y-86350000D02*
X150724376Y-86350000D01*
X155530000Y-84420000D02*
X155200000Y-84750000D01*
X156850000Y-84420000D02*
X156880000Y-84420000D01*
%TO.N,Net-(U6-VNEG)*%
D53*
X116750000Y-90480000D02*
X116750000Y-92062500D01*
X116750000Y-92062500D02*
X116825000Y-92137500D01*
%TO.N,Net-(U7-VFBSMPS)*%
D51*
X154235000Y-87690000D02*
X153525000Y-88400000D01*
X153274999Y-87150000D02*
X151227818Y-87150000D01*
X150524906Y-87400000D02*
X150374906Y-87550000D01*
X151227818Y-87150000D02*
X150977818Y-87400000D01*
X150977818Y-87400000D02*
X150524906Y-87400000D01*
X150374906Y-87550000D02*
X149637500Y-87550000D01*
X153525000Y-87400001D02*
X153274999Y-87150000D01*
X153525000Y-88400000D02*
X153525000Y-87400001D01*
X154700000Y-87690000D02*
X154235000Y-87690000D01*
%TO.N,Net-(U8-PROG)*%
X162750000Y-92000000D02*
X163000000Y-92000000D01*
X162750000Y-92490000D02*
X162750000Y-92000000D01*
X163000000Y-92000000D02*
X163137500Y-91862500D01*
X163137500Y-91862500D02*
X164050000Y-91862500D01*
X164000000Y-91802500D02*
X164050000Y-91852500D01*
%TO.N,I2S1_CK*%
X136250000Y-88500000D02*
X136500000Y-88250000D01*
X136500000Y-88250000D02*
X136450000Y-88250000D01*
X146550000Y-82300000D02*
X145713909Y-81463909D01*
X145713909Y-80725837D02*
X145719035Y-80720711D01*
X145713909Y-81463909D02*
X145713909Y-80725837D01*
X146550000Y-82862500D02*
X146550000Y-82300000D01*
X114875000Y-97862500D02*
X114875000Y-99125000D01*
X136250000Y-91550000D02*
X136250000Y-88500000D01*
X114875000Y-99125000D02*
X114750000Y-99250000D01*
%TO.N,I2S1_SDO*%
X145750000Y-82862500D02*
X145750000Y-81994974D01*
X137000000Y-91550000D02*
X137000000Y-88000000D01*
X145000000Y-81244974D02*
X145000000Y-81000000D01*
X137000000Y-88000000D02*
X137500000Y-87500000D01*
X145750000Y-81994974D02*
X145000000Y-81244974D01*
X115525000Y-97862500D02*
X115525000Y-99225000D01*
X115525000Y-99225000D02*
X115500000Y-99250000D01*
%TO.N,I2S1_WS*%
X146950000Y-82200000D02*
X146263909Y-81513909D01*
X135750000Y-89000000D02*
X135700000Y-89000000D01*
X146950000Y-82862500D02*
X146950000Y-82200000D01*
X116175000Y-97862500D02*
X116175000Y-96825000D01*
X135500000Y-91550000D02*
X135500000Y-89250000D01*
X146263909Y-81513909D02*
X146263909Y-81236091D01*
X116175000Y-96825000D02*
X116500000Y-96500000D01*
X135500000Y-89250000D02*
X135750000Y-89000000D01*
%TO.N,DAC_XSMT*%
X120950424Y-96875000D02*
X122500000Y-98424576D01*
X117475000Y-97525000D02*
X117500000Y-97500000D01*
X117877254Y-96875000D02*
X120950424Y-96875000D01*
X137750000Y-89250000D02*
X137750000Y-91550000D01*
X117475000Y-97862500D02*
X117475000Y-97525000D01*
X141862500Y-86350000D02*
X140650000Y-86350000D01*
X117475000Y-97862500D02*
X117475000Y-97277254D01*
X117475000Y-97277254D02*
X117877254Y-96875000D01*
X140650000Y-86350000D02*
X137750000Y-89250000D01*
X122500000Y-98424576D02*
X122500000Y-98550000D01*
%TO.N,Net-(U7-BOOT0)*%
X145710000Y-92637500D02*
X146950000Y-91397500D01*
X146950000Y-91397500D02*
X146950000Y-90637500D01*
%TO.N,Net-(U7-PH1)*%
X153500000Y-83088648D02*
X153500000Y-82550000D01*
X152650000Y-83400000D02*
X153500000Y-82550000D01*
X150879402Y-85700000D02*
X151050000Y-85700000D01*
X151500000Y-85250000D02*
X152250000Y-85250000D01*
X149637500Y-85950000D02*
X150629402Y-85950000D01*
X153620000Y-80900000D02*
X153620000Y-81130000D01*
X152650000Y-84850000D02*
X152650000Y-83400000D01*
X150629402Y-85950000D02*
X150879402Y-85700000D01*
X153500000Y-81250000D02*
X153500000Y-82550000D01*
X152250000Y-85250000D02*
X152650000Y-84850000D01*
X153620000Y-81130000D02*
X153500000Y-81250000D01*
X151050000Y-85700000D02*
X151500000Y-85250000D01*
%TO.N,Net-(C90-Pad1)*%
D53*
X142950000Y-81610000D02*
X142750000Y-81410000D01*
X142950000Y-82862500D02*
X142950000Y-81610000D01*
%TO.N,Net-(C92-Pad1)*%
X147900000Y-92220000D02*
X147900000Y-92700000D01*
X148150000Y-90637500D02*
X148150000Y-91970000D01*
X148150000Y-91970000D02*
X147900000Y-92220000D01*
%TO.N,Net-(U7-VLXSMPS)*%
D51*
X150374906Y-88350000D02*
X150524906Y-88500000D01*
X150524906Y-88500000D02*
X151775000Y-88500000D01*
X151775000Y-88500000D02*
X151875000Y-88400000D01*
X149637500Y-88350000D02*
X150374906Y-88350000D01*
%TO.N,/MCU/USART3_CTS*%
X139564723Y-84385277D02*
X139600000Y-84350000D01*
X139516008Y-84385277D02*
X139564723Y-84385277D01*
X139600000Y-84350000D02*
X141862500Y-84350000D01*
%TO.N,/MCU/USART3_RTS*%
X140900000Y-84750000D02*
X140750000Y-84900000D01*
X141862500Y-84750000D02*
X140900000Y-84750000D01*
%TO.N,/MCU/USART3_TX*%
X143350000Y-90637500D02*
X143350000Y-91350000D01*
X143350000Y-91350000D02*
X142950000Y-91750000D01*
%TO.N,/MCU/USART3_RX*%
X143750000Y-91500000D02*
X143750000Y-90637500D01*
X144000000Y-91750000D02*
X143750000Y-91500000D01*
%TD*%
M02*
