M48
; DRILL file KiCad 10.0.1 date 2026-07-26T18:03:04
; FORMAT={-:-/ absolute / metric / decimal}
; #@! TF.CreationDate,2026-07-26T18:03:04-07:00
; #@! TF.GenerationSoftware,Kicad,Pcbnew,10.0.1
; #@! TF.FileFunction,Plated,1,4,PTH
FMAT,2
METRIC
; #@! TA.AperFunction,Plated,PTH,ViaDrill
T1C0.300
; #@! TA.AperFunction,Plated,PTH,ComponentDrill
T2C0.650
; #@! TA.AperFunction,Plated,PTH,ComponentDrill
T3C0.750
; #@! TA.AperFunction,Plated,PTH,ComponentDrill
T4C1.000
%
G90
G05
T1
X101.25Y-86.25
X101.85Y-90.95
X102.5Y-82.0
X102.5Y-85.75
X102.627Y-88.977
X103.205Y-89.455
X104.25Y-82.0
X104.8Y-91.9
X105.337Y-86.603
X105.337Y-87.403
X105.5Y-90.0
X106.0Y-82.0
X106.055Y-90.505
X106.137Y-86.603
X106.137Y-87.403
X106.605Y-89.98
X107.5Y-92.0
X107.75Y-82.0
X110.33Y-89.68
X111.0Y-88.75
X111.25Y-86.25
X111.25Y-87.5
X111.75Y-90.25
X112.5Y-99.5
X112.75Y-82.25
X113.25Y-89.0
X113.5Y-90.612
X113.75Y-101.15
X113.85Y-99.25
X114.75Y-88.75
X114.75Y-99.25
X115.5Y-99.25
X116.25Y-99.5
X116.5Y-96.5
X117.5Y-88.5
X117.75Y-86.0
X118.0Y-83.25
X118.287Y-90.797
X118.79Y-86.775
X119.0Y-99.5
X119.15Y-89.0
X119.5Y-84.5
X120.5Y-90.3
X120.75Y-82.75
X120.75Y-99.52
X121.75Y-86.0
X121.75Y-87.825
X121.75Y-88.575
X121.75Y-99.35
X121.95Y-82.05
X122.5Y-98.55
X123.45Y-82.05
X124.0Y-90.0
X124.313Y-86.629
X124.313Y-87.429
X124.75Y-90.0
X125.0Y-82.0
X125.113Y-86.629
X125.113Y-87.429
X125.5Y-90.0
X125.55Y-91.2
X126.75Y-82.0
X130.0Y-89.25
X130.2Y-86.025
X130.2Y-87.275
X130.2Y-88.275
X132.0Y-91.0
X132.0Y-94.3
X132.75Y-90.45
X132.75Y-91.75
X132.75Y-94.5
X133.5Y-88.0
X133.5Y-92.5
X133.5Y-94.55
X133.528Y-90.45
X134.25Y-94.0
X134.75Y-93.25
X135.5Y-91.55
X135.7Y-89.0
X136.25Y-91.55
X136.45Y-88.25
X137.0Y-91.55
X137.256Y-85.686
X137.5Y-87.5
X137.75Y-91.55
X138.25Y-85.5
X138.9Y-83.45
X139.15Y-81.5
X139.15Y-90.1
X139.3Y-94.75
X139.516Y-84.385
X140.1Y-91.66
X140.7Y-82.638
X140.75Y-84.9
X141.2Y-91.638
X141.864Y-92.664
X141.9Y-80.45
X142.95Y-91.75
X142.998Y-92.592
X143.2Y-78.8
X143.25Y-79.65
X143.35Y-84.15
X143.35Y-85.35
X143.35Y-86.55
X143.35Y-87.75
X143.35Y-88.95
X143.45Y-94.0
X143.85Y-91.75
X144.0Y-77.4
X144.003Y-81.957
X144.264Y-93.236
X144.55Y-84.15
X144.55Y-85.35
X144.55Y-86.55
X144.55Y-87.75
X144.55Y-88.95
X144.95Y-91.65
X145.0Y-81.0
X145.719Y-80.721
X145.75Y-84.15
X145.75Y-85.35
X145.75Y-86.55
X145.75Y-87.75
X145.75Y-88.95
X146.264Y-81.236
X146.45Y-95.05
X146.758Y-93.252
X146.95Y-84.15
X146.95Y-85.35
X146.95Y-86.55
X146.95Y-87.75
X146.95Y-88.95
X147.27Y-79.554
X148.07Y-80.762
X148.15Y-84.15
X148.15Y-85.35
X148.15Y-86.55
X148.15Y-87.75
X148.15Y-88.95
X148.25Y-98.0
X148.45Y-95.137
X148.75Y-79.25
X148.95Y-81.75
X149.45Y-93.4
X149.7Y-81.75
X149.95Y-92.638
X150.549Y-89.05
X150.753Y-87.95
X150.8Y-94.6
X150.95Y-90.15
X151.0Y-81.75
X151.25Y-84.25
X151.252Y-86.6
X151.7Y-92.4
X152.1Y-81.4
X152.2Y-91.65
X152.45Y-90.15
X153.45Y-92.4
X153.95Y-86.4
X154.7Y-89.4
X155.6Y-80.9
X156.6Y-82.65
X156.6Y-89.8
X156.85Y-86.15
X157.71Y-93.9
X160.0Y-83.6
X160.0Y-86.4
X160.25Y-90.8
X161.0Y-97.75
X161.645Y-81.443
X161.726Y-86.152
X161.918Y-83.8
X162.2Y-88.0
X162.5Y-86.5
X162.75Y-94.25
X162.818Y-83.8
X163.718Y-83.8
X164.618Y-83.8
X165.0Y-95.5
X165.75Y-75.75
X167.25Y-87.25
X167.25Y-94.25
X168.0Y-79.25
X168.25Y-92.5
X168.4Y-86.8
X169.6Y-89.6
T2
X151.565Y-97.085
X151.565Y-98.355
X152.835Y-97.085
X152.835Y-98.355
X154.105Y-97.085
X154.105Y-98.355
X155.375Y-97.085
X155.375Y-98.355
X156.645Y-97.085
X156.645Y-98.355
T3
X167.95Y-75.75
X167.95Y-77.75
T4
X99.85Y-74.5
X102.39Y-74.5
X104.75Y-98.0
X104.93Y-74.5
X107.25Y-98.0
X107.47Y-74.5
X109.75Y-98.0
X110.01Y-74.5
X112.55Y-74.5
X120.42Y-74.5
X122.96Y-74.5
X125.5Y-74.5
X128.04Y-74.5
X130.58Y-74.5
X133.12Y-74.5
X139.675Y-98.0
X142.175Y-98.0
X144.675Y-98.0
X163.96Y-97.75
X166.5Y-97.75
X169.04Y-97.75
X174.6Y-92.4
X174.6Y-98.0
X177.1Y-98.0
X179.6Y-92.4
X179.6Y-98.0
M30
