0
SECTION
2
HEADER
9
$INSUNITS
70
1
9
$ACADVER
1
AC1014
9
$HANDSEED
5
FFFF
0
ENDSEC
0
SECTION
2
TABLES
0
TABLE
2
VPORT
5
8
100
AcDbSymbolTable
0
ENDTAB
0
TABLE
2
LTYPE
5
5
100
AcDbSymbolTable
0
LTYPE
5
14
100
AcDbSymbolTableRecord
100
AcDbLinetypeTableRecord
2
BYBLOCK
70
0
0
LTYPE
5
15
100
AcDbSymbolTableRecord
100
AcDbLinetypeTableRecord
2
BYLAYER
70
0
0
LTYPE
5
16
100
AcDbSymbolTableRecord
100
AcDbLinetypeTableRecord
2
DASHED
70
0
3
Dashed __ __ __ __ __ __ __ __ __ __ __ __ __ _
72
65
73
2
40
0.75
49
0.5
74
0
49
-0.25
74
0
0
ENDTAB
0
TABLE
2
LAYER
5
2
100
AcDbSymbolTable
70
2
0
LAYER
5
50
100
AcDbSymbolTableRecord
100
AcDbLayerTableRecord
2
0
70
0
62
7
6
CONTINUOUS
0
ENDTAB
0
TABLE
2
STYLE
5
3
100
AcDbSymbolTable
70
1
0
STYLE
5
11
100
AcDbSymbolTableRecord
100
AcDbTextStyleTableRecord
2
STANDARD
70
0
0
ENDTAB
0
TABLE
2
VIEW
5
6
100
AcDbSymbolTable
70
0
0
ENDTAB
0
TABLE
2
UCS
5
7
100
AcDbSymbolTable
70
0
0
ENDTAB
0
TABLE
2
APPID
5
9
100
AcDbSymbolTable
70
2
0
APPID
5
12
100
AcDbSymbolTableRecord
100
AcDbRegAppTableRecord
2
ACAD
70
0
0
ENDTAB
0
TABLE
2
DIMSTYLE
5
A
100
AcDbSymbolTable
70
1
0
ENDTAB
0
TABLE
2
BLOCK_RECORD
5
1
100
AcDbSymbolTable
70
1
0
BLOCK_RECORD
5
1F
100
AcDbSymbolTableRecord
100
AcDbBlockTableRecord
2
*MODEL_SPACE
0
BLOCK_RECORD
5
1B
100
AcDbSymbolTableRecord
100
AcDbBlockTableRecord
2
*PAPER_SPACE
0
ENDTAB
0
ENDSEC
0
SECTION
2
BLOCKS
0
BLOCK
5
20
100
AcDbEntity
100
AcDbBlockBegin
2
*MODEL_SPACE
0
ENDBLK
5
21
100
AcDbEntity
100
AcDbBlockEnd
0
BLOCK
5
1C
100
AcDbEntity
100
AcDbBlockBegin
2
*PAPER_SPACE
0
ENDBLK
5
1D
100
AcDbEntity
100
AcDbBlockEnd
0
ENDSEC
0
SECTION
2
ENTITIES
0
CIRCLE
5
100
100
AcDbEntity
8
0
100
AcDbCircle
10
-0.45499999999999996
20
0.78499999999999992
30
0
40
0.063775788898672303
210
0
220
-0
230
1
0
CIRCLE
5
101
100
AcDbEntity
8
0
100
AcDbCircle
10
0.45499999999999996
20
0.78499999999999992
30
0
40
0.063775788898672303
210
0
220
-0
230
1
0
CIRCLE
5
102
100
AcDbEntity
8
0
100
AcDbCircle
10
0.45499999999999996
20
-0.78499999999999992
30
0
40
0.063775788898672303
210
0
220
-0
230
1
0
CIRCLE
5
103
100
AcDbEntity
8
0
100
AcDbCircle
10
-0.45499999999999996
20
-0.78499999999999992
30
0
40
0.063775788898672303
210
0
220
-0
230
1
0
ARC
5
104
100
AcDbEntity
8
0
100
AcDbCircle
10
0.31701219512195128
20
0.78499999999999992
30
0
40
0.24298780487804872
210
-0
220
0
230
1
100
AcDbArc
50
-81.0056967706645
51
81.005696770664485
0
ARC
5
105
100
AcDbEntity
8
0
100
AcDbCircle
10
0.27625984251968488
20
1.7462598425196849
30
0
40
0.078740157480314932
210
0
220
-0
230
1
100
AcDbArc
50
0
51
90.000000000000043
0
LINE
5
106
100
AcDbEntity
8
0
100
AcDbLine
10
0.27625984251968483
20
1.825
30
0
11
0
21
1.825
31
0
0
ARC
5
107
100
AcDbEntity
8
0
100
AcDbCircle
10
-0.27625984251968488
20
1.7462598425196849
30
0
40
0.078740157480315029
210
0
220
-0
230
1
100
AcDbArc
50
89.999999999999972
51
180
0
LINE
5
108
100
AcDbEntity
8
0
100
AcDbLine
10
-0.27625984251968483
20
1.825
30
0
11
0
21
1.825
31
0
0
ARC
5
109
100
AcDbEntity
8
0
100
AcDbCircle
10
-0.31701219512195128
20
0.78499999999999992
30
0
40
0.24298780487804872
210
0
220
0
230
1
100
AcDbArc
50
98.994303229335515
51
261.00569677066443
0
ARC
5
110
100
AcDbEntity
8
0
100
AcDbCircle
10
0.27625984251968488
20
-1.7462598425196849
30
0
40
0.078740157480315029
210
0
220
0
230
1
100
AcDbArc
50
-90.000000000000057
51
0
0
LINE
5
111
100
AcDbEntity
8
0
100
AcDbLine
10
0.27625984251968483
20
-1.825
30
0
11
0
21
-1.825
31
0
0
ARC
5
112
100
AcDbEntity
8
0
100
AcDbCircle
10
-0.27625984251968488
20
-1.7462598425196849
30
0
40
0.078740157480315195
210
0
220
0
230
1
100
AcDbArc
50
180
51
270.00000000000006
0
LINE
5
113
100
AcDbEntity
8
0
100
AcDbLine
10
-0.27625984251968483
20
-1.825
30
0
11
0
21
-1.825
31
0
0
ARC
5
114
100
AcDbEntity
8
0
100
AcDbCircle
10
-0.31701219512195128
20
-0.78499999999999992
30
0
40
0.24298780487804872
210
0
220
0
230
1
100
AcDbArc
50
98.994303229335515
51
261.00569677066443
0
ARC
5
115
100
AcDbEntity
8
0
100
AcDbCircle
10
0.31701219512195128
20
-0.78499999999999992
30
0
40
0.24298780487804872
210
-0
220
0
230
1
100
AcDbArc
50
-81.0056967706645
51
81.005696770664485
0
LINE
5
116
100
AcDbEntity
8
0
100
AcDbLine
10
0.35499999999999982
20
1.7462598425196849
30
0
11
0.35499999999999993
21
1.0249999999999999
31
0
0
LINE
5
117
100
AcDbEntity
8
0
100
AcDbLine
10
0.35499999999999987
20
0.54500000000000004
30
0
11
0.35499999999999993
21
-0.54500000000000004
31
0
0
LINE
5
118
100
AcDbEntity
8
0
100
AcDbLine
10
0.35499999999999987
20
-1.0249999999999999
30
0
11
0.35499999999999993
21
-1.7462598425196849
31
0
0
LINE
5
119
100
AcDbEntity
8
0
100
AcDbLine
10
-0.35500000000000009
20
-1.7462598425196849
30
0
11
-0.35499999999999993
21
-1.0249999999999999
31
0
0
LINE
5
120
100
AcDbEntity
8
0
100
AcDbLine
10
-0.35499999999999987
20
-0.54500000000000004
30
0
11
-0.35499999999999965
21
0.54500000000000004
31
0
0
LINE
5
121
100
AcDbEntity
8
0
100
AcDbLine
10
-0.35499999999999987
20
1.0249999999999999
30
0
11
-0.35499999999999993
21
1.7462598425196849
31
0
0
ARC
5
122
100
AcDbEntity
8
0
100
AcDbCircle
10
0.07874015748026611
20
1.2952755905504092
30
0
40
0.019685039370078615
210
0
220
-0
230
1
100
AcDbArc
50
0
51
90.000000000342766
0
LINE
5
123
100
AcDbEntity
8
0
100
AcDbLine
10
0.098425196850344732
20
1.2952755905505267
30
0
11
0.098425196850462388
21
1.2755905511797698
31
0
0
ARC
5
124
100
AcDbEntity
8
0
100
AcDbCircle
10
0.078740157480383835
20
1.2755905511796521
30
0
40
0.019685039370078667
210
0
220
0
230
1
100
AcDbArc
50
-90.000000000019639
51
0
0
LINE
5
125
100
AcDbEntity
8
0
100
AcDbLine
10
0.078740157480377077
20
1.2559055118095734
30
0
11
3.2782175923971155e-17
21
1.2559055118095996
31
0
0
ARC
5
126
100
AcDbEntity
8
0
100
AcDbCircle
10
-0.078740157480483505
20
1.2952755905499744
30
0
40
0.019685039370078667
210
0
220
-0
230
1
100
AcDbArc
50
89.999999999973653
51
180
0
LINE
5
127
100
AcDbEntity
8
0
100
AcDbLine
10
-0.078740157480377021
20
1.2559055118091385
30
0
11
3.2782175923971155e-17
21
1.2559055118095996
31
0
0
ARC
5
128
100
AcDbEntity
8
0
100
AcDbCircle
10
-0.078740157480492498
20
1.2755905511792172
30
0
40
0.019685039370078525
210
0
220
0
230
1
100
AcDbArc
50
180
51
270.00000000033612
0
LINE
5
129
100
AcDbEntity
8
0
100
AcDbLine
10
-0.098425196850562099
20
1.2952755905499831
30
0
11
-0.098425196850571023
21
1.275590551179226
31
0
0
LINE
5
130
100
AcDbEntity
8
0
100
AcDbLine
10
0.078740157480148343
20
1.3149606299204879
30
0
11
-0.078740157480474457
21
1.3149606299200531
31
0
0
LINE
5
131
100
AcDbEntity
8
0
100
AcDbLine
10
0.078740157480377077
20
0.89842519685184352
30
0
11
4.3709567898628207e-17
21
0.89842519685181732
31
0
0
ARC
5
132
100
AcDbEntity
8
0
100
AcDbCircle
10
0.078740157480383835
20
0.87874015748176493
30
0
40
0.019685039370078549
210
0
220
0
230
1
100
AcDbArc
50
0
51
90.000000000019668
0
LINE
5
133
100
AcDbEntity
8
0
100
AcDbLine
10
-0.098425196850562099
20
0.85905511811143376
30
0
11
-0.098425196850571023
21
0.87874015748219081
31
0
0
ARC
5
134
100
AcDbEntity
8
0
100
AcDbCircle
10
-0.078740157480483519
20
0.85905511811144253
30
0
40
0.01968503937007858
210
0
220
0
230
1
100
AcDbArc
50
180
51
270.00000000002649
0
ARC
5
135
100
AcDbEntity
8
0
100
AcDbCircle
10
-0.078740157480492484
20
0.87874015748219969
30
0
40
0.019685039370078667
210
0
220
-0
230
1
100
AcDbArc
50
89.999999999663885
51
180
0
ARC
5
136
100
AcDbEntity
8
0
100
AcDbCircle
10
0.07874015748026611
20
0.85905511811100765
30
0
40
0.019685039370078667
210
0
220
0
230
1
100
AcDbArc
50
269.99999999965723
51
360
0
LINE
5
137
100
AcDbEntity
8
0
100
AcDbLine
10
-0.078740157480377007
20
0.8984251968522784
30
0
11
4.3709567898628207e-17
21
0.89842519685181732
31
0
0
LINE
5
138
100
AcDbEntity
8
0
100
AcDbLine
10
0.098425196850344732
20
0.85905511811089019
30
0
11
0.098425196850462388
21
0.87874015748164724
31
0
0
LINE
5
139
100
AcDbEntity
8
0
100
AcDbLine
10
0.078740157480148343
20
0.83937007874092906
30
0
11
-0.078740157480474429
21
0.83937007874136382
31
0
0
LINE
5
140
100
AcDbEntity
8
0
100
AcDbLine
10
0.078740157480377077
20
0.18031496063137126
30
0
11
4.3709567898628207e-17
21
0.18031496063134503
31
0
0
ARC
5
141
100
AcDbEntity
8
0
100
AcDbCircle
10
0.07874015748026611
20
0.57716535432993699
30
0
40
0.019685039370078615
210
0
220
-0
230
1
100
AcDbArc
50
0
51
90.000000000342766
0
ARC
5
142
100
AcDbEntity
8
0
100
AcDbCircle
10
-0.078740157480492498
20
0.55748031495874495
30
0
40
0.019685039370078525
210
0
220
0
230
1
100
AcDbArc
50
180
51
270.00000000033612
0
ARC
5
143
100
AcDbEntity
8
0
100
AcDbCircle
10
-0.078740157480492484
20
0.1606299212617274
30
0
40
0.019685039370078667
210
0
220
-0
230
1
100
AcDbArc
50
89.999999999663885
51
180
0
LINE
5
144
100
AcDbEntity
8
0
100
AcDbLine
10
0.098425196850344732
20
0.57716535433005445
30
0
11
0.098425196850462388
21
0.5574803149592974
31
0
0
LINE
5
145
100
AcDbEntity
8
0
100
AcDbLine
10
0.078740157480148343
20
0.1212598425204567
30
0
11
-0.078740157480474429
21
0.12125984252089152
31
0
0
ARC
5
146
100
AcDbEntity
8
0
100
AcDbCircle
10
0.078740157480383835
20
0.16062992126129258
30
0
40
0.019685039370078549
210
0
220
0
230
1
100
AcDbArc
50
0
51
90.000000000019668
0
ARC
5
147
100
AcDbEntity
8
0
100
AcDbCircle
10
0.07874015748026611
20
0.14094488189053536
30
0
40
0.019685039370078667
210
0
220
0
230
1
100
AcDbArc
50
269.99999999965723
51
360
0
LINE
5
148
100
AcDbEntity
8
0
100
AcDbLine
10
-0.078740157480377007
20
0.18031496063180608
30
0
11
4.3709567898628207e-17
21
0.18031496063134503
31
0
0
LINE
5
149
100
AcDbEntity
8
0
100
AcDbLine
10
-0.078740157480377021
20
0.53779527558866624
30
0
11
3.2782175923971155e-17
21
0.53779527558912732
31
0
0
ARC
5
150
100
AcDbEntity
8
0
100
AcDbCircle
10
0.078740157480383835
20
0.55748031495917971
30
0
40
0.019685039370078667
210
0
220
0
230
1
100
AcDbArc
50
-90.000000000019639
51
0
0
LINE
5
151
100
AcDbEntity
8
0
100
AcDbLine
10
0.078740157480377077
20
0.53779527558910112
30
0
11
3.2782175923971155e-17
21
0.53779527558912732
31
0
0
LINE
5
152
100
AcDbEntity
8
0
100
AcDbLine
10
0.098425196850344732
20
0.14094488189041787
30
0
11
0.098425196850462388
21
0.16062992126117492
31
0
0
LINE
5
153
100
AcDbEntity
8
0
100
AcDbLine
10
0.078740157480148343
20
0.59685039370001558
30
0
11
-0.078740157480474457
21
0.59685039369958082
31
0
0
ARC
5
154
100
AcDbEntity
8
0
100
AcDbCircle
10
-0.078740157480483505
20
0.57716535432950211
30
0
40
0.019685039370078667
210
0
220
-0
230
1
100
AcDbArc
50
89.999999999973653
51
180
0
LINE
5
155
100
AcDbEntity
8
0
100
AcDbLine
10
-0.098425196850562099
20
0.14094488189096144
30
0
11
-0.098425196850571023
21
0.16062992126171849
31
0
0
ARC
5
156
100
AcDbEntity
8
0
100
AcDbCircle
10
-0.078740157480483519
20
0.14094488189097018
30
0
40
0.01968503937007858
210
0
220
0
230
1
100
AcDbArc
50
180
51
270.00000000002649
0
LINE
5
157
100
AcDbEntity
8
0
100
AcDbLine
10
-0.098425196850562099
20
0.57716535432951088
30
0
11
-0.098425196850571023
21
0.55748031495875383
31
0
0
LINE
5
158
100
AcDbEntity
8
0
100
AcDbLine
10
0.078740157480377077
20
-0.53779527558910112
30
0
11
4.3709567898628207e-17
21
-0.53779527558912732
31
0
0
ARC
5
159
100
AcDbEntity
8
0
100
AcDbCircle
10
0.07874015748026611
20
-0.14094488189053536
30
0
40
0.019685039370078615
210
0
220
-0
230
1
100
AcDbArc
50
0
51
90.000000000342766
0
ARC
5
160
100
AcDbEntity
8
0
100
AcDbCircle
10
-0.078740157480492498
20
-0.1606299212617274
30
0
40
0.019685039370078525
210
0
220
0
230
1
100
AcDbArc
50
180
51
270.00000000033612
0
ARC
5
161
100
AcDbEntity
8
0
100
AcDbCircle
10
-0.078740157480492484
20
-0.55748031495874495
30
0
40
0.019685039370078667
210
0
220
-0
230
1
100
AcDbArc
50
89.999999999663885
51
180
0
LINE
5
162
100
AcDbEntity
8
0
100
AcDbLine
10
0.098425196850344732
20
-0.14094488189041787
30
0
11
0.098425196850462388
21
-0.16062992126117492
31
0
0
LINE
5
163
100
AcDbEntity
8
0
100
AcDbLine
10
0.078740157480148343
20
-0.59685039370001558
30
0
11
-0.078740157480474429
21
-0.59685039369958082
31
0
0
ARC
5
164
100
AcDbEntity
8
0
100
AcDbCircle
10
0.078740157480383835
20
-0.55748031495917971
30
0
40
0.019685039370078549
210
0
220
0
230
1
100
AcDbArc
50
0
51
90.000000000019668
0
ARC
5
165
100
AcDbEntity
8
0
100
AcDbCircle
10
0.07874015748026611
20
-0.57716535432993699
30
0
40
0.019685039370078667
210
0
220
0
230
1
100
AcDbArc
50
269.99999999965723
51
360
0
LINE
5
166
100
AcDbEntity
8
0
100
AcDbLine
10
-0.078740157480377007
20
-0.53779527558866624
30
0
11
4.3709567898628207e-17
21
-0.53779527558912732
31
0
0
LINE
5
167
100
AcDbEntity
8
0
100
AcDbLine
10
-0.078740157480377021
20
-0.18031496063180608
30
0
11
3.2782175923971155e-17
21
-0.18031496063134503
31
0
0
ARC
5
168
100
AcDbEntity
8
0
100
AcDbCircle
10
0.078740157480383835
20
-0.16062992126129258
30
0
40
0.019685039370078667
210
0
220
0
230
1
100
AcDbArc
50
-90.000000000019639
51
0
0
LINE
5
169
100
AcDbEntity
8
0
100
AcDbLine
10
0.078740157480377077
20
-0.18031496063137126
30
0
11
3.2782175923971155e-17
21
-0.18031496063134503
31
0
0
LINE
5
170
100
AcDbEntity
8
0
100
AcDbLine
10
0.098425196850344732
20
-0.57716535433005445
30
0
11
0.098425196850462388
21
-0.5574803149592974
31
0
0
LINE
5
171
100
AcDbEntity
8
0
100
AcDbLine
10
0.078740157480148343
20
-0.1212598425204567
30
0
11
-0.078740157480474457
21
-0.12125984252089152
31
0
0
ARC
5
172
100
AcDbEntity
8
0
100
AcDbCircle
10
-0.078740157480483505
20
-0.14094488189097018
30
0
40
0.019685039370078667
210
0
220
-0
230
1
100
AcDbArc
50
89.999999999973653
51
180
0
LINE
5
173
100
AcDbEntity
8
0
100
AcDbLine
10
-0.098425196850562099
20
-0.57716535432951088
30
0
11
-0.098425196850571023
21
-0.55748031495875383
31
0
0
ARC
5
174
100
AcDbEntity
8
0
100
AcDbCircle
10
-0.078740157480483519
20
-0.57716535432950211
30
0
40
0.01968503937007858
210
0
220
0
230
1
100
AcDbArc
50
180
51
270.00000000002649
0
LINE
5
175
100
AcDbEntity
8
0
100
AcDbLine
10
-0.098425196850562099
20
-0.14094488189096144
30
0
11
-0.098425196850571023
21
-0.16062992126171849
31
0
0
LINE
5
176
100
AcDbEntity
8
0
100
AcDbLine
10
0.078740157480377077
20
-1.2559055118095734
30
0
11
4.3709567898628207e-17
21
-1.2559055118095996
31
0
0
ARC
5
177
100
AcDbEntity
8
0
100
AcDbCircle
10
0.07874015748026611
20
-0.85905511811100765
30
0
40
0.019685039370078615
210
0
220
-0
230
1
100
AcDbArc
50
0
51
90.000000000342766
0
ARC
5
178
100
AcDbEntity
8
0
100
AcDbCircle
10
-0.078740157480492498
20
-0.87874015748219969
30
0
40
0.019685039370078525
210
0
220
0
230
1
100
AcDbArc
50
180
51
270.00000000033612
0
ARC
5
179
100
AcDbEntity
8
0
100
AcDbCircle
10
-0.078740157480492484
20
-1.2755905511792172
30
0
40
0.019685039370078667
210
0
220
-0
230
1
100
AcDbArc
50
89.999999999663885
51
180
0
LINE
5
180
100
AcDbEntity
8
0
100
AcDbLine
10
0.098425196850344732
20
-0.85905511811089019
30
0
11
0.098425196850462388
21
-0.87874015748164724
31
0
0
LINE
5
181
100
AcDbEntity
8
0
100
AcDbLine
10
0.078740157480148343
20
-1.3149606299204879
30
0
11
-0.078740157480474429
21
-1.3149606299200531
31
0
0
ARC
5
182
100
AcDbEntity
8
0
100
AcDbCircle
10
0.078740157480383835
20
-1.2755905511796521
30
0
40
0.019685039370078549
210
0
220
0
230
1
100
AcDbArc
50
0
51
90.000000000019668
0
ARC
5
183
100
AcDbEntity
8
0
100
AcDbCircle
10
0.07874015748026611
20
-1.2952755905504092
30
0
40
0.019685039370078667
210
0
220
0
230
1
100
AcDbArc
50
269.99999999965723
51
360
0
LINE
5
184
100
AcDbEntity
8
0
100
AcDbLine
10
-0.078740157480377007
20
-1.2559055118091385
30
0
11
4.3709567898628207e-17
21
-1.2559055118095996
31
0
0
LINE
5
185
100
AcDbEntity
8
0
100
AcDbLine
10
-0.078740157480377021
20
-0.8984251968522784
30
0
11
3.2782175923971155e-17
21
-0.89842519685181732
31
0
0
ARC
5
186
100
AcDbEntity
8
0
100
AcDbCircle
10
0.078740157480383835
20
-0.87874015748176493
30
0
40
0.019685039370078667
210
0
220
0
230
1
100
AcDbArc
50
-90.000000000019639
51
0
0
LINE
5
187
100
AcDbEntity
8
0
100
AcDbLine
10
0.078740157480377077
20
-0.89842519685184352
30
0
11
3.2782175923971155e-17
21
-0.89842519685181732
31
0
0
LINE
5
188
100
AcDbEntity
8
0
100
AcDbLine
10
0.098425196850344732
20
-1.2952755905505267
30
0
11
0.098425196850462388
21
-1.2755905511797698
31
0
0
LINE
5
189
100
AcDbEntity
8
0
100
AcDbLine
10
0.078740157480148343
20
-0.83937007874092906
30
0
11
-0.078740157480474457
21
-0.83937007874136382
31
0
0
ARC
5
190
100
AcDbEntity
8
0
100
AcDbCircle
10
-0.078740157480483505
20
-0.85905511811144253
30
0
40
0.019685039370078667
210
0
220
-0
230
1
100
AcDbArc
50
89.999999999973653
51
180
0
LINE
5
191
100
AcDbEntity
8
0
100
AcDbLine
10
-0.098425196850562099
20
-1.2952755905499831
30
0
11
-0.098425196850571023
21
-1.275590551179226
31
0
0
ARC
5
192
100
AcDbEntity
8
0
100
AcDbCircle
10
-0.078740157480483519
20
-1.2952755905499744
30
0
40
0.01968503937007858
210
0
220
0
230
1
100
AcDbArc
50
180
51
270.00000000002649
0
LINE
5
193
100
AcDbEntity
8
0
100
AcDbLine
10
-0.098425196850562099
20
-0.85905511811143376
30
0
11
-0.098425196850571023
21
-0.87874015748219081
31
0
0
ENDSEC
0
SECTION
2
OBJECTS
0
DICTIONARY
5
C
100
AcDbDictionary
3
ACAD_GROUP
350
D
3
ACAD_MLINESTYLE
350
17
0
DICTIONARY
5
D
100
AcDbDictionary
0
DICTIONARY
5
1A
330
C
100
AcDbDictionary
0
DICTIONARY
5
17
100
AcDbDictionary
0
ENDSEC
0
EOF
