%TF.GenerationSoftware,KiCad,Pcbnew,10.0.5*%
%TF.CreationDate,2026-08-12T12:57:42-07:00*%
%TF.ProjectId,JFET String Preamp Bridge,4a464554-2053-4747-9269-6e6720507265,rev?*%
%TF.SameCoordinates,Original*%
%TF.FileFunction,Soldermask,Top*%
%TF.FilePolarity,Negative*%
%FSLAX46Y46*%
G04 Gerber Fmt 4.6, Leading zero omitted, Abs format (unit mm)*
G04 Created by KiCad (PCBNEW 10.0.5) date 2026-08-12 12:57:42*
%MOMM*%
%LPD*%
G01*
G04 APERTURE LIST*
G04 Aperture macros list*
%AMRoundRect*
0 Rectangle with rounded corners*
0 $1 Rounding radius*
0 $2 $3 $4 $5 $6 $7 $8 $9 X,Y pos of 4 corners*
0 Add a 4 corners polygon primitive as box body*
4,1,4,$2,$3,$4,$5,$6,$7,$8,$9,$2,$3,0*
0 Add four circle primitives for the rounded corners*
1,1,$1+$1,$2,$3*
1,1,$1+$1,$4,$5*
1,1,$1+$1,$6,$7*
1,1,$1+$1,$8,$9*
0 Add four rect primitives between the rounded corners*
20,1,$1+$1,$2,$3,$4,$5,0*
20,1,$1+$1,$4,$5,$6,$7,0*
20,1,$1+$1,$6,$7,$8,$9,0*
20,1,$1+$1,$8,$9,$2,$3,0*%
G04 Aperture macros list end*
%ADD10RoundRect,0.140000X-0.170000X0.140000X-0.170000X-0.140000X0.170000X-0.140000X0.170000X0.140000X0*%
%ADD11RoundRect,0.191177X-0.458823X-0.458823X0.458823X-0.458823X0.458823X0.458823X-0.458823X0.458823X0*%
%ADD12RoundRect,0.135000X-0.135000X-0.185000X0.135000X-0.185000X0.135000X0.185000X-0.135000X0.185000X0*%
%ADD13RoundRect,0.140000X-0.140000X-0.170000X0.140000X-0.170000X0.140000X0.170000X-0.140000X0.170000X0*%
%ADD14RoundRect,0.135000X-0.185000X0.135000X-0.185000X-0.135000X0.185000X-0.135000X0.185000X0.135000X0*%
%ADD15RoundRect,0.150000X0.587500X0.150000X-0.587500X0.150000X-0.587500X-0.150000X0.587500X-0.150000X0*%
G04 APERTURE END LIST*
D10*
%TO.C,C9*%
X102271619Y-128017983D03*
X102271619Y-128977983D03*
%TD*%
D11*
%TO.C,J3*%
X106572759Y-67498635D03*
%TD*%
D12*
%TO.C,R8*%
X99740000Y-110930000D03*
X100760000Y-110930000D03*
%TD*%
%TO.C,R6*%
X99740000Y-92690000D03*
X100760000Y-92690000D03*
%TD*%
D10*
%TO.C,C5*%
X102271619Y-91537983D03*
X102271619Y-92497983D03*
%TD*%
D13*
%TO.C,C3*%
X96732500Y-73397500D03*
X97692500Y-73397500D03*
%TD*%
D14*
%TO.C,R4*%
X102262500Y-89227500D03*
X102262500Y-90247500D03*
%TD*%
D11*
%TO.C,J2*%
X106572759Y-77781365D03*
%TD*%
%TO.C,J11*%
X106572759Y-103978635D03*
%TD*%
%TO.C,J14*%
X93427241Y-122218635D03*
%TD*%
%TO.C,J15*%
X106572759Y-122218635D03*
%TD*%
D13*
%TO.C,C4*%
X96732500Y-91637500D03*
X97692500Y-91637500D03*
%TD*%
D15*
%TO.C,Q4*%
X100235000Y-127922500D03*
X100235000Y-126022500D03*
X98360000Y-126972500D03*
%TD*%
D11*
%TO.C,J8*%
X106572759Y-96021365D03*
%TD*%
D12*
%TO.C,R10*%
X96802500Y-125817500D03*
X97822500Y-125817500D03*
%TD*%
%TO.C,R5*%
X99740000Y-74450000D03*
X100760000Y-74450000D03*
%TD*%
D11*
%TO.C,J1*%
X93427241Y-67498635D03*
%TD*%
%TO.C,J5*%
X93427241Y-85738635D03*
%TD*%
D15*
%TO.C,Q2*%
X100235000Y-91442500D03*
X100235000Y-89542500D03*
X98360000Y-90492500D03*
%TD*%
D11*
%TO.C,J10*%
X93427241Y-103978635D03*
%TD*%
D15*
%TO.C,Q3*%
X100235000Y-109682500D03*
X100235000Y-107782500D03*
X98360000Y-108732500D03*
%TD*%
D10*
%TO.C,C7*%
X102271619Y-109777983D03*
X102271619Y-110737983D03*
%TD*%
D12*
%TO.C,R3*%
X96802500Y-89337500D03*
X97822500Y-89337500D03*
%TD*%
D15*
%TO.C,Q1*%
X100235000Y-73202500D03*
X100235000Y-71302500D03*
X98360000Y-72252500D03*
%TD*%
D12*
%TO.C,R7*%
X96802500Y-107577500D03*
X97822500Y-107577500D03*
%TD*%
%TO.C,R2*%
X96802500Y-71097500D03*
X97822500Y-71097500D03*
%TD*%
D13*
%TO.C,C6*%
X96732500Y-109877500D03*
X97692500Y-109877500D03*
%TD*%
D11*
%TO.C,J16*%
X93427241Y-132501365D03*
%TD*%
D10*
%TO.C,C2*%
X102271619Y-73297983D03*
X102271619Y-74257983D03*
%TD*%
D11*
%TO.C,J4*%
X93427241Y-77781365D03*
%TD*%
%TO.C,J6*%
X106572759Y-85738635D03*
%TD*%
D14*
%TO.C,R1*%
X102262500Y-70987500D03*
X102262500Y-72007500D03*
%TD*%
D11*
%TO.C,J13*%
X106572759Y-114261365D03*
%TD*%
%TO.C,J7*%
X93427241Y-96021365D03*
%TD*%
D14*
%TO.C,R9*%
X102262500Y-107467500D03*
X102262500Y-108487500D03*
%TD*%
D12*
%TO.C,R11*%
X99740000Y-129170000D03*
X100760000Y-129170000D03*
%TD*%
D11*
%TO.C,J17*%
X106572759Y-132501365D03*
%TD*%
D13*
%TO.C,C8*%
X96732500Y-128117500D03*
X97692500Y-128117500D03*
%TD*%
D14*
%TO.C,R12*%
X102262500Y-125707500D03*
X102262500Y-126727500D03*
%TD*%
D11*
%TO.C,J12*%
X93427241Y-114261365D03*
%TD*%
M02*
