%TF.GenerationSoftware,KiCad,Pcbnew,10.0.1*%
%TF.CreationDate,2026-04-26T13:06:42-07:00*%
%TF.ProjectId,Active Bass 2026,41637469-7665-4204-9261-737320323032,rev?*%
%TF.SameCoordinates,Original*%
%TF.FileFunction,Copper,L2,Bot*%
%TF.FilePolarity,Positive*%
%FSLAX46Y46*%
G04 Gerber Fmt 4.6, Leading zero omitted, Abs format (unit mm)*
G04 Created by KiCad (PCBNEW 10.0.1) date 2026-04-26 13:06:42*
%MOMM*%
%LPD*%
G01*
G04 APERTURE LIST*
G04 Aperture macros list*
%AMRoundRect*
0 Rectangle with rounded corners*
0 $1 Rounding radius*
0 $2 $3 $4 $5 $6 $7 $8 $9 X,Y pos of 4 corners*
0 Add a 4 corners polygon primitive as box body*
4,1,4,$2,$3,$4,$5,$6,$7,$8,$9,$2,$3,0*
0 Add four circle primitives for the rounded corners*
1,1,$1+$1,$2,$3*
1,1,$1+$1,$4,$5*
1,1,$1+$1,$6,$7*
1,1,$1+$1,$8,$9*
0 Add four rect primitives between the rounded corners*
20,1,$1+$1,$2,$3,$4,$5,0*
20,1,$1+$1,$4,$5,$6,$7,0*
20,1,$1+$1,$6,$7,$8,$9,0*
20,1,$1+$1,$8,$9,$2,$3,0*%
G04 Aperture macros list end*
%TA.AperFunction,ComponentPad*%
%ADD10RoundRect,0.450000X-0.450000X0.450000X-0.450000X-0.450000X0.450000X-0.450000X0.450000X0.450000X0*%
%TD*%
%TA.AperFunction,ComponentPad*%
%ADD11C,1.800000*%
%TD*%
%TA.AperFunction,ComponentPad*%
%ADD12R,1.700000X1.700000*%
%TD*%
%TA.AperFunction,ComponentPad*%
%ADD13C,1.700000*%
%TD*%
%TA.AperFunction,ComponentPad*%
%ADD14RoundRect,0.250000X-0.650000X0.650000X-0.650000X-0.650000X0.650000X-0.650000X0.650000X0.650000X0*%
%TD*%
%TA.AperFunction,ComponentPad*%
%ADD15RoundRect,0.250000X0.625000X-0.350000X0.625000X0.350000X-0.625000X0.350000X-0.625000X-0.350000X0*%
%TD*%
%TA.AperFunction,ComponentPad*%
%ADD16O,1.750000X1.200000*%
%TD*%
%TA.AperFunction,ViaPad*%
%ADD17C,0.800000*%
%TD*%
%TA.AperFunction,Conductor*%
%ADD18C,0.250000*%
%TD*%
G04 APERTURE END LIST*
D10*
%TO.P,RV3,1,1_1*%
%TO.N,GND*%
X143850000Y-77500000D03*
D11*
%TO.P,RV3,2,2_2*%
%TO.N,/out*%
X146350000Y-77500000D03*
%TO.P,RV3,3,3_3*%
%TO.N,Net-(C7-Pad2)*%
X148850000Y-77500000D03*
%TO.P,RV3,4,A_4*%
%TO.N,/bat+*%
X143850000Y-71900000D03*
%TO.P,RV3,5,B_5*%
%TO.N,/v+*%
X148850000Y-71900000D03*
%TD*%
D12*
%TO.P,J2,1,Pin_1_1*%
%TO.N,Net-(J2-Pin_1)*%
X83000000Y-59500000D03*
D13*
%TO.P,J2,2,Pin_2_2*%
%TO.N,GND*%
X85540000Y-59500000D03*
%TO.P,J2,3,Pin_3_3*%
X88080000Y-59500000D03*
%TD*%
D14*
%TO.P,RV1,1,1_1*%
%TO.N,Net-(R9-Pad2)*%
X108925000Y-77500000D03*
D11*
%TO.P,RV1,2,2_2*%
%TO.N,Net-(U1D-+)*%
X111425000Y-77500000D03*
%TO.P,RV1,3,3_3*%
%TO.N,Net-(R8-Pad1)*%
X113925000Y-77500000D03*
%TD*%
D12*
%TO.P,J3,1,Pin_1_1*%
%TO.N,Net-(J3-Pin_1)*%
X72460000Y-59500000D03*
D13*
%TO.P,J3,2,Pin_2_2*%
%TO.N,GND*%
X75000000Y-59500000D03*
%TO.P,J3,3,Pin_3_3*%
X77540000Y-59500000D03*
%TD*%
D12*
%TO.P,J4,1,Pin_1_1*%
%TO.N,/out*%
X70500000Y-64960000D03*
D13*
%TO.P,J4,2,Pin_2_2*%
%TO.N,Net-(J4-Pin_2)*%
X70500000Y-67500000D03*
%TO.P,J4,3,Pin_3_3*%
%TO.N,GND*%
X70500000Y-70040000D03*
%TD*%
D15*
%TO.P,J1,1,Pin_1_1*%
%TO.N,GND*%
X147550000Y-62000000D03*
D16*
%TO.P,J1,2,Pin_2_2*%
%TO.N,/bat+*%
X147550000Y-60000000D03*
%TD*%
D14*
%TO.P,RV2,1,1_1*%
%TO.N,Net-(U1C-+)*%
X74000000Y-77500000D03*
D11*
%TO.P,RV2,2,2_2*%
%TO.N,Net-(R10-Pad1)*%
X76500000Y-77500000D03*
%TO.P,RV2,3,3_3*%
%TO.N,unconnected-(RV2-Pad3)*%
X79000000Y-77500000D03*
%TD*%
D17*
%TO.N,GND*%
X83000000Y-71500000D03*
X88000000Y-77000000D03*
X125500000Y-65500000D03*
X93874042Y-77118619D03*
X100500000Y-66500000D03*
%TO.N,Net-(U1B--)*%
X102000000Y-77500000D03*
X102000000Y-75000000D03*
%TO.N,Net-(U1A--)*%
X95000000Y-70000000D03*
X104500000Y-75000000D03*
%TO.N,Net-(J4-Pin_2)*%
X109000000Y-64000000D03*
X109000000Y-62000000D03*
%TO.N,Net-(U1B-+)*%
X87000000Y-66500000D03*
X87000000Y-64000000D03*
%TD*%
%TO.N,Net-(U1B--)*%
D18*
X102000000Y-75000000D02*
X102000000Y-77500000D01*
%TO.N,Net-(U1A--)*%
X95000000Y-70000000D02*
X99500000Y-70000000D01*
X99500000Y-70000000D02*
X104500000Y-75000000D01*
%TO.N,Net-(J4-Pin_2)*%
X109000000Y-62000000D02*
X109000000Y-64000000D01*
%TO.N,Net-(U1B-+)*%
X87000000Y-64000000D02*
X87000000Y-66500000D01*
%TD*%
%TA.AperFunction,Conductor*%
%TO.N,GND*%
G36*
X155942539Y-56520184D02*
G01*
X155988294Y-56572988D01*
X155999500Y-56624499D01*
X155999500Y-80875499D01*
X155979815Y-80942538D01*
X155927011Y-80988293D01*
X155875500Y-80999499D01*
X67124500Y-80999499D01*
X67057461Y-80979814D01*
X67011706Y-80927010D01*
X67000500Y-80875499D01*
X67000500Y-76799447D01*
X72591500Y-76799447D01*
X72591500Y-78200537D01*
X72591501Y-78200553D01*
X72602113Y-78304427D01*
X72657884Y-78472735D01*
X72657886Y-78472740D01*
X72659574Y-78475477D01*
X72750970Y-78623652D01*
X72876348Y-78749030D01*
X73027262Y-78842115D01*
X73195574Y-78897887D01*
X73299455Y-78908500D01*
X74700544Y-78908499D01*
X74804426Y-78897887D01*
X74972738Y-78842115D01*
X75123652Y-78749030D01*
X75249030Y-78623652D01*
X75312702Y-78520422D01*
X75364649Y-78473700D01*
X75433612Y-78462477D01*
X75497694Y-78490321D01*
X75505921Y-78497840D01*
X75582424Y-78574343D01*
X75761785Y-78704657D01*
X75845502Y-78747313D01*
X75959319Y-78805306D01*
X75959321Y-78805306D01*
X75959324Y-78805308D01*
X76170176Y-78873818D01*
X76389149Y-78908500D01*
X76389150Y-78908500D01*
X76610850Y-78908500D01*
X76610851Y-78908500D01*
X76829824Y-78873818D01*
X77040676Y-78805308D01*
X77238215Y-78704657D01*
X77417576Y-78574343D01*
X77574343Y-78417576D01*
X77649682Y-78313880D01*
X77705012Y-78271215D01*
X77774625Y-78265236D01*
X77836420Y-78297842D01*
X77850316Y-78313879D01*
X77925657Y-78417576D01*
X78082424Y-78574343D01*
X78261785Y-78704657D01*
X78345502Y-78747313D01*
X78459319Y-78805306D01*
X78459321Y-78805306D01*
X78459324Y-78805308D01*
X78670176Y-78873818D01*
X78889149Y-78908500D01*
X78889150Y-78908500D01*
X79110850Y-78908500D01*
X79110851Y-78908500D01*
X79329824Y-78873818D01*
X79540676Y-78805308D01*
X79738215Y-78704657D01*
X79917576Y-78574343D01*
X80074343Y-78417576D01*
X80204657Y-78238215D01*
X80305308Y-78040676D01*
X80373818Y-77829824D01*
X80408500Y-77610851D01*
X80408500Y-77389149D01*
X80373818Y-77170176D01*
X80305308Y-76959324D01*
X80305306Y-76959321D01*
X80305306Y-76959319D01*
X80223851Y-76799455D01*
X80204657Y-76761785D01*
X80074343Y-76582424D01*
X79917576Y-76425657D01*
X79738215Y-76295343D01*
X79540680Y-76194693D01*
X79329824Y-76126182D01*
X79110851Y-76091500D01*
X78889149Y-76091500D01*
X78779662Y-76108841D01*
X78670175Y-76126182D01*
X78459319Y-76194693D01*
X78261784Y-76295343D01*
X78159452Y-76369692D01*
X78082424Y-76425657D01*
X78082422Y-76425659D01*
X78082421Y-76425659D01*
X77925659Y-76582421D01*
X77925659Y-76582422D01*
X77925657Y-76582424D01*
X77917402Y-76593786D01*
X77850318Y-76686119D01*
X77794988Y-76728784D01*
X77725374Y-76734763D01*
X77663579Y-76702157D01*
X77649682Y-76686119D01*
X77619164Y-76644115D01*
X77574343Y-76582424D01*
X77417576Y-76425657D01*
X77238215Y-76295343D01*
X77040680Y-76194693D01*
X76829824Y-76126182D01*
X76610851Y-76091500D01*
X76389149Y-76091500D01*
X76279662Y-76108841D01*
X76170175Y-76126182D01*
X75959319Y-76194693D01*
X75761784Y-76295343D01*
X75582425Y-76425656D01*
X75505921Y-76502160D01*
X75444597Y-76535644D01*
X75374906Y-76530659D01*
X75318972Y-76488788D01*
X75312702Y-76479575D01*
X75249032Y-76376351D01*
X75249029Y-76376347D01*
X75123653Y-76250971D01*
X75123652Y-76250970D01*
X75029898Y-76193142D01*
X74972740Y-76157886D01*
X74972735Y-76157884D01*
X74804427Y-76102113D01*
X74700545Y-76091500D01*
X73299462Y-76091500D01*
X73299446Y-76091501D01*
X73195572Y-76102113D01*
X73027264Y-76157884D01*
X73027259Y-76157886D01*
X72876346Y-76250971D01*
X72750971Y-76376346D01*
X72657886Y-76527259D01*
X72657884Y-76527264D01*
X72602113Y-76695572D01*
X72591500Y-76799447D01*
X67000500Y-76799447D01*
X67000500Y-64061345D01*
X69141500Y-64061345D01*
X69141500Y-65858654D01*
X69148011Y-65919202D01*
X69148011Y-65919204D01*
X69199111Y-66056204D01*
X69286739Y-66173261D01*
X69403796Y-66260889D01*
X69524626Y-66305956D01*
X69580557Y-66347827D01*
X69604974Y-66413291D01*
X69590122Y-66481564D01*
X69568972Y-66509818D01*
X69463793Y-66614997D01*
X69338106Y-66787990D01*
X69241027Y-66978516D01*
X69241026Y-66978519D01*
X69174951Y-67181882D01*
X69141500Y-67393084D01*
X69141500Y-67606915D01*
X69174951Y-67818117D01*
X69241026Y-68021480D01*
X69241027Y-68021483D01*
X69338106Y-68212009D01*
X69463794Y-68385004D01*
X69614996Y-68536206D01*
X69787991Y-68661894D01*
X69792680Y-68664283D01*
X69843478Y-68712254D01*
X69860276Y-68780074D01*
X69837742Y-68846210D01*
X69796205Y-68882209D01*
X69796590Y-68882838D01*
X69792804Y-68885157D01*
X69792702Y-68885246D01*
X69792449Y-68885374D01*
X69792440Y-68885380D01*
X69738282Y-68924727D01*
X69738282Y-68924728D01*
X70370591Y-69557037D01*
X70307007Y-69574075D01*
X70192993Y-69639901D01*
X70099901Y-69732993D01*
X70034075Y-69847007D01*
X70017037Y-69910591D01*
X69384728Y-69278282D01*
X69384727Y-69278282D01*
X69345380Y-69332439D01*
X69248904Y-69521782D01*
X69183242Y-69723869D01*
X69183242Y-69723872D01*
X69150000Y-69933753D01*
X69150000Y-70146246D01*
X69183242Y-70356127D01*
X69183242Y-70356130D01*
X69248904Y-70558217D01*
X69345375Y-70747550D01*
X69384728Y-70801716D01*
X70017037Y-70169408D01*
X70034075Y-70232993D01*
X70099901Y-70347007D01*
X70192993Y-70440099D01*
X70307007Y-70505925D01*
X70370590Y-70522962D01*
X69738282Y-71155269D01*
X69738282Y-71155270D01*
X69792449Y-71194624D01*
X69981782Y-71291095D01*
X70183870Y-71356757D01*
X70393754Y-71390000D01*
X70606246Y-71390000D01*
X70816127Y-71356757D01*
X70816130Y-71356757D01*
X71018217Y-71291095D01*
X71207554Y-71194622D01*
X71261716Y-71155270D01*
X71261717Y-71155270D01*
X70629408Y-70522962D01*
X70692993Y-70505925D01*
X70807007Y-70440099D01*
X70900099Y-70347007D01*
X70965925Y-70232993D01*
X70982962Y-70169409D01*
X71615270Y-70801717D01*
X71615270Y-70801716D01*
X71654622Y-70747554D01*
X71751095Y-70558217D01*
X71816757Y-70356130D01*
X71816757Y-70356127D01*
X71850000Y-70146246D01*
X71850000Y-69933757D01*
X71848427Y-69923825D01*
X71848427Y-69923822D01*
X71846319Y-69910516D01*
X94091500Y-69910516D01*
X94091500Y-70089483D01*
X94126411Y-70264992D01*
X94126413Y-70265000D01*
X94194896Y-70430332D01*
X94194901Y-70430342D01*
X94294321Y-70579134D01*
X94294324Y-70579138D01*
X94420861Y-70705675D01*
X94420865Y-70705678D01*
X94569657Y-70805098D01*
X94569661Y-70805100D01*
X94569664Y-70805102D01*
X94735000Y-70873587D01*
X94910516Y-70908499D01*
X94910520Y-70908500D01*
X94910521Y-70908500D01*
X95089480Y-70908500D01*
X95089481Y-70908499D01*
X95265000Y-70873587D01*
X95430336Y-70805102D01*
X95579135Y-70705678D01*
X95614993Y-70669820D01*
X95676315Y-70636334D01*
X95702675Y-70633500D01*
X99186234Y-70633500D01*
X99253273Y-70653185D01*
X99273915Y-70669819D01*
X102651106Y-74047010D01*
X102684591Y-74108333D01*
X102679607Y-74178025D01*
X102637735Y-74233958D01*
X102572271Y-74258375D01*
X102503998Y-74243523D01*
X102494534Y-74237793D01*
X102430342Y-74194901D01*
X102430332Y-74194896D01*
X102265000Y-74126413D01*
X102264992Y-74126411D01*
X102089483Y-74091500D01*
X102089479Y-74091500D01*
X101910521Y-74091500D01*
X101910516Y-74091500D01*
X101735007Y-74126411D01*
X101734999Y-74126413D01*
X101569667Y-74194896D01*
X101569657Y-74194901D01*
X101420865Y-74294321D01*
X101420861Y-74294324D01*
X101294324Y-74420861D01*
X101294321Y-74420865D01*
X101194901Y-74569657D01*
X101194896Y-74569667D01*
X101126413Y-74734999D01*
X101126411Y-74735007D01*
X101091500Y-74910516D01*
X101091500Y-75089483D01*
X101126411Y-75264992D01*
X101126413Y-75265000D01*
X101194896Y-75430332D01*
X101194901Y-75430342D01*
X101294321Y-75579134D01*
X101294324Y-75579138D01*
X101330180Y-75614993D01*
X101363666Y-75676315D01*
X101366500Y-75702675D01*
X101366500Y-76797324D01*
X101346815Y-76864363D01*
X101330181Y-76885005D01*
X101294324Y-76920861D01*
X101294321Y-76920865D01*
X101194901Y-77069657D01*
X101194896Y-77069667D01*
X101126413Y-77234999D01*
X101126411Y-77235007D01*
X101091500Y-77410516D01*
X101091500Y-77589483D01*
X101126411Y-77764992D01*
X101126413Y-77765000D01*
X101194896Y-77930332D01*
X101194901Y-77930342D01*
X101294321Y-78079134D01*
X101294324Y-78079138D01*
X101420861Y-78205675D01*
X101420865Y-78205678D01*
X101569657Y-78305098D01*
X101569661Y-78305100D01*
X101569664Y-78305102D01*
X101735000Y-78373587D01*
X101885651Y-78403553D01*
X101910516Y-78408499D01*
X101910520Y-78408500D01*
X101910521Y-78408500D01*
X102089480Y-78408500D01*
X102089481Y-78408499D01*
X102265000Y-78373587D01*
X102430336Y-78305102D01*
X102579135Y-78205678D01*
X102705678Y-78079135D01*
X102805102Y-77930336D01*
X102873587Y-77765000D01*
X102908500Y-77589479D01*
X102908500Y-77410521D01*
X102873587Y-77235000D01*
X102805102Y-77069664D01*
X102805100Y-77069661D01*
X102805098Y-77069657D01*
X102705678Y-76920865D01*
X102705675Y-76920861D01*
X102669819Y-76885005D01*
X102657691Y-76862794D01*
X102644706Y-76847809D01*
X102642756Y-76838845D01*
X102638523Y-76832259D01*
X102637631Y-76826058D01*
X102636334Y-76823682D01*
X102633728Y-76799447D01*
X107516500Y-76799447D01*
X107516500Y-78200537D01*
X107516501Y-78200553D01*
X107527113Y-78304427D01*
X107582884Y-78472735D01*
X107582886Y-78472740D01*
X107584574Y-78475477D01*
X107675970Y-78623652D01*
X107801348Y-78749030D01*
X107952262Y-78842115D01*
X108120574Y-78897887D01*
X108224455Y-78908500D01*
X109625544Y-78908499D01*
X109729426Y-78897887D01*
X109897738Y-78842115D01*
X110048652Y-78749030D01*
X110174030Y-78623652D01*
X110237702Y-78520422D01*
X110289649Y-78473700D01*
X110358612Y-78462477D01*
X110422694Y-78490321D01*
X110430921Y-78497840D01*
X110507424Y-78574343D01*
X110686785Y-78704657D01*
X110770502Y-78747313D01*
X110884319Y-78805306D01*
X110884321Y-78805306D01*
X110884324Y-78805308D01*
X111095176Y-78873818D01*
X111314149Y-78908500D01*
X111314150Y-78908500D01*
X111535850Y-78908500D01*
X111535851Y-78908500D01*
X111754824Y-78873818D01*
X111965676Y-78805308D01*
X112163215Y-78704657D01*
X112342576Y-78574343D01*
X112499343Y-78417576D01*
X112574682Y-78313880D01*
X112630012Y-78271215D01*
X112699625Y-78265236D01*
X112761420Y-78297842D01*
X112775316Y-78313879D01*
X112850657Y-78417576D01*
X113007424Y-78574343D01*
X113186785Y-78704657D01*
X113270502Y-78747313D01*
X113384319Y-78805306D01*
X113384321Y-78805306D01*
X113384324Y-78805308D01*
X113595176Y-78873818D01*
X113814149Y-78908500D01*
X113814150Y-78908500D01*
X114035850Y-78908500D01*
X114035851Y-78908500D01*
X114254824Y-78873818D01*
X114465676Y-78805308D01*
X114663215Y-78704657D01*
X114842576Y-78574343D01*
X114999343Y-78417576D01*
X115129657Y-78238215D01*
X115230308Y-78040676D01*
X115298818Y-77829824D01*
X115333500Y-77610851D01*
X115333500Y-77389149D01*
X115298818Y-77170176D01*
X115241868Y-76994902D01*
X142450000Y-76994902D01*
X142450000Y-77250000D01*
X143416988Y-77250000D01*
X143384075Y-77307007D01*
X143350000Y-77434174D01*
X143350000Y-77565826D01*
X143384075Y-77692993D01*
X143416988Y-77750000D01*
X142450001Y-77750000D01*
X142450001Y-78005098D01*
X142460078Y-78118460D01*
X142513228Y-78304215D01*
X142602686Y-78475474D01*
X142724784Y-78625215D01*
X142874525Y-78747313D01*
X143045784Y-78836771D01*
X143231538Y-78889920D01*
X143231541Y-78889921D01*
X143344903Y-78899999D01*
X143599999Y-78899999D01*
X143600000Y-78899998D01*
X143600000Y-77933012D01*
X143657007Y-77965925D01*
X143784174Y-78000000D01*
X143915826Y-78000000D01*
X144042993Y-77965925D01*
X144100000Y-77933012D01*
X144100000Y-78899999D01*
X144355092Y-78899999D01*
X144355098Y-78899998D01*
X144468460Y-78889921D01*
X144654215Y-78836771D01*
X144825474Y-78747313D01*
X144975215Y-78625215D01*
X145097311Y-78475477D01*
X145100186Y-78469973D01*
X145148671Y-78419663D01*
X145216657Y-78403553D01*
X145282562Y-78426756D01*
X145297779Y-78439698D01*
X145432424Y-78574343D01*
X145611785Y-78704657D01*
X145695502Y-78747313D01*
X145809319Y-78805306D01*
X145809321Y-78805306D01*
X145809324Y-78805308D01*
X146020176Y-78873818D01*
X146239149Y-78908500D01*
X146239150Y-78908500D01*
X146460850Y-78908500D01*
X146460851Y-78908500D01*
X146679824Y-78873818D01*
X146890676Y-78805308D01*
X147088215Y-78704657D01*
X147267576Y-78574343D01*
X147424343Y-78417576D01*
X147499682Y-78313880D01*
X147555012Y-78271215D01*
X147624625Y-78265236D01*
X147686420Y-78297842D01*
X147700316Y-78313879D01*
X147775657Y-78417576D01*
X147932424Y-78574343D01*
X148111785Y-78704657D01*
X148195502Y-78747313D01*
X148309319Y-78805306D01*
X148309321Y-78805306D01*
X148309324Y-78805308D01*
X148520176Y-78873818D01*
X148739149Y-78908500D01*
X148739150Y-78908500D01*
X148960850Y-78908500D01*
X148960851Y-78908500D01*
X149179824Y-78873818D01*
X149390676Y-78805308D01*
X149588215Y-78704657D01*
X149767576Y-78574343D01*
X149924343Y-78417576D01*
X150054657Y-78238215D01*
X150155308Y-78040676D01*
X150223818Y-77829824D01*
X150258500Y-77610851D01*
X150258500Y-77389149D01*
X150223818Y-77170176D01*
X150155308Y-76959324D01*
X150155306Y-76959321D01*
X150155306Y-76959319D01*
X150073851Y-76799455D01*
X150054657Y-76761785D01*
X149924343Y-76582424D01*
X149767576Y-76425657D01*
X149588215Y-76295343D01*
X149390680Y-76194693D01*
X149179824Y-76126182D01*
X148960851Y-76091500D01*
X148739149Y-76091500D01*
X148629662Y-76108841D01*
X148520175Y-76126182D01*
X148309319Y-76194693D01*
X148111784Y-76295343D01*
X148009452Y-76369692D01*
X147932424Y-76425657D01*
X147932422Y-76425659D01*
X147932421Y-76425659D01*
X147775659Y-76582421D01*
X147775659Y-76582422D01*
X147775657Y-76582424D01*
X147767402Y-76593786D01*
X147700318Y-76686119D01*
X147644988Y-76728784D01*
X147575374Y-76734763D01*
X147513579Y-76702157D01*
X147499682Y-76686119D01*
X147469164Y-76644115D01*
X147424343Y-76582424D01*
X147267576Y-76425657D01*
X147088215Y-76295343D01*
X146890680Y-76194693D01*
X146679824Y-76126182D01*
X146460851Y-76091500D01*
X146239149Y-76091500D01*
X146129662Y-76108841D01*
X146020175Y-76126182D01*
X145809319Y-76194693D01*
X145611784Y-76295343D01*
X145432425Y-76425656D01*
X145297779Y-76560302D01*
X145236456Y-76593786D01*
X145166764Y-76588802D01*
X145110831Y-76546930D01*
X145100189Y-76530030D01*
X145097314Y-76524527D01*
X145097313Y-76524526D01*
X144975215Y-76374784D01*
X144825474Y-76252686D01*
X144654215Y-76163228D01*
X144468461Y-76110079D01*
X144468458Y-76110078D01*
X144355097Y-76100000D01*
X144100000Y-76100000D01*
X144100000Y-77066988D01*
X144042993Y-77034075D01*
X143915826Y-77000000D01*
X143784174Y-77000000D01*
X143657007Y-77034075D01*
X143600000Y-77066988D01*
X143600000Y-76100000D01*
X143344907Y-76100000D01*
X143344901Y-76100001D01*
X143231539Y-76110078D01*
X143045784Y-76163228D01*
X142874525Y-76252686D01*
X142724784Y-76374784D01*
X142602686Y-76524525D01*
X142513228Y-76695784D01*
X142460079Y-76881538D01*
X142460078Y-76881541D01*
X142450000Y-76994902D01*
X115241868Y-76994902D01*
X115230308Y-76959324D01*
X115129657Y-76761785D01*
X114999343Y-76582424D01*
X114842576Y-76425657D01*
X114663215Y-76295343D01*
X114465680Y-76194693D01*
X114254824Y-76126182D01*
X114035851Y-76091500D01*
X113814149Y-76091500D01*
X113704662Y-76108841D01*
X113595175Y-76126182D01*
X113384319Y-76194693D01*
X113186784Y-76295343D01*
X113084452Y-76369692D01*
X113007424Y-76425657D01*
X113007422Y-76425659D01*
X113007421Y-76425659D01*
X112850659Y-76582421D01*
X112850659Y-76582422D01*
X112850657Y-76582424D01*
X112842402Y-76593786D01*
X112775318Y-76686119D01*
X112719988Y-76728784D01*
X112650374Y-76734763D01*
X112588579Y-76702157D01*
X112574682Y-76686119D01*
X112544164Y-76644115D01*
X112499343Y-76582424D01*
X112342576Y-76425657D01*
X112163215Y-76295343D01*
X111965680Y-76194693D01*
X111754824Y-76126182D01*
X111535851Y-76091500D01*
X111314149Y-76091500D01*
X111204662Y-76108841D01*
X111095175Y-76126182D01*
X110884319Y-76194693D01*
X110686784Y-76295343D01*
X110507425Y-76425656D01*
X110430921Y-76502160D01*
X110369597Y-76535644D01*
X110299906Y-76530659D01*
X110243972Y-76488788D01*
X110237702Y-76479575D01*
X110174032Y-76376351D01*
X110174029Y-76376347D01*
X110048653Y-76250971D01*
X110048652Y-76250970D01*
X109954898Y-76193142D01*
X109897740Y-76157886D01*
X109897735Y-76157884D01*
X109729427Y-76102113D01*
X109625545Y-76091500D01*
X108224462Y-76091500D01*
X108224446Y-76091501D01*
X108120572Y-76102113D01*
X107952264Y-76157884D01*
X107952259Y-76157886D01*
X107801346Y-76250971D01*
X107675971Y-76376346D01*
X107582886Y-76527259D01*
X107582884Y-76527264D01*
X107527113Y-76695572D01*
X107516500Y-76799447D01*
X102633728Y-76799447D01*
X102633500Y-76797324D01*
X102633500Y-75702675D01*
X102653185Y-75635636D01*
X102669820Y-75614993D01*
X102705675Y-75579138D01*
X102705678Y-75579135D01*
X102805102Y-75430336D01*
X102873587Y-75265000D01*
X102908500Y-75089479D01*
X102908500Y-74910521D01*
X102873587Y-74735000D01*
X102805102Y-74569664D01*
X102805100Y-74569661D01*
X102805098Y-74569657D01*
X102762206Y-74505465D01*
X102741328Y-74438788D01*
X102759812Y-74371407D01*
X102811791Y-74324717D01*
X102880761Y-74313541D01*
X102944825Y-74341426D01*
X102952989Y-74348893D01*
X103555181Y-74951085D01*
X103588666Y-75012408D01*
X103591500Y-75038766D01*
X103591500Y-75089483D01*
X103626411Y-75264992D01*
X103626413Y-75265000D01*
X103694896Y-75430332D01*
X103694901Y-75430342D01*
X103794321Y-75579134D01*
X103794324Y-75579138D01*
X103920861Y-75705675D01*
X103920865Y-75705678D01*
X104069657Y-75805098D01*
X104069661Y-75805100D01*
X104069664Y-75805102D01*
X104235000Y-75873587D01*
X104410516Y-75908499D01*
X104410520Y-75908500D01*
X104410521Y-75908500D01*
X104589480Y-75908500D01*
X104589481Y-75908499D01*
X104765000Y-75873587D01*
X104930336Y-75805102D01*
X105079135Y-75705678D01*
X105205678Y-75579135D01*
X105305102Y-75430336D01*
X105373587Y-75265000D01*
X105408500Y-75089479D01*
X105408500Y-74910521D01*
X105373587Y-74735000D01*
X105305102Y-74569664D01*
X105305100Y-74569661D01*
X105305098Y-74569657D01*
X105205678Y-74420865D01*
X105205675Y-74420861D01*
X105079138Y-74294324D01*
X105079134Y-74294321D01*
X104930342Y-74194901D01*
X104930332Y-74194896D01*
X104765000Y-74126413D01*
X104764992Y-74126411D01*
X104589483Y-74091500D01*
X104589479Y-74091500D01*
X104538766Y-74091500D01*
X104471727Y-74071815D01*
X104451085Y-74055181D01*
X102267862Y-71871958D01*
X102185053Y-71789149D01*
X142441500Y-71789149D01*
X142441500Y-72010850D01*
X142476182Y-72229824D01*
X142544693Y-72440680D01*
X142645343Y-72638215D01*
X142775657Y-72817576D01*
X142932424Y-72974343D01*
X143111785Y-73104657D01*
X143205114Y-73152210D01*
X143309319Y-73205306D01*
X143309321Y-73205306D01*
X143309324Y-73205308D01*
X143520176Y-73273818D01*
X143739149Y-73308500D01*
X143739150Y-73308500D01*
X143960850Y-73308500D01*
X143960851Y-73308500D01*
X144179824Y-73273818D01*
X144390676Y-73205308D01*
X144588215Y-73104657D01*
X144767576Y-72974343D01*
X144924343Y-72817576D01*
X145054657Y-72638215D01*
X145155308Y-72440676D01*
X145223818Y-72229824D01*
X145258500Y-72010851D01*
X145258500Y-71789149D01*
X147441500Y-71789149D01*
X147441500Y-72010850D01*
X147476182Y-72229824D01*
X147544693Y-72440680D01*
X147645343Y-72638215D01*
X147775657Y-72817576D01*
X147932424Y-72974343D01*
X148111785Y-73104657D01*
X148205114Y-73152210D01*
X148309319Y-73205306D01*
X148309321Y-73205306D01*
X148309324Y-73205308D01*
X148520176Y-73273818D01*
X148739149Y-73308500D01*
X148739150Y-73308500D01*
X148960850Y-73308500D01*
X148960851Y-73308500D01*
X149179824Y-73273818D01*
X149390676Y-73205308D01*
X149588215Y-73104657D01*
X149767576Y-72974343D01*
X149924343Y-72817576D01*
X150054657Y-72638215D01*
X150155308Y-72440676D01*
X150223818Y-72229824D01*
X150258500Y-72010851D01*
X150258500Y-71789149D01*
X150223818Y-71570176D01*
X150155308Y-71359324D01*
X150155306Y-71359321D01*
X150155306Y-71359319D01*
X150054656Y-71161784D01*
X149924343Y-70982424D01*
X149767576Y-70825657D01*
X149588215Y-70695343D01*
X149390680Y-70594693D01*
X149179824Y-70526182D01*
X148960851Y-70491500D01*
X148739149Y-70491500D01*
X148629662Y-70508841D01*
X148520175Y-70526182D01*
X148309319Y-70594693D01*
X148111784Y-70695343D01*
X148039923Y-70747554D01*
X147932424Y-70825657D01*
X147932422Y-70825659D01*
X147932421Y-70825659D01*
X147775659Y-70982421D01*
X147775659Y-70982422D01*
X147775657Y-70982424D01*
X147719692Y-71059452D01*
X147645343Y-71161784D01*
X147544693Y-71359319D01*
X147476182Y-71570175D01*
X147441500Y-71789149D01*
X145258500Y-71789149D01*
X145223818Y-71570176D01*
X145155308Y-71359324D01*
X145155306Y-71359321D01*
X145155306Y-71359319D01*
X145054656Y-71161784D01*
X144924343Y-70982424D01*
X144767576Y-70825657D01*
X144588215Y-70695343D01*
X144390680Y-70594693D01*
X144179824Y-70526182D01*
X143960851Y-70491500D01*
X143739149Y-70491500D01*
X143629662Y-70508841D01*
X143520175Y-70526182D01*
X143309319Y-70594693D01*
X143111784Y-70695343D01*
X143039923Y-70747554D01*
X142932424Y-70825657D01*
X142932422Y-70825659D01*
X142932421Y-70825659D01*
X142775659Y-70982421D01*
X142775659Y-70982422D01*
X142775657Y-70982424D01*
X142719692Y-71059452D01*
X142645343Y-71161784D01*
X142544693Y-71359319D01*
X142476182Y-71570175D01*
X142441500Y-71789149D01*
X102185053Y-71789149D01*
X99903836Y-69507931D01*
X99903832Y-69507928D01*
X99800081Y-69438603D01*
X99800072Y-69438598D01*
X99684785Y-69390845D01*
X99684777Y-69390843D01*
X99562398Y-69366500D01*
X99562394Y-69366500D01*
X95702675Y-69366500D01*
X95635636Y-69346815D01*
X95614993Y-69330180D01*
X95579138Y-69294324D01*
X95579134Y-69294321D01*
X95430342Y-69194901D01*
X95430332Y-69194896D01*
X95265000Y-69126413D01*
X95264992Y-69126411D01*
X95089483Y-69091500D01*
X95089479Y-69091500D01*
X94910521Y-69091500D01*
X94910516Y-69091500D01*
X94735007Y-69126411D01*
X94734999Y-69126413D01*
X94569667Y-69194896D01*
X94569657Y-69194901D01*
X94420865Y-69294321D01*
X94420861Y-69294324D01*
X94294324Y-69420861D01*
X94294321Y-69420865D01*
X94194901Y-69569657D01*
X94194896Y-69569667D01*
X94126413Y-69734999D01*
X94126411Y-69735007D01*
X94091500Y-69910516D01*
X71846319Y-69910516D01*
X71816757Y-69723872D01*
X71816757Y-69723869D01*
X71751095Y-69521782D01*
X71654624Y-69332449D01*
X71615270Y-69278282D01*
X71615269Y-69278282D01*
X70982962Y-69910590D01*
X70965925Y-69847007D01*
X70900099Y-69732993D01*
X70807007Y-69639901D01*
X70692993Y-69574075D01*
X70629409Y-69557037D01*
X71261716Y-68924728D01*
X71207547Y-68885373D01*
X71207545Y-68885371D01*
X71207308Y-68885251D01*
X71207234Y-68885181D01*
X71203396Y-68882829D01*
X71203890Y-68882022D01*
X71156515Y-68837274D01*
X71139724Y-68769451D01*
X71162266Y-68703318D01*
X71207319Y-68664283D01*
X71212009Y-68661894D01*
X71385004Y-68536206D01*
X71536206Y-68385004D01*
X71661894Y-68212009D01*
X71758972Y-68021483D01*
X71825049Y-67818116D01*
X71858500Y-67606916D01*
X71858500Y-67393084D01*
X71825049Y-67181884D01*
X71758972Y-66978517D01*
X71758972Y-66978516D01*
X71661893Y-66787990D01*
X71645184Y-66764992D01*
X71536206Y-66614996D01*
X71431028Y-66509818D01*
X71397543Y-66448495D01*
X71402527Y-66378803D01*
X71444399Y-66322870D01*
X71475367Y-66305959D01*
X71596204Y-66260889D01*
X71713261Y-66173261D01*
X71800889Y-66056204D01*
X71851989Y-65919201D01*
X71857885Y-65864363D01*
X71858499Y-65858654D01*
X71858500Y-65858637D01*
X71858500Y-64061362D01*
X71858499Y-64061345D01*
X71855157Y-64030270D01*
X71851989Y-64000799D01*
X71818315Y-63910516D01*
X86091500Y-63910516D01*
X86091500Y-64089483D01*
X86126411Y-64264992D01*
X86126413Y-64265000D01*
X86194896Y-64430332D01*
X86194901Y-64430342D01*
X86294321Y-64579134D01*
X86294324Y-64579138D01*
X86330180Y-64614993D01*
X86363666Y-64676315D01*
X86366500Y-64702675D01*
X86366500Y-65797324D01*
X86346815Y-65864363D01*
X86330181Y-65885005D01*
X86294324Y-65920861D01*
X86294321Y-65920865D01*
X86194901Y-66069657D01*
X86194896Y-66069667D01*
X86126413Y-66234999D01*
X86126411Y-66235007D01*
X86091500Y-66410516D01*
X86091500Y-66589483D01*
X86126411Y-66764992D01*
X86126413Y-66765000D01*
X86194896Y-66930332D01*
X86194901Y-66930342D01*
X86294321Y-67079134D01*
X86294324Y-67079138D01*
X86420861Y-67205675D01*
X86420865Y-67205678D01*
X86569657Y-67305098D01*
X86569661Y-67305100D01*
X86569664Y-67305102D01*
X86735000Y-67373587D01*
X86910516Y-67408499D01*
X86910520Y-67408500D01*
X86910521Y-67408500D01*
X87089480Y-67408500D01*
X87089481Y-67408499D01*
X87265000Y-67373587D01*
X87430336Y-67305102D01*
X87579135Y-67205678D01*
X87705678Y-67079135D01*
X87805102Y-66930336D01*
X87873587Y-66765000D01*
X87908500Y-66589479D01*
X87908500Y-66410521D01*
X87873587Y-66235000D01*
X87805102Y-66069664D01*
X87805100Y-66069661D01*
X87805098Y-66069657D01*
X87705678Y-65920865D01*
X87705675Y-65920861D01*
X87669819Y-65885005D01*
X87636334Y-65823682D01*
X87633500Y-65797324D01*
X87633500Y-64702675D01*
X87653185Y-64635636D01*
X87669820Y-64614993D01*
X87705675Y-64579138D01*
X87705678Y-64579135D01*
X87805102Y-64430336D01*
X87873587Y-64265000D01*
X87908500Y-64089479D01*
X87908500Y-63910521D01*
X87873587Y-63735000D01*
X87805102Y-63569664D01*
X87805100Y-63569661D01*
X87805098Y-63569657D01*
X87705678Y-63420865D01*
X87705675Y-63420861D01*
X87579138Y-63294324D01*
X87579134Y-63294321D01*
X87430342Y-63194901D01*
X87430332Y-63194896D01*
X87265000Y-63126413D01*
X87264992Y-63126411D01*
X87089483Y-63091500D01*
X87089479Y-63091500D01*
X86910521Y-63091500D01*
X86910516Y-63091500D01*
X86735007Y-63126411D01*
X86734999Y-63126413D01*
X86569667Y-63194896D01*
X86569657Y-63194901D01*
X86420865Y-63294321D01*
X86420861Y-63294324D01*
X86294324Y-63420861D01*
X86294321Y-63420865D01*
X86194901Y-63569657D01*
X86194896Y-63569667D01*
X86126413Y-63734999D01*
X86126411Y-63735007D01*
X86091500Y-63910516D01*
X71818315Y-63910516D01*
X71800889Y-63863796D01*
X71713261Y-63746739D01*
X71596204Y-63659111D01*
X71459203Y-63608011D01*
X71398654Y-63601500D01*
X71398638Y-63601500D01*
X69601362Y-63601500D01*
X69601345Y-63601500D01*
X69540797Y-63608011D01*
X69540795Y-63608011D01*
X69403795Y-63659111D01*
X69286739Y-63746739D01*
X69199111Y-63863795D01*
X69148011Y-64000795D01*
X69148011Y-64000797D01*
X69141500Y-64061345D01*
X67000500Y-64061345D01*
X67000500Y-61910516D01*
X108091500Y-61910516D01*
X108091500Y-62089483D01*
X108126411Y-62264992D01*
X108126413Y-62265000D01*
X108194896Y-62430332D01*
X108194901Y-62430342D01*
X108294321Y-62579134D01*
X108294324Y-62579138D01*
X108330180Y-62614993D01*
X108363666Y-62676315D01*
X108366500Y-62702675D01*
X108366500Y-63297324D01*
X108346815Y-63364363D01*
X108330181Y-63385005D01*
X108294324Y-63420861D01*
X108294321Y-63420865D01*
X108194901Y-63569657D01*
X108194896Y-63569667D01*
X108126413Y-63734999D01*
X108126411Y-63735007D01*
X108091500Y-63910516D01*
X108091500Y-64089483D01*
X108126411Y-64264992D01*
X108126413Y-64265000D01*
X108194896Y-64430332D01*
X108194901Y-64430342D01*
X108294321Y-64579134D01*
X108294324Y-64579138D01*
X108420861Y-64705675D01*
X108420865Y-64705678D01*
X108569657Y-64805098D01*
X108569661Y-64805100D01*
X108569664Y-64805102D01*
X108735000Y-64873587D01*
X108910516Y-64908499D01*
X108910520Y-64908500D01*
X108910521Y-64908500D01*
X109089480Y-64908500D01*
X109089481Y-64908499D01*
X109265000Y-64873587D01*
X109430336Y-64805102D01*
X109579135Y-64705678D01*
X109705678Y-64579135D01*
X109805102Y-64430336D01*
X109873587Y-64265000D01*
X109908500Y-64089479D01*
X109908500Y-63910521D01*
X109873587Y-63735000D01*
X109805102Y-63569664D01*
X109805100Y-63569661D01*
X109805098Y-63569657D01*
X109705678Y-63420865D01*
X109705675Y-63420861D01*
X109669819Y-63385005D01*
X109636334Y-63323682D01*
X109633500Y-63297324D01*
X109633500Y-62702675D01*
X109653185Y-62635636D01*
X109669820Y-62614993D01*
X109705675Y-62579138D01*
X109705678Y-62579135D01*
X109805102Y-62430336D01*
X109873587Y-62265000D01*
X109908500Y-62089479D01*
X109908500Y-61910521D01*
X109873587Y-61735000D01*
X109805102Y-61569664D01*
X109805100Y-61569661D01*
X109805098Y-61569657D01*
X109705678Y-61420865D01*
X109705675Y-61420861D01*
X109579138Y-61294324D01*
X109579134Y-61294321D01*
X109430342Y-61194901D01*
X109430332Y-61194896D01*
X109265000Y-61126413D01*
X109264992Y-61126411D01*
X109089483Y-61091500D01*
X109089479Y-61091500D01*
X108910521Y-61091500D01*
X108910516Y-61091500D01*
X108735007Y-61126411D01*
X108734999Y-61126413D01*
X108569667Y-61194896D01*
X108569657Y-61194901D01*
X108420865Y-61294321D01*
X108420861Y-61294324D01*
X108294324Y-61420861D01*
X108294321Y-61420865D01*
X108194901Y-61569657D01*
X108194896Y-61569667D01*
X108126413Y-61734999D01*
X108126411Y-61735007D01*
X108091500Y-61910516D01*
X67000500Y-61910516D01*
X67000500Y-58601345D01*
X71101500Y-58601345D01*
X71101500Y-60398654D01*
X71108011Y-60459202D01*
X71108011Y-60459204D01*
X71135786Y-60533668D01*
X71159111Y-60596204D01*
X71246739Y-60713261D01*
X71363796Y-60800889D01*
X71500799Y-60851989D01*
X71528050Y-60854918D01*
X71561345Y-60858499D01*
X71561362Y-60858500D01*
X73358638Y-60858500D01*
X73358654Y-60858499D01*
X73385692Y-60855591D01*
X73419201Y-60851989D01*
X73556204Y-60800889D01*
X73673261Y-60713261D01*
X73760889Y-60596204D01*
X73811989Y-60459201D01*
X73818500Y-60398638D01*
X73818500Y-60366708D01*
X73821035Y-60354364D01*
X73831749Y-60334186D01*
X73838185Y-60312268D01*
X73853437Y-60293340D01*
X73853802Y-60292654D01*
X73854146Y-60292460D01*
X73854819Y-60291626D01*
X74517037Y-59629408D01*
X74534075Y-59692993D01*
X74599901Y-59807007D01*
X74692993Y-59900099D01*
X74807007Y-59965925D01*
X74870590Y-59982962D01*
X74238282Y-60615269D01*
X74238282Y-60615270D01*
X74292449Y-60654624D01*
X74481782Y-60751095D01*
X74683870Y-60816757D01*
X74893754Y-60850000D01*
X75106246Y-60850000D01*
X75316127Y-60816757D01*
X75316130Y-60816757D01*
X75518217Y-60751095D01*
X75707554Y-60654622D01*
X75761716Y-60615270D01*
X75761717Y-60615270D01*
X75129408Y-59982962D01*
X75192993Y-59965925D01*
X75307007Y-59900099D01*
X75400099Y-59807007D01*
X75465925Y-59692993D01*
X75482962Y-59629408D01*
X76115270Y-60261717D01*
X76115270Y-60261716D01*
X76154622Y-60207554D01*
X76159514Y-60197954D01*
X76207488Y-60147157D01*
X76275308Y-60130361D01*
X76341444Y-60152897D01*
X76380486Y-60197954D01*
X76385375Y-60207550D01*
X76424728Y-60261716D01*
X77057037Y-59629408D01*
X77074075Y-59692993D01*
X77139901Y-59807007D01*
X77232993Y-59900099D01*
X77347007Y-59965925D01*
X77410590Y-59982962D01*
X76778282Y-60615269D01*
X76778282Y-60615270D01*
X76832449Y-60654624D01*
X77021782Y-60751095D01*
X77223870Y-60816757D01*
X77433754Y-60850000D01*
X77646246Y-60850000D01*
X77856127Y-60816757D01*
X77856130Y-60816757D01*
X78058217Y-60751095D01*
X78247554Y-60654622D01*
X78301716Y-60615270D01*
X78301717Y-60615270D01*
X77669408Y-59982962D01*
X77732993Y-59965925D01*
X77847007Y-59900099D01*
X77940099Y-59807007D01*
X78005925Y-59692993D01*
X78022962Y-59629408D01*
X78655270Y-60261717D01*
X78655270Y-60261716D01*
X78694622Y-60207554D01*
X78791095Y-60018217D01*
X78856757Y-59816130D01*
X78856757Y-59816127D01*
X78890000Y-59606246D01*
X78890000Y-59393753D01*
X78856757Y-59183872D01*
X78856757Y-59183869D01*
X78791095Y-58981782D01*
X78694624Y-58792449D01*
X78655270Y-58738282D01*
X78655269Y-58738282D01*
X78022962Y-59370590D01*
X78005925Y-59307007D01*
X77940099Y-59192993D01*
X77847007Y-59099901D01*
X77732993Y-59034075D01*
X77669409Y-59017037D01*
X78085100Y-58601345D01*
X81641500Y-58601345D01*
X81641500Y-60398654D01*
X81648011Y-60459202D01*
X81648011Y-60459204D01*
X81675786Y-60533668D01*
X81699111Y-60596204D01*
X81786739Y-60713261D01*
X81903796Y-60800889D01*
X82040799Y-60851989D01*
X82068050Y-60854918D01*
X82101345Y-60858499D01*
X82101362Y-60858500D01*
X83898638Y-60858500D01*
X83898654Y-60858499D01*
X83925692Y-60855591D01*
X83959201Y-60851989D01*
X84096204Y-60800889D01*
X84213261Y-60713261D01*
X84300889Y-60596204D01*
X84351989Y-60459201D01*
X84358500Y-60398638D01*
X84358500Y-60366708D01*
X84361035Y-60354364D01*
X84371749Y-60334186D01*
X84378185Y-60312268D01*
X84393437Y-60293340D01*
X84393802Y-60292654D01*
X84394146Y-60292460D01*
X84394819Y-60291626D01*
X85057037Y-59629408D01*
X85074075Y-59692993D01*
X85139901Y-59807007D01*
X85232993Y-59900099D01*
X85347007Y-59965925D01*
X85410590Y-59982962D01*
X84778282Y-60615269D01*
X84778282Y-60615270D01*
X84832449Y-60654624D01*
X85021782Y-60751095D01*
X85223870Y-60816757D01*
X85433754Y-60850000D01*
X85646246Y-60850000D01*
X85856127Y-60816757D01*
X85856130Y-60816757D01*
X86058217Y-60751095D01*
X86247554Y-60654622D01*
X86301716Y-60615270D01*
X86301717Y-60615270D01*
X85669408Y-59982962D01*
X85732993Y-59965925D01*
X85847007Y-59900099D01*
X85940099Y-59807007D01*
X86005925Y-59692993D01*
X86022962Y-59629408D01*
X86655270Y-60261717D01*
X86655270Y-60261716D01*
X86694622Y-60207554D01*
X86699514Y-60197954D01*
X86747488Y-60147157D01*
X86815308Y-60130361D01*
X86881444Y-60152897D01*
X86920486Y-60197954D01*
X86925375Y-60207550D01*
X86964728Y-60261716D01*
X87597037Y-59629408D01*
X87614075Y-59692993D01*
X87679901Y-59807007D01*
X87772993Y-59900099D01*
X87887007Y-59965925D01*
X87950590Y-59982962D01*
X87318282Y-60615269D01*
X87318282Y-60615270D01*
X87372449Y-60654624D01*
X87561782Y-60751095D01*
X87763870Y-60816757D01*
X87973754Y-60850000D01*
X88186246Y-60850000D01*
X88396127Y-60816757D01*
X88396130Y-60816757D01*
X88598217Y-60751095D01*
X88787554Y-60654622D01*
X88841716Y-60615270D01*
X88841717Y-60615270D01*
X88209408Y-59982962D01*
X88272993Y-59965925D01*
X88387007Y-59900099D01*
X88480099Y-59807007D01*
X88545925Y-59692993D01*
X88562962Y-59629408D01*
X89195270Y-60261717D01*
X89195270Y-60261716D01*
X89234622Y-60207554D01*
X89331095Y-60018217D01*
X89365361Y-59912759D01*
X146166500Y-59912759D01*
X146166500Y-60087240D01*
X146193795Y-60259575D01*
X146247710Y-60425513D01*
X146247711Y-60425516D01*
X146326928Y-60580984D01*
X146429477Y-60722132D01*
X146429481Y-60722137D01*
X146536493Y-60829149D01*
X146569978Y-60890472D01*
X146564994Y-60960164D01*
X146523122Y-61016097D01*
X146513909Y-61022368D01*
X146456659Y-61057680D01*
X146456655Y-61057683D01*
X146332684Y-61181654D01*
X146240643Y-61330875D01*
X146240641Y-61330880D01*
X146185494Y-61497302D01*
X146185493Y-61497309D01*
X146175000Y-61600013D01*
X146175000Y-61750000D01*
X147269670Y-61750000D01*
X147249925Y-61769745D01*
X147200556Y-61855255D01*
X147175000Y-61950630D01*
X147175000Y-62049370D01*
X147200556Y-62144745D01*
X147249925Y-62230255D01*
X147269670Y-62250000D01*
X146175001Y-62250000D01*
X146175001Y-62399986D01*
X146185494Y-62502697D01*
X146240641Y-62669119D01*
X146240643Y-62669124D01*
X146332684Y-62818345D01*
X146456654Y-62942315D01*
X146605875Y-63034356D01*
X146605880Y-63034358D01*
X146772302Y-63089505D01*
X146772309Y-63089506D01*
X146875019Y-63099999D01*
X147299999Y-63099999D01*
X147300000Y-63099998D01*
X147300000Y-62280330D01*
X147319745Y-62300075D01*
X147405255Y-62349444D01*
X147500630Y-62375000D01*
X147599370Y-62375000D01*
X147694745Y-62349444D01*
X147780255Y-62300075D01*
X147800000Y-62280330D01*
X147800000Y-63099999D01*
X148224972Y-63099999D01*
X148224986Y-63099998D01*
X148327697Y-63089505D01*
X148494119Y-63034358D01*
X148494124Y-63034356D01*
X148643345Y-62942315D01*
X148767315Y-62818345D01*
X148859356Y-62669124D01*
X148859358Y-62669119D01*
X148914505Y-62502697D01*
X148914506Y-62502690D01*
X148924999Y-62399986D01*
X148925000Y-62399973D01*
X148925000Y-62250000D01*
X147830330Y-62250000D01*
X147850075Y-62230255D01*
X147899444Y-62144745D01*
X147925000Y-62049370D01*
X147925000Y-61950630D01*
X147899444Y-61855255D01*
X147850075Y-61769745D01*
X147830330Y-61750000D01*
X148924999Y-61750000D01*
X148924999Y-61600028D01*
X148924998Y-61600013D01*
X148914505Y-61497302D01*
X148859358Y-61330880D01*
X148859356Y-61330875D01*
X148767315Y-61181654D01*
X148643345Y-61057684D01*
X148586090Y-61022369D01*
X148539366Y-60970421D01*
X148528143Y-60901458D01*
X148555987Y-60837376D01*
X148563484Y-60829171D01*
X148670517Y-60722139D01*
X148773074Y-60580981D01*
X148852288Y-60425516D01*
X148906205Y-60259574D01*
X148933500Y-60087241D01*
X148933500Y-59912759D01*
X148906205Y-59740426D01*
X148852288Y-59574484D01*
X148852288Y-59574483D01*
X148814336Y-59499999D01*
X148773074Y-59419019D01*
X148691693Y-59307007D01*
X148670522Y-59277867D01*
X148670518Y-59277862D01*
X148547137Y-59154481D01*
X148547132Y-59154477D01*
X148405984Y-59051928D01*
X148405983Y-59051927D01*
X148405981Y-59051926D01*
X148356175Y-59026548D01*
X148250516Y-58972711D01*
X148250513Y-58972710D01*
X148084575Y-58918795D01*
X147998407Y-58905147D01*
X147912241Y-58891500D01*
X147187759Y-58891500D01*
X147130314Y-58900598D01*
X147015424Y-58918795D01*
X146849486Y-58972710D01*
X146849483Y-58972711D01*
X146694015Y-59051928D01*
X146552867Y-59154477D01*
X146552862Y-59154481D01*
X146429481Y-59277862D01*
X146429477Y-59277867D01*
X146326928Y-59419015D01*
X146247711Y-59574483D01*
X146247710Y-59574486D01*
X146193795Y-59740424D01*
X146166500Y-59912759D01*
X89365361Y-59912759D01*
X89379394Y-59869569D01*
X89396757Y-59816130D01*
X89396757Y-59816127D01*
X89430000Y-59606246D01*
X89430000Y-59393753D01*
X89396757Y-59183872D01*
X89396757Y-59183869D01*
X89331095Y-58981782D01*
X89234624Y-58792449D01*
X89195270Y-58738282D01*
X89195269Y-58738282D01*
X88562962Y-59370590D01*
X88545925Y-59307007D01*
X88480099Y-59192993D01*
X88387007Y-59099901D01*
X88272993Y-59034075D01*
X88209409Y-59017037D01*
X88841716Y-58384728D01*
X88787550Y-58345375D01*
X88598217Y-58248904D01*
X88396129Y-58183242D01*
X88186246Y-58150000D01*
X87973754Y-58150000D01*
X87763872Y-58183242D01*
X87763869Y-58183242D01*
X87561782Y-58248904D01*
X87372439Y-58345380D01*
X87318282Y-58384727D01*
X87318282Y-58384728D01*
X87950591Y-59017037D01*
X87887007Y-59034075D01*
X87772993Y-59099901D01*
X87679901Y-59192993D01*
X87614075Y-59307007D01*
X87597037Y-59370591D01*
X86964728Y-58738282D01*
X86964727Y-58738282D01*
X86925380Y-58792440D01*
X86920483Y-58802051D01*
X86872506Y-58852845D01*
X86804684Y-58869638D01*
X86738550Y-58847098D01*
X86699516Y-58802048D01*
X86694626Y-58792452D01*
X86655270Y-58738282D01*
X86655269Y-58738282D01*
X86022962Y-59370590D01*
X86005925Y-59307007D01*
X85940099Y-59192993D01*
X85847007Y-59099901D01*
X85732993Y-59034075D01*
X85669409Y-59017037D01*
X86301716Y-58384728D01*
X86247550Y-58345375D01*
X86058217Y-58248904D01*
X85856129Y-58183242D01*
X85646246Y-58150000D01*
X85433754Y-58150000D01*
X85223872Y-58183242D01*
X85223869Y-58183242D01*
X85021782Y-58248904D01*
X84832439Y-58345380D01*
X84778282Y-58384727D01*
X84778282Y-58384728D01*
X85410591Y-59017037D01*
X85347007Y-59034075D01*
X85232993Y-59099901D01*
X85139901Y-59192993D01*
X85074075Y-59307007D01*
X85057037Y-59370591D01*
X84394819Y-58708373D01*
X84361334Y-58647050D01*
X84361035Y-58645636D01*
X84358500Y-58633292D01*
X84358500Y-58601362D01*
X84351989Y-58540799D01*
X84300889Y-58403796D01*
X84213261Y-58286739D01*
X84096204Y-58199111D01*
X83959203Y-58148011D01*
X83898654Y-58141500D01*
X83898638Y-58141500D01*
X82101362Y-58141500D01*
X82101345Y-58141500D01*
X82040797Y-58148011D01*
X82040795Y-58148011D01*
X81903795Y-58199111D01*
X81786739Y-58286739D01*
X81699111Y-58403795D01*
X81648011Y-58540795D01*
X81648011Y-58540797D01*
X81641500Y-58601345D01*
X78085100Y-58601345D01*
X78176085Y-58510360D01*
X78301716Y-58384728D01*
X78247550Y-58345375D01*
X78058217Y-58248904D01*
X77856129Y-58183242D01*
X77646246Y-58150000D01*
X77433754Y-58150000D01*
X77223872Y-58183242D01*
X77223869Y-58183242D01*
X77021782Y-58248904D01*
X76832439Y-58345380D01*
X76778282Y-58384727D01*
X76778282Y-58384728D01*
X77410591Y-59017037D01*
X77347007Y-59034075D01*
X77232993Y-59099901D01*
X77139901Y-59192993D01*
X77074075Y-59307007D01*
X77057037Y-59370591D01*
X76424728Y-58738282D01*
X76424727Y-58738282D01*
X76385380Y-58792440D01*
X76380483Y-58802051D01*
X76332506Y-58852845D01*
X76264684Y-58869638D01*
X76198550Y-58847098D01*
X76159516Y-58802048D01*
X76154626Y-58792452D01*
X76115270Y-58738282D01*
X76115269Y-58738282D01*
X75482962Y-59370590D01*
X75465925Y-59307007D01*
X75400099Y-59192993D01*
X75307007Y-59099901D01*
X75192993Y-59034075D01*
X75129409Y-59017037D01*
X75761716Y-58384728D01*
X75707550Y-58345375D01*
X75518217Y-58248904D01*
X75316129Y-58183242D01*
X75106246Y-58150000D01*
X74893754Y-58150000D01*
X74683872Y-58183242D01*
X74683869Y-58183242D01*
X74481782Y-58248904D01*
X74292439Y-58345380D01*
X74238282Y-58384727D01*
X74238282Y-58384728D01*
X74870591Y-59017037D01*
X74807007Y-59034075D01*
X74692993Y-59099901D01*
X74599901Y-59192993D01*
X74534075Y-59307007D01*
X74517037Y-59370591D01*
X73854819Y-58708373D01*
X73821334Y-58647050D01*
X73821035Y-58645636D01*
X73818500Y-58633292D01*
X73818500Y-58601362D01*
X73811989Y-58540799D01*
X73760889Y-58403796D01*
X73673261Y-58286739D01*
X73556204Y-58199111D01*
X73419203Y-58148011D01*
X73358654Y-58141500D01*
X73358638Y-58141500D01*
X71561362Y-58141500D01*
X71561345Y-58141500D01*
X71500797Y-58148011D01*
X71500795Y-58148011D01*
X71363795Y-58199111D01*
X71246739Y-58286739D01*
X71159111Y-58403795D01*
X71108011Y-58540795D01*
X71108011Y-58540797D01*
X71101500Y-58601345D01*
X67000500Y-58601345D01*
X67000500Y-56624499D01*
X67020185Y-56557460D01*
X67072989Y-56511705D01*
X67124500Y-56500499D01*
X155875500Y-56500499D01*
X155942539Y-56520184D01*
G37*
%TD.AperFunction*%
%TD*%
M02*
