%TF.GenerationSoftware,KiCad,Pcbnew,10.0.1*%
%TF.CreationDate,2026-04-26T13:06:42-07:00*%
%TF.ProjectId,Active Bass 2026,41637469-7665-4204-9261-737320323032,rev?*%
%TF.SameCoordinates,Original*%
%TF.FileFunction,Copper,L1,Top*%
%TF.FilePolarity,Positive*%
%FSLAX46Y46*%
G04 Gerber Fmt 4.6, Leading zero omitted, Abs format (unit mm)*
G04 Created by KiCad (PCBNEW 10.0.1) date 2026-04-26 13:06:42*
%MOMM*%
%LPD*%
G01*
G04 APERTURE LIST*
G04 Aperture macros list*
%AMRoundRect*
0 Rectangle with rounded corners*
0 $1 Rounding radius*
0 $2 $3 $4 $5 $6 $7 $8 $9 X,Y pos of 4 corners*
0 Add a 4 corners polygon primitive as box body*
4,1,4,$2,$3,$4,$5,$6,$7,$8,$9,$2,$3,0*
0 Add four circle primitives for the rounded corners*
1,1,$1+$1,$2,$3*
1,1,$1+$1,$4,$5*
1,1,$1+$1,$6,$7*
1,1,$1+$1,$8,$9*
0 Add four rect primitives between the rounded corners*
20,1,$1+$1,$2,$3,$4,$5,0*
20,1,$1+$1,$4,$5,$6,$7,0*
20,1,$1+$1,$6,$7,$8,$9,0*
20,1,$1+$1,$8,$9,$2,$3,0*%
G04 Aperture macros list end*
%TA.AperFunction,SMDPad,CuDef*%
%ADD10RoundRect,0.200000X0.275000X-0.200000X0.275000X0.200000X-0.275000X0.200000X-0.275000X-0.200000X0*%
%TD*%
%TA.AperFunction,SMDPad,CuDef*%
%ADD11RoundRect,0.200000X0.200000X0.275000X-0.200000X0.275000X-0.200000X-0.275000X0.200000X-0.275000X0*%
%TD*%
%TA.AperFunction,ComponentPad*%
%ADD12RoundRect,0.450000X-0.450000X0.450000X-0.450000X-0.450000X0.450000X-0.450000X0.450000X0.450000X0*%
%TD*%
%TA.AperFunction,ComponentPad*%
%ADD13C,1.800000*%
%TD*%
%TA.AperFunction,SMDPad,CuDef*%
%ADD14RoundRect,0.200000X-0.200000X-0.275000X0.200000X-0.275000X0.200000X0.275000X-0.200000X0.275000X0*%
%TD*%
%TA.AperFunction,SMDPad,CuDef*%
%ADD15RoundRect,0.250000X-0.325000X-0.650000X0.325000X-0.650000X0.325000X0.650000X-0.325000X0.650000X0*%
%TD*%
%TA.AperFunction,ComponentPad*%
%ADD16R,1.700000X1.700000*%
%TD*%
%TA.AperFunction,ComponentPad*%
%ADD17C,1.700000*%
%TD*%
%TA.AperFunction,ComponentPad*%
%ADD18RoundRect,0.250000X-0.650000X0.650000X-0.650000X-0.650000X0.650000X-0.650000X0.650000X0.650000X0*%
%TD*%
%TA.AperFunction,SMDPad,CuDef*%
%ADD19RoundRect,0.225000X-0.250000X0.225000X-0.250000X-0.225000X0.250000X-0.225000X0.250000X0.225000X0*%
%TD*%
%TA.AperFunction,SMDPad,CuDef*%
%ADD20RoundRect,0.225000X0.225000X0.250000X-0.225000X0.250000X-0.225000X-0.250000X0.225000X-0.250000X0*%
%TD*%
%TA.AperFunction,SMDPad,CuDef*%
%ADD21RoundRect,0.225000X-0.225000X-0.250000X0.225000X-0.250000X0.225000X0.250000X-0.225000X0.250000X0*%
%TD*%
%TA.AperFunction,SMDPad,CuDef*%
%ADD22RoundRect,0.250000X-0.250000X-0.475000X0.250000X-0.475000X0.250000X0.475000X-0.250000X0.475000X0*%
%TD*%
%TA.AperFunction,SMDPad,CuDef*%
%ADD23RoundRect,0.225000X0.250000X-0.225000X0.250000X0.225000X-0.250000X0.225000X-0.250000X-0.225000X0*%
%TD*%
%TA.AperFunction,SMDPad,CuDef*%
%ADD24RoundRect,0.150000X0.150000X-0.512500X0.150000X0.512500X-0.150000X0.512500X-0.150000X-0.512500X0*%
%TD*%
%TA.AperFunction,ComponentPad*%
%ADD25RoundRect,0.250000X0.625000X-0.350000X0.625000X0.350000X-0.625000X0.350000X-0.625000X-0.350000X0*%
%TD*%
%TA.AperFunction,ComponentPad*%
%ADD26O,1.750000X1.200000*%
%TD*%
%TA.AperFunction,SMDPad,CuDef*%
%ADD27RoundRect,0.100000X-0.100000X0.637500X-0.100000X-0.637500X0.100000X-0.637500X0.100000X0.637500X0*%
%TD*%
%TA.AperFunction,ViaPad*%
%ADD28C,0.800000*%
%TD*%
%TA.AperFunction,Conductor*%
%ADD29C,0.250000*%
%TD*%
G04 APERTURE END LIST*
D10*
%TO.P,R2,1*%
%TO.N,GND*%
X98500000Y-65825000D03*
%TO.P,R2,2*%
%TO.N,/vref*%
X98500000Y-64175000D03*
%TD*%
D11*
%TO.P,R5,1*%
%TO.N,/vref*%
X92825000Y-65000000D03*
%TO.P,R5,2*%
%TO.N,Net-(U1A-+)*%
X91175000Y-65000000D03*
%TD*%
D12*
%TO.P,RV3,1,1_1*%
%TO.N,GND*%
X143850000Y-77500000D03*
D13*
%TO.P,RV3,2,2_2*%
%TO.N,/out*%
X146350000Y-77500000D03*
%TO.P,RV3,3,3_3*%
%TO.N,Net-(C7-Pad2)*%
X148850000Y-77500000D03*
%TO.P,RV3,4,A_4*%
%TO.N,/bat+*%
X143850000Y-71900000D03*
%TO.P,RV3,5,B_5*%
%TO.N,/v+*%
X148850000Y-71900000D03*
%TD*%
D14*
%TO.P,R1,1*%
%TO.N,/vref*%
X104175000Y-63000000D03*
%TO.P,R1,2*%
%TO.N,/v+*%
X105825000Y-63000000D03*
%TD*%
D15*
%TO.P,C7,1*%
%TO.N,Net-(U1C--)*%
X135525000Y-74500000D03*
%TO.P,C7,2*%
%TO.N,Net-(C7-Pad2)*%
X138475000Y-74500000D03*
%TD*%
D16*
%TO.P,J2,1,Pin_1_1*%
%TO.N,Net-(J2-Pin_1)*%
X83000000Y-59500000D03*
D17*
%TO.P,J2,2,Pin_2_2*%
%TO.N,GND*%
X85540000Y-59500000D03*
%TO.P,J2,3,Pin_3_3*%
X88080000Y-59500000D03*
%TD*%
D18*
%TO.P,RV1,1,1_1*%
%TO.N,Net-(R9-Pad2)*%
X108925000Y-77500000D03*
D13*
%TO.P,RV1,2,2_2*%
%TO.N,Net-(U1D-+)*%
X111425000Y-77500000D03*
%TO.P,RV1,3,3_3*%
%TO.N,Net-(R8-Pad1)*%
X113925000Y-77500000D03*
%TD*%
D16*
%TO.P,J3,1,Pin_1_1*%
%TO.N,Net-(J3-Pin_1)*%
X72460000Y-59500000D03*
D17*
%TO.P,J3,2,Pin_2_2*%
%TO.N,GND*%
X75000000Y-59500000D03*
%TO.P,J3,3,Pin_3_3*%
X77540000Y-59500000D03*
%TD*%
D14*
%TO.P,R9,1*%
%TO.N,Net-(U1B--)*%
X103350000Y-77500000D03*
%TO.P,R9,2*%
%TO.N,Net-(R9-Pad2)*%
X105000000Y-77500000D03*
%TD*%
D19*
%TO.P,C5,1*%
%TO.N,/bat+*%
X115500000Y-68500000D03*
%TO.P,C5,2*%
%TO.N,GND*%
X115500000Y-70050000D03*
%TD*%
D14*
%TO.P,R8,1*%
%TO.N,Net-(R8-Pad1)*%
X117675000Y-77500000D03*
%TO.P,R8,2*%
%TO.N,Net-(U1A--)*%
X119325000Y-77500000D03*
%TD*%
D11*
%TO.P,R10,1*%
%TO.N,Net-(R10-Pad1)*%
X94150000Y-75500000D03*
%TO.P,R10,2*%
%TO.N,Net-(U1D--)*%
X92500000Y-75500000D03*
%TD*%
D14*
%TO.P,R11,1*%
%TO.N,Net-(U1D--)*%
X91000000Y-77500000D03*
%TO.P,R11,2*%
%TO.N,GND*%
X92650000Y-77500000D03*
%TD*%
D16*
%TO.P,J4,1,Pin_1_1*%
%TO.N,/out*%
X70500000Y-64960000D03*
D17*
%TO.P,J4,2,Pin_2_2*%
%TO.N,Net-(J4-Pin_2)*%
X70500000Y-67500000D03*
%TO.P,J4,3,Pin_3_3*%
%TO.N,GND*%
X70500000Y-70040000D03*
%TD*%
D20*
%TO.P,C3,1*%
%TO.N,Net-(U1A-+)*%
X82775000Y-68500000D03*
%TO.P,C3,2*%
%TO.N,Net-(J2-Pin_1)*%
X81225000Y-68500000D03*
%TD*%
D21*
%TO.P,C9,1*%
%TO.N,Net-(J4-Pin_2)*%
X115000000Y-66000000D03*
%TO.P,C9,2*%
%TO.N,GND*%
X116550000Y-66000000D03*
%TD*%
D22*
%TO.P,C10,1*%
%TO.N,GND*%
X78550000Y-72500000D03*
%TO.P,C10,2*%
%TO.N,Net-(U1C-+)*%
X80450000Y-72500000D03*
%TD*%
D20*
%TO.P,C1,1*%
%TO.N,GND*%
X83450000Y-63775000D03*
%TO.P,C1,2*%
%TO.N,Net-(J2-Pin_1)*%
X81900000Y-63775000D03*
%TD*%
D23*
%TO.P,C8,1*%
%TO.N,GND*%
X93000000Y-73050000D03*
%TO.P,C8,2*%
%TO.N,/v+*%
X93000000Y-71500000D03*
%TD*%
D24*
%TO.P,U2,1,CHRG_1*%
%TO.N,unconnected-(U2-CHRG-Pad1)*%
X110550000Y-67637500D03*
%TO.P,U2,2,VSS_2*%
%TO.N,GND*%
X111500000Y-67637500D03*
%TO.P,U2,3,VBAT_3*%
%TO.N,/bat+*%
X112450000Y-67637500D03*
%TO.P,U2,4,VDD_4*%
%TO.N,Net-(J4-Pin_2)*%
X112450000Y-65362500D03*
%TO.P,U2,5,PROG_5*%
%TO.N,Net-(U2-PROG)*%
X110550000Y-65362500D03*
%TD*%
D10*
%TO.P,R7,1*%
%TO.N,GND*%
X107500000Y-67825000D03*
%TO.P,R7,2*%
%TO.N,Net-(U2-PROG)*%
X107500000Y-66175000D03*
%TD*%
D25*
%TO.P,J1,1,Pin_1_1*%
%TO.N,GND*%
X147550000Y-62000000D03*
D26*
%TO.P,J1,2,Pin_2_2*%
%TO.N,/bat+*%
X147550000Y-60000000D03*
%TD*%
D27*
%TO.P,U1,1*%
%TO.N,Net-(U1A--)*%
X90450000Y-69637500D03*
%TO.P,U1,2,-_2*%
X89800000Y-69637500D03*
%TO.P,U1,3,+_3*%
%TO.N,Net-(U1A-+)*%
X89150000Y-69637500D03*
%TO.P,U1,4,V+_4*%
%TO.N,/v+*%
X88500000Y-69637500D03*
%TO.P,U1,5,+_5*%
%TO.N,Net-(U1B-+)*%
X87850000Y-69637500D03*
%TO.P,U1,6,-_6*%
%TO.N,Net-(U1B--)*%
X87200000Y-69637500D03*
%TO.P,U1,7*%
X86550000Y-69637500D03*
%TO.P,U1,8*%
%TO.N,Net-(U1C--)*%
X86550000Y-75362500D03*
%TO.P,U1,9,-_9*%
X87200000Y-75362500D03*
%TO.P,U1,10,+_10*%
%TO.N,Net-(U1C-+)*%
X87850000Y-75362500D03*
%TO.P,U1,11,V-_11*%
%TO.N,GND*%
X88500000Y-75362500D03*
%TO.P,U1,12,+_12*%
%TO.N,Net-(U1D-+)*%
X89150000Y-75362500D03*
%TO.P,U1,13,-_13*%
%TO.N,Net-(U1D--)*%
X89800000Y-75362500D03*
%TO.P,U1,14*%
%TO.N,Net-(R10-Pad1)*%
X90450000Y-75362500D03*
%TD*%
D23*
%TO.P,C6,1*%
%TO.N,GND*%
X96000000Y-65775000D03*
%TO.P,C6,2*%
%TO.N,/vref*%
X96000000Y-64225000D03*
%TD*%
D11*
%TO.P,R6,1*%
%TO.N,/vref*%
X92825000Y-63000000D03*
%TO.P,R6,2*%
%TO.N,Net-(U1B-+)*%
X91175000Y-63000000D03*
%TD*%
%TO.P,R3,1*%
%TO.N,GND*%
X83500000Y-65775000D03*
%TO.P,R3,2*%
%TO.N,Net-(J2-Pin_1)*%
X81850000Y-65775000D03*
%TD*%
D18*
%TO.P,RV2,1,1_1*%
%TO.N,Net-(U1C-+)*%
X74000000Y-77500000D03*
D13*
%TO.P,RV2,2,2_2*%
%TO.N,Net-(R10-Pad1)*%
X76500000Y-77500000D03*
%TO.P,RV2,3,3_3*%
%TO.N,unconnected-(RV2-Pad3)*%
X79000000Y-77500000D03*
%TD*%
D20*
%TO.P,C2,1*%
%TO.N,GND*%
X75950000Y-63775000D03*
%TO.P,C2,2*%
%TO.N,Net-(J3-Pin_1)*%
X74400000Y-63775000D03*
%TD*%
D11*
%TO.P,R4,1*%
%TO.N,GND*%
X76000000Y-65775000D03*
%TO.P,R4,2*%
%TO.N,Net-(J3-Pin_1)*%
X74350000Y-65775000D03*
%TD*%
D20*
%TO.P,C4,1*%
%TO.N,Net-(U1B-+)*%
X76775000Y-68500000D03*
%TO.P,C4,2*%
%TO.N,Net-(J3-Pin_1)*%
X75225000Y-68500000D03*
%TD*%
D28*
%TO.N,GND*%
X83000000Y-71500000D03*
X88000000Y-77000000D03*
X125500000Y-65500000D03*
X93874042Y-77118619D03*
X100500000Y-66500000D03*
%TO.N,Net-(U1B--)*%
X102000000Y-77500000D03*
X102000000Y-75000000D03*
%TO.N,Net-(U1A--)*%
X95000000Y-70000000D03*
X104500000Y-75000000D03*
%TO.N,Net-(J4-Pin_2)*%
X109000000Y-64000000D03*
X109000000Y-62000000D03*
%TO.N,Net-(U1B-+)*%
X87000000Y-66500000D03*
X87000000Y-64000000D03*
%TD*%
%TO.N,GND*%
D29*
X88500000Y-75362500D02*
X88500000Y-76500000D01*
X88500000Y-76500000D02*
X88000000Y-77000000D01*
%TO.N,/vref*%
X102675000Y-63000000D02*
X104675000Y-63000000D01*
X96050000Y-64175000D02*
X95225000Y-65000000D01*
X92825000Y-65000000D02*
X95225000Y-65000000D01*
X102675000Y-63000000D02*
X101500000Y-64175000D01*
X101500000Y-64175000D02*
X96050000Y-64175000D01*
X92825000Y-63000000D02*
X92825000Y-65000000D01*
%TO.N,Net-(U1A-+)*%
X91175000Y-65000000D02*
X89000000Y-65000000D01*
X84000000Y-68500000D02*
X82775000Y-68500000D01*
X89150000Y-67650000D02*
X89150000Y-69637500D01*
X88500000Y-65500000D02*
X89150000Y-67650000D01*
X86000000Y-66500000D02*
X84000000Y-68500000D01*
X86000000Y-66000000D02*
X86000000Y-66500000D01*
X89000000Y-65000000D02*
X88500000Y-65500000D01*
X88500000Y-65500000D02*
X86500000Y-65500000D01*
X86500000Y-65500000D02*
X86000000Y-66000000D01*
%TO.N,/out*%
X70500000Y-64960000D02*
X69540000Y-64960000D01*
X69000000Y-79500000D02*
X144350000Y-79500000D01*
X68000000Y-78500000D02*
X69000000Y-79500000D01*
X144350000Y-79500000D02*
X146350000Y-77500000D01*
X69540000Y-64960000D02*
X68000000Y-66500000D01*
X68000000Y-66500000D02*
X68000000Y-78500000D01*
%TO.N,/bat+*%
X116500000Y-68500000D02*
X121225000Y-68500000D01*
X154000000Y-65500000D02*
X154000000Y-73500000D01*
X148500000Y-74500000D02*
X145900000Y-71900000D01*
X116500000Y-68500000D02*
X113312500Y-68500000D01*
X148500000Y-60000000D02*
X154000000Y-65500000D01*
X121225000Y-68500000D02*
X121500000Y-68225000D01*
X145900000Y-71900000D02*
X143850000Y-71900000D01*
X147550000Y-60000000D02*
X148500000Y-60000000D01*
X113312500Y-68500000D02*
X112450000Y-67637500D01*
X154000000Y-73500000D02*
X153000000Y-74500000D01*
X153000000Y-74500000D02*
X148500000Y-74500000D01*
X140825000Y-68225000D02*
X143850000Y-71250000D01*
X121500000Y-68225000D02*
X140825000Y-68225000D01*
%TO.N,/v+*%
X94678404Y-71725000D02*
X96275000Y-71725000D01*
X96500000Y-71500000D02*
X99000000Y-71500000D01*
X88500000Y-70374999D02*
X88500000Y-69637500D01*
X148850000Y-69900000D02*
X148850000Y-71250000D01*
X89826764Y-71701763D02*
X88500000Y-70374999D01*
X96275000Y-71725000D02*
X96500000Y-71500000D01*
X105825000Y-64675000D02*
X105825000Y-63000000D01*
X141950000Y-63000000D02*
X148850000Y-69900000D01*
X99000000Y-71500000D02*
X105825000Y-64675000D01*
X93321596Y-71701763D02*
X89826764Y-71701763D01*
X94678404Y-71725000D02*
X93023237Y-71725000D01*
X106325000Y-63000000D02*
X141950000Y-63000000D01*
X93023237Y-71725000D02*
X93000000Y-71701763D01*
%TO.N,Net-(U1C--)*%
X86550000Y-75362500D02*
X86550000Y-76980167D01*
X87200000Y-76873359D02*
X87200000Y-75362500D01*
X135525000Y-74500000D02*
X131025000Y-79000000D01*
X86550000Y-76980167D02*
X86821596Y-77251763D01*
X131025000Y-79000000D02*
X88569833Y-79000000D01*
X88569833Y-79000000D02*
X86821596Y-77251763D01*
X86821596Y-77251763D02*
X87200000Y-76873359D01*
%TO.N,Net-(J2-Pin_1)*%
X81225000Y-66975000D02*
X81225000Y-68500000D01*
X81900000Y-60600000D02*
X83000000Y-59500000D01*
X81900000Y-63775000D02*
X81900000Y-65725000D01*
X81850000Y-66350000D02*
X81225000Y-66975000D01*
X81850000Y-65775000D02*
X81850000Y-66350000D01*
X81900000Y-63775000D02*
X81900000Y-60600000D01*
X81900000Y-65725000D02*
X81850000Y-65775000D01*
%TO.N,Net-(R9-Pad2)*%
X105000000Y-77500000D02*
X108925000Y-77500000D01*
%TO.N,Net-(U1D-+)*%
X94500000Y-78500000D02*
X90000000Y-78500000D01*
X90000000Y-78500000D02*
X89150000Y-77650000D01*
X89150000Y-77650000D02*
X89150000Y-75362500D01*
X109925000Y-76000000D02*
X97000000Y-76000000D01*
X111425000Y-77500000D02*
X109925000Y-76000000D01*
X97000000Y-76000000D02*
X94500000Y-78500000D01*
%TO.N,Net-(R8-Pad1)*%
X117675000Y-77500000D02*
X113925000Y-77500000D01*
%TO.N,Net-(J3-Pin_1)*%
X74350000Y-65775000D02*
X74350000Y-63825000D01*
X74350000Y-65775000D02*
X74350000Y-66350000D01*
X74350000Y-63825000D02*
X74400000Y-63775000D01*
X74400000Y-61440000D02*
X72460000Y-59500000D01*
X74350000Y-66350000D02*
X75225000Y-67225000D01*
X75225000Y-67225000D02*
X75225000Y-68500000D01*
X74400000Y-63775000D02*
X74400000Y-61440000D01*
%TO.N,Net-(U1B--)*%
X86550000Y-69637500D02*
X86550000Y-68236975D01*
X90825001Y-74000000D02*
X101000000Y-74000000D01*
X87200000Y-69637500D02*
X87200000Y-70374999D01*
X101000000Y-74000000D02*
X102000000Y-75000000D01*
X86550000Y-68236975D02*
X86656808Y-68130167D01*
X87200000Y-68130167D02*
X87200000Y-69637500D01*
X87200000Y-70374999D02*
X90825001Y-74000000D01*
X87200000Y-68130167D02*
X86656808Y-68130167D01*
X102000000Y-77500000D02*
X103350000Y-77500000D01*
%TO.N,Net-(U1A--)*%
X95000000Y-70000000D02*
X94000000Y-70000000D01*
X104500000Y-75000000D02*
X116825000Y-75000000D01*
X89800000Y-69637500D02*
X89800000Y-68530167D01*
X91880167Y-67880167D02*
X90450000Y-67880167D01*
X94000000Y-70000000D02*
X91880167Y-67880167D01*
X116825000Y-75000000D02*
X119325000Y-77500000D01*
X89800000Y-68530167D02*
X90450000Y-67880167D01*
X90450000Y-69637500D02*
X90450000Y-67880167D01*
%TO.N,Net-(R10-Pad1)*%
X84000000Y-75000000D02*
X79000000Y-75000000D01*
X94150000Y-75500000D02*
X93420000Y-74770000D01*
X90450000Y-74450000D02*
X89500000Y-73500000D01*
X89500000Y-73500000D02*
X85500000Y-73500000D01*
X91312500Y-74500000D02*
X90450000Y-75362500D01*
X79000000Y-75000000D02*
X76500000Y-77500000D01*
X93150000Y-74500000D02*
X91312500Y-74500000D01*
X90450000Y-75362500D02*
X90450000Y-74450000D01*
X93420000Y-74770000D02*
X93150000Y-74500000D01*
X85500000Y-73500000D02*
X84000000Y-75000000D01*
%TO.N,Net-(U1D--)*%
X92500000Y-75500000D02*
X92500000Y-76000000D01*
X89800000Y-75362500D02*
X89800000Y-76300000D01*
X89800000Y-76300000D02*
X91000000Y-77500000D01*
X92500000Y-76000000D02*
X91000000Y-77500000D01*
%TO.N,Net-(J4-Pin_2)*%
X70500000Y-67500000D02*
X72500000Y-65500000D01*
X109000000Y-64000000D02*
X111087500Y-64000000D01*
X70500000Y-58000000D02*
X71000000Y-57500000D01*
X115000000Y-66000000D02*
X113087500Y-66000000D01*
X71000000Y-57500000D02*
X104500000Y-57500000D01*
X72500000Y-63500000D02*
X70500000Y-61500000D01*
X111087500Y-64000000D02*
X112450000Y-65362500D01*
X104500000Y-57500000D02*
X109000000Y-62000000D01*
X72500000Y-65500000D02*
X72500000Y-63500000D01*
X113087500Y-66000000D02*
X112450000Y-65362500D01*
X70500000Y-61500000D02*
X70500000Y-58000000D01*
%TO.N,Net-(U1C-+)*%
X87500000Y-74000000D02*
X87850000Y-74350000D01*
X82000000Y-78000000D02*
X86000000Y-74000000D01*
X78950000Y-74000000D02*
X76500000Y-74000000D01*
X87850000Y-74350000D02*
X87850000Y-75362500D01*
X80450000Y-72500000D02*
X78950000Y-74000000D01*
X74000000Y-76500000D02*
X74000000Y-77500000D01*
X80450000Y-72500000D02*
X80500000Y-72500000D01*
X86000000Y-74000000D02*
X87500000Y-74000000D01*
X82000000Y-79000000D02*
X82000000Y-78000000D01*
X74000000Y-77500000D02*
X75500000Y-79000000D01*
X75500000Y-79000000D02*
X82000000Y-79000000D01*
X76500000Y-74000000D02*
X74000000Y-76500000D01*
%TO.N,Net-(U2-PROG)*%
X110550000Y-65362500D02*
X109737500Y-66175000D01*
X109737500Y-66175000D02*
X107500000Y-66175000D01*
%TO.N,Net-(U1B-+)*%
X86500000Y-67500000D02*
X84000000Y-70000000D01*
X87000000Y-67500000D02*
X86500000Y-67500000D01*
X87850000Y-67850000D02*
X87850000Y-69637500D01*
X87000000Y-66500000D02*
X87000000Y-67500000D01*
X84000000Y-70000000D02*
X78275000Y-70000000D01*
X87000000Y-67500000D02*
X87500000Y-67500000D01*
X78275000Y-70000000D02*
X76775000Y-68500000D01*
X88000000Y-63000000D02*
X87000000Y-64000000D01*
X91175000Y-63000000D02*
X88000000Y-63000000D01*
X87500000Y-67500000D02*
X87850000Y-67850000D01*
%TO.N,unconnected-(RV2-Pad3)*%
X79050000Y-77450000D02*
X79000000Y-77500000D01*
%TO.N,Net-(C7-Pad2)*%
X147000000Y-74500000D02*
X148850000Y-76350000D01*
X148850000Y-76350000D02*
X148850000Y-77500000D01*
X138475000Y-74500000D02*
X147000000Y-74500000D01*
%TD*%
%TA.AperFunction,Conductor*%
%TO.N,GND*%
G36*
X71331810Y-60776944D02*
G01*
X71363796Y-60800889D01*
X71500799Y-60851989D01*
X71528050Y-60854918D01*
X71561345Y-60858499D01*
X71561362Y-60858500D01*
X72871234Y-60858500D01*
X72938273Y-60878185D01*
X72958915Y-60894819D01*
X73730181Y-61666085D01*
X73763666Y-61727408D01*
X73766500Y-61753766D01*
X73766500Y-62846510D01*
X73746815Y-62913549D01*
X73719419Y-62943770D01*
X73716961Y-62945713D01*
X73595715Y-63066959D01*
X73595712Y-63066963D01*
X73505702Y-63212890D01*
X73505697Y-63212901D01*
X73451764Y-63375663D01*
X73441500Y-63476120D01*
X73441500Y-64073879D01*
X73451764Y-64174336D01*
X73505697Y-64337098D01*
X73505702Y-64337109D01*
X73595712Y-64483036D01*
X73595715Y-64483040D01*
X73680181Y-64567506D01*
X73694884Y-64594433D01*
X73711477Y-64620252D01*
X73712368Y-64626452D01*
X73713666Y-64628829D01*
X73716500Y-64655187D01*
X73716500Y-64880166D01*
X73696815Y-64947205D01*
X73680181Y-64967847D01*
X73588187Y-65059840D01*
X73588186Y-65059841D01*
X73499173Y-65207086D01*
X73447986Y-65371354D01*
X73444185Y-65413184D01*
X73441940Y-65437899D01*
X73441500Y-65442737D01*
X73441500Y-66107272D01*
X73447985Y-66178645D01*
X73447988Y-66178655D01*
X73499171Y-66342909D01*
X73499172Y-66342911D01*
X73499173Y-66342913D01*
X73588184Y-66490155D01*
X73709845Y-66611816D01*
X73709847Y-66611817D01*
X73709848Y-66611818D01*
X73775462Y-66651483D01*
X73814414Y-66688709D01*
X73857928Y-66753832D01*
X73857931Y-66753836D01*
X74555181Y-67451085D01*
X74569884Y-67478012D01*
X74586477Y-67503831D01*
X74587368Y-67510031D01*
X74588666Y-67512408D01*
X74591500Y-67538766D01*
X74591500Y-67571510D01*
X74571815Y-67638549D01*
X74544419Y-67668770D01*
X74541961Y-67670713D01*
X74420715Y-67791959D01*
X74420712Y-67791963D01*
X74330702Y-67937890D01*
X74330697Y-67937901D01*
X74276764Y-68100663D01*
X74266500Y-68201120D01*
X74266500Y-68798879D01*
X74276764Y-68899336D01*
X74330697Y-69062098D01*
X74330702Y-69062109D01*
X74420712Y-69208036D01*
X74420715Y-69208040D01*
X74541959Y-69329284D01*
X74541963Y-69329287D01*
X74687890Y-69419297D01*
X74687893Y-69419298D01*
X74687899Y-69419302D01*
X74850664Y-69473236D01*
X74951128Y-69483500D01*
X74951133Y-69483500D01*
X75498867Y-69483500D01*
X75498872Y-69483500D01*
X75599336Y-69473236D01*
X75762101Y-69419302D01*
X75908040Y-69329285D01*
X75912319Y-69325006D01*
X75973642Y-69291521D01*
X76043334Y-69296505D01*
X76087681Y-69325006D01*
X76091959Y-69329284D01*
X76091963Y-69329287D01*
X76237890Y-69419297D01*
X76237893Y-69419298D01*
X76237899Y-69419302D01*
X76400664Y-69473236D01*
X76501128Y-69483500D01*
X76811234Y-69483500D01*
X76878273Y-69503185D01*
X76898915Y-69519819D01*
X77871163Y-70492068D01*
X77871167Y-70492071D01*
X77974918Y-70561396D01*
X77974924Y-70561399D01*
X77974925Y-70561400D01*
X78090215Y-70609155D01*
X78210288Y-70633039D01*
X78212601Y-70633499D01*
X78212605Y-70633500D01*
X78212606Y-70633500D01*
X84062395Y-70633500D01*
X84062396Y-70633499D01*
X84184785Y-70609155D01*
X84300075Y-70561400D01*
X84403833Y-70492071D01*
X85629819Y-69266083D01*
X85691142Y-69232599D01*
X85760833Y-69237583D01*
X85816767Y-69279454D01*
X85841184Y-69344919D01*
X85841500Y-69353765D01*
X85841500Y-70314886D01*
X85857160Y-70433842D01*
X85857163Y-70433853D01*
X85917340Y-70579135D01*
X85918476Y-70581876D01*
X86016013Y-70708987D01*
X86143124Y-70806524D01*
X86291150Y-70867838D01*
X86410115Y-70883500D01*
X86689884Y-70883499D01*
X86737694Y-70877205D01*
X86806729Y-70887971D01*
X86841560Y-70912463D01*
X88583915Y-72654819D01*
X88617400Y-72716142D01*
X88612416Y-72785834D01*
X88570544Y-72841767D01*
X88505080Y-72866184D01*
X88496234Y-72866500D01*
X85437601Y-72866500D01*
X85315222Y-72890843D01*
X85315214Y-72890845D01*
X85199927Y-72938598D01*
X85199918Y-72938603D01*
X85096167Y-73007928D01*
X85096163Y-73007931D01*
X83773915Y-74330181D01*
X83712592Y-74363666D01*
X83686234Y-74366500D01*
X79778766Y-74366500D01*
X79711727Y-74346815D01*
X79665972Y-74294011D01*
X79656028Y-74224853D01*
X79685053Y-74161297D01*
X79691085Y-74154819D01*
X79782874Y-74063029D01*
X80076086Y-73769816D01*
X80137407Y-73736333D01*
X80163755Y-73733499D01*
X80750544Y-73733499D01*
X80854426Y-73722887D01*
X81022738Y-73667115D01*
X81173652Y-73574030D01*
X81299030Y-73448652D01*
X81392115Y-73297738D01*
X81447887Y-73129426D01*
X81458500Y-73025545D01*
X81458499Y-71974456D01*
X81447887Y-71870574D01*
X81392115Y-71702262D01*
X81299030Y-71551348D01*
X81173652Y-71425970D01*
X81065594Y-71359319D01*
X81022740Y-71332886D01*
X81022735Y-71332884D01*
X80854427Y-71277113D01*
X80750546Y-71266500D01*
X80149462Y-71266500D01*
X80149446Y-71266501D01*
X80045572Y-71277113D01*
X79877264Y-71332884D01*
X79877259Y-71332886D01*
X79726346Y-71425971D01*
X79600971Y-71551346D01*
X79507886Y-71702259D01*
X79507884Y-71702264D01*
X79452113Y-71870572D01*
X79441500Y-71974447D01*
X79441500Y-72561233D01*
X79421815Y-72628272D01*
X79405181Y-72648914D01*
X78723915Y-73330181D01*
X78662592Y-73363666D01*
X78636234Y-73366500D01*
X76437601Y-73366500D01*
X76315222Y-73390843D01*
X76315214Y-73390845D01*
X76199927Y-73438598D01*
X76199918Y-73438603D01*
X76096167Y-73507928D01*
X76096163Y-73507931D01*
X73596167Y-76007928D01*
X73596166Y-76007929D01*
X73548912Y-76055182D01*
X73487589Y-76088666D01*
X73461233Y-76091500D01*
X73299461Y-76091500D01*
X73299446Y-76091501D01*
X73195572Y-76102113D01*
X73027264Y-76157884D01*
X73027259Y-76157886D01*
X72876346Y-76250971D01*
X72750971Y-76376346D01*
X72657886Y-76527259D01*
X72657884Y-76527264D01*
X72602113Y-76695572D01*
X72591500Y-76799447D01*
X72591500Y-78200537D01*
X72591501Y-78200553D01*
X72602113Y-78304427D01*
X72657884Y-78472735D01*
X72657886Y-78472740D01*
X72750971Y-78623653D01*
X72782137Y-78654819D01*
X72815622Y-78716142D01*
X72810638Y-78785834D01*
X72768766Y-78841767D01*
X72703302Y-78866184D01*
X72694456Y-78866500D01*
X69313767Y-78866500D01*
X69246728Y-78846815D01*
X69226086Y-78830181D01*
X68669819Y-78273914D01*
X68636334Y-78212591D01*
X68633500Y-78186233D01*
X68633500Y-66813765D01*
X68653185Y-66746726D01*
X68669815Y-66726088D01*
X69174108Y-66221794D01*
X69235429Y-66188311D01*
X69305120Y-66193295D01*
X69318408Y-66199159D01*
X69327717Y-66203936D01*
X69403796Y-66260889D01*
X69531443Y-66308499D01*
X69537911Y-66311819D01*
X69558178Y-66331074D01*
X69580557Y-66347827D01*
X69583161Y-66354809D01*
X69588565Y-66359943D01*
X69595205Y-66387100D01*
X69604974Y-66413291D01*
X69603389Y-66420573D01*
X69605160Y-66427813D01*
X69596064Y-66454246D01*
X69590122Y-66481564D01*
X69583724Y-66490110D01*
X69582427Y-66493881D01*
X69578699Y-66496823D01*
X69568972Y-66509818D01*
X69463793Y-66614997D01*
X69338106Y-66787990D01*
X69241027Y-66978516D01*
X69241026Y-66978519D01*
X69174951Y-67181882D01*
X69168640Y-67221727D01*
X69141500Y-67393084D01*
X69141500Y-67606916D01*
X69152971Y-67679343D01*
X69174951Y-67818117D01*
X69241026Y-68021480D01*
X69241027Y-68021483D01*
X69332558Y-68201120D01*
X69338106Y-68212009D01*
X69463794Y-68385004D01*
X69614996Y-68536206D01*
X69787991Y-68661894D01*
X69792680Y-68664283D01*
X69843478Y-68712254D01*
X69860276Y-68780074D01*
X69837742Y-68846210D01*
X69796205Y-68882209D01*
X69796590Y-68882838D01*
X69792804Y-68885157D01*
X69792702Y-68885246D01*
X69792449Y-68885374D01*
X69792440Y-68885380D01*
X69738282Y-68924727D01*
X69738282Y-68924728D01*
X70370591Y-69557037D01*
X70307007Y-69574075D01*
X70192993Y-69639901D01*
X70099901Y-69732993D01*
X70034075Y-69847007D01*
X70017037Y-69910591D01*
X69384728Y-69278282D01*
X69384727Y-69278282D01*
X69345380Y-69332439D01*
X69248904Y-69521782D01*
X69183242Y-69723869D01*
X69183242Y-69723872D01*
X69150000Y-69933753D01*
X69150000Y-70146246D01*
X69183242Y-70356127D01*
X69183242Y-70356130D01*
X69248904Y-70558217D01*
X69345375Y-70747550D01*
X69384728Y-70801716D01*
X70017037Y-70169408D01*
X70034075Y-70232993D01*
X70099901Y-70347007D01*
X70192993Y-70440099D01*
X70307007Y-70505925D01*
X70370590Y-70522962D01*
X69738282Y-71155269D01*
X69738282Y-71155270D01*
X69792449Y-71194624D01*
X69981782Y-71291095D01*
X70183870Y-71356757D01*
X70393754Y-71390000D01*
X70606246Y-71390000D01*
X70816127Y-71356757D01*
X70816130Y-71356757D01*
X71018217Y-71291095D01*
X71207554Y-71194622D01*
X71261716Y-71155270D01*
X71261717Y-71155270D01*
X70629408Y-70522962D01*
X70692993Y-70505925D01*
X70807007Y-70440099D01*
X70900099Y-70347007D01*
X70965925Y-70232993D01*
X70982962Y-70169409D01*
X71615270Y-70801717D01*
X71615270Y-70801716D01*
X71654622Y-70747554D01*
X71751095Y-70558217D01*
X71816757Y-70356130D01*
X71816757Y-70356127D01*
X71850000Y-70146246D01*
X71850000Y-69933753D01*
X71816757Y-69723872D01*
X71816757Y-69723869D01*
X71751095Y-69521782D01*
X71654624Y-69332449D01*
X71615270Y-69278282D01*
X71615269Y-69278282D01*
X70982962Y-69910590D01*
X70965925Y-69847007D01*
X70900099Y-69732993D01*
X70807007Y-69639901D01*
X70692993Y-69574075D01*
X70629409Y-69557037D01*
X71261716Y-68924728D01*
X71207547Y-68885373D01*
X71207545Y-68885371D01*
X71207308Y-68885251D01*
X71207234Y-68885181D01*
X71203396Y-68882829D01*
X71203890Y-68882022D01*
X71156515Y-68837274D01*
X71139724Y-68769451D01*
X71162266Y-68703318D01*
X71207319Y-68664283D01*
X71212009Y-68661894D01*
X71385004Y-68536206D01*
X71536206Y-68385004D01*
X71661894Y-68212009D01*
X71758972Y-68021483D01*
X71825049Y-67818116D01*
X71858500Y-67606916D01*
X71858500Y-67393084D01*
X71825049Y-67181884D01*
X71821300Y-67170348D01*
X71819306Y-67100509D01*
X71851549Y-67044353D01*
X72992071Y-65903833D01*
X73061400Y-65800075D01*
X73109155Y-65684785D01*
X73133500Y-65562394D01*
X73133500Y-65437606D01*
X73133500Y-63437606D01*
X73109155Y-63315215D01*
X73061400Y-63199925D01*
X73061399Y-63199924D01*
X73061396Y-63199918D01*
X72992072Y-63096168D01*
X72951085Y-63055181D01*
X72903833Y-63007929D01*
X71169819Y-61273915D01*
X71136334Y-61212592D01*
X71133500Y-61186234D01*
X71133500Y-60876212D01*
X71153185Y-60809173D01*
X71205989Y-60763418D01*
X71275147Y-60753474D01*
X71331810Y-60776944D01*
G37*
%TD.AperFunction*%
%TA.AperFunction,Conductor*%
G36*
X108015721Y-63639435D02*
G01*
X108036761Y-63640563D01*
X108048575Y-63649082D01*
X108062547Y-63653185D01*
X108076340Y-63669103D01*
X108093433Y-63681429D01*
X108098766Y-63694984D01*
X108108302Y-63705989D01*
X108111300Y-63726841D01*
X108119014Y-63746447D01*
X108117684Y-63771244D01*
X108118246Y-63775147D01*
X108117125Y-63781691D01*
X108091500Y-63910516D01*
X108091500Y-64089483D01*
X108126411Y-64264992D01*
X108126413Y-64265000D01*
X108194896Y-64430332D01*
X108194901Y-64430342D01*
X108294321Y-64579134D01*
X108294324Y-64579138D01*
X108420861Y-64705675D01*
X108420865Y-64705678D01*
X108569657Y-64805098D01*
X108569661Y-64805100D01*
X108569664Y-64805102D01*
X108735000Y-64873587D01*
X108873002Y-64901037D01*
X108910516Y-64908499D01*
X108910520Y-64908500D01*
X108910521Y-64908500D01*
X109089480Y-64908500D01*
X109089481Y-64908499D01*
X109265000Y-64873587D01*
X109430336Y-64805102D01*
X109461684Y-64784156D01*
X109548609Y-64726075D01*
X109615287Y-64705197D01*
X109682667Y-64723682D01*
X109729357Y-64775660D01*
X109741500Y-64829177D01*
X109741500Y-65223733D01*
X109721815Y-65290772D01*
X109705181Y-65311414D01*
X109511415Y-65505181D01*
X109450092Y-65538666D01*
X109423734Y-65541500D01*
X108394833Y-65541500D01*
X108327794Y-65521815D01*
X108307156Y-65505185D01*
X108215155Y-65413184D01*
X108067913Y-65324173D01*
X107903649Y-65272987D01*
X107903647Y-65272986D01*
X107903645Y-65272986D01*
X107853667Y-65268444D01*
X107832265Y-65266500D01*
X107832262Y-65266500D01*
X107167727Y-65266500D01*
X107096354Y-65272985D01*
X107096344Y-65272988D01*
X106932090Y-65324171D01*
X106784841Y-65413186D01*
X106663186Y-65534841D01*
X106574173Y-65682086D01*
X106522986Y-65846354D01*
X106516500Y-65917737D01*
X106516500Y-66432272D01*
X106522985Y-66503645D01*
X106522988Y-66503655D01*
X106574171Y-66667909D01*
X106574172Y-66667911D01*
X106574173Y-66667913D01*
X106656129Y-66803485D01*
X106663186Y-66815158D01*
X106784841Y-66936813D01*
X106784843Y-66936814D01*
X106784845Y-66936816D01*
X106932087Y-67025827D01*
X107096351Y-67077013D01*
X107167735Y-67083500D01*
X107832264Y-67083499D01*
X107832272Y-67083499D01*
X107903645Y-67077014D01*
X107903648Y-67077013D01*
X107903649Y-67077013D01*
X108067913Y-67025827D01*
X108215155Y-66936816D01*
X108307153Y-66844817D01*
X108368474Y-66811334D01*
X108394833Y-66808500D01*
X109641071Y-66808500D01*
X109708110Y-66828185D01*
X109753865Y-66880989D01*
X109763809Y-66950147D01*
X109760148Y-66967094D01*
X109744437Y-67021170D01*
X109741500Y-67058492D01*
X109741500Y-68216507D01*
X109744437Y-68253829D01*
X109744438Y-68253835D01*
X109790853Y-68413596D01*
X109790855Y-68413601D01*
X109875544Y-68556803D01*
X109875551Y-68556812D01*
X109993187Y-68674448D01*
X109993191Y-68674451D01*
X109993193Y-68674453D01*
X110136399Y-68759145D01*
X110171873Y-68769451D01*
X110296164Y-68805561D01*
X110296167Y-68805561D01*
X110296169Y-68805562D01*
X110333498Y-68808500D01*
X110333504Y-68808500D01*
X110766496Y-68808500D01*
X110766502Y-68808500D01*
X110803831Y-68805562D01*
X110803833Y-68805561D01*
X110803835Y-68805561D01*
X110891562Y-68780074D01*
X110963601Y-68759145D01*
X111106807Y-68674453D01*
X111224453Y-68556807D01*
X111309145Y-68413601D01*
X111355562Y-68253831D01*
X111358500Y-68216502D01*
X111358500Y-67058498D01*
X111355562Y-67021169D01*
X111351715Y-67007929D01*
X111309146Y-66861403D01*
X111309145Y-66861399D01*
X111250599Y-66762404D01*
X111224455Y-66718196D01*
X111224448Y-66718187D01*
X111106811Y-66600550D01*
X111103500Y-66597982D01*
X111101567Y-66595306D01*
X111101291Y-66595030D01*
X111101335Y-66594985D01*
X111062591Y-66541341D01*
X111058799Y-66471574D01*
X111093328Y-66410832D01*
X111103500Y-66402018D01*
X111106802Y-66399455D01*
X111106807Y-66399453D01*
X111224453Y-66281807D01*
X111309145Y-66138601D01*
X111355562Y-65978831D01*
X111358500Y-65941502D01*
X111358500Y-65466266D01*
X111364738Y-65445020D01*
X111366318Y-65422932D01*
X111374390Y-65412148D01*
X111378185Y-65399227D01*
X111394918Y-65384727D01*
X111408190Y-65366999D01*
X111420810Y-65362291D01*
X111430989Y-65353472D01*
X111452906Y-65350320D01*
X111473654Y-65342582D01*
X111486814Y-65345444D01*
X111500147Y-65343528D01*
X111520290Y-65352727D01*
X111541927Y-65357434D01*
X111559652Y-65370702D01*
X111563703Y-65372553D01*
X111570181Y-65378585D01*
X111605181Y-65413585D01*
X111638666Y-65474908D01*
X111641500Y-65501266D01*
X111641500Y-65941507D01*
X111644437Y-65978829D01*
X111644438Y-65978835D01*
X111690853Y-66138596D01*
X111690855Y-66138601D01*
X111775544Y-66281803D01*
X111775551Y-66281812D01*
X111893191Y-66399452D01*
X111896504Y-66402022D01*
X111898435Y-66404696D01*
X111898709Y-66404970D01*
X111898664Y-66405014D01*
X111937410Y-66458665D01*
X111941198Y-66528432D01*
X111906667Y-66589172D01*
X111896504Y-66597978D01*
X111893191Y-66600547D01*
X111775551Y-66718187D01*
X111775544Y-66718196D01*
X111690855Y-66861398D01*
X111690853Y-66861403D01*
X111644438Y-67021164D01*
X111644437Y-67021170D01*
X111641500Y-67058492D01*
X111641500Y-68216507D01*
X111644437Y-68253829D01*
X111644438Y-68253835D01*
X111690853Y-68413596D01*
X111690855Y-68413601D01*
X111775544Y-68556803D01*
X111775551Y-68556812D01*
X111893187Y-68674448D01*
X111893191Y-68674451D01*
X111893193Y-68674453D01*
X112036399Y-68759145D01*
X112071873Y-68769451D01*
X112196164Y-68805561D01*
X112196167Y-68805561D01*
X112196169Y-68805562D01*
X112233498Y-68808500D01*
X112233504Y-68808500D01*
X112666485Y-68808500D01*
X112666502Y-68808500D01*
X112666519Y-68808498D01*
X112668666Y-68808414D01*
X112736429Y-68825442D01*
X112761229Y-68844633D01*
X112841323Y-68924727D01*
X112908668Y-68992072D01*
X113012418Y-69061396D01*
X113012427Y-69061401D01*
X113038543Y-69072218D01*
X113127715Y-69109155D01*
X113250101Y-69133499D01*
X113250105Y-69133500D01*
X113250106Y-69133500D01*
X113374894Y-69133500D01*
X114571511Y-69133500D01*
X114638550Y-69153185D01*
X114668777Y-69180589D01*
X114670715Y-69183040D01*
X114791959Y-69304284D01*
X114791963Y-69304287D01*
X114937890Y-69394297D01*
X114937893Y-69394298D01*
X114937899Y-69394302D01*
X115100664Y-69448236D01*
X115201128Y-69458500D01*
X115201133Y-69458500D01*
X115798867Y-69458500D01*
X115798872Y-69458500D01*
X115899336Y-69448236D01*
X116062101Y-69394302D01*
X116208040Y-69304285D01*
X116329285Y-69183040D01*
X116329288Y-69183034D01*
X116331223Y-69180589D01*
X116332980Y-69179344D01*
X116334392Y-69177933D01*
X116334633Y-69178174D01*
X116388245Y-69140212D01*
X116428489Y-69133500D01*
X121287395Y-69133500D01*
X121287396Y-69133499D01*
X121409785Y-69109155D01*
X121525075Y-69061400D01*
X121628833Y-68992071D01*
X121726086Y-68894817D01*
X121787407Y-68861334D01*
X121813766Y-68858500D01*
X140511234Y-68858500D01*
X140578273Y-68878185D01*
X140598915Y-68894819D01*
X142663260Y-70959164D01*
X142696745Y-71020487D01*
X142691761Y-71090179D01*
X142675897Y-71119730D01*
X142645345Y-71161781D01*
X142544693Y-71359319D01*
X142476182Y-71570175D01*
X142441500Y-71789149D01*
X142441500Y-72010850D01*
X142476182Y-72229824D01*
X142544693Y-72440680D01*
X142626486Y-72601206D01*
X142645343Y-72638215D01*
X142775657Y-72817576D01*
X142932424Y-72974343D01*
X143111785Y-73104657D01*
X143160397Y-73129426D01*
X143309319Y-73205306D01*
X143309321Y-73205306D01*
X143309324Y-73205308D01*
X143520176Y-73273818D01*
X143739149Y-73308500D01*
X143739150Y-73308500D01*
X143960850Y-73308500D01*
X143960851Y-73308500D01*
X144179824Y-73273818D01*
X144390676Y-73205308D01*
X144588215Y-73104657D01*
X144767576Y-72974343D01*
X144924343Y-72817576D01*
X145054657Y-72638215D01*
X145073514Y-72601205D01*
X145121488Y-72550410D01*
X145183999Y-72533500D01*
X145586234Y-72533500D01*
X145653273Y-72553185D01*
X145673915Y-72569819D01*
X146758915Y-73654819D01*
X146792400Y-73716142D01*
X146787416Y-73785834D01*
X146745544Y-73841767D01*
X146680080Y-73866184D01*
X146671234Y-73866500D01*
X139677326Y-73866500D01*
X139610287Y-73846815D01*
X139564532Y-73794011D01*
X139553968Y-73755101D01*
X139547887Y-73695573D01*
X139503756Y-73562393D01*
X139492115Y-73527262D01*
X139399030Y-73376348D01*
X139273652Y-73250970D01*
X139122738Y-73157885D01*
X139036853Y-73129426D01*
X138954427Y-73102113D01*
X138850546Y-73091500D01*
X138099462Y-73091500D01*
X138099446Y-73091501D01*
X137995572Y-73102113D01*
X137827264Y-73157884D01*
X137827259Y-73157886D01*
X137676346Y-73250971D01*
X137550971Y-73376346D01*
X137457886Y-73527259D01*
X137457884Y-73527264D01*
X137402113Y-73695572D01*
X137391500Y-73799447D01*
X137391500Y-75200537D01*
X137391501Y-75200553D01*
X137402113Y-75304427D01*
X137419164Y-75355883D01*
X137457885Y-75472738D01*
X137550970Y-75623652D01*
X137676348Y-75749030D01*
X137827262Y-75842115D01*
X137995574Y-75897887D01*
X138099455Y-75908500D01*
X138850544Y-75908499D01*
X138954426Y-75897887D01*
X139122738Y-75842115D01*
X139273652Y-75749030D01*
X139399030Y-75623652D01*
X139492115Y-75472738D01*
X139547887Y-75304426D01*
X139553969Y-75244897D01*
X139580366Y-75180205D01*
X139637546Y-75140054D01*
X139677327Y-75133500D01*
X146686234Y-75133500D01*
X146753273Y-75153185D01*
X146773915Y-75169819D01*
X147893407Y-76289311D01*
X147926892Y-76350634D01*
X147921908Y-76420326D01*
X147893408Y-76464673D01*
X147775656Y-76582425D01*
X147771023Y-76588802D01*
X147716981Y-76663185D01*
X147700318Y-76686119D01*
X147644988Y-76728784D01*
X147575374Y-76734763D01*
X147513579Y-76702157D01*
X147499682Y-76686119D01*
X147483020Y-76663186D01*
X147424343Y-76582424D01*
X147267576Y-76425657D01*
X147088215Y-76295343D01*
X147056764Y-76279318D01*
X146890680Y-76194693D01*
X146679824Y-76126182D01*
X146679818Y-76126181D01*
X146460851Y-76091500D01*
X146239149Y-76091500D01*
X146138458Y-76107448D01*
X146020175Y-76126182D01*
X145809319Y-76194693D01*
X145611784Y-76295343D01*
X145432425Y-76425656D01*
X145297779Y-76560302D01*
X145236456Y-76593786D01*
X145166764Y-76588802D01*
X145110831Y-76546930D01*
X145100189Y-76530030D01*
X145097314Y-76524527D01*
X145097313Y-76524526D01*
X144975215Y-76374784D01*
X144825474Y-76252686D01*
X144654215Y-76163228D01*
X144468461Y-76110079D01*
X144468458Y-76110078D01*
X144355097Y-76100000D01*
X144100000Y-76100000D01*
X144100000Y-77066988D01*
X144042993Y-77034075D01*
X143915826Y-77000000D01*
X143784174Y-77000000D01*
X143657007Y-77034075D01*
X143600000Y-77066988D01*
X143600000Y-76100000D01*
X143344907Y-76100000D01*
X143344901Y-76100001D01*
X143231539Y-76110078D01*
X143045784Y-76163228D01*
X142874525Y-76252686D01*
X142724784Y-76374784D01*
X142602686Y-76524525D01*
X142513228Y-76695784D01*
X142460079Y-76881538D01*
X142460078Y-76881541D01*
X142450000Y-76994902D01*
X142450000Y-77250000D01*
X143416988Y-77250000D01*
X143384075Y-77307007D01*
X143350000Y-77434174D01*
X143350000Y-77565826D01*
X143384075Y-77692993D01*
X143416988Y-77750000D01*
X142450001Y-77750000D01*
X142450001Y-78005098D01*
X142460078Y-78118460D01*
X142513228Y-78304215D01*
X142602686Y-78475474D01*
X142724786Y-78625218D01*
X142750762Y-78646399D01*
X142790279Y-78704020D01*
X142792370Y-78773858D01*
X142756372Y-78833740D01*
X142693714Y-78864655D01*
X142672401Y-78866500D01*
X132353766Y-78866500D01*
X132286727Y-78846815D01*
X132240972Y-78794011D01*
X132231028Y-78724853D01*
X132260053Y-78661297D01*
X132266085Y-78654819D01*
X133137408Y-77783496D01*
X134983443Y-75937459D01*
X135044764Y-75903976D01*
X135083720Y-75901784D01*
X135149455Y-75908500D01*
X135900544Y-75908499D01*
X136004426Y-75897887D01*
X136172738Y-75842115D01*
X136323652Y-75749030D01*
X136449030Y-75623652D01*
X136542115Y-75472738D01*
X136597887Y-75304426D01*
X136608500Y-75200545D01*
X136608499Y-73799456D01*
X136597887Y-73695574D01*
X136542115Y-73527262D01*
X136449030Y-73376348D01*
X136323652Y-73250970D01*
X136172738Y-73157885D01*
X136086853Y-73129426D01*
X136004427Y-73102113D01*
X135900546Y-73091500D01*
X135149462Y-73091500D01*
X135149446Y-73091501D01*
X135045572Y-73102113D01*
X134877264Y-73157884D01*
X134877259Y-73157886D01*
X134726346Y-73250971D01*
X134600971Y-73376346D01*
X134507886Y-73527259D01*
X134507884Y-73527264D01*
X134452113Y-73695572D01*
X134441500Y-73799447D01*
X134441500Y-74636233D01*
X134421815Y-74703272D01*
X134405181Y-74723914D01*
X130798915Y-78330181D01*
X130737592Y-78363666D01*
X130711234Y-78366500D01*
X120215182Y-78366500D01*
X120148143Y-78346815D01*
X120102388Y-78294011D01*
X120092444Y-78224853D01*
X120109065Y-78178350D01*
X120123290Y-78154819D01*
X120175827Y-78067913D01*
X120227013Y-77903649D01*
X120233500Y-77832265D01*
X120233499Y-77167736D01*
X120233499Y-77167727D01*
X120227014Y-77096354D01*
X120227011Y-77096344D01*
X120175828Y-76932090D01*
X120175827Y-76932089D01*
X120175827Y-76932087D01*
X120086816Y-76784845D01*
X120086814Y-76784843D01*
X120086813Y-76784841D01*
X119965158Y-76663186D01*
X119948614Y-76653185D01*
X119817913Y-76574173D01*
X119653649Y-76522987D01*
X119653647Y-76522986D01*
X119653645Y-76522986D01*
X119603667Y-76518444D01*
X119582265Y-76516500D01*
X119582262Y-76516500D01*
X119288766Y-76516500D01*
X119221727Y-76496815D01*
X119201085Y-76480181D01*
X117228836Y-74507931D01*
X117228832Y-74507928D01*
X117125081Y-74438603D01*
X117125072Y-74438598D01*
X117009785Y-74390845D01*
X117009777Y-74390843D01*
X116887398Y-74366500D01*
X116887394Y-74366500D01*
X105202675Y-74366500D01*
X105135636Y-74346815D01*
X105114993Y-74330180D01*
X105079138Y-74294324D01*
X105079134Y-74294321D01*
X104930342Y-74194901D01*
X104930332Y-74194896D01*
X104765000Y-74126413D01*
X104764992Y-74126411D01*
X104589483Y-74091500D01*
X104589479Y-74091500D01*
X104410521Y-74091500D01*
X104410516Y-74091500D01*
X104235007Y-74126411D01*
X104234999Y-74126413D01*
X104069667Y-74194896D01*
X104069657Y-74194901D01*
X103920865Y-74294321D01*
X103920861Y-74294324D01*
X103794324Y-74420861D01*
X103794321Y-74420865D01*
X103694901Y-74569657D01*
X103694896Y-74569667D01*
X103626413Y-74734999D01*
X103626411Y-74735007D01*
X103591500Y-74910516D01*
X103591500Y-75089483D01*
X103617125Y-75218309D01*
X103610898Y-75287901D01*
X103568034Y-75343078D01*
X103502145Y-75366322D01*
X103495508Y-75366500D01*
X103004492Y-75366500D01*
X102937453Y-75346815D01*
X102891698Y-75294011D01*
X102881754Y-75224853D01*
X102882875Y-75218309D01*
X102908499Y-75089483D01*
X102908500Y-75089480D01*
X102908500Y-74910520D01*
X102908499Y-74910516D01*
X102895503Y-74845181D01*
X102873587Y-74735000D01*
X102805102Y-74569664D01*
X102805100Y-74569661D01*
X102805098Y-74569657D01*
X102705678Y-74420865D01*
X102705675Y-74420861D01*
X102579138Y-74294324D01*
X102579134Y-74294321D01*
X102430342Y-74194901D01*
X102430332Y-74194896D01*
X102265000Y-74126413D01*
X102264992Y-74126411D01*
X102089483Y-74091500D01*
X102089479Y-74091500D01*
X102038767Y-74091500D01*
X101971728Y-74071815D01*
X101951086Y-74055181D01*
X101403836Y-73507931D01*
X101403832Y-73507928D01*
X101300081Y-73438603D01*
X101300072Y-73438598D01*
X101184785Y-73390845D01*
X101184777Y-73390843D01*
X101062398Y-73366500D01*
X101062394Y-73366500D01*
X91138768Y-73366500D01*
X91071729Y-73346815D01*
X91051087Y-73330181D01*
X90267850Y-72546944D01*
X90234365Y-72485621D01*
X90239349Y-72415929D01*
X90281221Y-72359996D01*
X90346685Y-72335579D01*
X90355531Y-72335263D01*
X92307017Y-72335263D01*
X92372113Y-72353724D01*
X92409785Y-72376961D01*
X92437892Y-72394298D01*
X92437899Y-72394302D01*
X92600664Y-72448236D01*
X92701128Y-72458500D01*
X92701133Y-72458500D01*
X93298867Y-72458500D01*
X93298872Y-72458500D01*
X93399336Y-72448236D01*
X93562101Y-72394302D01*
X93579236Y-72383733D01*
X93590216Y-72376961D01*
X93655312Y-72358500D01*
X96337395Y-72358500D01*
X96337396Y-72358499D01*
X96459785Y-72334155D01*
X96575075Y-72286400D01*
X96678833Y-72217071D01*
X96726084Y-72169820D01*
X96787407Y-72136334D01*
X96813766Y-72133500D01*
X99062395Y-72133500D01*
X99062396Y-72133499D01*
X99184785Y-72109155D01*
X99300075Y-72061400D01*
X99403833Y-71992071D01*
X106317072Y-65078833D01*
X106386401Y-64975075D01*
X106414168Y-64908038D01*
X106429708Y-64870521D01*
X106429720Y-64870488D01*
X106429746Y-64870428D01*
X106434155Y-64859785D01*
X106458500Y-64737394D01*
X106458500Y-63894833D01*
X106478185Y-63827794D01*
X106494819Y-63807152D01*
X106539567Y-63762404D01*
X106586816Y-63715155D01*
X106599998Y-63693350D01*
X106651526Y-63646163D01*
X106706115Y-63633500D01*
X107995508Y-63633500D01*
X108015721Y-63639435D01*
G37*
%TD.AperFunction*%
%TA.AperFunction,Conductor*%
G36*
X88450627Y-76474222D02*
G01*
X88500617Y-76523036D01*
X88516500Y-76583754D01*
X88516500Y-77712395D01*
X88520770Y-77733865D01*
X88514541Y-77803456D01*
X88471676Y-77858633D01*
X88405786Y-77881875D01*
X88337789Y-77865806D01*
X88311471Y-77845734D01*
X87783853Y-77318116D01*
X87750368Y-77256793D01*
X87755352Y-77187101D01*
X87760050Y-77176691D01*
X87761397Y-77173437D01*
X87761400Y-77173434D01*
X87809155Y-77058144D01*
X87833500Y-76935753D01*
X87833500Y-76810965D01*
X87833500Y-76732499D01*
X87853185Y-76665460D01*
X87905989Y-76619705D01*
X87957500Y-76608499D01*
X87989886Y-76608499D01*
X88088864Y-76595468D01*
X88108850Y-76592838D01*
X88229534Y-76542849D01*
X88256874Y-76531525D01*
X88256877Y-76531523D01*
X88262428Y-76527264D01*
X88283063Y-76511430D01*
X88317013Y-76485379D01*
X88382182Y-76460184D01*
X88450627Y-76474222D01*
G37*
%TD.AperFunction*%
%TA.AperFunction,Conductor*%
G36*
X100753273Y-74653185D02*
G01*
X100773915Y-74669819D01*
X101055181Y-74951085D01*
X101065970Y-74970844D01*
X101080611Y-74987953D01*
X101084033Y-75003924D01*
X101088666Y-75012408D01*
X101090345Y-75021878D01*
X101091500Y-75030279D01*
X101091500Y-75089479D01*
X101117848Y-75221944D01*
X101118353Y-75225612D01*
X101113694Y-75256650D01*
X101110898Y-75287901D01*
X101108550Y-75290923D01*
X101107982Y-75294708D01*
X101087284Y-75318297D01*
X101068034Y-75343078D01*
X101064425Y-75344351D01*
X101061901Y-75347228D01*
X101031734Y-75355883D01*
X101002145Y-75366322D01*
X100995508Y-75366500D01*
X96937601Y-75366500D01*
X96815222Y-75390843D01*
X96815214Y-75390845D01*
X96699927Y-75438598D01*
X96699918Y-75438603D01*
X96596167Y-75507928D01*
X96596163Y-75507931D01*
X94273915Y-77830181D01*
X94212592Y-77863666D01*
X94186234Y-77866500D01*
X92032500Y-77866500D01*
X92023814Y-77863949D01*
X92014854Y-77865238D01*
X91990815Y-77854259D01*
X91965461Y-77846815D01*
X91959533Y-77839973D01*
X91951298Y-77836213D01*
X91937010Y-77813980D01*
X91919706Y-77794011D01*
X91917418Y-77783496D01*
X91913523Y-77777435D01*
X91908500Y-77742501D01*
X91908499Y-77538766D01*
X91928183Y-77471726D01*
X91944813Y-77451089D01*
X92938128Y-76457774D01*
X92988923Y-76427069D01*
X92992913Y-76425827D01*
X93140155Y-76336816D01*
X93187660Y-76289311D01*
X93237319Y-76239653D01*
X93298642Y-76206168D01*
X93368334Y-76211152D01*
X93412681Y-76239653D01*
X93509841Y-76336813D01*
X93509843Y-76336814D01*
X93509845Y-76336816D01*
X93657087Y-76425827D01*
X93821351Y-76477013D01*
X93892735Y-76483500D01*
X94407264Y-76483499D01*
X94407272Y-76483499D01*
X94478645Y-76477014D01*
X94478648Y-76477013D01*
X94478649Y-76477013D01*
X94642913Y-76425827D01*
X94790155Y-76336816D01*
X94911816Y-76215155D01*
X95000827Y-76067913D01*
X95052013Y-75903649D01*
X95058500Y-75832265D01*
X95058499Y-75167736D01*
X95058499Y-75167735D01*
X95058499Y-75167727D01*
X95052014Y-75096354D01*
X95052011Y-75096344D01*
X95000828Y-74932089D01*
X94934065Y-74821650D01*
X94916229Y-74754095D01*
X94937747Y-74687622D01*
X94991787Y-74643334D01*
X95040182Y-74633500D01*
X100686234Y-74633500D01*
X100753273Y-74653185D01*
G37*
%TD.AperFunction*%
%TA.AperFunction,Conductor*%
G36*
X141703273Y-63653185D02*
G01*
X141723915Y-63669819D01*
X148180181Y-70126085D01*
X148213666Y-70187408D01*
X148216500Y-70213766D01*
X148216500Y-70566000D01*
X148196815Y-70633039D01*
X148148796Y-70676484D01*
X148111787Y-70695341D01*
X148039923Y-70747554D01*
X147932424Y-70825657D01*
X147932422Y-70825659D01*
X147932421Y-70825659D01*
X147775659Y-70982421D01*
X147775659Y-70982422D01*
X147775657Y-70982424D01*
X147743765Y-71026320D01*
X147645343Y-71161784D01*
X147544693Y-71359319D01*
X147476182Y-71570175D01*
X147441500Y-71789149D01*
X147441500Y-72010850D01*
X147476182Y-72229824D01*
X147485250Y-72257733D01*
X147487245Y-72327575D01*
X147451165Y-72387408D01*
X147388464Y-72418236D01*
X147319050Y-72410272D01*
X147279638Y-72383733D01*
X146303836Y-71407931D01*
X146303832Y-71407928D01*
X146200081Y-71338603D01*
X146200072Y-71338598D01*
X146084785Y-71290845D01*
X146084777Y-71290843D01*
X145962398Y-71266500D01*
X145962394Y-71266500D01*
X145183999Y-71266500D01*
X145116960Y-71246815D01*
X145073514Y-71198794D01*
X145054658Y-71161786D01*
X145024102Y-71119730D01*
X144924343Y-70982424D01*
X144767576Y-70825657D01*
X144588215Y-70695343D01*
X144551202Y-70676484D01*
X144390680Y-70594693D01*
X144179824Y-70526181D01*
X144032194Y-70502799D01*
X143969059Y-70472870D01*
X143963911Y-70468007D01*
X141228836Y-67732931D01*
X141228832Y-67732928D01*
X141125081Y-67663603D01*
X141125072Y-67663598D01*
X141009785Y-67615845D01*
X141009777Y-67615843D01*
X140887398Y-67591500D01*
X140887394Y-67591500D01*
X121437606Y-67591500D01*
X121437601Y-67591500D01*
X121315222Y-67615843D01*
X121315210Y-67615846D01*
X121286304Y-67627820D01*
X121199932Y-67663595D01*
X121199919Y-67663602D01*
X121096168Y-67732926D01*
X121066420Y-67762675D01*
X120998912Y-67830182D01*
X120937592Y-67863666D01*
X120911233Y-67866500D01*
X116428489Y-67866500D01*
X116361450Y-67846815D01*
X116331223Y-67819411D01*
X116329284Y-67816959D01*
X116208040Y-67695715D01*
X116208036Y-67695712D01*
X116062109Y-67605702D01*
X116062103Y-67605699D01*
X116062101Y-67605698D01*
X116019253Y-67591500D01*
X115899336Y-67551764D01*
X115798879Y-67541500D01*
X115798872Y-67541500D01*
X115201128Y-67541500D01*
X115201120Y-67541500D01*
X115100663Y-67551764D01*
X114937901Y-67605697D01*
X114937890Y-67605702D01*
X114791963Y-67695712D01*
X114791959Y-67695715D01*
X114670715Y-67816959D01*
X114668777Y-67819411D01*
X114667019Y-67820655D01*
X114665608Y-67822067D01*
X114665366Y-67821825D01*
X114611755Y-67859788D01*
X114571511Y-67866500D01*
X113626266Y-67866500D01*
X113559227Y-67846815D01*
X113538585Y-67830181D01*
X113294819Y-67586415D01*
X113261334Y-67525092D01*
X113258500Y-67498734D01*
X113258500Y-67058504D01*
X113258500Y-67058498D01*
X113255562Y-67021169D01*
X113251715Y-67007929D01*
X113209146Y-66861403D01*
X113209144Y-66861397D01*
X113185029Y-66820621D01*
X113167846Y-66752897D01*
X113190006Y-66686634D01*
X113244472Y-66642871D01*
X113291761Y-66633500D01*
X114080532Y-66633500D01*
X114147571Y-66653185D01*
X114186069Y-66692402D01*
X114195713Y-66708036D01*
X114195716Y-66708041D01*
X114316959Y-66829284D01*
X114316963Y-66829287D01*
X114462890Y-66919297D01*
X114462893Y-66919298D01*
X114462899Y-66919302D01*
X114625664Y-66973236D01*
X114726128Y-66983500D01*
X114726133Y-66983500D01*
X115273867Y-66983500D01*
X115273872Y-66983500D01*
X115374336Y-66973236D01*
X115537101Y-66919302D01*
X115683040Y-66829285D01*
X115804285Y-66708040D01*
X115894302Y-66562101D01*
X115948236Y-66399336D01*
X115958500Y-66298872D01*
X115958500Y-65701128D01*
X115948236Y-65600664D01*
X115894302Y-65437899D01*
X115894298Y-65437893D01*
X115894297Y-65437890D01*
X115804287Y-65291963D01*
X115804284Y-65291959D01*
X115683040Y-65170715D01*
X115683036Y-65170712D01*
X115537109Y-65080702D01*
X115537103Y-65080699D01*
X115537101Y-65080698D01*
X115374336Y-65026764D01*
X115273879Y-65016500D01*
X115273872Y-65016500D01*
X114726128Y-65016500D01*
X114726120Y-65016500D01*
X114625663Y-65026764D01*
X114462901Y-65080697D01*
X114462890Y-65080702D01*
X114316963Y-65170712D01*
X114316959Y-65170715D01*
X114195716Y-65291958D01*
X114195715Y-65291960D01*
X114186070Y-65307596D01*
X114134125Y-65354321D01*
X114080532Y-65366500D01*
X113401266Y-65366500D01*
X113371825Y-65357855D01*
X113341839Y-65351332D01*
X113336823Y-65347577D01*
X113334227Y-65346815D01*
X113313585Y-65330181D01*
X113294819Y-65311415D01*
X113261334Y-65250092D01*
X113258500Y-65223734D01*
X113258500Y-64783504D01*
X113258500Y-64783498D01*
X113255562Y-64746169D01*
X113254214Y-64741530D01*
X113209146Y-64586403D01*
X113209145Y-64586399D01*
X113136974Y-64464365D01*
X113124455Y-64443196D01*
X113124448Y-64443187D01*
X113006812Y-64325551D01*
X113006803Y-64325544D01*
X112863601Y-64240855D01*
X112863596Y-64240853D01*
X112703835Y-64194438D01*
X112703829Y-64194437D01*
X112666507Y-64191500D01*
X112666502Y-64191500D01*
X112233498Y-64191500D01*
X112231305Y-64191586D01*
X112163546Y-64174543D01*
X112138766Y-64155362D01*
X111828585Y-63845181D01*
X111795100Y-63783858D01*
X111800084Y-63714166D01*
X111841956Y-63658233D01*
X111907420Y-63633816D01*
X111916266Y-63633500D01*
X141636234Y-63633500D01*
X141703273Y-63653185D01*
G37*
%TD.AperFunction*%
%TA.AperFunction,Conductor*%
G36*
X103360924Y-63653185D02*
G01*
X103400002Y-63693350D01*
X103413181Y-63715151D01*
X103413182Y-63715152D01*
X103413184Y-63715155D01*
X103534845Y-63836816D01*
X103682087Y-63925827D01*
X103846351Y-63977013D01*
X103917735Y-63983500D01*
X104432264Y-63983499D01*
X104432272Y-63983499D01*
X104503645Y-63977014D01*
X104503648Y-63977013D01*
X104503649Y-63977013D01*
X104667913Y-63925827D01*
X104815155Y-63836816D01*
X104912320Y-63739650D01*
X104920265Y-63735312D01*
X104925690Y-63728066D01*
X104950446Y-63718832D01*
X104973641Y-63706167D01*
X104982671Y-63706812D01*
X104991154Y-63703649D01*
X105016974Y-63709265D01*
X105043333Y-63711151D01*
X105052386Y-63716969D01*
X105059427Y-63718501D01*
X105087681Y-63739652D01*
X105155181Y-63807152D01*
X105188666Y-63868475D01*
X105191500Y-63894833D01*
X105191500Y-64361233D01*
X105171815Y-64428272D01*
X105155181Y-64448914D01*
X98773915Y-70830181D01*
X98712592Y-70863666D01*
X98686234Y-70866500D01*
X96437601Y-70866500D01*
X96315222Y-70890843D01*
X96315214Y-70890845D01*
X96199927Y-70938598D01*
X96199918Y-70938603D01*
X96096167Y-71007928D01*
X96096163Y-71007931D01*
X96048916Y-71055180D01*
X95987593Y-71088666D01*
X95961234Y-71091500D01*
X95362301Y-71091500D01*
X95295262Y-71071815D01*
X95249507Y-71019011D01*
X95239563Y-70949853D01*
X95268588Y-70886297D01*
X95314848Y-70852939D01*
X95369790Y-70830181D01*
X95430336Y-70805102D01*
X95579135Y-70705678D01*
X95705678Y-70579135D01*
X95805102Y-70430336D01*
X95873587Y-70265000D01*
X95908500Y-70089479D01*
X95908500Y-69910521D01*
X95873587Y-69735000D01*
X95805102Y-69569664D01*
X95805100Y-69569661D01*
X95805098Y-69569657D01*
X95705678Y-69420865D01*
X95705675Y-69420861D01*
X95579138Y-69294324D01*
X95579134Y-69294321D01*
X95430342Y-69194901D01*
X95430332Y-69194896D01*
X95265000Y-69126413D01*
X95264992Y-69126411D01*
X95089483Y-69091500D01*
X95089479Y-69091500D01*
X94910521Y-69091500D01*
X94910516Y-69091500D01*
X94735007Y-69126411D01*
X94734999Y-69126413D01*
X94569667Y-69194896D01*
X94569657Y-69194901D01*
X94420865Y-69294321D01*
X94393225Y-69321961D01*
X94331901Y-69355445D01*
X94262210Y-69350459D01*
X94217864Y-69321959D01*
X92284003Y-67388098D01*
X92283999Y-67388095D01*
X92180248Y-67318770D01*
X92180239Y-67318765D01*
X92064952Y-67271012D01*
X92064944Y-67271010D01*
X91942565Y-67246667D01*
X91942561Y-67246667D01*
X90512394Y-67246667D01*
X90387606Y-67246667D01*
X90387601Y-67246667D01*
X90265222Y-67271010D01*
X90265214Y-67271012D01*
X90149927Y-67318765D01*
X90149918Y-67318770D01*
X90046167Y-67388095D01*
X89951863Y-67482399D01*
X89890539Y-67515883D01*
X89820848Y-67510899D01*
X89764915Y-67469027D01*
X89745488Y-67430601D01*
X89509940Y-66651483D01*
X89250514Y-65793383D01*
X89249957Y-65723517D01*
X89287260Y-65664439D01*
X89350582Y-65634907D01*
X89369209Y-65633500D01*
X90293885Y-65633500D01*
X90360924Y-65653185D01*
X90400002Y-65693350D01*
X90413181Y-65715151D01*
X90413182Y-65715152D01*
X90413184Y-65715155D01*
X90534845Y-65836816D01*
X90682087Y-65925827D01*
X90846351Y-65977013D01*
X90917735Y-65983500D01*
X91432264Y-65983499D01*
X91432272Y-65983499D01*
X91503645Y-65977014D01*
X91503648Y-65977013D01*
X91503649Y-65977013D01*
X91667913Y-65925827D01*
X91815155Y-65836816D01*
X91858587Y-65793384D01*
X91912319Y-65739653D01*
X91973642Y-65706168D01*
X92043334Y-65711152D01*
X92087681Y-65739653D01*
X92184841Y-65836813D01*
X92184843Y-65836814D01*
X92184845Y-65836816D01*
X92332087Y-65925827D01*
X92496351Y-65977013D01*
X92567735Y-65983500D01*
X93082264Y-65983499D01*
X93082272Y-65983499D01*
X93153645Y-65977014D01*
X93153648Y-65977013D01*
X93153649Y-65977013D01*
X93317913Y-65925827D01*
X93465155Y-65836816D01*
X93586816Y-65715155D01*
X93595296Y-65701128D01*
X93599998Y-65693350D01*
X93651526Y-65646163D01*
X93706115Y-65633500D01*
X95287395Y-65633500D01*
X95287396Y-65633499D01*
X95409785Y-65609155D01*
X95525075Y-65561400D01*
X95628833Y-65492071D01*
X95901085Y-65219819D01*
X95962408Y-65186334D01*
X95988766Y-65183500D01*
X96298867Y-65183500D01*
X96298872Y-65183500D01*
X96399336Y-65173236D01*
X96562101Y-65119302D01*
X96708040Y-65029285D01*
X96829285Y-64908040D01*
X96846581Y-64880000D01*
X96854351Y-64867403D01*
X96906299Y-64820678D01*
X96959889Y-64808500D01*
X97605167Y-64808500D01*
X97672206Y-64828185D01*
X97692843Y-64844814D01*
X97784845Y-64936816D01*
X97932087Y-65025827D01*
X98096351Y-65077013D01*
X98167735Y-65083500D01*
X98832264Y-65083499D01*
X98832272Y-65083499D01*
X98903645Y-65077014D01*
X98903648Y-65077013D01*
X98903649Y-65077013D01*
X99067913Y-65025827D01*
X99215155Y-64936816D01*
X99307153Y-64844817D01*
X99368474Y-64811334D01*
X99394833Y-64808500D01*
X101562395Y-64808500D01*
X101562396Y-64808499D01*
X101684785Y-64784155D01*
X101800075Y-64736400D01*
X101903833Y-64667071D01*
X102901085Y-63669819D01*
X102962408Y-63636334D01*
X102988766Y-63633500D01*
X103293885Y-63633500D01*
X103360924Y-63653185D01*
G37*
%TD.AperFunction*%
%TA.AperFunction,Conductor*%
G36*
X81720771Y-58153185D02*
G01*
X81766526Y-58205989D01*
X81776470Y-58275147D01*
X81752999Y-58331809D01*
X81733529Y-58357819D01*
X81699111Y-58403795D01*
X81648011Y-58540795D01*
X81648011Y-58540797D01*
X81641500Y-58601345D01*
X81641500Y-59911234D01*
X81632855Y-59940674D01*
X81626332Y-59970661D01*
X81622577Y-59975676D01*
X81621815Y-59978273D01*
X81605181Y-59998915D01*
X81496167Y-60107929D01*
X81473735Y-60130361D01*
X81407927Y-60196168D01*
X81338603Y-60299918D01*
X81338598Y-60299927D01*
X81290845Y-60415214D01*
X81290843Y-60415222D01*
X81266500Y-60537601D01*
X81266500Y-62846510D01*
X81246815Y-62913549D01*
X81219419Y-62943770D01*
X81216961Y-62945713D01*
X81095715Y-63066959D01*
X81095712Y-63066963D01*
X81005702Y-63212890D01*
X81005697Y-63212901D01*
X80951764Y-63375663D01*
X80941500Y-63476120D01*
X80941500Y-64073879D01*
X80951764Y-64174336D01*
X81005697Y-64337098D01*
X81005702Y-64337109D01*
X81095712Y-64483036D01*
X81095715Y-64483040D01*
X81216959Y-64604284D01*
X81219411Y-64606223D01*
X81220655Y-64607980D01*
X81221398Y-64608723D01*
X81223703Y-64609776D01*
X81241145Y-64636917D01*
X81259788Y-64663245D01*
X81260391Y-64666865D01*
X81261477Y-64668554D01*
X81266500Y-64703489D01*
X81266500Y-64833998D01*
X81246815Y-64901037D01*
X81214728Y-64932257D01*
X81215748Y-64933559D01*
X81209841Y-64938186D01*
X81088186Y-65059841D01*
X80999173Y-65207086D01*
X80947986Y-65371354D01*
X80944185Y-65413184D01*
X80941940Y-65437899D01*
X80941500Y-65442737D01*
X80941500Y-66107272D01*
X80947986Y-66178646D01*
X80967846Y-66242382D01*
X80968084Y-66256859D01*
X80973144Y-66270424D01*
X80968647Y-66291093D01*
X80968996Y-66312242D01*
X80961096Y-66325809D01*
X80958293Y-66338697D01*
X80937142Y-66366951D01*
X80821167Y-66482928D01*
X80821166Y-66482929D01*
X80732931Y-66571163D01*
X80732928Y-66571167D01*
X80663603Y-66674918D01*
X80663598Y-66674927D01*
X80615845Y-66790214D01*
X80615843Y-66790222D01*
X80591500Y-66912601D01*
X80591500Y-67571510D01*
X80571815Y-67638549D01*
X80544419Y-67668770D01*
X80541961Y-67670713D01*
X80420715Y-67791959D01*
X80420712Y-67791963D01*
X80330702Y-67937890D01*
X80330697Y-67937901D01*
X80276764Y-68100663D01*
X80266500Y-68201120D01*
X80266500Y-68798879D01*
X80276764Y-68899336D01*
X80330697Y-69062098D01*
X80330702Y-69062109D01*
X80401817Y-69177403D01*
X80420258Y-69244795D01*
X80399336Y-69311459D01*
X80345694Y-69356228D01*
X80296279Y-69366500D01*
X78588766Y-69366500D01*
X78521727Y-69346815D01*
X78501085Y-69330181D01*
X77769819Y-68598915D01*
X77736334Y-68537592D01*
X77733500Y-68511234D01*
X77733500Y-68201133D01*
X77733499Y-68201120D01*
X77723236Y-68100664D01*
X77669302Y-67937899D01*
X77669298Y-67937893D01*
X77669297Y-67937890D01*
X77579287Y-67791963D01*
X77579284Y-67791959D01*
X77458040Y-67670715D01*
X77458036Y-67670712D01*
X77312109Y-67580702D01*
X77312103Y-67580699D01*
X77312101Y-67580698D01*
X77149336Y-67526764D01*
X77145734Y-67526396D01*
X77048879Y-67516500D01*
X77048872Y-67516500D01*
X76501128Y-67516500D01*
X76501120Y-67516500D01*
X76400663Y-67526764D01*
X76237901Y-67580697D01*
X76237890Y-67580702D01*
X76091963Y-67670712D01*
X76091959Y-67670715D01*
X76087681Y-67674994D01*
X76082536Y-67677803D01*
X76079266Y-67682670D01*
X76052213Y-67694360D01*
X76026358Y-67708479D01*
X76020511Y-67708060D01*
X76015129Y-67710387D01*
X75986056Y-67705596D01*
X75956666Y-67703495D01*
X75950472Y-67699733D01*
X75946189Y-67699028D01*
X75927664Y-67685882D01*
X75916895Y-67679343D01*
X75914554Y-67677229D01*
X75908040Y-67670715D01*
X75905832Y-67669353D01*
X75899395Y-67663540D01*
X75883150Y-67637087D01*
X75865209Y-67611745D01*
X75864322Y-67606426D01*
X75862832Y-67604000D01*
X75862950Y-67598202D01*
X75858500Y-67571510D01*
X75858500Y-67162605D01*
X75858499Y-67162601D01*
X75846148Y-67100509D01*
X75834155Y-67040215D01*
X75791998Y-66938439D01*
X75786401Y-66924927D01*
X75786395Y-66924917D01*
X75758291Y-66882857D01*
X75737412Y-66816180D01*
X75750000Y-66770292D01*
X75750000Y-66749999D01*
X76250000Y-66749999D01*
X76256581Y-66749999D01*
X76327102Y-66743591D01*
X76327107Y-66743590D01*
X76489396Y-66693018D01*
X76634877Y-66605072D01*
X76755072Y-66484877D01*
X76843019Y-66339395D01*
X76893590Y-66177106D01*
X76900000Y-66106572D01*
X76900000Y-66025000D01*
X76250000Y-66025000D01*
X76250000Y-66749999D01*
X75750000Y-66749999D01*
X75750000Y-64880000D01*
X75736319Y-64866319D01*
X75702834Y-64804996D01*
X75700000Y-64778638D01*
X75700000Y-64670000D01*
X76200000Y-64670000D01*
X76213681Y-64683681D01*
X76247166Y-64745004D01*
X76250000Y-64771362D01*
X76250000Y-65525000D01*
X76899999Y-65525000D01*
X76899999Y-65443417D01*
X76893591Y-65372897D01*
X76893590Y-65372892D01*
X76843018Y-65210603D01*
X76755072Y-65065122D01*
X76634877Y-64944927D01*
X76520639Y-64875868D01*
X76473452Y-64824340D01*
X76461613Y-64755481D01*
X76488882Y-64691152D01*
X76519692Y-64664212D01*
X76627733Y-64597571D01*
X76747572Y-64477732D01*
X76747575Y-64477728D01*
X76836542Y-64333492D01*
X76836547Y-64333481D01*
X76889855Y-64172606D01*
X76899999Y-64073322D01*
X76900000Y-64073309D01*
X76900000Y-64025000D01*
X76200000Y-64025000D01*
X76200000Y-64670000D01*
X75700000Y-64670000D01*
X75700000Y-63525000D01*
X76200000Y-63525000D01*
X76899999Y-63525000D01*
X76899999Y-63476692D01*
X76899998Y-63476677D01*
X76889855Y-63377392D01*
X76836547Y-63216518D01*
X76836542Y-63216507D01*
X76747575Y-63072271D01*
X76747572Y-63072267D01*
X76627732Y-62952427D01*
X76627728Y-62952424D01*
X76483492Y-62863457D01*
X76483481Y-62863452D01*
X76322606Y-62810144D01*
X76223322Y-62800000D01*
X76200000Y-62800000D01*
X76200000Y-63525000D01*
X75700000Y-63525000D01*
X75700000Y-62799999D01*
X75676693Y-62800000D01*
X75676674Y-62800001D01*
X75577392Y-62810144D01*
X75416518Y-62863452D01*
X75416507Y-62863457D01*
X75272271Y-62952424D01*
X75272267Y-62952427D01*
X75268691Y-62956004D01*
X75262801Y-62959219D01*
X75258983Y-62964740D01*
X75232521Y-62975754D01*
X75207368Y-62989489D01*
X75200673Y-62989010D01*
X75194478Y-62991589D01*
X75166265Y-62986549D01*
X75137676Y-62984505D01*
X75130683Y-62980193D01*
X75125697Y-62979303D01*
X75104556Y-62964085D01*
X75096671Y-62959224D01*
X75094980Y-62957655D01*
X75083040Y-62945715D01*
X75080268Y-62944005D01*
X75073161Y-62937411D01*
X75057685Y-62911430D01*
X75040209Y-62886745D01*
X75039131Y-62880280D01*
X75037405Y-62877383D01*
X75037615Y-62871190D01*
X75033500Y-62846510D01*
X75033500Y-61377605D01*
X75033499Y-61377601D01*
X75009155Y-61255215D01*
X74961400Y-61139925D01*
X74961399Y-61139924D01*
X74961396Y-61139918D01*
X74896564Y-61042891D01*
X74875686Y-60976214D01*
X74894170Y-60908834D01*
X74946149Y-60862143D01*
X74999666Y-60850000D01*
X75106246Y-60850000D01*
X75316127Y-60816757D01*
X75316130Y-60816757D01*
X75518217Y-60751095D01*
X75707554Y-60654622D01*
X75761716Y-60615270D01*
X75761717Y-60615270D01*
X75129408Y-59982962D01*
X75192993Y-59965925D01*
X75307007Y-59900099D01*
X75400099Y-59807007D01*
X75465925Y-59692993D01*
X75482962Y-59629408D01*
X76115270Y-60261717D01*
X76115270Y-60261716D01*
X76154622Y-60207554D01*
X76159514Y-60197954D01*
X76207488Y-60147157D01*
X76275308Y-60130361D01*
X76341444Y-60152897D01*
X76380486Y-60197954D01*
X76385375Y-60207550D01*
X76424728Y-60261716D01*
X77057037Y-59629408D01*
X77074075Y-59692993D01*
X77139901Y-59807007D01*
X77232993Y-59900099D01*
X77347007Y-59965925D01*
X77410590Y-59982962D01*
X76778282Y-60615269D01*
X76778282Y-60615270D01*
X76832449Y-60654624D01*
X77021782Y-60751095D01*
X77223870Y-60816757D01*
X77433754Y-60850000D01*
X77646246Y-60850000D01*
X77856127Y-60816757D01*
X77856130Y-60816757D01*
X78058217Y-60751095D01*
X78247554Y-60654622D01*
X78301716Y-60615270D01*
X78301717Y-60615270D01*
X77669408Y-59982962D01*
X77732993Y-59965925D01*
X77847007Y-59900099D01*
X77940099Y-59807007D01*
X78005925Y-59692993D01*
X78022962Y-59629408D01*
X78655270Y-60261717D01*
X78655270Y-60261716D01*
X78694622Y-60207554D01*
X78791095Y-60018217D01*
X78856757Y-59816130D01*
X78856757Y-59816127D01*
X78890000Y-59606246D01*
X78890000Y-59393753D01*
X78856757Y-59183872D01*
X78856757Y-59183869D01*
X78791095Y-58981782D01*
X78694624Y-58792449D01*
X78655270Y-58738282D01*
X78655269Y-58738282D01*
X78022962Y-59370590D01*
X78005925Y-59307007D01*
X77940099Y-59192993D01*
X77847007Y-59099901D01*
X77732993Y-59034075D01*
X77669409Y-59017037D01*
X78301716Y-58384728D01*
X78264678Y-58357819D01*
X78222012Y-58302489D01*
X78216033Y-58232876D01*
X78248638Y-58171080D01*
X78309477Y-58136723D01*
X78337563Y-58133500D01*
X81653732Y-58133500D01*
X81720771Y-58153185D01*
G37*
%TD.AperFunction*%
%TA.AperFunction,Conductor*%
G36*
X104253273Y-58153185D02*
G01*
X104273915Y-58169819D01*
X108055181Y-61951085D01*
X108065970Y-61970844D01*
X108080611Y-61987953D01*
X108084033Y-62003924D01*
X108088666Y-62012408D01*
X108090345Y-62021878D01*
X108091500Y-62030279D01*
X108091500Y-62089479D01*
X108117848Y-62221944D01*
X108118353Y-62225612D01*
X108113694Y-62256650D01*
X108110898Y-62287901D01*
X108108550Y-62290923D01*
X108107982Y-62294708D01*
X108087284Y-62318297D01*
X108068034Y-62343078D01*
X108064425Y-62344351D01*
X108061901Y-62347228D01*
X108031734Y-62355883D01*
X108002145Y-62366322D01*
X107995508Y-62366500D01*
X106706115Y-62366500D01*
X106639076Y-62346815D01*
X106599998Y-62306650D01*
X106586818Y-62284848D01*
X106586817Y-62284847D01*
X106586816Y-62284845D01*
X106465155Y-62163184D01*
X106317913Y-62074173D01*
X106153649Y-62022987D01*
X106153647Y-62022986D01*
X106153645Y-62022986D01*
X106103667Y-62018444D01*
X106082265Y-62016500D01*
X106082262Y-62016500D01*
X105567727Y-62016500D01*
X105496354Y-62022985D01*
X105496344Y-62022988D01*
X105332090Y-62074171D01*
X105184841Y-62163186D01*
X105184840Y-62163187D01*
X105087681Y-62260347D01*
X105026358Y-62293832D01*
X104956666Y-62288848D01*
X104912319Y-62260347D01*
X104815158Y-62163186D01*
X104667913Y-62074173D01*
X104588316Y-62049370D01*
X104503649Y-62022987D01*
X104503647Y-62022986D01*
X104503645Y-62022986D01*
X104453667Y-62018444D01*
X104432265Y-62016500D01*
X104432262Y-62016500D01*
X103917727Y-62016500D01*
X103846354Y-62022985D01*
X103846344Y-62022988D01*
X103682090Y-62074171D01*
X103534843Y-62163185D01*
X103413181Y-62284848D01*
X103400002Y-62306650D01*
X103348474Y-62353837D01*
X103293885Y-62366500D01*
X102612601Y-62366500D01*
X102490222Y-62390843D01*
X102490214Y-62390845D01*
X102374927Y-62438598D01*
X102374918Y-62438603D01*
X102271167Y-62507928D01*
X102271163Y-62507931D01*
X101273915Y-63505181D01*
X101212592Y-63538666D01*
X101186234Y-63541500D01*
X99394833Y-63541500D01*
X99327794Y-63521815D01*
X99307156Y-63505185D01*
X99215155Y-63413184D01*
X99067913Y-63324173D01*
X98903649Y-63272987D01*
X98903647Y-63272986D01*
X98903645Y-63272986D01*
X98853667Y-63268444D01*
X98832265Y-63266500D01*
X98832262Y-63266500D01*
X98167727Y-63266500D01*
X98096354Y-63272985D01*
X98096344Y-63272988D01*
X97932090Y-63324171D01*
X97784843Y-63413185D01*
X97760428Y-63437601D01*
X97692846Y-63505182D01*
X97631526Y-63538666D01*
X97605167Y-63541500D01*
X96880187Y-63541500D01*
X96813148Y-63521815D01*
X96792506Y-63505181D01*
X96708040Y-63420715D01*
X96708036Y-63420712D01*
X96562109Y-63330702D01*
X96562103Y-63330699D01*
X96562101Y-63330698D01*
X96542409Y-63324173D01*
X96399336Y-63276764D01*
X96298879Y-63266500D01*
X96298872Y-63266500D01*
X95701128Y-63266500D01*
X95701120Y-63266500D01*
X95600663Y-63276764D01*
X95437901Y-63330697D01*
X95437890Y-63330702D01*
X95291963Y-63420712D01*
X95291959Y-63420715D01*
X95170715Y-63541959D01*
X95170712Y-63541963D01*
X95080702Y-63687890D01*
X95080697Y-63687901D01*
X95026764Y-63850663D01*
X95016500Y-63951120D01*
X95016500Y-64242500D01*
X94996815Y-64309539D01*
X94944011Y-64355294D01*
X94892500Y-64366500D01*
X93706115Y-64366500D01*
X93639076Y-64346815D01*
X93613951Y-64325457D01*
X93606081Y-64316714D01*
X93586816Y-64284845D01*
X93492516Y-64190545D01*
X93490336Y-64188123D01*
X93476576Y-64159438D01*
X93461334Y-64131523D01*
X93460799Y-64126547D01*
X93460117Y-64125126D01*
X93460401Y-64122846D01*
X93458500Y-64105166D01*
X93458500Y-63894833D01*
X93478185Y-63827794D01*
X93494814Y-63807156D01*
X93586816Y-63715155D01*
X93675827Y-63567913D01*
X93727013Y-63403649D01*
X93733500Y-63332265D01*
X93733499Y-62667736D01*
X93733499Y-62667727D01*
X93727014Y-62596354D01*
X93727011Y-62596344D01*
X93675828Y-62432090D01*
X93675827Y-62432089D01*
X93675827Y-62432087D01*
X93586816Y-62284845D01*
X93586814Y-62284843D01*
X93586813Y-62284841D01*
X93465158Y-62163186D01*
X93317913Y-62074173D01*
X93238316Y-62049370D01*
X93153649Y-62022987D01*
X93153647Y-62022986D01*
X93153645Y-62022986D01*
X93103667Y-62018444D01*
X93082265Y-62016500D01*
X93082262Y-62016500D01*
X92567727Y-62016500D01*
X92496354Y-62022985D01*
X92496344Y-62022988D01*
X92332090Y-62074171D01*
X92184841Y-62163186D01*
X92184840Y-62163187D01*
X92087681Y-62260347D01*
X92026358Y-62293832D01*
X91956666Y-62288848D01*
X91912319Y-62260347D01*
X91815158Y-62163186D01*
X91667913Y-62074173D01*
X91588316Y-62049370D01*
X91503649Y-62022987D01*
X91503647Y-62022986D01*
X91503645Y-62022986D01*
X91453667Y-62018444D01*
X91432265Y-62016500D01*
X91432262Y-62016500D01*
X90917727Y-62016500D01*
X90846354Y-62022985D01*
X90846344Y-62022988D01*
X90682090Y-62074171D01*
X90534843Y-62163185D01*
X90413181Y-62284848D01*
X90400002Y-62306650D01*
X90348474Y-62353837D01*
X90293885Y-62366500D01*
X87937601Y-62366500D01*
X87815222Y-62390843D01*
X87815214Y-62390845D01*
X87799537Y-62397339D01*
X87783859Y-62403833D01*
X87699924Y-62438599D01*
X87699921Y-62438600D01*
X87596167Y-62507927D01*
X87596163Y-62507930D01*
X87048915Y-63055181D01*
X86987592Y-63088666D01*
X86961234Y-63091500D01*
X86910516Y-63091500D01*
X86735007Y-63126411D01*
X86734999Y-63126413D01*
X86569667Y-63194896D01*
X86569657Y-63194901D01*
X86420865Y-63294321D01*
X86420861Y-63294324D01*
X86294324Y-63420861D01*
X86294321Y-63420865D01*
X86194901Y-63569657D01*
X86194896Y-63569667D01*
X86126413Y-63734999D01*
X86126411Y-63735007D01*
X86091500Y-63910516D01*
X86091500Y-64089483D01*
X86126411Y-64264992D01*
X86126413Y-64265000D01*
X86194896Y-64430332D01*
X86194901Y-64430342D01*
X86294321Y-64579134D01*
X86294324Y-64579138D01*
X86393741Y-64678555D01*
X86427226Y-64739878D01*
X86422242Y-64809570D01*
X86380370Y-64865503D01*
X86330255Y-64887853D01*
X86315217Y-64890844D01*
X86315213Y-64890845D01*
X86199924Y-64938599D01*
X86199921Y-64938600D01*
X86096167Y-65007927D01*
X86096163Y-65007930D01*
X85666495Y-65437601D01*
X85596167Y-65507929D01*
X85569255Y-65534841D01*
X85507927Y-65596168D01*
X85438603Y-65699918D01*
X85438598Y-65699927D01*
X85390845Y-65815214D01*
X85390843Y-65815222D01*
X85366500Y-65937601D01*
X85366500Y-66186234D01*
X85346815Y-66253273D01*
X85330181Y-66273915D01*
X83779008Y-67825087D01*
X83717685Y-67858572D01*
X83647993Y-67853588D01*
X83592060Y-67811716D01*
X83585790Y-67802505D01*
X83579287Y-67791963D01*
X83579284Y-67791959D01*
X83458040Y-67670715D01*
X83458036Y-67670712D01*
X83312109Y-67580702D01*
X83312103Y-67580699D01*
X83312101Y-67580698D01*
X83149336Y-67526764D01*
X83145734Y-67526396D01*
X83048879Y-67516500D01*
X83048872Y-67516500D01*
X82501128Y-67516500D01*
X82501120Y-67516500D01*
X82400663Y-67526764D01*
X82237901Y-67580697D01*
X82237890Y-67580702D01*
X82091963Y-67670712D01*
X82091959Y-67670715D01*
X82087681Y-67674994D01*
X82082536Y-67677803D01*
X82079266Y-67682670D01*
X82052213Y-67694360D01*
X82026358Y-67708479D01*
X82020511Y-67708060D01*
X82015129Y-67710387D01*
X81986056Y-67705596D01*
X81956666Y-67703495D01*
X81950472Y-67699733D01*
X81946189Y-67699028D01*
X81927664Y-67685882D01*
X81916895Y-67679343D01*
X81914554Y-67677229D01*
X81908040Y-67670715D01*
X81905832Y-67669353D01*
X81899395Y-67663540D01*
X81883150Y-67637087D01*
X81865209Y-67611745D01*
X81864322Y-67606426D01*
X81862832Y-67604000D01*
X81862950Y-67598202D01*
X81858500Y-67571510D01*
X81858500Y-67288766D01*
X81878185Y-67221727D01*
X81894819Y-67201085D01*
X82342066Y-66753838D01*
X82342071Y-66753833D01*
X82385586Y-66688706D01*
X82424534Y-66651484D01*
X82490155Y-66611816D01*
X82593332Y-66508638D01*
X82654651Y-66475156D01*
X82724343Y-66480140D01*
X82768691Y-66508641D01*
X82865122Y-66605072D01*
X83010604Y-66693019D01*
X83010603Y-66693019D01*
X83172894Y-66743590D01*
X83172893Y-66743590D01*
X83243408Y-66749998D01*
X83243426Y-66749999D01*
X83750000Y-66749999D01*
X83756581Y-66749999D01*
X83827102Y-66743591D01*
X83827107Y-66743590D01*
X83989396Y-66693018D01*
X84134877Y-66605072D01*
X84255072Y-66484877D01*
X84343019Y-66339395D01*
X84393590Y-66177106D01*
X84400000Y-66106572D01*
X84400000Y-66025000D01*
X83750000Y-66025000D01*
X83750000Y-66749999D01*
X83243426Y-66749999D01*
X83249999Y-66749998D01*
X83250000Y-66749998D01*
X83250000Y-64880000D01*
X83236319Y-64866319D01*
X83202834Y-64804996D01*
X83200000Y-64778638D01*
X83200000Y-64670000D01*
X83700000Y-64670000D01*
X83713681Y-64683681D01*
X83747166Y-64745004D01*
X83750000Y-64771362D01*
X83750000Y-65525000D01*
X84399999Y-65525000D01*
X84399999Y-65443417D01*
X84393591Y-65372897D01*
X84393590Y-65372892D01*
X84343018Y-65210603D01*
X84255072Y-65065122D01*
X84134877Y-64944927D01*
X84020639Y-64875868D01*
X83973452Y-64824340D01*
X83961613Y-64755481D01*
X83988882Y-64691152D01*
X84019692Y-64664212D01*
X84127733Y-64597571D01*
X84247572Y-64477732D01*
X84247575Y-64477728D01*
X84336542Y-64333492D01*
X84336547Y-64333481D01*
X84389855Y-64172606D01*
X84399999Y-64073322D01*
X84400000Y-64073309D01*
X84400000Y-64025000D01*
X83700000Y-64025000D01*
X83700000Y-64670000D01*
X83200000Y-64670000D01*
X83200000Y-63525000D01*
X83700000Y-63525000D01*
X84399999Y-63525000D01*
X84399999Y-63476692D01*
X84399998Y-63476677D01*
X84389855Y-63377392D01*
X84336547Y-63216518D01*
X84336542Y-63216507D01*
X84247575Y-63072271D01*
X84247572Y-63072267D01*
X84127732Y-62952427D01*
X84127728Y-62952424D01*
X83983492Y-62863457D01*
X83983481Y-62863452D01*
X83822606Y-62810144D01*
X83723322Y-62800000D01*
X83700000Y-62800000D01*
X83700000Y-63525000D01*
X83200000Y-63525000D01*
X83200000Y-62799999D01*
X83176693Y-62800000D01*
X83176674Y-62800001D01*
X83077392Y-62810144D01*
X82916518Y-62863452D01*
X82916507Y-62863457D01*
X82772271Y-62952424D01*
X82772267Y-62952427D01*
X82768691Y-62956004D01*
X82762801Y-62959219D01*
X82758983Y-62964740D01*
X82732521Y-62975754D01*
X82707368Y-62989489D01*
X82700673Y-62989010D01*
X82694478Y-62991589D01*
X82666265Y-62986549D01*
X82637676Y-62984505D01*
X82630683Y-62980193D01*
X82625697Y-62979303D01*
X82604556Y-62964085D01*
X82596671Y-62959224D01*
X82594980Y-62957655D01*
X82583040Y-62945715D01*
X82580268Y-62944005D01*
X82573161Y-62937411D01*
X82557685Y-62911430D01*
X82540209Y-62886745D01*
X82539131Y-62880280D01*
X82537405Y-62877383D01*
X82537615Y-62871190D01*
X82533500Y-62846510D01*
X82533500Y-60982500D01*
X82553185Y-60915461D01*
X82605989Y-60869706D01*
X82657500Y-60858500D01*
X83898638Y-60858500D01*
X83898654Y-60858499D01*
X83925692Y-60855591D01*
X83959201Y-60851989D01*
X84096204Y-60800889D01*
X84213261Y-60713261D01*
X84300889Y-60596204D01*
X84351989Y-60459201D01*
X84358500Y-60398638D01*
X84358500Y-60366708D01*
X84361035Y-60354364D01*
X84371749Y-60334186D01*
X84378185Y-60312268D01*
X84393437Y-60293340D01*
X84393802Y-60292654D01*
X84394146Y-60292460D01*
X84394819Y-60291626D01*
X85057037Y-59629408D01*
X85074075Y-59692993D01*
X85139901Y-59807007D01*
X85232993Y-59900099D01*
X85347007Y-59965925D01*
X85410590Y-59982962D01*
X84778282Y-60615269D01*
X84778282Y-60615270D01*
X84832449Y-60654624D01*
X85021782Y-60751095D01*
X85223870Y-60816757D01*
X85433754Y-60850000D01*
X85646246Y-60850000D01*
X85856127Y-60816757D01*
X85856130Y-60816757D01*
X86058217Y-60751095D01*
X86247554Y-60654622D01*
X86301716Y-60615270D01*
X86301717Y-60615270D01*
X85669408Y-59982962D01*
X85732993Y-59965925D01*
X85847007Y-59900099D01*
X85940099Y-59807007D01*
X86005925Y-59692993D01*
X86022962Y-59629408D01*
X86655270Y-60261717D01*
X86655270Y-60261716D01*
X86694622Y-60207554D01*
X86699514Y-60197954D01*
X86747488Y-60147157D01*
X86815308Y-60130361D01*
X86881444Y-60152897D01*
X86920486Y-60197954D01*
X86925375Y-60207550D01*
X86964728Y-60261716D01*
X87597037Y-59629408D01*
X87614075Y-59692993D01*
X87679901Y-59807007D01*
X87772993Y-59900099D01*
X87887007Y-59965925D01*
X87950590Y-59982962D01*
X87318282Y-60615269D01*
X87318282Y-60615270D01*
X87372449Y-60654624D01*
X87561782Y-60751095D01*
X87763870Y-60816757D01*
X87973754Y-60850000D01*
X88186246Y-60850000D01*
X88396127Y-60816757D01*
X88396130Y-60816757D01*
X88598217Y-60751095D01*
X88787554Y-60654622D01*
X88841716Y-60615270D01*
X88841717Y-60615270D01*
X88209408Y-59982962D01*
X88272993Y-59965925D01*
X88387007Y-59900099D01*
X88480099Y-59807007D01*
X88545925Y-59692993D01*
X88562962Y-59629408D01*
X89195270Y-60261717D01*
X89195270Y-60261716D01*
X89234622Y-60207554D01*
X89331095Y-60018217D01*
X89396757Y-59816130D01*
X89396757Y-59816127D01*
X89430000Y-59606246D01*
X89430000Y-59393753D01*
X89396757Y-59183872D01*
X89396757Y-59183869D01*
X89331095Y-58981782D01*
X89234624Y-58792449D01*
X89195270Y-58738282D01*
X89195269Y-58738282D01*
X88562962Y-59370590D01*
X88545925Y-59307007D01*
X88480099Y-59192993D01*
X88387007Y-59099901D01*
X88272993Y-59034075D01*
X88209409Y-59017037D01*
X88841716Y-58384728D01*
X88804678Y-58357819D01*
X88762012Y-58302489D01*
X88756033Y-58232876D01*
X88788638Y-58171080D01*
X88849477Y-58136723D01*
X88877563Y-58133500D01*
X104186234Y-58133500D01*
X104253273Y-58153185D01*
G37*
%TD.AperFunction*%
%TA.AperFunction,Conductor*%
G36*
X74269475Y-58153185D02*
G01*
X74315230Y-58205989D01*
X74325174Y-58275147D01*
X74296149Y-58338703D01*
X74275320Y-58357819D01*
X74238282Y-58384727D01*
X74238282Y-58384728D01*
X74870591Y-59017037D01*
X74807007Y-59034075D01*
X74692993Y-59099901D01*
X74599901Y-59192993D01*
X74534075Y-59307007D01*
X74517037Y-59370591D01*
X73854819Y-58708373D01*
X73821334Y-58647050D01*
X73818500Y-58620692D01*
X73818500Y-58601362D01*
X73818499Y-58601345D01*
X73815157Y-58570270D01*
X73811989Y-58540799D01*
X73760889Y-58403796D01*
X73707000Y-58331809D01*
X73682584Y-58266347D01*
X73697435Y-58198074D01*
X73746840Y-58148668D01*
X73806268Y-58133500D01*
X74202436Y-58133500D01*
X74269475Y-58153185D01*
G37*
%TD.AperFunction*%
%TA.AperFunction,Conductor*%
G36*
X76809475Y-58153185D02*
G01*
X76855230Y-58205989D01*
X76865174Y-58275147D01*
X76836149Y-58338703D01*
X76815320Y-58357819D01*
X76778282Y-58384727D01*
X76778282Y-58384728D01*
X77410591Y-59017037D01*
X77347007Y-59034075D01*
X77232993Y-59099901D01*
X77139901Y-59192993D01*
X77074075Y-59307007D01*
X77057037Y-59370591D01*
X76424728Y-58738282D01*
X76424727Y-58738282D01*
X76385380Y-58792440D01*
X76380483Y-58802051D01*
X76332506Y-58852845D01*
X76264684Y-58869638D01*
X76198550Y-58847098D01*
X76159516Y-58802048D01*
X76154626Y-58792452D01*
X76115270Y-58738282D01*
X76115269Y-58738282D01*
X75482962Y-59370590D01*
X75465925Y-59307007D01*
X75400099Y-59192993D01*
X75307007Y-59099901D01*
X75192993Y-59034075D01*
X75129409Y-59017037D01*
X75761716Y-58384728D01*
X75724678Y-58357819D01*
X75682012Y-58302489D01*
X75676033Y-58232876D01*
X75708638Y-58171080D01*
X75769477Y-58136723D01*
X75797563Y-58133500D01*
X76742436Y-58133500D01*
X76809475Y-58153185D01*
G37*
%TD.AperFunction*%
%TA.AperFunction,Conductor*%
G36*
X84809475Y-58153185D02*
G01*
X84855230Y-58205989D01*
X84865174Y-58275147D01*
X84836149Y-58338703D01*
X84815320Y-58357819D01*
X84778282Y-58384727D01*
X84778282Y-58384728D01*
X85410591Y-59017037D01*
X85347007Y-59034075D01*
X85232993Y-59099901D01*
X85139901Y-59192993D01*
X85074075Y-59307007D01*
X85057037Y-59370591D01*
X84394819Y-58708373D01*
X84361334Y-58647050D01*
X84358500Y-58620692D01*
X84358500Y-58601362D01*
X84358499Y-58601345D01*
X84355157Y-58570270D01*
X84351989Y-58540799D01*
X84300889Y-58403796D01*
X84247000Y-58331809D01*
X84222584Y-58266347D01*
X84237435Y-58198074D01*
X84286840Y-58148668D01*
X84346268Y-58133500D01*
X84742436Y-58133500D01*
X84809475Y-58153185D01*
G37*
%TD.AperFunction*%
%TA.AperFunction,Conductor*%
G36*
X87349475Y-58153185D02*
G01*
X87395230Y-58205989D01*
X87405174Y-58275147D01*
X87376149Y-58338703D01*
X87355320Y-58357819D01*
X87318282Y-58384727D01*
X87318282Y-58384728D01*
X87950591Y-59017037D01*
X87887007Y-59034075D01*
X87772993Y-59099901D01*
X87679901Y-59192993D01*
X87614075Y-59307007D01*
X87597037Y-59370591D01*
X86964728Y-58738282D01*
X86964727Y-58738282D01*
X86925380Y-58792440D01*
X86920483Y-58802051D01*
X86872506Y-58852845D01*
X86804684Y-58869638D01*
X86738550Y-58847098D01*
X86699516Y-58802048D01*
X86694626Y-58792452D01*
X86655270Y-58738282D01*
X86655269Y-58738282D01*
X86022962Y-59370590D01*
X86005925Y-59307007D01*
X85940099Y-59192993D01*
X85847007Y-59099901D01*
X85732993Y-59034075D01*
X85669409Y-59017037D01*
X86301716Y-58384728D01*
X86264678Y-58357819D01*
X86222012Y-58302489D01*
X86216033Y-58232876D01*
X86248638Y-58171080D01*
X86309477Y-58136723D01*
X86337563Y-58133500D01*
X87282436Y-58133500D01*
X87349475Y-58153185D01*
G37*
%TD.AperFunction*%
%TA.AperFunction,Conductor*%
G36*
X155942539Y-56520184D02*
G01*
X155988294Y-56572988D01*
X155999500Y-56624499D01*
X155999500Y-80875499D01*
X155979815Y-80942538D01*
X155927011Y-80988293D01*
X155875500Y-80999499D01*
X67124500Y-80999499D01*
X67057461Y-80979814D01*
X67011706Y-80927010D01*
X67000500Y-80875499D01*
X67000500Y-66437601D01*
X67366500Y-66437601D01*
X67366500Y-78562398D01*
X67390843Y-78684777D01*
X67390845Y-78684785D01*
X67438598Y-78800072D01*
X67438603Y-78800081D01*
X67507928Y-78903832D01*
X67507931Y-78903836D01*
X68596163Y-79992069D01*
X68596167Y-79992072D01*
X68699921Y-80061399D01*
X68699923Y-80061399D01*
X68699925Y-80061401D01*
X68781447Y-80095168D01*
X68815215Y-80109155D01*
X68815217Y-80109155D01*
X68815222Y-80109157D01*
X68937601Y-80133499D01*
X68937605Y-80133500D01*
X68937606Y-80133500D01*
X144412395Y-80133500D01*
X144412396Y-80133499D01*
X144534785Y-80109155D01*
X144650075Y-80061400D01*
X144753833Y-79992071D01*
X145854673Y-78891229D01*
X145915994Y-78857746D01*
X145980668Y-78860980D01*
X146020176Y-78873818D01*
X146239149Y-78908500D01*
X146239150Y-78908500D01*
X146460850Y-78908500D01*
X146460851Y-78908500D01*
X146679824Y-78873818D01*
X146890676Y-78805308D01*
X147088215Y-78704657D01*
X147267576Y-78574343D01*
X147424343Y-78417576D01*
X147499682Y-78313880D01*
X147555012Y-78271215D01*
X147624625Y-78265236D01*
X147686420Y-78297842D01*
X147700316Y-78313879D01*
X147775657Y-78417576D01*
X147932424Y-78574343D01*
X148111785Y-78704657D01*
X148134326Y-78716142D01*
X148309319Y-78805306D01*
X148309321Y-78805306D01*
X148309324Y-78805308D01*
X148520176Y-78873818D01*
X148739149Y-78908500D01*
X148739150Y-78908500D01*
X148960850Y-78908500D01*
X148960851Y-78908500D01*
X149179824Y-78873818D01*
X149390676Y-78805308D01*
X149588215Y-78704657D01*
X149767576Y-78574343D01*
X149924343Y-78417576D01*
X150054657Y-78238215D01*
X150155308Y-78040676D01*
X150223818Y-77829824D01*
X150258500Y-77610851D01*
X150258500Y-77389149D01*
X150223818Y-77170176D01*
X150155308Y-76959324D01*
X150155306Y-76959321D01*
X150155306Y-76959319D01*
X150093849Y-76838703D01*
X150054657Y-76761785D01*
X149924343Y-76582424D01*
X149767576Y-76425657D01*
X149588215Y-76295343D01*
X149526990Y-76264147D01*
X149476195Y-76216174D01*
X149461669Y-76177854D01*
X149459155Y-76165215D01*
X149411400Y-76049925D01*
X149411399Y-76049924D01*
X149411396Y-76049918D01*
X149342072Y-75946168D01*
X149299549Y-75903645D01*
X149253833Y-75857929D01*
X148741085Y-75345181D01*
X148707600Y-75283858D01*
X148712584Y-75214166D01*
X148754456Y-75158233D01*
X148819920Y-75133816D01*
X148828766Y-75133500D01*
X153062395Y-75133500D01*
X153062396Y-75133499D01*
X153184785Y-75109155D01*
X153300075Y-75061400D01*
X153403833Y-74992071D01*
X154492072Y-73903833D01*
X154561401Y-73800075D01*
X154609155Y-73684784D01*
X154615116Y-73654819D01*
X154633499Y-73562397D01*
X154633500Y-73562394D01*
X154633500Y-65437605D01*
X154633499Y-65437601D01*
X154609157Y-65315222D01*
X154609154Y-65315213D01*
X154607580Y-65311414D01*
X154595168Y-65281447D01*
X154561401Y-65199925D01*
X154561399Y-65199923D01*
X154561399Y-65199921D01*
X154492072Y-65096167D01*
X154492069Y-65096163D01*
X148903836Y-59507931D01*
X148903833Y-59507928D01*
X148795009Y-59435215D01*
X148796047Y-59433660D01*
X148762448Y-59404393D01*
X148670517Y-59277861D01*
X148547139Y-59154483D01*
X148547137Y-59154481D01*
X148547132Y-59154477D01*
X148405984Y-59051928D01*
X148405983Y-59051927D01*
X148405981Y-59051926D01*
X148356175Y-59026548D01*
X148250516Y-58972711D01*
X148250513Y-58972710D01*
X148084575Y-58918795D01*
X147998407Y-58905147D01*
X147912241Y-58891500D01*
X147187759Y-58891500D01*
X147130314Y-58900598D01*
X147015424Y-58918795D01*
X146849486Y-58972710D01*
X146849483Y-58972711D01*
X146694015Y-59051928D01*
X146552867Y-59154477D01*
X146552862Y-59154481D01*
X146429481Y-59277862D01*
X146429477Y-59277867D01*
X146326928Y-59419015D01*
X146247711Y-59574483D01*
X146247710Y-59574486D01*
X146193795Y-59740424D01*
X146166500Y-59912759D01*
X146166500Y-60087240D01*
X146193795Y-60259575D01*
X146247710Y-60425513D01*
X146247711Y-60425516D01*
X146326928Y-60580984D01*
X146429477Y-60722132D01*
X146429481Y-60722137D01*
X146536493Y-60829149D01*
X146569978Y-60890472D01*
X146564994Y-60960164D01*
X146523122Y-61016097D01*
X146513909Y-61022368D01*
X146456659Y-61057680D01*
X146456655Y-61057683D01*
X146332684Y-61181654D01*
X146240643Y-61330875D01*
X146240641Y-61330880D01*
X146185494Y-61497302D01*
X146185493Y-61497309D01*
X146175000Y-61600013D01*
X146175000Y-61750000D01*
X147269670Y-61750000D01*
X147249925Y-61769745D01*
X147200556Y-61855255D01*
X147175000Y-61950630D01*
X147175000Y-62049370D01*
X147200556Y-62144745D01*
X147249925Y-62230255D01*
X147269670Y-62250000D01*
X146175001Y-62250000D01*
X146175001Y-62399986D01*
X146185494Y-62502697D01*
X146240641Y-62669119D01*
X146240643Y-62669124D01*
X146332684Y-62818345D01*
X146456654Y-62942315D01*
X146605875Y-63034356D01*
X146605880Y-63034358D01*
X146772302Y-63089505D01*
X146772309Y-63089506D01*
X146875019Y-63099999D01*
X147299999Y-63099999D01*
X147300000Y-63099998D01*
X147300000Y-62280330D01*
X147319745Y-62300075D01*
X147405255Y-62349444D01*
X147500630Y-62375000D01*
X147599370Y-62375000D01*
X147694745Y-62349444D01*
X147780255Y-62300075D01*
X147800000Y-62280330D01*
X147800000Y-63099999D01*
X148224972Y-63099999D01*
X148224986Y-63099998D01*
X148327697Y-63089505D01*
X148494119Y-63034358D01*
X148494124Y-63034356D01*
X148643345Y-62942315D01*
X148767315Y-62818345D01*
X148859356Y-62669124D01*
X148859358Y-62669119D01*
X148914505Y-62502697D01*
X148914506Y-62502690D01*
X148924999Y-62399986D01*
X148925000Y-62399973D01*
X148925000Y-62250000D01*
X147830330Y-62250000D01*
X147850075Y-62230255D01*
X147899444Y-62144745D01*
X147925000Y-62049370D01*
X147925000Y-61950630D01*
X147899444Y-61855255D01*
X147850075Y-61769745D01*
X147830330Y-61750000D01*
X148924999Y-61750000D01*
X148924999Y-61620265D01*
X148944684Y-61553226D01*
X148997488Y-61507471D01*
X149066646Y-61497527D01*
X149130202Y-61526552D01*
X149136680Y-61532584D01*
X153330181Y-65726085D01*
X153363666Y-65787408D01*
X153366500Y-65813766D01*
X153366500Y-73186233D01*
X153346815Y-73253272D01*
X153330181Y-73273914D01*
X152773915Y-73830181D01*
X152712592Y-73863666D01*
X152686234Y-73866500D01*
X148813766Y-73866500D01*
X148746727Y-73846815D01*
X148726085Y-73830181D01*
X148366265Y-73470361D01*
X148332780Y-73409038D01*
X148337764Y-73339346D01*
X148379636Y-73283413D01*
X148445100Y-73258996D01*
X148492266Y-73264750D01*
X148520168Y-73273816D01*
X148520171Y-73273816D01*
X148520176Y-73273818D01*
X148739149Y-73308500D01*
X148739150Y-73308500D01*
X148960850Y-73308500D01*
X148960851Y-73308500D01*
X149179824Y-73273818D01*
X149390676Y-73205308D01*
X149588215Y-73104657D01*
X149767576Y-72974343D01*
X149924343Y-72817576D01*
X150054657Y-72638215D01*
X150155308Y-72440676D01*
X150223818Y-72229824D01*
X150258500Y-72010851D01*
X150258500Y-71789149D01*
X150223818Y-71570176D01*
X150155308Y-71359324D01*
X150155306Y-71359321D01*
X150155306Y-71359319D01*
X150071388Y-71194622D01*
X150054657Y-71161785D01*
X149924343Y-70982424D01*
X149767576Y-70825657D01*
X149588215Y-70695343D01*
X149588214Y-70695342D01*
X149588212Y-70695341D01*
X149551204Y-70676484D01*
X149500408Y-70628509D01*
X149483500Y-70566000D01*
X149483500Y-69837605D01*
X149483499Y-69837601D01*
X149459156Y-69715222D01*
X149459155Y-69715215D01*
X149438106Y-69664399D01*
X149411401Y-69599925D01*
X149391177Y-69569657D01*
X149342072Y-69496166D01*
X149342069Y-69496163D01*
X142353836Y-62507931D01*
X142353832Y-62507928D01*
X142250081Y-62438603D01*
X142250072Y-62438598D01*
X142134785Y-62390845D01*
X142134777Y-62390843D01*
X142012398Y-62366500D01*
X142012394Y-62366500D01*
X110004492Y-62366500D01*
X109984276Y-62360564D01*
X109963238Y-62359436D01*
X109951425Y-62350917D01*
X109937453Y-62346815D01*
X109923657Y-62330894D01*
X109906567Y-62318570D01*
X109901234Y-62305016D01*
X109891698Y-62294011D01*
X109888699Y-62273158D01*
X109880985Y-62253551D01*
X109882314Y-62228753D01*
X109881754Y-62224853D01*
X109882875Y-62218308D01*
X109891595Y-62174469D01*
X109891599Y-62174448D01*
X109908500Y-62089477D01*
X109908500Y-61910520D01*
X109908499Y-61910516D01*
X109886531Y-61800075D01*
X109873587Y-61735000D01*
X109805102Y-61569664D01*
X109805100Y-61569661D01*
X109805098Y-61569657D01*
X109705678Y-61420865D01*
X109705675Y-61420861D01*
X109579138Y-61294324D01*
X109579134Y-61294321D01*
X109430342Y-61194901D01*
X109430332Y-61194896D01*
X109265000Y-61126413D01*
X109264992Y-61126411D01*
X109089483Y-61091500D01*
X109089479Y-61091500D01*
X109038766Y-61091500D01*
X108971727Y-61071815D01*
X108951085Y-61055181D01*
X104903836Y-57007931D01*
X104903832Y-57007928D01*
X104800081Y-56938603D01*
X104800072Y-56938598D01*
X104684785Y-56890845D01*
X104684777Y-56890843D01*
X104562398Y-56866500D01*
X104562394Y-56866500D01*
X71062394Y-56866500D01*
X70937606Y-56866500D01*
X70937601Y-56866500D01*
X70815222Y-56890842D01*
X70815213Y-56890845D01*
X70699924Y-56938599D01*
X70699921Y-56938600D01*
X70596167Y-57007927D01*
X70596163Y-57007930D01*
X70096167Y-57507929D01*
X70052047Y-57552049D01*
X70007927Y-57596168D01*
X69938603Y-57699918D01*
X69938598Y-57699927D01*
X69890845Y-57815214D01*
X69890843Y-57815222D01*
X69866500Y-57937601D01*
X69866500Y-61562398D01*
X69890843Y-61684777D01*
X69890845Y-61684785D01*
X69938598Y-61800072D01*
X69938603Y-61800081D01*
X70007928Y-61903832D01*
X70007931Y-61903836D01*
X71494156Y-63390060D01*
X71527641Y-63451383D01*
X71522657Y-63521075D01*
X71480785Y-63577008D01*
X71415321Y-63601425D01*
X71399867Y-63601565D01*
X71398649Y-63601500D01*
X71398638Y-63601500D01*
X69601362Y-63601500D01*
X69601345Y-63601500D01*
X69540797Y-63608011D01*
X69540795Y-63608011D01*
X69403795Y-63659111D01*
X69286739Y-63746739D01*
X69199111Y-63863795D01*
X69148011Y-64000795D01*
X69148011Y-64000797D01*
X69141500Y-64061345D01*
X69141500Y-64411234D01*
X69121815Y-64478273D01*
X69105181Y-64498915D01*
X67596167Y-66007929D01*
X67552047Y-66052049D01*
X67507927Y-66096168D01*
X67438603Y-66199918D01*
X67438598Y-66199927D01*
X67390845Y-66315214D01*
X67390843Y-66315222D01*
X67366500Y-66437601D01*
X67000500Y-66437601D01*
X67000500Y-56624499D01*
X67020185Y-56557460D01*
X67072989Y-56511705D01*
X67124500Y-56500499D01*
X155875500Y-56500499D01*
X155942539Y-56520184D01*
G37*
%TD.AperFunction*%
%TD*%
M02*
