%TF.GenerationSoftware,KiCad,Pcbnew,10.0.1*%
%TF.CreationDate,2026-04-26T13:06:42-07:00*%
%TF.ProjectId,Active Bass 2026,41637469-7665-4204-9261-737320323032,rev?*%
%TF.SameCoordinates,Original*%
%TF.FileFunction,Soldermask,Top*%
%TF.FilePolarity,Negative*%
%FSLAX46Y46*%
G04 Gerber Fmt 4.6, Leading zero omitted, Abs format (unit mm)*
G04 Created by KiCad (PCBNEW 10.0.1) date 2026-04-26 13:06:42*
%MOMM*%
%LPD*%
G01*
G04 APERTURE LIST*
G04 Aperture macros list*
%AMRoundRect*
0 Rectangle with rounded corners*
0 $1 Rounding radius*
0 $2 $3 $4 $5 $6 $7 $8 $9 X,Y pos of 4 corners*
0 Add a 4 corners polygon primitive as box body*
4,1,4,$2,$3,$4,$5,$6,$7,$8,$9,$2,$3,0*
0 Add four circle primitives for the rounded corners*
1,1,$1+$1,$2,$3*
1,1,$1+$1,$4,$5*
1,1,$1+$1,$6,$7*
1,1,$1+$1,$8,$9*
0 Add four rect primitives between the rounded corners*
20,1,$1+$1,$2,$3,$4,$5,0*
20,1,$1+$1,$4,$5,$6,$7,0*
20,1,$1+$1,$6,$7,$8,$9,0*
20,1,$1+$1,$8,$9,$2,$3,0*%
G04 Aperture macros list end*
%ADD10RoundRect,0.200000X0.275000X-0.200000X0.275000X0.200000X-0.275000X0.200000X-0.275000X-0.200000X0*%
%ADD11RoundRect,0.200000X0.200000X0.275000X-0.200000X0.275000X-0.200000X-0.275000X0.200000X-0.275000X0*%
%ADD12RoundRect,0.450000X-0.450000X0.450000X-0.450000X-0.450000X0.450000X-0.450000X0.450000X0.450000X0*%
%ADD13C,1.800000*%
%ADD14RoundRect,0.200000X-0.200000X-0.275000X0.200000X-0.275000X0.200000X0.275000X-0.200000X0.275000X0*%
%ADD15RoundRect,0.250000X-0.325000X-0.650000X0.325000X-0.650000X0.325000X0.650000X-0.325000X0.650000X0*%
%ADD16R,1.700000X1.700000*%
%ADD17C,1.700000*%
%ADD18RoundRect,0.250000X-0.650000X0.650000X-0.650000X-0.650000X0.650000X-0.650000X0.650000X0.650000X0*%
%ADD19RoundRect,0.225000X-0.250000X0.225000X-0.250000X-0.225000X0.250000X-0.225000X0.250000X0.225000X0*%
%ADD20RoundRect,0.225000X0.225000X0.250000X-0.225000X0.250000X-0.225000X-0.250000X0.225000X-0.250000X0*%
%ADD21RoundRect,0.225000X-0.225000X-0.250000X0.225000X-0.250000X0.225000X0.250000X-0.225000X0.250000X0*%
%ADD22RoundRect,0.250000X-0.250000X-0.475000X0.250000X-0.475000X0.250000X0.475000X-0.250000X0.475000X0*%
%ADD23RoundRect,0.225000X0.250000X-0.225000X0.250000X0.225000X-0.250000X0.225000X-0.250000X-0.225000X0*%
%ADD24RoundRect,0.150000X0.150000X-0.512500X0.150000X0.512500X-0.150000X0.512500X-0.150000X-0.512500X0*%
%ADD25RoundRect,0.250000X0.625000X-0.350000X0.625000X0.350000X-0.625000X0.350000X-0.625000X-0.350000X0*%
%ADD26O,1.750000X1.200000*%
%ADD27RoundRect,0.100000X-0.100000X0.637500X-0.100000X-0.637500X0.100000X-0.637500X0.100000X0.637500X0*%
G04 APERTURE END LIST*
D10*
%TO.C,R2*%
X98500000Y-65825000D03*
X98500000Y-64175000D03*
%TD*%
D11*
%TO.C,R5*%
X92825000Y-65000000D03*
X91175000Y-65000000D03*
%TD*%
D12*
%TO.C,RV3*%
X143850000Y-77500000D03*
D13*
X146350000Y-77500000D03*
X148850000Y-77500000D03*
X143850000Y-71900000D03*
X148850000Y-71900000D03*
%TD*%
D14*
%TO.C,R1*%
X104175000Y-63000000D03*
X105825000Y-63000000D03*
%TD*%
D15*
%TO.C,C7*%
X135525000Y-74500000D03*
X138475000Y-74500000D03*
%TD*%
D16*
%TO.C,J2*%
X83000000Y-59500000D03*
D17*
X85540000Y-59500000D03*
X88080000Y-59500000D03*
%TD*%
D18*
%TO.C,RV1*%
X108925000Y-77500000D03*
D13*
X111425000Y-77500000D03*
X113925000Y-77500000D03*
%TD*%
D16*
%TO.C,J3*%
X72460000Y-59500000D03*
D17*
X75000000Y-59500000D03*
X77540000Y-59500000D03*
%TD*%
D14*
%TO.C,R9*%
X103350000Y-77500000D03*
X105000000Y-77500000D03*
%TD*%
D19*
%TO.C,C5*%
X115500000Y-68500000D03*
X115500000Y-70050000D03*
%TD*%
D14*
%TO.C,R8*%
X117675000Y-77500000D03*
X119325000Y-77500000D03*
%TD*%
D11*
%TO.C,R10*%
X94150000Y-75500000D03*
X92500000Y-75500000D03*
%TD*%
D14*
%TO.C,R11*%
X91000000Y-77500000D03*
X92650000Y-77500000D03*
%TD*%
D16*
%TO.C,J4*%
X70500000Y-64960000D03*
D17*
X70500000Y-67500000D03*
X70500000Y-70040000D03*
%TD*%
D20*
%TO.C,C3*%
X82775000Y-68500000D03*
X81225000Y-68500000D03*
%TD*%
D21*
%TO.C,C9*%
X115000000Y-66000000D03*
X116550000Y-66000000D03*
%TD*%
D22*
%TO.C,C10*%
X78550000Y-72500000D03*
X80450000Y-72500000D03*
%TD*%
D20*
%TO.C,C1*%
X83450000Y-63775000D03*
X81900000Y-63775000D03*
%TD*%
D23*
%TO.C,C8*%
X93000000Y-73050000D03*
X93000000Y-71500000D03*
%TD*%
D24*
%TO.C,U2*%
X110550000Y-67637500D03*
X111500000Y-67637500D03*
X112450000Y-67637500D03*
X112450000Y-65362500D03*
X110550000Y-65362500D03*
%TD*%
D10*
%TO.C,R7*%
X107500000Y-67825000D03*
X107500000Y-66175000D03*
%TD*%
D25*
%TO.C,J1*%
X147550000Y-62000000D03*
D26*
X147550000Y-60000000D03*
%TD*%
D27*
%TO.C,U1*%
X90450000Y-69637500D03*
X89800000Y-69637500D03*
X89150000Y-69637500D03*
X88500000Y-69637500D03*
X87850000Y-69637500D03*
X87200000Y-69637500D03*
X86550000Y-69637500D03*
X86550000Y-75362500D03*
X87200000Y-75362500D03*
X87850000Y-75362500D03*
X88500000Y-75362500D03*
X89150000Y-75362500D03*
X89800000Y-75362500D03*
X90450000Y-75362500D03*
%TD*%
D23*
%TO.C,C6*%
X96000000Y-65775000D03*
X96000000Y-64225000D03*
%TD*%
D11*
%TO.C,R6*%
X92825000Y-63000000D03*
X91175000Y-63000000D03*
%TD*%
%TO.C,R3*%
X83500000Y-65775000D03*
X81850000Y-65775000D03*
%TD*%
D18*
%TO.C,RV2*%
X74000000Y-77500000D03*
D13*
X76500000Y-77500000D03*
X79000000Y-77500000D03*
%TD*%
D20*
%TO.C,C2*%
X75950000Y-63775000D03*
X74400000Y-63775000D03*
%TD*%
D11*
%TO.C,R4*%
X76000000Y-65775000D03*
X74350000Y-65775000D03*
%TD*%
D20*
%TO.C,C4*%
X76775000Y-68500000D03*
X75225000Y-68500000D03*
%TD*%
M02*
