%TF.GenerationSoftware,KiCad,Pcbnew,10.0.5*%
%TF.CreationDate,2026-08-17T17:58:04-07:00*%
%TF.ProjectId,OPA376 String Preamp,4f504133-3736-4205-9374-72696e672050,rev?*%
%TF.SameCoordinates,Original*%
%TF.FileFunction,Legend,Top*%
%TF.FilePolarity,Positive*%
%FSLAX46Y46*%
G04 Gerber Fmt 4.6, Leading zero omitted, Abs format (unit mm)*
G04 Created by KiCad (PCBNEW 10.0.5) date 2026-08-17 17:58:04*
%MOMM*%
%LPD*%
G01*
G04 APERTURE LIST*
G04 Aperture macros list*
%AMRoundRect*
0 Rectangle with rounded corners*
0 $1 Rounding radius*
0 $2 $3 $4 $5 $6 $7 $8 $9 X,Y pos of 4 corners*
0 Add a 4 corners polygon primitive as box body*
4,1,4,$2,$3,$4,$5,$6,$7,$8,$9,$2,$3,0*
0 Add four circle primitives for the rounded corners*
1,1,$1+$1,$2,$3*
1,1,$1+$1,$4,$5*
1,1,$1+$1,$6,$7*
1,1,$1+$1,$8,$9*
0 Add four rect primitives between the rounded corners*
20,1,$1+$1,$2,$3,$4,$5,0*
20,1,$1+$1,$4,$5,$6,$7,0*
20,1,$1+$1,$6,$7,$8,$9,0*
20,1,$1+$1,$8,$9,$2,$3,0*%
G04 Aperture macros list end*
%ADD10C,0.200000*%
%ADD11C,0.150000*%
%ADD12C,0.120000*%
%ADD13RoundRect,0.191177X-0.458823X-0.458823X0.458823X-0.458823X0.458823X0.458823X-0.458823X0.458823X0*%
%ADD14RoundRect,0.140000X-0.140000X-0.170000X0.140000X-0.170000X0.140000X0.170000X-0.140000X0.170000X0*%
%ADD15RoundRect,0.135000X-0.185000X0.135000X-0.185000X-0.135000X0.185000X-0.135000X0.185000X0.135000X0*%
%ADD16RoundRect,0.135000X-0.135000X-0.185000X0.135000X-0.185000X0.135000X0.185000X-0.135000X0.185000X0*%
%ADD17RoundRect,0.225000X-0.225000X-0.250000X0.225000X-0.250000X0.225000X0.250000X-0.225000X0.250000X0*%
%ADD18RoundRect,0.087500X-0.425000X-0.087500X0.425000X-0.087500X0.425000X0.087500X-0.425000X0.087500X0*%
%ADD19RoundRect,0.135000X0.185000X-0.135000X0.185000X0.135000X-0.185000X0.135000X-0.185000X-0.135000X0*%
%ADD20RoundRect,0.225000X-0.250000X0.225000X-0.250000X-0.225000X0.250000X-0.225000X0.250000X0.225000X0*%
%ADD21R,1.350000X1.350000*%
%ADD22C,1.350000*%
G04 APERTURE END LIST*
D10*
X95455387Y-138667219D02*
X95455387Y-139381504D01*
X95455387Y-139381504D02*
X95407768Y-139524361D01*
X95407768Y-139524361D02*
X95312530Y-139619600D01*
X95312530Y-139619600D02*
X95169673Y-139667219D01*
X95169673Y-139667219D02*
X95074435Y-139667219D01*
X96407768Y-139667219D02*
X95931578Y-139667219D01*
X95931578Y-139667219D02*
X95931578Y-138667219D01*
X97312530Y-139571980D02*
X97264911Y-139619600D01*
X97264911Y-139619600D02*
X97122054Y-139667219D01*
X97122054Y-139667219D02*
X97026816Y-139667219D01*
X97026816Y-139667219D02*
X96883959Y-139619600D01*
X96883959Y-139619600D02*
X96788721Y-139524361D01*
X96788721Y-139524361D02*
X96741102Y-139429123D01*
X96741102Y-139429123D02*
X96693483Y-139238647D01*
X96693483Y-139238647D02*
X96693483Y-139095790D01*
X96693483Y-139095790D02*
X96741102Y-138905314D01*
X96741102Y-138905314D02*
X96788721Y-138810076D01*
X96788721Y-138810076D02*
X96883959Y-138714838D01*
X96883959Y-138714838D02*
X97026816Y-138667219D01*
X97026816Y-138667219D02*
X97122054Y-138667219D01*
X97122054Y-138667219D02*
X97264911Y-138714838D01*
X97264911Y-138714838D02*
X97312530Y-138762457D01*
X98026816Y-138667219D02*
X98026816Y-139381504D01*
X98026816Y-139381504D02*
X97979197Y-139524361D01*
X97979197Y-139524361D02*
X97883959Y-139619600D01*
X97883959Y-139619600D02*
X97741102Y-139667219D01*
X97741102Y-139667219D02*
X97645864Y-139667219D01*
X98979197Y-139667219D02*
X98503007Y-139667219D01*
X98503007Y-139667219D02*
X98503007Y-138667219D01*
X99883959Y-139571980D02*
X99836340Y-139619600D01*
X99836340Y-139619600D02*
X99693483Y-139667219D01*
X99693483Y-139667219D02*
X99598245Y-139667219D01*
X99598245Y-139667219D02*
X99455388Y-139619600D01*
X99455388Y-139619600D02*
X99360150Y-139524361D01*
X99360150Y-139524361D02*
X99312531Y-139429123D01*
X99312531Y-139429123D02*
X99264912Y-139238647D01*
X99264912Y-139238647D02*
X99264912Y-139095790D01*
X99264912Y-139095790D02*
X99312531Y-138905314D01*
X99312531Y-138905314D02*
X99360150Y-138810076D01*
X99360150Y-138810076D02*
X99455388Y-138714838D01*
X99455388Y-138714838D02*
X99598245Y-138667219D01*
X99598245Y-138667219D02*
X99693483Y-138667219D01*
X99693483Y-138667219D02*
X99836340Y-138714838D01*
X99836340Y-138714838D02*
X99883959Y-138762457D01*
X100598245Y-138667219D02*
X100598245Y-139381504D01*
X100598245Y-139381504D02*
X100550626Y-139524361D01*
X100550626Y-139524361D02*
X100455388Y-139619600D01*
X100455388Y-139619600D02*
X100312531Y-139667219D01*
X100312531Y-139667219D02*
X100217293Y-139667219D01*
X101550626Y-139667219D02*
X101074436Y-139667219D01*
X101074436Y-139667219D02*
X101074436Y-138667219D01*
X102455388Y-139571980D02*
X102407769Y-139619600D01*
X102407769Y-139619600D02*
X102264912Y-139667219D01*
X102264912Y-139667219D02*
X102169674Y-139667219D01*
X102169674Y-139667219D02*
X102026817Y-139619600D01*
X102026817Y-139619600D02*
X101931579Y-139524361D01*
X101931579Y-139524361D02*
X101883960Y-139429123D01*
X101883960Y-139429123D02*
X101836341Y-139238647D01*
X101836341Y-139238647D02*
X101836341Y-139095790D01*
X101836341Y-139095790D02*
X101883960Y-138905314D01*
X101883960Y-138905314D02*
X101931579Y-138810076D01*
X101931579Y-138810076D02*
X102026817Y-138714838D01*
X102026817Y-138714838D02*
X102169674Y-138667219D01*
X102169674Y-138667219D02*
X102264912Y-138667219D01*
X102264912Y-138667219D02*
X102407769Y-138714838D01*
X102407769Y-138714838D02*
X102455388Y-138762457D01*
X103169674Y-138667219D02*
X103169674Y-139381504D01*
X103169674Y-139381504D02*
X103122055Y-139524361D01*
X103122055Y-139524361D02*
X103026817Y-139619600D01*
X103026817Y-139619600D02*
X102883960Y-139667219D01*
X102883960Y-139667219D02*
X102788722Y-139667219D01*
X104122055Y-139667219D02*
X103645865Y-139667219D01*
X103645865Y-139667219D02*
X103645865Y-138667219D01*
X105026817Y-139571980D02*
X104979198Y-139619600D01*
X104979198Y-139619600D02*
X104836341Y-139667219D01*
X104836341Y-139667219D02*
X104741103Y-139667219D01*
X104741103Y-139667219D02*
X104598246Y-139619600D01*
X104598246Y-139619600D02*
X104503008Y-139524361D01*
X104503008Y-139524361D02*
X104455389Y-139429123D01*
X104455389Y-139429123D02*
X104407770Y-139238647D01*
X104407770Y-139238647D02*
X104407770Y-139095790D01*
X104407770Y-139095790D02*
X104455389Y-138905314D01*
X104455389Y-138905314D02*
X104503008Y-138810076D01*
X104503008Y-138810076D02*
X104598246Y-138714838D01*
X104598246Y-138714838D02*
X104741103Y-138667219D01*
X104741103Y-138667219D02*
X104836341Y-138667219D01*
X104836341Y-138667219D02*
X104979198Y-138714838D01*
X104979198Y-138714838D02*
X105026817Y-138762457D01*
D11*
X95955031Y-90484580D02*
X95907412Y-90532200D01*
X95907412Y-90532200D02*
X95764555Y-90579819D01*
X95764555Y-90579819D02*
X95669317Y-90579819D01*
X95669317Y-90579819D02*
X95526460Y-90532200D01*
X95526460Y-90532200D02*
X95431222Y-90436961D01*
X95431222Y-90436961D02*
X95383603Y-90341723D01*
X95383603Y-90341723D02*
X95335984Y-90151247D01*
X95335984Y-90151247D02*
X95335984Y-90008390D01*
X95335984Y-90008390D02*
X95383603Y-89817914D01*
X95383603Y-89817914D02*
X95431222Y-89722676D01*
X95431222Y-89722676D02*
X95526460Y-89627438D01*
X95526460Y-89627438D02*
X95669317Y-89579819D01*
X95669317Y-89579819D02*
X95764555Y-89579819D01*
X95764555Y-89579819D02*
X95907412Y-89627438D01*
X95907412Y-89627438D02*
X95955031Y-89675057D01*
X96907412Y-90579819D02*
X96335984Y-90579819D01*
X96621698Y-90579819D02*
X96621698Y-89579819D01*
X96621698Y-89579819D02*
X96526460Y-89722676D01*
X96526460Y-89722676D02*
X96431222Y-89817914D01*
X96431222Y-89817914D02*
X96335984Y-89865533D01*
X97859793Y-90579819D02*
X97288365Y-90579819D01*
X97574079Y-90579819D02*
X97574079Y-89579819D01*
X97574079Y-89579819D02*
X97478841Y-89722676D01*
X97478841Y-89722676D02*
X97383603Y-89817914D01*
X97383603Y-89817914D02*
X97288365Y-89865533D01*
X95855031Y-108774580D02*
X95807412Y-108822200D01*
X95807412Y-108822200D02*
X95664555Y-108869819D01*
X95664555Y-108869819D02*
X95569317Y-108869819D01*
X95569317Y-108869819D02*
X95426460Y-108822200D01*
X95426460Y-108822200D02*
X95331222Y-108726961D01*
X95331222Y-108726961D02*
X95283603Y-108631723D01*
X95283603Y-108631723D02*
X95235984Y-108441247D01*
X95235984Y-108441247D02*
X95235984Y-108298390D01*
X95235984Y-108298390D02*
X95283603Y-108107914D01*
X95283603Y-108107914D02*
X95331222Y-108012676D01*
X95331222Y-108012676D02*
X95426460Y-107917438D01*
X95426460Y-107917438D02*
X95569317Y-107869819D01*
X95569317Y-107869819D02*
X95664555Y-107869819D01*
X95664555Y-107869819D02*
X95807412Y-107917438D01*
X95807412Y-107917438D02*
X95855031Y-107965057D01*
X96807412Y-108869819D02*
X96235984Y-108869819D01*
X96521698Y-108869819D02*
X96521698Y-107869819D01*
X96521698Y-107869819D02*
X96426460Y-108012676D01*
X96426460Y-108012676D02*
X96331222Y-108107914D01*
X96331222Y-108107914D02*
X96235984Y-108155533D01*
X97140746Y-107869819D02*
X97759793Y-107869819D01*
X97759793Y-107869819D02*
X97426460Y-108250771D01*
X97426460Y-108250771D02*
X97569317Y-108250771D01*
X97569317Y-108250771D02*
X97664555Y-108298390D01*
X97664555Y-108298390D02*
X97712174Y-108346009D01*
X97712174Y-108346009D02*
X97759793Y-108441247D01*
X97759793Y-108441247D02*
X97759793Y-108679342D01*
X97759793Y-108679342D02*
X97712174Y-108774580D01*
X97712174Y-108774580D02*
X97664555Y-108822200D01*
X97664555Y-108822200D02*
X97569317Y-108869819D01*
X97569317Y-108869819D02*
X97283603Y-108869819D01*
X97283603Y-108869819D02*
X97188365Y-108822200D01*
X97188365Y-108822200D02*
X97140746Y-108774580D01*
X96431222Y-72744580D02*
X96383603Y-72792200D01*
X96383603Y-72792200D02*
X96240746Y-72839819D01*
X96240746Y-72839819D02*
X96145508Y-72839819D01*
X96145508Y-72839819D02*
X96002651Y-72792200D01*
X96002651Y-72792200D02*
X95907413Y-72696961D01*
X95907413Y-72696961D02*
X95859794Y-72601723D01*
X95859794Y-72601723D02*
X95812175Y-72411247D01*
X95812175Y-72411247D02*
X95812175Y-72268390D01*
X95812175Y-72268390D02*
X95859794Y-72077914D01*
X95859794Y-72077914D02*
X95907413Y-71982676D01*
X95907413Y-71982676D02*
X96002651Y-71887438D01*
X96002651Y-71887438D02*
X96145508Y-71839819D01*
X96145508Y-71839819D02*
X96240746Y-71839819D01*
X96240746Y-71839819D02*
X96383603Y-71887438D01*
X96383603Y-71887438D02*
X96431222Y-71935057D01*
X97383603Y-72839819D02*
X96812175Y-72839819D01*
X97097889Y-72839819D02*
X97097889Y-71839819D01*
X97097889Y-71839819D02*
X97002651Y-71982676D01*
X97002651Y-71982676D02*
X96907413Y-72077914D01*
X96907413Y-72077914D02*
X96812175Y-72125533D01*
X95855031Y-126964580D02*
X95807412Y-127012200D01*
X95807412Y-127012200D02*
X95664555Y-127059819D01*
X95664555Y-127059819D02*
X95569317Y-127059819D01*
X95569317Y-127059819D02*
X95426460Y-127012200D01*
X95426460Y-127012200D02*
X95331222Y-126916961D01*
X95331222Y-126916961D02*
X95283603Y-126821723D01*
X95283603Y-126821723D02*
X95235984Y-126631247D01*
X95235984Y-126631247D02*
X95235984Y-126488390D01*
X95235984Y-126488390D02*
X95283603Y-126297914D01*
X95283603Y-126297914D02*
X95331222Y-126202676D01*
X95331222Y-126202676D02*
X95426460Y-126107438D01*
X95426460Y-126107438D02*
X95569317Y-126059819D01*
X95569317Y-126059819D02*
X95664555Y-126059819D01*
X95664555Y-126059819D02*
X95807412Y-126107438D01*
X95807412Y-126107438D02*
X95855031Y-126155057D01*
X96807412Y-127059819D02*
X96235984Y-127059819D01*
X96521698Y-127059819D02*
X96521698Y-126059819D01*
X96521698Y-126059819D02*
X96426460Y-126202676D01*
X96426460Y-126202676D02*
X96331222Y-126297914D01*
X96331222Y-126297914D02*
X96235984Y-126345533D01*
X97712174Y-126059819D02*
X97235984Y-126059819D01*
X97235984Y-126059819D02*
X97188365Y-126536009D01*
X97188365Y-126536009D02*
X97235984Y-126488390D01*
X97235984Y-126488390D02*
X97331222Y-126440771D01*
X97331222Y-126440771D02*
X97569317Y-126440771D01*
X97569317Y-126440771D02*
X97664555Y-126488390D01*
X97664555Y-126488390D02*
X97712174Y-126536009D01*
X97712174Y-126536009D02*
X97759793Y-126631247D01*
X97759793Y-126631247D02*
X97759793Y-126869342D01*
X97759793Y-126869342D02*
X97712174Y-126964580D01*
X97712174Y-126964580D02*
X97664555Y-127012200D01*
X97664555Y-127012200D02*
X97569317Y-127059819D01*
X97569317Y-127059819D02*
X97331222Y-127059819D01*
X97331222Y-127059819D02*
X97235984Y-127012200D01*
X97235984Y-127012200D02*
X97188365Y-126964580D01*
X102039580Y-100166666D02*
X102087200Y-100214285D01*
X102087200Y-100214285D02*
X102134819Y-100357142D01*
X102134819Y-100357142D02*
X102134819Y-100452380D01*
X102134819Y-100452380D02*
X102087200Y-100595237D01*
X102087200Y-100595237D02*
X101991961Y-100690475D01*
X101991961Y-100690475D02*
X101896723Y-100738094D01*
X101896723Y-100738094D02*
X101706247Y-100785713D01*
X101706247Y-100785713D02*
X101563390Y-100785713D01*
X101563390Y-100785713D02*
X101372914Y-100738094D01*
X101372914Y-100738094D02*
X101277676Y-100690475D01*
X101277676Y-100690475D02*
X101182438Y-100595237D01*
X101182438Y-100595237D02*
X101134819Y-100452380D01*
X101134819Y-100452380D02*
X101134819Y-100357142D01*
X101134819Y-100357142D02*
X101182438Y-100214285D01*
X101182438Y-100214285D02*
X101230057Y-100166666D01*
X101230057Y-99785713D02*
X101182438Y-99738094D01*
X101182438Y-99738094D02*
X101134819Y-99642856D01*
X101134819Y-99642856D02*
X101134819Y-99404761D01*
X101134819Y-99404761D02*
X101182438Y-99309523D01*
X101182438Y-99309523D02*
X101230057Y-99261904D01*
X101230057Y-99261904D02*
X101325295Y-99214285D01*
X101325295Y-99214285D02*
X101420533Y-99214285D01*
X101420533Y-99214285D02*
X101563390Y-99261904D01*
X101563390Y-99261904D02*
X102134819Y-99833332D01*
X102134819Y-99833332D02*
X102134819Y-99214285D01*
%TO.C,C16*%
D12*
X97392164Y-126010000D02*
X97607836Y-126010000D01*
X97392164Y-126730000D02*
X97607836Y-126730000D01*
%TO.C,C20*%
X101022164Y-124910000D02*
X101237836Y-124910000D01*
X101022164Y-125630000D02*
X101237836Y-125630000D01*
%TO.C,R2*%
X102320000Y-99846359D02*
X102320000Y-100153641D01*
X103080000Y-99846359D02*
X103080000Y-100153641D01*
%TO.C,R22*%
X97296359Y-125040000D02*
X97603641Y-125040000D01*
X97296359Y-125800000D02*
X97603641Y-125800000D01*
%TO.C,R18*%
X101146359Y-91860000D02*
X101453641Y-91860000D01*
X101146359Y-92620000D02*
X101453641Y-92620000D01*
%TO.C,C19*%
X101022164Y-106670000D02*
X101237836Y-106670000D01*
X101022164Y-107390000D02*
X101237836Y-107390000D01*
%TO.C,C11*%
X96457309Y-91045000D02*
X96738469Y-91045000D01*
X96457309Y-92065000D02*
X96738469Y-92065000D01*
%TO.C,R15*%
X101146359Y-73620000D02*
X101453641Y-73620000D01*
X101146359Y-74380000D02*
X101453641Y-74380000D01*
%TO.C,C14*%
X97392164Y-107770000D02*
X97607836Y-107770000D01*
X97392164Y-108490000D02*
X97607836Y-108490000D01*
%TO.C,C13*%
X96357309Y-109335000D02*
X96638469Y-109335000D01*
X96357309Y-110355000D02*
X96638469Y-110355000D01*
%TO.C,R16*%
X97296359Y-88560000D02*
X97603641Y-88560000D01*
X97296359Y-89320000D02*
X97603641Y-89320000D01*
%TO.C,R14*%
X99006359Y-73620000D02*
X99313641Y-73620000D01*
X99006359Y-74380000D02*
X99313641Y-74380000D01*
%TO.C,R13*%
X97296359Y-70320000D02*
X97603641Y-70320000D01*
X97296359Y-71080000D02*
X97603641Y-71080000D01*
%TO.C,R24*%
X101146359Y-128340000D02*
X101453641Y-128340000D01*
X101146359Y-129100000D02*
X101453641Y-129100000D01*
%TO.C,U4*%
X99265000Y-125960000D02*
X100735000Y-125960000D01*
X99265000Y-125985000D02*
X99265000Y-125960000D01*
X99265000Y-128180000D02*
X99265000Y-128155000D01*
X100735000Y-125960000D02*
X100735000Y-125985000D01*
X100735000Y-126855000D02*
X100735000Y-127285000D01*
X100735000Y-128155000D02*
X100735000Y-128180000D01*
X100735000Y-128180000D02*
X99265000Y-128180000D01*
X98820000Y-125980000D02*
X98680000Y-125790000D01*
X98960000Y-125790000D01*
X98820000Y-125980000D01*
G36*
X98820000Y-125980000D02*
G01*
X98680000Y-125790000D01*
X98960000Y-125790000D01*
X98820000Y-125980000D01*
G37*
%TO.C,C1*%
X96457309Y-73305000D02*
X96738469Y-73305000D01*
X96457309Y-74325000D02*
X96738469Y-74325000D01*
%TO.C,R1*%
X101220000Y-100153641D02*
X101220000Y-99846359D01*
X101980000Y-100153641D02*
X101980000Y-99846359D01*
%TO.C,R20*%
X99006359Y-110100000D02*
X99313641Y-110100000D01*
X99006359Y-110860000D02*
X99313641Y-110860000D01*
%TO.C,C12*%
X97392164Y-89530000D02*
X97607836Y-89530000D01*
X97392164Y-90250000D02*
X97607836Y-90250000D01*
%TO.C,C15*%
X96357309Y-127525000D02*
X96638469Y-127525000D01*
X96357309Y-128545000D02*
X96638469Y-128545000D01*
%TO.C,U3*%
X99265000Y-107720000D02*
X100735000Y-107720000D01*
X99265000Y-107745000D02*
X99265000Y-107720000D01*
X99265000Y-109940000D02*
X99265000Y-109915000D01*
X100735000Y-107720000D02*
X100735000Y-107745000D01*
X100735000Y-108615000D02*
X100735000Y-109045000D01*
X100735000Y-109915000D02*
X100735000Y-109940000D01*
X100735000Y-109940000D02*
X99265000Y-109940000D01*
X98820000Y-107740000D02*
X98680000Y-107550000D01*
X98960000Y-107550000D01*
X98820000Y-107740000D01*
G36*
X98820000Y-107740000D02*
G01*
X98680000Y-107550000D01*
X98960000Y-107550000D01*
X98820000Y-107740000D01*
G37*
%TO.C,R17*%
X99006359Y-91860000D02*
X99313641Y-91860000D01*
X99006359Y-92620000D02*
X99313641Y-92620000D01*
%TO.C,C10*%
X97392164Y-71290000D02*
X97607836Y-71290000D01*
X97392164Y-72010000D02*
X97607836Y-72010000D01*
%TO.C,C17*%
X101022164Y-70190000D02*
X101237836Y-70190000D01*
X101022164Y-70910000D02*
X101237836Y-70910000D01*
%TO.C,C2*%
X99740000Y-99859420D02*
X99740000Y-100140580D01*
X100760000Y-99859420D02*
X100760000Y-100140580D01*
%TO.C,R21*%
X101146359Y-110100000D02*
X101453641Y-110100000D01*
X101146359Y-110860000D02*
X101453641Y-110860000D01*
%TO.C,R19*%
X97296359Y-106800000D02*
X97603641Y-106800000D01*
X97296359Y-107560000D02*
X97603641Y-107560000D01*
%TO.C,U2*%
X99265000Y-89480000D02*
X100735000Y-89480000D01*
X99265000Y-89505000D02*
X99265000Y-89480000D01*
X99265000Y-91700000D02*
X99265000Y-91675000D01*
X100735000Y-89480000D02*
X100735000Y-89505000D01*
X100735000Y-90375000D02*
X100735000Y-90805000D01*
X100735000Y-91675000D02*
X100735000Y-91700000D01*
X100735000Y-91700000D02*
X99265000Y-91700000D01*
X98820000Y-89500000D02*
X98680000Y-89310000D01*
X98960000Y-89310000D01*
X98820000Y-89500000D01*
G36*
X98820000Y-89500000D02*
G01*
X98680000Y-89310000D01*
X98960000Y-89310000D01*
X98820000Y-89500000D01*
G37*
%TO.C,U1*%
X99265000Y-71240000D02*
X100735000Y-71240000D01*
X99265000Y-71265000D02*
X99265000Y-71240000D01*
X99265000Y-73460000D02*
X99265000Y-73435000D01*
X100735000Y-71240000D02*
X100735000Y-71265000D01*
X100735000Y-72135000D02*
X100735000Y-72565000D01*
X100735000Y-73435000D02*
X100735000Y-73460000D01*
X100735000Y-73460000D02*
X99265000Y-73460000D01*
X98820000Y-71260000D02*
X98680000Y-71070000D01*
X98960000Y-71070000D01*
X98820000Y-71260000D01*
G36*
X98820000Y-71260000D02*
G01*
X98680000Y-71070000D01*
X98960000Y-71070000D01*
X98820000Y-71260000D01*
G37*
%TO.C,R23*%
X99006359Y-128340000D02*
X99313641Y-128340000D01*
X99006359Y-129100000D02*
X99313641Y-129100000D01*
%TO.C,C18*%
X101022164Y-88430000D02*
X101237836Y-88430000D01*
X101022164Y-89150000D02*
X101237836Y-89150000D01*
%TD*%
%LPC*%
D13*
%TO.C,J7*%
X106572759Y-85738635D03*
%TD*%
D14*
%TO.C,C16*%
X97020000Y-126370000D03*
X97980000Y-126370000D03*
%TD*%
%TO.C,C20*%
X100650000Y-125270000D03*
X101610000Y-125270000D03*
%TD*%
D15*
%TO.C,R2*%
X102700000Y-99490000D03*
X102700000Y-100510000D03*
%TD*%
D13*
%TO.C,J4*%
X106572759Y-67498635D03*
%TD*%
%TO.C,J13*%
X106572759Y-114261365D03*
%TD*%
D16*
%TO.C,R22*%
X96940000Y-125420000D03*
X97960000Y-125420000D03*
%TD*%
%TO.C,R18*%
X100790000Y-92240000D03*
X101810000Y-92240000D03*
%TD*%
D14*
%TO.C,C19*%
X100650000Y-107030000D03*
X101610000Y-107030000D03*
%TD*%
D17*
%TO.C,C11*%
X95822889Y-91555000D03*
X97372889Y-91555000D03*
%TD*%
D16*
%TO.C,R15*%
X100790000Y-74000000D03*
X101810000Y-74000000D03*
%TD*%
D14*
%TO.C,C14*%
X97020000Y-108130000D03*
X97980000Y-108130000D03*
%TD*%
D17*
%TO.C,C13*%
X95722889Y-109845000D03*
X97272889Y-109845000D03*
%TD*%
D16*
%TO.C,R16*%
X96940000Y-88940000D03*
X97960000Y-88940000D03*
%TD*%
%TO.C,R14*%
X98650000Y-74000000D03*
X99670000Y-74000000D03*
%TD*%
%TO.C,R13*%
X96940000Y-70700000D03*
X97960000Y-70700000D03*
%TD*%
%TO.C,R24*%
X100790000Y-128720000D03*
X101810000Y-128720000D03*
%TD*%
D13*
%TO.C,J17*%
X106572759Y-132501365D03*
%TD*%
%TO.C,J15*%
X93427241Y-132501365D03*
%TD*%
%TO.C,J16*%
X106572759Y-122218635D03*
%TD*%
D18*
%TO.C,U4*%
X99162500Y-126420000D03*
X99162500Y-127070000D03*
X99162500Y-127720000D03*
X100837500Y-127720000D03*
X100837500Y-126420000D03*
%TD*%
D13*
%TO.C,J12*%
X106572759Y-103978635D03*
%TD*%
%TO.C,J1*%
X93427241Y-67498635D03*
%TD*%
D17*
%TO.C,C1*%
X95822889Y-73815000D03*
X97372889Y-73815000D03*
%TD*%
D19*
%TO.C,R1*%
X101600000Y-100510000D03*
X101600000Y-99490000D03*
%TD*%
D13*
%TO.C,J2*%
X106572759Y-77781365D03*
%TD*%
D16*
%TO.C,R20*%
X98650000Y-110480000D03*
X99670000Y-110480000D03*
%TD*%
D13*
%TO.C,J11*%
X93427241Y-114261365D03*
%TD*%
%TO.C,J10*%
X93427241Y-103978635D03*
%TD*%
%TO.C,J3*%
X93427241Y-77781365D03*
%TD*%
D14*
%TO.C,C12*%
X97020000Y-89890000D03*
X97980000Y-89890000D03*
%TD*%
D17*
%TO.C,C15*%
X95722889Y-128035000D03*
X97272889Y-128035000D03*
%TD*%
D18*
%TO.C,U3*%
X99162500Y-108180000D03*
X99162500Y-108830000D03*
X99162500Y-109480000D03*
X100837500Y-109480000D03*
X100837500Y-108180000D03*
%TD*%
D16*
%TO.C,R17*%
X98650000Y-92240000D03*
X99670000Y-92240000D03*
%TD*%
D14*
%TO.C,C10*%
X97020000Y-71650000D03*
X97980000Y-71650000D03*
%TD*%
D13*
%TO.C,J6*%
X93427241Y-96021365D03*
%TD*%
%TO.C,J14*%
X93427241Y-122218635D03*
%TD*%
D14*
%TO.C,C17*%
X100650000Y-70550000D03*
X101610000Y-70550000D03*
%TD*%
D13*
%TO.C,J5*%
X93427241Y-85738635D03*
%TD*%
D20*
%TO.C,C2*%
X100250000Y-99225000D03*
X100250000Y-100775000D03*
%TD*%
D16*
%TO.C,R21*%
X100790000Y-110480000D03*
X101810000Y-110480000D03*
%TD*%
D13*
%TO.C,J8*%
X106572759Y-96021365D03*
%TD*%
D16*
%TO.C,R19*%
X96940000Y-107180000D03*
X97960000Y-107180000D03*
%TD*%
D18*
%TO.C,U2*%
X99162500Y-89940000D03*
X99162500Y-90590000D03*
X99162500Y-91240000D03*
X100837500Y-91240000D03*
X100837500Y-89940000D03*
%TD*%
%TO.C,U1*%
X99162500Y-71700000D03*
X99162500Y-72350000D03*
X99162500Y-73000000D03*
X100837500Y-73000000D03*
X100837500Y-71700000D03*
%TD*%
D16*
%TO.C,R23*%
X98650000Y-128720000D03*
X99670000Y-128720000D03*
%TD*%
D14*
%TO.C,C18*%
X100650000Y-88790000D03*
X101610000Y-88790000D03*
%TD*%
D21*
%TO.C,J9*%
X94900000Y-57250000D03*
D22*
X96900000Y-57250000D03*
X98900000Y-57250000D03*
X100900000Y-57250000D03*
X102900000Y-57250000D03*
X104900000Y-57250000D03*
%TD*%
%LPD*%
M02*
