%TF.GenerationSoftware,KiCad,Pcbnew,10.0.5*%
%TF.CreationDate,2026-08-17T17:58:04-07:00*%
%TF.ProjectId,OPA376 String Preamp,4f504133-3736-4205-9374-72696e672050,rev?*%
%TF.SameCoordinates,Original*%
%TF.FileFunction,Copper,L1,Top*%
%TF.FilePolarity,Positive*%
%FSLAX46Y46*%
G04 Gerber Fmt 4.6, Leading zero omitted, Abs format (unit mm)*
G04 Created by KiCad (PCBNEW 10.0.5) date 2026-08-17 17:58:04*
%MOMM*%
%LPD*%
G01*
G04 APERTURE LIST*
G04 Aperture macros list*
%AMRoundRect*
0 Rectangle with rounded corners*
0 $1 Rounding radius*
0 $2 $3 $4 $5 $6 $7 $8 $9 X,Y pos of 4 corners*
0 Add a 4 corners polygon primitive as box body*
4,1,4,$2,$3,$4,$5,$6,$7,$8,$9,$2,$3,0*
0 Add four circle primitives for the rounded corners*
1,1,$1+$1,$2,$3*
1,1,$1+$1,$4,$5*
1,1,$1+$1,$6,$7*
1,1,$1+$1,$8,$9*
0 Add four rect primitives between the rounded corners*
20,1,$1+$1,$2,$3,$4,$5,0*
20,1,$1+$1,$4,$5,$6,$7,0*
20,1,$1+$1,$6,$7,$8,$9,0*
20,1,$1+$1,$8,$9,$2,$3,0*%
G04 Aperture macros list end*
%TA.AperFunction,ComponentPad*%
%ADD10RoundRect,0.191177X-0.458823X-0.458823X0.458823X-0.458823X0.458823X0.458823X-0.458823X0.458823X0*%
%TD*%
%TA.AperFunction,SMDPad,CuDef*%
%ADD11RoundRect,0.140000X-0.140000X-0.170000X0.140000X-0.170000X0.140000X0.170000X-0.140000X0.170000X0*%
%TD*%
%TA.AperFunction,SMDPad,CuDef*%
%ADD12RoundRect,0.135000X-0.185000X0.135000X-0.185000X-0.135000X0.185000X-0.135000X0.185000X0.135000X0*%
%TD*%
%TA.AperFunction,SMDPad,CuDef*%
%ADD13RoundRect,0.135000X-0.135000X-0.185000X0.135000X-0.185000X0.135000X0.185000X-0.135000X0.185000X0*%
%TD*%
%TA.AperFunction,SMDPad,CuDef*%
%ADD14RoundRect,0.225000X-0.225000X-0.250000X0.225000X-0.250000X0.225000X0.250000X-0.225000X0.250000X0*%
%TD*%
%TA.AperFunction,SMDPad,CuDef*%
%ADD15RoundRect,0.087500X-0.425000X-0.087500X0.425000X-0.087500X0.425000X0.087500X-0.425000X0.087500X0*%
%TD*%
%TA.AperFunction,SMDPad,CuDef*%
%ADD16RoundRect,0.135000X0.185000X-0.135000X0.185000X0.135000X-0.185000X0.135000X-0.185000X-0.135000X0*%
%TD*%
%TA.AperFunction,SMDPad,CuDef*%
%ADD17RoundRect,0.225000X-0.250000X0.225000X-0.250000X-0.225000X0.250000X-0.225000X0.250000X0.225000X0*%
%TD*%
%TA.AperFunction,ComponentPad*%
%ADD18R,1.350000X1.350000*%
%TD*%
%TA.AperFunction,ComponentPad*%
%ADD19C,1.350000*%
%TD*%
%TA.AperFunction,ViaPad*%
%ADD20C,0.600000*%
%TD*%
%TA.AperFunction,Conductor*%
%ADD21C,0.200000*%
%TD*%
%TA.AperFunction,Conductor*%
%ADD22C,0.500000*%
%TD*%
G04 APERTURE END LIST*
D10*
%TO.P,J7,1,Pin_1_1*%
%TO.N,Net-(J6-Pin_1)*%
X106572759Y-85738635D03*
%TD*%
D11*
%TO.P,C16,1*%
%TO.N,GND*%
X97020000Y-126370000D03*
%TO.P,C16,2*%
%TO.N,Net-(U4-+)*%
X97980000Y-126370000D03*
%TD*%
%TO.P,C20,1*%
%TO.N,/SIngle FET preamp/3.3V*%
X100650000Y-125270000D03*
%TO.P,C20,2*%
%TO.N,GND*%
X101610000Y-125270000D03*
%TD*%
D12*
%TO.P,R2,1*%
%TO.N,/SIngle FET preamp/MidRail*%
X102700000Y-99490000D03*
%TO.P,R2,2*%
%TO.N,GND*%
X102700000Y-100510000D03*
%TD*%
D10*
%TO.P,J4,1,Pin_1_1*%
%TO.N,Net-(J3-Pin_1)*%
X106572759Y-67498635D03*
%TD*%
%TO.P,J13,1,Pin_1_1*%
%TO.N,/SIngle FET preamp/MidRail*%
X106572759Y-114261365D03*
%TD*%
D13*
%TO.P,R22,1*%
%TO.N,Net-(J14-Pin_1)*%
X96940000Y-125420000D03*
%TO.P,R22,2*%
%TO.N,Net-(U4-+)*%
X97960000Y-125420000D03*
%TD*%
%TO.P,R18,1*%
%TO.N,Net-(U2--)*%
X100790000Y-92240000D03*
%TO.P,R18,2*%
%TO.N,/SIngle FET preamp1/Output*%
X101810000Y-92240000D03*
%TD*%
D11*
%TO.P,C19,1*%
%TO.N,/SIngle FET preamp/3.3V*%
X100650000Y-107030000D03*
%TO.P,C19,2*%
%TO.N,GND*%
X101610000Y-107030000D03*
%TD*%
D14*
%TO.P,C11,1*%
%TO.N,GND*%
X95822889Y-91555000D03*
%TO.P,C11,2*%
%TO.N,Net-(C11-Pad2)*%
X97372889Y-91555000D03*
%TD*%
D13*
%TO.P,R15,1*%
%TO.N,Net-(U1--)*%
X100790000Y-74000000D03*
%TO.P,R15,2*%
%TO.N,/SIngle FET preamp/Output*%
X101810000Y-74000000D03*
%TD*%
D11*
%TO.P,C14,1*%
%TO.N,GND*%
X97020000Y-108130000D03*
%TO.P,C14,2*%
%TO.N,Net-(U3-+)*%
X97980000Y-108130000D03*
%TD*%
D14*
%TO.P,C13,1*%
%TO.N,GND*%
X95722889Y-109845000D03*
%TO.P,C13,2*%
%TO.N,Net-(C13-Pad2)*%
X97272889Y-109845000D03*
%TD*%
D13*
%TO.P,R16,1*%
%TO.N,Net-(J5-Pin_1)*%
X96940000Y-88940000D03*
%TO.P,R16,2*%
%TO.N,Net-(U2-+)*%
X97960000Y-88940000D03*
%TD*%
%TO.P,R14,1*%
%TO.N,Net-(C1-Pad2)*%
X98650000Y-74000000D03*
%TO.P,R14,2*%
%TO.N,Net-(U1--)*%
X99670000Y-74000000D03*
%TD*%
%TO.P,R13,1*%
%TO.N,Net-(J1-Pin_1)*%
X96940000Y-70700000D03*
%TO.P,R13,2*%
%TO.N,Net-(U1-+)*%
X97960000Y-70700000D03*
%TD*%
%TO.P,R24,1*%
%TO.N,Net-(U4--)*%
X100790000Y-128720000D03*
%TO.P,R24,2*%
%TO.N,/SIngle FET preamp3/Output*%
X101810000Y-128720000D03*
%TD*%
D10*
%TO.P,J17,1,Pin_1_1*%
%TO.N,/SIngle FET preamp/MidRail*%
X106572759Y-132501365D03*
%TD*%
%TO.P,J15,1,Pin_1_1*%
%TO.N,Net-(J15-Pin_1)*%
X93427241Y-132501365D03*
%TD*%
%TO.P,J16,1,Pin_1_1*%
%TO.N,Net-(J15-Pin_1)*%
X106572759Y-122218635D03*
%TD*%
D15*
%TO.P,U4,1,+_1*%
%TO.N,Net-(U4-+)*%
X99162500Y-126420000D03*
%TO.P,U4,2,V-_2*%
%TO.N,/SIngle FET preamp/3.3V*%
X99162500Y-127070000D03*
%TO.P,U4,3,-_3*%
%TO.N,Net-(U4--)*%
X99162500Y-127720000D03*
%TO.P,U4,4*%
%TO.N,/SIngle FET preamp3/Output*%
X100837500Y-127720000D03*
%TO.P,U4,5,V+_5*%
%TO.N,GND*%
X100837500Y-126420000D03*
%TD*%
D10*
%TO.P,J12,1,Pin_1_1*%
%TO.N,Net-(J11-Pin_1)*%
X106572759Y-103978635D03*
%TD*%
%TO.P,J1,1,Pin_1_1*%
%TO.N,Net-(J1-Pin_1)*%
X93427241Y-67498635D03*
%TD*%
D14*
%TO.P,C1,1*%
%TO.N,GND*%
X95822889Y-73815000D03*
%TO.P,C1,2*%
%TO.N,Net-(C1-Pad2)*%
X97372889Y-73815000D03*
%TD*%
D16*
%TO.P,R1,1*%
%TO.N,/SIngle FET preamp/3.3V*%
X101600000Y-100510000D03*
%TO.P,R1,2*%
%TO.N,/SIngle FET preamp/MidRail*%
X101600000Y-99490000D03*
%TD*%
D10*
%TO.P,J2,1,Pin_1_1*%
%TO.N,/SIngle FET preamp/MidRail*%
X106572759Y-77781365D03*
%TD*%
D13*
%TO.P,R20,1*%
%TO.N,Net-(C13-Pad2)*%
X98650000Y-110480000D03*
%TO.P,R20,2*%
%TO.N,Net-(U3--)*%
X99670000Y-110480000D03*
%TD*%
D10*
%TO.P,J11,1,Pin_1_1*%
%TO.N,Net-(J11-Pin_1)*%
X93427241Y-114261365D03*
%TD*%
%TO.P,J10,1,Pin_1_1*%
%TO.N,Net-(J10-Pin_1)*%
X93427241Y-103978635D03*
%TD*%
%TO.P,J3,1,Pin_1_1*%
%TO.N,Net-(J3-Pin_1)*%
X93427241Y-77781365D03*
%TD*%
D11*
%TO.P,C12,1*%
%TO.N,GND*%
X97020000Y-89890000D03*
%TO.P,C12,2*%
%TO.N,Net-(U2-+)*%
X97980000Y-89890000D03*
%TD*%
D14*
%TO.P,C15,1*%
%TO.N,GND*%
X95722889Y-128035000D03*
%TO.P,C15,2*%
%TO.N,Net-(C15-Pad2)*%
X97272889Y-128035000D03*
%TD*%
D15*
%TO.P,U3,1,+_1*%
%TO.N,Net-(U3-+)*%
X99162500Y-108180000D03*
%TO.P,U3,2,V-_2*%
%TO.N,/SIngle FET preamp/3.3V*%
X99162500Y-108830000D03*
%TO.P,U3,3,-_3*%
%TO.N,Net-(U3--)*%
X99162500Y-109480000D03*
%TO.P,U3,4*%
%TO.N,/SIngle FET preamp2/Output*%
X100837500Y-109480000D03*
%TO.P,U3,5,V+_5*%
%TO.N,GND*%
X100837500Y-108180000D03*
%TD*%
D13*
%TO.P,R17,1*%
%TO.N,Net-(C11-Pad2)*%
X98650000Y-92240000D03*
%TO.P,R17,2*%
%TO.N,Net-(U2--)*%
X99670000Y-92240000D03*
%TD*%
D11*
%TO.P,C10,1*%
%TO.N,GND*%
X97020000Y-71650000D03*
%TO.P,C10,2*%
%TO.N,Net-(U1-+)*%
X97980000Y-71650000D03*
%TD*%
D10*
%TO.P,J6,1,Pin_1_1*%
%TO.N,Net-(J6-Pin_1)*%
X93427241Y-96021365D03*
%TD*%
%TO.P,J14,1,Pin_1_1*%
%TO.N,Net-(J14-Pin_1)*%
X93427241Y-122218635D03*
%TD*%
D11*
%TO.P,C17,1*%
%TO.N,/SIngle FET preamp/3.3V*%
X100650000Y-70550000D03*
%TO.P,C17,2*%
%TO.N,GND*%
X101610000Y-70550000D03*
%TD*%
D10*
%TO.P,J5,1,Pin_1_1*%
%TO.N,Net-(J5-Pin_1)*%
X93427241Y-85738635D03*
%TD*%
D17*
%TO.P,C2,1*%
%TO.N,/SIngle FET preamp/MidRail*%
X100250000Y-99225000D03*
%TO.P,C2,2*%
%TO.N,GND*%
X100250000Y-100775000D03*
%TD*%
D13*
%TO.P,R21,1*%
%TO.N,Net-(U3--)*%
X100790000Y-110480000D03*
%TO.P,R21,2*%
%TO.N,/SIngle FET preamp2/Output*%
X101810000Y-110480000D03*
%TD*%
D10*
%TO.P,J8,1,Pin_1_1*%
%TO.N,/SIngle FET preamp/MidRail*%
X106572759Y-96021365D03*
%TD*%
D13*
%TO.P,R19,1*%
%TO.N,Net-(J10-Pin_1)*%
X96940000Y-107180000D03*
%TO.P,R19,2*%
%TO.N,Net-(U3-+)*%
X97960000Y-107180000D03*
%TD*%
D15*
%TO.P,U2,1,+_1*%
%TO.N,Net-(U2-+)*%
X99162500Y-89940000D03*
%TO.P,U2,2,V-_2*%
%TO.N,/SIngle FET preamp/3.3V*%
X99162500Y-90590000D03*
%TO.P,U2,3,-_3*%
%TO.N,Net-(U2--)*%
X99162500Y-91240000D03*
%TO.P,U2,4*%
%TO.N,/SIngle FET preamp1/Output*%
X100837500Y-91240000D03*
%TO.P,U2,5,V+_5*%
%TO.N,GND*%
X100837500Y-89940000D03*
%TD*%
%TO.P,U1,1,+_1*%
%TO.N,Net-(U1-+)*%
X99162500Y-71700000D03*
%TO.P,U1,2,V-_2*%
%TO.N,/SIngle FET preamp/3.3V*%
X99162500Y-72350000D03*
%TO.P,U1,3,-_3*%
%TO.N,Net-(U1--)*%
X99162500Y-73000000D03*
%TO.P,U1,4*%
%TO.N,/SIngle FET preamp/Output*%
X100837500Y-73000000D03*
%TO.P,U1,5,V+_5*%
%TO.N,GND*%
X100837500Y-71700000D03*
%TD*%
D13*
%TO.P,R23,1*%
%TO.N,Net-(C15-Pad2)*%
X98650000Y-128720000D03*
%TO.P,R23,2*%
%TO.N,Net-(U4--)*%
X99670000Y-128720000D03*
%TD*%
D11*
%TO.P,C18,1*%
%TO.N,/SIngle FET preamp/3.3V*%
X100650000Y-88790000D03*
%TO.P,C18,2*%
%TO.N,GND*%
X101610000Y-88790000D03*
%TD*%
D18*
%TO.P,J9,1,Pin_1_1*%
%TO.N,GND*%
X94900000Y-57250000D03*
D19*
%TO.P,J9,2,Pin_2_2*%
%TO.N,/SIngle FET preamp3/Output*%
X96900000Y-57250000D03*
%TO.P,J9,3,Pin_3_3*%
%TO.N,/SIngle FET preamp2/Output*%
X98900000Y-57250000D03*
%TO.P,J9,4,Pin_4_4*%
%TO.N,/SIngle FET preamp1/Output*%
X100900000Y-57250000D03*
%TO.P,J9,5,Pin_5_5*%
%TO.N,/SIngle FET preamp/Output*%
X102900000Y-57250000D03*
%TO.P,J9,6,Pin_6_6*%
%TO.N,/SIngle FET preamp/3.3V*%
X104900000Y-57250000D03*
%TD*%
D20*
%TO.N,GND*%
X95297889Y-108145000D03*
X95097889Y-89555000D03*
X94300000Y-135900000D03*
X110100000Y-76450000D03*
X101950000Y-71450000D03*
X101900000Y-108100000D03*
X95100000Y-118500000D03*
X94650000Y-99900000D03*
X90300000Y-116600000D03*
X106950000Y-64150000D03*
X99750000Y-81550000D03*
X110600000Y-116250000D03*
X104250000Y-136250000D03*
X90350000Y-76550000D03*
X104000000Y-142100000D03*
X95097889Y-72165000D03*
X94600000Y-81250000D03*
X100000000Y-64850000D03*
X101850000Y-89750000D03*
X106700000Y-82250000D03*
X109500000Y-84200000D03*
X95347889Y-126235000D03*
X102050000Y-126100000D03*
X94750000Y-64750000D03*
X94350000Y-142000000D03*
X102100000Y-118800000D03*
X107450000Y-57750000D03*
%TO.N,/SIngle FET preamp/3.3V*%
X102550000Y-124350000D03*
X102450000Y-69250000D03*
X102450000Y-87500000D03*
X102650000Y-106200000D03*
X101600000Y-101550000D03*
%TO.N,/SIngle FET preamp1/Output*%
X105800000Y-75300000D03*
%TO.N,/SIngle FET preamp/Output*%
X105350000Y-67800000D03*
%TO.N,/SIngle FET preamp3/Output*%
X104447889Y-124785000D03*
%TO.N,/SIngle FET preamp2/Output*%
X104950000Y-106495000D03*
%TD*%
%TO.N,/SIngle FET preamp/MidRail*%
D21*
X104825000Y-99475000D02*
X107900000Y-102550000D01*
X107900000Y-102550000D02*
X107900000Y-129900000D01*
X107900000Y-129900000D02*
X106572759Y-131227241D01*
X106572759Y-131227241D02*
X106572759Y-132501365D01*
X107500000Y-111887013D02*
X107500000Y-112329902D01*
X107500000Y-112329902D02*
X106572759Y-113257143D01*
X106572759Y-113257143D02*
X106572759Y-114261365D01*
X105560000Y-99490000D02*
X107900000Y-97150000D01*
X107900000Y-97150000D02*
X107900000Y-80441495D01*
X107900000Y-80441495D02*
X106572759Y-79114254D01*
X106572759Y-79114254D02*
X106572759Y-77781365D01*
%TO.N,/SIngle FET preamp/3.3V*%
X102450000Y-69250000D02*
X102600000Y-69250000D01*
X102600000Y-69250000D02*
X105850000Y-66000000D01*
X105850000Y-66000000D02*
X105850000Y-63350000D01*
X105850000Y-63350000D02*
X104900000Y-62400000D01*
X104900000Y-62400000D02*
X104900000Y-57250000D01*
%TO.N,/SIngle FET preamp1/Output*%
X101810000Y-92240000D02*
X101810000Y-91590000D01*
X101810000Y-91590000D02*
X104450000Y-88950000D01*
X104450000Y-88950000D02*
X104450000Y-86400000D01*
X104450000Y-86400000D02*
X105550000Y-85300000D01*
X105550000Y-85300000D02*
X105550000Y-75804222D01*
X105550000Y-75804222D02*
X105547889Y-75802111D01*
%TO.N,Net-(J6-Pin_1)*%
X103750000Y-91340000D02*
X106572759Y-88517241D01*
X95918635Y-96021365D02*
X97450000Y-94490000D01*
X93427241Y-96021365D02*
X95918635Y-96021365D01*
X102050000Y-94490000D02*
X103750000Y-92790000D01*
X103750000Y-92790000D02*
X103750000Y-91340000D01*
X106572759Y-88517241D02*
X106572759Y-85738635D01*
X97450000Y-94490000D02*
X102050000Y-94490000D01*
%TO.N,GND*%
X102050000Y-125710000D02*
X101610000Y-125270000D01*
X101660000Y-89940000D02*
X101850000Y-89750000D01*
X101900000Y-107320000D02*
X101610000Y-107030000D01*
X101610000Y-89167500D02*
X100837500Y-89940000D01*
X101610000Y-88790000D02*
X101610000Y-89167500D01*
X100837500Y-126420000D02*
X101730000Y-126420000D01*
X101610000Y-70927500D02*
X100837500Y-71700000D01*
X101610000Y-70550000D02*
X101610000Y-70927500D01*
X102050000Y-126100000D02*
X102050000Y-125710000D01*
X101700000Y-71700000D02*
X101950000Y-71450000D01*
X100837500Y-89940000D02*
X101660000Y-89940000D01*
X100837500Y-71700000D02*
X101700000Y-71700000D01*
X100917500Y-108100000D02*
X100837500Y-108180000D01*
X101730000Y-126420000D02*
X102050000Y-126100000D01*
X101900000Y-108100000D02*
X100917500Y-108100000D01*
X101900000Y-108100000D02*
X101900000Y-107320000D01*
%TO.N,Net-(U4-+)*%
X99112500Y-126370000D02*
X99162500Y-126420000D01*
X97960000Y-125420000D02*
X97960000Y-126350000D01*
X97980000Y-126370000D02*
X99112500Y-126370000D01*
X97960000Y-126350000D02*
X97980000Y-126370000D01*
%TO.N,/SIngle FET preamp/3.3V*%
X100750000Y-69650000D02*
X100650000Y-69750000D01*
X100820000Y-125220000D02*
X100100000Y-125220000D01*
X99674999Y-108830000D02*
X100000000Y-108504999D01*
X101600000Y-100510000D02*
X101600000Y-101550000D01*
X99162500Y-127070000D02*
X99674999Y-127070000D01*
X99674999Y-72350000D02*
X100000000Y-72024999D01*
X100650000Y-69750000D02*
X100650000Y-70550000D01*
X99674999Y-90590000D02*
X100000000Y-90264999D01*
X99162500Y-108830000D02*
X99674999Y-108830000D01*
X100600000Y-88740000D02*
X100650000Y-88790000D01*
X99162500Y-72350000D02*
X99674999Y-72350000D01*
X100820000Y-106980000D02*
X100100000Y-106980000D01*
X99162500Y-90590000D02*
X99674999Y-90590000D01*
X100650000Y-125270000D02*
X100650000Y-124800000D01*
X102650000Y-106200000D02*
X101480000Y-106200000D01*
X100100000Y-106980000D02*
X100000000Y-107080000D01*
X100100000Y-88740000D02*
X100000000Y-88840000D01*
X102050000Y-69650000D02*
X100750000Y-69650000D01*
X102450000Y-87500000D02*
X101050000Y-87500000D01*
X102550000Y-124350000D02*
X101100000Y-124350000D01*
X100100000Y-70500000D02*
X100000000Y-70600000D01*
X100650000Y-124800000D02*
X101100000Y-124350000D01*
X100000000Y-126744999D02*
X100000000Y-125320000D01*
X104900000Y-57250000D02*
X105050000Y-57250000D01*
X100000000Y-72024999D02*
X100000000Y-70600000D01*
X101480000Y-106200000D02*
X100650000Y-107030000D01*
X100820000Y-88740000D02*
X100100000Y-88740000D01*
X100100000Y-125220000D02*
X100000000Y-125320000D01*
X99674999Y-127070000D02*
X100000000Y-126744999D01*
X100000000Y-108504999D02*
X100000000Y-107080000D01*
X100600000Y-87950000D02*
X100600000Y-88740000D01*
X101050000Y-87500000D02*
X100600000Y-87950000D01*
X100000000Y-90264999D02*
X100000000Y-88840000D01*
X100820000Y-70500000D02*
X100100000Y-70500000D01*
X102450000Y-69250000D02*
X102050000Y-69650000D01*
%TO.N,/SIngle FET preamp/MidRail*%
X106659254Y-114347860D02*
X106572759Y-114261365D01*
X101750000Y-99340000D02*
X101600000Y-99490000D01*
X106572759Y-114261365D02*
X106661365Y-114261365D01*
X101335000Y-99225000D02*
X101600000Y-99490000D01*
X106659254Y-114706365D02*
X106659254Y-114347860D01*
X106564254Y-96021365D02*
X106547889Y-96005000D01*
X106572759Y-114261365D02*
X106572759Y-114669870D01*
X100250000Y-99225000D02*
X101335000Y-99225000D01*
D22*
X102700000Y-99490000D02*
X105560000Y-99490000D01*
D21*
X106572759Y-96021365D02*
X106564254Y-96021365D01*
X104140000Y-99490000D02*
X107500000Y-102850000D01*
X106598635Y-132501365D02*
X106572759Y-132501365D01*
X103551235Y-99490000D02*
X106574870Y-96466365D01*
X101600000Y-99490000D02*
X102700000Y-99490000D01*
X107500000Y-102850000D02*
X107500000Y-111887013D01*
%TO.N,Net-(J3-Pin_1)*%
X103750000Y-74550000D02*
X103750000Y-73100000D01*
X93427241Y-77781365D02*
X95918635Y-77781365D01*
X97450000Y-76250000D02*
X102050000Y-76250000D01*
X102050000Y-76250000D02*
X103750000Y-74550000D01*
X103750000Y-73100000D02*
X106572759Y-70277241D01*
X95918635Y-77781365D02*
X97450000Y-76250000D01*
X106572759Y-70277241D02*
X106572759Y-67498635D01*
%TO.N,Net-(J14-Pin_1)*%
X93427241Y-122218635D02*
X96628606Y-125420000D01*
X96628606Y-125420000D02*
X96940000Y-125420000D01*
%TO.N,Net-(U2--)*%
X99670000Y-91747500D02*
X99162500Y-91240000D01*
X100790000Y-92240000D02*
X99670000Y-92240000D01*
X99670000Y-92240000D02*
X99670000Y-91747500D01*
%TO.N,/SIngle FET preamp1/Output*%
X101810000Y-92212500D02*
X100837500Y-91240000D01*
X105547889Y-75802111D02*
X105800000Y-75550000D01*
X105800000Y-75550000D02*
X105800000Y-75300000D01*
X101810000Y-92240000D02*
X101810000Y-92212500D01*
%TO.N,Net-(C11-Pad2)*%
X98620000Y-92270000D02*
X98650000Y-92240000D01*
X97985025Y-92240000D02*
X97336457Y-91591432D01*
X98650000Y-92240000D02*
X97985025Y-92240000D01*
%TO.N,Net-(U1--)*%
X99670000Y-74000000D02*
X99670000Y-73507500D01*
X99670000Y-73507500D02*
X99162500Y-73000000D01*
X100790000Y-74000000D02*
X99670000Y-74000000D01*
%TO.N,/SIngle FET preamp/Output*%
X105350000Y-69750000D02*
X105350000Y-67800000D01*
X101810000Y-74000000D02*
X101810000Y-73290000D01*
X101810000Y-74000000D02*
X101810000Y-73972500D01*
X101810000Y-73290000D02*
X105350000Y-69750000D01*
X101810000Y-73972500D02*
X100837500Y-73000000D01*
%TO.N,Net-(U3-+)*%
X99112500Y-108130000D02*
X99162500Y-108180000D01*
X97960000Y-107180000D02*
X97960000Y-108110000D01*
X97980000Y-108130000D02*
X99112500Y-108130000D01*
X97960000Y-108110000D02*
X97980000Y-108130000D01*
%TO.N,Net-(C13-Pad2)*%
X98650000Y-110480000D02*
X97907889Y-110480000D01*
X98620000Y-110510000D02*
X98650000Y-110480000D01*
X97907889Y-110480000D02*
X97272889Y-109845000D01*
%TO.N,Net-(J5-Pin_1)*%
X96628606Y-88940000D02*
X96940000Y-88940000D01*
X93427241Y-85738635D02*
X96628606Y-88940000D01*
%TO.N,Net-(U2-+)*%
X99112500Y-89890000D02*
X99162500Y-89940000D01*
X97980000Y-89890000D02*
X99112500Y-89890000D01*
X97960000Y-88940000D02*
X97960000Y-89870000D01*
X97960000Y-89870000D02*
X97980000Y-89890000D01*
%TO.N,Net-(C1-Pad2)*%
X97557889Y-74000000D02*
X97372889Y-73815000D01*
X98650000Y-74000000D02*
X97557889Y-74000000D01*
X98620000Y-74030000D02*
X98650000Y-74000000D01*
%TO.N,Net-(J1-Pin_1)*%
X93427241Y-67498635D02*
X96628606Y-70700000D01*
X96628606Y-70700000D02*
X96940000Y-70700000D01*
%TO.N,Net-(U1-+)*%
X99112500Y-71650000D02*
X99162500Y-71700000D01*
X97980000Y-71650000D02*
X99112500Y-71650000D01*
X97960000Y-70700000D02*
X97960000Y-71630000D01*
X97960000Y-71630000D02*
X97980000Y-71650000D01*
%TO.N,Net-(U4--)*%
X100790000Y-128720000D02*
X99670000Y-128720000D01*
X99670000Y-128227500D02*
X99162500Y-127720000D01*
X99670000Y-128720000D02*
X99670000Y-128227500D01*
%TO.N,/SIngle FET preamp3/Output*%
X101810000Y-128440000D02*
X101810000Y-128720000D01*
X103700000Y-126550000D02*
X101810000Y-128440000D01*
X104447889Y-124785000D02*
X103700000Y-125532889D01*
X103700000Y-125532889D02*
X103700000Y-126550000D01*
X101810000Y-128692500D02*
X100837500Y-127720000D01*
X101810000Y-128720000D02*
X101810000Y-128692500D01*
%TO.N,Net-(J15-Pin_1)*%
X102050000Y-130970000D02*
X103750000Y-129270000D01*
X106572759Y-124997241D02*
X106572759Y-122218635D01*
X103750000Y-129270000D02*
X103750000Y-127820000D01*
X97450000Y-130970000D02*
X102050000Y-130970000D01*
X93427241Y-132501365D02*
X95918635Y-132501365D01*
X103750000Y-127820000D02*
X106572759Y-124997241D01*
X95918635Y-132501365D02*
X97450000Y-130970000D01*
%TO.N,Net-(J11-Pin_1)*%
X106572759Y-106757241D02*
X106572759Y-103978635D01*
X97450000Y-112730000D02*
X102050000Y-112730000D01*
X102050000Y-112730000D02*
X103750000Y-111030000D01*
X93427241Y-114261365D02*
X95918635Y-114261365D01*
X95918635Y-114261365D02*
X97450000Y-112730000D01*
X103750000Y-111030000D02*
X103750000Y-109580000D01*
X103750000Y-109580000D02*
X106572759Y-106757241D01*
%TO.N,Net-(U3--)*%
X99670000Y-109987500D02*
X99162500Y-109480000D01*
X99670000Y-110480000D02*
X99670000Y-109987500D01*
X100790000Y-110480000D02*
X99670000Y-110480000D01*
%TO.N,Net-(J10-Pin_1)*%
X93427241Y-103978635D02*
X96628606Y-107180000D01*
X96628606Y-107180000D02*
X96940000Y-107180000D01*
%TO.N,Net-(C15-Pad2)*%
X97957889Y-128720000D02*
X97272889Y-128035000D01*
X98620000Y-128750000D02*
X98650000Y-128720000D01*
X98650000Y-128720000D02*
X97957889Y-128720000D01*
%TO.N,/SIngle FET preamp2/Output*%
X101810000Y-109890000D02*
X101810000Y-110480000D01*
X104950000Y-106745778D02*
X104952111Y-106747889D01*
X104950000Y-106495000D02*
X104950000Y-106745778D01*
X104952111Y-106747889D02*
X101810000Y-109890000D01*
X101810000Y-110480000D02*
X101810000Y-110452500D01*
X101810000Y-110452500D02*
X100837500Y-109480000D01*
%TD*%
%TA.AperFunction,Conductor*%
%TO.N,GND*%
G36*
X106039033Y-78679830D02*
G01*
X106060734Y-78681865D01*
X106098258Y-78681864D01*
X106165296Y-78701547D01*
X106211052Y-78754350D01*
X106222259Y-78805864D01*
X106222259Y-79160397D01*
X106236852Y-79214862D01*
X106246144Y-79249539D01*
X106246146Y-79249544D01*
X106292286Y-79329462D01*
X106292290Y-79329467D01*
X107513181Y-80550358D01*
X107546666Y-80611681D01*
X107549500Y-80638039D01*
X107549500Y-84867480D01*
X107529815Y-84934519D01*
X107477011Y-84980274D01*
X107407853Y-84990218D01*
X107351867Y-84967251D01*
X107347423Y-84963971D01*
X107240295Y-84884908D01*
X107240291Y-84884906D01*
X107240290Y-84884906D01*
X107114623Y-84840932D01*
X107084788Y-84838135D01*
X106060733Y-84838135D01*
X106036067Y-84840447D01*
X105967484Y-84827102D01*
X105917003Y-84778797D01*
X105900500Y-84716988D01*
X105900500Y-78803011D01*
X105920185Y-78735972D01*
X105972989Y-78690217D01*
X106036078Y-78679553D01*
X106039033Y-78679830D01*
G37*
%TD.AperFunction*%
%TA.AperFunction,Conductor*%
G36*
X104718834Y-67729361D02*
G01*
X104774767Y-67771233D01*
X104799184Y-67836697D01*
X104799500Y-67845543D01*
X104799500Y-67872475D01*
X104836526Y-68010656D01*
X104837017Y-68012488D01*
X104909488Y-68138011D01*
X104909493Y-68138017D01*
X104963181Y-68191705D01*
X104996666Y-68253028D01*
X104999500Y-68279386D01*
X104999500Y-69553455D01*
X104979815Y-69620494D01*
X104963181Y-69641136D01*
X101778591Y-72825725D01*
X101717268Y-72859210D01*
X101647576Y-72854226D01*
X101591643Y-72812354D01*
X101578528Y-72790449D01*
X101549129Y-72727404D01*
X101543644Y-72715641D01*
X101459359Y-72631356D01*
X101381343Y-72594976D01*
X101328905Y-72548805D01*
X101309753Y-72481611D01*
X101329969Y-72414730D01*
X101383134Y-72369395D01*
X101408105Y-72362332D01*
X101408012Y-72361984D01*
X101415871Y-72359877D01*
X101558780Y-72300683D01*
X101558786Y-72300680D01*
X101681509Y-72206510D01*
X101681510Y-72206509D01*
X101775680Y-72083786D01*
X101775683Y-72083780D01*
X101834878Y-71940868D01*
X101843551Y-71875000D01*
X100961500Y-71875000D01*
X100894461Y-71855315D01*
X100848706Y-71802511D01*
X100837500Y-71751000D01*
X100837500Y-71649000D01*
X100857185Y-71581961D01*
X100909989Y-71536206D01*
X100961500Y-71525000D01*
X101843549Y-71525000D01*
X101843549Y-71524999D01*
X101836434Y-71470945D01*
X101847200Y-71401910D01*
X101893580Y-71349655D01*
X101924780Y-71335684D01*
X102006193Y-71312032D01*
X102006195Y-71312031D01*
X102145374Y-71229721D01*
X102145383Y-71229714D01*
X102259714Y-71115383D01*
X102259721Y-71115374D01*
X102342031Y-70976195D01*
X102342033Y-70976190D01*
X102387144Y-70820918D01*
X102387145Y-70820912D01*
X102388790Y-70800000D01*
X101734000Y-70800000D01*
X101666961Y-70780315D01*
X101621206Y-70727511D01*
X101610000Y-70676000D01*
X101610000Y-70424000D01*
X101629685Y-70356961D01*
X101682489Y-70311206D01*
X101734000Y-70300000D01*
X102388790Y-70300000D01*
X102387145Y-70279089D01*
X102342031Y-70123804D01*
X102290598Y-70036835D01*
X102273415Y-69969111D01*
X102295575Y-69902848D01*
X102309649Y-69886033D01*
X102358863Y-69836819D01*
X102420186Y-69803334D01*
X102446544Y-69800500D01*
X102522472Y-69800500D01*
X102522475Y-69800500D01*
X102662485Y-69762984D01*
X102788015Y-69690509D01*
X102890509Y-69588015D01*
X102962984Y-69462485D01*
X102983589Y-69385583D01*
X103015680Y-69330000D01*
X104587820Y-67757861D01*
X104649142Y-67724377D01*
X104718834Y-67729361D01*
G37*
%TD.AperFunction*%
%TA.AperFunction,Conductor*%
G36*
X107021042Y-53645765D02*
G01*
X107035399Y-53646705D01*
X107248615Y-53660680D01*
X107258094Y-53661671D01*
X107309679Y-53669088D01*
X107316143Y-53670195D01*
X107512794Y-53709311D01*
X107523485Y-53711938D01*
X107565755Y-53724350D01*
X107570617Y-53725887D01*
X107768997Y-53793228D01*
X107780602Y-53797835D01*
X107803855Y-53808454D01*
X107807182Y-53810034D01*
X108009460Y-53909787D01*
X108023506Y-53917897D01*
X108227460Y-54054174D01*
X108240329Y-54064048D01*
X108424749Y-54225781D01*
X108436218Y-54237250D01*
X108597951Y-54421670D01*
X108607825Y-54434539D01*
X108744102Y-54638493D01*
X108752212Y-54652539D01*
X108851964Y-54854816D01*
X108853544Y-54858143D01*
X108860183Y-54872679D01*
X108864155Y-54881377D01*
X108868780Y-54893027D01*
X108936099Y-55091346D01*
X108937656Y-55096268D01*
X108950054Y-55138490D01*
X108952694Y-55149235D01*
X108991796Y-55345818D01*
X108992917Y-55352362D01*
X109000325Y-55403885D01*
X109001321Y-55413422D01*
X109016234Y-55640941D01*
X109016500Y-55649051D01*
X109016500Y-73955228D01*
X109015771Y-73964515D01*
X109017396Y-73966745D01*
X109028923Y-73967880D01*
X109443655Y-74050334D01*
X109448602Y-74051425D01*
X109540751Y-74073758D01*
X109545132Y-74074906D01*
X109914189Y-74178955D01*
X109919295Y-74180516D01*
X110007989Y-74209767D01*
X110012039Y-74211181D01*
X110373420Y-74344467D01*
X110378640Y-74346529D01*
X110462481Y-74381912D01*
X110466102Y-74383510D01*
X110818378Y-74545878D01*
X110823739Y-74548508D01*
X110901256Y-74588878D01*
X110904553Y-74590658D01*
X111246289Y-74782008D01*
X111251630Y-74785178D01*
X111321576Y-74829121D01*
X111324456Y-74830987D01*
X111520542Y-74961988D01*
X111654318Y-75051361D01*
X111659637Y-75055121D01*
X111720815Y-75100834D01*
X111723299Y-75102741D01*
X112039909Y-75352304D01*
X112045144Y-75356669D01*
X112096298Y-75401762D01*
X112098467Y-75403720D01*
X112400615Y-75682991D01*
X112405672Y-75687941D01*
X112445738Y-75729467D01*
X112447522Y-75731356D01*
X112734085Y-76041326D01*
X112738915Y-76046873D01*
X112766913Y-76081023D01*
X112768360Y-76082824D01*
X113038195Y-76425076D01*
X113042746Y-76431230D01*
X113057727Y-76452853D01*
X113058899Y-76454576D01*
X113310990Y-76831821D01*
X113315182Y-76838550D01*
X113316415Y-76840678D01*
X113317311Y-76842251D01*
X113429477Y-77042521D01*
X113539803Y-77239506D01*
X113548378Y-77254815D01*
X113552795Y-77263483D01*
X113603887Y-77374302D01*
X113751616Y-77694726D01*
X113755343Y-77703722D01*
X113919714Y-78149235D01*
X113922723Y-78158495D01*
X114051630Y-78615532D01*
X114053903Y-78625000D01*
X114146551Y-79090740D01*
X114148074Y-79100357D01*
X114203892Y-79571926D01*
X114204656Y-79581634D01*
X114223300Y-80056132D01*
X114223300Y-80065868D01*
X114204656Y-80540365D01*
X114203892Y-80550073D01*
X114148074Y-81021642D01*
X114146551Y-81031259D01*
X114053903Y-81496999D01*
X114051630Y-81506467D01*
X113922723Y-81963504D01*
X113919714Y-81972764D01*
X113755343Y-82418277D01*
X113751616Y-82427273D01*
X113552799Y-82858508D01*
X113548378Y-82867184D01*
X113317311Y-83279747D01*
X113316415Y-83281320D01*
X113315182Y-83283448D01*
X113310990Y-83290177D01*
X113058899Y-83667422D01*
X113057727Y-83669145D01*
X113042746Y-83690768D01*
X113038195Y-83696922D01*
X112768360Y-84039174D01*
X112766878Y-84041018D01*
X112738927Y-84075112D01*
X112734085Y-84080672D01*
X112447522Y-84390642D01*
X112445707Y-84392564D01*
X112405686Y-84434044D01*
X112400615Y-84439007D01*
X112098467Y-84718278D01*
X112096298Y-84720236D01*
X112045144Y-84765329D01*
X112039909Y-84769694D01*
X111723299Y-85019257D01*
X111720760Y-85021206D01*
X111659657Y-85066863D01*
X111654318Y-85070637D01*
X111324474Y-85290999D01*
X111321555Y-85292890D01*
X111251651Y-85336807D01*
X111246267Y-85340003D01*
X110904561Y-85531335D01*
X110901256Y-85533120D01*
X110823739Y-85573490D01*
X110818368Y-85576125D01*
X110466125Y-85738477D01*
X110462434Y-85740106D01*
X110378697Y-85775446D01*
X110373391Y-85777542D01*
X110012040Y-85910816D01*
X110007969Y-85912238D01*
X109919336Y-85941469D01*
X109914147Y-85943055D01*
X109545161Y-86047084D01*
X109540720Y-86048248D01*
X109448647Y-86070563D01*
X109443620Y-86071672D01*
X109028923Y-86154120D01*
X109017394Y-86155254D01*
X109015771Y-86157488D01*
X109016500Y-86166770D01*
X109016500Y-113833228D01*
X109015771Y-113842515D01*
X109017396Y-113844745D01*
X109028923Y-113845880D01*
X109443655Y-113928334D01*
X109448602Y-113929425D01*
X109540751Y-113951758D01*
X109545132Y-113952906D01*
X109914189Y-114056955D01*
X109919295Y-114058516D01*
X110007989Y-114087767D01*
X110012039Y-114089181D01*
X110373420Y-114222467D01*
X110378640Y-114224529D01*
X110462481Y-114259912D01*
X110466102Y-114261510D01*
X110818378Y-114423878D01*
X110823739Y-114426508D01*
X110901256Y-114466878D01*
X110904553Y-114468658D01*
X111246275Y-114660000D01*
X111251630Y-114663178D01*
X111321576Y-114707121D01*
X111324456Y-114708987D01*
X111465526Y-114803233D01*
X111654318Y-114929361D01*
X111659637Y-114933121D01*
X111720815Y-114978834D01*
X111723295Y-114980738D01*
X111893744Y-115115092D01*
X112039909Y-115230304D01*
X112045144Y-115234669D01*
X112096298Y-115279762D01*
X112098467Y-115281720D01*
X112400615Y-115560991D01*
X112405672Y-115565941D01*
X112445738Y-115607467D01*
X112447522Y-115609356D01*
X112734085Y-115919326D01*
X112738915Y-115924873D01*
X112766913Y-115959023D01*
X112768360Y-115960824D01*
X113038195Y-116303076D01*
X113042746Y-116309230D01*
X113057727Y-116330853D01*
X113058899Y-116332576D01*
X113310990Y-116709821D01*
X113315182Y-116716550D01*
X113316415Y-116718678D01*
X113317311Y-116720251D01*
X113548378Y-117132815D01*
X113552799Y-117141491D01*
X113751616Y-117572726D01*
X113755343Y-117581722D01*
X113919714Y-118027235D01*
X113922723Y-118036495D01*
X114051630Y-118493532D01*
X114053903Y-118503000D01*
X114146551Y-118968740D01*
X114148074Y-118978357D01*
X114203892Y-119449926D01*
X114204656Y-119459634D01*
X114223300Y-119934132D01*
X114223300Y-119943868D01*
X114204656Y-120418365D01*
X114203892Y-120428073D01*
X114148074Y-120899642D01*
X114146551Y-120909259D01*
X114053903Y-121374999D01*
X114051630Y-121384467D01*
X113922723Y-121841504D01*
X113919714Y-121850764D01*
X113755343Y-122296277D01*
X113751616Y-122305273D01*
X113552799Y-122736508D01*
X113548378Y-122745184D01*
X113317311Y-123157747D01*
X113316415Y-123159320D01*
X113315182Y-123161448D01*
X113310990Y-123168177D01*
X113058899Y-123545422D01*
X113057727Y-123547145D01*
X113042746Y-123568768D01*
X113038195Y-123574922D01*
X112768360Y-123917174D01*
X112766878Y-123919018D01*
X112738927Y-123953112D01*
X112734085Y-123958672D01*
X112447522Y-124268642D01*
X112445707Y-124270564D01*
X112405686Y-124312044D01*
X112400615Y-124317007D01*
X112098467Y-124596278D01*
X112096298Y-124598236D01*
X112045144Y-124643329D01*
X112039909Y-124647694D01*
X111723299Y-124897257D01*
X111720760Y-124899206D01*
X111659657Y-124944863D01*
X111654318Y-124948637D01*
X111324474Y-125168999D01*
X111321555Y-125170890D01*
X111251651Y-125214807D01*
X111246267Y-125218003D01*
X110904561Y-125409335D01*
X110901256Y-125411120D01*
X110823739Y-125451490D01*
X110818368Y-125454125D01*
X110466125Y-125616477D01*
X110462434Y-125618106D01*
X110378697Y-125653446D01*
X110373391Y-125655542D01*
X110012040Y-125788816D01*
X110007969Y-125790238D01*
X109919336Y-125819469D01*
X109914147Y-125821055D01*
X109545161Y-125925084D01*
X109540720Y-125926248D01*
X109448647Y-125948563D01*
X109443620Y-125949672D01*
X109028923Y-126032120D01*
X109017394Y-126033254D01*
X109015771Y-126035488D01*
X109016500Y-126044770D01*
X109016500Y-144350948D01*
X109016234Y-144359058D01*
X109001321Y-144586576D01*
X109000325Y-144596113D01*
X108992917Y-144647636D01*
X108991796Y-144654180D01*
X108952694Y-144850763D01*
X108950054Y-144861508D01*
X108937656Y-144903730D01*
X108936099Y-144908652D01*
X108868780Y-145106971D01*
X108864152Y-145118630D01*
X108853544Y-145141855D01*
X108851964Y-145145182D01*
X108752212Y-145347460D01*
X108744102Y-145361506D01*
X108607825Y-145565460D01*
X108597951Y-145578329D01*
X108436218Y-145762749D01*
X108424749Y-145774218D01*
X108240329Y-145935951D01*
X108227460Y-145945825D01*
X108023506Y-146082102D01*
X108009460Y-146090212D01*
X107807182Y-146189964D01*
X107803855Y-146191544D01*
X107780630Y-146202152D01*
X107768971Y-146206780D01*
X107570652Y-146274099D01*
X107565730Y-146275656D01*
X107523508Y-146288054D01*
X107512763Y-146290694D01*
X107316180Y-146329796D01*
X107309636Y-146330917D01*
X107258113Y-146338325D01*
X107248576Y-146339321D01*
X107021058Y-146354234D01*
X107012948Y-146354500D01*
X92987052Y-146354500D01*
X92978942Y-146354234D01*
X92751422Y-146339321D01*
X92741885Y-146338325D01*
X92690362Y-146330917D01*
X92683818Y-146329796D01*
X92487235Y-146290694D01*
X92476490Y-146288054D01*
X92434268Y-146275656D01*
X92429346Y-146274099D01*
X92289997Y-146226797D01*
X92231023Y-146206778D01*
X92219377Y-146202155D01*
X92210679Y-146198183D01*
X92196143Y-146191544D01*
X92192816Y-146189964D01*
X91990539Y-146090212D01*
X91976493Y-146082102D01*
X91772539Y-145945825D01*
X91759670Y-145935951D01*
X91575250Y-145774218D01*
X91563781Y-145762749D01*
X91402048Y-145578329D01*
X91392174Y-145565460D01*
X91255897Y-145361506D01*
X91247787Y-145347460D01*
X91148034Y-145145182D01*
X91146454Y-145141855D01*
X91135835Y-145118602D01*
X91131228Y-145106997D01*
X91063887Y-144908617D01*
X91062350Y-144903755D01*
X91049938Y-144861485D01*
X91047311Y-144850794D01*
X91008195Y-144654143D01*
X91007088Y-144647679D01*
X90999671Y-144596094D01*
X90998680Y-144586615D01*
X90983765Y-144359042D01*
X90983500Y-144350933D01*
X90983500Y-128333322D01*
X94772890Y-128333322D01*
X94783033Y-128432607D01*
X94836341Y-128593481D01*
X94836346Y-128593492D01*
X94925313Y-128737728D01*
X94925316Y-128737732D01*
X95045156Y-128857572D01*
X95045160Y-128857575D01*
X95189396Y-128946542D01*
X95189407Y-128946547D01*
X95350282Y-128999855D01*
X95449572Y-129009999D01*
X95472889Y-129009998D01*
X95472889Y-128285000D01*
X94772890Y-128285000D01*
X94772890Y-128333322D01*
X90983500Y-128333322D01*
X90983500Y-127736677D01*
X94772889Y-127736677D01*
X94772889Y-127785000D01*
X95472889Y-127785000D01*
X95472889Y-127059999D01*
X95449582Y-127060000D01*
X95449563Y-127060001D01*
X95350281Y-127070144D01*
X95189407Y-127123452D01*
X95189396Y-127123457D01*
X95045160Y-127212424D01*
X95045156Y-127212427D01*
X94925316Y-127332267D01*
X94925313Y-127332271D01*
X94836346Y-127476507D01*
X94836341Y-127476518D01*
X94783033Y-127637393D01*
X94772889Y-127736677D01*
X90983500Y-127736677D01*
X90983500Y-126044771D01*
X90984228Y-126035486D01*
X90982606Y-126033254D01*
X90971077Y-126032120D01*
X90556378Y-125949672D01*
X90551351Y-125948563D01*
X90459278Y-125926248D01*
X90454837Y-125925084D01*
X90085851Y-125821055D01*
X90080662Y-125819469D01*
X89992029Y-125790238D01*
X89987958Y-125788816D01*
X89626607Y-125655542D01*
X89621315Y-125653451D01*
X89569874Y-125631742D01*
X89537564Y-125618106D01*
X89533873Y-125616477D01*
X89181630Y-125454125D01*
X89176259Y-125451490D01*
X89098742Y-125411120D01*
X89095437Y-125409335D01*
X88753731Y-125218003D01*
X88748347Y-125214807D01*
X88678443Y-125170890D01*
X88675524Y-125168999D01*
X88345680Y-124948637D01*
X88340341Y-124944863D01*
X88333208Y-124939533D01*
X88279207Y-124899182D01*
X88276699Y-124897257D01*
X87960089Y-124647694D01*
X87954854Y-124643329D01*
X87903700Y-124598236D01*
X87901531Y-124596278D01*
X87599383Y-124317007D01*
X87594326Y-124312057D01*
X87554255Y-124270526D01*
X87552476Y-124268642D01*
X87265913Y-123958672D01*
X87261088Y-123953131D01*
X87233066Y-123918952D01*
X87231638Y-123917174D01*
X86961803Y-123574922D01*
X86957252Y-123568768D01*
X86942271Y-123547145D01*
X86941099Y-123545422D01*
X86761928Y-123277300D01*
X86689003Y-123168170D01*
X86684816Y-123161448D01*
X86683583Y-123159320D01*
X86682687Y-123157747D01*
X86681402Y-123155453D01*
X86451612Y-122745166D01*
X86447209Y-122736526D01*
X86248383Y-122305273D01*
X86244656Y-122296277D01*
X86080281Y-121850753D01*
X86077276Y-121841504D01*
X86071211Y-121820000D01*
X85948365Y-121384450D01*
X85946100Y-121375016D01*
X85853445Y-120909242D01*
X85851927Y-120899660D01*
X85796105Y-120428056D01*
X85795344Y-120418381D01*
X85776699Y-119943860D01*
X85776699Y-119934132D01*
X85781500Y-119811943D01*
X85781519Y-119811465D01*
X86822595Y-119811465D01*
X86822595Y-120066534D01*
X86840809Y-120181531D01*
X86862494Y-120318446D01*
X86941311Y-120561020D01*
X87057105Y-120788278D01*
X87207024Y-120994623D01*
X87387377Y-121174976D01*
X87593722Y-121324895D01*
X87820980Y-121440689D01*
X88063554Y-121519506D01*
X88193342Y-121540062D01*
X88315466Y-121559405D01*
X88315471Y-121559405D01*
X88570534Y-121559405D01*
X88681862Y-121541771D01*
X88822446Y-121519506D01*
X89065020Y-121440689D01*
X89292278Y-121324895D01*
X89498623Y-121174976D01*
X89678976Y-120994623D01*
X89828895Y-120788278D01*
X89944689Y-120561020D01*
X90023506Y-120318446D01*
X90045771Y-120177862D01*
X90063405Y-120066534D01*
X90063405Y-119811465D01*
X90042245Y-119677870D01*
X90023506Y-119559554D01*
X89944689Y-119316980D01*
X89828895Y-119089722D01*
X89678976Y-118883377D01*
X89498623Y-118703024D01*
X89292278Y-118553105D01*
X89065020Y-118437311D01*
X88822446Y-118358494D01*
X88570534Y-118318595D01*
X88570529Y-118318595D01*
X88315471Y-118318595D01*
X88315466Y-118318595D01*
X88063553Y-118358494D01*
X87820977Y-118437312D01*
X87593721Y-118553105D01*
X87475994Y-118638639D01*
X87387377Y-118703024D01*
X87387375Y-118703026D01*
X87387374Y-118703026D01*
X87207026Y-118883374D01*
X87207026Y-118883375D01*
X87207024Y-118883377D01*
X87204188Y-118887281D01*
X87057105Y-119089721D01*
X86941312Y-119316977D01*
X86862494Y-119559553D01*
X86822595Y-119811465D01*
X85781519Y-119811465D01*
X85795344Y-119459614D01*
X85796105Y-119449945D01*
X85851928Y-118978335D01*
X85853444Y-118968761D01*
X85946101Y-118502977D01*
X85948363Y-118493554D01*
X86077281Y-118036477D01*
X86080278Y-118027253D01*
X86244659Y-117581713D01*
X86248383Y-117572726D01*
X86447214Y-117141463D01*
X86451606Y-117132843D01*
X86682773Y-116720099D01*
X86683507Y-116718810D01*
X86684833Y-116716521D01*
X86688985Y-116709857D01*
X86941132Y-116332526D01*
X86942221Y-116330926D01*
X86957278Y-116309193D01*
X86961779Y-116303107D01*
X87231729Y-115960710D01*
X87232985Y-115959147D01*
X87261116Y-115924834D01*
X87265885Y-115919357D01*
X87552554Y-115609272D01*
X87554167Y-115607565D01*
X87594360Y-115565906D01*
X87599351Y-115561021D01*
X87901605Y-115281652D01*
X87903628Y-115279826D01*
X87954888Y-115234640D01*
X87960053Y-115230333D01*
X88276780Y-114980678D01*
X88279109Y-114978890D01*
X88340397Y-114933095D01*
X88345649Y-114929382D01*
X88675608Y-114708944D01*
X88678357Y-114707163D01*
X88748403Y-114663157D01*
X88753674Y-114660028D01*
X89095501Y-114468628D01*
X89098677Y-114466913D01*
X89176301Y-114426487D01*
X89181588Y-114423893D01*
X89533943Y-114261489D01*
X89537472Y-114259932D01*
X89621389Y-114224517D01*
X89626549Y-114222478D01*
X89987997Y-114089168D01*
X89991974Y-114087778D01*
X90080729Y-114058508D01*
X90085784Y-114056963D01*
X90454894Y-113952898D01*
X90459222Y-113951764D01*
X90551417Y-113929420D01*
X90556323Y-113928338D01*
X90971077Y-113845880D01*
X90982602Y-113844745D01*
X90983570Y-113843416D01*
X90983572Y-113843416D01*
X90983571Y-113843414D01*
X90984228Y-113842515D01*
X90983500Y-113833229D01*
X90983500Y-110143322D01*
X94772890Y-110143322D01*
X94783033Y-110242607D01*
X94836341Y-110403481D01*
X94836346Y-110403492D01*
X94925313Y-110547728D01*
X94925316Y-110547732D01*
X95045156Y-110667572D01*
X95045160Y-110667575D01*
X95189396Y-110756542D01*
X95189407Y-110756547D01*
X95350282Y-110809855D01*
X95449572Y-110819999D01*
X95472889Y-110819998D01*
X95472889Y-110095000D01*
X94772890Y-110095000D01*
X94772890Y-110143322D01*
X90983500Y-110143322D01*
X90983500Y-109546677D01*
X94772889Y-109546677D01*
X94772889Y-109595000D01*
X95472889Y-109595000D01*
X95472889Y-108869999D01*
X95449582Y-108870000D01*
X95449563Y-108870001D01*
X95350281Y-108880144D01*
X95189407Y-108933452D01*
X95189396Y-108933457D01*
X95045160Y-109022424D01*
X95045156Y-109022427D01*
X94925316Y-109142267D01*
X94925313Y-109142271D01*
X94836346Y-109286507D01*
X94836341Y-109286518D01*
X94783033Y-109447393D01*
X94772889Y-109546677D01*
X90983500Y-109546677D01*
X90983500Y-103466605D01*
X92526741Y-103466605D01*
X92526741Y-104490656D01*
X92529538Y-104520493D01*
X92529540Y-104520503D01*
X92573512Y-104646166D01*
X92573514Y-104646171D01*
X92652577Y-104753299D01*
X92759705Y-104832362D01*
X92805388Y-104848347D01*
X92885376Y-104876337D01*
X92893161Y-104877066D01*
X92915216Y-104879135D01*
X93780696Y-104879134D01*
X93847735Y-104898818D01*
X93868377Y-104915453D01*
X96357310Y-107404386D01*
X96390795Y-107465709D01*
X96385811Y-107535401D01*
X96373513Y-107557470D01*
X96374252Y-107557907D01*
X96287968Y-107703804D01*
X96287966Y-107703809D01*
X96242855Y-107859081D01*
X96242854Y-107859087D01*
X96241209Y-107879999D01*
X96241210Y-107880000D01*
X96896000Y-107880000D01*
X96963039Y-107899685D01*
X97008794Y-107952489D01*
X97020000Y-108004000D01*
X97020000Y-108256000D01*
X97000315Y-108323039D01*
X96947511Y-108368794D01*
X96896000Y-108380000D01*
X96241210Y-108380000D01*
X96242854Y-108400910D01*
X96287968Y-108556195D01*
X96370278Y-108695374D01*
X96370285Y-108695383D01*
X96424768Y-108749866D01*
X96458253Y-108811189D01*
X96453269Y-108880881D01*
X96411397Y-108936814D01*
X96345933Y-108961231D01*
X96277660Y-108946379D01*
X96271991Y-108943086D01*
X96256379Y-108933456D01*
X96256370Y-108933452D01*
X96095495Y-108880144D01*
X95996211Y-108870000D01*
X95972889Y-108870000D01*
X95972889Y-110819999D01*
X95996197Y-110819999D01*
X95996211Y-110819998D01*
X96095496Y-110809855D01*
X96256370Y-110756547D01*
X96256381Y-110756542D01*
X96400617Y-110667575D01*
X96400621Y-110667572D01*
X96520462Y-110547731D01*
X96556237Y-110489731D01*
X96608185Y-110443006D01*
X96677147Y-110431783D01*
X96736083Y-110455558D01*
X96817663Y-110516628D01*
X96945775Y-110564412D01*
X97002404Y-110570500D01*
X97451344Y-110570499D01*
X97518383Y-110590183D01*
X97539025Y-110606818D01*
X97692677Y-110760470D01*
X97744639Y-110790470D01*
X97744641Y-110790471D01*
X97772598Y-110806613D01*
X97772600Y-110806613D01*
X97772601Y-110806614D01*
X97861745Y-110830500D01*
X97861746Y-110830500D01*
X97954033Y-110830500D01*
X98089404Y-110830500D01*
X98156443Y-110850185D01*
X98188115Y-110885770D01*
X98190956Y-110883743D01*
X98196926Y-110892105D01*
X98287897Y-110983076D01*
X98287900Y-110983078D01*
X98398656Y-111037222D01*
X98403482Y-111039582D01*
X98478418Y-111050500D01*
X98478423Y-111050500D01*
X98821577Y-111050500D01*
X98821582Y-111050500D01*
X98896518Y-111039582D01*
X98954310Y-111011329D01*
X99012099Y-110983078D01*
X99012102Y-110983076D01*
X99072319Y-110922860D01*
X99133642Y-110889375D01*
X99203334Y-110894359D01*
X99247681Y-110922860D01*
X99307897Y-110983076D01*
X99307900Y-110983078D01*
X99418656Y-111037222D01*
X99423482Y-111039582D01*
X99498418Y-111050500D01*
X99498423Y-111050500D01*
X99841577Y-111050500D01*
X99841582Y-111050500D01*
X99916518Y-111039582D01*
X99974310Y-111011329D01*
X100032099Y-110983078D01*
X100032102Y-110983076D01*
X100123074Y-110892105D01*
X100129044Y-110883743D01*
X100132426Y-110886158D01*
X100165554Y-110849781D01*
X100233058Y-110831756D01*
X100299592Y-110853088D01*
X100327990Y-110885860D01*
X100330956Y-110883743D01*
X100336926Y-110892105D01*
X100427897Y-110983076D01*
X100427900Y-110983078D01*
X100538656Y-111037222D01*
X100543482Y-111039582D01*
X100618418Y-111050500D01*
X100618423Y-111050500D01*
X100961577Y-111050500D01*
X100961582Y-111050500D01*
X101036518Y-111039582D01*
X101094310Y-111011329D01*
X101152099Y-110983078D01*
X101152102Y-110983076D01*
X101212319Y-110922860D01*
X101273642Y-110889375D01*
X101343334Y-110894359D01*
X101387681Y-110922860D01*
X101447897Y-110983076D01*
X101447900Y-110983078D01*
X101558656Y-111037222D01*
X101563482Y-111039582D01*
X101638418Y-111050500D01*
X101638423Y-111050500D01*
X101981577Y-111050500D01*
X101981582Y-111050500D01*
X102056518Y-111039582D01*
X102114310Y-111011329D01*
X102172099Y-110983078D01*
X102172102Y-110983076D01*
X102263076Y-110892102D01*
X102263078Y-110892099D01*
X102304869Y-110806613D01*
X102319582Y-110776518D01*
X102330500Y-110701582D01*
X102330500Y-110258418D01*
X102319582Y-110183482D01*
X102299949Y-110143322D01*
X102258564Y-110058666D01*
X102261730Y-110057118D01*
X102244810Y-110008468D01*
X102261181Y-109940543D01*
X102280976Y-109914705D01*
X105210597Y-106985083D01*
X105236271Y-106965382D01*
X105288015Y-106935509D01*
X105390509Y-106833015D01*
X105462984Y-106707485D01*
X105500500Y-106567475D01*
X105500500Y-106422525D01*
X105462984Y-106282515D01*
X105457187Y-106272475D01*
X105390511Y-106156988D01*
X105390506Y-106156982D01*
X105288017Y-106054493D01*
X105288011Y-106054488D01*
X105162488Y-105982017D01*
X105162489Y-105982017D01*
X105151006Y-105978940D01*
X105022475Y-105944500D01*
X104877525Y-105944500D01*
X104748993Y-105978940D01*
X104737511Y-105982017D01*
X104611988Y-106054488D01*
X104611982Y-106054493D01*
X104509493Y-106156982D01*
X104509488Y-106156988D01*
X104437017Y-106282511D01*
X104437016Y-106282515D01*
X104399500Y-106422525D01*
X104399500Y-106422527D01*
X104399500Y-106567474D01*
X104431127Y-106685509D01*
X104429464Y-106755359D01*
X104399033Y-106805283D01*
X101807490Y-109396826D01*
X101746167Y-109430311D01*
X101676475Y-109425327D01*
X101620542Y-109383455D01*
X101596870Y-109325328D01*
X101594019Y-109303673D01*
X101594019Y-109303670D01*
X101543644Y-109195641D01*
X101459359Y-109111356D01*
X101381343Y-109074976D01*
X101328905Y-109028805D01*
X101309753Y-108961611D01*
X101329969Y-108894730D01*
X101383134Y-108849395D01*
X101408105Y-108842332D01*
X101408012Y-108841984D01*
X101415871Y-108839877D01*
X101558780Y-108780683D01*
X101558786Y-108780680D01*
X101681509Y-108686510D01*
X101681510Y-108686509D01*
X101775680Y-108563786D01*
X101775683Y-108563780D01*
X101834878Y-108420868D01*
X101843551Y-108355000D01*
X100961500Y-108355000D01*
X100894461Y-108335315D01*
X100848706Y-108282511D01*
X100837500Y-108231000D01*
X100837500Y-108129000D01*
X100857185Y-108061961D01*
X100909989Y-108016206D01*
X100961500Y-108005000D01*
X101843549Y-108005000D01*
X101843549Y-108004999D01*
X101836434Y-107950945D01*
X101847200Y-107881910D01*
X101893580Y-107829655D01*
X101924780Y-107815684D01*
X102006193Y-107792032D01*
X102006195Y-107792031D01*
X102145374Y-107709721D01*
X102145383Y-107709714D01*
X102259714Y-107595383D01*
X102259721Y-107595374D01*
X102342031Y-107456195D01*
X102342033Y-107456190D01*
X102387144Y-107300918D01*
X102387145Y-107300912D01*
X102388790Y-107280000D01*
X101734000Y-107280000D01*
X101666961Y-107260315D01*
X101621206Y-107207511D01*
X101610000Y-107156000D01*
X101610000Y-106904000D01*
X101629685Y-106836961D01*
X101682489Y-106791206D01*
X101734000Y-106780000D01*
X102388789Y-106780000D01*
X102397289Y-106770805D01*
X102457250Y-106734939D01*
X102520436Y-106735202D01*
X102577525Y-106750500D01*
X102577527Y-106750500D01*
X102722472Y-106750500D01*
X102722475Y-106750500D01*
X102862485Y-106712984D01*
X102988015Y-106640509D01*
X103090509Y-106538015D01*
X103162984Y-106412485D01*
X103200500Y-106272475D01*
X103200500Y-106127525D01*
X103162984Y-105987515D01*
X103123734Y-105919533D01*
X103090511Y-105861988D01*
X103090506Y-105861982D01*
X102988017Y-105759493D01*
X102988011Y-105759488D01*
X102862488Y-105687017D01*
X102862489Y-105687017D01*
X102851006Y-105683940D01*
X102722475Y-105649500D01*
X102577525Y-105649500D01*
X102448993Y-105683940D01*
X102437511Y-105687017D01*
X102311988Y-105759488D01*
X102311982Y-105759493D01*
X102258295Y-105813181D01*
X102196972Y-105846666D01*
X102170614Y-105849500D01*
X101433856Y-105849500D01*
X101344712Y-105873386D01*
X101344711Y-105873386D01*
X101344709Y-105873387D01*
X101344706Y-105873388D01*
X101264794Y-105919526D01*
X101264785Y-105919533D01*
X100751136Y-106433181D01*
X100689813Y-106466666D01*
X100663456Y-106469500D01*
X100479260Y-106469500D01*
X100479260Y-106469501D01*
X100387829Y-106483981D01*
X100387828Y-106483981D01*
X100277607Y-106540142D01*
X100257053Y-106560697D01*
X100224567Y-106593182D01*
X100163247Y-106626666D01*
X100136888Y-106629500D01*
X100053856Y-106629500D01*
X99964712Y-106653386D01*
X99964711Y-106653386D01*
X99964709Y-106653387D01*
X99964706Y-106653388D01*
X99884794Y-106699526D01*
X99884785Y-106699533D01*
X99719531Y-106864786D01*
X99719529Y-106864789D01*
X99679656Y-106933853D01*
X99679654Y-106933855D01*
X99673386Y-106944709D01*
X99673386Y-106944710D01*
X99649500Y-107033856D01*
X99649500Y-107630500D01*
X99629815Y-107697539D01*
X99577011Y-107743294D01*
X99525500Y-107754500D01*
X98697895Y-107754500D01*
X98648674Y-107760980D01*
X98648669Y-107760981D01*
X98641931Y-107764123D01*
X98633869Y-107767882D01*
X98581466Y-107779500D01*
X98540741Y-107779500D01*
X98473702Y-107759815D01*
X98446832Y-107734436D01*
X98446760Y-107734509D01*
X98444238Y-107731987D01*
X98440420Y-107728381D01*
X98434120Y-107719709D01*
X98435180Y-107718938D01*
X98406495Y-107666406D01*
X98411479Y-107596714D01*
X98416261Y-107585587D01*
X98469581Y-107476520D01*
X98469580Y-107476520D01*
X98469582Y-107476518D01*
X98480500Y-107401582D01*
X98480500Y-106958418D01*
X98469582Y-106883482D01*
X98462416Y-106868824D01*
X98413078Y-106767900D01*
X98413076Y-106767897D01*
X98322102Y-106676923D01*
X98322099Y-106676921D01*
X98206521Y-106620419D01*
X98206519Y-106620418D01*
X98206518Y-106620418D01*
X98131582Y-106609500D01*
X97788418Y-106609500D01*
X97713482Y-106620418D01*
X97713480Y-106620418D01*
X97713478Y-106620419D01*
X97597900Y-106676921D01*
X97597897Y-106676923D01*
X97537681Y-106737140D01*
X97476358Y-106770625D01*
X97406666Y-106765641D01*
X97362319Y-106737140D01*
X97302102Y-106676923D01*
X97302099Y-106676921D01*
X97186521Y-106620419D01*
X97186519Y-106620418D01*
X97186518Y-106620418D01*
X97111582Y-106609500D01*
X96768418Y-106609500D01*
X96705971Y-106618598D01*
X96693481Y-106620418D01*
X96686523Y-106623820D01*
X96617649Y-106635576D01*
X96553353Y-106608230D01*
X96544386Y-106600098D01*
X94364059Y-104419771D01*
X94330574Y-104358448D01*
X94327740Y-104332090D01*
X94327740Y-103523607D01*
X97499500Y-103523607D01*
X97499500Y-103532151D01*
X97499500Y-104136397D01*
X97524594Y-104246342D01*
X97524598Y-104246352D01*
X97529818Y-104257192D01*
X97532639Y-104264793D01*
X97532958Y-104264662D01*
X97536065Y-104272164D01*
X97539555Y-104278209D01*
X97543883Y-104286399D01*
X97573532Y-104347967D01*
X97590556Y-104369315D01*
X97600988Y-104384614D01*
X97601607Y-104385687D01*
X97601610Y-104385691D01*
X97601612Y-104385694D01*
X97601614Y-104385696D01*
X97601615Y-104385697D01*
X97606597Y-104390679D01*
X97615863Y-104401047D01*
X97643850Y-104436142D01*
X97643851Y-104436143D01*
X97643852Y-104436144D01*
X97643854Y-104436146D01*
X97678946Y-104464131D01*
X97678951Y-104464135D01*
X97689317Y-104473400D01*
X97694302Y-104478385D01*
X97694304Y-104478386D01*
X97694306Y-104478388D01*
X97695375Y-104479005D01*
X97710686Y-104489443D01*
X97732033Y-104506467D01*
X97732036Y-104506468D01*
X97732037Y-104506469D01*
X97793593Y-104536113D01*
X97801786Y-104540443D01*
X97807826Y-104543930D01*
X97815347Y-104547045D01*
X97815213Y-104547366D01*
X97822814Y-104550185D01*
X97833650Y-104555403D01*
X97943607Y-104580500D01*
X102056393Y-104580500D01*
X102166350Y-104555403D01*
X102177179Y-104550187D01*
X102184793Y-104547365D01*
X102184659Y-104547042D01*
X102192160Y-104543934D01*
X102192167Y-104543933D01*
X102198202Y-104540448D01*
X102206398Y-104536117D01*
X102219029Y-104530034D01*
X102267967Y-104506467D01*
X102289310Y-104489445D01*
X102304629Y-104479003D01*
X102305692Y-104478389D01*
X102305691Y-104478389D01*
X102305694Y-104478388D01*
X102310682Y-104473400D01*
X102321054Y-104464131D01*
X102356146Y-104436146D01*
X102384131Y-104401054D01*
X102393402Y-104390680D01*
X102398386Y-104385696D01*
X102398389Y-104385692D01*
X102399003Y-104384629D01*
X102409445Y-104369310D01*
X102426467Y-104347967D01*
X102454005Y-104290783D01*
X102456117Y-104286398D01*
X102460448Y-104278202D01*
X102463933Y-104272167D01*
X102463934Y-104272160D01*
X102467042Y-104264659D01*
X102467365Y-104264793D01*
X102470187Y-104257179D01*
X102475403Y-104246350D01*
X102500500Y-104136393D01*
X102500500Y-104080000D01*
X102500500Y-104079500D01*
X102500500Y-103579793D01*
X102500500Y-103523607D01*
X102475403Y-103413650D01*
X102470185Y-103402814D01*
X102467366Y-103395213D01*
X102467045Y-103395347D01*
X102463930Y-103387826D01*
X102460443Y-103381786D01*
X102456113Y-103373593D01*
X102426469Y-103312037D01*
X102426468Y-103312036D01*
X102426467Y-103312033D01*
X102409442Y-103290684D01*
X102399005Y-103275375D01*
X102398388Y-103274306D01*
X102398386Y-103274304D01*
X102398385Y-103274302D01*
X102393400Y-103269317D01*
X102384135Y-103258951D01*
X102356146Y-103223854D01*
X102356144Y-103223852D01*
X102356143Y-103223851D01*
X102356142Y-103223850D01*
X102321047Y-103195863D01*
X102310679Y-103186597D01*
X102305697Y-103181615D01*
X102305695Y-103181613D01*
X102305694Y-103181612D01*
X102305691Y-103181610D01*
X102305687Y-103181607D01*
X102304614Y-103180988D01*
X102289315Y-103170556D01*
X102267966Y-103153532D01*
X102267967Y-103153532D01*
X102206399Y-103123883D01*
X102198209Y-103119555D01*
X102192164Y-103116065D01*
X102184662Y-103112958D01*
X102184793Y-103112639D01*
X102177192Y-103109818D01*
X102166352Y-103104598D01*
X102166342Y-103104594D01*
X102056397Y-103079500D01*
X102056393Y-103079500D01*
X102000207Y-103079500D01*
X98000500Y-103079500D01*
X98000000Y-103079500D01*
X97943607Y-103079500D01*
X97943602Y-103079500D01*
X97833649Y-103104596D01*
X97822804Y-103109819D01*
X97815205Y-103112640D01*
X97815337Y-103112958D01*
X97807835Y-103116065D01*
X97801797Y-103119551D01*
X97793614Y-103123875D01*
X97732033Y-103153532D01*
X97732032Y-103153532D01*
X97710684Y-103170557D01*
X97695387Y-103180987D01*
X97695011Y-103181204D01*
X97694303Y-103181613D01*
X97694298Y-103181617D01*
X97689307Y-103186608D01*
X97678955Y-103195859D01*
X97643853Y-103223853D01*
X97615859Y-103258955D01*
X97606608Y-103269307D01*
X97601617Y-103274298D01*
X97601613Y-103274303D01*
X97601204Y-103275011D01*
X97600999Y-103275369D01*
X97600990Y-103275384D01*
X97590557Y-103290684D01*
X97573532Y-103312032D01*
X97573532Y-103312033D01*
X97543875Y-103373614D01*
X97539551Y-103381797D01*
X97536253Y-103387510D01*
X97536067Y-103387833D01*
X97534859Y-103392339D01*
X97524597Y-103413650D01*
X97499500Y-103523607D01*
X94327740Y-103523607D01*
X94327740Y-103466612D01*
X94324943Y-103436776D01*
X94324943Y-103436772D01*
X94280968Y-103311099D01*
X94201905Y-103203971D01*
X94094777Y-103124908D01*
X94094773Y-103124906D01*
X94094772Y-103124906D01*
X93969105Y-103080932D01*
X93939270Y-103078135D01*
X92915219Y-103078135D01*
X92885382Y-103080932D01*
X92885372Y-103080934D01*
X92759709Y-103124906D01*
X92759707Y-103124907D01*
X92759706Y-103124907D01*
X92759705Y-103124908D01*
X92652577Y-103203971D01*
X92600671Y-103274303D01*
X92573513Y-103311101D01*
X92573512Y-103311103D01*
X92529538Y-103436769D01*
X92529538Y-103436771D01*
X92526741Y-103466605D01*
X90983500Y-103466605D01*
X90983500Y-101048322D01*
X99275001Y-101048322D01*
X99285144Y-101147607D01*
X99338452Y-101308481D01*
X99338457Y-101308492D01*
X99427424Y-101452728D01*
X99427427Y-101452732D01*
X99547267Y-101572572D01*
X99547271Y-101572575D01*
X99691507Y-101661542D01*
X99691518Y-101661547D01*
X99852393Y-101714855D01*
X99951683Y-101724999D01*
X99999999Y-101724998D01*
X100000000Y-101724998D01*
X100000000Y-101025000D01*
X99275001Y-101025000D01*
X99275001Y-101048322D01*
X90983500Y-101048322D01*
X90983500Y-91853322D01*
X94872890Y-91853322D01*
X94883033Y-91952607D01*
X94936341Y-92113481D01*
X94936346Y-92113492D01*
X95025313Y-92257728D01*
X95025316Y-92257732D01*
X95145156Y-92377572D01*
X95145160Y-92377575D01*
X95289396Y-92466542D01*
X95289407Y-92466547D01*
X95450282Y-92519855D01*
X95549572Y-92529999D01*
X95572889Y-92529998D01*
X95572889Y-91805000D01*
X94872890Y-91805000D01*
X94872890Y-91853322D01*
X90983500Y-91853322D01*
X90983500Y-91256677D01*
X94872889Y-91256677D01*
X94872889Y-91305000D01*
X95572889Y-91305000D01*
X95572889Y-90579999D01*
X95549582Y-90580000D01*
X95549563Y-90580001D01*
X95450281Y-90590144D01*
X95289407Y-90643452D01*
X95289396Y-90643457D01*
X95145160Y-90732424D01*
X95145156Y-90732427D01*
X95025316Y-90852267D01*
X95025313Y-90852271D01*
X94936346Y-90996507D01*
X94936341Y-90996518D01*
X94883033Y-91157393D01*
X94872889Y-91256677D01*
X90983500Y-91256677D01*
X90983500Y-86166771D01*
X90984228Y-86157486D01*
X90982606Y-86155254D01*
X90971077Y-86154120D01*
X90556378Y-86071672D01*
X90551351Y-86070563D01*
X90459278Y-86048248D01*
X90454837Y-86047084D01*
X90085851Y-85943055D01*
X90080662Y-85941469D01*
X89992029Y-85912238D01*
X89987958Y-85910816D01*
X89626607Y-85777542D01*
X89621315Y-85775451D01*
X89569874Y-85753742D01*
X89537564Y-85740106D01*
X89533873Y-85738477D01*
X89181630Y-85576125D01*
X89176259Y-85573490D01*
X89098742Y-85533120D01*
X89095437Y-85531335D01*
X88753731Y-85340003D01*
X88748357Y-85336813D01*
X88731503Y-85326225D01*
X88678443Y-85292890D01*
X88675524Y-85290999D01*
X88579137Y-85226605D01*
X92526741Y-85226605D01*
X92526741Y-86250656D01*
X92529538Y-86280493D01*
X92529540Y-86280503D01*
X92555208Y-86353856D01*
X92573514Y-86406171D01*
X92652577Y-86513299D01*
X92759705Y-86592362D01*
X92771654Y-86596543D01*
X92885376Y-86636337D01*
X92893161Y-86637066D01*
X92915216Y-86639135D01*
X93780696Y-86639134D01*
X93847735Y-86658818D01*
X93868377Y-86675453D01*
X96357310Y-89164386D01*
X96390795Y-89225709D01*
X96385811Y-89295401D01*
X96373513Y-89317470D01*
X96374252Y-89317907D01*
X96287968Y-89463804D01*
X96287966Y-89463809D01*
X96242855Y-89619081D01*
X96242854Y-89619087D01*
X96241209Y-89639999D01*
X96241210Y-89640000D01*
X96896000Y-89640000D01*
X96963039Y-89659685D01*
X97008794Y-89712489D01*
X97020000Y-89764000D01*
X97020000Y-90016000D01*
X97000315Y-90083039D01*
X96947511Y-90128794D01*
X96896000Y-90140000D01*
X96241210Y-90140000D01*
X96242854Y-90160910D01*
X96287968Y-90316195D01*
X96343481Y-90410062D01*
X96360664Y-90477786D01*
X96338504Y-90544048D01*
X96284038Y-90587812D01*
X96214558Y-90595181D01*
X96197748Y-90590890D01*
X96195496Y-90590144D01*
X96195497Y-90590144D01*
X96096211Y-90580000D01*
X96072889Y-90580000D01*
X96072889Y-92529999D01*
X96096197Y-92529999D01*
X96096211Y-92529998D01*
X96195496Y-92519855D01*
X96356370Y-92466547D01*
X96356381Y-92466542D01*
X96500617Y-92377575D01*
X96500621Y-92377572D01*
X96620462Y-92257731D01*
X96656237Y-92199731D01*
X96708185Y-92153006D01*
X96777147Y-92141783D01*
X96836083Y-92165558D01*
X96917663Y-92226628D01*
X97045775Y-92274412D01*
X97102404Y-92280500D01*
X97478480Y-92280499D01*
X97545519Y-92300183D01*
X97566161Y-92316818D01*
X97769813Y-92520470D01*
X97821775Y-92550470D01*
X97821777Y-92550471D01*
X97849734Y-92566613D01*
X97849736Y-92566613D01*
X97849737Y-92566614D01*
X97938881Y-92590500D01*
X97938882Y-92590500D01*
X98031169Y-92590500D01*
X98089404Y-92590500D01*
X98156443Y-92610185D01*
X98188115Y-92645770D01*
X98190956Y-92643743D01*
X98196926Y-92652105D01*
X98287897Y-92743076D01*
X98287900Y-92743078D01*
X98398656Y-92797222D01*
X98403482Y-92799582D01*
X98478418Y-92810500D01*
X98478423Y-92810500D01*
X98821577Y-92810500D01*
X98821582Y-92810500D01*
X98896518Y-92799582D01*
X98954310Y-92771329D01*
X99012099Y-92743078D01*
X99012102Y-92743076D01*
X99072319Y-92682860D01*
X99133642Y-92649375D01*
X99203334Y-92654359D01*
X99247681Y-92682860D01*
X99307897Y-92743076D01*
X99307900Y-92743078D01*
X99418656Y-92797222D01*
X99423482Y-92799582D01*
X99498418Y-92810500D01*
X99498423Y-92810500D01*
X99841577Y-92810500D01*
X99841582Y-92810500D01*
X99916518Y-92799582D01*
X99974310Y-92771329D01*
X100032099Y-92743078D01*
X100032102Y-92743076D01*
X100123074Y-92652105D01*
X100129044Y-92643743D01*
X100132426Y-92646158D01*
X100165554Y-92609781D01*
X100233058Y-92591756D01*
X100299592Y-92613088D01*
X100327990Y-92645860D01*
X100330956Y-92643743D01*
X100336926Y-92652105D01*
X100427897Y-92743076D01*
X100427900Y-92743078D01*
X100538656Y-92797222D01*
X100543482Y-92799582D01*
X100618418Y-92810500D01*
X100618423Y-92810500D01*
X100961577Y-92810500D01*
X100961582Y-92810500D01*
X101036518Y-92799582D01*
X101094310Y-92771329D01*
X101152099Y-92743078D01*
X101152102Y-92743076D01*
X101212319Y-92682860D01*
X101273642Y-92649375D01*
X101343334Y-92654359D01*
X101387681Y-92682860D01*
X101447897Y-92743076D01*
X101447900Y-92743078D01*
X101558656Y-92797222D01*
X101563482Y-92799582D01*
X101638418Y-92810500D01*
X101638423Y-92810500D01*
X101981577Y-92810500D01*
X101981582Y-92810500D01*
X102056518Y-92799582D01*
X102114310Y-92771329D01*
X102172099Y-92743078D01*
X102172102Y-92743076D01*
X102263076Y-92652102D01*
X102263078Y-92652099D01*
X102304869Y-92566613D01*
X102319582Y-92536518D01*
X102330500Y-92461582D01*
X102330500Y-92018418D01*
X102319582Y-91943482D01*
X102293192Y-91889500D01*
X102263078Y-91827901D01*
X102263076Y-91827899D01*
X102263076Y-91827898D01*
X102253110Y-91817932D01*
X102219626Y-91756613D01*
X102224608Y-91686921D01*
X102253108Y-91642572D01*
X104730470Y-89165212D01*
X104776614Y-89085288D01*
X104800500Y-88996144D01*
X104800500Y-88903856D01*
X104800500Y-86596543D01*
X104820185Y-86529504D01*
X104836815Y-86508866D01*
X105460580Y-85885100D01*
X105521901Y-85851617D01*
X105591592Y-85856601D01*
X105647526Y-85898472D01*
X105671943Y-85963937D01*
X105672259Y-85972783D01*
X105672259Y-86250656D01*
X105675056Y-86280493D01*
X105675058Y-86280503D01*
X105700726Y-86353856D01*
X105719032Y-86406171D01*
X105798095Y-86513299D01*
X105905223Y-86592362D01*
X105917172Y-86596543D01*
X106030894Y-86636337D01*
X106044674Y-86637629D01*
X106060734Y-86639135D01*
X106098258Y-86639134D01*
X106165296Y-86658817D01*
X106211052Y-86711620D01*
X106222259Y-86763134D01*
X106222259Y-88320697D01*
X106202574Y-88387736D01*
X106185940Y-88408378D01*
X103469531Y-91124786D01*
X103469529Y-91124789D01*
X103429656Y-91193853D01*
X103429654Y-91193855D01*
X103423386Y-91204709D01*
X103423386Y-91204710D01*
X103399500Y-91293856D01*
X103399500Y-92593456D01*
X103379815Y-92660495D01*
X103363181Y-92681137D01*
X101941137Y-94103181D01*
X101879814Y-94136666D01*
X101853456Y-94139500D01*
X97403856Y-94139500D01*
X97314712Y-94163386D01*
X97314709Y-94163387D01*
X97234791Y-94209527D01*
X97234786Y-94209531D01*
X95809772Y-95634546D01*
X95748449Y-95668031D01*
X95722091Y-95670865D01*
X94451740Y-95670865D01*
X94384701Y-95651180D01*
X94338946Y-95598376D01*
X94327740Y-95546865D01*
X94327740Y-95509342D01*
X94324943Y-95479506D01*
X94324943Y-95479502D01*
X94280968Y-95353829D01*
X94201905Y-95246701D01*
X94094777Y-95167638D01*
X94094773Y-95167636D01*
X94094772Y-95167636D01*
X93969105Y-95123662D01*
X93939270Y-95120865D01*
X92915219Y-95120865D01*
X92885382Y-95123662D01*
X92885372Y-95123664D01*
X92759709Y-95167636D01*
X92759707Y-95167637D01*
X92759706Y-95167637D01*
X92759705Y-95167638D01*
X92692484Y-95217249D01*
X92652577Y-95246701D01*
X92573513Y-95353831D01*
X92573512Y-95353833D01*
X92529538Y-95479499D01*
X92529538Y-95479501D01*
X92526741Y-95509335D01*
X92526741Y-96533386D01*
X92529538Y-96563223D01*
X92529540Y-96563233D01*
X92573186Y-96687964D01*
X92573514Y-96688901D01*
X92652577Y-96796029D01*
X92759705Y-96875092D01*
X92784974Y-96883934D01*
X92885376Y-96919067D01*
X92893161Y-96919796D01*
X92915216Y-96921865D01*
X93939265Y-96921864D01*
X93969104Y-96919067D01*
X94094777Y-96875092D01*
X94201905Y-96796029D01*
X94280968Y-96688901D01*
X94305707Y-96618202D01*
X94324943Y-96563230D01*
X94324943Y-96563228D01*
X94327741Y-96533394D01*
X94327741Y-96495865D01*
X94347426Y-96428826D01*
X94400230Y-96383071D01*
X94451741Y-96371865D01*
X95964777Y-96371865D01*
X95964779Y-96371865D01*
X96053923Y-96347979D01*
X96083198Y-96331077D01*
X96133847Y-96301835D01*
X96572075Y-95863607D01*
X97499500Y-95863607D01*
X97499500Y-95872151D01*
X97499500Y-96476397D01*
X97524594Y-96586342D01*
X97524598Y-96586352D01*
X97529818Y-96597192D01*
X97532639Y-96604793D01*
X97532958Y-96604662D01*
X97536065Y-96612164D01*
X97539555Y-96618209D01*
X97543883Y-96626399D01*
X97573532Y-96687967D01*
X97590556Y-96709315D01*
X97600988Y-96724614D01*
X97601607Y-96725687D01*
X97601610Y-96725691D01*
X97601612Y-96725694D01*
X97601614Y-96725696D01*
X97601615Y-96725697D01*
X97606597Y-96730679D01*
X97615863Y-96741047D01*
X97643850Y-96776142D01*
X97643851Y-96776143D01*
X97643852Y-96776144D01*
X97643854Y-96776146D01*
X97678946Y-96804131D01*
X97678951Y-96804135D01*
X97689317Y-96813400D01*
X97694302Y-96818385D01*
X97694304Y-96818386D01*
X97694306Y-96818388D01*
X97695375Y-96819005D01*
X97710686Y-96829443D01*
X97732033Y-96846467D01*
X97732036Y-96846468D01*
X97732037Y-96846469D01*
X97793593Y-96876113D01*
X97801786Y-96880443D01*
X97807826Y-96883930D01*
X97815347Y-96887045D01*
X97815213Y-96887366D01*
X97822814Y-96890185D01*
X97833650Y-96895403D01*
X97943607Y-96920500D01*
X102056393Y-96920500D01*
X102166350Y-96895403D01*
X102177179Y-96890187D01*
X102184793Y-96887365D01*
X102184659Y-96887042D01*
X102192160Y-96883934D01*
X102192167Y-96883933D01*
X102198202Y-96880448D01*
X102206398Y-96876117D01*
X102219029Y-96870034D01*
X102267967Y-96846467D01*
X102289310Y-96829445D01*
X102304629Y-96819003D01*
X102305692Y-96818389D01*
X102305691Y-96818389D01*
X102305694Y-96818388D01*
X102310682Y-96813400D01*
X102321054Y-96804131D01*
X102356146Y-96776146D01*
X102384131Y-96741054D01*
X102393402Y-96730680D01*
X102398386Y-96725696D01*
X102398389Y-96725692D01*
X102399003Y-96724629D01*
X102409445Y-96709310D01*
X102426467Y-96687967D01*
X102454005Y-96630783D01*
X102456117Y-96626398D01*
X102460448Y-96618202D01*
X102463933Y-96612167D01*
X102463934Y-96612160D01*
X102467042Y-96604659D01*
X102467365Y-96604793D01*
X102470187Y-96597179D01*
X102475403Y-96586350D01*
X102500500Y-96476393D01*
X102500500Y-96420000D01*
X102500500Y-96419500D01*
X102500500Y-95919793D01*
X102500500Y-95863607D01*
X102475403Y-95753650D01*
X102470185Y-95742814D01*
X102467366Y-95735213D01*
X102467045Y-95735347D01*
X102463930Y-95727826D01*
X102460443Y-95721786D01*
X102456113Y-95713593D01*
X102426469Y-95652037D01*
X102426468Y-95652036D01*
X102426467Y-95652033D01*
X102409442Y-95630684D01*
X102399005Y-95615375D01*
X102398388Y-95614306D01*
X102398386Y-95614304D01*
X102398385Y-95614302D01*
X102393400Y-95609317D01*
X102384135Y-95598951D01*
X102356146Y-95563854D01*
X102356144Y-95563852D01*
X102356143Y-95563851D01*
X102356142Y-95563850D01*
X102321047Y-95535863D01*
X102310679Y-95526597D01*
X102305697Y-95521615D01*
X102305695Y-95521613D01*
X102305694Y-95521612D01*
X102305691Y-95521610D01*
X102305687Y-95521607D01*
X102304614Y-95520988D01*
X102289315Y-95510556D01*
X102267966Y-95493532D01*
X102267967Y-95493532D01*
X102206399Y-95463883D01*
X102198209Y-95459555D01*
X102192164Y-95456065D01*
X102184662Y-95452958D01*
X102184793Y-95452639D01*
X102177192Y-95449818D01*
X102166352Y-95444598D01*
X102166342Y-95444594D01*
X102056397Y-95419500D01*
X102056393Y-95419500D01*
X102000207Y-95419500D01*
X100000207Y-95419500D01*
X98000500Y-95419500D01*
X98000000Y-95419500D01*
X97943607Y-95419500D01*
X97943602Y-95419500D01*
X97833649Y-95444596D01*
X97822804Y-95449819D01*
X97815205Y-95452640D01*
X97815337Y-95452958D01*
X97807835Y-95456065D01*
X97801797Y-95459551D01*
X97793614Y-95463875D01*
X97732033Y-95493532D01*
X97732032Y-95493532D01*
X97710684Y-95510557D01*
X97695387Y-95520987D01*
X97695011Y-95521204D01*
X97694303Y-95521613D01*
X97694298Y-95521617D01*
X97689307Y-95526608D01*
X97678955Y-95535859D01*
X97643853Y-95563853D01*
X97615859Y-95598955D01*
X97606608Y-95609307D01*
X97601617Y-95614298D01*
X97601613Y-95614303D01*
X97601204Y-95615011D01*
X97600999Y-95615369D01*
X97600990Y-95615384D01*
X97590557Y-95630684D01*
X97573532Y-95652032D01*
X97573532Y-95652033D01*
X97543875Y-95713614D01*
X97539551Y-95721797D01*
X97536253Y-95727510D01*
X97536067Y-95727833D01*
X97534859Y-95732339D01*
X97524597Y-95753650D01*
X97499500Y-95863607D01*
X96572075Y-95863607D01*
X97558863Y-94876819D01*
X97620186Y-94843334D01*
X97646544Y-94840500D01*
X102096142Y-94840500D01*
X102096144Y-94840500D01*
X102185288Y-94816614D01*
X102265212Y-94770470D01*
X104030470Y-93005212D01*
X104076614Y-92925288D01*
X104100500Y-92836144D01*
X104100500Y-91536544D01*
X104120185Y-91469505D01*
X104136819Y-91448863D01*
X105494948Y-90090734D01*
X106853229Y-88732453D01*
X106899373Y-88652529D01*
X106906806Y-88624788D01*
X106923259Y-88563385D01*
X106923259Y-86763134D01*
X106942944Y-86696095D01*
X106995748Y-86650340D01*
X107047259Y-86639134D01*
X107084781Y-86639134D01*
X107084783Y-86639134D01*
X107114622Y-86636337D01*
X107240295Y-86592362D01*
X107347423Y-86513299D01*
X107347425Y-86513296D01*
X107351867Y-86510018D01*
X107417496Y-86486048D01*
X107485666Y-86501364D01*
X107534734Y-86551104D01*
X107549500Y-86609789D01*
X107549500Y-95150210D01*
X107529815Y-95217249D01*
X107477011Y-95263004D01*
X107407853Y-95272948D01*
X107351867Y-95249981D01*
X107307516Y-95217249D01*
X107240295Y-95167638D01*
X107240291Y-95167636D01*
X107240290Y-95167636D01*
X107114623Y-95123662D01*
X107084788Y-95120865D01*
X106060737Y-95120865D01*
X106030900Y-95123662D01*
X106030890Y-95123664D01*
X105905227Y-95167636D01*
X105905225Y-95167637D01*
X105905224Y-95167637D01*
X105905223Y-95167638D01*
X105838002Y-95217249D01*
X105798095Y-95246701D01*
X105719031Y-95353831D01*
X105719030Y-95353833D01*
X105675056Y-95479499D01*
X105675056Y-95479501D01*
X105672259Y-95509335D01*
X105672259Y-96533386D01*
X105675056Y-96563223D01*
X105675058Y-96563233D01*
X105719032Y-96688901D01*
X105723374Y-96697117D01*
X105720162Y-96698814D01*
X105738074Y-96747846D01*
X105722761Y-96816017D01*
X105702014Y-96843537D01*
X103592372Y-98953181D01*
X103531049Y-98986666D01*
X103504691Y-98989500D01*
X103043784Y-98989500D01*
X103006461Y-98980863D01*
X103005721Y-98983261D01*
X102996524Y-98980419D01*
X102996518Y-98980418D01*
X102921582Y-98969500D01*
X102478418Y-98969500D01*
X102403482Y-98980418D01*
X102403480Y-98980418D01*
X102403478Y-98980419D01*
X102287900Y-99036921D01*
X102287897Y-99036923D01*
X102237681Y-99087140D01*
X102176358Y-99120625D01*
X102106666Y-99115641D01*
X102062319Y-99087140D01*
X102012102Y-99036923D01*
X102012099Y-99036921D01*
X101896521Y-98980419D01*
X101896519Y-98980418D01*
X101896518Y-98980418D01*
X101821582Y-98969500D01*
X101821577Y-98969500D01*
X101624846Y-98969500D01*
X101557807Y-98949815D01*
X101550648Y-98944781D01*
X101470290Y-98898387D01*
X101470285Y-98898385D01*
X101468415Y-98897884D01*
X101468415Y-98897883D01*
X101397938Y-98879000D01*
X101381144Y-98874500D01*
X101381143Y-98874500D01*
X101046783Y-98874500D01*
X100979744Y-98854815D01*
X100933989Y-98802011D01*
X100930610Y-98793857D01*
X100921628Y-98769774D01*
X100839687Y-98660313D01*
X100773911Y-98611074D01*
X100730228Y-98578373D01*
X100730226Y-98578372D01*
X100602114Y-98530588D01*
X100602112Y-98530587D01*
X100602110Y-98530587D01*
X100545493Y-98524500D01*
X99954518Y-98524500D01*
X99954509Y-98524501D01*
X99897885Y-98530587D01*
X99769773Y-98578372D01*
X99660313Y-98660313D01*
X99578373Y-98769771D01*
X99530587Y-98897889D01*
X99524500Y-98954498D01*
X99524500Y-99495481D01*
X99524501Y-99495490D01*
X99530587Y-99552114D01*
X99578373Y-99680228D01*
X99639438Y-99761802D01*
X99663855Y-99827266D01*
X99649003Y-99895539D01*
X99605270Y-99941649D01*
X99547270Y-99977424D01*
X99427427Y-100097267D01*
X99427424Y-100097271D01*
X99338457Y-100241507D01*
X99338452Y-100241518D01*
X99285144Y-100402393D01*
X99275000Y-100501677D01*
X99275000Y-100525000D01*
X100126000Y-100525000D01*
X100193039Y-100544685D01*
X100238794Y-100597489D01*
X100250000Y-100649000D01*
X100250000Y-100775000D01*
X100376000Y-100775000D01*
X100443039Y-100794685D01*
X100488794Y-100847489D01*
X100500000Y-100899000D01*
X100500000Y-101724999D01*
X100548308Y-101724999D01*
X100548322Y-101724998D01*
X100647607Y-101714855D01*
X100808481Y-101661547D01*
X100808487Y-101661544D01*
X100882537Y-101615869D01*
X100949929Y-101597428D01*
X101016593Y-101618350D01*
X101061363Y-101671991D01*
X101067407Y-101689305D01*
X101076972Y-101724999D01*
X101087017Y-101762488D01*
X101159488Y-101888011D01*
X101159490Y-101888013D01*
X101159491Y-101888015D01*
X101261985Y-101990509D01*
X101261986Y-101990510D01*
X101261988Y-101990511D01*
X101387511Y-102062982D01*
X101387512Y-102062982D01*
X101387515Y-102062984D01*
X101527525Y-102100500D01*
X101527528Y-102100500D01*
X101672472Y-102100500D01*
X101672475Y-102100500D01*
X101812485Y-102062984D01*
X101938015Y-101990509D01*
X102040509Y-101888015D01*
X102112984Y-101762485D01*
X102150500Y-101622475D01*
X102150500Y-101477525D01*
X102126920Y-101389524D01*
X102128583Y-101319677D01*
X102167745Y-101261814D01*
X102231973Y-101234310D01*
X102281290Y-101238357D01*
X102414871Y-101277166D01*
X102414877Y-101277167D01*
X102450000Y-101279931D01*
X102450000Y-101279930D01*
X102950000Y-101279930D01*
X102985122Y-101277167D01*
X102985128Y-101277166D01*
X103139188Y-101232407D01*
X103139191Y-101232406D01*
X103277285Y-101150738D01*
X103277294Y-101150731D01*
X103390731Y-101037294D01*
X103390738Y-101037285D01*
X103472404Y-100899194D01*
X103512844Y-100760000D01*
X102950000Y-100760000D01*
X102950000Y-101279930D01*
X102450000Y-101279930D01*
X102450000Y-100634000D01*
X102469685Y-100566961D01*
X102522489Y-100521206D01*
X102574000Y-100510000D01*
X102700000Y-100510000D01*
X102700000Y-100384000D01*
X102719685Y-100316961D01*
X102772489Y-100271206D01*
X102824000Y-100260000D01*
X103512845Y-100260000D01*
X103512844Y-100259999D01*
X103480624Y-100149094D01*
X103480824Y-100079225D01*
X103518767Y-100020555D01*
X103582405Y-99991712D01*
X103599701Y-99990500D01*
X104093456Y-99990500D01*
X104160495Y-100010185D01*
X104181137Y-100026819D01*
X107020772Y-102866454D01*
X107054257Y-102927777D01*
X107049273Y-102997469D01*
X107007401Y-103053402D01*
X106941937Y-103077819D01*
X106933091Y-103078135D01*
X106060737Y-103078135D01*
X106030900Y-103080932D01*
X106030890Y-103080934D01*
X105905227Y-103124906D01*
X105905225Y-103124907D01*
X105905224Y-103124907D01*
X105905223Y-103124908D01*
X105798095Y-103203971D01*
X105746189Y-103274303D01*
X105719031Y-103311101D01*
X105719030Y-103311103D01*
X105675056Y-103436769D01*
X105675056Y-103436771D01*
X105672259Y-103466605D01*
X105672259Y-104490656D01*
X105675056Y-104520493D01*
X105675058Y-104520503D01*
X105719030Y-104646166D01*
X105719032Y-104646171D01*
X105798095Y-104753299D01*
X105905223Y-104832362D01*
X105950906Y-104848347D01*
X106030894Y-104876337D01*
X106044674Y-104877629D01*
X106060734Y-104879135D01*
X106098258Y-104879134D01*
X106165296Y-104898817D01*
X106211052Y-104951620D01*
X106222259Y-105003134D01*
X106222259Y-106560697D01*
X106202574Y-106627736D01*
X106185940Y-106648378D01*
X103469531Y-109364786D01*
X103469529Y-109364789D01*
X103429656Y-109433853D01*
X103429654Y-109433855D01*
X103423386Y-109444709D01*
X103423386Y-109444710D01*
X103399500Y-109533856D01*
X103399500Y-110833456D01*
X103379815Y-110900495D01*
X103363181Y-110921137D01*
X101941137Y-112343181D01*
X101879814Y-112376666D01*
X101853456Y-112379500D01*
X97403856Y-112379500D01*
X97314712Y-112403386D01*
X97314709Y-112403387D01*
X97234791Y-112449527D01*
X97234786Y-112449531D01*
X95809772Y-113874546D01*
X95748449Y-113908031D01*
X95722091Y-113910865D01*
X94451740Y-113910865D01*
X94384701Y-113891180D01*
X94338946Y-113838376D01*
X94327740Y-113786865D01*
X94327740Y-113749342D01*
X94324943Y-113719506D01*
X94324943Y-113719502D01*
X94280968Y-113593829D01*
X94201905Y-113486701D01*
X94094777Y-113407638D01*
X94094773Y-113407636D01*
X94094772Y-113407636D01*
X93969105Y-113363662D01*
X93939270Y-113360865D01*
X92915219Y-113360865D01*
X92885382Y-113363662D01*
X92885372Y-113363664D01*
X92759709Y-113407636D01*
X92759707Y-113407637D01*
X92759706Y-113407637D01*
X92759705Y-113407638D01*
X92692484Y-113457249D01*
X92652577Y-113486701D01*
X92573513Y-113593831D01*
X92573512Y-113593833D01*
X92529538Y-113719499D01*
X92529538Y-113719501D01*
X92526741Y-113749335D01*
X92526741Y-114773386D01*
X92529538Y-114803223D01*
X92529540Y-114803233D01*
X92573186Y-114927964D01*
X92573514Y-114928901D01*
X92652577Y-115036029D01*
X92759705Y-115115092D01*
X92784974Y-115123934D01*
X92885376Y-115159067D01*
X92893161Y-115159796D01*
X92915216Y-115161865D01*
X93939265Y-115161864D01*
X93969104Y-115159067D01*
X94094777Y-115115092D01*
X94201905Y-115036029D01*
X94280968Y-114928901D01*
X94305707Y-114858202D01*
X94324943Y-114803230D01*
X94324943Y-114803228D01*
X94327741Y-114773394D01*
X94327741Y-114735865D01*
X94347426Y-114668826D01*
X94400230Y-114623071D01*
X94451741Y-114611865D01*
X95964777Y-114611865D01*
X95964779Y-114611865D01*
X96053923Y-114587979D01*
X96133847Y-114541835D01*
X96572075Y-114103607D01*
X97499500Y-114103607D01*
X97499500Y-114112151D01*
X97499500Y-114716397D01*
X97524594Y-114826342D01*
X97524598Y-114826352D01*
X97529818Y-114837192D01*
X97532639Y-114844793D01*
X97532958Y-114844662D01*
X97536065Y-114852164D01*
X97539555Y-114858209D01*
X97543883Y-114866399D01*
X97573532Y-114927967D01*
X97590556Y-114949315D01*
X97600988Y-114964614D01*
X97601607Y-114965687D01*
X97601610Y-114965691D01*
X97601612Y-114965694D01*
X97601614Y-114965696D01*
X97601615Y-114965697D01*
X97606597Y-114970679D01*
X97615863Y-114981047D01*
X97643850Y-115016142D01*
X97643851Y-115016143D01*
X97643852Y-115016144D01*
X97643854Y-115016146D01*
X97678946Y-115044131D01*
X97678951Y-115044135D01*
X97689317Y-115053400D01*
X97694302Y-115058385D01*
X97694304Y-115058386D01*
X97694306Y-115058388D01*
X97695375Y-115059005D01*
X97710686Y-115069443D01*
X97732033Y-115086467D01*
X97732036Y-115086468D01*
X97732037Y-115086469D01*
X97793593Y-115116113D01*
X97801786Y-115120443D01*
X97807826Y-115123930D01*
X97815347Y-115127045D01*
X97815213Y-115127366D01*
X97822814Y-115130185D01*
X97833650Y-115135403D01*
X97943607Y-115160500D01*
X102056393Y-115160500D01*
X102166350Y-115135403D01*
X102177179Y-115130187D01*
X102184793Y-115127365D01*
X102184659Y-115127042D01*
X102192160Y-115123934D01*
X102192167Y-115123933D01*
X102198202Y-115120448D01*
X102206398Y-115116117D01*
X102219029Y-115110034D01*
X102267967Y-115086467D01*
X102289310Y-115069445D01*
X102304629Y-115059003D01*
X102305692Y-115058389D01*
X102305691Y-115058389D01*
X102305694Y-115058388D01*
X102310682Y-115053400D01*
X102321054Y-115044131D01*
X102356146Y-115016146D01*
X102384131Y-114981054D01*
X102393402Y-114970680D01*
X102398386Y-114965696D01*
X102398389Y-114965692D01*
X102399003Y-114964629D01*
X102409445Y-114949310D01*
X102426467Y-114927967D01*
X102454005Y-114870783D01*
X102456117Y-114866398D01*
X102460448Y-114858202D01*
X102463933Y-114852167D01*
X102463934Y-114852160D01*
X102467042Y-114844659D01*
X102467365Y-114844793D01*
X102470187Y-114837179D01*
X102475403Y-114826350D01*
X102500500Y-114716393D01*
X102500500Y-114660000D01*
X102500500Y-114659500D01*
X102500500Y-114159793D01*
X102500500Y-114103607D01*
X102475403Y-113993650D01*
X102470185Y-113982814D01*
X102467366Y-113975213D01*
X102467045Y-113975347D01*
X102463930Y-113967826D01*
X102460443Y-113961786D01*
X102456113Y-113953593D01*
X102426469Y-113892037D01*
X102426468Y-113892036D01*
X102426467Y-113892033D01*
X102409442Y-113870684D01*
X102399005Y-113855375D01*
X102398388Y-113854306D01*
X102398386Y-113854304D01*
X102398385Y-113854302D01*
X102393400Y-113849317D01*
X102384135Y-113838951D01*
X102356146Y-113803854D01*
X102356144Y-113803852D01*
X102356143Y-113803851D01*
X102356142Y-113803850D01*
X102321047Y-113775863D01*
X102310679Y-113766597D01*
X102305697Y-113761615D01*
X102305695Y-113761613D01*
X102305694Y-113761612D01*
X102305691Y-113761610D01*
X102305687Y-113761607D01*
X102304614Y-113760988D01*
X102289315Y-113750556D01*
X102267966Y-113733532D01*
X102267967Y-113733532D01*
X102206399Y-113703883D01*
X102198209Y-113699555D01*
X102192164Y-113696065D01*
X102184662Y-113692958D01*
X102184793Y-113692639D01*
X102177192Y-113689818D01*
X102166352Y-113684598D01*
X102166342Y-113684594D01*
X102056397Y-113659500D01*
X102056393Y-113659500D01*
X102000207Y-113659500D01*
X100000207Y-113659500D01*
X98000500Y-113659500D01*
X98000000Y-113659500D01*
X97943607Y-113659500D01*
X97943602Y-113659500D01*
X97833649Y-113684596D01*
X97822804Y-113689819D01*
X97815205Y-113692640D01*
X97815337Y-113692958D01*
X97807835Y-113696065D01*
X97801797Y-113699551D01*
X97793614Y-113703875D01*
X97732033Y-113733532D01*
X97732032Y-113733532D01*
X97710684Y-113750557D01*
X97695387Y-113760987D01*
X97695011Y-113761204D01*
X97694303Y-113761613D01*
X97694298Y-113761617D01*
X97689307Y-113766608D01*
X97678955Y-113775859D01*
X97643853Y-113803853D01*
X97615859Y-113838955D01*
X97606608Y-113849307D01*
X97601617Y-113854298D01*
X97601613Y-113854303D01*
X97601204Y-113855011D01*
X97600999Y-113855369D01*
X97600990Y-113855384D01*
X97590557Y-113870684D01*
X97573532Y-113892032D01*
X97573532Y-113892033D01*
X97543875Y-113953614D01*
X97539551Y-113961797D01*
X97536253Y-113967510D01*
X97536067Y-113967833D01*
X97534859Y-113972339D01*
X97524597Y-113993650D01*
X97499500Y-114103607D01*
X96572075Y-114103607D01*
X97558863Y-113116819D01*
X97620186Y-113083334D01*
X97646544Y-113080500D01*
X102096142Y-113080500D01*
X102096144Y-113080500D01*
X102185288Y-113056614D01*
X102265212Y-113010470D01*
X104030470Y-111245212D01*
X104076614Y-111165288D01*
X104100500Y-111076144D01*
X104100500Y-109776544D01*
X104120185Y-109709505D01*
X104136819Y-109688863D01*
X105494948Y-108330734D01*
X106853229Y-106972453D01*
X106899373Y-106892529D01*
X106905724Y-106868822D01*
X106942088Y-106809162D01*
X107004934Y-106778631D01*
X107074309Y-106786924D01*
X107128189Y-106831408D01*
X107149465Y-106897960D01*
X107149500Y-106900914D01*
X107149500Y-112133358D01*
X107129815Y-112200397D01*
X107113181Y-112221039D01*
X106292290Y-113041929D01*
X106292286Y-113041934D01*
X106246146Y-113121852D01*
X106246145Y-113121855D01*
X106222259Y-113210999D01*
X106222259Y-113236865D01*
X106202574Y-113303904D01*
X106149770Y-113349659D01*
X106098262Y-113360865D01*
X106060737Y-113360865D01*
X106030899Y-113363662D01*
X106030890Y-113363664D01*
X105905227Y-113407636D01*
X105905225Y-113407637D01*
X105905224Y-113407637D01*
X105905223Y-113407638D01*
X105838002Y-113457249D01*
X105798095Y-113486701D01*
X105719031Y-113593831D01*
X105719030Y-113593833D01*
X105675056Y-113719499D01*
X105675056Y-113719501D01*
X105672259Y-113749335D01*
X105672259Y-114773386D01*
X105675056Y-114803223D01*
X105675058Y-114803233D01*
X105718704Y-114927964D01*
X105719032Y-114928901D01*
X105798095Y-115036029D01*
X105905223Y-115115092D01*
X105930492Y-115123934D01*
X106030894Y-115159067D01*
X106038679Y-115159796D01*
X106060734Y-115161865D01*
X107084783Y-115161864D01*
X107114622Y-115159067D01*
X107240295Y-115115092D01*
X107347423Y-115036029D01*
X107347425Y-115036026D01*
X107351867Y-115032748D01*
X107417496Y-115008778D01*
X107485666Y-115024094D01*
X107534734Y-115073834D01*
X107549500Y-115132519D01*
X107549500Y-121347480D01*
X107529815Y-121414519D01*
X107477011Y-121460274D01*
X107407853Y-121470218D01*
X107351867Y-121447251D01*
X107342973Y-121440687D01*
X107240295Y-121364908D01*
X107240291Y-121364906D01*
X107240290Y-121364906D01*
X107114623Y-121320932D01*
X107084788Y-121318135D01*
X106060737Y-121318135D01*
X106030900Y-121320932D01*
X106030890Y-121320934D01*
X105905227Y-121364906D01*
X105905225Y-121364907D01*
X105905224Y-121364907D01*
X105905223Y-121364908D01*
X105798095Y-121443971D01*
X105742349Y-121519506D01*
X105719031Y-121551101D01*
X105719030Y-121551103D01*
X105675056Y-121676769D01*
X105675056Y-121676771D01*
X105672259Y-121706605D01*
X105672259Y-122730656D01*
X105675056Y-122760493D01*
X105675058Y-122760503D01*
X105719030Y-122886166D01*
X105719032Y-122886171D01*
X105798095Y-122993299D01*
X105905223Y-123072362D01*
X105950906Y-123088347D01*
X106030894Y-123116337D01*
X106044674Y-123117629D01*
X106060734Y-123119135D01*
X106098258Y-123119134D01*
X106165296Y-123138817D01*
X106211052Y-123191620D01*
X106222259Y-123243134D01*
X106222259Y-124800697D01*
X106202574Y-124867736D01*
X106185940Y-124888378D01*
X104197549Y-126876768D01*
X104136226Y-126910253D01*
X104066534Y-126905269D01*
X104010601Y-126863397D01*
X103986184Y-126797933D01*
X104001036Y-126729660D01*
X104002446Y-126727147D01*
X104026614Y-126685288D01*
X104028578Y-126677958D01*
X104032808Y-126662174D01*
X104039283Y-126638005D01*
X104050500Y-126596144D01*
X104050500Y-125729433D01*
X104070185Y-125662394D01*
X104086819Y-125641752D01*
X104356752Y-125371819D01*
X104418075Y-125338334D01*
X104444433Y-125335500D01*
X104520361Y-125335500D01*
X104520364Y-125335500D01*
X104660374Y-125297984D01*
X104785904Y-125225509D01*
X104888398Y-125123015D01*
X104960873Y-124997485D01*
X104998389Y-124857475D01*
X104998389Y-124712525D01*
X104960873Y-124572515D01*
X104904724Y-124475263D01*
X104888400Y-124446988D01*
X104888395Y-124446982D01*
X104785906Y-124344493D01*
X104785900Y-124344488D01*
X104660377Y-124272017D01*
X104660378Y-124272017D01*
X104647782Y-124268642D01*
X104520364Y-124234500D01*
X104375414Y-124234500D01*
X104247996Y-124268642D01*
X104235400Y-124272017D01*
X104109877Y-124344488D01*
X104109871Y-124344493D01*
X104007382Y-124446982D01*
X104007377Y-124446988D01*
X103934906Y-124572511D01*
X103934905Y-124572515D01*
X103897389Y-124712525D01*
X103897389Y-124712527D01*
X103897389Y-124788456D01*
X103877704Y-124855495D01*
X103861070Y-124876137D01*
X103419531Y-125317675D01*
X103419527Y-125317680D01*
X103391548Y-125366143D01*
X103391548Y-125366144D01*
X103373386Y-125397599D01*
X103349500Y-125486745D01*
X103349500Y-126353456D01*
X103329815Y-126420495D01*
X103313181Y-126441137D01*
X101811949Y-127942368D01*
X101750626Y-127975853D01*
X101680934Y-127970869D01*
X101625001Y-127928997D01*
X101600584Y-127863533D01*
X101600549Y-127851162D01*
X101600500Y-127851162D01*
X101600499Y-127592895D01*
X101597721Y-127571800D01*
X101594019Y-127543670D01*
X101543644Y-127435641D01*
X101459359Y-127351356D01*
X101381343Y-127314976D01*
X101328905Y-127268805D01*
X101309753Y-127201611D01*
X101329969Y-127134730D01*
X101383134Y-127089395D01*
X101408105Y-127082332D01*
X101408012Y-127081984D01*
X101415871Y-127079877D01*
X101558780Y-127020683D01*
X101558786Y-127020680D01*
X101681509Y-126926510D01*
X101681510Y-126926509D01*
X101775680Y-126803786D01*
X101775683Y-126803780D01*
X101834878Y-126660868D01*
X101843551Y-126595000D01*
X100961500Y-126595000D01*
X100894461Y-126575315D01*
X100848706Y-126522511D01*
X100837500Y-126471000D01*
X100837500Y-126369000D01*
X100857185Y-126301961D01*
X100909989Y-126256206D01*
X100961500Y-126245000D01*
X101843549Y-126245000D01*
X101843549Y-126244999D01*
X101836434Y-126190945D01*
X101847200Y-126121910D01*
X101893580Y-126069655D01*
X101924780Y-126055684D01*
X102006193Y-126032032D01*
X102006195Y-126032031D01*
X102145374Y-125949721D01*
X102145383Y-125949714D01*
X102259714Y-125835383D01*
X102259721Y-125835374D01*
X102342031Y-125696195D01*
X102342033Y-125696190D01*
X102387144Y-125540918D01*
X102387145Y-125540912D01*
X102388790Y-125520000D01*
X101734000Y-125520000D01*
X101666961Y-125500315D01*
X101621206Y-125447511D01*
X101610000Y-125396000D01*
X101610000Y-125144000D01*
X101629685Y-125076961D01*
X101682489Y-125031206D01*
X101734000Y-125020000D01*
X102388790Y-125020000D01*
X102394105Y-125014250D01*
X102404276Y-124965846D01*
X102453330Y-124916092D01*
X102513527Y-124900500D01*
X102622472Y-124900500D01*
X102622475Y-124900500D01*
X102762485Y-124862984D01*
X102888015Y-124790509D01*
X102990509Y-124688015D01*
X103062984Y-124562485D01*
X103100500Y-124422475D01*
X103100500Y-124277525D01*
X103062984Y-124137515D01*
X103023733Y-124069531D01*
X102990511Y-124011988D01*
X102990506Y-124011982D01*
X102888017Y-123909493D01*
X102888011Y-123909488D01*
X102762488Y-123837017D01*
X102762489Y-123837017D01*
X102751006Y-123833940D01*
X102622475Y-123799500D01*
X102477525Y-123799500D01*
X102348993Y-123833940D01*
X102337511Y-123837017D01*
X102211988Y-123909488D01*
X102211982Y-123909493D01*
X102158295Y-123963181D01*
X102096972Y-123996666D01*
X102070614Y-123999500D01*
X101053856Y-123999500D01*
X100964712Y-124023386D01*
X100964709Y-124023387D01*
X100884791Y-124069527D01*
X100884786Y-124069531D01*
X100369531Y-124584786D01*
X100369530Y-124584788D01*
X100335732Y-124643329D01*
X100333762Y-124646741D01*
X100333760Y-124646744D01*
X100323387Y-124664708D01*
X100306491Y-124727766D01*
X100274398Y-124783351D01*
X100224570Y-124833180D01*
X100163247Y-124866666D01*
X100136888Y-124869500D01*
X100053856Y-124869500D01*
X99964712Y-124893386D01*
X99964711Y-124893386D01*
X99964709Y-124893387D01*
X99964706Y-124893388D01*
X99884794Y-124939526D01*
X99884785Y-124939533D01*
X99719531Y-125104786D01*
X99719529Y-125104788D01*
X99693140Y-125150498D01*
X99693138Y-125150500D01*
X99673388Y-125184706D01*
X99673387Y-125184709D01*
X99673386Y-125184711D01*
X99673386Y-125184712D01*
X99669712Y-125198423D01*
X99649500Y-125273856D01*
X99649500Y-125870500D01*
X99629815Y-125937539D01*
X99577011Y-125983294D01*
X99525500Y-125994500D01*
X98697895Y-125994500D01*
X98648674Y-126000980D01*
X98648669Y-126000981D01*
X98641931Y-126004123D01*
X98633869Y-126007882D01*
X98581466Y-126019500D01*
X98540741Y-126019500D01*
X98473702Y-125999815D01*
X98446832Y-125974436D01*
X98446760Y-125974509D01*
X98444238Y-125971987D01*
X98440420Y-125968381D01*
X98434120Y-125959709D01*
X98435180Y-125958938D01*
X98406495Y-125906406D01*
X98411479Y-125836714D01*
X98416261Y-125825587D01*
X98469581Y-125716520D01*
X98469580Y-125716520D01*
X98469582Y-125716518D01*
X98480500Y-125641582D01*
X98480500Y-125198418D01*
X98469582Y-125123482D01*
X98446051Y-125075349D01*
X98413078Y-125007900D01*
X98413076Y-125007897D01*
X98322102Y-124916923D01*
X98322099Y-124916921D01*
X98206521Y-124860419D01*
X98206519Y-124860418D01*
X98206518Y-124860418D01*
X98131582Y-124849500D01*
X97788418Y-124849500D01*
X97713482Y-124860418D01*
X97713480Y-124860418D01*
X97713478Y-124860419D01*
X97597900Y-124916921D01*
X97597897Y-124916923D01*
X97537681Y-124977140D01*
X97476358Y-125010625D01*
X97406666Y-125005641D01*
X97362319Y-124977140D01*
X97302102Y-124916923D01*
X97302099Y-124916921D01*
X97186521Y-124860419D01*
X97186519Y-124860418D01*
X97186518Y-124860418D01*
X97111582Y-124849500D01*
X96768418Y-124849500D01*
X96705971Y-124858598D01*
X96693481Y-124860418D01*
X96686523Y-124863820D01*
X96617649Y-124875576D01*
X96553353Y-124848230D01*
X96544386Y-124840098D01*
X94364059Y-122659771D01*
X94330574Y-122598448D01*
X94327740Y-122572090D01*
X94327740Y-121763607D01*
X97499500Y-121763607D01*
X97499500Y-121772151D01*
X97499500Y-122376397D01*
X97524594Y-122486342D01*
X97524598Y-122486352D01*
X97529818Y-122497192D01*
X97532639Y-122504793D01*
X97532958Y-122504662D01*
X97536065Y-122512164D01*
X97539555Y-122518209D01*
X97543883Y-122526399D01*
X97573532Y-122587967D01*
X97590556Y-122609315D01*
X97600988Y-122624614D01*
X97601607Y-122625687D01*
X97601610Y-122625691D01*
X97601612Y-122625694D01*
X97601614Y-122625696D01*
X97601615Y-122625697D01*
X97606597Y-122630679D01*
X97615863Y-122641047D01*
X97643850Y-122676142D01*
X97643851Y-122676143D01*
X97643852Y-122676144D01*
X97643854Y-122676146D01*
X97678946Y-122704131D01*
X97678951Y-122704135D01*
X97689317Y-122713400D01*
X97694302Y-122718385D01*
X97694304Y-122718386D01*
X97694306Y-122718388D01*
X97695375Y-122719005D01*
X97710686Y-122729443D01*
X97732033Y-122746467D01*
X97732036Y-122746468D01*
X97732037Y-122746469D01*
X97793593Y-122776113D01*
X97801786Y-122780443D01*
X97807826Y-122783930D01*
X97815347Y-122787045D01*
X97815213Y-122787366D01*
X97822814Y-122790185D01*
X97833650Y-122795403D01*
X97943607Y-122820500D01*
X102056393Y-122820500D01*
X102166350Y-122795403D01*
X102177179Y-122790187D01*
X102184793Y-122787365D01*
X102184659Y-122787042D01*
X102192160Y-122783934D01*
X102192167Y-122783933D01*
X102198202Y-122780448D01*
X102206398Y-122776117D01*
X102219029Y-122770034D01*
X102267967Y-122746467D01*
X102289310Y-122729445D01*
X102304629Y-122719003D01*
X102305692Y-122718389D01*
X102305691Y-122718389D01*
X102305694Y-122718388D01*
X102310682Y-122713400D01*
X102321054Y-122704131D01*
X102356146Y-122676146D01*
X102384131Y-122641054D01*
X102393402Y-122630680D01*
X102398386Y-122625696D01*
X102398389Y-122625692D01*
X102399003Y-122624629D01*
X102409445Y-122609310D01*
X102426467Y-122587967D01*
X102454005Y-122530783D01*
X102456117Y-122526398D01*
X102460448Y-122518202D01*
X102463933Y-122512167D01*
X102463934Y-122512160D01*
X102467042Y-122504659D01*
X102467365Y-122504793D01*
X102470187Y-122497179D01*
X102475403Y-122486350D01*
X102500500Y-122376393D01*
X102500500Y-122320000D01*
X102500500Y-122319500D01*
X102500500Y-121819793D01*
X102500500Y-121763607D01*
X102475403Y-121653650D01*
X102470185Y-121642814D01*
X102467366Y-121635213D01*
X102467045Y-121635347D01*
X102463930Y-121627826D01*
X102460443Y-121621786D01*
X102456113Y-121613593D01*
X102426469Y-121552037D01*
X102426468Y-121552036D01*
X102426467Y-121552033D01*
X102409442Y-121530684D01*
X102399005Y-121515375D01*
X102398388Y-121514306D01*
X102398386Y-121514304D01*
X102398385Y-121514302D01*
X102393400Y-121509317D01*
X102384135Y-121498951D01*
X102361221Y-121470218D01*
X102356146Y-121463854D01*
X102356144Y-121463852D01*
X102356143Y-121463851D01*
X102356142Y-121463850D01*
X102321047Y-121435863D01*
X102310679Y-121426597D01*
X102305697Y-121421615D01*
X102305695Y-121421613D01*
X102305694Y-121421612D01*
X102305691Y-121421610D01*
X102305687Y-121421607D01*
X102304614Y-121420988D01*
X102289315Y-121410556D01*
X102267966Y-121393532D01*
X102267967Y-121393532D01*
X102206399Y-121363883D01*
X102198209Y-121359555D01*
X102192164Y-121356065D01*
X102184662Y-121352958D01*
X102184793Y-121352639D01*
X102177192Y-121349818D01*
X102166352Y-121344598D01*
X102166342Y-121344594D01*
X102056397Y-121319500D01*
X102056393Y-121319500D01*
X102000207Y-121319500D01*
X98000500Y-121319500D01*
X98000000Y-121319500D01*
X97943607Y-121319500D01*
X97943602Y-121319500D01*
X97833649Y-121344596D01*
X97822804Y-121349819D01*
X97815205Y-121352640D01*
X97815337Y-121352958D01*
X97807835Y-121356065D01*
X97801797Y-121359551D01*
X97793614Y-121363875D01*
X97732033Y-121393532D01*
X97732032Y-121393532D01*
X97710684Y-121410557D01*
X97695387Y-121420987D01*
X97695011Y-121421204D01*
X97694303Y-121421613D01*
X97694298Y-121421617D01*
X97689307Y-121426608D01*
X97678955Y-121435859D01*
X97643853Y-121463853D01*
X97615859Y-121498955D01*
X97606608Y-121509307D01*
X97601617Y-121514298D01*
X97601613Y-121514303D01*
X97601204Y-121515011D01*
X97600999Y-121515369D01*
X97600990Y-121515384D01*
X97590557Y-121530684D01*
X97573532Y-121552032D01*
X97573532Y-121552033D01*
X97543875Y-121613614D01*
X97539551Y-121621797D01*
X97536253Y-121627510D01*
X97536067Y-121627833D01*
X97534859Y-121632339D01*
X97524597Y-121653650D01*
X97499500Y-121763607D01*
X94327740Y-121763607D01*
X94327740Y-121706612D01*
X94324943Y-121676776D01*
X94324943Y-121676772D01*
X94280968Y-121551099D01*
X94201905Y-121443971D01*
X94094777Y-121364908D01*
X94094773Y-121364906D01*
X94094772Y-121364906D01*
X93969105Y-121320932D01*
X93939270Y-121318135D01*
X92915219Y-121318135D01*
X92885382Y-121320932D01*
X92885372Y-121320934D01*
X92759709Y-121364906D01*
X92759707Y-121364907D01*
X92759706Y-121364907D01*
X92759705Y-121364908D01*
X92652577Y-121443971D01*
X92596831Y-121519506D01*
X92573513Y-121551101D01*
X92573512Y-121551103D01*
X92529538Y-121676769D01*
X92529538Y-121676771D01*
X92526741Y-121706605D01*
X92526741Y-122730656D01*
X92529538Y-122760493D01*
X92529540Y-122760503D01*
X92573512Y-122886166D01*
X92573514Y-122886171D01*
X92652577Y-122993299D01*
X92759705Y-123072362D01*
X92805388Y-123088347D01*
X92885376Y-123116337D01*
X92893161Y-123117066D01*
X92915216Y-123119135D01*
X93780696Y-123119134D01*
X93847735Y-123138818D01*
X93868377Y-123155453D01*
X96357310Y-125644386D01*
X96390795Y-125705709D01*
X96385811Y-125775401D01*
X96373513Y-125797470D01*
X96374252Y-125797907D01*
X96287968Y-125943804D01*
X96287966Y-125943809D01*
X96242855Y-126099081D01*
X96242854Y-126099087D01*
X96241209Y-126119999D01*
X96241210Y-126120000D01*
X96896000Y-126120000D01*
X96963039Y-126139685D01*
X97008794Y-126192489D01*
X97020000Y-126244000D01*
X97020000Y-126496000D01*
X97000315Y-126563039D01*
X96947511Y-126608794D01*
X96896000Y-126620000D01*
X96241210Y-126620000D01*
X96242854Y-126640910D01*
X96287968Y-126796195D01*
X96367854Y-126931275D01*
X96385037Y-126998999D01*
X96362877Y-127065262D01*
X96308411Y-127109025D01*
X96238931Y-127116394D01*
X96222118Y-127112102D01*
X96095496Y-127070144D01*
X95996211Y-127060000D01*
X95972889Y-127060000D01*
X95972889Y-129009999D01*
X95996197Y-129009999D01*
X95996211Y-129009998D01*
X96095496Y-128999855D01*
X96256370Y-128946547D01*
X96256381Y-128946542D01*
X96400617Y-128857575D01*
X96400621Y-128857572D01*
X96520462Y-128737731D01*
X96556237Y-128679731D01*
X96608185Y-128633006D01*
X96677147Y-128621783D01*
X96736083Y-128645558D01*
X96817663Y-128706628D01*
X96945775Y-128754412D01*
X97002404Y-128760500D01*
X97451344Y-128760499D01*
X97518383Y-128780183D01*
X97539020Y-128796813D01*
X97677420Y-128935212D01*
X97742677Y-129000469D01*
X97742680Y-129000470D01*
X97742683Y-129000473D01*
X97822595Y-129046611D01*
X97822596Y-129046611D01*
X97822601Y-129046614D01*
X97911745Y-129070500D01*
X98089404Y-129070500D01*
X98156443Y-129090185D01*
X98188115Y-129125770D01*
X98190956Y-129123743D01*
X98196926Y-129132105D01*
X98287897Y-129223076D01*
X98287900Y-129223078D01*
X98398656Y-129277222D01*
X98403482Y-129279582D01*
X98478418Y-129290500D01*
X98478423Y-129290500D01*
X98821577Y-129290500D01*
X98821582Y-129290500D01*
X98896518Y-129279582D01*
X98954310Y-129251329D01*
X99012099Y-129223078D01*
X99012102Y-129223076D01*
X99072319Y-129162860D01*
X99133642Y-129129375D01*
X99203334Y-129134359D01*
X99247681Y-129162860D01*
X99307897Y-129223076D01*
X99307900Y-129223078D01*
X99418656Y-129277222D01*
X99423482Y-129279582D01*
X99498418Y-129290500D01*
X99498423Y-129290500D01*
X99841577Y-129290500D01*
X99841582Y-129290500D01*
X99916518Y-129279582D01*
X99974310Y-129251329D01*
X100032099Y-129223078D01*
X100032102Y-129223076D01*
X100123074Y-129132105D01*
X100129044Y-129123743D01*
X100132426Y-129126158D01*
X100165554Y-129089781D01*
X100233058Y-129071756D01*
X100299592Y-129093088D01*
X100327990Y-129125860D01*
X100330956Y-129123743D01*
X100336926Y-129132105D01*
X100427897Y-129223076D01*
X100427900Y-129223078D01*
X100538656Y-129277222D01*
X100543482Y-129279582D01*
X100618418Y-129290500D01*
X100618423Y-129290500D01*
X100961577Y-129290500D01*
X100961582Y-129290500D01*
X101036518Y-129279582D01*
X101094310Y-129251329D01*
X101152099Y-129223078D01*
X101152102Y-129223076D01*
X101212319Y-129162860D01*
X101273642Y-129129375D01*
X101343334Y-129134359D01*
X101387681Y-129162860D01*
X101447897Y-129223076D01*
X101447900Y-129223078D01*
X101558656Y-129277222D01*
X101563482Y-129279582D01*
X101638418Y-129290500D01*
X101638423Y-129290500D01*
X101981577Y-129290500D01*
X101981582Y-129290500D01*
X102056518Y-129279582D01*
X102114310Y-129251329D01*
X102172099Y-129223078D01*
X102172102Y-129223076D01*
X102263076Y-129132102D01*
X102263078Y-129132099D01*
X102304870Y-129046611D01*
X102319582Y-129016518D01*
X102330500Y-128941582D01*
X102330500Y-128498418D01*
X102328885Y-128487337D01*
X102338694Y-128418162D01*
X102363904Y-128381776D01*
X103252453Y-127493228D01*
X103313775Y-127459744D01*
X103383467Y-127464728D01*
X103439400Y-127506600D01*
X103463817Y-127572064D01*
X103448965Y-127640337D01*
X103447521Y-127642909D01*
X103429656Y-127673853D01*
X103429654Y-127673855D01*
X103423386Y-127684709D01*
X103423386Y-127684710D01*
X103399500Y-127773856D01*
X103399500Y-129073456D01*
X103379815Y-129140495D01*
X103363181Y-129161137D01*
X101941137Y-130583181D01*
X101879814Y-130616666D01*
X101853456Y-130619500D01*
X97403856Y-130619500D01*
X97314712Y-130643386D01*
X97314709Y-130643387D01*
X97234791Y-130689527D01*
X97234786Y-130689531D01*
X95809772Y-132114546D01*
X95748449Y-132148031D01*
X95722091Y-132150865D01*
X94451740Y-132150865D01*
X94384701Y-132131180D01*
X94338946Y-132078376D01*
X94327740Y-132026865D01*
X94327740Y-131989342D01*
X94324943Y-131959506D01*
X94324943Y-131959502D01*
X94280968Y-131833829D01*
X94201905Y-131726701D01*
X94094777Y-131647638D01*
X94094773Y-131647636D01*
X94094772Y-131647636D01*
X93969105Y-131603662D01*
X93939270Y-131600865D01*
X92915219Y-131600865D01*
X92885382Y-131603662D01*
X92885372Y-131603664D01*
X92759709Y-131647636D01*
X92759707Y-131647637D01*
X92759706Y-131647637D01*
X92759705Y-131647638D01*
X92652577Y-131726701D01*
X92573513Y-131833831D01*
X92573512Y-131833833D01*
X92529538Y-131959499D01*
X92529538Y-131959501D01*
X92526741Y-131989335D01*
X92526741Y-133013386D01*
X92529538Y-133043223D01*
X92529540Y-133043233D01*
X92573186Y-133167964D01*
X92573514Y-133168901D01*
X92652577Y-133276029D01*
X92759705Y-133355092D01*
X92784974Y-133363934D01*
X92885376Y-133399067D01*
X92893161Y-133399796D01*
X92915216Y-133401865D01*
X93939265Y-133401864D01*
X93969104Y-133399067D01*
X94094777Y-133355092D01*
X94201905Y-133276029D01*
X94280968Y-133168901D01*
X94305707Y-133098202D01*
X94324943Y-133043230D01*
X94324943Y-133043228D01*
X94327741Y-133013394D01*
X94327741Y-132975865D01*
X94347426Y-132908826D01*
X94400230Y-132863071D01*
X94451741Y-132851865D01*
X95964777Y-132851865D01*
X95964779Y-132851865D01*
X96053923Y-132827979D01*
X96133847Y-132781835D01*
X96572075Y-132343607D01*
X97499500Y-132343607D01*
X97499500Y-132352151D01*
X97499500Y-132956397D01*
X97524594Y-133066342D01*
X97524598Y-133066352D01*
X97529818Y-133077192D01*
X97532639Y-133084793D01*
X97532958Y-133084662D01*
X97536065Y-133092164D01*
X97539555Y-133098209D01*
X97543883Y-133106399D01*
X97573532Y-133167967D01*
X97590556Y-133189315D01*
X97600988Y-133204614D01*
X97601607Y-133205687D01*
X97601610Y-133205691D01*
X97601612Y-133205694D01*
X97601614Y-133205696D01*
X97601615Y-133205697D01*
X97606597Y-133210679D01*
X97615863Y-133221047D01*
X97643850Y-133256142D01*
X97643851Y-133256143D01*
X97643852Y-133256144D01*
X97643854Y-133256146D01*
X97678946Y-133284131D01*
X97678951Y-133284135D01*
X97689317Y-133293400D01*
X97694302Y-133298385D01*
X97694304Y-133298386D01*
X97694306Y-133298388D01*
X97695375Y-133299005D01*
X97710686Y-133309443D01*
X97732033Y-133326467D01*
X97732036Y-133326468D01*
X97732037Y-133326469D01*
X97793593Y-133356113D01*
X97801786Y-133360443D01*
X97807826Y-133363930D01*
X97815347Y-133367045D01*
X97815213Y-133367366D01*
X97822814Y-133370185D01*
X97833650Y-133375403D01*
X97943607Y-133400500D01*
X102056393Y-133400500D01*
X102166350Y-133375403D01*
X102177179Y-133370187D01*
X102184793Y-133367365D01*
X102184659Y-133367042D01*
X102192160Y-133363934D01*
X102192167Y-133363933D01*
X102198202Y-133360448D01*
X102206398Y-133356117D01*
X102219029Y-133350034D01*
X102267967Y-133326467D01*
X102289310Y-133309445D01*
X102304629Y-133299003D01*
X102305692Y-133298389D01*
X102305691Y-133298389D01*
X102305694Y-133298388D01*
X102310682Y-133293400D01*
X102321054Y-133284131D01*
X102356146Y-133256146D01*
X102384131Y-133221054D01*
X102393402Y-133210680D01*
X102398386Y-133205696D01*
X102398389Y-133205692D01*
X102399003Y-133204629D01*
X102409445Y-133189310D01*
X102426467Y-133167967D01*
X102454005Y-133110783D01*
X102456117Y-133106398D01*
X102460448Y-133098202D01*
X102463933Y-133092167D01*
X102463934Y-133092160D01*
X102467042Y-133084659D01*
X102467365Y-133084793D01*
X102470187Y-133077179D01*
X102475403Y-133066350D01*
X102500500Y-132956393D01*
X102500500Y-132900000D01*
X102500500Y-132899500D01*
X102500500Y-132399793D01*
X102500500Y-132343607D01*
X102475403Y-132233650D01*
X102470185Y-132222814D01*
X102467366Y-132215213D01*
X102467045Y-132215347D01*
X102463930Y-132207826D01*
X102460443Y-132201786D01*
X102456113Y-132193593D01*
X102426469Y-132132037D01*
X102426468Y-132132036D01*
X102426467Y-132132033D01*
X102409442Y-132110684D01*
X102399005Y-132095375D01*
X102398388Y-132094306D01*
X102398386Y-132094304D01*
X102398385Y-132094302D01*
X102393400Y-132089317D01*
X102384135Y-132078951D01*
X102356146Y-132043854D01*
X102356144Y-132043852D01*
X102356143Y-132043851D01*
X102356142Y-132043850D01*
X102321047Y-132015863D01*
X102310679Y-132006597D01*
X102305697Y-132001615D01*
X102305695Y-132001613D01*
X102305694Y-132001612D01*
X102305691Y-132001610D01*
X102305687Y-132001607D01*
X102304614Y-132000988D01*
X102289315Y-131990556D01*
X102267966Y-131973532D01*
X102267967Y-131973532D01*
X102206399Y-131943883D01*
X102198209Y-131939555D01*
X102192164Y-131936065D01*
X102184662Y-131932958D01*
X102184793Y-131932639D01*
X102177192Y-131929818D01*
X102166352Y-131924598D01*
X102166342Y-131924594D01*
X102056397Y-131899500D01*
X102056393Y-131899500D01*
X102000207Y-131899500D01*
X100000207Y-131899500D01*
X98000500Y-131899500D01*
X98000000Y-131899500D01*
X97943607Y-131899500D01*
X97943602Y-131899500D01*
X97833649Y-131924596D01*
X97822804Y-131929819D01*
X97815205Y-131932640D01*
X97815337Y-131932958D01*
X97807835Y-131936065D01*
X97801797Y-131939551D01*
X97793614Y-131943875D01*
X97732033Y-131973532D01*
X97732032Y-131973532D01*
X97710684Y-131990557D01*
X97695387Y-132000987D01*
X97695011Y-132001204D01*
X97694303Y-132001613D01*
X97694298Y-132001617D01*
X97689307Y-132006608D01*
X97678955Y-132015859D01*
X97643853Y-132043853D01*
X97615859Y-132078955D01*
X97606608Y-132089307D01*
X97601617Y-132094298D01*
X97601613Y-132094303D01*
X97601204Y-132095011D01*
X97600999Y-132095369D01*
X97600990Y-132095384D01*
X97590557Y-132110684D01*
X97573532Y-132132032D01*
X97573532Y-132132033D01*
X97543875Y-132193614D01*
X97539551Y-132201797D01*
X97536253Y-132207510D01*
X97536067Y-132207833D01*
X97534859Y-132212339D01*
X97524597Y-132233650D01*
X97499500Y-132343607D01*
X96572075Y-132343607D01*
X97558863Y-131356819D01*
X97620186Y-131323334D01*
X97646544Y-131320500D01*
X102096142Y-131320500D01*
X102096144Y-131320500D01*
X102185288Y-131296614D01*
X102265212Y-131250470D01*
X104030470Y-129485212D01*
X104076614Y-129405288D01*
X104100500Y-129316144D01*
X104100500Y-128016544D01*
X104120185Y-127949505D01*
X104136819Y-127928863D01*
X105494948Y-126570734D01*
X106853229Y-125212453D01*
X106899373Y-125132529D01*
X106900647Y-125127772D01*
X106901922Y-125123016D01*
X106914694Y-125075349D01*
X106923259Y-125043385D01*
X106923259Y-123243134D01*
X106942944Y-123176095D01*
X106995748Y-123130340D01*
X107047259Y-123119134D01*
X107084781Y-123119134D01*
X107084783Y-123119134D01*
X107114622Y-123116337D01*
X107240295Y-123072362D01*
X107347423Y-122993299D01*
X107347425Y-122993296D01*
X107351867Y-122990018D01*
X107417496Y-122966048D01*
X107485666Y-122981364D01*
X107534734Y-123031104D01*
X107549500Y-123089789D01*
X107549500Y-129703456D01*
X107529815Y-129770495D01*
X107513181Y-129791137D01*
X106292290Y-131012027D01*
X106292286Y-131012032D01*
X106246146Y-131091950D01*
X106246145Y-131091953D01*
X106222259Y-131181097D01*
X106222259Y-131476865D01*
X106202574Y-131543904D01*
X106149770Y-131589659D01*
X106098262Y-131600865D01*
X106060737Y-131600865D01*
X106030899Y-131603662D01*
X106030890Y-131603664D01*
X105905227Y-131647636D01*
X105905225Y-131647637D01*
X105905224Y-131647637D01*
X105905223Y-131647638D01*
X105798095Y-131726701D01*
X105719031Y-131833831D01*
X105719030Y-131833833D01*
X105675056Y-131959499D01*
X105675056Y-131959501D01*
X105672259Y-131989335D01*
X105672259Y-133013386D01*
X105675056Y-133043223D01*
X105675058Y-133043233D01*
X105718704Y-133167964D01*
X105719032Y-133168901D01*
X105798095Y-133276029D01*
X105905223Y-133355092D01*
X105930492Y-133363934D01*
X106030894Y-133399067D01*
X106038679Y-133399796D01*
X106060734Y-133401865D01*
X107084783Y-133401864D01*
X107114622Y-133399067D01*
X107240295Y-133355092D01*
X107347423Y-133276029D01*
X107426486Y-133168901D01*
X107451225Y-133098202D01*
X107470461Y-133043230D01*
X107470461Y-133043228D01*
X107470461Y-133043223D01*
X107473259Y-133013390D01*
X107473258Y-131989341D01*
X107470461Y-131959502D01*
X107426486Y-131833829D01*
X107347423Y-131726701D01*
X107240295Y-131647638D01*
X107240291Y-131647636D01*
X107240290Y-131647636D01*
X107114623Y-131603662D01*
X107084788Y-131600865D01*
X107084784Y-131600865D01*
X107047259Y-131600865D01*
X106980220Y-131581180D01*
X106934465Y-131528376D01*
X106923259Y-131476865D01*
X106923259Y-131423785D01*
X106942944Y-131356746D01*
X106959578Y-131336104D01*
X107283655Y-131012027D01*
X108180470Y-130115212D01*
X108226614Y-130035288D01*
X108250500Y-129946144D01*
X108250500Y-119811465D01*
X109936595Y-119811465D01*
X109936595Y-120066534D01*
X109954809Y-120181531D01*
X109976494Y-120318446D01*
X110055311Y-120561020D01*
X110171105Y-120788278D01*
X110321024Y-120994623D01*
X110501377Y-121174976D01*
X110707722Y-121324895D01*
X110934980Y-121440689D01*
X111177554Y-121519506D01*
X111307342Y-121540062D01*
X111429466Y-121559405D01*
X111429471Y-121559405D01*
X111684534Y-121559405D01*
X111795862Y-121541771D01*
X111936446Y-121519506D01*
X112179020Y-121440689D01*
X112406278Y-121324895D01*
X112612623Y-121174976D01*
X112792976Y-120994623D01*
X112942895Y-120788278D01*
X113058689Y-120561020D01*
X113137506Y-120318446D01*
X113159771Y-120177862D01*
X113177405Y-120066534D01*
X113177405Y-119811465D01*
X113156245Y-119677870D01*
X113137506Y-119559554D01*
X113058689Y-119316980D01*
X112942895Y-119089722D01*
X112792976Y-118883377D01*
X112612623Y-118703024D01*
X112406278Y-118553105D01*
X112179020Y-118437311D01*
X111936446Y-118358494D01*
X111684534Y-118318595D01*
X111684529Y-118318595D01*
X111429471Y-118318595D01*
X111429466Y-118318595D01*
X111177553Y-118358494D01*
X110934977Y-118437312D01*
X110707721Y-118553105D01*
X110589994Y-118638639D01*
X110501377Y-118703024D01*
X110501375Y-118703026D01*
X110501374Y-118703026D01*
X110321026Y-118883374D01*
X110321026Y-118883375D01*
X110321024Y-118883377D01*
X110318188Y-118887281D01*
X110171105Y-119089721D01*
X110055312Y-119316977D01*
X109976494Y-119559553D01*
X109936595Y-119811465D01*
X108250500Y-119811465D01*
X108250500Y-102503856D01*
X108226614Y-102414712D01*
X108180470Y-102334788D01*
X105889429Y-100043747D01*
X105855944Y-99982424D01*
X105860928Y-99912732D01*
X105889429Y-99868385D01*
X105917314Y-99840500D01*
X105960500Y-99797314D01*
X106026392Y-99683186D01*
X106060500Y-99555892D01*
X106060500Y-99536544D01*
X106080185Y-99469505D01*
X106096819Y-99448863D01*
X107021182Y-98524500D01*
X108180470Y-97365212D01*
X108226614Y-97285288D01*
X108250500Y-97196143D01*
X108250500Y-97103856D01*
X108250500Y-80395351D01*
X108226614Y-80306207D01*
X108225072Y-80303536D01*
X108225069Y-80303530D01*
X108180474Y-80226289D01*
X108180468Y-80226281D01*
X107887652Y-79933465D01*
X109936595Y-79933465D01*
X109936595Y-80188534D01*
X109955233Y-80306207D01*
X109976494Y-80440446D01*
X110055311Y-80683020D01*
X110171105Y-80910278D01*
X110321024Y-81116623D01*
X110501377Y-81296976D01*
X110707722Y-81446895D01*
X110934980Y-81562689D01*
X111177554Y-81641506D01*
X111307342Y-81662062D01*
X111429466Y-81681405D01*
X111429471Y-81681405D01*
X111684534Y-81681405D01*
X111795862Y-81663771D01*
X111936446Y-81641506D01*
X112179020Y-81562689D01*
X112406278Y-81446895D01*
X112612623Y-81296976D01*
X112792976Y-81116623D01*
X112942895Y-80910278D01*
X113058689Y-80683020D01*
X113137506Y-80440446D01*
X113171425Y-80226289D01*
X113177405Y-80188534D01*
X113177405Y-79933465D01*
X113156245Y-79799870D01*
X113137506Y-79681554D01*
X113058689Y-79438980D01*
X112942895Y-79211722D01*
X112792976Y-79005377D01*
X112612623Y-78825024D01*
X112406278Y-78675105D01*
X112179020Y-78559311D01*
X111936446Y-78480494D01*
X111684534Y-78440595D01*
X111684529Y-78440595D01*
X111429471Y-78440595D01*
X111429466Y-78440595D01*
X111177553Y-78480494D01*
X110934977Y-78559312D01*
X110707721Y-78675105D01*
X110623946Y-78735972D01*
X110501377Y-78825024D01*
X110501375Y-78825026D01*
X110501374Y-78825026D01*
X110321026Y-79005374D01*
X110321026Y-79005375D01*
X110321024Y-79005377D01*
X110321014Y-79005391D01*
X110171105Y-79211721D01*
X110055312Y-79438977D01*
X109976494Y-79681553D01*
X109936595Y-79933465D01*
X107887652Y-79933465D01*
X106959578Y-79005391D01*
X106926093Y-78944068D01*
X106923259Y-78917710D01*
X106923259Y-78805864D01*
X106942944Y-78738825D01*
X106995748Y-78693070D01*
X107047259Y-78681864D01*
X107084781Y-78681864D01*
X107084783Y-78681864D01*
X107114622Y-78679067D01*
X107240295Y-78635092D01*
X107347423Y-78556029D01*
X107426486Y-78448901D01*
X107451225Y-78378202D01*
X107470461Y-78323230D01*
X107470461Y-78323228D01*
X107470461Y-78323223D01*
X107473259Y-78293390D01*
X107473258Y-77269341D01*
X107470461Y-77239502D01*
X107426486Y-77113829D01*
X107347423Y-77006701D01*
X107240295Y-76927638D01*
X107240291Y-76927636D01*
X107240290Y-76927636D01*
X107114623Y-76883662D01*
X107084788Y-76880865D01*
X106060733Y-76880865D01*
X106036067Y-76883177D01*
X105967484Y-76869832D01*
X105917003Y-76821527D01*
X105900500Y-76759718D01*
X105900500Y-75996544D01*
X105920185Y-75929505D01*
X105936814Y-75908866D01*
X106048771Y-75796909D01*
X106074443Y-75777211D01*
X106138015Y-75740509D01*
X106240509Y-75638015D01*
X106312984Y-75512485D01*
X106350500Y-75372475D01*
X106350500Y-75227525D01*
X106312984Y-75087515D01*
X106294281Y-75055121D01*
X106240511Y-74961988D01*
X106240506Y-74961982D01*
X106138017Y-74859493D01*
X106138011Y-74859488D01*
X106012488Y-74787017D01*
X106012489Y-74787017D01*
X106001006Y-74783940D01*
X105872475Y-74749500D01*
X105727525Y-74749500D01*
X105598993Y-74783940D01*
X105587511Y-74787017D01*
X105461988Y-74859488D01*
X105461982Y-74859493D01*
X105359493Y-74961982D01*
X105359488Y-74961988D01*
X105287017Y-75087511D01*
X105287016Y-75087515D01*
X105249500Y-75227525D01*
X105249500Y-75372475D01*
X105281129Y-75490513D01*
X105279466Y-75560363D01*
X105268742Y-75584606D01*
X105221273Y-75666825D01*
X105197390Y-75755961D01*
X105197390Y-75848254D01*
X105198439Y-75856221D01*
X105199500Y-75872408D01*
X105199500Y-85103456D01*
X105179815Y-85170495D01*
X105163181Y-85191137D01*
X104169531Y-86184786D01*
X104169530Y-86184788D01*
X104131499Y-86250660D01*
X104123386Y-86264712D01*
X104099500Y-86353856D01*
X104099500Y-88753455D01*
X104079815Y-88820494D01*
X104063181Y-88841136D01*
X101797672Y-91106644D01*
X101736349Y-91140129D01*
X101666657Y-91135145D01*
X101610724Y-91093273D01*
X101597609Y-91071368D01*
X101548154Y-90965313D01*
X101543644Y-90955641D01*
X101459359Y-90871356D01*
X101381343Y-90834976D01*
X101328905Y-90788805D01*
X101309753Y-90721611D01*
X101329969Y-90654730D01*
X101383134Y-90609395D01*
X101408105Y-90602332D01*
X101408012Y-90601984D01*
X101415871Y-90599877D01*
X101558780Y-90540683D01*
X101558786Y-90540680D01*
X101681509Y-90446510D01*
X101681510Y-90446509D01*
X101775680Y-90323786D01*
X101775683Y-90323780D01*
X101834878Y-90180868D01*
X101843551Y-90115000D01*
X100961500Y-90115000D01*
X100894461Y-90095315D01*
X100848706Y-90042511D01*
X100837500Y-89991000D01*
X100837500Y-89889000D01*
X100857185Y-89821961D01*
X100909989Y-89776206D01*
X100961500Y-89765000D01*
X101843549Y-89765000D01*
X101843549Y-89764999D01*
X101836434Y-89710945D01*
X101847200Y-89641910D01*
X101893580Y-89589655D01*
X101924780Y-89575684D01*
X102006193Y-89552032D01*
X102006195Y-89552031D01*
X102145374Y-89469721D01*
X102145383Y-89469714D01*
X102259714Y-89355383D01*
X102259721Y-89355374D01*
X102342031Y-89216195D01*
X102342033Y-89216190D01*
X102387144Y-89060918D01*
X102387145Y-89060912D01*
X102388790Y-89040000D01*
X101734000Y-89040000D01*
X101666961Y-89020315D01*
X101621206Y-88967511D01*
X101610000Y-88916000D01*
X101610000Y-88664000D01*
X101629685Y-88596961D01*
X101682489Y-88551206D01*
X101734000Y-88540000D01*
X102388790Y-88540000D01*
X102387145Y-88519089D01*
X102342031Y-88363804D01*
X102267407Y-88237621D01*
X102250224Y-88169897D01*
X102272384Y-88103634D01*
X102326850Y-88059871D01*
X102374139Y-88050500D01*
X102522472Y-88050500D01*
X102522475Y-88050500D01*
X102662485Y-88012984D01*
X102788015Y-87940509D01*
X102890509Y-87838015D01*
X102962984Y-87712485D01*
X103000500Y-87572475D01*
X103000500Y-87427525D01*
X102962984Y-87287515D01*
X102923733Y-87219531D01*
X102890511Y-87161988D01*
X102890506Y-87161982D01*
X102788017Y-87059493D01*
X102788011Y-87059488D01*
X102662488Y-86987017D01*
X102662489Y-86987017D01*
X102651006Y-86983940D01*
X102522475Y-86949500D01*
X102377525Y-86949500D01*
X102248993Y-86983940D01*
X102237511Y-86987017D01*
X102111988Y-87059488D01*
X102111982Y-87059493D01*
X102058295Y-87113181D01*
X101996972Y-87146666D01*
X101970614Y-87149500D01*
X101003856Y-87149500D01*
X100914712Y-87173386D01*
X100914709Y-87173387D01*
X100834791Y-87219527D01*
X100834786Y-87219531D01*
X100319531Y-87734786D01*
X100319527Y-87734791D01*
X100273387Y-87814709D01*
X100273386Y-87814712D01*
X100249500Y-87903856D01*
X100249500Y-88265500D01*
X100229815Y-88332539D01*
X100177011Y-88378294D01*
X100125500Y-88389500D01*
X100053856Y-88389500D01*
X99964712Y-88413386D01*
X99964711Y-88413386D01*
X99964709Y-88413387D01*
X99964706Y-88413388D01*
X99884794Y-88459526D01*
X99884785Y-88459533D01*
X99719531Y-88624786D01*
X99719529Y-88624789D01*
X99679656Y-88693853D01*
X99679654Y-88693855D01*
X99673386Y-88704709D01*
X99673386Y-88704710D01*
X99649500Y-88793856D01*
X99649500Y-89390500D01*
X99629815Y-89457539D01*
X99577011Y-89503294D01*
X99525500Y-89514500D01*
X98697895Y-89514500D01*
X98648674Y-89520980D01*
X98648669Y-89520981D01*
X98641931Y-89524123D01*
X98633869Y-89527882D01*
X98581466Y-89539500D01*
X98540741Y-89539500D01*
X98473702Y-89519815D01*
X98446832Y-89494436D01*
X98446760Y-89494509D01*
X98444238Y-89491987D01*
X98440420Y-89488381D01*
X98434120Y-89479709D01*
X98435180Y-89478938D01*
X98406495Y-89426406D01*
X98411479Y-89356714D01*
X98416261Y-89345587D01*
X98469581Y-89236520D01*
X98469580Y-89236520D01*
X98469582Y-89236518D01*
X98480500Y-89161582D01*
X98480500Y-88718418D01*
X98469582Y-88643482D01*
X98467222Y-88638656D01*
X98413078Y-88527900D01*
X98413076Y-88527897D01*
X98322102Y-88436923D01*
X98322099Y-88436921D01*
X98206521Y-88380419D01*
X98206519Y-88380418D01*
X98206518Y-88380418D01*
X98131582Y-88369500D01*
X97788418Y-88369500D01*
X97713482Y-88380418D01*
X97713480Y-88380418D01*
X97713478Y-88380419D01*
X97597900Y-88436921D01*
X97597897Y-88436923D01*
X97537681Y-88497140D01*
X97476358Y-88530625D01*
X97406666Y-88525641D01*
X97362319Y-88497140D01*
X97302102Y-88436923D01*
X97302099Y-88436921D01*
X97186521Y-88380419D01*
X97186519Y-88380418D01*
X97186518Y-88380418D01*
X97111582Y-88369500D01*
X96768418Y-88369500D01*
X96708060Y-88378294D01*
X96693481Y-88380418D01*
X96686523Y-88383820D01*
X96617649Y-88395576D01*
X96553353Y-88368230D01*
X96544386Y-88360098D01*
X94364059Y-86179771D01*
X94330574Y-86118448D01*
X94327740Y-86092090D01*
X94327740Y-85283607D01*
X97499500Y-85283607D01*
X97499500Y-85292151D01*
X97499500Y-85896397D01*
X97524594Y-86006342D01*
X97524598Y-86006352D01*
X97529818Y-86017192D01*
X97532639Y-86024793D01*
X97532958Y-86024662D01*
X97536065Y-86032164D01*
X97539555Y-86038209D01*
X97543883Y-86046399D01*
X97573532Y-86107967D01*
X97590556Y-86129315D01*
X97600988Y-86144614D01*
X97601607Y-86145687D01*
X97601610Y-86145691D01*
X97601612Y-86145694D01*
X97601614Y-86145696D01*
X97601615Y-86145697D01*
X97606597Y-86150679D01*
X97615863Y-86161047D01*
X97643850Y-86196142D01*
X97643851Y-86196143D01*
X97643852Y-86196144D01*
X97643854Y-86196146D01*
X97678946Y-86224131D01*
X97678951Y-86224135D01*
X97689317Y-86233400D01*
X97694302Y-86238385D01*
X97694304Y-86238386D01*
X97694306Y-86238388D01*
X97695375Y-86239005D01*
X97710686Y-86249443D01*
X97732033Y-86266467D01*
X97732036Y-86266468D01*
X97732037Y-86266469D01*
X97793593Y-86296113D01*
X97801786Y-86300443D01*
X97807826Y-86303930D01*
X97815347Y-86307045D01*
X97815213Y-86307366D01*
X97822814Y-86310185D01*
X97833650Y-86315403D01*
X97943607Y-86340500D01*
X102056393Y-86340500D01*
X102166350Y-86315403D01*
X102177179Y-86310187D01*
X102184793Y-86307365D01*
X102184659Y-86307042D01*
X102192160Y-86303934D01*
X102192167Y-86303933D01*
X102198202Y-86300448D01*
X102206398Y-86296117D01*
X102219029Y-86290034D01*
X102267967Y-86266467D01*
X102289310Y-86249445D01*
X102304629Y-86239003D01*
X102305692Y-86238389D01*
X102305691Y-86238389D01*
X102305694Y-86238388D01*
X102310682Y-86233400D01*
X102321054Y-86224131D01*
X102356146Y-86196146D01*
X102384131Y-86161054D01*
X102393402Y-86150680D01*
X102398386Y-86145696D01*
X102398389Y-86145692D01*
X102399003Y-86144629D01*
X102409445Y-86129310D01*
X102426467Y-86107967D01*
X102455787Y-86047084D01*
X102456117Y-86046398D01*
X102460448Y-86038202D01*
X102463933Y-86032167D01*
X102463934Y-86032160D01*
X102467042Y-86024659D01*
X102467365Y-86024793D01*
X102470187Y-86017179D01*
X102475403Y-86006350D01*
X102500500Y-85896393D01*
X102500500Y-85840000D01*
X102500500Y-85839500D01*
X102500500Y-85339793D01*
X102500500Y-85283607D01*
X102475403Y-85173650D01*
X102470185Y-85162814D01*
X102467366Y-85155213D01*
X102467045Y-85155347D01*
X102463930Y-85147826D01*
X102460443Y-85141786D01*
X102456113Y-85133593D01*
X102426469Y-85072037D01*
X102426468Y-85072036D01*
X102426467Y-85072033D01*
X102409442Y-85050684D01*
X102399005Y-85035375D01*
X102398388Y-85034306D01*
X102398386Y-85034304D01*
X102398385Y-85034302D01*
X102393400Y-85029317D01*
X102384135Y-85018951D01*
X102361221Y-84990218D01*
X102356146Y-84983854D01*
X102356144Y-84983852D01*
X102356143Y-84983851D01*
X102356142Y-84983850D01*
X102321047Y-84955863D01*
X102310679Y-84946597D01*
X102305697Y-84941615D01*
X102305695Y-84941613D01*
X102305694Y-84941612D01*
X102305691Y-84941610D01*
X102305687Y-84941607D01*
X102304614Y-84940988D01*
X102289315Y-84930556D01*
X102267966Y-84913532D01*
X102267967Y-84913532D01*
X102206399Y-84883883D01*
X102198209Y-84879555D01*
X102192164Y-84876065D01*
X102184662Y-84872958D01*
X102184793Y-84872639D01*
X102177192Y-84869818D01*
X102166352Y-84864598D01*
X102166342Y-84864594D01*
X102056397Y-84839500D01*
X102056393Y-84839500D01*
X102000207Y-84839500D01*
X98000500Y-84839500D01*
X98000000Y-84839500D01*
X97943607Y-84839500D01*
X97943602Y-84839500D01*
X97833649Y-84864596D01*
X97822804Y-84869819D01*
X97815205Y-84872640D01*
X97815337Y-84872958D01*
X97807835Y-84876065D01*
X97801797Y-84879551D01*
X97793614Y-84883875D01*
X97732033Y-84913532D01*
X97732032Y-84913532D01*
X97710684Y-84930557D01*
X97695387Y-84940987D01*
X97695011Y-84941204D01*
X97694303Y-84941613D01*
X97694298Y-84941617D01*
X97689307Y-84946608D01*
X97678955Y-84955859D01*
X97643853Y-84983853D01*
X97615859Y-85018955D01*
X97606608Y-85029307D01*
X97601617Y-85034298D01*
X97601613Y-85034303D01*
X97601204Y-85035011D01*
X97600999Y-85035369D01*
X97600990Y-85035384D01*
X97590557Y-85050684D01*
X97573532Y-85072032D01*
X97573532Y-85072033D01*
X97543875Y-85133614D01*
X97539551Y-85141797D01*
X97536253Y-85147510D01*
X97536067Y-85147833D01*
X97534859Y-85152339D01*
X97524597Y-85173650D01*
X97499500Y-85283607D01*
X94327740Y-85283607D01*
X94327740Y-85226612D01*
X94324943Y-85196776D01*
X94324943Y-85196772D01*
X94280968Y-85071099D01*
X94201905Y-84963971D01*
X94094777Y-84884908D01*
X94094773Y-84884906D01*
X94094772Y-84884906D01*
X93969105Y-84840932D01*
X93939270Y-84838135D01*
X92915219Y-84838135D01*
X92885382Y-84840932D01*
X92885372Y-84840934D01*
X92759709Y-84884906D01*
X92759707Y-84884907D01*
X92759706Y-84884907D01*
X92759705Y-84884908D01*
X92652577Y-84963971D01*
X92576641Y-85066863D01*
X92573513Y-85071101D01*
X92573512Y-85071103D01*
X92529538Y-85196769D01*
X92529538Y-85196771D01*
X92526741Y-85226605D01*
X88579137Y-85226605D01*
X88345680Y-85070637D01*
X88340341Y-85066863D01*
X88318689Y-85050684D01*
X88279207Y-85021182D01*
X88276699Y-85019257D01*
X87960089Y-84769694D01*
X87954854Y-84765329D01*
X87903700Y-84720236D01*
X87901531Y-84718278D01*
X87599383Y-84439007D01*
X87594326Y-84434057D01*
X87554255Y-84392526D01*
X87552476Y-84390642D01*
X87265913Y-84080672D01*
X87261088Y-84075131D01*
X87233066Y-84040952D01*
X87231638Y-84039174D01*
X86961803Y-83696922D01*
X86957252Y-83690768D01*
X86942271Y-83669145D01*
X86941099Y-83667422D01*
X86689008Y-83290177D01*
X86684816Y-83283448D01*
X86683583Y-83281320D01*
X86682687Y-83279747D01*
X86451612Y-82867166D01*
X86447209Y-82858526D01*
X86248383Y-82427273D01*
X86244656Y-82418277D01*
X86080281Y-81972753D01*
X86077276Y-81963504D01*
X85948365Y-81506450D01*
X85946100Y-81497016D01*
X85853445Y-81031242D01*
X85851927Y-81021660D01*
X85796105Y-80550056D01*
X85795344Y-80540381D01*
X85776699Y-80065860D01*
X85776699Y-80056132D01*
X85781500Y-79933943D01*
X85781519Y-79933465D01*
X86822595Y-79933465D01*
X86822595Y-80188534D01*
X86841233Y-80306207D01*
X86862494Y-80440446D01*
X86941311Y-80683020D01*
X87057105Y-80910278D01*
X87207024Y-81116623D01*
X87387377Y-81296976D01*
X87593722Y-81446895D01*
X87820980Y-81562689D01*
X88063554Y-81641506D01*
X88193342Y-81662062D01*
X88315466Y-81681405D01*
X88315471Y-81681405D01*
X88570534Y-81681405D01*
X88681862Y-81663771D01*
X88822446Y-81641506D01*
X89065020Y-81562689D01*
X89292278Y-81446895D01*
X89498623Y-81296976D01*
X89678976Y-81116623D01*
X89828895Y-80910278D01*
X89944689Y-80683020D01*
X90023506Y-80440446D01*
X90057425Y-80226289D01*
X90063405Y-80188534D01*
X90063405Y-79933465D01*
X90042245Y-79799870D01*
X90023506Y-79681554D01*
X89944689Y-79438980D01*
X89828895Y-79211722D01*
X89678976Y-79005377D01*
X89498623Y-78825024D01*
X89292278Y-78675105D01*
X89065020Y-78559311D01*
X88822446Y-78480494D01*
X88570534Y-78440595D01*
X88570529Y-78440595D01*
X88315471Y-78440595D01*
X88315466Y-78440595D01*
X88063553Y-78480494D01*
X87820977Y-78559312D01*
X87593721Y-78675105D01*
X87509946Y-78735972D01*
X87387377Y-78825024D01*
X87387375Y-78825026D01*
X87387374Y-78825026D01*
X87207026Y-79005374D01*
X87207026Y-79005375D01*
X87207024Y-79005377D01*
X87207014Y-79005391D01*
X87057105Y-79211721D01*
X86941312Y-79438977D01*
X86862494Y-79681553D01*
X86822595Y-79933465D01*
X85781519Y-79933465D01*
X85795344Y-79581614D01*
X85796105Y-79571945D01*
X85851928Y-79100335D01*
X85853444Y-79090761D01*
X85946101Y-78624977D01*
X85948363Y-78615554D01*
X86077281Y-78158477D01*
X86080278Y-78149253D01*
X86244659Y-77703713D01*
X86248383Y-77694726D01*
X86254942Y-77680500D01*
X86447214Y-77263463D01*
X86451606Y-77254843D01*
X86682773Y-76842099D01*
X86683507Y-76840810D01*
X86684833Y-76838521D01*
X86688985Y-76831857D01*
X86941132Y-76454526D01*
X86942221Y-76452926D01*
X86957278Y-76431193D01*
X86961779Y-76425107D01*
X87231729Y-76082710D01*
X87232985Y-76081147D01*
X87261116Y-76046834D01*
X87265885Y-76041357D01*
X87552554Y-75731272D01*
X87554167Y-75729565D01*
X87594360Y-75687906D01*
X87599351Y-75683021D01*
X87901605Y-75403652D01*
X87903628Y-75401826D01*
X87954888Y-75356640D01*
X87960053Y-75352333D01*
X88276780Y-75102678D01*
X88279109Y-75100890D01*
X88340397Y-75055095D01*
X88345649Y-75051382D01*
X88675608Y-74830944D01*
X88678357Y-74829163D01*
X88748403Y-74785157D01*
X88753674Y-74782028D01*
X89095501Y-74590628D01*
X89098677Y-74588913D01*
X89176301Y-74548487D01*
X89181588Y-74545893D01*
X89533943Y-74383489D01*
X89537472Y-74381932D01*
X89621389Y-74346517D01*
X89626549Y-74344478D01*
X89987997Y-74211168D01*
X89991974Y-74209778D01*
X90080729Y-74180508D01*
X90085784Y-74178963D01*
X90318607Y-74113322D01*
X94872890Y-74113322D01*
X94883033Y-74212607D01*
X94936341Y-74373481D01*
X94936346Y-74373492D01*
X95025313Y-74517728D01*
X95025316Y-74517732D01*
X95145156Y-74637572D01*
X95145160Y-74637575D01*
X95289396Y-74726542D01*
X95289407Y-74726547D01*
X95450282Y-74779855D01*
X95549572Y-74789999D01*
X95572889Y-74789998D01*
X95572889Y-74065000D01*
X94872890Y-74065000D01*
X94872890Y-74113322D01*
X90318607Y-74113322D01*
X90454894Y-74074898D01*
X90459222Y-74073764D01*
X90551417Y-74051420D01*
X90556323Y-74050338D01*
X90983048Y-73965500D01*
X90983207Y-73965500D01*
X90983238Y-73965468D01*
X90983572Y-73965416D01*
X90983500Y-73964960D01*
X90983500Y-73516677D01*
X94872889Y-73516677D01*
X94872889Y-73565000D01*
X95572889Y-73565000D01*
X95572889Y-72839999D01*
X95549582Y-72840000D01*
X95549563Y-72840001D01*
X95450281Y-72850144D01*
X95289407Y-72903452D01*
X95289396Y-72903457D01*
X95145160Y-72992424D01*
X95145156Y-72992427D01*
X95025316Y-73112267D01*
X95025313Y-73112271D01*
X94936346Y-73256507D01*
X94936341Y-73256518D01*
X94883033Y-73417393D01*
X94872889Y-73516677D01*
X90983500Y-73516677D01*
X90983500Y-71900000D01*
X96241210Y-71900000D01*
X96242854Y-71920910D01*
X96287968Y-72076195D01*
X96370278Y-72215374D01*
X96370285Y-72215383D01*
X96484616Y-72329714D01*
X96484625Y-72329721D01*
X96623804Y-72412031D01*
X96770000Y-72454504D01*
X96770000Y-71900000D01*
X96241210Y-71900000D01*
X90983500Y-71900000D01*
X90983500Y-66986605D01*
X92526741Y-66986605D01*
X92526741Y-68010656D01*
X92529538Y-68040493D01*
X92529540Y-68040503D01*
X92563662Y-68138017D01*
X92573514Y-68166171D01*
X92652577Y-68273299D01*
X92759705Y-68352362D01*
X92805388Y-68368347D01*
X92885376Y-68396337D01*
X92893161Y-68397066D01*
X92915216Y-68399135D01*
X93780696Y-68399134D01*
X93847735Y-68418818D01*
X93868377Y-68435453D01*
X96357310Y-70924386D01*
X96390795Y-70985709D01*
X96385811Y-71055401D01*
X96373513Y-71077470D01*
X96374252Y-71077907D01*
X96287968Y-71223804D01*
X96287966Y-71223809D01*
X96242855Y-71379081D01*
X96242854Y-71379087D01*
X96241209Y-71399999D01*
X96241210Y-71400000D01*
X96896000Y-71400000D01*
X96963039Y-71419685D01*
X97008794Y-71472489D01*
X97020000Y-71524000D01*
X97020000Y-71650000D01*
X97146000Y-71650000D01*
X97213039Y-71669685D01*
X97258794Y-71722489D01*
X97270000Y-71774000D01*
X97270000Y-72454503D01*
X97416195Y-72412031D01*
X97555374Y-72329721D01*
X97555379Y-72329717D01*
X97648333Y-72236763D01*
X97709656Y-72203278D01*
X97755410Y-72201970D01*
X97809265Y-72210500D01*
X98150734Y-72210499D01*
X98150739Y-72210499D01*
X98150739Y-72210498D01*
X98177431Y-72206270D01*
X98251814Y-72194491D01*
X98252244Y-72197210D01*
X98307012Y-72195641D01*
X98366848Y-72231716D01*
X98397682Y-72294414D01*
X98399500Y-72315569D01*
X98399500Y-72477104D01*
X98405980Y-72526325D01*
X98405982Y-72526333D01*
X98450870Y-72622595D01*
X98461362Y-72691673D01*
X98450870Y-72727404D01*
X98405980Y-72823669D01*
X98405980Y-72823671D01*
X98399501Y-72872886D01*
X98399500Y-72872903D01*
X98399500Y-73127104D01*
X98405980Y-73176325D01*
X98405982Y-73176333D01*
X98454351Y-73280059D01*
X98464843Y-73349136D01*
X98436324Y-73412920D01*
X98396430Y-73443864D01*
X98287898Y-73496923D01*
X98287896Y-73496924D01*
X98272906Y-73511914D01*
X98211582Y-73545398D01*
X98141891Y-73540412D01*
X98085958Y-73498539D01*
X98069045Y-73467565D01*
X98067301Y-73462890D01*
X98067301Y-73462886D01*
X98019517Y-73334774D01*
X97937576Y-73225313D01*
X97864044Y-73170268D01*
X97828117Y-73143373D01*
X97828115Y-73143372D01*
X97700003Y-73095588D01*
X97700001Y-73095587D01*
X97699999Y-73095587D01*
X97643382Y-73089500D01*
X97102407Y-73089500D01*
X97102398Y-73089501D01*
X97045774Y-73095587D01*
X96917660Y-73143373D01*
X96836084Y-73204439D01*
X96770619Y-73228855D01*
X96702347Y-73214002D01*
X96656236Y-73170268D01*
X96620460Y-73112266D01*
X96500621Y-72992427D01*
X96500617Y-72992424D01*
X96356381Y-72903457D01*
X96356370Y-72903452D01*
X96195495Y-72850144D01*
X96096211Y-72840000D01*
X96072889Y-72840000D01*
X96072889Y-74789999D01*
X96096197Y-74789999D01*
X96096211Y-74789998D01*
X96195496Y-74779855D01*
X96356370Y-74726547D01*
X96356381Y-74726542D01*
X96500617Y-74637575D01*
X96500621Y-74637572D01*
X96620462Y-74517731D01*
X96656237Y-74459731D01*
X96708185Y-74413006D01*
X96777147Y-74401783D01*
X96836083Y-74425558D01*
X96917663Y-74486628D01*
X97045775Y-74534412D01*
X97102404Y-74540500D01*
X97643373Y-74540499D01*
X97700003Y-74534412D01*
X97828115Y-74486628D01*
X97828118Y-74486626D01*
X97937570Y-74404692D01*
X97937571Y-74404690D01*
X97937576Y-74404687D01*
X97940945Y-74400185D01*
X97996880Y-74358317D01*
X98040210Y-74350500D01*
X98089404Y-74350500D01*
X98156443Y-74370185D01*
X98188115Y-74405770D01*
X98190956Y-74403743D01*
X98196926Y-74412105D01*
X98287897Y-74503076D01*
X98287900Y-74503078D01*
X98364445Y-74540498D01*
X98403482Y-74559582D01*
X98478418Y-74570500D01*
X98478423Y-74570500D01*
X98821577Y-74570500D01*
X98821582Y-74570500D01*
X98896518Y-74559582D01*
X98982125Y-74517731D01*
X99012099Y-74503078D01*
X99012102Y-74503076D01*
X99072319Y-74442860D01*
X99133642Y-74409375D01*
X99203334Y-74414359D01*
X99247681Y-74442860D01*
X99307897Y-74503076D01*
X99307900Y-74503078D01*
X99384445Y-74540498D01*
X99423482Y-74559582D01*
X99498418Y-74570500D01*
X99498423Y-74570500D01*
X99841577Y-74570500D01*
X99841582Y-74570500D01*
X99916518Y-74559582D01*
X100002125Y-74517731D01*
X100032099Y-74503078D01*
X100032102Y-74503076D01*
X100123074Y-74412105D01*
X100129044Y-74403743D01*
X100132426Y-74406158D01*
X100165554Y-74369781D01*
X100233058Y-74351756D01*
X100299592Y-74373088D01*
X100327990Y-74405860D01*
X100330956Y-74403743D01*
X100336926Y-74412105D01*
X100427897Y-74503076D01*
X100427900Y-74503078D01*
X100504445Y-74540498D01*
X100543482Y-74559582D01*
X100618418Y-74570500D01*
X100618423Y-74570500D01*
X100961577Y-74570500D01*
X100961582Y-74570500D01*
X101036518Y-74559582D01*
X101122125Y-74517731D01*
X101152099Y-74503078D01*
X101152102Y-74503076D01*
X101212319Y-74442860D01*
X101273642Y-74409375D01*
X101343334Y-74414359D01*
X101387681Y-74442860D01*
X101447897Y-74503076D01*
X101447900Y-74503078D01*
X101524445Y-74540498D01*
X101563482Y-74559582D01*
X101638418Y-74570500D01*
X101638423Y-74570500D01*
X101981577Y-74570500D01*
X101981582Y-74570500D01*
X102056518Y-74559582D01*
X102142125Y-74517731D01*
X102172099Y-74503078D01*
X102172102Y-74503076D01*
X102263076Y-74412102D01*
X102263078Y-74412099D01*
X102296146Y-74344456D01*
X102319582Y-74296518D01*
X102330500Y-74221582D01*
X102330500Y-73778418D01*
X102319582Y-73703482D01*
X102293192Y-73649500D01*
X102263078Y-73587900D01*
X102263076Y-73587897D01*
X102223111Y-73547932D01*
X102189626Y-73486609D01*
X102194610Y-73416917D01*
X102223109Y-73372572D01*
X105630470Y-69965212D01*
X105676614Y-69885288D01*
X105681993Y-69865212D01*
X105700500Y-69796144D01*
X105700500Y-68446899D01*
X105720185Y-68379860D01*
X105772989Y-68334105D01*
X105842147Y-68324161D01*
X105898130Y-68347127D01*
X105905223Y-68352362D01*
X105950906Y-68368347D01*
X106030894Y-68396337D01*
X106044674Y-68397629D01*
X106060734Y-68399135D01*
X106098258Y-68399134D01*
X106165296Y-68418817D01*
X106211052Y-68471620D01*
X106222259Y-68523134D01*
X106222259Y-70080697D01*
X106202574Y-70147736D01*
X106185940Y-70168378D01*
X103469532Y-72884785D01*
X103469528Y-72884791D01*
X103437942Y-72939500D01*
X103423387Y-72964709D01*
X103423386Y-72964712D01*
X103399500Y-73053856D01*
X103399500Y-74353456D01*
X103379815Y-74420495D01*
X103363181Y-74441137D01*
X101941137Y-75863181D01*
X101879814Y-75896666D01*
X101853456Y-75899500D01*
X97403856Y-75899500D01*
X97314712Y-75923386D01*
X97314709Y-75923387D01*
X97234791Y-75969527D01*
X97234786Y-75969531D01*
X95809772Y-77394546D01*
X95748449Y-77428031D01*
X95722091Y-77430865D01*
X94451740Y-77430865D01*
X94384701Y-77411180D01*
X94338946Y-77358376D01*
X94327740Y-77306865D01*
X94327740Y-77269342D01*
X94327739Y-77269335D01*
X94324943Y-77239502D01*
X94280968Y-77113829D01*
X94201905Y-77006701D01*
X94094777Y-76927638D01*
X94094773Y-76927636D01*
X94094772Y-76927636D01*
X93969105Y-76883662D01*
X93939270Y-76880865D01*
X92915219Y-76880865D01*
X92885382Y-76883662D01*
X92885372Y-76883664D01*
X92759709Y-76927636D01*
X92759707Y-76927637D01*
X92759706Y-76927637D01*
X92759705Y-76927638D01*
X92652577Y-77006701D01*
X92573513Y-77113831D01*
X92573512Y-77113833D01*
X92529538Y-77239499D01*
X92529538Y-77239501D01*
X92526741Y-77269335D01*
X92526741Y-78293386D01*
X92529538Y-78323223D01*
X92529540Y-78323233D01*
X92572704Y-78446587D01*
X92573514Y-78448901D01*
X92652577Y-78556029D01*
X92759705Y-78635092D01*
X92784974Y-78643934D01*
X92885376Y-78679067D01*
X92893161Y-78679796D01*
X92915216Y-78681865D01*
X93939265Y-78681864D01*
X93969104Y-78679067D01*
X94094777Y-78635092D01*
X94201905Y-78556029D01*
X94280968Y-78448901D01*
X94305707Y-78378202D01*
X94324943Y-78323230D01*
X94324943Y-78323228D01*
X94327741Y-78293394D01*
X94327741Y-78255865D01*
X94347426Y-78188826D01*
X94400230Y-78143071D01*
X94451741Y-78131865D01*
X95964777Y-78131865D01*
X95964779Y-78131865D01*
X96053923Y-78107979D01*
X96133847Y-78061835D01*
X96572075Y-77623607D01*
X97499500Y-77623607D01*
X97499500Y-77632151D01*
X97499500Y-78236397D01*
X97524594Y-78346342D01*
X97524598Y-78346352D01*
X97529818Y-78357192D01*
X97532639Y-78364793D01*
X97532958Y-78364662D01*
X97536065Y-78372164D01*
X97539555Y-78378209D01*
X97543883Y-78386399D01*
X97573532Y-78447967D01*
X97590556Y-78469315D01*
X97600988Y-78484614D01*
X97601607Y-78485687D01*
X97601610Y-78485691D01*
X97601612Y-78485694D01*
X97601614Y-78485696D01*
X97601615Y-78485697D01*
X97606597Y-78490679D01*
X97615863Y-78501047D01*
X97643850Y-78536142D01*
X97643851Y-78536143D01*
X97643852Y-78536144D01*
X97643854Y-78536146D01*
X97672902Y-78559311D01*
X97678951Y-78564135D01*
X97689317Y-78573400D01*
X97694302Y-78578385D01*
X97694304Y-78578386D01*
X97694306Y-78578388D01*
X97695375Y-78579005D01*
X97710686Y-78589443D01*
X97732033Y-78606467D01*
X97732036Y-78606468D01*
X97732037Y-78606469D01*
X97793593Y-78636113D01*
X97801786Y-78640443D01*
X97807826Y-78643930D01*
X97815347Y-78647045D01*
X97815213Y-78647366D01*
X97822814Y-78650185D01*
X97833650Y-78655403D01*
X97943607Y-78680500D01*
X102056393Y-78680500D01*
X102166350Y-78655403D01*
X102177179Y-78650187D01*
X102184793Y-78647365D01*
X102184659Y-78647042D01*
X102192160Y-78643934D01*
X102192167Y-78643933D01*
X102198202Y-78640448D01*
X102206398Y-78636117D01*
X102219029Y-78630034D01*
X102267967Y-78606467D01*
X102289310Y-78589445D01*
X102304629Y-78579003D01*
X102305692Y-78578389D01*
X102305691Y-78578389D01*
X102305694Y-78578388D01*
X102310682Y-78573400D01*
X102321054Y-78564131D01*
X102356146Y-78536146D01*
X102384131Y-78501054D01*
X102393402Y-78490680D01*
X102398386Y-78485696D01*
X102398389Y-78485692D01*
X102399003Y-78484629D01*
X102409445Y-78469310D01*
X102426467Y-78447967D01*
X102454005Y-78390783D01*
X102456117Y-78386398D01*
X102460448Y-78378202D01*
X102463933Y-78372167D01*
X102463934Y-78372160D01*
X102467042Y-78364659D01*
X102467365Y-78364793D01*
X102470187Y-78357179D01*
X102475403Y-78346350D01*
X102500500Y-78236393D01*
X102500500Y-78180000D01*
X102500500Y-78179500D01*
X102500500Y-77679793D01*
X102500500Y-77623607D01*
X102475403Y-77513650D01*
X102470185Y-77502814D01*
X102467366Y-77495213D01*
X102467045Y-77495347D01*
X102463930Y-77487826D01*
X102460443Y-77481786D01*
X102456113Y-77473593D01*
X102426469Y-77412037D01*
X102426468Y-77412036D01*
X102426467Y-77412033D01*
X102409442Y-77390684D01*
X102399005Y-77375375D01*
X102398388Y-77374306D01*
X102398386Y-77374304D01*
X102398385Y-77374302D01*
X102393400Y-77369317D01*
X102384135Y-77358951D01*
X102356146Y-77323854D01*
X102356144Y-77323852D01*
X102356143Y-77323851D01*
X102356142Y-77323850D01*
X102321047Y-77295863D01*
X102310679Y-77286597D01*
X102305697Y-77281615D01*
X102305695Y-77281613D01*
X102305694Y-77281612D01*
X102305691Y-77281610D01*
X102305687Y-77281607D01*
X102304614Y-77280988D01*
X102289315Y-77270556D01*
X102267966Y-77253532D01*
X102267967Y-77253532D01*
X102206399Y-77223883D01*
X102198209Y-77219555D01*
X102192164Y-77216065D01*
X102184662Y-77212958D01*
X102184793Y-77212639D01*
X102177192Y-77209818D01*
X102166352Y-77204598D01*
X102166342Y-77204594D01*
X102056397Y-77179500D01*
X102056393Y-77179500D01*
X102000207Y-77179500D01*
X100000207Y-77179500D01*
X98000500Y-77179500D01*
X98000000Y-77179500D01*
X97943607Y-77179500D01*
X97943602Y-77179500D01*
X97833649Y-77204596D01*
X97822804Y-77209819D01*
X97815205Y-77212640D01*
X97815337Y-77212958D01*
X97807835Y-77216065D01*
X97801797Y-77219551D01*
X97793614Y-77223875D01*
X97732033Y-77253532D01*
X97732032Y-77253532D01*
X97710684Y-77270557D01*
X97695387Y-77280987D01*
X97695011Y-77281204D01*
X97694303Y-77281613D01*
X97694298Y-77281617D01*
X97689307Y-77286608D01*
X97678955Y-77295859D01*
X97643853Y-77323853D01*
X97615859Y-77358955D01*
X97606608Y-77369307D01*
X97601617Y-77374298D01*
X97601613Y-77374303D01*
X97601204Y-77375011D01*
X97600999Y-77375369D01*
X97600990Y-77375384D01*
X97590557Y-77390684D01*
X97573532Y-77412032D01*
X97573532Y-77412033D01*
X97543875Y-77473614D01*
X97539551Y-77481797D01*
X97536253Y-77487510D01*
X97536067Y-77487833D01*
X97534859Y-77492339D01*
X97524597Y-77513650D01*
X97499500Y-77623607D01*
X96572075Y-77623607D01*
X97558863Y-76636819D01*
X97620186Y-76603334D01*
X97646544Y-76600500D01*
X102096142Y-76600500D01*
X102096144Y-76600500D01*
X102185288Y-76576614D01*
X102265212Y-76530470D01*
X104030470Y-74765212D01*
X104076614Y-74685288D01*
X104080377Y-74671241D01*
X104080380Y-74671237D01*
X104080379Y-74671237D01*
X104083889Y-74658136D01*
X104100500Y-74596144D01*
X104100500Y-73296544D01*
X104120185Y-73229505D01*
X104136819Y-73208863D01*
X105494948Y-71850734D01*
X106853229Y-70492453D01*
X106899373Y-70412529D01*
X106906806Y-70384788D01*
X106912185Y-70364713D01*
X106912185Y-70364712D01*
X106923259Y-70323385D01*
X106923259Y-68523134D01*
X106942944Y-68456095D01*
X106995748Y-68410340D01*
X107047259Y-68399134D01*
X107084781Y-68399134D01*
X107084783Y-68399134D01*
X107114622Y-68396337D01*
X107240295Y-68352362D01*
X107347423Y-68273299D01*
X107426486Y-68166171D01*
X107460071Y-68070191D01*
X107470461Y-68040500D01*
X107470461Y-68040498D01*
X107470461Y-68040493D01*
X107473259Y-68010660D01*
X107473258Y-66986611D01*
X107470461Y-66956772D01*
X107426486Y-66831099D01*
X107347423Y-66723971D01*
X107240295Y-66644908D01*
X107240291Y-66644906D01*
X107240290Y-66644906D01*
X107114623Y-66600932D01*
X107084788Y-66598135D01*
X106060732Y-66598135D01*
X106057635Y-66598426D01*
X105989053Y-66585076D01*
X105938575Y-66536767D01*
X105922229Y-66468836D01*
X105945203Y-66402852D01*
X105958390Y-66387291D01*
X106130470Y-66215212D01*
X106176614Y-66135288D01*
X106200500Y-66046144D01*
X106200500Y-63303856D01*
X106176614Y-63214712D01*
X106130470Y-63134788D01*
X105286819Y-62291137D01*
X105253334Y-62229814D01*
X105250500Y-62203456D01*
X105250500Y-58189425D01*
X105270185Y-58122386D01*
X105322989Y-58076631D01*
X105327012Y-58074879D01*
X105338389Y-58070167D01*
X105489972Y-57968883D01*
X105618883Y-57839972D01*
X105720167Y-57688389D01*
X105789933Y-57519958D01*
X105825500Y-57341154D01*
X105825500Y-57158846D01*
X105825500Y-57158843D01*
X105789934Y-56980047D01*
X105789933Y-56980046D01*
X105789933Y-56980042D01*
X105769172Y-56929920D01*
X105720168Y-56811612D01*
X105720166Y-56811608D01*
X105618886Y-56660032D01*
X105618880Y-56660024D01*
X105489975Y-56531119D01*
X105489967Y-56531113D01*
X105338391Y-56429833D01*
X105338387Y-56429831D01*
X105169962Y-56360068D01*
X105169952Y-56360065D01*
X104991156Y-56324500D01*
X104991154Y-56324500D01*
X104808846Y-56324500D01*
X104808844Y-56324500D01*
X104630047Y-56360065D01*
X104630037Y-56360068D01*
X104461612Y-56429831D01*
X104461608Y-56429833D01*
X104310032Y-56531113D01*
X104310024Y-56531119D01*
X104181119Y-56660024D01*
X104181113Y-56660032D01*
X104079833Y-56811608D01*
X104014561Y-56969192D01*
X103970720Y-57023595D01*
X103904426Y-57045660D01*
X103836727Y-57028381D01*
X103789116Y-56977244D01*
X103785439Y-56969192D01*
X103720166Y-56811608D01*
X103618886Y-56660032D01*
X103618880Y-56660024D01*
X103489975Y-56531119D01*
X103489967Y-56531113D01*
X103338391Y-56429833D01*
X103338387Y-56429831D01*
X103169962Y-56360068D01*
X103169952Y-56360065D01*
X102991156Y-56324500D01*
X102991154Y-56324500D01*
X102808846Y-56324500D01*
X102808844Y-56324500D01*
X102630047Y-56360065D01*
X102630037Y-56360068D01*
X102461612Y-56429831D01*
X102461608Y-56429833D01*
X102310032Y-56531113D01*
X102310024Y-56531119D01*
X102181119Y-56660024D01*
X102181113Y-56660032D01*
X102079833Y-56811608D01*
X102014561Y-56969192D01*
X101970720Y-57023595D01*
X101904426Y-57045660D01*
X101836727Y-57028381D01*
X101789116Y-56977244D01*
X101785439Y-56969192D01*
X101720166Y-56811608D01*
X101618886Y-56660032D01*
X101618880Y-56660024D01*
X101489975Y-56531119D01*
X101489967Y-56531113D01*
X101338391Y-56429833D01*
X101338387Y-56429831D01*
X101169962Y-56360068D01*
X101169952Y-56360065D01*
X100991156Y-56324500D01*
X100991154Y-56324500D01*
X100808846Y-56324500D01*
X100808844Y-56324500D01*
X100630047Y-56360065D01*
X100630037Y-56360068D01*
X100461612Y-56429831D01*
X100461608Y-56429833D01*
X100310032Y-56531113D01*
X100310024Y-56531119D01*
X100181119Y-56660024D01*
X100181113Y-56660032D01*
X100079833Y-56811608D01*
X100014561Y-56969192D01*
X99970720Y-57023595D01*
X99904426Y-57045660D01*
X99836727Y-57028381D01*
X99789116Y-56977244D01*
X99785439Y-56969192D01*
X99720166Y-56811608D01*
X99618886Y-56660032D01*
X99618880Y-56660024D01*
X99489975Y-56531119D01*
X99489967Y-56531113D01*
X99338391Y-56429833D01*
X99338387Y-56429831D01*
X99169962Y-56360068D01*
X99169952Y-56360065D01*
X98991156Y-56324500D01*
X98991154Y-56324500D01*
X98808846Y-56324500D01*
X98808844Y-56324500D01*
X98630047Y-56360065D01*
X98630037Y-56360068D01*
X98461612Y-56429831D01*
X98461608Y-56429833D01*
X98310032Y-56531113D01*
X98310024Y-56531119D01*
X98181119Y-56660024D01*
X98181113Y-56660032D01*
X98079833Y-56811608D01*
X98014561Y-56969192D01*
X97970720Y-57023595D01*
X97904426Y-57045660D01*
X97836727Y-57028381D01*
X97789116Y-56977244D01*
X97785439Y-56969192D01*
X97720166Y-56811608D01*
X97618886Y-56660032D01*
X97618880Y-56660024D01*
X97489975Y-56531119D01*
X97489967Y-56531113D01*
X97338391Y-56429833D01*
X97338387Y-56429831D01*
X97169962Y-56360068D01*
X97169952Y-56360065D01*
X96991156Y-56324500D01*
X96991154Y-56324500D01*
X96808846Y-56324500D01*
X96808844Y-56324500D01*
X96630047Y-56360065D01*
X96630037Y-56360068D01*
X96461612Y-56429831D01*
X96461608Y-56429833D01*
X96310032Y-56531113D01*
X96310029Y-56531115D01*
X96281462Y-56559682D01*
X96220138Y-56593166D01*
X96150447Y-56588180D01*
X96094514Y-56546308D01*
X96070492Y-56485251D01*
X96068596Y-56467620D01*
X96018354Y-56332913D01*
X96018350Y-56332906D01*
X95932190Y-56217812D01*
X95932187Y-56217809D01*
X95817093Y-56131649D01*
X95817086Y-56131645D01*
X95682379Y-56081403D01*
X95682372Y-56081401D01*
X95622844Y-56075000D01*
X95150000Y-56075000D01*
X95150000Y-56934314D01*
X95145606Y-56929920D01*
X95054394Y-56877259D01*
X94952661Y-56850000D01*
X94847339Y-56850000D01*
X94745606Y-56877259D01*
X94654394Y-56929920D01*
X94650000Y-56934314D01*
X94650000Y-56075000D01*
X94177155Y-56075000D01*
X94117627Y-56081401D01*
X94117620Y-56081403D01*
X93982913Y-56131645D01*
X93982906Y-56131649D01*
X93867812Y-56217809D01*
X93867809Y-56217812D01*
X93781649Y-56332906D01*
X93781645Y-56332913D01*
X93731403Y-56467620D01*
X93731401Y-56467627D01*
X93725000Y-56527155D01*
X93725000Y-57000000D01*
X94584314Y-57000000D01*
X94579920Y-57004394D01*
X94527259Y-57095606D01*
X94500000Y-57197339D01*
X94500000Y-57302661D01*
X94527259Y-57404394D01*
X94579920Y-57495606D01*
X94584314Y-57500000D01*
X93725000Y-57500000D01*
X93725000Y-57972844D01*
X93731401Y-58032372D01*
X93731403Y-58032379D01*
X93781645Y-58167086D01*
X93781649Y-58167093D01*
X93867809Y-58282187D01*
X93867812Y-58282190D01*
X93982906Y-58368350D01*
X93982913Y-58368354D01*
X94117620Y-58418596D01*
X94117627Y-58418598D01*
X94177155Y-58424999D01*
X94177172Y-58425000D01*
X94650000Y-58425000D01*
X94650000Y-57565686D01*
X94654394Y-57570080D01*
X94745606Y-57622741D01*
X94847339Y-57650000D01*
X94952661Y-57650000D01*
X95054394Y-57622741D01*
X95145606Y-57570080D01*
X95150000Y-57565686D01*
X95150000Y-58425000D01*
X95622828Y-58425000D01*
X95622844Y-58424999D01*
X95682372Y-58418598D01*
X95682379Y-58418596D01*
X95817086Y-58368354D01*
X95817093Y-58368350D01*
X95932187Y-58282190D01*
X95932190Y-58282187D01*
X96018350Y-58167093D01*
X96018354Y-58167086D01*
X96068596Y-58032379D01*
X96070492Y-58014748D01*
X96097228Y-57950196D01*
X96154620Y-57910347D01*
X96224445Y-57907851D01*
X96281463Y-57940319D01*
X96310024Y-57968880D01*
X96310032Y-57968886D01*
X96461608Y-58070166D01*
X96461612Y-58070168D01*
X96630037Y-58139931D01*
X96630042Y-58139933D01*
X96630046Y-58139933D01*
X96630047Y-58139934D01*
X96808843Y-58175500D01*
X96808846Y-58175500D01*
X96991156Y-58175500D01*
X97111445Y-58151572D01*
X97169958Y-58139933D01*
X97282245Y-58093422D01*
X97338387Y-58070168D01*
X97338391Y-58070166D01*
X97421330Y-58014748D01*
X97489972Y-57968883D01*
X97618883Y-57839972D01*
X97720167Y-57688389D01*
X97785439Y-57530808D01*
X97829280Y-57476404D01*
X97895574Y-57454339D01*
X97963273Y-57471618D01*
X98010884Y-57522755D01*
X98014561Y-57530808D01*
X98079831Y-57688387D01*
X98079833Y-57688391D01*
X98181113Y-57839967D01*
X98181119Y-57839975D01*
X98310024Y-57968880D01*
X98310032Y-57968886D01*
X98461608Y-58070166D01*
X98461612Y-58070168D01*
X98630037Y-58139931D01*
X98630042Y-58139933D01*
X98630046Y-58139933D01*
X98630047Y-58139934D01*
X98808843Y-58175500D01*
X98808846Y-58175500D01*
X98991156Y-58175500D01*
X99111445Y-58151572D01*
X99169958Y-58139933D01*
X99282245Y-58093422D01*
X99338387Y-58070168D01*
X99338391Y-58070166D01*
X99421330Y-58014748D01*
X99489972Y-57968883D01*
X99618883Y-57839972D01*
X99720167Y-57688389D01*
X99785439Y-57530808D01*
X99829280Y-57476404D01*
X99895574Y-57454339D01*
X99963273Y-57471618D01*
X100010884Y-57522755D01*
X100014561Y-57530808D01*
X100079831Y-57688387D01*
X100079833Y-57688391D01*
X100181113Y-57839967D01*
X100181119Y-57839975D01*
X100310024Y-57968880D01*
X100310032Y-57968886D01*
X100461608Y-58070166D01*
X100461612Y-58070168D01*
X100630037Y-58139931D01*
X100630042Y-58139933D01*
X100630046Y-58139933D01*
X100630047Y-58139934D01*
X100808843Y-58175500D01*
X100808846Y-58175500D01*
X100991156Y-58175500D01*
X101111445Y-58151572D01*
X101169958Y-58139933D01*
X101282245Y-58093422D01*
X101338387Y-58070168D01*
X101338391Y-58070166D01*
X101421330Y-58014748D01*
X101489972Y-57968883D01*
X101618883Y-57839972D01*
X101720167Y-57688389D01*
X101785439Y-57530808D01*
X101829280Y-57476404D01*
X101895574Y-57454339D01*
X101963273Y-57471618D01*
X102010884Y-57522755D01*
X102014561Y-57530808D01*
X102079831Y-57688387D01*
X102079833Y-57688391D01*
X102181113Y-57839967D01*
X102181119Y-57839975D01*
X102310024Y-57968880D01*
X102310032Y-57968886D01*
X102461608Y-58070166D01*
X102461612Y-58070168D01*
X102630037Y-58139931D01*
X102630042Y-58139933D01*
X102630046Y-58139933D01*
X102630047Y-58139934D01*
X102808843Y-58175500D01*
X102808846Y-58175500D01*
X102991156Y-58175500D01*
X103111445Y-58151572D01*
X103169958Y-58139933D01*
X103282245Y-58093422D01*
X103338387Y-58070168D01*
X103338391Y-58070166D01*
X103421330Y-58014748D01*
X103489972Y-57968883D01*
X103618883Y-57839972D01*
X103720167Y-57688389D01*
X103785439Y-57530808D01*
X103829280Y-57476404D01*
X103895574Y-57454339D01*
X103963273Y-57471618D01*
X104010884Y-57522755D01*
X104014561Y-57530808D01*
X104079831Y-57688387D01*
X104079833Y-57688391D01*
X104181113Y-57839967D01*
X104181119Y-57839975D01*
X104310024Y-57968880D01*
X104310032Y-57968886D01*
X104461600Y-58070160D01*
X104461602Y-58070161D01*
X104461611Y-58070167D01*
X104472950Y-58074863D01*
X104527353Y-58118701D01*
X104549421Y-58184994D01*
X104549500Y-58189425D01*
X104549500Y-62446143D01*
X104573386Y-62535287D01*
X104573387Y-62535290D01*
X104619527Y-62615208D01*
X104619531Y-62615213D01*
X105463181Y-63458863D01*
X105496666Y-63520186D01*
X105499500Y-63546544D01*
X105499500Y-65803455D01*
X105479815Y-65870494D01*
X105463181Y-65891136D01*
X102677472Y-68676844D01*
X102616149Y-68710329D01*
X102557698Y-68708938D01*
X102522475Y-68699500D01*
X102377525Y-68699500D01*
X102248993Y-68733940D01*
X102237511Y-68737017D01*
X102111988Y-68809488D01*
X102111982Y-68809493D01*
X102009493Y-68911982D01*
X102009488Y-68911988D01*
X101937017Y-69037511D01*
X101899499Y-69177528D01*
X101898439Y-69185585D01*
X101896609Y-69185344D01*
X101879815Y-69242539D01*
X101827011Y-69288294D01*
X101775500Y-69299500D01*
X100703856Y-69299500D01*
X100618111Y-69322475D01*
X100618110Y-69322474D01*
X100614714Y-69323384D01*
X100614706Y-69323388D01*
X100534794Y-69369526D01*
X100534785Y-69369533D01*
X100369531Y-69534786D01*
X100369527Y-69534791D01*
X100331592Y-69600498D01*
X100331592Y-69600499D01*
X100323386Y-69614710D01*
X100299500Y-69703856D01*
X100299500Y-69986888D01*
X100279815Y-70053927D01*
X100263181Y-70074569D01*
X100224569Y-70113181D01*
X100163246Y-70146666D01*
X100136888Y-70149500D01*
X100053856Y-70149500D01*
X99964712Y-70173386D01*
X99964711Y-70173386D01*
X99964709Y-70173387D01*
X99964706Y-70173388D01*
X99884794Y-70219526D01*
X99884785Y-70219533D01*
X99719531Y-70384786D01*
X99719529Y-70384789D01*
X99679656Y-70453853D01*
X99679654Y-70453855D01*
X99673386Y-70464709D01*
X99673386Y-70464710D01*
X99649500Y-70553856D01*
X99649500Y-71150500D01*
X99629815Y-71217539D01*
X99577011Y-71263294D01*
X99525500Y-71274500D01*
X98697895Y-71274500D01*
X98648674Y-71280980D01*
X98648669Y-71280981D01*
X98641931Y-71284123D01*
X98633869Y-71287882D01*
X98581466Y-71299500D01*
X98540741Y-71299500D01*
X98473702Y-71279815D01*
X98446832Y-71254436D01*
X98446760Y-71254509D01*
X98444238Y-71251987D01*
X98440420Y-71248381D01*
X98434120Y-71239709D01*
X98435180Y-71238938D01*
X98406495Y-71186406D01*
X98411479Y-71116714D01*
X98416261Y-71105587D01*
X98469581Y-70996520D01*
X98469580Y-70996520D01*
X98469582Y-70996518D01*
X98480500Y-70921582D01*
X98480500Y-70478418D01*
X98469582Y-70403482D01*
X98467222Y-70398656D01*
X98413078Y-70287900D01*
X98413076Y-70287897D01*
X98322102Y-70196923D01*
X98322099Y-70196921D01*
X98206521Y-70140419D01*
X98206519Y-70140418D01*
X98206518Y-70140418D01*
X98131582Y-70129500D01*
X97788418Y-70129500D01*
X97713482Y-70140418D01*
X97713480Y-70140418D01*
X97713478Y-70140419D01*
X97597900Y-70196921D01*
X97597897Y-70196923D01*
X97537681Y-70257140D01*
X97476358Y-70290625D01*
X97406666Y-70285641D01*
X97362319Y-70257140D01*
X97302102Y-70196923D01*
X97302099Y-70196921D01*
X97186521Y-70140419D01*
X97186519Y-70140418D01*
X97186518Y-70140418D01*
X97111582Y-70129500D01*
X96768418Y-70129500D01*
X96705971Y-70138598D01*
X96693481Y-70140418D01*
X96686523Y-70143820D01*
X96617649Y-70155576D01*
X96553353Y-70128230D01*
X96544386Y-70120098D01*
X94364059Y-67939771D01*
X94330574Y-67878448D01*
X94327740Y-67852090D01*
X94327740Y-67043607D01*
X97499500Y-67043607D01*
X97499500Y-67052151D01*
X97499500Y-67656397D01*
X97524594Y-67766342D01*
X97524598Y-67766352D01*
X97529818Y-67777192D01*
X97532639Y-67784793D01*
X97532958Y-67784662D01*
X97536065Y-67792164D01*
X97539555Y-67798209D01*
X97543883Y-67806399D01*
X97573532Y-67867967D01*
X97590556Y-67889315D01*
X97600988Y-67904614D01*
X97601607Y-67905687D01*
X97601610Y-67905691D01*
X97601612Y-67905694D01*
X97601614Y-67905696D01*
X97601615Y-67905697D01*
X97606597Y-67910679D01*
X97615863Y-67921047D01*
X97643850Y-67956142D01*
X97643851Y-67956143D01*
X97643852Y-67956144D01*
X97643854Y-67956146D01*
X97678946Y-67984131D01*
X97678951Y-67984135D01*
X97689317Y-67993400D01*
X97694302Y-67998385D01*
X97694304Y-67998386D01*
X97694306Y-67998388D01*
X97695375Y-67999005D01*
X97710686Y-68009443D01*
X97732033Y-68026467D01*
X97732036Y-68026468D01*
X97732037Y-68026469D01*
X97793593Y-68056113D01*
X97801786Y-68060443D01*
X97807826Y-68063930D01*
X97815347Y-68067045D01*
X97815213Y-68067366D01*
X97822814Y-68070185D01*
X97833650Y-68075403D01*
X97943607Y-68100500D01*
X102056393Y-68100500D01*
X102166350Y-68075403D01*
X102177179Y-68070187D01*
X102184793Y-68067365D01*
X102184659Y-68067042D01*
X102192160Y-68063934D01*
X102192167Y-68063933D01*
X102198202Y-68060448D01*
X102206398Y-68056117D01*
X102219029Y-68050034D01*
X102267967Y-68026467D01*
X102289310Y-68009445D01*
X102304629Y-67999003D01*
X102305692Y-67998389D01*
X102305691Y-67998389D01*
X102305694Y-67998388D01*
X102310682Y-67993400D01*
X102321054Y-67984131D01*
X102356146Y-67956146D01*
X102384131Y-67921054D01*
X102393402Y-67910680D01*
X102398386Y-67905696D01*
X102398389Y-67905692D01*
X102399003Y-67904629D01*
X102409445Y-67889310D01*
X102426467Y-67867967D01*
X102454005Y-67810783D01*
X102456117Y-67806398D01*
X102460448Y-67798202D01*
X102463933Y-67792167D01*
X102463934Y-67792160D01*
X102467042Y-67784659D01*
X102467365Y-67784793D01*
X102470187Y-67777179D01*
X102475403Y-67766350D01*
X102500500Y-67656393D01*
X102500500Y-67600000D01*
X102500500Y-67599500D01*
X102500500Y-67099793D01*
X102500500Y-67043607D01*
X102475403Y-66933650D01*
X102470185Y-66922814D01*
X102467366Y-66915213D01*
X102467045Y-66915347D01*
X102463930Y-66907826D01*
X102460443Y-66901786D01*
X102456113Y-66893593D01*
X102426469Y-66832037D01*
X102426468Y-66832036D01*
X102426467Y-66832033D01*
X102409442Y-66810684D01*
X102399005Y-66795375D01*
X102398388Y-66794306D01*
X102398386Y-66794304D01*
X102398385Y-66794302D01*
X102393400Y-66789317D01*
X102384135Y-66778951D01*
X102356146Y-66743854D01*
X102356144Y-66743852D01*
X102356143Y-66743851D01*
X102356142Y-66743850D01*
X102321047Y-66715863D01*
X102310679Y-66706597D01*
X102305697Y-66701615D01*
X102305695Y-66701613D01*
X102305694Y-66701612D01*
X102305691Y-66701610D01*
X102305687Y-66701607D01*
X102304614Y-66700988D01*
X102289315Y-66690556D01*
X102267966Y-66673532D01*
X102267967Y-66673532D01*
X102206399Y-66643883D01*
X102198209Y-66639555D01*
X102192164Y-66636065D01*
X102184662Y-66632958D01*
X102184793Y-66632639D01*
X102177192Y-66629818D01*
X102166352Y-66624598D01*
X102166342Y-66624594D01*
X102056397Y-66599500D01*
X102056393Y-66599500D01*
X102000207Y-66599500D01*
X98000500Y-66599500D01*
X98000000Y-66599500D01*
X97943607Y-66599500D01*
X97943602Y-66599500D01*
X97833649Y-66624596D01*
X97822804Y-66629819D01*
X97815205Y-66632640D01*
X97815337Y-66632958D01*
X97807835Y-66636065D01*
X97801797Y-66639551D01*
X97793614Y-66643875D01*
X97732033Y-66673532D01*
X97732032Y-66673532D01*
X97710684Y-66690557D01*
X97695387Y-66700987D01*
X97695011Y-66701204D01*
X97694303Y-66701613D01*
X97694298Y-66701617D01*
X97689307Y-66706608D01*
X97678955Y-66715859D01*
X97643853Y-66743853D01*
X97615859Y-66778955D01*
X97606608Y-66789307D01*
X97601617Y-66794298D01*
X97601613Y-66794303D01*
X97601204Y-66795011D01*
X97600999Y-66795369D01*
X97600990Y-66795384D01*
X97590557Y-66810684D01*
X97573532Y-66832032D01*
X97573532Y-66832033D01*
X97543875Y-66893614D01*
X97539551Y-66901797D01*
X97536253Y-66907510D01*
X97536067Y-66907833D01*
X97534859Y-66912339D01*
X97524597Y-66933650D01*
X97499500Y-67043607D01*
X94327740Y-67043607D01*
X94327740Y-66986612D01*
X94324943Y-66956776D01*
X94324943Y-66956772D01*
X94280968Y-66831099D01*
X94201905Y-66723971D01*
X94094777Y-66644908D01*
X94094773Y-66644906D01*
X94094772Y-66644906D01*
X93969105Y-66600932D01*
X93939270Y-66598135D01*
X92915219Y-66598135D01*
X92885382Y-66600932D01*
X92885372Y-66600934D01*
X92759709Y-66644906D01*
X92759707Y-66644907D01*
X92759706Y-66644907D01*
X92759705Y-66644908D01*
X92652577Y-66723971D01*
X92600671Y-66794303D01*
X92573513Y-66831101D01*
X92573512Y-66831103D01*
X92529538Y-66956769D01*
X92529538Y-66956771D01*
X92526741Y-66986605D01*
X90983500Y-66986605D01*
X90983500Y-55649051D01*
X90983765Y-55640957D01*
X90983858Y-55639536D01*
X90998681Y-55413378D01*
X90999670Y-55403911D01*
X91007090Y-55352308D01*
X91008193Y-55345868D01*
X91047313Y-55149194D01*
X91049935Y-55138524D01*
X91062358Y-55096216D01*
X91063878Y-55091410D01*
X91131233Y-54892988D01*
X91135829Y-54881410D01*
X91146481Y-54858084D01*
X91148016Y-54854853D01*
X91247789Y-54652533D01*
X91255897Y-54638493D01*
X91392174Y-54434539D01*
X91402039Y-54421681D01*
X91563786Y-54237244D01*
X91575244Y-54225786D01*
X91759681Y-54064039D01*
X91772534Y-54054177D01*
X91976493Y-53917897D01*
X91990533Y-53909789D01*
X92192853Y-53810016D01*
X92196084Y-53808481D01*
X92219410Y-53797829D01*
X92230988Y-53793233D01*
X92429410Y-53725878D01*
X92434216Y-53724358D01*
X92476524Y-53711935D01*
X92487194Y-53709313D01*
X92683868Y-53670193D01*
X92690308Y-53669090D01*
X92741911Y-53661670D01*
X92751378Y-53660681D01*
X92966057Y-53646610D01*
X92978958Y-53645765D01*
X92987067Y-53645500D01*
X99999793Y-53645500D01*
X107012933Y-53645500D01*
X107021042Y-53645765D01*
G37*
%TD.AperFunction*%
%TD*%
M02*
