M48
; DRILL file KiCad 10.0.5 date 2026-08-17T17:58:04
; FORMAT={-:-/ absolute / inch / decimal}
; #@! TF.CreationDate,2026-08-17T17:58:04-07:00
; #@! TF.GenerationSoftware,Kicad,Pcbnew,10.0.5
; #@! TF.FileFunction,Plated,1,2,PTH
FMAT,2
INCH
; #@! TA.AperFunction,Plated,PTH,ViaDrill
T1C0.0118
; #@! TA.AperFunction,Plated,PTH,ComponentDrill
T2C0.0157
; #@! TA.AperFunction,Plated,PTH,ComponentDrill
T3C0.0315
%
G90
G05
T1
X3.5551Y-4.5906
X3.5571Y-3.0138
X3.7126Y-5.3504
X3.7146Y-5.5906
X3.7244Y-3.1988
X3.7264Y-3.9331
X3.7303Y-2.5492
X3.744Y-2.8411
X3.744Y-3.5258
X3.7441Y-4.6654
X3.7519Y-4.2577
X3.7539Y-4.9699
X3.9272Y-3.2106
X3.937Y-2.5531
X4.0Y-3.998
X4.0098Y-3.5335
X4.0118Y-4.2559
X4.0138Y-2.813
X4.0177Y-4.9646
X4.0197Y-4.6772
X4.0335Y-2.7264
X4.0335Y-3.4449
X4.0374Y-4.8957
X4.0413Y-4.1811
X4.0945Y-5.5945
X4.1043Y-5.3642
X4.1121Y-4.9128
X4.1319Y-4.1927
X4.1476Y-2.6693
X4.1654Y-2.9646
X4.2008Y-3.2382
X4.2106Y-2.5256
X4.2303Y-2.2736
X4.311Y-3.315
X4.3346Y-3.0098
X4.3543Y-4.5768
T2
X3.6782Y-2.6574
X3.6782Y-3.0623
X3.6782Y-3.3755
X3.6782Y-3.7804
X3.6782Y-4.0936
X3.6782Y-4.4985
X3.6782Y-4.8118
X3.6782Y-5.2166
X4.1958Y-2.6574
X4.1958Y-3.0623
X4.1958Y-3.3755
X4.1958Y-3.7804
X4.1958Y-4.0936
X4.1958Y-4.4985
X4.1958Y-4.8118
X4.1958Y-5.2166
T3
X3.7362Y-2.2539
X3.815Y-2.2539
X3.8937Y-2.2539
X3.9724Y-2.2539
X4.0512Y-2.2539
X4.1299Y-2.2539
M30
