%TF.GenerationSoftware,KiCad,Pcbnew,10.0.5*%
%TF.CreationDate,2026-08-17T17:58:04-07:00*%
%TF.ProjectId,OPA376 String Preamp,4f504133-3736-4205-9374-72696e672050,rev?*%
%TF.SameCoordinates,Original*%
%TF.FileFunction,Paste,Top*%
%TF.FilePolarity,Positive*%
%FSLAX46Y46*%
G04 Gerber Fmt 4.6, Leading zero omitted, Abs format (unit mm)*
G04 Created by KiCad (PCBNEW 10.0.5) date 2026-08-17 17:58:04*
%MOMM*%
%LPD*%
G01*
G04 APERTURE LIST*
G04 Aperture macros list*
%AMRoundRect*
0 Rectangle with rounded corners*
0 $1 Rounding radius*
0 $2 $3 $4 $5 $6 $7 $8 $9 X,Y pos of 4 corners*
0 Add a 4 corners polygon primitive as box body*
4,1,4,$2,$3,$4,$5,$6,$7,$8,$9,$2,$3,0*
0 Add four circle primitives for the rounded corners*
1,1,$1+$1,$2,$3*
1,1,$1+$1,$4,$5*
1,1,$1+$1,$6,$7*
1,1,$1+$1,$8,$9*
0 Add four rect primitives between the rounded corners*
20,1,$1+$1,$2,$3,$4,$5,0*
20,1,$1+$1,$4,$5,$6,$7,0*
20,1,$1+$1,$6,$7,$8,$9,0*
20,1,$1+$1,$8,$9,$2,$3,0*%
G04 Aperture macros list end*
%ADD10RoundRect,0.140000X-0.140000X-0.170000X0.140000X-0.170000X0.140000X0.170000X-0.140000X0.170000X0*%
%ADD11RoundRect,0.135000X-0.185000X0.135000X-0.185000X-0.135000X0.185000X-0.135000X0.185000X0.135000X0*%
%ADD12RoundRect,0.135000X-0.135000X-0.185000X0.135000X-0.185000X0.135000X0.185000X-0.135000X0.185000X0*%
%ADD13RoundRect,0.225000X-0.225000X-0.250000X0.225000X-0.250000X0.225000X0.250000X-0.225000X0.250000X0*%
%ADD14RoundRect,0.087500X-0.425000X-0.087500X0.425000X-0.087500X0.425000X0.087500X-0.425000X0.087500X0*%
%ADD15RoundRect,0.135000X0.185000X-0.135000X0.185000X0.135000X-0.185000X0.135000X-0.185000X-0.135000X0*%
%ADD16RoundRect,0.225000X-0.250000X0.225000X-0.250000X-0.225000X0.250000X-0.225000X0.250000X0.225000X0*%
G04 APERTURE END LIST*
D10*
%TO.C,C16*%
X97020000Y-126370000D03*
X97980000Y-126370000D03*
%TD*%
%TO.C,C20*%
X100650000Y-125270000D03*
X101610000Y-125270000D03*
%TD*%
D11*
%TO.C,R2*%
X102700000Y-99490000D03*
X102700000Y-100510000D03*
%TD*%
D12*
%TO.C,R22*%
X96940000Y-125420000D03*
X97960000Y-125420000D03*
%TD*%
%TO.C,R18*%
X100790000Y-92240000D03*
X101810000Y-92240000D03*
%TD*%
D10*
%TO.C,C19*%
X100650000Y-107030000D03*
X101610000Y-107030000D03*
%TD*%
D13*
%TO.C,C11*%
X95822889Y-91555000D03*
X97372889Y-91555000D03*
%TD*%
D12*
%TO.C,R15*%
X100790000Y-74000000D03*
X101810000Y-74000000D03*
%TD*%
D10*
%TO.C,C14*%
X97020000Y-108130000D03*
X97980000Y-108130000D03*
%TD*%
D13*
%TO.C,C13*%
X95722889Y-109845000D03*
X97272889Y-109845000D03*
%TD*%
D12*
%TO.C,R16*%
X96940000Y-88940000D03*
X97960000Y-88940000D03*
%TD*%
%TO.C,R14*%
X98650000Y-74000000D03*
X99670000Y-74000000D03*
%TD*%
%TO.C,R13*%
X96940000Y-70700000D03*
X97960000Y-70700000D03*
%TD*%
%TO.C,R24*%
X100790000Y-128720000D03*
X101810000Y-128720000D03*
%TD*%
D14*
%TO.C,U4*%
X99162500Y-126420000D03*
X99162500Y-127070000D03*
X99162500Y-127720000D03*
X100837500Y-127720000D03*
X100837500Y-126420000D03*
%TD*%
D13*
%TO.C,C1*%
X95822889Y-73815000D03*
X97372889Y-73815000D03*
%TD*%
D15*
%TO.C,R1*%
X101600000Y-100510000D03*
X101600000Y-99490000D03*
%TD*%
D12*
%TO.C,R20*%
X98650000Y-110480000D03*
X99670000Y-110480000D03*
%TD*%
D10*
%TO.C,C12*%
X97020000Y-89890000D03*
X97980000Y-89890000D03*
%TD*%
D13*
%TO.C,C15*%
X95722889Y-128035000D03*
X97272889Y-128035000D03*
%TD*%
D14*
%TO.C,U3*%
X99162500Y-108180000D03*
X99162500Y-108830000D03*
X99162500Y-109480000D03*
X100837500Y-109480000D03*
X100837500Y-108180000D03*
%TD*%
D12*
%TO.C,R17*%
X98650000Y-92240000D03*
X99670000Y-92240000D03*
%TD*%
D10*
%TO.C,C10*%
X97020000Y-71650000D03*
X97980000Y-71650000D03*
%TD*%
%TO.C,C17*%
X100650000Y-70550000D03*
X101610000Y-70550000D03*
%TD*%
D16*
%TO.C,C2*%
X100250000Y-99225000D03*
X100250000Y-100775000D03*
%TD*%
D12*
%TO.C,R21*%
X100790000Y-110480000D03*
X101810000Y-110480000D03*
%TD*%
%TO.C,R19*%
X96940000Y-107180000D03*
X97960000Y-107180000D03*
%TD*%
D14*
%TO.C,U2*%
X99162500Y-89940000D03*
X99162500Y-90590000D03*
X99162500Y-91240000D03*
X100837500Y-91240000D03*
X100837500Y-89940000D03*
%TD*%
%TO.C,U1*%
X99162500Y-71700000D03*
X99162500Y-72350000D03*
X99162500Y-73000000D03*
X100837500Y-73000000D03*
X100837500Y-71700000D03*
%TD*%
D12*
%TO.C,R23*%
X98650000Y-128720000D03*
X99670000Y-128720000D03*
%TD*%
D10*
%TO.C,C18*%
X100650000Y-88790000D03*
X101610000Y-88790000D03*
%TD*%
M02*
