0
SECTION
2
HEADER
9
$INSUNITS
70
1
9
$ACADVER
1
AC1014
9
$HANDSEED
5
FFFF
0
ENDSEC
0
SECTION
2
TABLES
0
TABLE
2
VPORT
5
8
100
AcDbSymbolTable
0
ENDTAB
0
TABLE
2
LTYPE
5
5
100
AcDbSymbolTable
0
LTYPE
5
14
100
AcDbSymbolTableRecord
100
AcDbLinetypeTableRecord
2
BYBLOCK
70
0
0
LTYPE
5
15
100
AcDbSymbolTableRecord
100
AcDbLinetypeTableRecord
2
BYLAYER
70
0
0
LTYPE
5
16
100
AcDbSymbolTableRecord
100
AcDbLinetypeTableRecord
2
DASHED
70
0
3
Dashed __ __ __ __ __ __ __ __ __ __ __ __ __ _
72
65
73
2
40
0.75
49
0.5
74
0
49
-0.25
74
0
0
ENDTAB
0
TABLE
2
LAYER
5
2
100
AcDbSymbolTable
70
2
0
LAYER
5
50
100
AcDbSymbolTableRecord
100
AcDbLayerTableRecord
2
0
70
0
62
7
6
CONTINUOUS
0
ENDTAB
0
TABLE
2
STYLE
5
3
100
AcDbSymbolTable
70
1
0
STYLE
5
11
100
AcDbSymbolTableRecord
100
AcDbTextStyleTableRecord
2
STANDARD
70
0
0
ENDTAB
0
TABLE
2
VIEW
5
6
100
AcDbSymbolTable
70
0
0
ENDTAB
0
TABLE
2
UCS
5
7
100
AcDbSymbolTable
70
0
0
ENDTAB
0
TABLE
2
APPID
5
9
100
AcDbSymbolTable
70
2
0
APPID
5
12
100
AcDbSymbolTableRecord
100
AcDbRegAppTableRecord
2
ACAD
70
0
0
ENDTAB
0
TABLE
2
DIMSTYLE
5
A
100
AcDbSymbolTable
70
1
0
ENDTAB
0
TABLE
2
BLOCK_RECORD
5
1
100
AcDbSymbolTable
70
1
0
BLOCK_RECORD
5
1F
100
AcDbSymbolTableRecord
100
AcDbBlockTableRecord
2
*MODEL_SPACE
0
BLOCK_RECORD
5
1B
100
AcDbSymbolTableRecord
100
AcDbBlockTableRecord
2
*PAPER_SPACE
0
ENDTAB
0
ENDSEC
0
SECTION
2
BLOCKS
0
BLOCK
5
20
100
AcDbEntity
100
AcDbBlockBegin
2
*MODEL_SPACE
0
ENDBLK
5
21
100
AcDbEntity
100
AcDbBlockEnd
0
BLOCK
5
1C
100
AcDbEntity
100
AcDbBlockBegin
2
*PAPER_SPACE
0
ENDBLK
5
1D
100
AcDbEntity
100
AcDbBlockEnd
0
ENDSEC
0
SECTION
2
ENTITIES
0
POINT
5
100
100
AcDbEntity
8
0
100
AcDbPoint
10
6.0659210846842069e-34
20
1.0246062992125986
30
0
0
POINT
5
101
100
AcDbEntity
8
0
100
AcDbPoint
10
6.0659210846842069e-34
20
0.3415354330708662
30
0
0
POINT
5
102
100
AcDbEntity
8
0
100
AcDbPoint
10
6.0659210846842069e-34
20
0.3415354330708662
30
0
0
POINT
5
103
100
AcDbEntity
8
0
100
AcDbPoint
10
6.0659210846842069e-34
20
-0.3415354330708662
30
0
0
POINT
5
104
100
AcDbEntity
8
0
100
AcDbPoint
10
6.0659210846842069e-34
20
-0.3415354330708662
30
0
0
POINT
5
105
100
AcDbEntity
8
0
100
AcDbPoint
10
6.0659210846842069e-34
20
-1.0246062992125986
30
0
0
POINT
5
106
100
AcDbEntity
8
0
100
AcDbPoint
10
6.0659210846842069e-34
20
-1.0246062992125986
30
0
0
LINE
5
107
100
AcDbEntity
8
0
100
AcDbLine
10
0.00999999999977399
20
1.2624015748019803
30
0
11
0.078740157480148315
21
1.262401574802378
31
0
0
ARC
5
108
100
AcDbEntity
8
0
100
AcDbCircle
10
0.078740157480265999
20
1.2427165354322989
30
0
40
0.019685039370078702
210
0
220
-0
230
1
100
AcDbArc
50
0
51
90.000000000342538
0
LINE
5
109
100
AcDbEntity
8
0
100
AcDbLine
10
0.098425196850344704
20
1.2427165354324168
30
0
11
0.09842519685046236
21
1.22303149606166
31
0
0
ARC
5
110
100
AcDbEntity
8
0
100
AcDbCircle
10
0.078740157480383904
20
1.2230314960615418
30
0
40
0.01968503937007832
210
0
220
0
230
1
100
AcDbArc
50
-90.000000000019909
51
0
0
LINE
5
111
100
AcDbEntity
8
0
100
AcDbLine
10
0.078740157480377063
20
1.2033464566914633
30
0
11
1.0927391974657052e-17
21
1.2033464566914898
31
0
0
ARC
5
112
100
AcDbEntity
8
0
100
AcDbCircle
10
0.2763014121291818
20
1.6912598425196848
30
0
40
0.078740157480314932
210
0
220
-0
230
1
100
AcDbArc
50
0
51
90
0
LINE
5
113
100
AcDbEntity
8
0
100
AcDbLine
10
0.2763014121291818
20
1.7699999999999998
30
0
11
4.1569609496764787e-05
21
1.7699999999999998
31
0
0
ARC
5
114
100
AcDbEntity
8
0
100
AcDbCircle
10
-0.27621827291018825
20
1.6912598425196848
30
0
40
0.078740157480315029
210
0
220
-0
230
1
100
AcDbArc
50
90
51
180
0
LINE
5
115
100
AcDbEntity
8
0
100
AcDbLine
10
-0.27621827291018825
20
1.7699999999999998
30
0
11
4.1569609496764787e-05
21
1.7699999999999998
31
0
0
ARC
5
116
100
AcDbEntity
8
0
100
AcDbCircle
10
0.2763014121291818
20
-1.6912598425196848
30
0
40
0.078740157480315029
210
-0
220
0
230
1
100
AcDbArc
50
-90
51
0
0
LINE
5
117
100
AcDbEntity
8
0
100
AcDbLine
10
0.2763014121291818
20
-1.7699999999999998
30
0
11
4.1569609496764787e-05
21
-1.7699999999999998
31
0
0
ARC
5
118
100
AcDbEntity
8
0
100
AcDbCircle
10
-0.2762182729101883
20
-1.6912598425196848
30
0
40
0.07874015748031489
210
0
220
0
230
1
100
AcDbArc
50
180
51
270.00000000000006
0
LINE
5
119
100
AcDbEntity
8
0
100
AcDbLine
10
-0.27621827291018825
20
-1.7699999999999998
30
0
11
4.1569609496764787e-05
21
-1.7699999999999998
31
0
0
ARC
5
120
100
AcDbEntity
8
0
100
AcDbCircle
10
-0.3169706255124547
20
-0.74500000000000011
30
0
40
0.24298780487804858
210
0
220
0
230
1
100
AcDbArc
50
98.994303229335472
51
261.00569677066443
0
ARC
5
121
100
AcDbEntity
8
0
100
AcDbCircle
10
0.31705376473144814
20
-0.74500000000000011
30
0
40
0.24298780487804858
210
-0
220
0
230
1
100
AcDbArc
50
-81.0056967706645
51
81.005696770664485
0
CIRCLE
5
122
100
AcDbEntity
8
0
100
AcDbCircle
10
0.45504156960949665
20
-0.74500000000000011
30
0
40
0.072746897004471595
210
0
220
-0
230
1
0
CIRCLE
5
123
100
AcDbEntity
8
0
100
AcDbCircle
10
-0.45495843039050321
20
-0.74500000000000011
30
0
40
0.072746897004471595
210
0
220
-0
230
1
0
CIRCLE
5
124
100
AcDbEntity
8
0
100
AcDbCircle
10
-0.45495843039050321
20
0.74500000000000011
30
0
40
0.072746897004471595
210
0
220
-0
230
1
0
ARC
5
125
100
AcDbEntity
8
0
100
AcDbCircle
10
-0.3169706255124547
20
0.74500000000000011
30
0
40
0.24298780487804858
210
0
220
0
230
1
100
AcDbArc
50
98.994303229335472
51
261.00569677066443
0
ARC
5
126
100
AcDbEntity
8
0
100
AcDbCircle
10
0.31705376473144814
20
0.74500000000000011
30
0
40
0.24298780487804858
210
-0
220
0
230
1
100
AcDbArc
50
-81.0056967706645
51
81.005696770664429
0
CIRCLE
5
127
100
AcDbEntity
8
0
100
AcDbCircle
10
0.45504156960949665
20
0.74500000000000011
30
0
40
0.072746897004471595
210
0
220
-0
230
1
0
LINE
5
128
100
AcDbEntity
8
0
100
AcDbLine
10
0.35504156960949673
20
1.6912598425196848
30
0
11
0.35504156960949695
21
0.98499999999999988
31
0
0
LINE
5
129
100
AcDbEntity
8
0
100
AcDbLine
10
-0.35495843039050312
20
0.98499999999999988
30
0
11
-0.35495843039050329
21
1.6912598425196848
31
0
0
LINE
5
130
100
AcDbEntity
8
0
100
AcDbLine
10
0.35504156960949673
20
0.50500000000000023
30
0
11
0.35504156960949679
21
-0.50500000000000023
31
0
0
LINE
5
131
100
AcDbEntity
8
0
100
AcDbLine
10
-0.35495843039050318
20
-0.50500000000000023
30
0
11
-0.35495843039050334
21
0.50500000000000023
31
0
0
LINE
5
132
100
AcDbEntity
8
0
100
AcDbLine
10
-0.35495843039050318
20
-1.6912598425196848
30
0
11
-0.35495843039050329
21
-0.98499999999999988
31
0
0
LINE
5
133
100
AcDbEntity
8
0
100
AcDbLine
10
0.35504156960949679
20
-1.6912598425196848
30
0
11
0.35504156960949668
21
-0.98499999999999988
31
0
0
LINE
5
134
100
AcDbEntity
8
0
100
AcDbLine
10
4.1569609496752088e-05
20
1.7699999999999998
30
0
11
4.1569609496752088e-05
21
0
31
0
6
DASHED
0
ARC
5
135
100
AcDbEntity
8
0
100
AcDbCircle
10
-0.078657018261390391
20
1.2230314960615418
30
0
40
0.019685039370078462
210
0
220
0
230
1
100
AcDbArc
50
180
51
270.0000000000199
0
LINE
5
136
100
AcDbEntity
8
0
100
AcDbLine
10
-0.009916860780780485
20
1.2624015748019803
30
0
11
-0.078657018261154801
21
1.262401574802378
31
0
0
LINE
5
137
100
AcDbEntity
8
0
100
AcDbLine
10
-0.078657018261383549
20
1.2033464566914633
30
0
11
8.3139218993493253e-05
21
1.2033464566914898
31
0
0
LINE
5
138
100
AcDbEntity
8
0
100
AcDbLine
10
-0.098342057631351204
20
1.2427165354324168
30
0
11
-0.098342057631468846
21
1.22303149606166
31
0
0
ARC
5
139
100
AcDbEntity
8
0
100
AcDbCircle
10
-0.078657018261272499
20
1.2427165354322989
30
0
40
0.019685039370079017
210
0
220
-0
230
1
100
AcDbArc
50
89.999999999657433
51
180
0
LINE
5
140
100
AcDbEntity
8
0
100
AcDbLine
10
0.00999999999977399
20
1.2624015748019803
30
0
11
-0.009916860780780485
21
1.2624015748019803
31
0
0
LINE
5
141
100
AcDbEntity
8
0
100
AcDbLine
10
6.0659210846842069e-34
20
1.0246062992125986
30
0
11
0.19968298812313062
21
1.0246062992125986
31
0
6
DASHED
0
ARC
5
142
100
AcDbEntity
8
0
100
AcDbCircle
10
0.078740157480383904
20
0.82618110236365527
30
0
40
0.019685039370078462
210
0
220
0
230
1
100
AcDbArc
50
0
51
90.000000000019909
0
LINE
5
143
100
AcDbEntity
8
0
100
AcDbLine
10
0.00999999999977399
20
0.78681102362321664
30
0
11
0.078740157480148315
21
0.78681102362281907
31
0
0
LINE
5
144
100
AcDbEntity
8
0
100
AcDbLine
10
-0.009916860780780485
20
0.78681102362321664
30
0
11
-0.078657018261154801
21
0.78681102362281907
31
0
0
ARC
5
145
100
AcDbEntity
8
0
100
AcDbCircle
10
-0.078657018261390391
20
0.82618110236365527
30
0
40
0.01968503937007832
210
0
220
-0
230
1
100
AcDbArc
50
89.999999999980076
51
180
0
LINE
5
146
100
AcDbEntity
8
0
100
AcDbLine
10
-0.078657018261383549
20
0.84586614173373365
30
0
11
8.3139218993493253e-05
21
0.84586614173370744
31
0
0
LINE
5
147
100
AcDbEntity
8
0
100
AcDbLine
10
0.078740157480377063
20
0.84586614173373365
30
0
11
1.0927391974657052e-17
21
0.84586614173370744
31
0
0
ARC
5
148
100
AcDbEntity
8
0
100
AcDbCircle
10
-0.078657018261272499
20
0.80649606299289811
30
0
40
0.019685039370078702
210
0
220
0
230
1
100
AcDbArc
50
180
51
270.0000000003426
0
ARC
5
149
100
AcDbEntity
8
0
100
AcDbCircle
10
0.078740157480265999
20
0.80649606299289811
30
0
40
0.019685039370079017
210
0
220
0
230
1
100
AcDbArc
50
269.99999999965746
51
360
0
LINE
5
150
100
AcDbEntity
8
0
100
AcDbLine
10
-0.098342057631351204
20
0.8064960629927802
30
0
11
-0.098342057631468846
21
0.82618110236353715
31
0
0
LINE
5
151
100
AcDbEntity
8
0
100
AcDbLine
10
0.00999999999977399
20
0.78681102362321664
30
0
11
-0.009916860780780485
21
0.78681102362321664
31
0
0
LINE
5
152
100
AcDbEntity
8
0
100
AcDbLine
10
0.098425196850344704
20
0.8064960629927802
30
0
11
0.09842519685046236
21
0.82618110236353715
31
0
0
LINE
5
153
100
AcDbEntity
8
0
100
AcDbLine
10
0.098425196850344704
20
0.12342519685104789
30
0
11
0.09842519685046236
21
0.14311023622180477
31
0
0
ARC
5
154
100
AcDbEntity
8
0
100
AcDbCircle
10
-0.078657018261272499
20
0.55964566929056658
30
0
40
0.019685039370079017
210
0
220
-0
230
1
100
AcDbArc
50
89.999999999657433
51
180
0
LINE
5
155
100
AcDbEntity
8
0
100
AcDbLine
10
-0.098342057631351204
20
0.55964566929068449
30
0
11
-0.098342057631468846
21
0.53996062991992755
31
0
0
ARC
5
156
100
AcDbEntity
8
0
100
AcDbCircle
10
-0.078657018261390391
20
0.53996062991980942
30
0
40
0.019685039370078462
210
0
220
0
230
1
100
AcDbArc
50
180
51
270.0000000000199
0
LINE
5
157
100
AcDbEntity
8
0
100
AcDbLine
10
0.00999999999977399
20
0.1037401574814843
30
0
11
0.078740157480148315
21
0.10374015748108671
31
0
0
ARC
5
158
100
AcDbEntity
8
0
100
AcDbCircle
10
0.078740157480265999
20
0.55964566929056658
30
0
40
0.019685039370078702
210
0
220
-0
230
1
100
AcDbArc
50
0
51
90.000000000342538
0
LINE
5
159
100
AcDbEntity
8
0
100
AcDbLine
10
0.078740157480377063
20
0.16279527559200127
30
0
11
1.0927391974657052e-17
21
0.16279527559197504
31
0
0
LINE
5
160
100
AcDbEntity
8
0
100
AcDbLine
10
0.098425196850344704
20
0.55964566929068449
30
0
11
0.09842519685046236
21
0.53996062991992755
31
0
0
LINE
5
161
100
AcDbEntity
8
0
100
AcDbLine
10
-0.098342057631351204
20
0.12342519685104789
30
0
11
-0.098342057631468846
21
0.14311023622180477
31
0
0
LINE
5
162
100
AcDbEntity
8
0
100
AcDbLine
10
-0.009916860780780485
20
0.57933070866024805
30
0
11
-0.078657018261154801
21
0.57933070866064562
31
0
0
LINE
5
163
100
AcDbEntity
8
0
100
AcDbLine
10
-0.078657018261383549
20
0.16279527559200127
30
0
11
8.3139218993493253e-05
21
0.16279527559197504
31
0
0
LINE
5
164
100
AcDbEntity
8
0
100
AcDbLine
10
-0.078657018261383549
20
0.52027559054973105
30
0
11
8.3139218993493253e-05
21
0.52027559054975736
31
0
0
LINE
5
165
100
AcDbEntity
8
0
100
AcDbLine
10
0.00999999999977399
20
0.57933070866024805
30
0
11
0.078740157480148315
21
0.57933070866064562
31
0
0
ARC
5
166
100
AcDbEntity
8
0
100
AcDbCircle
10
0.078740157480383904
20
0.14311023622192295
30
0
40
0.019685039370078462
210
0
220
0
230
1
100
AcDbArc
50
0
51
90.000000000019909
0
ARC
5
167
100
AcDbEntity
8
0
100
AcDbCircle
10
0.078740157480383904
20
0.53996062991980942
30
0
40
0.01968503937007832
210
0
220
0
230
1
100
AcDbArc
50
-90.000000000019909
51
0
0
LINE
5
168
100
AcDbEntity
8
0
100
AcDbLine
10
0.00999999999977399
20
0.57933070866024805
30
0
11
-0.009916860780780485
21
0.57933070866024805
31
0
0
LINE
5
169
100
AcDbEntity
8
0
100
AcDbLine
10
0.00999999999977399
20
0.1037401574814843
30
0
11
-0.009916860780780485
21
0.1037401574814843
31
0
0
LINE
5
170
100
AcDbEntity
8
0
100
AcDbLine
10
-0.009916860780780485
20
0.1037401574814843
30
0
11
-0.078657018261154801
21
0.10374015748108671
31
0
0
LINE
5
171
100
AcDbEntity
8
0
100
AcDbLine
10
0.078740157480377063
20
0.52027559054973105
30
0
11
1.0927391974657052e-17
21
0.52027559054975736
31
0
0
ARC
5
172
100
AcDbEntity
8
0
100
AcDbCircle
10
-0.078657018261272499
20
0.12342519685116574
30
0
40
0.019685039370078702
210
0
220
0
230
1
100
AcDbArc
50
180
51
270.0000000003426
0
ARC
5
173
100
AcDbEntity
8
0
100
AcDbCircle
10
0.078740157480265999
20
0.12342519685116574
30
0
40
0.019685039370079017
210
0
220
0
230
1
100
AcDbArc
50
269.99999999965746
51
360
0
ARC
5
174
100
AcDbEntity
8
0
100
AcDbCircle
10
-0.078657018261390391
20
0.14311023622192295
30
0
40
0.01968503937007832
210
0
220
-0
230
1
100
AcDbArc
50
89.999999999980076
51
180
0
LINE
5
175
100
AcDbEntity
8
0
100
AcDbLine
10
0.098425196850344704
20
-0.55964566929068449
30
0
11
0.09842519685046236
21
-0.53996062991992755
31
0
0
ARC
5
176
100
AcDbEntity
8
0
100
AcDbCircle
10
-0.078657018261272499
20
-0.12342519685116574
30
0
40
0.019685039370079017
210
0
220
-0
230
1
100
AcDbArc
50
89.999999999657433
51
180
0
LINE
5
177
100
AcDbEntity
8
0
100
AcDbLine
10
-0.098342057631351204
20
-0.12342519685104789
30
0
11
-0.098342057631468846
21
-0.14311023622180477
31
0
0
ARC
5
178
100
AcDbEntity
8
0
100
AcDbCircle
10
-0.078657018261390391
20
-0.14311023622192295
30
0
40
0.019685039370078462
210
0
220
0
230
1
100
AcDbArc
50
180
51
270.0000000000199
0
LINE
5
179
100
AcDbEntity
8
0
100
AcDbLine
10
0.00999999999977399
20
-0.57933070866024805
30
0
11
0.078740157480148315
21
-0.57933070866064562
31
0
0
ARC
5
180
100
AcDbEntity
8
0
100
AcDbCircle
10
0.078740157480265999
20
-0.12342519685116574
30
0
40
0.019685039370078702
210
0
220
-0
230
1
100
AcDbArc
50
0
51
90.000000000342538
0
LINE
5
181
100
AcDbEntity
8
0
100
AcDbLine
10
0.078740157480377063
20
-0.52027559054973105
30
0
11
1.0927391974657052e-17
21
-0.52027559054975736
31
0
0
LINE
5
182
100
AcDbEntity
8
0
100
AcDbLine
10
0.098425196850344704
20
-0.12342519685104789
30
0
11
0.09842519685046236
21
-0.14311023622180477
31
0
0
LINE
5
183
100
AcDbEntity
8
0
100
AcDbLine
10
-0.098342057631351204
20
-0.55964566929068449
30
0
11
-0.098342057631468846
21
-0.53996062991992755
31
0
0
LINE
5
184
100
AcDbEntity
8
0
100
AcDbLine
10
-0.009916860780780485
20
-0.1037401574814843
30
0
11
-0.078657018261154801
21
-0.10374015748108671
31
0
0
LINE
5
185
100
AcDbEntity
8
0
100
AcDbLine
10
-0.078657018261383549
20
-0.52027559054973105
30
0
11
8.3139218993493253e-05
21
-0.52027559054975736
31
0
0
LINE
5
186
100
AcDbEntity
8
0
100
AcDbLine
10
-0.078657018261383549
20
-0.16279527559200127
30
0
11
8.3139218993493253e-05
21
-0.16279527559197504
31
0
0
LINE
5
187
100
AcDbEntity
8
0
100
AcDbLine
10
0.00999999999977399
20
-0.1037401574814843
30
0
11
0.078740157480148315
21
-0.10374015748108671
31
0
0
ARC
5
188
100
AcDbEntity
8
0
100
AcDbCircle
10
0.078740157480383904
20
-0.53996062991980942
30
0
40
0.019685039370078462
210
0
220
0
230
1
100
AcDbArc
50
0
51
90.000000000019909
0
ARC
5
189
100
AcDbEntity
8
0
100
AcDbCircle
10
0.078740157480383904
20
-0.14311023622192295
30
0
40
0.01968503937007832
210
0
220
0
230
1
100
AcDbArc
50
-90.000000000019909
51
0
0
LINE
5
190
100
AcDbEntity
8
0
100
AcDbLine
10
0.00999999999977399
20
-0.1037401574814843
30
0
11
-0.009916860780780485
21
-0.1037401574814843
31
0
0
LINE
5
191
100
AcDbEntity
8
0
100
AcDbLine
10
0.00999999999977399
20
-0.57933070866024805
30
0
11
-0.009916860780780485
21
-0.57933070866024805
31
0
0
LINE
5
192
100
AcDbEntity
8
0
100
AcDbLine
10
-0.009916860780780485
20
-0.57933070866024805
30
0
11
-0.078657018261154801
21
-0.57933070866064562
31
0
0
LINE
5
193
100
AcDbEntity
8
0
100
AcDbLine
10
0.078740157480377063
20
-0.16279527559200127
30
0
11
1.0927391974657052e-17
21
-0.16279527559197504
31
0
0
ARC
5
194
100
AcDbEntity
8
0
100
AcDbCircle
10
-0.078657018261272499
20
-0.55964566929056658
30
0
40
0.019685039370078702
210
0
220
0
230
1
100
AcDbArc
50
180
51
270.0000000003426
0
ARC
5
195
100
AcDbEntity
8
0
100
AcDbCircle
10
0.078740157480265999
20
-0.55964566929056658
30
0
40
0.019685039370079017
210
0
220
0
230
1
100
AcDbArc
50
269.99999999965746
51
360
0
ARC
5
196
100
AcDbEntity
8
0
100
AcDbCircle
10
-0.078657018261390391
20
-0.53996062991980942
30
0
40
0.01968503937007832
210
0
220
-0
230
1
100
AcDbArc
50
89.999999999980076
51
180
0
LINE
5
197
100
AcDbEntity
8
0
100
AcDbLine
10
0.098425196850344704
20
-1.2427165354324168
30
0
11
0.09842519685046236
21
-1.22303149606166
31
0
0
ARC
5
198
100
AcDbEntity
8
0
100
AcDbCircle
10
-0.078657018261272499
20
-0.80649606299289811
30
0
40
0.019685039370079017
210
0
220
-0
230
1
100
AcDbArc
50
89.999999999657433
51
180
0
LINE
5
199
100
AcDbEntity
8
0
100
AcDbLine
10
-0.098342057631351204
20
-0.8064960629927802
30
0
11
-0.098342057631468846
21
-0.82618110236353715
31
0
0
ARC
5
200
100
AcDbEntity
8
0
100
AcDbCircle
10
-0.078657018261390391
20
-0.82618110236365527
30
0
40
0.019685039370078462
210
0
220
0
230
1
100
AcDbArc
50
180
51
270.0000000000199
0
LINE
5
201
100
AcDbEntity
8
0
100
AcDbLine
10
0.00999999999977399
20
-1.2624015748019803
30
0
11
0.078740157480148315
21
-1.262401574802378
31
0
0
ARC
5
202
100
AcDbEntity
8
0
100
AcDbCircle
10
0.078740157480265999
20
-0.80649606299289811
30
0
40
0.019685039370078702
210
0
220
-0
230
1
100
AcDbArc
50
0
51
90.000000000342538
0
LINE
5
203
100
AcDbEntity
8
0
100
AcDbLine
10
0.078740157480377063
20
-1.2033464566914633
30
0
11
1.0927391974657052e-17
21
-1.2033464566914898
31
0
0
LINE
5
204
100
AcDbEntity
8
0
100
AcDbLine
10
0.098425196850344704
20
-0.8064960629927802
30
0
11
0.09842519685046236
21
-0.82618110236353715
31
0
0
LINE
5
205
100
AcDbEntity
8
0
100
AcDbLine
10
-0.098342057631351204
20
-1.2427165354324168
30
0
11
-0.098342057631468846
21
-1.22303149606166
31
0
0
LINE
5
206
100
AcDbEntity
8
0
100
AcDbLine
10
-0.009916860780780485
20
-0.78681102362321664
30
0
11
-0.078657018261154801
21
-0.78681102362281907
31
0
0
LINE
5
207
100
AcDbEntity
8
0
100
AcDbLine
10
-0.078657018261383549
20
-1.2033464566914633
30
0
11
8.3139218993493253e-05
21
-1.2033464566914898
31
0
0
LINE
5
208
100
AcDbEntity
8
0
100
AcDbLine
10
-0.078657018261383549
20
-0.84586614173373365
30
0
11
8.3139218993493253e-05
21
-0.84586614173370744
31
0
0
LINE
5
209
100
AcDbEntity
8
0
100
AcDbLine
10
0.00999999999977399
20
-0.78681102362321664
30
0
11
0.078740157480148315
21
-0.78681102362281907
31
0
0
ARC
5
210
100
AcDbEntity
8
0
100
AcDbCircle
10
0.078740157480383904
20
-1.2230314960615418
30
0
40
0.019685039370078462
210
0
220
0
230
1
100
AcDbArc
50
0
51
90.000000000019909
0
ARC
5
211
100
AcDbEntity
8
0
100
AcDbCircle
10
0.078740157480383904
20
-0.82618110236365527
30
0
40
0.01968503937007832
210
0
220
0
230
1
100
AcDbArc
50
-90.000000000019909
51
0
0
LINE
5
212
100
AcDbEntity
8
0
100
AcDbLine
10
0.00999999999977399
20
-0.78681102362321664
30
0
11
-0.009916860780780485
21
-0.78681102362321664
31
0
0
LINE
5
213
100
AcDbEntity
8
0
100
AcDbLine
10
0.00999999999977399
20
-1.2624015748019803
30
0
11
-0.009916860780780485
21
-1.2624015748019803
31
0
0
LINE
5
214
100
AcDbEntity
8
0
100
AcDbLine
10
-0.009916860780780485
20
-1.2624015748019803
30
0
11
-0.078657018261154801
21
-1.262401574802378
31
0
0
LINE
5
215
100
AcDbEntity
8
0
100
AcDbLine
10
0.078740157480377063
20
-0.84586614173373365
30
0
11
1.0927391974657052e-17
21
-0.84586614173370744
31
0
0
ARC
5
216
100
AcDbEntity
8
0
100
AcDbCircle
10
-0.078657018261272499
20
-1.2427165354322989
30
0
40
0.019685039370078702
210
0
220
0
230
1
100
AcDbArc
50
180
51
270.0000000003426
0
ARC
5
217
100
AcDbEntity
8
0
100
AcDbCircle
10
0.078740157480265999
20
-1.2427165354322989
30
0
40
0.019685039370079017
210
0
220
0
230
1
100
AcDbArc
50
269.99999999965746
51
360
0
ARC
5
218
100
AcDbEntity
8
0
100
AcDbCircle
10
-0.078657018261390391
20
-1.2230314960615418
30
0
40
0.01968503937007832
210
0
220
-0
230
1
100
AcDbArc
50
89.999999999980076
51
180
0
ENDSEC
0
SECTION
2
OBJECTS
0
DICTIONARY
5
C
100
AcDbDictionary
3
ACAD_GROUP
350
D
3
ACAD_MLINESTYLE
350
17
0
DICTIONARY
5
D
100
AcDbDictionary
0
DICTIONARY
5
1A
330
C
100
AcDbDictionary
0
DICTIONARY
5
17
100
AcDbDictionary
0
ENDSEC
0
EOF
