M48
; DRILL file KiCad 10.0.5 date 2026-08-16T14:14:16
; FORMAT={-:-/ absolute / inch / decimal}
; #@! TF.CreationDate,2026-08-16T14:14:16-07:00
; #@! TF.GenerationSoftware,Kicad,Pcbnew,10.0.5
; #@! TF.FileFunction,Plated,1,2,PTH
FMAT,2
INCH
; #@! TA.AperFunction,Plated,PTH,ViaDrill
T1C0.0118
; #@! TA.AperFunction,Plated,PTH,ComponentDrill
T2C0.0157
; #@! TA.AperFunction,Plated,PTH,ComponentDrill
T3C0.0315
%
G90
G05
T1
X3.5551Y-4.5906
X3.5571Y-3.0138
X3.7126Y-5.3504
X3.7146Y-5.5906
X3.7244Y-3.1988
X3.7264Y-3.9331
X3.7303Y-2.5492
X3.7441Y-4.6654
X3.7639Y-2.9069
X3.7639Y-3.5943
X3.7698Y-4.2837
X3.7717Y-4.9612
X3.9272Y-3.2106
X3.937Y-2.5531
X3.9626Y-3.9311
X4.0099Y-3.551
X4.0119Y-4.2384
X4.0139Y-2.8656
X4.0178Y-4.912
X4.0197Y-4.6772
X4.0335Y-2.7789
X4.0335Y-3.4624
X4.0375Y-4.8431
X4.0414Y-4.1636
X4.0945Y-5.5945
X4.1043Y-5.3642
X4.1122Y-4.8602
X4.132Y-3.6199
X4.1477Y-2.7219
X4.1654Y-3.0171
X4.1791Y-2.25
X4.2008Y-3.2382
X4.2067Y-3.9331
X4.2106Y-2.5256
X4.311Y-3.315
X4.3346Y-3.0098
X4.3543Y-4.5768
T2
X3.6783Y-2.71
X3.6783Y-3.1148
X3.6783Y-3.3931
X3.6783Y-3.7979
X3.6783Y-4.0761
X3.6783Y-4.481
X3.6783Y-4.7592
X3.6783Y-5.164
X4.1959Y-2.71
X4.1959Y-3.1148
X4.1959Y-3.3931
X4.1959Y-3.7979
X4.1959Y-4.0761
X4.1959Y-4.481
X4.1959Y-4.7592
X4.1959Y-5.164
T3
X3.7362Y-2.2539
X3.815Y-2.2539
X3.8937Y-2.2539
X3.9724Y-2.2539
X4.0512Y-2.2539
X4.1299Y-2.2539
M30
