%TF.GenerationSoftware,KiCad,Pcbnew,10.0.5*%
%TF.CreationDate,2026-08-16T14:14:16-07:00*%
%TF.ProjectId,OPA376 String Preamp,4f504133-3736-4205-9374-72696e672050,rev?*%
%TF.SameCoordinates,Original*%
%TF.FileFunction,Legend,Top*%
%TF.FilePolarity,Positive*%
%FSLAX46Y46*%
G04 Gerber Fmt 4.6, Leading zero omitted, Abs format (unit mm)*
G04 Created by KiCad (PCBNEW 10.0.5) date 2026-08-16 14:14:16*
%MOMM*%
%LPD*%
G01*
G04 APERTURE LIST*
G04 Aperture macros list*
%AMRoundRect*
0 Rectangle with rounded corners*
0 $1 Rounding radius*
0 $2 $3 $4 $5 $6 $7 $8 $9 X,Y pos of 4 corners*
0 Add a 4 corners polygon primitive as box body*
4,1,4,$2,$3,$4,$5,$6,$7,$8,$9,$2,$3,0*
0 Add four circle primitives for the rounded corners*
1,1,$1+$1,$2,$3*
1,1,$1+$1,$4,$5*
1,1,$1+$1,$6,$7*
1,1,$1+$1,$8,$9*
0 Add four rect primitives between the rounded corners*
20,1,$1+$1,$2,$3,$4,$5,0*
20,1,$1+$1,$4,$5,$6,$7,0*
20,1,$1+$1,$6,$7,$8,$9,0*
20,1,$1+$1,$8,$9,$2,$3,0*%
G04 Aperture macros list end*
%ADD10C,0.200000*%
%ADD11C,0.120000*%
%ADD12RoundRect,0.191177X-0.458823X-0.458823X0.458823X-0.458823X0.458823X0.458823X-0.458823X0.458823X0*%
%ADD13RoundRect,0.140000X-0.140000X-0.170000X0.140000X-0.170000X0.140000X0.170000X-0.140000X0.170000X0*%
%ADD14RoundRect,0.135000X0.185000X-0.135000X0.185000X0.135000X-0.185000X0.135000X-0.185000X-0.135000X0*%
%ADD15RoundRect,0.135000X-0.135000X-0.185000X0.135000X-0.185000X0.135000X0.185000X-0.135000X0.185000X0*%
%ADD16RoundRect,0.140000X-0.170000X0.140000X-0.170000X-0.140000X0.170000X-0.140000X0.170000X0.140000X0*%
%ADD17RoundRect,0.087500X-0.425000X-0.087500X0.425000X-0.087500X0.425000X0.087500X-0.425000X0.087500X0*%
%ADD18RoundRect,0.135000X-0.185000X0.135000X-0.185000X-0.135000X0.185000X-0.135000X0.185000X0.135000X0*%
%ADD19R,1.350000X1.350000*%
%ADD20C,1.350000*%
G04 APERTURE END LIST*
D10*
X95455387Y-138667219D02*
X95455387Y-139381504D01*
X95455387Y-139381504D02*
X95407768Y-139524361D01*
X95407768Y-139524361D02*
X95312530Y-139619600D01*
X95312530Y-139619600D02*
X95169673Y-139667219D01*
X95169673Y-139667219D02*
X95074435Y-139667219D01*
X96407768Y-139667219D02*
X95931578Y-139667219D01*
X95931578Y-139667219D02*
X95931578Y-138667219D01*
X97312530Y-139571980D02*
X97264911Y-139619600D01*
X97264911Y-139619600D02*
X97122054Y-139667219D01*
X97122054Y-139667219D02*
X97026816Y-139667219D01*
X97026816Y-139667219D02*
X96883959Y-139619600D01*
X96883959Y-139619600D02*
X96788721Y-139524361D01*
X96788721Y-139524361D02*
X96741102Y-139429123D01*
X96741102Y-139429123D02*
X96693483Y-139238647D01*
X96693483Y-139238647D02*
X96693483Y-139095790D01*
X96693483Y-139095790D02*
X96741102Y-138905314D01*
X96741102Y-138905314D02*
X96788721Y-138810076D01*
X96788721Y-138810076D02*
X96883959Y-138714838D01*
X96883959Y-138714838D02*
X97026816Y-138667219D01*
X97026816Y-138667219D02*
X97122054Y-138667219D01*
X97122054Y-138667219D02*
X97264911Y-138714838D01*
X97264911Y-138714838D02*
X97312530Y-138762457D01*
X98026816Y-138667219D02*
X98026816Y-139381504D01*
X98026816Y-139381504D02*
X97979197Y-139524361D01*
X97979197Y-139524361D02*
X97883959Y-139619600D01*
X97883959Y-139619600D02*
X97741102Y-139667219D01*
X97741102Y-139667219D02*
X97645864Y-139667219D01*
X98979197Y-139667219D02*
X98503007Y-139667219D01*
X98503007Y-139667219D02*
X98503007Y-138667219D01*
X99883959Y-139571980D02*
X99836340Y-139619600D01*
X99836340Y-139619600D02*
X99693483Y-139667219D01*
X99693483Y-139667219D02*
X99598245Y-139667219D01*
X99598245Y-139667219D02*
X99455388Y-139619600D01*
X99455388Y-139619600D02*
X99360150Y-139524361D01*
X99360150Y-139524361D02*
X99312531Y-139429123D01*
X99312531Y-139429123D02*
X99264912Y-139238647D01*
X99264912Y-139238647D02*
X99264912Y-139095790D01*
X99264912Y-139095790D02*
X99312531Y-138905314D01*
X99312531Y-138905314D02*
X99360150Y-138810076D01*
X99360150Y-138810076D02*
X99455388Y-138714838D01*
X99455388Y-138714838D02*
X99598245Y-138667219D01*
X99598245Y-138667219D02*
X99693483Y-138667219D01*
X99693483Y-138667219D02*
X99836340Y-138714838D01*
X99836340Y-138714838D02*
X99883959Y-138762457D01*
X100598245Y-138667219D02*
X100598245Y-139381504D01*
X100598245Y-139381504D02*
X100550626Y-139524361D01*
X100550626Y-139524361D02*
X100455388Y-139619600D01*
X100455388Y-139619600D02*
X100312531Y-139667219D01*
X100312531Y-139667219D02*
X100217293Y-139667219D01*
X101550626Y-139667219D02*
X101074436Y-139667219D01*
X101074436Y-139667219D02*
X101074436Y-138667219D01*
X102455388Y-139571980D02*
X102407769Y-139619600D01*
X102407769Y-139619600D02*
X102264912Y-139667219D01*
X102264912Y-139667219D02*
X102169674Y-139667219D01*
X102169674Y-139667219D02*
X102026817Y-139619600D01*
X102026817Y-139619600D02*
X101931579Y-139524361D01*
X101931579Y-139524361D02*
X101883960Y-139429123D01*
X101883960Y-139429123D02*
X101836341Y-139238647D01*
X101836341Y-139238647D02*
X101836341Y-139095790D01*
X101836341Y-139095790D02*
X101883960Y-138905314D01*
X101883960Y-138905314D02*
X101931579Y-138810076D01*
X101931579Y-138810076D02*
X102026817Y-138714838D01*
X102026817Y-138714838D02*
X102169674Y-138667219D01*
X102169674Y-138667219D02*
X102264912Y-138667219D01*
X102264912Y-138667219D02*
X102407769Y-138714838D01*
X102407769Y-138714838D02*
X102455388Y-138762457D01*
X103169674Y-138667219D02*
X103169674Y-139381504D01*
X103169674Y-139381504D02*
X103122055Y-139524361D01*
X103122055Y-139524361D02*
X103026817Y-139619600D01*
X103026817Y-139619600D02*
X102883960Y-139667219D01*
X102883960Y-139667219D02*
X102788722Y-139667219D01*
X104122055Y-139667219D02*
X103645865Y-139667219D01*
X103645865Y-139667219D02*
X103645865Y-138667219D01*
X105026817Y-139571980D02*
X104979198Y-139619600D01*
X104979198Y-139619600D02*
X104836341Y-139667219D01*
X104836341Y-139667219D02*
X104741103Y-139667219D01*
X104741103Y-139667219D02*
X104598246Y-139619600D01*
X104598246Y-139619600D02*
X104503008Y-139524361D01*
X104503008Y-139524361D02*
X104455389Y-139429123D01*
X104455389Y-139429123D02*
X104407770Y-139238647D01*
X104407770Y-139238647D02*
X104407770Y-139095790D01*
X104407770Y-139095790D02*
X104455389Y-138905314D01*
X104455389Y-138905314D02*
X104503008Y-138810076D01*
X104503008Y-138810076D02*
X104598246Y-138714838D01*
X104598246Y-138714838D02*
X104741103Y-138667219D01*
X104741103Y-138667219D02*
X104836341Y-138667219D01*
X104836341Y-138667219D02*
X104979198Y-138714838D01*
X104979198Y-138714838D02*
X105026817Y-138762457D01*
%TO.C,C16*%
D11*
X97394275Y-124675000D02*
X97609947Y-124675000D01*
X97394275Y-125395000D02*
X97609947Y-125395000D01*
%TO.C,C20*%
X101024275Y-123575000D02*
X101239947Y-123575000D01*
X101024275Y-124295000D02*
X101239947Y-124295000D01*
%TO.C,R2*%
X106075000Y-59560641D02*
X106075000Y-59253359D01*
X106835000Y-59560641D02*
X106835000Y-59253359D01*
%TO.C,R22*%
X97298470Y-123705000D02*
X97605752Y-123705000D01*
X97298470Y-124465000D02*
X97605752Y-124465000D01*
%TO.C,R18*%
X101148470Y-92305000D02*
X101455752Y-92305000D01*
X101148470Y-93065000D02*
X101455752Y-93065000D01*
%TO.C,C19*%
X101024275Y-106225000D02*
X101239947Y-106225000D01*
X101024275Y-106945000D02*
X101239947Y-106945000D01*
%TO.C,C11*%
X97192111Y-92127164D02*
X97192111Y-92342836D01*
X97912111Y-92127164D02*
X97912111Y-92342836D01*
%TO.C,R15*%
X101148470Y-74955000D02*
X101455752Y-74955000D01*
X101148470Y-75715000D02*
X101455752Y-75715000D01*
%TO.C,C14*%
X97394275Y-107325000D02*
X97609947Y-107325000D01*
X97394275Y-108045000D02*
X97609947Y-108045000D01*
%TO.C,C13*%
X97192111Y-109477164D02*
X97192111Y-109692836D01*
X97912111Y-109477164D02*
X97912111Y-109692836D01*
%TO.C,R16*%
X97298470Y-89005000D02*
X97605752Y-89005000D01*
X97298470Y-89765000D02*
X97605752Y-89765000D01*
%TO.C,R14*%
X99008470Y-74955000D02*
X99315752Y-74955000D01*
X99008470Y-75715000D02*
X99315752Y-75715000D01*
%TO.C,R13*%
X97298470Y-71655000D02*
X97605752Y-71655000D01*
X97298470Y-72415000D02*
X97605752Y-72415000D01*
%TO.C,R24*%
X101148470Y-127005000D02*
X101455752Y-127005000D01*
X101148470Y-127765000D02*
X101455752Y-127765000D01*
%TO.C,U4*%
X99267111Y-124625000D02*
X100737111Y-124625000D01*
X99267111Y-124650000D02*
X99267111Y-124625000D01*
X99267111Y-126845000D02*
X99267111Y-126820000D01*
X100737111Y-124625000D02*
X100737111Y-124650000D01*
X100737111Y-125520000D02*
X100737111Y-125950000D01*
X100737111Y-126820000D02*
X100737111Y-126845000D01*
X100737111Y-126845000D02*
X99267111Y-126845000D01*
X98822111Y-124645000D02*
X98682111Y-124455000D01*
X98962111Y-124455000D01*
X98822111Y-124645000D01*
G36*
X98822111Y-124645000D02*
G01*
X98682111Y-124455000D01*
X98962111Y-124455000D01*
X98822111Y-124645000D01*
G37*
%TO.C,C1*%
X97192111Y-74777164D02*
X97192111Y-74992836D01*
X97912111Y-74777164D02*
X97912111Y-74992836D01*
%TO.C,R1*%
X107020000Y-59246359D02*
X107020000Y-59553641D01*
X107780000Y-59246359D02*
X107780000Y-59553641D01*
%TO.C,R20*%
X99008470Y-109655000D02*
X99315752Y-109655000D01*
X99008470Y-110415000D02*
X99315752Y-110415000D01*
%TO.C,C12*%
X97394275Y-89975000D02*
X97609947Y-89975000D01*
X97394275Y-90695000D02*
X97609947Y-90695000D01*
%TO.C,C15*%
X97192111Y-126827164D02*
X97192111Y-127042836D01*
X97912111Y-126827164D02*
X97912111Y-127042836D01*
%TO.C,U3*%
X99267111Y-107275000D02*
X100737111Y-107275000D01*
X99267111Y-107300000D02*
X99267111Y-107275000D01*
X99267111Y-109495000D02*
X99267111Y-109470000D01*
X100737111Y-107275000D02*
X100737111Y-107300000D01*
X100737111Y-108170000D02*
X100737111Y-108600000D01*
X100737111Y-109470000D02*
X100737111Y-109495000D01*
X100737111Y-109495000D02*
X99267111Y-109495000D01*
X98822111Y-107295000D02*
X98682111Y-107105000D01*
X98962111Y-107105000D01*
X98822111Y-107295000D01*
G36*
X98822111Y-107295000D02*
G01*
X98682111Y-107105000D01*
X98962111Y-107105000D01*
X98822111Y-107295000D01*
G37*
%TO.C,R17*%
X99008470Y-92305000D02*
X99315752Y-92305000D01*
X99008470Y-93065000D02*
X99315752Y-93065000D01*
%TO.C,C10*%
X97394275Y-72625000D02*
X97609947Y-72625000D01*
X97394275Y-73345000D02*
X97609947Y-73345000D01*
%TO.C,C17*%
X101024275Y-71525000D02*
X101239947Y-71525000D01*
X101024275Y-72245000D02*
X101239947Y-72245000D01*
%TO.C,C2*%
X107040000Y-57332164D02*
X107040000Y-57547836D01*
X107760000Y-57332164D02*
X107760000Y-57547836D01*
%TO.C,R21*%
X101148470Y-109655000D02*
X101455752Y-109655000D01*
X101148470Y-110415000D02*
X101455752Y-110415000D01*
%TO.C,R19*%
X97298470Y-106355000D02*
X97605752Y-106355000D01*
X97298470Y-107115000D02*
X97605752Y-107115000D01*
%TO.C,U2*%
X99267111Y-89925000D02*
X100737111Y-89925000D01*
X99267111Y-89950000D02*
X99267111Y-89925000D01*
X99267111Y-92145000D02*
X99267111Y-92120000D01*
X100737111Y-89925000D02*
X100737111Y-89950000D01*
X100737111Y-90820000D02*
X100737111Y-91250000D01*
X100737111Y-92120000D02*
X100737111Y-92145000D01*
X100737111Y-92145000D02*
X99267111Y-92145000D01*
X98822111Y-89945000D02*
X98682111Y-89755000D01*
X98962111Y-89755000D01*
X98822111Y-89945000D01*
G36*
X98822111Y-89945000D02*
G01*
X98682111Y-89755000D01*
X98962111Y-89755000D01*
X98822111Y-89945000D01*
G37*
%TO.C,U1*%
X99267111Y-72575000D02*
X100737111Y-72575000D01*
X99267111Y-72600000D02*
X99267111Y-72575000D01*
X99267111Y-74795000D02*
X99267111Y-74770000D01*
X100737111Y-72575000D02*
X100737111Y-72600000D01*
X100737111Y-73470000D02*
X100737111Y-73900000D01*
X100737111Y-74770000D02*
X100737111Y-74795000D01*
X100737111Y-74795000D02*
X99267111Y-74795000D01*
X98822111Y-72595000D02*
X98682111Y-72405000D01*
X98962111Y-72405000D01*
X98822111Y-72595000D01*
G36*
X98822111Y-72595000D02*
G01*
X98682111Y-72405000D01*
X98962111Y-72405000D01*
X98822111Y-72595000D01*
G37*
%TO.C,R23*%
X99008470Y-127005000D02*
X99315752Y-127005000D01*
X99008470Y-127765000D02*
X99315752Y-127765000D01*
%TO.C,C18*%
X101024275Y-88875000D02*
X101239947Y-88875000D01*
X101024275Y-89595000D02*
X101239947Y-89595000D01*
%TD*%
%LPC*%
D12*
%TO.C,J7*%
X106574870Y-86183635D03*
%TD*%
D13*
%TO.C,C16*%
X97022111Y-125035000D03*
X97982111Y-125035000D03*
%TD*%
%TO.C,C20*%
X100652111Y-123935000D03*
X101612111Y-123935000D03*
%TD*%
D14*
%TO.C,R2*%
X106455000Y-59917000D03*
X106455000Y-58897000D03*
%TD*%
D12*
%TO.C,J4*%
X106574870Y-68833635D03*
%TD*%
%TO.C,J13*%
X106574870Y-113816365D03*
%TD*%
D15*
%TO.C,R22*%
X96942111Y-124085000D03*
X97962111Y-124085000D03*
%TD*%
%TO.C,R18*%
X100792111Y-92685000D03*
X101812111Y-92685000D03*
%TD*%
D13*
%TO.C,C19*%
X100652111Y-106585000D03*
X101612111Y-106585000D03*
%TD*%
D16*
%TO.C,C11*%
X97552111Y-91755000D03*
X97552111Y-92715000D03*
%TD*%
D15*
%TO.C,R15*%
X100792111Y-75335000D03*
X101812111Y-75335000D03*
%TD*%
D13*
%TO.C,C14*%
X97022111Y-107685000D03*
X97982111Y-107685000D03*
%TD*%
D16*
%TO.C,C13*%
X97552111Y-109105000D03*
X97552111Y-110065000D03*
%TD*%
D15*
%TO.C,R16*%
X96942111Y-89385000D03*
X97962111Y-89385000D03*
%TD*%
%TO.C,R14*%
X98652111Y-75335000D03*
X99672111Y-75335000D03*
%TD*%
%TO.C,R13*%
X96942111Y-72035000D03*
X97962111Y-72035000D03*
%TD*%
%TO.C,R24*%
X100792111Y-127385000D03*
X101812111Y-127385000D03*
%TD*%
D12*
%TO.C,J17*%
X106574870Y-131166365D03*
%TD*%
%TO.C,J15*%
X93429352Y-131166365D03*
%TD*%
%TO.C,J16*%
X106574870Y-120883635D03*
%TD*%
D17*
%TO.C,U4*%
X99164611Y-125085000D03*
X99164611Y-125735000D03*
X99164611Y-126385000D03*
X100839611Y-126385000D03*
X100839611Y-125085000D03*
%TD*%
D12*
%TO.C,J12*%
X106574870Y-103533635D03*
%TD*%
%TO.C,J1*%
X93429352Y-68833635D03*
%TD*%
D16*
%TO.C,C1*%
X97552111Y-74405000D03*
X97552111Y-75365000D03*
%TD*%
D18*
%TO.C,R1*%
X107400000Y-58890000D03*
X107400000Y-59910000D03*
%TD*%
D12*
%TO.C,J2*%
X106574870Y-79116365D03*
%TD*%
D15*
%TO.C,R20*%
X98652111Y-110035000D03*
X99672111Y-110035000D03*
%TD*%
D12*
%TO.C,J11*%
X93429352Y-113816365D03*
%TD*%
%TO.C,J10*%
X93429352Y-103533635D03*
%TD*%
%TO.C,J3*%
X93429352Y-79116365D03*
%TD*%
D13*
%TO.C,C12*%
X97022111Y-90335000D03*
X97982111Y-90335000D03*
%TD*%
D16*
%TO.C,C15*%
X97552111Y-126455000D03*
X97552111Y-127415000D03*
%TD*%
D17*
%TO.C,U3*%
X99164611Y-107735000D03*
X99164611Y-108385000D03*
X99164611Y-109035000D03*
X100839611Y-109035000D03*
X100839611Y-107735000D03*
%TD*%
D15*
%TO.C,R17*%
X98652111Y-92685000D03*
X99672111Y-92685000D03*
%TD*%
D13*
%TO.C,C10*%
X97022111Y-72985000D03*
X97982111Y-72985000D03*
%TD*%
D12*
%TO.C,J6*%
X93429352Y-96466365D03*
%TD*%
%TO.C,J14*%
X93429352Y-120883635D03*
%TD*%
D13*
%TO.C,C17*%
X100652111Y-71885000D03*
X101612111Y-71885000D03*
%TD*%
D12*
%TO.C,J5*%
X93429352Y-86183635D03*
%TD*%
D16*
%TO.C,C2*%
X107400000Y-56960000D03*
X107400000Y-57920000D03*
%TD*%
D15*
%TO.C,R21*%
X100792111Y-110035000D03*
X101812111Y-110035000D03*
%TD*%
D12*
%TO.C,J8*%
X106574870Y-96466365D03*
%TD*%
D15*
%TO.C,R19*%
X96942111Y-106735000D03*
X97962111Y-106735000D03*
%TD*%
D17*
%TO.C,U2*%
X99164611Y-90385000D03*
X99164611Y-91035000D03*
X99164611Y-91685000D03*
X100839611Y-91685000D03*
X100839611Y-90385000D03*
%TD*%
%TO.C,U1*%
X99164611Y-73035000D03*
X99164611Y-73685000D03*
X99164611Y-74335000D03*
X100839611Y-74335000D03*
X100839611Y-73035000D03*
%TD*%
D15*
%TO.C,R23*%
X98652111Y-127385000D03*
X99672111Y-127385000D03*
%TD*%
D13*
%TO.C,C18*%
X100652111Y-89235000D03*
X101612111Y-89235000D03*
%TD*%
D19*
%TO.C,J9*%
X94900000Y-57250000D03*
D20*
X96900000Y-57250000D03*
X98900000Y-57250000D03*
X100900000Y-57250000D03*
X102900000Y-57250000D03*
X104900000Y-57250000D03*
%TD*%
%LPD*%
M02*
