%TF.GenerationSoftware,KiCad,Pcbnew,10.0.5*%
%TF.CreationDate,2026-08-16T14:14:16-07:00*%
%TF.ProjectId,OPA376 String Preamp,4f504133-3736-4205-9374-72696e672050,rev?*%
%TF.SameCoordinates,Original*%
%TF.FileFunction,Soldermask,Top*%
%TF.FilePolarity,Negative*%
%FSLAX46Y46*%
G04 Gerber Fmt 4.6, Leading zero omitted, Abs format (unit mm)*
G04 Created by KiCad (PCBNEW 10.0.5) date 2026-08-16 14:14:16*
%MOMM*%
%LPD*%
G01*
G04 APERTURE LIST*
G04 Aperture macros list*
%AMRoundRect*
0 Rectangle with rounded corners*
0 $1 Rounding radius*
0 $2 $3 $4 $5 $6 $7 $8 $9 X,Y pos of 4 corners*
0 Add a 4 corners polygon primitive as box body*
4,1,4,$2,$3,$4,$5,$6,$7,$8,$9,$2,$3,0*
0 Add four circle primitives for the rounded corners*
1,1,$1+$1,$2,$3*
1,1,$1+$1,$4,$5*
1,1,$1+$1,$6,$7*
1,1,$1+$1,$8,$9*
0 Add four rect primitives between the rounded corners*
20,1,$1+$1,$2,$3,$4,$5,0*
20,1,$1+$1,$4,$5,$6,$7,0*
20,1,$1+$1,$6,$7,$8,$9,0*
20,1,$1+$1,$8,$9,$2,$3,0*%
G04 Aperture macros list end*
%ADD10RoundRect,0.191177X-0.458823X-0.458823X0.458823X-0.458823X0.458823X0.458823X-0.458823X0.458823X0*%
%ADD11RoundRect,0.140000X-0.140000X-0.170000X0.140000X-0.170000X0.140000X0.170000X-0.140000X0.170000X0*%
%ADD12RoundRect,0.135000X0.185000X-0.135000X0.185000X0.135000X-0.185000X0.135000X-0.185000X-0.135000X0*%
%ADD13RoundRect,0.135000X-0.135000X-0.185000X0.135000X-0.185000X0.135000X0.185000X-0.135000X0.185000X0*%
%ADD14RoundRect,0.140000X-0.170000X0.140000X-0.170000X-0.140000X0.170000X-0.140000X0.170000X0.140000X0*%
%ADD15RoundRect,0.087500X-0.425000X-0.087500X0.425000X-0.087500X0.425000X0.087500X-0.425000X0.087500X0*%
%ADD16RoundRect,0.135000X-0.185000X0.135000X-0.185000X-0.135000X0.185000X-0.135000X0.185000X0.135000X0*%
%ADD17R,1.350000X1.350000*%
%ADD18C,1.350000*%
G04 APERTURE END LIST*
D10*
%TO.C,J7*%
X106574870Y-86183635D03*
%TD*%
D11*
%TO.C,C16*%
X97022111Y-125035000D03*
X97982111Y-125035000D03*
%TD*%
%TO.C,C20*%
X100652111Y-123935000D03*
X101612111Y-123935000D03*
%TD*%
D12*
%TO.C,R2*%
X106455000Y-59917000D03*
X106455000Y-58897000D03*
%TD*%
D10*
%TO.C,J4*%
X106574870Y-68833635D03*
%TD*%
%TO.C,J13*%
X106574870Y-113816365D03*
%TD*%
D13*
%TO.C,R22*%
X96942111Y-124085000D03*
X97962111Y-124085000D03*
%TD*%
%TO.C,R18*%
X100792111Y-92685000D03*
X101812111Y-92685000D03*
%TD*%
D11*
%TO.C,C19*%
X100652111Y-106585000D03*
X101612111Y-106585000D03*
%TD*%
D14*
%TO.C,C11*%
X97552111Y-91755000D03*
X97552111Y-92715000D03*
%TD*%
D13*
%TO.C,R15*%
X100792111Y-75335000D03*
X101812111Y-75335000D03*
%TD*%
D11*
%TO.C,C14*%
X97022111Y-107685000D03*
X97982111Y-107685000D03*
%TD*%
D14*
%TO.C,C13*%
X97552111Y-109105000D03*
X97552111Y-110065000D03*
%TD*%
D13*
%TO.C,R16*%
X96942111Y-89385000D03*
X97962111Y-89385000D03*
%TD*%
%TO.C,R14*%
X98652111Y-75335000D03*
X99672111Y-75335000D03*
%TD*%
%TO.C,R13*%
X96942111Y-72035000D03*
X97962111Y-72035000D03*
%TD*%
%TO.C,R24*%
X100792111Y-127385000D03*
X101812111Y-127385000D03*
%TD*%
D10*
%TO.C,J17*%
X106574870Y-131166365D03*
%TD*%
%TO.C,J15*%
X93429352Y-131166365D03*
%TD*%
%TO.C,J16*%
X106574870Y-120883635D03*
%TD*%
D15*
%TO.C,U4*%
X99164611Y-125085000D03*
X99164611Y-125735000D03*
X99164611Y-126385000D03*
X100839611Y-126385000D03*
X100839611Y-125085000D03*
%TD*%
D10*
%TO.C,J12*%
X106574870Y-103533635D03*
%TD*%
%TO.C,J1*%
X93429352Y-68833635D03*
%TD*%
D14*
%TO.C,C1*%
X97552111Y-74405000D03*
X97552111Y-75365000D03*
%TD*%
D16*
%TO.C,R1*%
X107400000Y-58890000D03*
X107400000Y-59910000D03*
%TD*%
D10*
%TO.C,J2*%
X106574870Y-79116365D03*
%TD*%
D13*
%TO.C,R20*%
X98652111Y-110035000D03*
X99672111Y-110035000D03*
%TD*%
D10*
%TO.C,J11*%
X93429352Y-113816365D03*
%TD*%
%TO.C,J10*%
X93429352Y-103533635D03*
%TD*%
%TO.C,J3*%
X93429352Y-79116365D03*
%TD*%
D11*
%TO.C,C12*%
X97022111Y-90335000D03*
X97982111Y-90335000D03*
%TD*%
D14*
%TO.C,C15*%
X97552111Y-126455000D03*
X97552111Y-127415000D03*
%TD*%
D15*
%TO.C,U3*%
X99164611Y-107735000D03*
X99164611Y-108385000D03*
X99164611Y-109035000D03*
X100839611Y-109035000D03*
X100839611Y-107735000D03*
%TD*%
D13*
%TO.C,R17*%
X98652111Y-92685000D03*
X99672111Y-92685000D03*
%TD*%
D11*
%TO.C,C10*%
X97022111Y-72985000D03*
X97982111Y-72985000D03*
%TD*%
D10*
%TO.C,J6*%
X93429352Y-96466365D03*
%TD*%
%TO.C,J14*%
X93429352Y-120883635D03*
%TD*%
D11*
%TO.C,C17*%
X100652111Y-71885000D03*
X101612111Y-71885000D03*
%TD*%
D10*
%TO.C,J5*%
X93429352Y-86183635D03*
%TD*%
D14*
%TO.C,C2*%
X107400000Y-56960000D03*
X107400000Y-57920000D03*
%TD*%
D13*
%TO.C,R21*%
X100792111Y-110035000D03*
X101812111Y-110035000D03*
%TD*%
D10*
%TO.C,J8*%
X106574870Y-96466365D03*
%TD*%
D13*
%TO.C,R19*%
X96942111Y-106735000D03*
X97962111Y-106735000D03*
%TD*%
D15*
%TO.C,U2*%
X99164611Y-90385000D03*
X99164611Y-91035000D03*
X99164611Y-91685000D03*
X100839611Y-91685000D03*
X100839611Y-90385000D03*
%TD*%
%TO.C,U1*%
X99164611Y-73035000D03*
X99164611Y-73685000D03*
X99164611Y-74335000D03*
X100839611Y-74335000D03*
X100839611Y-73035000D03*
%TD*%
D13*
%TO.C,R23*%
X98652111Y-127385000D03*
X99672111Y-127385000D03*
%TD*%
D11*
%TO.C,C18*%
X100652111Y-89235000D03*
X101612111Y-89235000D03*
%TD*%
D17*
%TO.C,J9*%
X94900000Y-57250000D03*
D18*
X96900000Y-57250000D03*
X98900000Y-57250000D03*
X100900000Y-57250000D03*
X102900000Y-57250000D03*
X104900000Y-57250000D03*
%TD*%
M02*
