%TF.GenerationSoftware,KiCad,Pcbnew,10.0.5*%
%TF.CreationDate,2026-08-12T12:57:42-07:00*%
%TF.ProjectId,JFET String Preamp Bridge,4a464554-2053-4747-9269-6e6720507265,rev?*%
%TF.SameCoordinates,Original*%
%TF.FileFunction,Profile,NP*%
%FSLAX46Y46*%
G04 Gerber Fmt 4.6, Leading zero omitted, Abs format (unit mm)*
G04 Created by KiCad (PCBNEW 10.0.5) date 2026-08-12 12:57:42*
%MOMM*%
%LPD*%
G01*
G04 APERTURE LIST*
%TA.AperFunction,Profile*%
%ADD10C,0.100000*%
%TD*%
G04 APERTURE END LIST*
D10*
X90062905Y-80061000D02*
G75*
G02*
X86823095Y-80061000I-1619905J0D01*
G01*
X86823095Y-80061000D02*
G75*
G02*
X90062905Y-80061000I1619905J0D01*
G01*
X90062905Y-119939000D02*
G75*
G02*
X86823095Y-119939000I-1619905J0D01*
G01*
X86823095Y-119939000D02*
G75*
G02*
X90062905Y-119939000I1619905J0D01*
G01*
X90983000Y-55645000D02*
G75*
G02*
X92983000Y-53645000I2000000J0D01*
G01*
X90983000Y-73965000D02*
X90983000Y-55645000D01*
X90983000Y-86157000D02*
G75*
G02*
X90983000Y-73965000I964900J6096000D01*
G01*
X90983000Y-113843000D02*
X90983000Y-86157000D01*
X90983000Y-126035000D02*
G75*
G02*
X90983000Y-113843000I964900J6096000D01*
G01*
X90983000Y-144355000D02*
X90983000Y-126035000D01*
X92983000Y-53645000D02*
X100000000Y-53645000D01*
X92983000Y-146355000D02*
G75*
G02*
X90983000Y-144355000I0J2000000D01*
G01*
X92983000Y-146355000D02*
X100000000Y-146355000D01*
X97500000Y-67100000D02*
X97500000Y-67600000D01*
X97500000Y-67100000D02*
G75*
G02*
X98000000Y-66600000I500000J0D01*
G01*
X97500000Y-77680000D02*
G75*
G02*
X98000000Y-77180000I500000J0D01*
G01*
X97500000Y-78180000D02*
X97500000Y-77680000D01*
X97500000Y-85340000D02*
X97500000Y-85840000D01*
X97500000Y-85340000D02*
G75*
G02*
X98000000Y-84840000I500000J0D01*
G01*
X97500000Y-95920000D02*
G75*
G02*
X98000000Y-95420000I500000J0D01*
G01*
X97500000Y-96420000D02*
X97500000Y-95920000D01*
X97500000Y-103580000D02*
X97500000Y-104080000D01*
X97500000Y-103580000D02*
G75*
G02*
X98000000Y-103080000I500000J0D01*
G01*
X97500000Y-114160000D02*
G75*
G02*
X98000000Y-113660000I500000J0D01*
G01*
X97500000Y-114660000D02*
X97500000Y-114160000D01*
X97500000Y-121820000D02*
X97500000Y-122320000D01*
X97500000Y-121820000D02*
G75*
G02*
X98000000Y-121320000I500000J0D01*
G01*
X97500000Y-132400000D02*
G75*
G02*
X98000000Y-131900000I500000J0D01*
G01*
X97500000Y-132900000D02*
X97500000Y-132400000D01*
X98000000Y-68100000D02*
G75*
G02*
X97500000Y-67600000I0J500000D01*
G01*
X98000000Y-68100000D02*
X100000000Y-68100000D01*
X98000000Y-77180000D02*
X100000000Y-77180000D01*
X98000000Y-78680000D02*
G75*
G02*
X97500000Y-78180000I0J500000D01*
G01*
X98000000Y-86340000D02*
G75*
G02*
X97500000Y-85840000I0J500000D01*
G01*
X98000000Y-86340000D02*
X100000000Y-86340000D01*
X98000000Y-95420000D02*
X100000000Y-95420000D01*
X98000000Y-96920000D02*
G75*
G02*
X97500000Y-96420000I0J500000D01*
G01*
X98000000Y-104580000D02*
G75*
G02*
X97500000Y-104080000I0J500000D01*
G01*
X98000000Y-104580000D02*
X100000000Y-104580000D01*
X98000000Y-113660000D02*
X100000000Y-113660000D01*
X98000000Y-115160000D02*
G75*
G02*
X97500000Y-114660000I0J500000D01*
G01*
X98000000Y-122820000D02*
G75*
G02*
X97500000Y-122320000I0J500000D01*
G01*
X98000000Y-122820000D02*
X100000000Y-122820000D01*
X98000000Y-131900000D02*
X100000000Y-131900000D01*
X98000000Y-133400000D02*
G75*
G02*
X97500000Y-132900000I0J500000D01*
G01*
X102000000Y-66600000D02*
X98000000Y-66600000D01*
X102000000Y-66600000D02*
G75*
G02*
X102500000Y-67100000I0J-500000D01*
G01*
X102000000Y-68100000D02*
X100000000Y-68100000D01*
X102000000Y-77180000D02*
X100000000Y-77180000D01*
X102000000Y-77180000D02*
G75*
G02*
X102500000Y-77680000I0J-500000D01*
G01*
X102000000Y-78680000D02*
X98000000Y-78680000D01*
X102000000Y-84840000D02*
X98000000Y-84840000D01*
X102000000Y-84840000D02*
G75*
G02*
X102500000Y-85340000I0J-500000D01*
G01*
X102000000Y-86340000D02*
X100000000Y-86340000D01*
X102000000Y-95420000D02*
X100000000Y-95420000D01*
X102000000Y-95420000D02*
G75*
G02*
X102500000Y-95920000I0J-500000D01*
G01*
X102000000Y-96920000D02*
X98000000Y-96920000D01*
X102000000Y-103080000D02*
X98000000Y-103080000D01*
X102000000Y-103080000D02*
G75*
G02*
X102500000Y-103580000I0J-500000D01*
G01*
X102000000Y-104580000D02*
X100000000Y-104580000D01*
X102000000Y-113660000D02*
X100000000Y-113660000D01*
X102000000Y-113660000D02*
G75*
G02*
X102500000Y-114160000I0J-500000D01*
G01*
X102000000Y-115160000D02*
X98000000Y-115160000D01*
X102000000Y-121320000D02*
X98000000Y-121320000D01*
X102000000Y-121320000D02*
G75*
G02*
X102500000Y-121820000I0J-500000D01*
G01*
X102000000Y-122820000D02*
X100000000Y-122820000D01*
X102000000Y-131900000D02*
X100000000Y-131900000D01*
X102000000Y-131900000D02*
G75*
G02*
X102500000Y-132400000I0J-500000D01*
G01*
X102000000Y-133400000D02*
X98000000Y-133400000D01*
X102500000Y-67100000D02*
X102500000Y-67600000D01*
X102500000Y-67600000D02*
G75*
G02*
X102000000Y-68100000I-500000J0D01*
G01*
X102500000Y-78180000D02*
G75*
G02*
X102000000Y-78680000I-500000J0D01*
G01*
X102500000Y-78180000D02*
X102500000Y-77680000D01*
X102500000Y-85340000D02*
X102500000Y-85840000D01*
X102500000Y-85840000D02*
G75*
G02*
X102000000Y-86340000I-500000J0D01*
G01*
X102500000Y-96420000D02*
G75*
G02*
X102000000Y-96920000I-500000J0D01*
G01*
X102500000Y-96420000D02*
X102500000Y-95920000D01*
X102500000Y-103580000D02*
X102500000Y-104080000D01*
X102500000Y-104080000D02*
G75*
G02*
X102000000Y-104580000I-500000J0D01*
G01*
X102500000Y-114660000D02*
G75*
G02*
X102000000Y-115160000I-500000J0D01*
G01*
X102500000Y-114660000D02*
X102500000Y-114160000D01*
X102500000Y-121820000D02*
X102500000Y-122320000D01*
X102500000Y-122320000D02*
G75*
G02*
X102000000Y-122820000I-500000J0D01*
G01*
X102500000Y-132900000D02*
G75*
G02*
X102000000Y-133400000I-500000J0D01*
G01*
X102500000Y-132900000D02*
X102500000Y-132400000D01*
X107017000Y-53645000D02*
X100000000Y-53645000D01*
X107017000Y-53645000D02*
G75*
G02*
X109017000Y-55645000I0J-2000000D01*
G01*
X107017000Y-146355000D02*
X100000000Y-146355000D01*
X109017000Y-55645000D02*
X109017000Y-73965000D01*
X109017000Y-73965000D02*
G75*
G02*
X109017000Y-86157000I-964900J-6096000D01*
G01*
X109017000Y-86157000D02*
X109017000Y-113843000D01*
X109017000Y-113843000D02*
G75*
G02*
X109017000Y-126035000I-964900J-6096000D01*
G01*
X109017000Y-126035000D02*
X109017000Y-144355000D01*
X109017000Y-144355000D02*
G75*
G02*
X107017000Y-146355000I-2000000J0D01*
G01*
X113176905Y-80061000D02*
G75*
G02*
X109937095Y-80061000I-1619905J0D01*
G01*
X109937095Y-80061000D02*
G75*
G02*
X113176905Y-80061000I1619905J0D01*
G01*
X113176905Y-119939000D02*
G75*
G02*
X109937095Y-119939000I-1619905J0D01*
G01*
X109937095Y-119939000D02*
G75*
G02*
X113176905Y-119939000I1619905J0D01*
G01*
M02*
