%TF.GenerationSoftware,KiCad,Pcbnew,10.0.5*%
%TF.CreationDate,2026-08-16T14:14:16-07:00*%
%TF.ProjectId,OPA376 String Preamp,4f504133-3736-4205-9374-72696e672050,rev?*%
%TF.SameCoordinates,Original*%
%TF.FileFunction,Profile,NP*%
%FSLAX46Y46*%
G04 Gerber Fmt 4.6, Leading zero omitted, Abs format (unit mm)*
G04 Created by KiCad (PCBNEW 10.0.5) date 2026-08-16 14:14:16*
%MOMM*%
%LPD*%
G01*
G04 APERTURE LIST*
%TA.AperFunction,Profile*%
%ADD10C,0.100000*%
%TD*%
G04 APERTURE END LIST*
D10*
X90291827Y-81077000D02*
G75*
G02*
X86596285Y-81077000I-1847771J0D01*
G01*
X86596285Y-81077000D02*
G75*
G02*
X90291827Y-81077000I1847771J0D01*
G01*
X90291827Y-118923000D02*
G75*
G02*
X86596285Y-118923000I-1847771J0D01*
G01*
X86596285Y-118923000D02*
G75*
G02*
X90291827Y-118923000I1847771J0D01*
G01*
X90984056Y-57042000D02*
G75*
G02*
X92984056Y-55042056I1999944J0D01*
G01*
X90984056Y-74981000D02*
X90984056Y-57042000D01*
X90984056Y-87173000D02*
G75*
G02*
X90984056Y-74981000I964894J6096000D01*
G01*
X90984056Y-112827000D02*
X90984056Y-87173000D01*
X90984056Y-125019000D02*
G75*
G02*
X90984056Y-112827000I964894J6096000D01*
G01*
X90984056Y-142958000D02*
X90984056Y-125019000D01*
X92984056Y-55042000D02*
X100001056Y-55042000D01*
X92984056Y-144958000D02*
G75*
G02*
X90984000Y-142958000I44J2000100D01*
G01*
X92984056Y-144958000D02*
X100001056Y-144958000D01*
X97502112Y-68435000D02*
X97502112Y-68935000D01*
X97502112Y-68435000D02*
G75*
G02*
X98002112Y-67935012I499988J0D01*
G01*
X97502112Y-79015000D02*
G75*
G02*
X98002112Y-78515012I499988J0D01*
G01*
X97502112Y-79515000D02*
X97502112Y-79015000D01*
X97502112Y-85785000D02*
X97502112Y-86285000D01*
X97502112Y-85785000D02*
G75*
G02*
X98002112Y-85285012I499988J0D01*
G01*
X97502112Y-96365000D02*
G75*
G02*
X98002112Y-95865012I499988J0D01*
G01*
X97502112Y-96865000D02*
X97502112Y-96365000D01*
X97502112Y-103135000D02*
X97502112Y-103635000D01*
X97502112Y-103135000D02*
G75*
G02*
X98002112Y-102635012I499988J0D01*
G01*
X97502112Y-113715000D02*
G75*
G02*
X98002112Y-113215012I499988J0D01*
G01*
X97502112Y-114215000D02*
X97502112Y-113715000D01*
X97502112Y-120485000D02*
X97502112Y-120985000D01*
X97502112Y-120485000D02*
G75*
G02*
X98002112Y-119985012I499988J0D01*
G01*
X97502112Y-131065000D02*
G75*
G02*
X98002112Y-130565012I499988J0D01*
G01*
X97502112Y-131565000D02*
X97502112Y-131065000D01*
X98002112Y-69435000D02*
G75*
G02*
X97502100Y-68935000I-12J500000D01*
G01*
X98002112Y-69435000D02*
X100002112Y-69435000D01*
X98002112Y-78515000D02*
X100002112Y-78515000D01*
X98002112Y-80015000D02*
G75*
G02*
X97502100Y-79515000I-12J500000D01*
G01*
X98002112Y-86785000D02*
G75*
G02*
X97502100Y-86285000I-12J500000D01*
G01*
X98002112Y-86785000D02*
X100002112Y-86785000D01*
X98002112Y-95865000D02*
X100002112Y-95865000D01*
X98002112Y-97365000D02*
G75*
G02*
X97502100Y-96865000I-12J500000D01*
G01*
X98002112Y-104135000D02*
G75*
G02*
X97502100Y-103635000I-12J500000D01*
G01*
X98002112Y-104135000D02*
X100002112Y-104135000D01*
X98002112Y-113215000D02*
X100002112Y-113215000D01*
X98002112Y-114715000D02*
G75*
G02*
X97502100Y-114215000I-12J500000D01*
G01*
X98002112Y-121485000D02*
G75*
G02*
X97502100Y-120985000I-12J500000D01*
G01*
X98002112Y-121485000D02*
X100002112Y-121485000D01*
X98002112Y-130565000D02*
X100002112Y-130565000D01*
X98002112Y-132065000D02*
G75*
G02*
X97502100Y-131565000I-12J500000D01*
G01*
X99748112Y-67935000D02*
X98002112Y-67935000D01*
X99748112Y-80015000D02*
X98002112Y-80015000D01*
X99748112Y-85285000D02*
X98002112Y-85285000D01*
X99748112Y-97365000D02*
X98002112Y-97365000D01*
X99748112Y-102635000D02*
X98002112Y-102635000D01*
X99748112Y-114715000D02*
X98002112Y-114715000D01*
X99748112Y-119985000D02*
X98002112Y-119985000D01*
X99748112Y-132065000D02*
X98002112Y-132065000D01*
X100254000Y-67935000D02*
X99748112Y-67935000D01*
X100254000Y-67935000D02*
X102000000Y-67935000D01*
X100254000Y-80015000D02*
X99748112Y-80015000D01*
X100254000Y-80015000D02*
X102000000Y-80015000D01*
X100254000Y-85285000D02*
X99748112Y-85285000D01*
X100254000Y-85285000D02*
X102000000Y-85285000D01*
X100254000Y-97365000D02*
X99748112Y-97365000D01*
X100254000Y-97365000D02*
X102000000Y-97365000D01*
X100254000Y-102635000D02*
X99748112Y-102635000D01*
X100254000Y-102635000D02*
X102000000Y-102635000D01*
X100254000Y-114715000D02*
X99748112Y-114715000D01*
X100254000Y-114715000D02*
X102000000Y-114715000D01*
X100254000Y-119985000D02*
X99748112Y-119985000D01*
X100254000Y-119985000D02*
X102000000Y-119985000D01*
X100254000Y-132065000D02*
X99748112Y-132065000D01*
X100254000Y-132065000D02*
X102000000Y-132065000D01*
X102000000Y-67935000D02*
G75*
G02*
X102500000Y-68435000I0J-500000D01*
G01*
X102000000Y-69435000D02*
X100000000Y-69435000D01*
X102000000Y-78515000D02*
X100000000Y-78515000D01*
X102000000Y-78515000D02*
G75*
G02*
X102500000Y-79015000I0J-500000D01*
G01*
X102000000Y-85285000D02*
G75*
G02*
X102500000Y-85785000I0J-500000D01*
G01*
X102000000Y-86785000D02*
X100000000Y-86785000D01*
X102000000Y-95865000D02*
X100000000Y-95865000D01*
X102000000Y-95865000D02*
G75*
G02*
X102500000Y-96365000I0J-500000D01*
G01*
X102000000Y-102635000D02*
G75*
G02*
X102500000Y-103135000I0J-500000D01*
G01*
X102000000Y-104135000D02*
X100000000Y-104135000D01*
X102000000Y-113215000D02*
X100000000Y-113215000D01*
X102000000Y-113215000D02*
G75*
G02*
X102500000Y-113715000I0J-500000D01*
G01*
X102000000Y-119985000D02*
G75*
G02*
X102500000Y-120485000I0J-500000D01*
G01*
X102000000Y-121485000D02*
X100000000Y-121485000D01*
X102000000Y-130565000D02*
X100000000Y-130565000D01*
X102000000Y-130565000D02*
G75*
G02*
X102500000Y-131065000I0J-500000D01*
G01*
X102500000Y-68435000D02*
X102500000Y-68935000D01*
X102500000Y-68935000D02*
G75*
G02*
X102000000Y-69435000I-500000J0D01*
G01*
X102500000Y-79515000D02*
G75*
G02*
X102000000Y-80015000I-500000J0D01*
G01*
X102500000Y-79515000D02*
X102500000Y-79015000D01*
X102500000Y-85785000D02*
X102500000Y-86285000D01*
X102500000Y-86285000D02*
G75*
G02*
X102000000Y-86785000I-500000J0D01*
G01*
X102500000Y-96865000D02*
G75*
G02*
X102000000Y-97365000I-500000J0D01*
G01*
X102500000Y-96865000D02*
X102500000Y-96365000D01*
X102500000Y-103135000D02*
X102500000Y-103635000D01*
X102500000Y-103635000D02*
G75*
G02*
X102000000Y-104135000I-500000J0D01*
G01*
X102500000Y-114215000D02*
G75*
G02*
X102000000Y-114715000I-500000J0D01*
G01*
X102500000Y-114215000D02*
X102500000Y-113715000D01*
X102500000Y-120485000D02*
X102500000Y-120985000D01*
X102500000Y-120985000D02*
G75*
G02*
X102000000Y-121485000I-500000J0D01*
G01*
X102500000Y-131565000D02*
G75*
G02*
X102000000Y-132065000I-500000J0D01*
G01*
X102500000Y-131565000D02*
X102500000Y-131065000D01*
X107018056Y-55042000D02*
X100001056Y-55042000D01*
X107018056Y-55042000D02*
G75*
G02*
X109018000Y-57042000I44J-1999900D01*
G01*
X107018056Y-144958000D02*
X100001056Y-144958000D01*
X109018056Y-57042000D02*
X109018056Y-74981000D01*
X109018056Y-74981000D02*
G75*
G02*
X109018056Y-87173000I-964886J-6096000D01*
G01*
X109018056Y-87173000D02*
X109018056Y-112827000D01*
X109018056Y-112827000D02*
G75*
G02*
X109018056Y-125019000I-964886J-6096000D01*
G01*
X109018056Y-142958000D02*
G75*
G02*
X107018056Y-144958056I-2000056J0D01*
G01*
X109018056Y-142958000D02*
X109018056Y-125019000D01*
X113405827Y-81077000D02*
G75*
G02*
X109710285Y-81077000I-1847771J0D01*
G01*
X109710285Y-81077000D02*
G75*
G02*
X113405827Y-81077000I1847771J0D01*
G01*
X113405827Y-118923000D02*
G75*
G02*
X109710285Y-118923000I-1847771J0D01*
G01*
X109710285Y-118923000D02*
G75*
G02*
X113405827Y-118923000I1847771J0D01*
G01*
M02*
