%TF.GenerationSoftware,KiCad,Pcbnew,10.0.5*%
%TF.CreationDate,2026-08-12T12:57:42-07:00*%
%TF.ProjectId,JFET String Preamp Bridge,4a464554-2053-4747-9269-6e6720507265,rev?*%
%TF.SameCoordinates,Original*%
%TF.FileFunction,Copper,L1,Top*%
%TF.FilePolarity,Positive*%
%FSLAX46Y46*%
G04 Gerber Fmt 4.6, Leading zero omitted, Abs format (unit mm)*
G04 Created by KiCad (PCBNEW 10.0.5) date 2026-08-12 12:57:42*
%MOMM*%
%LPD*%
G01*
G04 APERTURE LIST*
G04 Aperture macros list*
%AMRoundRect*
0 Rectangle with rounded corners*
0 $1 Rounding radius*
0 $2 $3 $4 $5 $6 $7 $8 $9 X,Y pos of 4 corners*
0 Add a 4 corners polygon primitive as box body*
4,1,4,$2,$3,$4,$5,$6,$7,$8,$9,$2,$3,0*
0 Add four circle primitives for the rounded corners*
1,1,$1+$1,$2,$3*
1,1,$1+$1,$4,$5*
1,1,$1+$1,$6,$7*
1,1,$1+$1,$8,$9*
0 Add four rect primitives between the rounded corners*
20,1,$1+$1,$2,$3,$4,$5,0*
20,1,$1+$1,$4,$5,$6,$7,0*
20,1,$1+$1,$6,$7,$8,$9,0*
20,1,$1+$1,$8,$9,$2,$3,0*%
G04 Aperture macros list end*
%TA.AperFunction,SMDPad,CuDef*%
%ADD10RoundRect,0.140000X-0.170000X0.140000X-0.170000X-0.140000X0.170000X-0.140000X0.170000X0.140000X0*%
%TD*%
%TA.AperFunction,ComponentPad*%
%ADD11RoundRect,0.191177X-0.458823X-0.458823X0.458823X-0.458823X0.458823X0.458823X-0.458823X0.458823X0*%
%TD*%
%TA.AperFunction,SMDPad,CuDef*%
%ADD12RoundRect,0.135000X-0.135000X-0.185000X0.135000X-0.185000X0.135000X0.185000X-0.135000X0.185000X0*%
%TD*%
%TA.AperFunction,SMDPad,CuDef*%
%ADD13RoundRect,0.140000X-0.140000X-0.170000X0.140000X-0.170000X0.140000X0.170000X-0.140000X0.170000X0*%
%TD*%
%TA.AperFunction,SMDPad,CuDef*%
%ADD14RoundRect,0.135000X-0.185000X0.135000X-0.185000X-0.135000X0.185000X-0.135000X0.185000X0.135000X0*%
%TD*%
%TA.AperFunction,SMDPad,CuDef*%
%ADD15RoundRect,0.150000X0.587500X0.150000X-0.587500X0.150000X-0.587500X-0.150000X0.587500X-0.150000X0*%
%TD*%
%TA.AperFunction,ViaPad*%
%ADD16C,0.600000*%
%TD*%
%TA.AperFunction,Conductor*%
%ADD17C,0.200000*%
%TD*%
G04 APERTURE END LIST*
D10*
%TO.P,C9,1*%
%TO.N,GND*%
X102271619Y-128017983D03*
%TO.P,C9,2*%
%TO.N,Net-(Q4-D)*%
X102271619Y-128977983D03*
%TD*%
D11*
%TO.P,J3,1,Pin_1_1*%
%TO.N,Net-(J3-Pin_1)*%
X106572759Y-67498635D03*
%TD*%
D12*
%TO.P,R8,1*%
%TO.N,/SIngle FET preamp/3.7V*%
X99740000Y-110930000D03*
%TO.P,R8,2*%
%TO.N,Net-(Q3-D)*%
X100760000Y-110930000D03*
%TD*%
%TO.P,R6,1*%
%TO.N,/SIngle FET preamp/3.7V*%
X99740000Y-92690000D03*
%TO.P,R6,2*%
%TO.N,Net-(Q2-D)*%
X100760000Y-92690000D03*
%TD*%
D10*
%TO.P,C5,1*%
%TO.N,GND*%
X102271619Y-91537983D03*
%TO.P,C5,2*%
%TO.N,Net-(Q2-D)*%
X102271619Y-92497983D03*
%TD*%
D13*
%TO.P,C3,1*%
%TO.N,GND*%
X96732500Y-73397500D03*
%TO.P,C3,2*%
%TO.N,Net-(Q1-G)*%
X97692500Y-73397500D03*
%TD*%
D14*
%TO.P,R4,1*%
%TO.N,/SIngle FET preamp1/Output*%
X102262500Y-89227500D03*
%TO.P,R4,2*%
%TO.N,GND*%
X102262500Y-90247500D03*
%TD*%
D11*
%TO.P,J2,1,Pin_1_1*%
%TO.N,GND*%
X106572759Y-77781365D03*
%TD*%
%TO.P,J11,1,Pin_1_1*%
%TO.N,Net-(J11-Pin_1)*%
X106572759Y-103978635D03*
%TD*%
%TO.P,J14,1,Pin_1_1*%
%TO.N,Net-(J14-Pin_1)*%
X93427241Y-122218635D03*
%TD*%
%TO.P,J15,1,Pin_1_1*%
%TO.N,Net-(J15-Pin_1)*%
X106572759Y-122218635D03*
%TD*%
D13*
%TO.P,C4,1*%
%TO.N,GND*%
X96732500Y-91637500D03*
%TO.P,C4,2*%
%TO.N,Net-(Q2-G)*%
X97692500Y-91637500D03*
%TD*%
D15*
%TO.P,Q4,1,D_1*%
%TO.N,Net-(Q4-D)*%
X100235000Y-127922500D03*
%TO.P,Q4,2,S_2*%
%TO.N,/SIngle FET preamp3/Output*%
X100235000Y-126022500D03*
%TO.P,Q4,3,G_3*%
%TO.N,Net-(Q4-G)*%
X98360000Y-126972500D03*
%TD*%
D11*
%TO.P,J8,1,Pin_1_1*%
%TO.N,GND*%
X106572759Y-96021365D03*
%TD*%
D12*
%TO.P,R10,1*%
%TO.N,Net-(J14-Pin_1)*%
X96802500Y-125817500D03*
%TO.P,R10,2*%
%TO.N,Net-(Q4-G)*%
X97822500Y-125817500D03*
%TD*%
%TO.P,R5,1*%
%TO.N,/SIngle FET preamp/3.7V*%
X99740000Y-74450000D03*
%TO.P,R5,2*%
%TO.N,Net-(Q1-D)*%
X100760000Y-74450000D03*
%TD*%
D11*
%TO.P,J1,1,Pin_1_1*%
%TO.N,Net-(J1-Pin_1)*%
X93427241Y-67498635D03*
%TD*%
%TO.P,J5,1,Pin_1_1*%
%TO.N,Net-(J5-Pin_1)*%
X93427241Y-85738635D03*
%TD*%
D15*
%TO.P,Q2,1,D_1*%
%TO.N,Net-(Q2-D)*%
X100235000Y-91442500D03*
%TO.P,Q2,2,S_2*%
%TO.N,/SIngle FET preamp1/Output*%
X100235000Y-89542500D03*
%TO.P,Q2,3,G_3*%
%TO.N,Net-(Q2-G)*%
X98360000Y-90492500D03*
%TD*%
D11*
%TO.P,J10,1,Pin_1_1*%
%TO.N,Net-(J10-Pin_1)*%
X93427241Y-103978635D03*
%TD*%
D15*
%TO.P,Q3,1,D_1*%
%TO.N,Net-(Q3-D)*%
X100235000Y-109682500D03*
%TO.P,Q3,2,S_2*%
%TO.N,/SIngle FET preamp2/Output*%
X100235000Y-107782500D03*
%TO.P,Q3,3,G_3*%
%TO.N,Net-(Q3-G)*%
X98360000Y-108732500D03*
%TD*%
D10*
%TO.P,C7,1*%
%TO.N,GND*%
X102271619Y-109777983D03*
%TO.P,C7,2*%
%TO.N,Net-(Q3-D)*%
X102271619Y-110737983D03*
%TD*%
D12*
%TO.P,R3,1*%
%TO.N,Net-(J5-Pin_1)*%
X96802500Y-89337500D03*
%TO.P,R3,2*%
%TO.N,Net-(Q2-G)*%
X97822500Y-89337500D03*
%TD*%
D15*
%TO.P,Q1,1,D_1*%
%TO.N,Net-(Q1-D)*%
X100235000Y-73202500D03*
%TO.P,Q1,2,S_2*%
%TO.N,/SIngle FET preamp/Output*%
X100235000Y-71302500D03*
%TO.P,Q1,3,G_3*%
%TO.N,Net-(Q1-G)*%
X98360000Y-72252500D03*
%TD*%
D12*
%TO.P,R7,1*%
%TO.N,Net-(J10-Pin_1)*%
X96802500Y-107577500D03*
%TO.P,R7,2*%
%TO.N,Net-(Q3-G)*%
X97822500Y-107577500D03*
%TD*%
%TO.P,R2,1*%
%TO.N,Net-(J1-Pin_1)*%
X96802500Y-71097500D03*
%TO.P,R2,2*%
%TO.N,Net-(Q1-G)*%
X97822500Y-71097500D03*
%TD*%
D13*
%TO.P,C6,1*%
%TO.N,GND*%
X96732500Y-109877500D03*
%TO.P,C6,2*%
%TO.N,Net-(Q3-G)*%
X97692500Y-109877500D03*
%TD*%
D11*
%TO.P,J16,1,Pin_1_1*%
%TO.N,Net-(J15-Pin_1)*%
X93427241Y-132501365D03*
%TD*%
D10*
%TO.P,C2,1*%
%TO.N,GND*%
X102271619Y-73297983D03*
%TO.P,C2,2*%
%TO.N,Net-(Q1-D)*%
X102271619Y-74257983D03*
%TD*%
D11*
%TO.P,J4,1,Pin_1_1*%
%TO.N,Net-(J3-Pin_1)*%
X93427241Y-77781365D03*
%TD*%
%TO.P,J6,1,Pin_1_1*%
%TO.N,Net-(J6-Pin_1)*%
X106572759Y-85738635D03*
%TD*%
D14*
%TO.P,R1,1*%
%TO.N,/SIngle FET preamp/Output*%
X102262500Y-70987500D03*
%TO.P,R1,2*%
%TO.N,GND*%
X102262500Y-72007500D03*
%TD*%
D11*
%TO.P,J13,1,Pin_1_1*%
%TO.N,GND*%
X106572759Y-114261365D03*
%TD*%
%TO.P,J7,1,Pin_1_1*%
%TO.N,Net-(J6-Pin_1)*%
X93427241Y-96021365D03*
%TD*%
D14*
%TO.P,R9,1*%
%TO.N,/SIngle FET preamp2/Output*%
X102262500Y-107467500D03*
%TO.P,R9,2*%
%TO.N,GND*%
X102262500Y-108487500D03*
%TD*%
D12*
%TO.P,R11,1*%
%TO.N,/SIngle FET preamp/3.7V*%
X99740000Y-129170000D03*
%TO.P,R11,2*%
%TO.N,Net-(Q4-D)*%
X100760000Y-129170000D03*
%TD*%
D11*
%TO.P,J17,1,Pin_1_1*%
%TO.N,GND*%
X106572759Y-132501365D03*
%TD*%
D13*
%TO.P,C8,1*%
%TO.N,GND*%
X96732500Y-128117500D03*
%TO.P,C8,2*%
%TO.N,Net-(Q4-G)*%
X97692500Y-128117500D03*
%TD*%
D14*
%TO.P,R12,1*%
%TO.N,/SIngle FET preamp3/Output*%
X102262500Y-125707500D03*
%TO.P,R12,2*%
%TO.N,GND*%
X102262500Y-126727500D03*
%TD*%
D11*
%TO.P,J12,1,Pin_1_1*%
%TO.N,Net-(J11-Pin_1)*%
X93427241Y-114261365D03*
%TD*%
D16*
%TO.N,GND*%
X103900000Y-115900000D03*
X94300000Y-135900000D03*
X103335000Y-128472500D03*
X103335000Y-110232500D03*
X95100000Y-120000000D03*
X105400000Y-71150000D03*
X94650000Y-99900000D03*
X95450000Y-115700000D03*
X101150000Y-93700000D03*
X94900000Y-94750000D03*
X101100000Y-111950000D03*
X99750000Y-81550000D03*
X99750000Y-87400000D03*
X104250000Y-136250000D03*
X94300000Y-58400000D03*
X106200000Y-60850000D03*
X94950000Y-112950000D03*
X100150000Y-69650000D03*
X107450000Y-84250000D03*
X104000000Y-142100000D03*
X94600000Y-81250000D03*
X100000000Y-64850000D03*
X100300000Y-75500000D03*
X103335000Y-73752500D03*
X103335000Y-91992500D03*
X94750000Y-64750000D03*
X106850000Y-99900000D03*
X103750000Y-78900000D03*
X99750000Y-124400000D03*
X94500000Y-75850000D03*
X94350000Y-142000000D03*
X100650000Y-99850000D03*
X102000000Y-119900000D03*
%TO.N,/SIngle FET preamp/3.7V*%
X102700000Y-55300000D03*
%TO.N,/SIngle FET preamp1/Output*%
X105500000Y-73250000D03*
%TO.N,/SIngle FET preamp3/Output*%
X106200000Y-117600000D03*
%TO.N,/SIngle FET preamp2/Output*%
X105350000Y-92950000D03*
%TO.N,/SIngle FET preamp/Output*%
X105150000Y-70100000D03*
%TD*%
%TO.N,GND*%
D17*
X97332500Y-73997500D02*
X98062500Y-73997500D01*
X102880483Y-109777983D02*
X103335000Y-110232500D01*
X101625136Y-109131500D02*
X102271619Y-109777983D01*
X98062500Y-92237500D02*
X99408500Y-90891500D01*
X98062500Y-110477500D02*
X99408500Y-109131500D01*
X101625136Y-90891500D02*
X102271619Y-91537983D01*
X102271619Y-109777983D02*
X102880483Y-109777983D01*
X102271619Y-91537983D02*
X102271619Y-90256619D01*
X96732500Y-91637500D02*
X97332500Y-92237500D01*
X102271619Y-90256619D02*
X102262500Y-90247500D01*
X102271619Y-109777983D02*
X102271619Y-108496619D01*
X102271619Y-126736619D02*
X102262500Y-126727500D01*
X97332500Y-110477500D02*
X98062500Y-110477500D01*
X96732500Y-109877500D02*
X97332500Y-110477500D01*
X97332500Y-92237500D02*
X98062500Y-92237500D01*
X102880483Y-128017983D02*
X103335000Y-128472500D01*
X96732500Y-128117500D02*
X97332500Y-128717500D01*
X102271619Y-72016619D02*
X102262500Y-72007500D01*
X96732500Y-73397500D02*
X97332500Y-73997500D01*
X102271619Y-108496619D02*
X102262500Y-108487500D01*
X99408500Y-90891500D02*
X101625136Y-90891500D01*
X102271619Y-73297983D02*
X102880483Y-73297983D01*
X99408500Y-72651500D02*
X101625136Y-72651500D01*
X102271619Y-73297983D02*
X102271619Y-72016619D01*
X99408500Y-127371500D02*
X101625136Y-127371500D01*
X101625136Y-72651500D02*
X102271619Y-73297983D01*
X102880483Y-91537983D02*
X103335000Y-91992500D01*
X102271619Y-91537983D02*
X102880483Y-91537983D01*
X98062500Y-128717500D02*
X99408500Y-127371500D01*
X99408500Y-109131500D02*
X101625136Y-109131500D01*
X101625136Y-127371500D02*
X102271619Y-128017983D01*
X102271619Y-128017983D02*
X102880483Y-128017983D01*
X98062500Y-73997500D02*
X99408500Y-72651500D01*
X97332500Y-128717500D02*
X98062500Y-128717500D01*
X102271619Y-128017983D02*
X102271619Y-126736619D01*
X102880483Y-73297983D02*
X103335000Y-73752500D01*
%TO.N,Net-(Q4-D)*%
X100235000Y-127922500D02*
X101216136Y-127922500D01*
X100760000Y-129170000D02*
X100760000Y-128447500D01*
X100760000Y-128447500D02*
X100235000Y-127922500D01*
X99730000Y-127967500D02*
X99685000Y-127922500D01*
X101216136Y-127922500D02*
X102271619Y-128977983D01*
%TO.N,Net-(J3-Pin_1)*%
X96997500Y-76302500D02*
X101564232Y-76302500D01*
X93427241Y-77781365D02*
X95518635Y-77781365D01*
X101564232Y-76302500D02*
X106572759Y-71293973D01*
X106572759Y-71293973D02*
X106572759Y-67498635D01*
X95518635Y-77781365D02*
X96997500Y-76302500D01*
%TO.N,/SIngle FET preamp/3.7V*%
X99740000Y-110930000D02*
X99740000Y-111110000D01*
X98300000Y-74650000D02*
X98500000Y-74450000D01*
X95350000Y-55300000D02*
X92300000Y-58350000D01*
X99740000Y-111110000D02*
X99000000Y-111850000D01*
X92300000Y-111850000D02*
X92300000Y-127400000D01*
X92300000Y-93500000D02*
X92300000Y-111850000D01*
X99740000Y-93060000D02*
X99350000Y-93450000D01*
X99430000Y-129170000D02*
X99740000Y-129170000D01*
X92300000Y-127400000D02*
X94750000Y-129850000D01*
X92300000Y-73250000D02*
X92300000Y-93500000D01*
X94750000Y-129850000D02*
X98750000Y-129850000D01*
X92350000Y-93450000D02*
X92300000Y-93500000D01*
X92300000Y-58350000D02*
X92300000Y-73250000D01*
X99350000Y-93450000D02*
X92350000Y-93450000D01*
X98750000Y-129850000D02*
X99430000Y-129170000D01*
X99740000Y-92690000D02*
X99740000Y-93060000D01*
X99000000Y-111850000D02*
X92300000Y-111850000D01*
X93700000Y-74650000D02*
X98300000Y-74650000D01*
X98500000Y-74450000D02*
X99740000Y-74450000D01*
X102700000Y-55300000D02*
X95350000Y-55300000D01*
X92300000Y-73250000D02*
X93700000Y-74650000D01*
%TO.N,Net-(Q3-D)*%
X100760000Y-110930000D02*
X100760000Y-110207500D01*
X100760000Y-110207500D02*
X100235000Y-109682500D01*
X101216136Y-109682500D02*
X102271619Y-110737983D01*
X99730000Y-109727500D02*
X99685000Y-109682500D01*
X100235000Y-109682500D02*
X101216136Y-109682500D01*
%TO.N,Net-(Q2-D)*%
X100235000Y-91442500D02*
X101216136Y-91442500D01*
X99730000Y-91487500D02*
X99685000Y-91442500D01*
X100760000Y-91967500D02*
X100235000Y-91442500D01*
X100760000Y-92690000D02*
X100760000Y-91967500D01*
X101216136Y-91442500D02*
X102271619Y-92497983D01*
%TO.N,Net-(Q1-G)*%
X98360000Y-72252500D02*
X98360000Y-72730000D01*
X97822500Y-71097500D02*
X97822500Y-71715000D01*
X97822500Y-71715000D02*
X98360000Y-72252500D01*
X98360000Y-72730000D02*
X97692500Y-73397500D01*
%TO.N,/SIngle FET preamp1/Output*%
X100550000Y-89227500D02*
X100235000Y-89542500D01*
X105000000Y-73750000D02*
X105000000Y-86490000D01*
X99647500Y-89542500D02*
X99752500Y-89437500D01*
X102262500Y-89227500D02*
X100550000Y-89227500D01*
X105000000Y-86490000D02*
X102262500Y-89227500D01*
X105500000Y-73250000D02*
X105000000Y-73750000D01*
%TO.N,Net-(J11-Pin_1)*%
X96997500Y-112782500D02*
X101564232Y-112782500D01*
X95518635Y-114261365D02*
X96997500Y-112782500D01*
X93427241Y-114261365D02*
X95518635Y-114261365D01*
X101564232Y-112782500D02*
X106572759Y-107773973D01*
X106572759Y-107773973D02*
X106572759Y-103978635D01*
%TO.N,Net-(J14-Pin_1)*%
X96802500Y-125608864D02*
X96802500Y-125817500D01*
X96611136Y-125817500D02*
X96802500Y-125817500D01*
X93421619Y-122227983D02*
X96802500Y-125608864D01*
%TO.N,Net-(J15-Pin_1)*%
X93427241Y-132501365D02*
X95518635Y-132501365D01*
X95518635Y-132501365D02*
X96997500Y-131022500D01*
X101564232Y-131022500D02*
X106572759Y-126013973D01*
X106572759Y-126013973D02*
X106572759Y-122218635D01*
X96997500Y-131022500D02*
X101564232Y-131022500D01*
%TO.N,Net-(Q2-G)*%
X98360000Y-90970000D02*
X97692500Y-91637500D01*
X97822500Y-89955000D02*
X98360000Y-90492500D01*
X97822500Y-89337500D02*
X97822500Y-89955000D01*
X98360000Y-90492500D02*
X98360000Y-90970000D01*
%TO.N,/SIngle FET preamp3/Output*%
X104350000Y-119450000D02*
X104350000Y-123620000D01*
X99647500Y-126022500D02*
X99752500Y-125917500D01*
X100550000Y-125707500D02*
X100235000Y-126022500D01*
X106200000Y-117600000D02*
X104350000Y-119450000D01*
X102262500Y-125707500D02*
X100550000Y-125707500D01*
X104350000Y-123620000D02*
X102262500Y-125707500D01*
%TO.N,Net-(Q4-G)*%
X97822500Y-126435000D02*
X98360000Y-126972500D01*
X98360000Y-127450000D02*
X97692500Y-128117500D01*
X98360000Y-126972500D02*
X98360000Y-127450000D01*
X97822500Y-125817500D02*
X97822500Y-126435000D01*
%TO.N,Net-(Q1-D)*%
X100235000Y-73202500D02*
X101216136Y-73202500D01*
X100760000Y-74450000D02*
X100760000Y-73727500D01*
X100760000Y-73727500D02*
X100235000Y-73202500D01*
X101216136Y-73202500D02*
X102271619Y-74257983D01*
X99730000Y-73247500D02*
X99685000Y-73202500D01*
%TO.N,Net-(J1-Pin_1)*%
X96802500Y-70888864D02*
X96802500Y-71097500D01*
X93421619Y-67507983D02*
X96802500Y-70888864D01*
X96611136Y-71097500D02*
X96802500Y-71097500D01*
%TO.N,Net-(J5-Pin_1)*%
X96802500Y-89128864D02*
X96802500Y-89337500D01*
X96611136Y-89337500D02*
X96802500Y-89337500D01*
X93421619Y-85747983D02*
X96802500Y-89128864D01*
%TO.N,Net-(J10-Pin_1)*%
X96802500Y-107368864D02*
X96802500Y-107577500D01*
X96611136Y-107577500D02*
X96802500Y-107577500D01*
X93421619Y-103987983D02*
X96802500Y-107368864D01*
%TO.N,/SIngle FET preamp2/Output*%
X102262500Y-107467500D02*
X100550000Y-107467500D01*
X103800000Y-105400000D02*
X103800000Y-105600000D01*
X100550000Y-107467500D02*
X100235000Y-107782500D01*
X99647500Y-107782500D02*
X99752500Y-107677500D01*
X102262500Y-107137500D02*
X102262500Y-107467500D01*
X103800000Y-105600000D02*
X102262500Y-107137500D01*
X103800000Y-94500000D02*
X103800000Y-105400000D01*
X105350000Y-92950000D02*
X103800000Y-94500000D01*
%TO.N,Net-(Q3-G)*%
X98360000Y-108732500D02*
X98360000Y-109210000D01*
X98360000Y-109210000D02*
X97692500Y-109877500D01*
X97822500Y-107577500D02*
X97822500Y-108195000D01*
X97822500Y-108195000D02*
X98360000Y-108732500D01*
%TO.N,/SIngle FET preamp/Output*%
X100550000Y-70987500D02*
X100235000Y-71302500D01*
X104062500Y-70987500D02*
X102262500Y-70987500D01*
X99647500Y-71302500D02*
X99752500Y-71197500D01*
X105150000Y-70100000D02*
X104950000Y-70100000D01*
X104950000Y-70100000D02*
X104062500Y-70987500D01*
X102262500Y-70987500D02*
X100550000Y-70987500D01*
%TO.N,Net-(J6-Pin_1)*%
X106572759Y-89533973D02*
X106572759Y-85738635D01*
X101564232Y-94542500D02*
X106572759Y-89533973D01*
X95518635Y-96021365D02*
X96997500Y-94542500D01*
X96997500Y-94542500D02*
X101564232Y-94542500D01*
X93427241Y-96021365D02*
X95518635Y-96021365D01*
%TD*%
%TA.AperFunction,Conductor*%
%TO.N,GND*%
G36*
X92815456Y-123091870D02*
G01*
X92885378Y-123116337D01*
X92885377Y-123116337D01*
X92889853Y-123116756D01*
X92915216Y-123119135D01*
X93765726Y-123119134D01*
X93832765Y-123138818D01*
X93853407Y-123155453D01*
X96245681Y-125547727D01*
X96279166Y-125609050D01*
X96282000Y-125635408D01*
X96282000Y-125675299D01*
X96277774Y-125707392D01*
X96260636Y-125771356D01*
X96260636Y-125863644D01*
X96266216Y-125884467D01*
X96277775Y-125927607D01*
X96282000Y-125959700D01*
X96282000Y-126039082D01*
X96292918Y-126114018D01*
X96292918Y-126114019D01*
X96292919Y-126114021D01*
X96349421Y-126229599D01*
X96349423Y-126229602D01*
X96440397Y-126320576D01*
X96440400Y-126320578D01*
X96551156Y-126374722D01*
X96555982Y-126377082D01*
X96630918Y-126388000D01*
X96630923Y-126388000D01*
X96974077Y-126388000D01*
X96974082Y-126388000D01*
X97049018Y-126377082D01*
X97128337Y-126338305D01*
X97164599Y-126320578D01*
X97164600Y-126320576D01*
X97164602Y-126320576D01*
X97224820Y-126260357D01*
X97286141Y-126226874D01*
X97355833Y-126231858D01*
X97400181Y-126260359D01*
X97435681Y-126295859D01*
X97469166Y-126357182D01*
X97472000Y-126383540D01*
X97472000Y-126481145D01*
X97472798Y-126487209D01*
X97462029Y-126556244D01*
X97450183Y-126576266D01*
X97444451Y-126584155D01*
X97386852Y-126697198D01*
X97372000Y-126790975D01*
X97372000Y-127154017D01*
X97386854Y-127247805D01*
X97389869Y-127257082D01*
X97386347Y-127258226D01*
X97395840Y-127308831D01*
X97369550Y-127373566D01*
X97312435Y-127413811D01*
X97242628Y-127416788D01*
X97209341Y-127403162D01*
X97128693Y-127355467D01*
X97128690Y-127355465D01*
X96982501Y-127312993D01*
X96982500Y-127312994D01*
X96982500Y-128922003D01*
X97128695Y-128879531D01*
X97267874Y-128797221D01*
X97267879Y-128797217D01*
X97360833Y-128704263D01*
X97422156Y-128670778D01*
X97467910Y-128669470D01*
X97521765Y-128678000D01*
X97863234Y-128677999D01*
X97863239Y-128677999D01*
X97863239Y-128677998D01*
X97917087Y-128669470D01*
X97954670Y-128663518D01*
X97954671Y-128663518D01*
X97954672Y-128663517D01*
X97954675Y-128663517D01*
X98064891Y-128607359D01*
X98152359Y-128519891D01*
X98208517Y-128409675D01*
X98208517Y-128409673D01*
X98208518Y-128409672D01*
X98208518Y-128409671D01*
X98220864Y-128331718D01*
X98223000Y-128318235D01*
X98222999Y-128134043D01*
X98242683Y-128067004D01*
X98259313Y-128046367D01*
X98640470Y-127665212D01*
X98686614Y-127585288D01*
X98686613Y-127585288D01*
X98686781Y-127584999D01*
X98737348Y-127536784D01*
X98794168Y-127522999D01*
X98979017Y-127522999D01*
X98979018Y-127522999D01*
X99072804Y-127508146D01*
X99086773Y-127501028D01*
X99155438Y-127488132D01*
X99220179Y-127514407D01*
X99260437Y-127571512D01*
X99263268Y-127637539D01*
X99263380Y-127637557D01*
X99263293Y-127638105D01*
X99263431Y-127641318D01*
X99261981Y-127646388D01*
X99247000Y-127740975D01*
X99247000Y-128104017D01*
X99251756Y-128134044D01*
X99261854Y-128197804D01*
X99319450Y-128310842D01*
X99319452Y-128310844D01*
X99319454Y-128310847D01*
X99409152Y-128400545D01*
X99409156Y-128400548D01*
X99409158Y-128400550D01*
X99439310Y-128415913D01*
X99490105Y-128463886D01*
X99506900Y-128531707D01*
X99484363Y-128597842D01*
X99437475Y-128637797D01*
X99377898Y-128666922D01*
X99286923Y-128757897D01*
X99286923Y-128757898D01*
X99239105Y-128855710D01*
X99215386Y-128888930D01*
X98641137Y-129463181D01*
X98579814Y-129496666D01*
X98553456Y-129499500D01*
X94946544Y-129499500D01*
X94879505Y-129479815D01*
X94858863Y-129463181D01*
X93763182Y-128367500D01*
X95953710Y-128367500D01*
X95955354Y-128388410D01*
X96000468Y-128543695D01*
X96082778Y-128682874D01*
X96082785Y-128682883D01*
X96197116Y-128797214D01*
X96197125Y-128797221D01*
X96336304Y-128879531D01*
X96482500Y-128922004D01*
X96482500Y-128367500D01*
X95953710Y-128367500D01*
X93763182Y-128367500D01*
X93263181Y-127867499D01*
X95953709Y-127867499D01*
X95953710Y-127867500D01*
X96482500Y-127867500D01*
X96482500Y-127312994D01*
X96482498Y-127312993D01*
X96336309Y-127355465D01*
X96336306Y-127355467D01*
X96197125Y-127437778D01*
X96197116Y-127437785D01*
X96082785Y-127552116D01*
X96082778Y-127552125D01*
X96000468Y-127691304D01*
X96000466Y-127691309D01*
X95955355Y-127846581D01*
X95955354Y-127846587D01*
X95953709Y-127867499D01*
X93263181Y-127867499D01*
X92686819Y-127291137D01*
X92653334Y-127229814D01*
X92650500Y-127203456D01*
X92650500Y-123208911D01*
X92670185Y-123141872D01*
X92722989Y-123096117D01*
X92792147Y-123086173D01*
X92815456Y-123091870D01*
G37*
%TD.AperFunction*%
%TA.AperFunction,Conductor*%
G36*
X96940492Y-112220185D02*
G01*
X96986247Y-112272989D01*
X96996191Y-112342147D01*
X96967166Y-112405703D01*
X96908388Y-112443477D01*
X96905589Y-112444263D01*
X96883642Y-112450143D01*
X96862210Y-112455886D01*
X96862209Y-112455887D01*
X96782291Y-112502027D01*
X96782286Y-112502031D01*
X95409772Y-113874546D01*
X95348449Y-113908031D01*
X95322091Y-113910865D01*
X94451740Y-113910865D01*
X94384701Y-113891180D01*
X94338946Y-113838376D01*
X94327740Y-113786865D01*
X94327740Y-113749342D01*
X94324943Y-113719506D01*
X94324943Y-113719502D01*
X94280968Y-113593829D01*
X94201905Y-113486701D01*
X94094777Y-113407638D01*
X94094773Y-113407636D01*
X94094772Y-113407636D01*
X93969105Y-113363662D01*
X93939270Y-113360865D01*
X92915219Y-113360865D01*
X92885382Y-113363662D01*
X92885377Y-113363663D01*
X92815454Y-113388130D01*
X92745675Y-113391691D01*
X92685048Y-113356962D01*
X92652821Y-113294968D01*
X92650500Y-113271088D01*
X92650500Y-112324500D01*
X92670185Y-112257461D01*
X92722989Y-112211706D01*
X92774500Y-112200500D01*
X96873453Y-112200500D01*
X96940492Y-112220185D01*
G37*
%TD.AperFunction*%
%TA.AperFunction,Conductor*%
G36*
X101410672Y-110372717D02*
G01*
X101674800Y-110636845D01*
X101708285Y-110698168D01*
X101711119Y-110724525D01*
X101711119Y-110908722D01*
X101725600Y-111000153D01*
X101725600Y-111000154D01*
X101725601Y-111000157D01*
X101725602Y-111000158D01*
X101760149Y-111067961D01*
X101781761Y-111110375D01*
X101781764Y-111110379D01*
X101869222Y-111197837D01*
X101869224Y-111197838D01*
X101869228Y-111197842D01*
X101979444Y-111254000D01*
X101979445Y-111254000D01*
X101979447Y-111254001D01*
X102014566Y-111259562D01*
X102070884Y-111268483D01*
X102283204Y-111268482D01*
X102350243Y-111288166D01*
X102395998Y-111340970D01*
X102405942Y-111410128D01*
X102376917Y-111473684D01*
X102370885Y-111480163D01*
X101455369Y-112395681D01*
X101394046Y-112429166D01*
X101367688Y-112432000D01*
X99124047Y-112432000D01*
X99057008Y-112412315D01*
X99011253Y-112359511D01*
X99001309Y-112290353D01*
X99030334Y-112226797D01*
X99089112Y-112189023D01*
X99091910Y-112188236D01*
X99135288Y-112176614D01*
X99215212Y-112130470D01*
X99808863Y-111536819D01*
X99870186Y-111503334D01*
X99896544Y-111500500D01*
X99911577Y-111500500D01*
X99911582Y-111500500D01*
X99986518Y-111489582D01*
X100044310Y-111461329D01*
X100102099Y-111433078D01*
X100102102Y-111433076D01*
X100162319Y-111372860D01*
X100223642Y-111339375D01*
X100293334Y-111344359D01*
X100337681Y-111372860D01*
X100397897Y-111433076D01*
X100397900Y-111433078D01*
X100480962Y-111473684D01*
X100513482Y-111489582D01*
X100588418Y-111500500D01*
X100588423Y-111500500D01*
X100931577Y-111500500D01*
X100931582Y-111500500D01*
X101006518Y-111489582D01*
X101064310Y-111461329D01*
X101122099Y-111433078D01*
X101122102Y-111433076D01*
X101213076Y-111342102D01*
X101213078Y-111342099D01*
X101256146Y-111254001D01*
X101269582Y-111226518D01*
X101280500Y-111151582D01*
X101280500Y-110708418D01*
X101269582Y-110633482D01*
X101267466Y-110629154D01*
X101211591Y-110514858D01*
X101199831Y-110445985D01*
X101227175Y-110381688D01*
X101284939Y-110342381D01*
X101354784Y-110340543D01*
X101410672Y-110372717D01*
G37*
%TD.AperFunction*%
%TA.AperFunction,Conductor*%
G36*
X92815456Y-104851870D02*
G01*
X92885378Y-104876337D01*
X92885377Y-104876337D01*
X92889853Y-104876756D01*
X92915216Y-104879135D01*
X93765726Y-104879134D01*
X93832765Y-104898818D01*
X93853407Y-104915453D01*
X96245681Y-107307727D01*
X96279166Y-107369050D01*
X96282000Y-107395408D01*
X96282000Y-107435299D01*
X96277775Y-107467392D01*
X96260636Y-107531356D01*
X96260636Y-107623643D01*
X96277775Y-107687607D01*
X96282000Y-107719700D01*
X96282000Y-107799082D01*
X96292918Y-107874018D01*
X96292918Y-107874019D01*
X96292919Y-107874021D01*
X96349421Y-107989599D01*
X96349423Y-107989602D01*
X96440397Y-108080576D01*
X96440400Y-108080578D01*
X96551156Y-108134722D01*
X96555982Y-108137082D01*
X96630918Y-108148000D01*
X96630923Y-108148000D01*
X96974077Y-108148000D01*
X96974082Y-108148000D01*
X97049018Y-108137082D01*
X97128337Y-108098305D01*
X97164599Y-108080578D01*
X97164600Y-108080576D01*
X97164602Y-108080576D01*
X97224820Y-108020357D01*
X97286141Y-107986874D01*
X97355833Y-107991858D01*
X97400181Y-108020359D01*
X97435681Y-108055859D01*
X97469166Y-108117182D01*
X97472000Y-108143540D01*
X97472000Y-108241145D01*
X97472798Y-108247209D01*
X97462029Y-108316244D01*
X97450183Y-108336266D01*
X97444451Y-108344155D01*
X97386852Y-108457198D01*
X97372000Y-108550975D01*
X97372000Y-108914017D01*
X97386854Y-109007805D01*
X97389869Y-109017082D01*
X97386347Y-109018226D01*
X97395840Y-109068831D01*
X97369550Y-109133566D01*
X97312435Y-109173811D01*
X97242628Y-109176788D01*
X97209341Y-109163162D01*
X97128693Y-109115467D01*
X97128690Y-109115465D01*
X96982501Y-109072993D01*
X96982500Y-109072994D01*
X96982500Y-110682003D01*
X97128695Y-110639531D01*
X97267874Y-110557221D01*
X97267879Y-110557217D01*
X97360833Y-110464263D01*
X97422156Y-110430778D01*
X97467910Y-110429470D01*
X97521765Y-110438000D01*
X97863234Y-110437999D01*
X97863239Y-110437999D01*
X97863239Y-110437998D01*
X97917087Y-110429470D01*
X97954670Y-110423518D01*
X97954671Y-110423518D01*
X97954672Y-110423517D01*
X97954675Y-110423517D01*
X98064891Y-110367359D01*
X98152359Y-110279891D01*
X98208517Y-110169675D01*
X98208517Y-110169673D01*
X98208518Y-110169672D01*
X98208518Y-110169671D01*
X98220864Y-110091718D01*
X98223000Y-110078235D01*
X98222999Y-109894043D01*
X98242683Y-109827004D01*
X98259313Y-109806367D01*
X98640470Y-109425212D01*
X98686614Y-109345288D01*
X98686613Y-109345288D01*
X98686781Y-109344999D01*
X98737348Y-109296784D01*
X98794168Y-109282999D01*
X98979017Y-109282999D01*
X98979018Y-109282999D01*
X99072804Y-109268146D01*
X99086773Y-109261028D01*
X99155438Y-109248132D01*
X99220179Y-109274407D01*
X99260437Y-109331512D01*
X99263268Y-109397539D01*
X99263380Y-109397557D01*
X99263293Y-109398105D01*
X99263431Y-109401318D01*
X99261981Y-109406388D01*
X99247000Y-109500975D01*
X99247000Y-109864017D01*
X99251756Y-109894044D01*
X99261854Y-109957804D01*
X99319450Y-110070842D01*
X99319452Y-110070844D01*
X99319454Y-110070847D01*
X99409152Y-110160545D01*
X99409156Y-110160548D01*
X99409158Y-110160550D01*
X99439310Y-110175913D01*
X99490105Y-110223886D01*
X99506900Y-110291707D01*
X99484363Y-110357842D01*
X99437475Y-110397797D01*
X99377898Y-110426922D01*
X99286923Y-110517897D01*
X99286921Y-110517900D01*
X99230419Y-110633478D01*
X99230418Y-110633480D01*
X99230418Y-110633482D01*
X99219500Y-110708418D01*
X99219500Y-110708423D01*
X99219500Y-111083456D01*
X99199815Y-111150495D01*
X99183181Y-111171137D01*
X98891137Y-111463181D01*
X98829814Y-111496666D01*
X98803456Y-111499500D01*
X92774500Y-111499500D01*
X92707461Y-111479815D01*
X92661706Y-111427011D01*
X92650500Y-111375500D01*
X92650500Y-110127500D01*
X95953710Y-110127500D01*
X95955354Y-110148410D01*
X96000468Y-110303695D01*
X96082778Y-110442874D01*
X96082785Y-110442883D01*
X96197116Y-110557214D01*
X96197125Y-110557221D01*
X96336304Y-110639531D01*
X96482500Y-110682004D01*
X96482500Y-110127500D01*
X95953710Y-110127500D01*
X92650500Y-110127500D01*
X92650500Y-109627499D01*
X95953709Y-109627499D01*
X95953710Y-109627500D01*
X96482500Y-109627500D01*
X96482500Y-109072994D01*
X96482498Y-109072993D01*
X96336309Y-109115465D01*
X96336306Y-109115467D01*
X96197125Y-109197778D01*
X96197116Y-109197785D01*
X96082785Y-109312116D01*
X96082778Y-109312125D01*
X96000468Y-109451304D01*
X96000466Y-109451309D01*
X95955355Y-109606581D01*
X95955354Y-109606587D01*
X95953709Y-109627499D01*
X92650500Y-109627499D01*
X92650500Y-104968911D01*
X92670185Y-104901872D01*
X92722989Y-104856117D01*
X92792147Y-104846173D01*
X92815456Y-104851870D01*
G37*
%TD.AperFunction*%
%TA.AperFunction,Conductor*%
G36*
X101410672Y-92132717D02*
G01*
X101674800Y-92396845D01*
X101708285Y-92458168D01*
X101711119Y-92484525D01*
X101711119Y-92668722D01*
X101725600Y-92760153D01*
X101725600Y-92760154D01*
X101725601Y-92760157D01*
X101725602Y-92760158D01*
X101760149Y-92827961D01*
X101781761Y-92870375D01*
X101781764Y-92870379D01*
X101869222Y-92957837D01*
X101869224Y-92957838D01*
X101869228Y-92957842D01*
X101979444Y-93014000D01*
X101979445Y-93014000D01*
X101979447Y-93014001D01*
X102014566Y-93019562D01*
X102070884Y-93028483D01*
X102283204Y-93028482D01*
X102350243Y-93048166D01*
X102395998Y-93100970D01*
X102405942Y-93170128D01*
X102376917Y-93233684D01*
X102370885Y-93240163D01*
X101455369Y-94155681D01*
X101394046Y-94189166D01*
X101367688Y-94192000D01*
X96951356Y-94192000D01*
X96862212Y-94215886D01*
X96862209Y-94215887D01*
X96782291Y-94262027D01*
X96782286Y-94262031D01*
X95409772Y-95634546D01*
X95348449Y-95668031D01*
X95322091Y-95670865D01*
X94451740Y-95670865D01*
X94384701Y-95651180D01*
X94338946Y-95598376D01*
X94327740Y-95546865D01*
X94327740Y-95509342D01*
X94324943Y-95479506D01*
X94324943Y-95479502D01*
X94280968Y-95353829D01*
X94201905Y-95246701D01*
X94094777Y-95167638D01*
X94094773Y-95167636D01*
X94094772Y-95167636D01*
X93969105Y-95123662D01*
X93939270Y-95120865D01*
X92915219Y-95120865D01*
X92885382Y-95123662D01*
X92885377Y-95123663D01*
X92815454Y-95148130D01*
X92745675Y-95151691D01*
X92685048Y-95116962D01*
X92652821Y-95054968D01*
X92650500Y-95031088D01*
X92650500Y-93924500D01*
X92670185Y-93857461D01*
X92722989Y-93811706D01*
X92774500Y-93800500D01*
X99396142Y-93800500D01*
X99396144Y-93800500D01*
X99485288Y-93776614D01*
X99565212Y-93730470D01*
X100020469Y-93275212D01*
X100035512Y-93249155D01*
X100086075Y-93200941D01*
X100088353Y-93199796D01*
X100102102Y-93193076D01*
X100162321Y-93132856D01*
X100223640Y-93099374D01*
X100293332Y-93104358D01*
X100337680Y-93132859D01*
X100397897Y-93193076D01*
X100397900Y-93193078D01*
X100480962Y-93233684D01*
X100513482Y-93249582D01*
X100588418Y-93260500D01*
X100588423Y-93260500D01*
X100931577Y-93260500D01*
X100931582Y-93260500D01*
X101006518Y-93249582D01*
X101064310Y-93221329D01*
X101122099Y-93193078D01*
X101122102Y-93193076D01*
X101213076Y-93102102D01*
X101213078Y-93102099D01*
X101249890Y-93026799D01*
X101269582Y-92986518D01*
X101280500Y-92911582D01*
X101280500Y-92468418D01*
X101269582Y-92393482D01*
X101267466Y-92389154D01*
X101211591Y-92274858D01*
X101199831Y-92205985D01*
X101227175Y-92141688D01*
X101284939Y-92102381D01*
X101354784Y-92100543D01*
X101410672Y-92132717D01*
G37*
%TD.AperFunction*%
%TA.AperFunction,Conductor*%
G36*
X92815456Y-86611870D02*
G01*
X92885378Y-86636337D01*
X92885377Y-86636337D01*
X92889853Y-86636756D01*
X92915216Y-86639135D01*
X93765726Y-86639134D01*
X93832765Y-86658818D01*
X93853407Y-86675453D01*
X96245681Y-89067727D01*
X96279166Y-89129050D01*
X96282000Y-89155408D01*
X96282000Y-89195299D01*
X96277775Y-89227392D01*
X96260636Y-89291356D01*
X96260636Y-89383643D01*
X96277775Y-89447607D01*
X96282000Y-89479700D01*
X96282000Y-89559082D01*
X96292918Y-89634018D01*
X96292918Y-89634019D01*
X96292919Y-89634021D01*
X96349421Y-89749599D01*
X96349423Y-89749602D01*
X96440397Y-89840576D01*
X96440400Y-89840578D01*
X96551156Y-89894722D01*
X96555982Y-89897082D01*
X96630918Y-89908000D01*
X96630923Y-89908000D01*
X96974077Y-89908000D01*
X96974082Y-89908000D01*
X97049018Y-89897082D01*
X97128337Y-89858305D01*
X97164599Y-89840578D01*
X97164600Y-89840576D01*
X97164602Y-89840576D01*
X97224820Y-89780357D01*
X97286141Y-89746874D01*
X97355833Y-89751858D01*
X97400181Y-89780359D01*
X97435681Y-89815859D01*
X97469166Y-89877182D01*
X97472000Y-89903540D01*
X97472000Y-90001145D01*
X97472798Y-90007209D01*
X97462029Y-90076244D01*
X97450183Y-90096266D01*
X97444451Y-90104155D01*
X97386852Y-90217198D01*
X97372000Y-90310975D01*
X97372000Y-90674017D01*
X97386854Y-90767805D01*
X97389869Y-90777082D01*
X97386347Y-90778226D01*
X97395840Y-90828831D01*
X97369550Y-90893566D01*
X97312435Y-90933811D01*
X97242628Y-90936788D01*
X97209341Y-90923162D01*
X97128693Y-90875467D01*
X97128690Y-90875465D01*
X96982501Y-90832993D01*
X96982500Y-90832994D01*
X96982500Y-92442003D01*
X97128695Y-92399531D01*
X97267874Y-92317221D01*
X97267879Y-92317217D01*
X97360833Y-92224263D01*
X97422156Y-92190778D01*
X97467910Y-92189470D01*
X97521765Y-92198000D01*
X97863234Y-92197999D01*
X97863239Y-92197999D01*
X97863239Y-92197998D01*
X97917087Y-92189470D01*
X97954670Y-92183518D01*
X97954671Y-92183518D01*
X97954672Y-92183517D01*
X97954675Y-92183517D01*
X98064891Y-92127359D01*
X98152359Y-92039891D01*
X98208517Y-91929675D01*
X98208517Y-91929673D01*
X98208518Y-91929672D01*
X98208518Y-91929671D01*
X98220864Y-91851718D01*
X98223000Y-91838235D01*
X98222999Y-91654043D01*
X98242683Y-91587004D01*
X98259313Y-91566367D01*
X98640470Y-91185212D01*
X98686614Y-91105288D01*
X98686613Y-91105288D01*
X98686781Y-91104999D01*
X98737348Y-91056784D01*
X98794168Y-91042999D01*
X98979017Y-91042999D01*
X98979018Y-91042999D01*
X99072804Y-91028146D01*
X99086773Y-91021028D01*
X99155438Y-91008132D01*
X99220179Y-91034407D01*
X99260437Y-91091512D01*
X99263268Y-91157539D01*
X99263380Y-91157557D01*
X99263293Y-91158105D01*
X99263431Y-91161318D01*
X99261981Y-91166388D01*
X99247000Y-91260975D01*
X99247000Y-91624017D01*
X99251756Y-91654044D01*
X99261854Y-91717804D01*
X99319450Y-91830842D01*
X99319452Y-91830844D01*
X99319454Y-91830847D01*
X99409152Y-91920545D01*
X99409156Y-91920548D01*
X99409158Y-91920550D01*
X99439310Y-91935913D01*
X99490105Y-91983886D01*
X99506900Y-92051707D01*
X99484363Y-92117842D01*
X99437475Y-92157797D01*
X99377898Y-92186922D01*
X99286923Y-92277897D01*
X99286921Y-92277900D01*
X99230419Y-92393478D01*
X99230418Y-92393480D01*
X99230418Y-92393482D01*
X99219500Y-92468418D01*
X99219500Y-92468423D01*
X99219500Y-92911582D01*
X99226208Y-92957622D01*
X99216395Y-93026799D01*
X99170740Y-93079689D01*
X99103738Y-93099500D01*
X92774500Y-93099500D01*
X92707461Y-93079815D01*
X92661706Y-93027011D01*
X92650500Y-92975500D01*
X92650500Y-91887500D01*
X95953710Y-91887500D01*
X95955354Y-91908410D01*
X96000468Y-92063695D01*
X96082778Y-92202874D01*
X96082785Y-92202883D01*
X96197116Y-92317214D01*
X96197125Y-92317221D01*
X96336304Y-92399531D01*
X96482500Y-92442004D01*
X96482500Y-91887500D01*
X95953710Y-91887500D01*
X92650500Y-91887500D01*
X92650500Y-91387499D01*
X95953709Y-91387499D01*
X95953710Y-91387500D01*
X96482500Y-91387500D01*
X96482500Y-90832994D01*
X96482498Y-90832993D01*
X96336309Y-90875465D01*
X96336306Y-90875467D01*
X96197125Y-90957778D01*
X96197116Y-90957785D01*
X96082785Y-91072116D01*
X96082778Y-91072125D01*
X96000468Y-91211304D01*
X96000466Y-91211309D01*
X95955355Y-91366581D01*
X95955354Y-91366587D01*
X95953709Y-91387499D01*
X92650500Y-91387499D01*
X92650500Y-86728911D01*
X92670185Y-86661872D01*
X92722989Y-86616117D01*
X92792147Y-86606173D01*
X92815456Y-86611870D01*
G37*
%TD.AperFunction*%
%TA.AperFunction,Conductor*%
G36*
X104568834Y-73896094D02*
G01*
X104624767Y-73937966D01*
X104649184Y-74003430D01*
X104649500Y-74012276D01*
X104649500Y-86293456D01*
X104629815Y-86360495D01*
X104613181Y-86381137D01*
X102323637Y-88670681D01*
X102262314Y-88704166D01*
X102235956Y-88707000D01*
X102040918Y-88707000D01*
X101965982Y-88717918D01*
X101965980Y-88717918D01*
X101965978Y-88717919D01*
X101850400Y-88774421D01*
X101850397Y-88774423D01*
X101784140Y-88840681D01*
X101722817Y-88874166D01*
X101696459Y-88877000D01*
X100503856Y-88877000D01*
X100414712Y-88900886D01*
X100414711Y-88900886D01*
X100414709Y-88900887D01*
X100414706Y-88900888D01*
X100334787Y-88947031D01*
X100334784Y-88947032D01*
X100326133Y-88955684D01*
X100264809Y-88989167D01*
X100238455Y-88992000D01*
X99615982Y-88992000D01*
X99535019Y-89004823D01*
X99522196Y-89006854D01*
X99409158Y-89064450D01*
X99409157Y-89064451D01*
X99409152Y-89064454D01*
X99319454Y-89154152D01*
X99319451Y-89154157D01*
X99319450Y-89154158D01*
X99300251Y-89191837D01*
X99261852Y-89267198D01*
X99247000Y-89360975D01*
X99247000Y-89724017D01*
X99263381Y-89827443D01*
X99261357Y-89827763D01*
X99262990Y-89885016D01*
X99226907Y-89944847D01*
X99164204Y-89975671D01*
X99094790Y-89967703D01*
X99086780Y-89963975D01*
X99072804Y-89956854D01*
X99072803Y-89956853D01*
X99072800Y-89956852D01*
X99072801Y-89956852D01*
X98979024Y-89942000D01*
X98979019Y-89942000D01*
X98379104Y-89942000D01*
X98312065Y-89922315D01*
X98266310Y-89869511D01*
X98256366Y-89800353D01*
X98272697Y-89759632D01*
X98271064Y-89758834D01*
X98314853Y-89669260D01*
X98332082Y-89634018D01*
X98343000Y-89559082D01*
X98343000Y-89115918D01*
X98332082Y-89040982D01*
X98315398Y-89006854D01*
X98275578Y-88925400D01*
X98275576Y-88925397D01*
X98184602Y-88834423D01*
X98184599Y-88834421D01*
X98069021Y-88777919D01*
X98069019Y-88777918D01*
X98069018Y-88777918D01*
X97994082Y-88767000D01*
X97650918Y-88767000D01*
X97575982Y-88777918D01*
X97575980Y-88777918D01*
X97575978Y-88777919D01*
X97460400Y-88834421D01*
X97460397Y-88834423D01*
X97400181Y-88894640D01*
X97338858Y-88928125D01*
X97269166Y-88923141D01*
X97224819Y-88894640D01*
X97164602Y-88834423D01*
X97164599Y-88834421D01*
X97049020Y-88777918D01*
X97049018Y-88777917D01*
X96970587Y-88766490D01*
X96907087Y-88737346D01*
X96900785Y-88731467D01*
X94364059Y-86194741D01*
X94330574Y-86133418D01*
X94327740Y-86107060D01*
X94327740Y-85283607D01*
X97499500Y-85283607D01*
X97499500Y-85292151D01*
X97499500Y-85896397D01*
X97524594Y-86006342D01*
X97524598Y-86006352D01*
X97529818Y-86017192D01*
X97532639Y-86024793D01*
X97532958Y-86024662D01*
X97536065Y-86032164D01*
X97539555Y-86038209D01*
X97543883Y-86046399D01*
X97573532Y-86107967D01*
X97590556Y-86129315D01*
X97600988Y-86144614D01*
X97601607Y-86145687D01*
X97601610Y-86145691D01*
X97601612Y-86145694D01*
X97601614Y-86145696D01*
X97601615Y-86145697D01*
X97606597Y-86150679D01*
X97615863Y-86161047D01*
X97643850Y-86196142D01*
X97643851Y-86196143D01*
X97643852Y-86196144D01*
X97643854Y-86196146D01*
X97678946Y-86224131D01*
X97678951Y-86224135D01*
X97689317Y-86233400D01*
X97694302Y-86238385D01*
X97694304Y-86238386D01*
X97694306Y-86238388D01*
X97695375Y-86239005D01*
X97710686Y-86249443D01*
X97732033Y-86266467D01*
X97732036Y-86266468D01*
X97732037Y-86266469D01*
X97793593Y-86296113D01*
X97801786Y-86300443D01*
X97807826Y-86303930D01*
X97815347Y-86307045D01*
X97815213Y-86307366D01*
X97822814Y-86310185D01*
X97833650Y-86315403D01*
X97943607Y-86340500D01*
X102056393Y-86340500D01*
X102166350Y-86315403D01*
X102177179Y-86310187D01*
X102184793Y-86307365D01*
X102184659Y-86307042D01*
X102192160Y-86303934D01*
X102192167Y-86303933D01*
X102198202Y-86300448D01*
X102206398Y-86296117D01*
X102219029Y-86290034D01*
X102267967Y-86266467D01*
X102289310Y-86249445D01*
X102304629Y-86239003D01*
X102305692Y-86238389D01*
X102305691Y-86238389D01*
X102305694Y-86238388D01*
X102310682Y-86233400D01*
X102321054Y-86224131D01*
X102356146Y-86196146D01*
X102384131Y-86161054D01*
X102393402Y-86150680D01*
X102398386Y-86145696D01*
X102398389Y-86145692D01*
X102399003Y-86144629D01*
X102409445Y-86129310D01*
X102426467Y-86107967D01*
X102455787Y-86047084D01*
X102456117Y-86046398D01*
X102460448Y-86038202D01*
X102463933Y-86032167D01*
X102463934Y-86032160D01*
X102467042Y-86024659D01*
X102467365Y-86024793D01*
X102470187Y-86017179D01*
X102475403Y-86006350D01*
X102500500Y-85896393D01*
X102500500Y-85840000D01*
X102500500Y-85839500D01*
X102500500Y-85339793D01*
X102500500Y-85283607D01*
X102475403Y-85173650D01*
X102470185Y-85162814D01*
X102467366Y-85155213D01*
X102467045Y-85155347D01*
X102463930Y-85147826D01*
X102460443Y-85141786D01*
X102456113Y-85133593D01*
X102426469Y-85072037D01*
X102426468Y-85072036D01*
X102426467Y-85072033D01*
X102409442Y-85050684D01*
X102399005Y-85035375D01*
X102398388Y-85034306D01*
X102398386Y-85034304D01*
X102398385Y-85034302D01*
X102393400Y-85029317D01*
X102384135Y-85018951D01*
X102356146Y-84983854D01*
X102356144Y-84983852D01*
X102356143Y-84983851D01*
X102356142Y-84983850D01*
X102321047Y-84955863D01*
X102310679Y-84946597D01*
X102305697Y-84941615D01*
X102305695Y-84941613D01*
X102305694Y-84941612D01*
X102305691Y-84941610D01*
X102305687Y-84941607D01*
X102304614Y-84940988D01*
X102289315Y-84930556D01*
X102267966Y-84913532D01*
X102267967Y-84913532D01*
X102206399Y-84883883D01*
X102198209Y-84879555D01*
X102192164Y-84876065D01*
X102184662Y-84872958D01*
X102184793Y-84872639D01*
X102177192Y-84869818D01*
X102166352Y-84864598D01*
X102166342Y-84864594D01*
X102056397Y-84839500D01*
X102056393Y-84839500D01*
X102000207Y-84839500D01*
X98000500Y-84839500D01*
X98000000Y-84839500D01*
X97943607Y-84839500D01*
X97943602Y-84839500D01*
X97833649Y-84864596D01*
X97822804Y-84869819D01*
X97815205Y-84872640D01*
X97815337Y-84872958D01*
X97807835Y-84876065D01*
X97801797Y-84879551D01*
X97793614Y-84883875D01*
X97732033Y-84913532D01*
X97732032Y-84913532D01*
X97710684Y-84930557D01*
X97695387Y-84940987D01*
X97695011Y-84941204D01*
X97694303Y-84941613D01*
X97694298Y-84941617D01*
X97689307Y-84946608D01*
X97678955Y-84955859D01*
X97643853Y-84983853D01*
X97615859Y-85018955D01*
X97606608Y-85029307D01*
X97601617Y-85034298D01*
X97601613Y-85034303D01*
X97601204Y-85035011D01*
X97600999Y-85035369D01*
X97600990Y-85035384D01*
X97590557Y-85050684D01*
X97573532Y-85072032D01*
X97573532Y-85072033D01*
X97543875Y-85133614D01*
X97539551Y-85141797D01*
X97536253Y-85147510D01*
X97536067Y-85147833D01*
X97534859Y-85152339D01*
X97524597Y-85173650D01*
X97499500Y-85283607D01*
X94327740Y-85283607D01*
X94327740Y-85226612D01*
X94324943Y-85196776D01*
X94324943Y-85196772D01*
X94280968Y-85071099D01*
X94201905Y-84963971D01*
X94094777Y-84884908D01*
X94094773Y-84884906D01*
X94094772Y-84884906D01*
X93969105Y-84840932D01*
X93939270Y-84838135D01*
X92915219Y-84838135D01*
X92885382Y-84840932D01*
X92885377Y-84840933D01*
X92815454Y-84865400D01*
X92745675Y-84868961D01*
X92685048Y-84834232D01*
X92652821Y-84772238D01*
X92650500Y-84748358D01*
X92650500Y-78771641D01*
X92670185Y-78704602D01*
X92722989Y-78658847D01*
X92792147Y-78648903D01*
X92815454Y-78654599D01*
X92850824Y-78666976D01*
X92885378Y-78679067D01*
X92885377Y-78679067D01*
X92889853Y-78679486D01*
X92915216Y-78681865D01*
X93939265Y-78681864D01*
X93969104Y-78679067D01*
X94094777Y-78635092D01*
X94201905Y-78556029D01*
X94280968Y-78448901D01*
X94305707Y-78378202D01*
X94324943Y-78323230D01*
X94324943Y-78323228D01*
X94327741Y-78293394D01*
X94327741Y-78255865D01*
X94347426Y-78188826D01*
X94400230Y-78143071D01*
X94451741Y-78131865D01*
X95564777Y-78131865D01*
X95564779Y-78131865D01*
X95653923Y-78107979D01*
X95733847Y-78061835D01*
X96172075Y-77623607D01*
X97499500Y-77623607D01*
X97499500Y-77632151D01*
X97499500Y-78236397D01*
X97524594Y-78346342D01*
X97524598Y-78346352D01*
X97529818Y-78357192D01*
X97532639Y-78364793D01*
X97532958Y-78364662D01*
X97536065Y-78372164D01*
X97539555Y-78378209D01*
X97543883Y-78386399D01*
X97573532Y-78447967D01*
X97590556Y-78469315D01*
X97600988Y-78484614D01*
X97601607Y-78485687D01*
X97601610Y-78485691D01*
X97601612Y-78485694D01*
X97601614Y-78485696D01*
X97601615Y-78485697D01*
X97606597Y-78490679D01*
X97615863Y-78501047D01*
X97643850Y-78536142D01*
X97643851Y-78536143D01*
X97643852Y-78536144D01*
X97643854Y-78536146D01*
X97672902Y-78559311D01*
X97678951Y-78564135D01*
X97689317Y-78573400D01*
X97694302Y-78578385D01*
X97694304Y-78578386D01*
X97694306Y-78578388D01*
X97695375Y-78579005D01*
X97710686Y-78589443D01*
X97732033Y-78606467D01*
X97732036Y-78606468D01*
X97732037Y-78606469D01*
X97793593Y-78636113D01*
X97801786Y-78640443D01*
X97807826Y-78643930D01*
X97815347Y-78647045D01*
X97815213Y-78647366D01*
X97822814Y-78650185D01*
X97833650Y-78655403D01*
X97943607Y-78680500D01*
X102056393Y-78680500D01*
X102166350Y-78655403D01*
X102177179Y-78650187D01*
X102184793Y-78647365D01*
X102184659Y-78647042D01*
X102192160Y-78643934D01*
X102192167Y-78643933D01*
X102198202Y-78640448D01*
X102206398Y-78636117D01*
X102219029Y-78630034D01*
X102267967Y-78606467D01*
X102289310Y-78589445D01*
X102304629Y-78579003D01*
X102305692Y-78578389D01*
X102305691Y-78578389D01*
X102305694Y-78578388D01*
X102310682Y-78573400D01*
X102321054Y-78564131D01*
X102334744Y-78553214D01*
X102356146Y-78536146D01*
X102384137Y-78501047D01*
X102393402Y-78490680D01*
X102398386Y-78485696D01*
X102398389Y-78485692D01*
X102399003Y-78484629D01*
X102409445Y-78469310D01*
X102426467Y-78447967D01*
X102454005Y-78390783D01*
X102456117Y-78386398D01*
X102460448Y-78378202D01*
X102463933Y-78372167D01*
X102463934Y-78372160D01*
X102467042Y-78364659D01*
X102467365Y-78364793D01*
X102470187Y-78357179D01*
X102475403Y-78346350D01*
X102500500Y-78236393D01*
X102500500Y-78180000D01*
X102500500Y-78179500D01*
X102500500Y-77679793D01*
X102500500Y-77623607D01*
X102475403Y-77513650D01*
X102470185Y-77502814D01*
X102467366Y-77495213D01*
X102467045Y-77495347D01*
X102463930Y-77487826D01*
X102460443Y-77481786D01*
X102456113Y-77473593D01*
X102426469Y-77412037D01*
X102426468Y-77412036D01*
X102426467Y-77412033D01*
X102409442Y-77390684D01*
X102399005Y-77375375D01*
X102398388Y-77374306D01*
X102398386Y-77374304D01*
X102398385Y-77374302D01*
X102393400Y-77369317D01*
X102384135Y-77358951D01*
X102356146Y-77323854D01*
X102356144Y-77323852D01*
X102356143Y-77323851D01*
X102356142Y-77323850D01*
X102321047Y-77295863D01*
X102310679Y-77286597D01*
X102305697Y-77281615D01*
X102305695Y-77281613D01*
X102305694Y-77281612D01*
X102305691Y-77281610D01*
X102305687Y-77281607D01*
X102304614Y-77280988D01*
X102289315Y-77270556D01*
X102267966Y-77253532D01*
X102267967Y-77253532D01*
X102206399Y-77223883D01*
X102198209Y-77219555D01*
X102192164Y-77216065D01*
X102184662Y-77212958D01*
X102184793Y-77212639D01*
X102177192Y-77209818D01*
X102166352Y-77204598D01*
X102166342Y-77204594D01*
X102056397Y-77179500D01*
X102056393Y-77179500D01*
X102000207Y-77179500D01*
X100000207Y-77179500D01*
X98000500Y-77179500D01*
X98000000Y-77179500D01*
X97943607Y-77179500D01*
X97943602Y-77179500D01*
X97833649Y-77204596D01*
X97822804Y-77209819D01*
X97815205Y-77212640D01*
X97815337Y-77212958D01*
X97807835Y-77216065D01*
X97801797Y-77219551D01*
X97793614Y-77223875D01*
X97732033Y-77253532D01*
X97732032Y-77253532D01*
X97710684Y-77270557D01*
X97695387Y-77280987D01*
X97695011Y-77281204D01*
X97694303Y-77281613D01*
X97694298Y-77281617D01*
X97689307Y-77286608D01*
X97678955Y-77295859D01*
X97643853Y-77323853D01*
X97615859Y-77358955D01*
X97606608Y-77369307D01*
X97601617Y-77374298D01*
X97601613Y-77374303D01*
X97601204Y-77375011D01*
X97600999Y-77375369D01*
X97600990Y-77375384D01*
X97590557Y-77390684D01*
X97573532Y-77412032D01*
X97573532Y-77412033D01*
X97543875Y-77473614D01*
X97539551Y-77481797D01*
X97536253Y-77487510D01*
X97536067Y-77487833D01*
X97534859Y-77492339D01*
X97524597Y-77513650D01*
X97499500Y-77623607D01*
X96172075Y-77623607D01*
X97106363Y-76689319D01*
X97167686Y-76655834D01*
X97194044Y-76653000D01*
X101610374Y-76653000D01*
X101610376Y-76653000D01*
X101699520Y-76629114D01*
X101699808Y-76628948D01*
X101779444Y-76582970D01*
X104437819Y-73924595D01*
X104499142Y-73891110D01*
X104568834Y-73896094D01*
G37*
%TD.AperFunction*%
%TA.AperFunction,Conductor*%
G36*
X101410672Y-73892717D02*
G01*
X101674800Y-74156845D01*
X101708285Y-74218168D01*
X101711119Y-74244525D01*
X101711119Y-74428722D01*
X101725600Y-74520153D01*
X101725600Y-74520154D01*
X101725601Y-74520157D01*
X101725602Y-74520158D01*
X101761526Y-74590663D01*
X101781761Y-74630375D01*
X101781764Y-74630379D01*
X101869222Y-74717837D01*
X101869224Y-74717838D01*
X101869228Y-74717842D01*
X101979444Y-74774000D01*
X101979445Y-74774000D01*
X101979447Y-74774001D01*
X102014566Y-74779562D01*
X102070884Y-74788483D01*
X102283204Y-74788482D01*
X102350243Y-74808166D01*
X102395998Y-74860970D01*
X102405942Y-74930128D01*
X102376917Y-74993684D01*
X102370885Y-75000163D01*
X101455369Y-75915681D01*
X101394046Y-75949166D01*
X101367688Y-75952000D01*
X96951356Y-75952000D01*
X96862212Y-75975886D01*
X96862209Y-75975887D01*
X96782291Y-76022027D01*
X96782286Y-76022031D01*
X95409772Y-77394546D01*
X95348449Y-77428031D01*
X95322091Y-77430865D01*
X94451740Y-77430865D01*
X94384701Y-77411180D01*
X94338946Y-77358376D01*
X94327740Y-77306865D01*
X94327740Y-77269342D01*
X94327491Y-77266687D01*
X94324943Y-77239502D01*
X94280968Y-77113829D01*
X94201905Y-77006701D01*
X94094777Y-76927638D01*
X94094773Y-76927636D01*
X94094772Y-76927636D01*
X93969105Y-76883662D01*
X93939270Y-76880865D01*
X92915219Y-76880865D01*
X92885382Y-76883662D01*
X92885377Y-76883663D01*
X92815454Y-76908130D01*
X92745675Y-76911691D01*
X92685048Y-76876962D01*
X92652821Y-76814968D01*
X92650500Y-76791088D01*
X92650500Y-74395544D01*
X92670185Y-74328505D01*
X92722989Y-74282750D01*
X92792147Y-74272806D01*
X92855703Y-74301831D01*
X92862181Y-74307863D01*
X93484788Y-74930470D01*
X93564712Y-74976614D01*
X93653856Y-75000500D01*
X93653858Y-75000500D01*
X98346142Y-75000500D01*
X98346144Y-75000500D01*
X98435288Y-74976614D01*
X98515212Y-74930470D01*
X98608863Y-74836819D01*
X98670186Y-74803334D01*
X98696544Y-74800500D01*
X99179404Y-74800500D01*
X99246443Y-74820185D01*
X99278115Y-74855770D01*
X99280956Y-74853743D01*
X99286926Y-74862105D01*
X99377897Y-74953076D01*
X99377900Y-74953078D01*
X99488656Y-75007222D01*
X99493482Y-75009582D01*
X99568418Y-75020500D01*
X99568423Y-75020500D01*
X99911577Y-75020500D01*
X99911582Y-75020500D01*
X99986518Y-75009582D01*
X100053959Y-74976612D01*
X100102099Y-74953078D01*
X100102102Y-74953076D01*
X100162319Y-74892860D01*
X100223642Y-74859375D01*
X100293334Y-74864359D01*
X100337681Y-74892860D01*
X100397897Y-74953076D01*
X100397900Y-74953078D01*
X100508656Y-75007222D01*
X100513482Y-75009582D01*
X100588418Y-75020500D01*
X100588423Y-75020500D01*
X100931577Y-75020500D01*
X100931582Y-75020500D01*
X101006518Y-75009582D01*
X101073959Y-74976612D01*
X101122099Y-74953078D01*
X101122102Y-74953076D01*
X101213076Y-74862102D01*
X101213078Y-74862099D01*
X101256146Y-74774001D01*
X101269582Y-74746518D01*
X101280500Y-74671582D01*
X101280500Y-74228418D01*
X101269582Y-74153482D01*
X101267466Y-74149154D01*
X101211591Y-74034858D01*
X101199831Y-73965985D01*
X101227175Y-73901688D01*
X101284939Y-73862381D01*
X101354784Y-73860543D01*
X101410672Y-73892717D01*
G37*
%TD.AperFunction*%
%TA.AperFunction,Conductor*%
G36*
X92815456Y-68371870D02*
G01*
X92885378Y-68396337D01*
X92885377Y-68396337D01*
X92889853Y-68396756D01*
X92915216Y-68399135D01*
X93765726Y-68399134D01*
X93832765Y-68418818D01*
X93853407Y-68435453D01*
X96245681Y-70827727D01*
X96279166Y-70889050D01*
X96282000Y-70915408D01*
X96282000Y-70955299D01*
X96277775Y-70987392D01*
X96260636Y-71051356D01*
X96260636Y-71143643D01*
X96277775Y-71207607D01*
X96282000Y-71239700D01*
X96282000Y-71319082D01*
X96292918Y-71394018D01*
X96292918Y-71394019D01*
X96292919Y-71394021D01*
X96349421Y-71509599D01*
X96349423Y-71509602D01*
X96440397Y-71600576D01*
X96440400Y-71600578D01*
X96551156Y-71654722D01*
X96555982Y-71657082D01*
X96630918Y-71668000D01*
X96630923Y-71668000D01*
X96974077Y-71668000D01*
X96974082Y-71668000D01*
X97049018Y-71657082D01*
X97128337Y-71618305D01*
X97164599Y-71600578D01*
X97164600Y-71600576D01*
X97164602Y-71600576D01*
X97224820Y-71540357D01*
X97286141Y-71506874D01*
X97355833Y-71511858D01*
X97400181Y-71540359D01*
X97435681Y-71575859D01*
X97469166Y-71637182D01*
X97472000Y-71663540D01*
X97472000Y-71761145D01*
X97472798Y-71767209D01*
X97462029Y-71836244D01*
X97450183Y-71856266D01*
X97444451Y-71864155D01*
X97386852Y-71977198D01*
X97372000Y-72070975D01*
X97372000Y-72434017D01*
X97386854Y-72527805D01*
X97389869Y-72537082D01*
X97386347Y-72538226D01*
X97395840Y-72588831D01*
X97369550Y-72653566D01*
X97312435Y-72693811D01*
X97242628Y-72696788D01*
X97209341Y-72683162D01*
X97128693Y-72635467D01*
X97128690Y-72635465D01*
X96982501Y-72592993D01*
X96982500Y-72592994D01*
X96982500Y-73273500D01*
X96962815Y-73340539D01*
X96910011Y-73386294D01*
X96858500Y-73397500D01*
X96732500Y-73397500D01*
X96732500Y-73523500D01*
X96712815Y-73590539D01*
X96660011Y-73636294D01*
X96608500Y-73647500D01*
X95953710Y-73647500D01*
X95955354Y-73668410D01*
X96000468Y-73823695D01*
X96082778Y-73962874D01*
X96082785Y-73962883D01*
X96197122Y-74077220D01*
X96197510Y-74077521D01*
X96197736Y-74077834D01*
X96202638Y-74082736D01*
X96201847Y-74083526D01*
X96238417Y-74134163D01*
X96242207Y-74203930D01*
X96207676Y-74264671D01*
X96145788Y-74297100D01*
X96121510Y-74299500D01*
X93896544Y-74299500D01*
X93829505Y-74279815D01*
X93808863Y-74263181D01*
X92693181Y-73147499D01*
X95953709Y-73147499D01*
X95953710Y-73147500D01*
X96482500Y-73147500D01*
X96482500Y-72592994D01*
X96482498Y-72592993D01*
X96336309Y-72635465D01*
X96336306Y-72635467D01*
X96197125Y-72717778D01*
X96197116Y-72717785D01*
X96082785Y-72832116D01*
X96082778Y-72832125D01*
X96000468Y-72971304D01*
X96000466Y-72971309D01*
X95955355Y-73126581D01*
X95955354Y-73126587D01*
X95953709Y-73147499D01*
X92693181Y-73147499D01*
X92686819Y-73141137D01*
X92653334Y-73079814D01*
X92650500Y-73053456D01*
X92650500Y-68488911D01*
X92670185Y-68421872D01*
X92722989Y-68376117D01*
X92792147Y-68366173D01*
X92815456Y-68371870D01*
G37*
%TD.AperFunction*%
%TA.AperFunction,Conductor*%
G36*
X99220179Y-72794407D02*
G01*
X99260437Y-72851512D01*
X99263268Y-72917539D01*
X99263380Y-72917557D01*
X99263293Y-72918105D01*
X99263431Y-72921318D01*
X99261981Y-72926388D01*
X99247000Y-73020975D01*
X99247000Y-73384017D01*
X99251756Y-73414044D01*
X99261854Y-73477804D01*
X99319450Y-73590842D01*
X99319452Y-73590844D01*
X99319454Y-73590847D01*
X99409152Y-73680545D01*
X99409156Y-73680548D01*
X99409158Y-73680550D01*
X99439310Y-73695913D01*
X99490105Y-73743886D01*
X99506900Y-73811707D01*
X99484363Y-73877842D01*
X99437475Y-73917797D01*
X99377898Y-73946922D01*
X99377897Y-73946923D01*
X99286926Y-74037895D01*
X99280956Y-74046257D01*
X99277908Y-74044081D01*
X99243650Y-74081559D01*
X99179404Y-74099500D01*
X98453854Y-74099500D01*
X98393708Y-74115616D01*
X98393707Y-74115615D01*
X98364716Y-74123384D01*
X98364709Y-74123387D01*
X98284791Y-74169527D01*
X98284786Y-74169531D01*
X98191137Y-74263181D01*
X98129814Y-74296666D01*
X98103456Y-74299500D01*
X97343490Y-74299500D01*
X97276451Y-74279815D01*
X97230696Y-74227011D01*
X97220752Y-74157853D01*
X97249777Y-74094297D01*
X97267490Y-74077521D01*
X97267873Y-74077223D01*
X97360833Y-73984263D01*
X97422156Y-73950778D01*
X97467910Y-73949470D01*
X97521765Y-73958000D01*
X97863234Y-73957999D01*
X97863239Y-73957999D01*
X97863239Y-73957998D01*
X97917087Y-73949470D01*
X97954670Y-73943518D01*
X97954671Y-73943518D01*
X97954672Y-73943517D01*
X97954675Y-73943517D01*
X98064891Y-73887359D01*
X98152359Y-73799891D01*
X98208517Y-73689675D01*
X98208517Y-73689673D01*
X98208518Y-73689672D01*
X98208518Y-73689671D01*
X98216138Y-73641556D01*
X98223000Y-73598235D01*
X98222999Y-73414043D01*
X98242683Y-73347004D01*
X98259313Y-73326367D01*
X98640470Y-72945212D01*
X98686614Y-72865288D01*
X98686613Y-72865288D01*
X98686781Y-72864999D01*
X98737348Y-72816784D01*
X98794168Y-72802999D01*
X98979017Y-72802999D01*
X98979018Y-72802999D01*
X99072804Y-72788146D01*
X99086773Y-72781028D01*
X99155438Y-72768132D01*
X99220179Y-72794407D01*
G37*
%TD.AperFunction*%
%TA.AperFunction,Conductor*%
G36*
X107021042Y-53645765D02*
G01*
X107035399Y-53646705D01*
X107248615Y-53660680D01*
X107258094Y-53661671D01*
X107309679Y-53669088D01*
X107316143Y-53670195D01*
X107512794Y-53709311D01*
X107523485Y-53711938D01*
X107565755Y-53724350D01*
X107570617Y-53725887D01*
X107768997Y-53793228D01*
X107780602Y-53797835D01*
X107803855Y-53808454D01*
X107807182Y-53810034D01*
X108009460Y-53909787D01*
X108023506Y-53917897D01*
X108227460Y-54054174D01*
X108240329Y-54064048D01*
X108424749Y-54225781D01*
X108436218Y-54237250D01*
X108597951Y-54421670D01*
X108607825Y-54434539D01*
X108744102Y-54638493D01*
X108752212Y-54652539D01*
X108851964Y-54854816D01*
X108853544Y-54858143D01*
X108854161Y-54859493D01*
X108864155Y-54881377D01*
X108868780Y-54893027D01*
X108936099Y-55091346D01*
X108937656Y-55096268D01*
X108950054Y-55138490D01*
X108952694Y-55149235D01*
X108991796Y-55345818D01*
X108992917Y-55352362D01*
X109000325Y-55403885D01*
X109001321Y-55413422D01*
X109016234Y-55640941D01*
X109016500Y-55649051D01*
X109016500Y-73955228D01*
X109015771Y-73964515D01*
X109017396Y-73966745D01*
X109028923Y-73967880D01*
X109443655Y-74050334D01*
X109448602Y-74051425D01*
X109540751Y-74073758D01*
X109545132Y-74074906D01*
X109914189Y-74178955D01*
X109919295Y-74180516D01*
X110007989Y-74209767D01*
X110012039Y-74211181D01*
X110373420Y-74344467D01*
X110378640Y-74346529D01*
X110462481Y-74381912D01*
X110466102Y-74383510D01*
X110818378Y-74545878D01*
X110823739Y-74548508D01*
X110901256Y-74588878D01*
X110904553Y-74590658D01*
X111246289Y-74782008D01*
X111251630Y-74785178D01*
X111321576Y-74829121D01*
X111324456Y-74830987D01*
X111371034Y-74862105D01*
X111654318Y-75051361D01*
X111659637Y-75055121D01*
X111720815Y-75100834D01*
X111723299Y-75102741D01*
X112039909Y-75352304D01*
X112045144Y-75356669D01*
X112096298Y-75401762D01*
X112098467Y-75403720D01*
X112400615Y-75682991D01*
X112405672Y-75687941D01*
X112445738Y-75729467D01*
X112447522Y-75731356D01*
X112734085Y-76041326D01*
X112738915Y-76046873D01*
X112766913Y-76081023D01*
X112768360Y-76082824D01*
X113038195Y-76425076D01*
X113042746Y-76431230D01*
X113057727Y-76452853D01*
X113058899Y-76454576D01*
X113310990Y-76831821D01*
X113315182Y-76838550D01*
X113316415Y-76840678D01*
X113317311Y-76842251D01*
X113429477Y-77042521D01*
X113539803Y-77239506D01*
X113548378Y-77254815D01*
X113552795Y-77263483D01*
X113603887Y-77374302D01*
X113751616Y-77694726D01*
X113755343Y-77703722D01*
X113919714Y-78149235D01*
X113922723Y-78158495D01*
X114051630Y-78615532D01*
X114053903Y-78625000D01*
X114146551Y-79090740D01*
X114148074Y-79100357D01*
X114203892Y-79571926D01*
X114204656Y-79581634D01*
X114223300Y-80056132D01*
X114223300Y-80065868D01*
X114204656Y-80540365D01*
X114203892Y-80550073D01*
X114148074Y-81021642D01*
X114146551Y-81031259D01*
X114053903Y-81496999D01*
X114051630Y-81506467D01*
X113922723Y-81963504D01*
X113919714Y-81972764D01*
X113755343Y-82418277D01*
X113751616Y-82427273D01*
X113552799Y-82858508D01*
X113548378Y-82867184D01*
X113317311Y-83279747D01*
X113316415Y-83281320D01*
X113315182Y-83283448D01*
X113310990Y-83290177D01*
X113058899Y-83667422D01*
X113057727Y-83669145D01*
X113042746Y-83690768D01*
X113038195Y-83696922D01*
X112768360Y-84039174D01*
X112766878Y-84041018D01*
X112738927Y-84075112D01*
X112734085Y-84080672D01*
X112447522Y-84390642D01*
X112445707Y-84392564D01*
X112405686Y-84434044D01*
X112400615Y-84439007D01*
X112098467Y-84718278D01*
X112096298Y-84720236D01*
X112045144Y-84765329D01*
X112039909Y-84769694D01*
X111723299Y-85019257D01*
X111720760Y-85021206D01*
X111659657Y-85066863D01*
X111654318Y-85070637D01*
X111324474Y-85290999D01*
X111321555Y-85292890D01*
X111251651Y-85336807D01*
X111246267Y-85340003D01*
X110904561Y-85531335D01*
X110901256Y-85533120D01*
X110823739Y-85573490D01*
X110818368Y-85576125D01*
X110466125Y-85738477D01*
X110462434Y-85740106D01*
X110378697Y-85775446D01*
X110373391Y-85777542D01*
X110012040Y-85910816D01*
X110007969Y-85912238D01*
X109919336Y-85941469D01*
X109914147Y-85943055D01*
X109545161Y-86047084D01*
X109540720Y-86048248D01*
X109448647Y-86070563D01*
X109443620Y-86071672D01*
X109028923Y-86154120D01*
X109017394Y-86155254D01*
X109015771Y-86157488D01*
X109016500Y-86166770D01*
X109016500Y-113833228D01*
X109015771Y-113842515D01*
X109017396Y-113844745D01*
X109028923Y-113845880D01*
X109443655Y-113928334D01*
X109448602Y-113929425D01*
X109540751Y-113951758D01*
X109545132Y-113952906D01*
X109914189Y-114056955D01*
X109919295Y-114058516D01*
X110007989Y-114087767D01*
X110012039Y-114089181D01*
X110373420Y-114222467D01*
X110378640Y-114224529D01*
X110462481Y-114259912D01*
X110466102Y-114261510D01*
X110818378Y-114423878D01*
X110823739Y-114426508D01*
X110901256Y-114466878D01*
X110904553Y-114468658D01*
X111246275Y-114660000D01*
X111251630Y-114663178D01*
X111321576Y-114707121D01*
X111324456Y-114708987D01*
X111500116Y-114826342D01*
X111654318Y-114929361D01*
X111659637Y-114933121D01*
X111720815Y-114978834D01*
X111723295Y-114980738D01*
X111893744Y-115115092D01*
X112039909Y-115230304D01*
X112045144Y-115234669D01*
X112096298Y-115279762D01*
X112098467Y-115281720D01*
X112400615Y-115560991D01*
X112405672Y-115565941D01*
X112445738Y-115607467D01*
X112447522Y-115609356D01*
X112734085Y-115919326D01*
X112738915Y-115924873D01*
X112766913Y-115959023D01*
X112768360Y-115960824D01*
X113038195Y-116303076D01*
X113042746Y-116309230D01*
X113057727Y-116330853D01*
X113058899Y-116332576D01*
X113310990Y-116709821D01*
X113315182Y-116716550D01*
X113316415Y-116718678D01*
X113317311Y-116720251D01*
X113429477Y-116920521D01*
X113522727Y-117087017D01*
X113548378Y-117132815D01*
X113552795Y-117141483D01*
X113608350Y-117261982D01*
X113751616Y-117572726D01*
X113755343Y-117581722D01*
X113919714Y-118027235D01*
X113922723Y-118036495D01*
X114051630Y-118493532D01*
X114053903Y-118503000D01*
X114146551Y-118968740D01*
X114148074Y-118978357D01*
X114203892Y-119449926D01*
X114204656Y-119459634D01*
X114223300Y-119934132D01*
X114223300Y-119943868D01*
X114204656Y-120418365D01*
X114203892Y-120428073D01*
X114148074Y-120899642D01*
X114146551Y-120909259D01*
X114053903Y-121374999D01*
X114051630Y-121384467D01*
X113922723Y-121841504D01*
X113919714Y-121850764D01*
X113755343Y-122296277D01*
X113751616Y-122305273D01*
X113552799Y-122736508D01*
X113548378Y-122745184D01*
X113317311Y-123157747D01*
X113316415Y-123159320D01*
X113315182Y-123161448D01*
X113310990Y-123168177D01*
X113058899Y-123545422D01*
X113057727Y-123547145D01*
X113042746Y-123568768D01*
X113038195Y-123574922D01*
X112768360Y-123917174D01*
X112766878Y-123919018D01*
X112738927Y-123953112D01*
X112734085Y-123958672D01*
X112447522Y-124268642D01*
X112445707Y-124270564D01*
X112405686Y-124312044D01*
X112400615Y-124317007D01*
X112098467Y-124596278D01*
X112096298Y-124598236D01*
X112045144Y-124643329D01*
X112039909Y-124647694D01*
X111723299Y-124897257D01*
X111720760Y-124899206D01*
X111659657Y-124944863D01*
X111654318Y-124948637D01*
X111324474Y-125168999D01*
X111321555Y-125170890D01*
X111251651Y-125214807D01*
X111246267Y-125218003D01*
X110904561Y-125409335D01*
X110901256Y-125411120D01*
X110823739Y-125451490D01*
X110818368Y-125454125D01*
X110466125Y-125616477D01*
X110462434Y-125618106D01*
X110378697Y-125653446D01*
X110373391Y-125655542D01*
X110012040Y-125788816D01*
X110007969Y-125790238D01*
X109919336Y-125819469D01*
X109914147Y-125821055D01*
X109545161Y-125925084D01*
X109540720Y-125926248D01*
X109448647Y-125948563D01*
X109443620Y-125949672D01*
X109028923Y-126032120D01*
X109017394Y-126033254D01*
X109015771Y-126035488D01*
X109016500Y-126044770D01*
X109016500Y-144350948D01*
X109016234Y-144359058D01*
X109001321Y-144586576D01*
X109000325Y-144596113D01*
X108992917Y-144647636D01*
X108991796Y-144654180D01*
X108952694Y-144850763D01*
X108950054Y-144861508D01*
X108937656Y-144903730D01*
X108936099Y-144908652D01*
X108868780Y-145106971D01*
X108864152Y-145118630D01*
X108853544Y-145141855D01*
X108851964Y-145145182D01*
X108752212Y-145347460D01*
X108744102Y-145361506D01*
X108607825Y-145565460D01*
X108597951Y-145578329D01*
X108436218Y-145762749D01*
X108424749Y-145774218D01*
X108240329Y-145935951D01*
X108227460Y-145945825D01*
X108023506Y-146082102D01*
X108009460Y-146090212D01*
X107807182Y-146189964D01*
X107803855Y-146191544D01*
X107780630Y-146202152D01*
X107768971Y-146206780D01*
X107570652Y-146274099D01*
X107565730Y-146275656D01*
X107523508Y-146288054D01*
X107512763Y-146290694D01*
X107316180Y-146329796D01*
X107309636Y-146330917D01*
X107258113Y-146338325D01*
X107248576Y-146339321D01*
X107021058Y-146354234D01*
X107012948Y-146354500D01*
X92987052Y-146354500D01*
X92978942Y-146354234D01*
X92751422Y-146339321D01*
X92741885Y-146338325D01*
X92690362Y-146330917D01*
X92683818Y-146329796D01*
X92487235Y-146290694D01*
X92476490Y-146288054D01*
X92434268Y-146275656D01*
X92429346Y-146274099D01*
X92289997Y-146226797D01*
X92231023Y-146206778D01*
X92219377Y-146202155D01*
X92210679Y-146198183D01*
X92196143Y-146191544D01*
X92192816Y-146189964D01*
X91990539Y-146090212D01*
X91976493Y-146082102D01*
X91772539Y-145945825D01*
X91759670Y-145935951D01*
X91575250Y-145774218D01*
X91563781Y-145762749D01*
X91402048Y-145578329D01*
X91392174Y-145565460D01*
X91255897Y-145361506D01*
X91247787Y-145347460D01*
X91148034Y-145145182D01*
X91146454Y-145141855D01*
X91135835Y-145118602D01*
X91131228Y-145106997D01*
X91063887Y-144908617D01*
X91062350Y-144903755D01*
X91049938Y-144861485D01*
X91047311Y-144850794D01*
X91008195Y-144654143D01*
X91007088Y-144647679D01*
X90999671Y-144596094D01*
X90998680Y-144586615D01*
X90983765Y-144359042D01*
X90983500Y-144350933D01*
X90983500Y-126044771D01*
X90984228Y-126035486D01*
X90982606Y-126033254D01*
X90971077Y-126032120D01*
X90556378Y-125949672D01*
X90551351Y-125948563D01*
X90459278Y-125926248D01*
X90454837Y-125925084D01*
X90085851Y-125821055D01*
X90080662Y-125819469D01*
X89992029Y-125790238D01*
X89987958Y-125788816D01*
X89626607Y-125655542D01*
X89621315Y-125653451D01*
X89569874Y-125631742D01*
X89537564Y-125618106D01*
X89533873Y-125616477D01*
X89181630Y-125454125D01*
X89176259Y-125451490D01*
X89098742Y-125411120D01*
X89095437Y-125409335D01*
X88753731Y-125218003D01*
X88748347Y-125214807D01*
X88678443Y-125170890D01*
X88675524Y-125168999D01*
X88345680Y-124948637D01*
X88340341Y-124944863D01*
X88279207Y-124899182D01*
X88276699Y-124897257D01*
X87960089Y-124647694D01*
X87954854Y-124643329D01*
X87903700Y-124598236D01*
X87901531Y-124596278D01*
X87599383Y-124317007D01*
X87594326Y-124312057D01*
X87554255Y-124270526D01*
X87552476Y-124268642D01*
X87265913Y-123958672D01*
X87261088Y-123953131D01*
X87233066Y-123918952D01*
X87231638Y-123917174D01*
X86961803Y-123574922D01*
X86957252Y-123568768D01*
X86942271Y-123547145D01*
X86941099Y-123545422D01*
X86761928Y-123277300D01*
X86689003Y-123168170D01*
X86684816Y-123161448D01*
X86683583Y-123159320D01*
X86682687Y-123157747D01*
X86673796Y-123141872D01*
X86451612Y-122745166D01*
X86447209Y-122736526D01*
X86248383Y-122305273D01*
X86244656Y-122296277D01*
X86080281Y-121850753D01*
X86077276Y-121841504D01*
X86071211Y-121820000D01*
X85948365Y-121384450D01*
X85946100Y-121375016D01*
X85853445Y-120909242D01*
X85851927Y-120899660D01*
X85796105Y-120428056D01*
X85795344Y-120418381D01*
X85776699Y-119943860D01*
X85776699Y-119934132D01*
X85781500Y-119811943D01*
X85781519Y-119811465D01*
X86822595Y-119811465D01*
X86822595Y-120066534D01*
X86840809Y-120181531D01*
X86862494Y-120318446D01*
X86941311Y-120561020D01*
X87057105Y-120788278D01*
X87207024Y-120994623D01*
X87387377Y-121174976D01*
X87593722Y-121324895D01*
X87820980Y-121440689D01*
X88063554Y-121519506D01*
X88193342Y-121540062D01*
X88315466Y-121559405D01*
X88315471Y-121559405D01*
X88570534Y-121559405D01*
X88681862Y-121541771D01*
X88822446Y-121519506D01*
X89065020Y-121440689D01*
X89292278Y-121324895D01*
X89498623Y-121174976D01*
X89678976Y-120994623D01*
X89828895Y-120788278D01*
X89944689Y-120561020D01*
X90023506Y-120318446D01*
X90045771Y-120177862D01*
X90063405Y-120066534D01*
X90063405Y-119811465D01*
X90042245Y-119677870D01*
X90023506Y-119559554D01*
X89944689Y-119316980D01*
X89828895Y-119089722D01*
X89678976Y-118883377D01*
X89498623Y-118703024D01*
X89292278Y-118553105D01*
X89065020Y-118437311D01*
X88822446Y-118358494D01*
X88570534Y-118318595D01*
X88570529Y-118318595D01*
X88315471Y-118318595D01*
X88315466Y-118318595D01*
X88063553Y-118358494D01*
X87820977Y-118437312D01*
X87593721Y-118553105D01*
X87475994Y-118638639D01*
X87387377Y-118703024D01*
X87387375Y-118703026D01*
X87387374Y-118703026D01*
X87207026Y-118883374D01*
X87207026Y-118883375D01*
X87207024Y-118883377D01*
X87204188Y-118887281D01*
X87057105Y-119089721D01*
X86941312Y-119316977D01*
X86862494Y-119559553D01*
X86822595Y-119811465D01*
X85781519Y-119811465D01*
X85795344Y-119459614D01*
X85796105Y-119449945D01*
X85851928Y-118978335D01*
X85853444Y-118968761D01*
X85946101Y-118502977D01*
X85948363Y-118493554D01*
X86077281Y-118036477D01*
X86080278Y-118027253D01*
X86244659Y-117581713D01*
X86248383Y-117572726D01*
X86269223Y-117527525D01*
X86447214Y-117141463D01*
X86451606Y-117132843D01*
X86682773Y-116720099D01*
X86683507Y-116718810D01*
X86684833Y-116716521D01*
X86688985Y-116709857D01*
X86941132Y-116332526D01*
X86942221Y-116330926D01*
X86957278Y-116309193D01*
X86961779Y-116303107D01*
X87231729Y-115960710D01*
X87232985Y-115959147D01*
X87261116Y-115924834D01*
X87265885Y-115919357D01*
X87552554Y-115609272D01*
X87554167Y-115607565D01*
X87594360Y-115565906D01*
X87599351Y-115561021D01*
X87901605Y-115281652D01*
X87903628Y-115279826D01*
X87954888Y-115234640D01*
X87960053Y-115230333D01*
X88276780Y-114980678D01*
X88279109Y-114978890D01*
X88340397Y-114933095D01*
X88345649Y-114929382D01*
X88675608Y-114708944D01*
X88678357Y-114707163D01*
X88748403Y-114663157D01*
X88753674Y-114660028D01*
X89095501Y-114468628D01*
X89098677Y-114466913D01*
X89176301Y-114426487D01*
X89181588Y-114423893D01*
X89533943Y-114261489D01*
X89537472Y-114259932D01*
X89621389Y-114224517D01*
X89626549Y-114222478D01*
X89987997Y-114089168D01*
X89991974Y-114087778D01*
X90080729Y-114058508D01*
X90085784Y-114056963D01*
X90454894Y-113952898D01*
X90459222Y-113951764D01*
X90551417Y-113929420D01*
X90556323Y-113928338D01*
X90971077Y-113845880D01*
X90982602Y-113844745D01*
X90983570Y-113843416D01*
X90983572Y-113843416D01*
X90983571Y-113843414D01*
X90984228Y-113842515D01*
X90983500Y-113833229D01*
X90983500Y-86166771D01*
X90984228Y-86157486D01*
X90982606Y-86155254D01*
X90971077Y-86154120D01*
X90556378Y-86071672D01*
X90551351Y-86070563D01*
X90459278Y-86048248D01*
X90454837Y-86047084D01*
X90085851Y-85943055D01*
X90080662Y-85941469D01*
X89992029Y-85912238D01*
X89987958Y-85910816D01*
X89626607Y-85777542D01*
X89621315Y-85775451D01*
X89569874Y-85753742D01*
X89537564Y-85740106D01*
X89533873Y-85738477D01*
X89181630Y-85576125D01*
X89176259Y-85573490D01*
X89098742Y-85533120D01*
X89095437Y-85531335D01*
X88753731Y-85340003D01*
X88748347Y-85336807D01*
X88678443Y-85292890D01*
X88675524Y-85290999D01*
X88345680Y-85070637D01*
X88340341Y-85066863D01*
X88318689Y-85050684D01*
X88279207Y-85021182D01*
X88276699Y-85019257D01*
X87960089Y-84769694D01*
X87954854Y-84765329D01*
X87903700Y-84720236D01*
X87901531Y-84718278D01*
X87599383Y-84439007D01*
X87594326Y-84434057D01*
X87554255Y-84392526D01*
X87552476Y-84390642D01*
X87265913Y-84080672D01*
X87261088Y-84075131D01*
X87233066Y-84040952D01*
X87231638Y-84039174D01*
X86961803Y-83696922D01*
X86957252Y-83690768D01*
X86942271Y-83669145D01*
X86941099Y-83667422D01*
X86689008Y-83290177D01*
X86684816Y-83283448D01*
X86683583Y-83281320D01*
X86682687Y-83279747D01*
X86451612Y-82867166D01*
X86447209Y-82858526D01*
X86248383Y-82427273D01*
X86244656Y-82418277D01*
X86080281Y-81972753D01*
X86077276Y-81963504D01*
X85948365Y-81506450D01*
X85946100Y-81497016D01*
X85853445Y-81031242D01*
X85851927Y-81021660D01*
X85796105Y-80550056D01*
X85795344Y-80540381D01*
X85776699Y-80065860D01*
X85776699Y-80056132D01*
X85781500Y-79933943D01*
X85781519Y-79933465D01*
X86822595Y-79933465D01*
X86822595Y-80188534D01*
X86840809Y-80303531D01*
X86862494Y-80440446D01*
X86941311Y-80683020D01*
X87057105Y-80910278D01*
X87207024Y-81116623D01*
X87387377Y-81296976D01*
X87593722Y-81446895D01*
X87820980Y-81562689D01*
X88063554Y-81641506D01*
X88193342Y-81662062D01*
X88315466Y-81681405D01*
X88315471Y-81681405D01*
X88570534Y-81681405D01*
X88681862Y-81663771D01*
X88822446Y-81641506D01*
X89065020Y-81562689D01*
X89292278Y-81446895D01*
X89498623Y-81296976D01*
X89678976Y-81116623D01*
X89828895Y-80910278D01*
X89944689Y-80683020D01*
X90023506Y-80440446D01*
X90045771Y-80299862D01*
X90063405Y-80188534D01*
X90063405Y-79933465D01*
X90042245Y-79799870D01*
X90023506Y-79681554D01*
X89944689Y-79438980D01*
X89828895Y-79211722D01*
X89678976Y-79005377D01*
X89498623Y-78825024D01*
X89292278Y-78675105D01*
X89065020Y-78559311D01*
X88822446Y-78480494D01*
X88570534Y-78440595D01*
X88570529Y-78440595D01*
X88315471Y-78440595D01*
X88315466Y-78440595D01*
X88063553Y-78480494D01*
X87820977Y-78559312D01*
X87593721Y-78675105D01*
X87485703Y-78753586D01*
X87387377Y-78825024D01*
X87387375Y-78825026D01*
X87387374Y-78825026D01*
X87207026Y-79005374D01*
X87207026Y-79005375D01*
X87207024Y-79005377D01*
X87204188Y-79009281D01*
X87057105Y-79211721D01*
X86941312Y-79438977D01*
X86862494Y-79681553D01*
X86822595Y-79933465D01*
X85781519Y-79933465D01*
X85795344Y-79581614D01*
X85796105Y-79571945D01*
X85851928Y-79100335D01*
X85853444Y-79090761D01*
X85946101Y-78624977D01*
X85948363Y-78615554D01*
X86077281Y-78158477D01*
X86080278Y-78149253D01*
X86244659Y-77703713D01*
X86248383Y-77694726D01*
X86254942Y-77680500D01*
X86447214Y-77263463D01*
X86451606Y-77254843D01*
X86682773Y-76842099D01*
X86683507Y-76840810D01*
X86684833Y-76838521D01*
X86688985Y-76831857D01*
X86941132Y-76454526D01*
X86942221Y-76452926D01*
X86957278Y-76431193D01*
X86961779Y-76425107D01*
X87231729Y-76082710D01*
X87232985Y-76081147D01*
X87261116Y-76046834D01*
X87265885Y-76041357D01*
X87552554Y-75731272D01*
X87554167Y-75729565D01*
X87594360Y-75687906D01*
X87599351Y-75683021D01*
X87901605Y-75403652D01*
X87903628Y-75401826D01*
X87954888Y-75356640D01*
X87960053Y-75352333D01*
X88276780Y-75102678D01*
X88279109Y-75100890D01*
X88340397Y-75055095D01*
X88345649Y-75051382D01*
X88675608Y-74830944D01*
X88678357Y-74829163D01*
X88748403Y-74785157D01*
X88753674Y-74782028D01*
X89095501Y-74590628D01*
X89098677Y-74588913D01*
X89176301Y-74548487D01*
X89181588Y-74545893D01*
X89533943Y-74383489D01*
X89537472Y-74381932D01*
X89621389Y-74346517D01*
X89626549Y-74344478D01*
X89987997Y-74211168D01*
X89991974Y-74209778D01*
X90080729Y-74180508D01*
X90085784Y-74178963D01*
X90454894Y-74074898D01*
X90459222Y-74073764D01*
X90551417Y-74051420D01*
X90556323Y-74050338D01*
X90971077Y-73967880D01*
X90982602Y-73966745D01*
X90983570Y-73965416D01*
X90983572Y-73965416D01*
X90983571Y-73965414D01*
X90984228Y-73964515D01*
X90983500Y-73955229D01*
X90983500Y-58303856D01*
X91949500Y-58303856D01*
X91949500Y-73203856D01*
X91949500Y-93453856D01*
X91949500Y-111803856D01*
X91949500Y-127446144D01*
X91970093Y-127523000D01*
X91973082Y-127534153D01*
X91973386Y-127535289D01*
X91973387Y-127535291D01*
X92019525Y-127615205D01*
X92019529Y-127615210D01*
X92019530Y-127615212D01*
X94534788Y-130130470D01*
X94614712Y-130176614D01*
X94703856Y-130200500D01*
X94703858Y-130200500D01*
X98796142Y-130200500D01*
X98796144Y-130200500D01*
X98885288Y-130176614D01*
X98965212Y-130130470D01*
X99345323Y-129750357D01*
X99406644Y-129716874D01*
X99476335Y-129721858D01*
X99487465Y-129726640D01*
X99493482Y-129729582D01*
X99568418Y-129740500D01*
X99568423Y-129740500D01*
X99911577Y-129740500D01*
X99911582Y-129740500D01*
X99986518Y-129729582D01*
X100072076Y-129687755D01*
X100102099Y-129673078D01*
X100102102Y-129673076D01*
X100162319Y-129612860D01*
X100223642Y-129579375D01*
X100293334Y-129584359D01*
X100337681Y-129612860D01*
X100397897Y-129673076D01*
X100397900Y-129673078D01*
X100494215Y-129720163D01*
X100513482Y-129729582D01*
X100588418Y-129740500D01*
X100588423Y-129740500D01*
X100931577Y-129740500D01*
X100931582Y-129740500D01*
X101006518Y-129729582D01*
X101092076Y-129687755D01*
X101122099Y-129673078D01*
X101122102Y-129673076D01*
X101213076Y-129582102D01*
X101213078Y-129582099D01*
X101256146Y-129494001D01*
X101269582Y-129466518D01*
X101280500Y-129391582D01*
X101280500Y-128948418D01*
X101269582Y-128873482D01*
X101260894Y-128855710D01*
X101211591Y-128754858D01*
X101199831Y-128685985D01*
X101227175Y-128621688D01*
X101284939Y-128582381D01*
X101354784Y-128580543D01*
X101410672Y-128612717D01*
X101674800Y-128876845D01*
X101708285Y-128938168D01*
X101711119Y-128964525D01*
X101711119Y-129148722D01*
X101725600Y-129240153D01*
X101725600Y-129240154D01*
X101725601Y-129240157D01*
X101725602Y-129240158D01*
X101760149Y-129307961D01*
X101781761Y-129350375D01*
X101781764Y-129350379D01*
X101869222Y-129437837D01*
X101869224Y-129437838D01*
X101869228Y-129437842D01*
X101979444Y-129494000D01*
X101979445Y-129494000D01*
X101979447Y-129494001D01*
X102014169Y-129499500D01*
X102070884Y-129508483D01*
X102283204Y-129508482D01*
X102350243Y-129528166D01*
X102395998Y-129580970D01*
X102405942Y-129650128D01*
X102376917Y-129713684D01*
X102370885Y-129720163D01*
X101455369Y-130635681D01*
X101394046Y-130669166D01*
X101367688Y-130672000D01*
X96951356Y-130672000D01*
X96862212Y-130695886D01*
X96862209Y-130695887D01*
X96782291Y-130742027D01*
X96782286Y-130742031D01*
X95409772Y-132114546D01*
X95348449Y-132148031D01*
X95322091Y-132150865D01*
X94451740Y-132150865D01*
X94384701Y-132131180D01*
X94338946Y-132078376D01*
X94327740Y-132026865D01*
X94327740Y-131989342D01*
X94324943Y-131959506D01*
X94324943Y-131959502D01*
X94280968Y-131833829D01*
X94201905Y-131726701D01*
X94094777Y-131647638D01*
X94094773Y-131647636D01*
X94094772Y-131647636D01*
X93969105Y-131603662D01*
X93939270Y-131600865D01*
X92915219Y-131600865D01*
X92885382Y-131603662D01*
X92885372Y-131603664D01*
X92759709Y-131647636D01*
X92759707Y-131647637D01*
X92759706Y-131647637D01*
X92759705Y-131647638D01*
X92652577Y-131726701D01*
X92573513Y-131833831D01*
X92573512Y-131833833D01*
X92529538Y-131959499D01*
X92529538Y-131959501D01*
X92526741Y-131989335D01*
X92526741Y-133013386D01*
X92529538Y-133043223D01*
X92529540Y-133043233D01*
X92573186Y-133167964D01*
X92573514Y-133168901D01*
X92652577Y-133276029D01*
X92759705Y-133355092D01*
X92784974Y-133363934D01*
X92885376Y-133399067D01*
X92893161Y-133399796D01*
X92915216Y-133401865D01*
X93939265Y-133401864D01*
X93969104Y-133399067D01*
X94094777Y-133355092D01*
X94201905Y-133276029D01*
X94280968Y-133168901D01*
X94305707Y-133098202D01*
X94324943Y-133043230D01*
X94324943Y-133043228D01*
X94327741Y-133013394D01*
X94327741Y-132975865D01*
X94347426Y-132908826D01*
X94400230Y-132863071D01*
X94451741Y-132851865D01*
X95564777Y-132851865D01*
X95564779Y-132851865D01*
X95653923Y-132827979D01*
X95733847Y-132781835D01*
X96172075Y-132343607D01*
X97499500Y-132343607D01*
X97499500Y-132352151D01*
X97499500Y-132956397D01*
X97524594Y-133066342D01*
X97524598Y-133066352D01*
X97529818Y-133077192D01*
X97532639Y-133084793D01*
X97532958Y-133084662D01*
X97536065Y-133092164D01*
X97539555Y-133098209D01*
X97543883Y-133106399D01*
X97573532Y-133167967D01*
X97590556Y-133189315D01*
X97600988Y-133204614D01*
X97601607Y-133205687D01*
X97601610Y-133205691D01*
X97601612Y-133205694D01*
X97601614Y-133205696D01*
X97601615Y-133205697D01*
X97606597Y-133210679D01*
X97615863Y-133221047D01*
X97643850Y-133256142D01*
X97643851Y-133256143D01*
X97643852Y-133256144D01*
X97643854Y-133256146D01*
X97678946Y-133284131D01*
X97678951Y-133284135D01*
X97689317Y-133293400D01*
X97694302Y-133298385D01*
X97694304Y-133298386D01*
X97694306Y-133298388D01*
X97695375Y-133299005D01*
X97710686Y-133309443D01*
X97732033Y-133326467D01*
X97732036Y-133326468D01*
X97732037Y-133326469D01*
X97793593Y-133356113D01*
X97801786Y-133360443D01*
X97807826Y-133363930D01*
X97815347Y-133367045D01*
X97815213Y-133367366D01*
X97822814Y-133370185D01*
X97833650Y-133375403D01*
X97943607Y-133400500D01*
X102056393Y-133400500D01*
X102166350Y-133375403D01*
X102177179Y-133370187D01*
X102184793Y-133367365D01*
X102184659Y-133367042D01*
X102192160Y-133363934D01*
X102192167Y-133363933D01*
X102198202Y-133360448D01*
X102206398Y-133356117D01*
X102219029Y-133350034D01*
X102267967Y-133326467D01*
X102289310Y-133309445D01*
X102304629Y-133299003D01*
X102305692Y-133298389D01*
X102305691Y-133298389D01*
X102305694Y-133298388D01*
X102310682Y-133293400D01*
X102321054Y-133284131D01*
X102356146Y-133256146D01*
X102384131Y-133221054D01*
X102393402Y-133210680D01*
X102398386Y-133205696D01*
X102398389Y-133205692D01*
X102399003Y-133204629D01*
X102409445Y-133189310D01*
X102426467Y-133167967D01*
X102454005Y-133110783D01*
X102456117Y-133106398D01*
X102460448Y-133098202D01*
X102463933Y-133092167D01*
X102463934Y-133092160D01*
X102467042Y-133084659D01*
X102467365Y-133084793D01*
X102470187Y-133077179D01*
X102475403Y-133066350D01*
X102486885Y-133016042D01*
X105422759Y-133016042D01*
X105429087Y-133085687D01*
X105479024Y-133245941D01*
X105565854Y-133389577D01*
X105565857Y-133389581D01*
X105684542Y-133508266D01*
X105684546Y-133508269D01*
X105828182Y-133595099D01*
X105988436Y-133645036D01*
X106058082Y-133651365D01*
X106322759Y-133651365D01*
X106822759Y-133651365D01*
X107087436Y-133651365D01*
X107157081Y-133645036D01*
X107317335Y-133595099D01*
X107460971Y-133508269D01*
X107460975Y-133508266D01*
X107579660Y-133389581D01*
X107579663Y-133389577D01*
X107666493Y-133245941D01*
X107716430Y-133085687D01*
X107722759Y-133016042D01*
X107722759Y-132751365D01*
X106822759Y-132751365D01*
X106822759Y-133651365D01*
X106322759Y-133651365D01*
X106322759Y-132751365D01*
X105422759Y-132751365D01*
X105422759Y-133016042D01*
X102486885Y-133016042D01*
X102500500Y-132956393D01*
X102500500Y-132900000D01*
X102500500Y-132899500D01*
X102500500Y-132461583D01*
X106372759Y-132461583D01*
X106372759Y-132541147D01*
X106403207Y-132614656D01*
X106459468Y-132670917D01*
X106532977Y-132701365D01*
X106612541Y-132701365D01*
X106686050Y-132670917D01*
X106742311Y-132614656D01*
X106772759Y-132541147D01*
X106772759Y-132461583D01*
X106742311Y-132388074D01*
X106686050Y-132331813D01*
X106612541Y-132301365D01*
X106532977Y-132301365D01*
X106459468Y-132331813D01*
X106403207Y-132388074D01*
X106372759Y-132461583D01*
X102500500Y-132461583D01*
X102500500Y-132399793D01*
X102500500Y-132343607D01*
X102475403Y-132233650D01*
X102465139Y-132212338D01*
X102463933Y-132207833D01*
X102458129Y-132197780D01*
X102426467Y-132132033D01*
X102403653Y-132103425D01*
X102398388Y-132094306D01*
X102388475Y-132084393D01*
X102356146Y-132043854D01*
X102316919Y-132012571D01*
X102313073Y-132008927D01*
X102312842Y-132008530D01*
X102310679Y-132006597D01*
X102305697Y-132001615D01*
X102305695Y-132001613D01*
X102305694Y-132001612D01*
X102305691Y-132001610D01*
X102305687Y-132001607D01*
X102304614Y-132000988D01*
X102289315Y-131990556D01*
X102284463Y-131986687D01*
X105422759Y-131986687D01*
X105422759Y-132251365D01*
X106322759Y-132251365D01*
X106822759Y-132251365D01*
X107722759Y-132251365D01*
X107722759Y-131986687D01*
X107716430Y-131917042D01*
X107666493Y-131756788D01*
X107579663Y-131613152D01*
X107579660Y-131613148D01*
X107460975Y-131494463D01*
X107460971Y-131494460D01*
X107317335Y-131407630D01*
X107157081Y-131357693D01*
X107087436Y-131351365D01*
X106822759Y-131351365D01*
X106822759Y-132251365D01*
X106322759Y-132251365D01*
X106322759Y-131351365D01*
X106058082Y-131351365D01*
X105988436Y-131357693D01*
X105828182Y-131407630D01*
X105684546Y-131494460D01*
X105684542Y-131494463D01*
X105565857Y-131613148D01*
X105565854Y-131613152D01*
X105479024Y-131756788D01*
X105429087Y-131917042D01*
X105422759Y-131986687D01*
X102284463Y-131986687D01*
X102267966Y-131973532D01*
X102267967Y-131973532D01*
X102206399Y-131943883D01*
X102198209Y-131939555D01*
X102192164Y-131936065D01*
X102184662Y-131932958D01*
X102184793Y-131932639D01*
X102177192Y-131929818D01*
X102166352Y-131924598D01*
X102166342Y-131924594D01*
X102056397Y-131899500D01*
X102056393Y-131899500D01*
X102000207Y-131899500D01*
X100000207Y-131899500D01*
X98000500Y-131899500D01*
X98000000Y-131899500D01*
X97943607Y-131899500D01*
X97943602Y-131899500D01*
X97833649Y-131924596D01*
X97822804Y-131929819D01*
X97815205Y-131932640D01*
X97815337Y-131932958D01*
X97807835Y-131936065D01*
X97801797Y-131939551D01*
X97793614Y-131943875D01*
X97732033Y-131973532D01*
X97732032Y-131973532D01*
X97710684Y-131990557D01*
X97695387Y-132000987D01*
X97695011Y-132001204D01*
X97694303Y-132001613D01*
X97694298Y-132001617D01*
X97689307Y-132006608D01*
X97678955Y-132015859D01*
X97643853Y-132043853D01*
X97615859Y-132078955D01*
X97606608Y-132089307D01*
X97601617Y-132094298D01*
X97601613Y-132094303D01*
X97600990Y-132095384D01*
X97590557Y-132110684D01*
X97573532Y-132132032D01*
X97573532Y-132132033D01*
X97543875Y-132193614D01*
X97539551Y-132201797D01*
X97536253Y-132207510D01*
X97536067Y-132207833D01*
X97534859Y-132212339D01*
X97524597Y-132233650D01*
X97499500Y-132343607D01*
X96172075Y-132343607D01*
X97106363Y-131409319D01*
X97167686Y-131375834D01*
X97194044Y-131373000D01*
X101610374Y-131373000D01*
X101610376Y-131373000D01*
X101699520Y-131349114D01*
X101779444Y-131302970D01*
X106853229Y-126229185D01*
X106899373Y-126149261D01*
X106923259Y-126060117D01*
X106923259Y-125967829D01*
X106923259Y-123243134D01*
X106942944Y-123176095D01*
X106995748Y-123130340D01*
X107047259Y-123119134D01*
X107084781Y-123119134D01*
X107084783Y-123119134D01*
X107114622Y-123116337D01*
X107240295Y-123072362D01*
X107347423Y-122993299D01*
X107426486Y-122886171D01*
X107460071Y-122790191D01*
X107470461Y-122760500D01*
X107470461Y-122760498D01*
X107470461Y-122760493D01*
X107473259Y-122730660D01*
X107473258Y-121706611D01*
X107470461Y-121676772D01*
X107426486Y-121551099D01*
X107347423Y-121443971D01*
X107240295Y-121364908D01*
X107240291Y-121364906D01*
X107240290Y-121364906D01*
X107114623Y-121320932D01*
X107084788Y-121318135D01*
X106060737Y-121318135D01*
X106030900Y-121320932D01*
X106030890Y-121320934D01*
X105905227Y-121364906D01*
X105905225Y-121364907D01*
X105905224Y-121364907D01*
X105905223Y-121364908D01*
X105798095Y-121443971D01*
X105742349Y-121519506D01*
X105719031Y-121551101D01*
X105719030Y-121551103D01*
X105675056Y-121676769D01*
X105675056Y-121676771D01*
X105672259Y-121706605D01*
X105672259Y-122730656D01*
X105675056Y-122760493D01*
X105675058Y-122760503D01*
X105719030Y-122886166D01*
X105719032Y-122886171D01*
X105798095Y-122993299D01*
X105905223Y-123072362D01*
X105950906Y-123088347D01*
X106030894Y-123116337D01*
X106044674Y-123117629D01*
X106060734Y-123119135D01*
X106098258Y-123119134D01*
X106165296Y-123138817D01*
X106211052Y-123191620D01*
X106222259Y-123243134D01*
X106222259Y-125817428D01*
X106202574Y-125884467D01*
X106185940Y-125905109D01*
X103043799Y-129047249D01*
X102982476Y-129080734D01*
X102912784Y-129075750D01*
X102856851Y-129033878D01*
X102832434Y-128968414D01*
X102832118Y-128959568D01*
X102832118Y-128807245D01*
X102824302Y-128757897D01*
X102823589Y-128753396D01*
X102832543Y-128684104D01*
X102858381Y-128646317D01*
X102951336Y-128553362D01*
X102951340Y-128553357D01*
X103033650Y-128414178D01*
X103076123Y-128267983D01*
X102395619Y-128267983D01*
X102328580Y-128248298D01*
X102282825Y-128195494D01*
X102271619Y-128143983D01*
X102271619Y-128017983D01*
X102145619Y-128017983D01*
X102078580Y-127998298D01*
X102032825Y-127945494D01*
X102021619Y-127893983D01*
X102021619Y-127604887D01*
X102015334Y-127593377D01*
X102012500Y-127567019D01*
X102012500Y-126977500D01*
X102514520Y-126977500D01*
X102521531Y-127163801D01*
X102521619Y-127168464D01*
X102521619Y-127767983D01*
X103076123Y-127767983D01*
X103033650Y-127621787D01*
X102951340Y-127482608D01*
X102951337Y-127482604D01*
X102926061Y-127457329D01*
X102892575Y-127396006D01*
X102897559Y-127326314D01*
X102926061Y-127281963D01*
X102953235Y-127254789D01*
X102953238Y-127254785D01*
X103034904Y-127116694D01*
X103075344Y-126977500D01*
X102514520Y-126977500D01*
X102012500Y-126977500D01*
X101449656Y-126977500D01*
X101490095Y-127116694D01*
X101571761Y-127254785D01*
X101571768Y-127254794D01*
X101608057Y-127291082D01*
X101641543Y-127352404D01*
X101636559Y-127422096D01*
X101608060Y-127466443D01*
X101591905Y-127482597D01*
X101591895Y-127482610D01*
X101543210Y-127564932D01*
X101492141Y-127612615D01*
X101423399Y-127625118D01*
X101374481Y-127609198D01*
X101351424Y-127595886D01*
X101262280Y-127572000D01*
X101262279Y-127572000D01*
X101239755Y-127572000D01*
X101172716Y-127552315D01*
X101152074Y-127535681D01*
X101060847Y-127444454D01*
X101060844Y-127444452D01*
X101060842Y-127444450D01*
X100961776Y-127393973D01*
X100947801Y-127386852D01*
X100854024Y-127372000D01*
X99615982Y-127372000D01*
X99522196Y-127386854D01*
X99508224Y-127393973D01*
X99439555Y-127406867D01*
X99374815Y-127380588D01*
X99334560Y-127323481D01*
X99331732Y-127257460D01*
X99331620Y-127257443D01*
X99331707Y-127256889D01*
X99331570Y-127253675D01*
X99333019Y-127248605D01*
X99345712Y-127168464D01*
X99348000Y-127154019D01*
X99347999Y-126790982D01*
X99333146Y-126697196D01*
X99333145Y-126697194D01*
X99331619Y-126687557D01*
X99333642Y-126687236D01*
X99332006Y-126629994D01*
X99368084Y-126570160D01*
X99430784Y-126539330D01*
X99500198Y-126547292D01*
X99508208Y-126551019D01*
X99522196Y-126558146D01*
X99522198Y-126558146D01*
X99522200Y-126558147D01*
X99522198Y-126558147D01*
X99615975Y-126572999D01*
X99615981Y-126573000D01*
X100854018Y-126572999D01*
X100947804Y-126558146D01*
X101060842Y-126500550D01*
X101150550Y-126410842D01*
X101208146Y-126297804D01*
X101208146Y-126297802D01*
X101208147Y-126297801D01*
X101223000Y-126204024D01*
X101223000Y-126182000D01*
X101242685Y-126114961D01*
X101295489Y-126069206D01*
X101347000Y-126058000D01*
X101438472Y-126058000D01*
X101505511Y-126077685D01*
X101551266Y-126130489D01*
X101561210Y-126199647D01*
X101545204Y-126245121D01*
X101490095Y-126338305D01*
X101449656Y-126477500D01*
X103075344Y-126477500D01*
X103034904Y-126338305D01*
X102953238Y-126200214D01*
X102953231Y-126200205D01*
X102846912Y-126093886D01*
X102813427Y-126032563D01*
X102818411Y-125962871D01*
X102821739Y-125955128D01*
X102822080Y-125954024D01*
X102822080Y-125954021D01*
X102822082Y-125954018D01*
X102833000Y-125879082D01*
X102833000Y-125684044D01*
X102852685Y-125617005D01*
X102869319Y-125596363D01*
X103675419Y-124790263D01*
X104630470Y-123835212D01*
X104676614Y-123755288D01*
X104700500Y-123666144D01*
X104700500Y-123573856D01*
X104700500Y-119811465D01*
X109936595Y-119811465D01*
X109936595Y-120066534D01*
X109954809Y-120181531D01*
X109976494Y-120318446D01*
X110055311Y-120561020D01*
X110171105Y-120788278D01*
X110321024Y-120994623D01*
X110501377Y-121174976D01*
X110707722Y-121324895D01*
X110934980Y-121440689D01*
X111177554Y-121519506D01*
X111307342Y-121540062D01*
X111429466Y-121559405D01*
X111429471Y-121559405D01*
X111684534Y-121559405D01*
X111795862Y-121541771D01*
X111936446Y-121519506D01*
X112179020Y-121440689D01*
X112406278Y-121324895D01*
X112612623Y-121174976D01*
X112792976Y-120994623D01*
X112942895Y-120788278D01*
X113058689Y-120561020D01*
X113137506Y-120318446D01*
X113159771Y-120177862D01*
X113177405Y-120066534D01*
X113177405Y-119811465D01*
X113156245Y-119677870D01*
X113137506Y-119559554D01*
X113058689Y-119316980D01*
X112942895Y-119089722D01*
X112792976Y-118883377D01*
X112612623Y-118703024D01*
X112406278Y-118553105D01*
X112179020Y-118437311D01*
X111936446Y-118358494D01*
X111684534Y-118318595D01*
X111684529Y-118318595D01*
X111429471Y-118318595D01*
X111429466Y-118318595D01*
X111177553Y-118358494D01*
X110934977Y-118437312D01*
X110707721Y-118553105D01*
X110589994Y-118638639D01*
X110501377Y-118703024D01*
X110501375Y-118703026D01*
X110501374Y-118703026D01*
X110321026Y-118883374D01*
X110321026Y-118883375D01*
X110321024Y-118883377D01*
X110318188Y-118887281D01*
X110171105Y-119089721D01*
X110055312Y-119316977D01*
X109976494Y-119559553D01*
X109936595Y-119811465D01*
X104700500Y-119811465D01*
X104700500Y-119646544D01*
X104720185Y-119579505D01*
X104736819Y-119558863D01*
X106108863Y-118186819D01*
X106170186Y-118153334D01*
X106196544Y-118150500D01*
X106272472Y-118150500D01*
X106272475Y-118150500D01*
X106412485Y-118112984D01*
X106538015Y-118040509D01*
X106640509Y-117938015D01*
X106712984Y-117812485D01*
X106750500Y-117672475D01*
X106750500Y-117527525D01*
X106712984Y-117387515D01*
X106640509Y-117261985D01*
X106538015Y-117159491D01*
X106538013Y-117159490D01*
X106538011Y-117159488D01*
X106412488Y-117087017D01*
X106412489Y-117087017D01*
X106401006Y-117083940D01*
X106272475Y-117049500D01*
X106127525Y-117049500D01*
X105998993Y-117083940D01*
X105987511Y-117087017D01*
X105861988Y-117159488D01*
X105861982Y-117159493D01*
X105759493Y-117261982D01*
X105759488Y-117261988D01*
X105687017Y-117387511D01*
X105687016Y-117387515D01*
X105649500Y-117527525D01*
X105649500Y-117527527D01*
X105649500Y-117603456D01*
X105629815Y-117670495D01*
X105613181Y-117691137D01*
X104069531Y-119234786D01*
X104069527Y-119234791D01*
X104023387Y-119314709D01*
X104023386Y-119314712D01*
X103999500Y-119403856D01*
X103999500Y-123423456D01*
X103979815Y-123490495D01*
X103963181Y-123511137D01*
X102323637Y-125150681D01*
X102262314Y-125184166D01*
X102235956Y-125187000D01*
X102040918Y-125187000D01*
X101965982Y-125197918D01*
X101965980Y-125197918D01*
X101965978Y-125197919D01*
X101850400Y-125254421D01*
X101850397Y-125254423D01*
X101784140Y-125320681D01*
X101722817Y-125354166D01*
X101696459Y-125357000D01*
X100503856Y-125357000D01*
X100414712Y-125380886D01*
X100414711Y-125380886D01*
X100414709Y-125380887D01*
X100414706Y-125380888D01*
X100334787Y-125427031D01*
X100334784Y-125427032D01*
X100326133Y-125435684D01*
X100264809Y-125469167D01*
X100238455Y-125472000D01*
X99615982Y-125472000D01*
X99535019Y-125484823D01*
X99522196Y-125486854D01*
X99409158Y-125544450D01*
X99409157Y-125544451D01*
X99409152Y-125544454D01*
X99319454Y-125634152D01*
X99319451Y-125634157D01*
X99319450Y-125634158D01*
X99316058Y-125640815D01*
X99261852Y-125747198D01*
X99247000Y-125840975D01*
X99247000Y-126204017D01*
X99263381Y-126307443D01*
X99261357Y-126307763D01*
X99262990Y-126365016D01*
X99226907Y-126424847D01*
X99164204Y-126455671D01*
X99094790Y-126447703D01*
X99086780Y-126443975D01*
X99072804Y-126436854D01*
X99072803Y-126436853D01*
X99072800Y-126436852D01*
X99072801Y-126436852D01*
X98979024Y-126422000D01*
X98979019Y-126422000D01*
X98379104Y-126422000D01*
X98312065Y-126402315D01*
X98266310Y-126349511D01*
X98256366Y-126280353D01*
X98272697Y-126239632D01*
X98271064Y-126238834D01*
X98314853Y-126149260D01*
X98332082Y-126114018D01*
X98343000Y-126039082D01*
X98343000Y-125595918D01*
X98332082Y-125520982D01*
X98315398Y-125486854D01*
X98275578Y-125405400D01*
X98275576Y-125405397D01*
X98184602Y-125314423D01*
X98184599Y-125314421D01*
X98069021Y-125257919D01*
X98069019Y-125257918D01*
X98069018Y-125257918D01*
X97994082Y-125247000D01*
X97650918Y-125247000D01*
X97575982Y-125257918D01*
X97575980Y-125257918D01*
X97575978Y-125257919D01*
X97460400Y-125314421D01*
X97460397Y-125314423D01*
X97400181Y-125374640D01*
X97338858Y-125408125D01*
X97269166Y-125403141D01*
X97224819Y-125374640D01*
X97164602Y-125314423D01*
X97164599Y-125314421D01*
X97049020Y-125257918D01*
X97049018Y-125257917D01*
X96970587Y-125246490D01*
X96907087Y-125217346D01*
X96900785Y-125211467D01*
X94364059Y-122674741D01*
X94330574Y-122613418D01*
X94327740Y-122587060D01*
X94327740Y-121763607D01*
X97499500Y-121763607D01*
X97499500Y-121772151D01*
X97499500Y-122376397D01*
X97524594Y-122486342D01*
X97524598Y-122486352D01*
X97529818Y-122497192D01*
X97532639Y-122504793D01*
X97532958Y-122504662D01*
X97536065Y-122512164D01*
X97539555Y-122518209D01*
X97543883Y-122526399D01*
X97573532Y-122587967D01*
X97590556Y-122609315D01*
X97600988Y-122624614D01*
X97601607Y-122625687D01*
X97601610Y-122625691D01*
X97601612Y-122625694D01*
X97601614Y-122625696D01*
X97601615Y-122625697D01*
X97606597Y-122630679D01*
X97615863Y-122641047D01*
X97643850Y-122676142D01*
X97643851Y-122676143D01*
X97643852Y-122676144D01*
X97643854Y-122676146D01*
X97678946Y-122704131D01*
X97678951Y-122704135D01*
X97689317Y-122713400D01*
X97694302Y-122718385D01*
X97694304Y-122718386D01*
X97694306Y-122718388D01*
X97695375Y-122719005D01*
X97710686Y-122729443D01*
X97732033Y-122746467D01*
X97732036Y-122746468D01*
X97732037Y-122746469D01*
X97793593Y-122776113D01*
X97801786Y-122780443D01*
X97807826Y-122783930D01*
X97815347Y-122787045D01*
X97815213Y-122787366D01*
X97822814Y-122790185D01*
X97833650Y-122795403D01*
X97943607Y-122820500D01*
X102056393Y-122820500D01*
X102166350Y-122795403D01*
X102177179Y-122790187D01*
X102184793Y-122787365D01*
X102184659Y-122787042D01*
X102192160Y-122783934D01*
X102192167Y-122783933D01*
X102198202Y-122780448D01*
X102206398Y-122776117D01*
X102219029Y-122770034D01*
X102267967Y-122746467D01*
X102289310Y-122729445D01*
X102304629Y-122719003D01*
X102305692Y-122718389D01*
X102305691Y-122718389D01*
X102305694Y-122718388D01*
X102310682Y-122713400D01*
X102321054Y-122704131D01*
X102356146Y-122676146D01*
X102384131Y-122641054D01*
X102393402Y-122630680D01*
X102398386Y-122625696D01*
X102398389Y-122625692D01*
X102399003Y-122624629D01*
X102409445Y-122609310D01*
X102426467Y-122587967D01*
X102454005Y-122530783D01*
X102456117Y-122526398D01*
X102460448Y-122518202D01*
X102463933Y-122512167D01*
X102463934Y-122512160D01*
X102467042Y-122504659D01*
X102467365Y-122504793D01*
X102470187Y-122497179D01*
X102475403Y-122486350D01*
X102500500Y-122376393D01*
X102500500Y-122320000D01*
X102500500Y-122319500D01*
X102500500Y-121819793D01*
X102500500Y-121763607D01*
X102475403Y-121653650D01*
X102470185Y-121642814D01*
X102467366Y-121635213D01*
X102467045Y-121635347D01*
X102463930Y-121627826D01*
X102460443Y-121621786D01*
X102456113Y-121613593D01*
X102426469Y-121552037D01*
X102426468Y-121552036D01*
X102426467Y-121552033D01*
X102409442Y-121530684D01*
X102399005Y-121515375D01*
X102398388Y-121514306D01*
X102398386Y-121514304D01*
X102398385Y-121514302D01*
X102393400Y-121509317D01*
X102384135Y-121498951D01*
X102356146Y-121463854D01*
X102356144Y-121463852D01*
X102356143Y-121463851D01*
X102356142Y-121463850D01*
X102321047Y-121435863D01*
X102310679Y-121426597D01*
X102305697Y-121421615D01*
X102305695Y-121421613D01*
X102305694Y-121421612D01*
X102305691Y-121421610D01*
X102305687Y-121421607D01*
X102304614Y-121420988D01*
X102289315Y-121410556D01*
X102267966Y-121393532D01*
X102267967Y-121393532D01*
X102206399Y-121363883D01*
X102198209Y-121359555D01*
X102192164Y-121356065D01*
X102184662Y-121352958D01*
X102184793Y-121352639D01*
X102177192Y-121349818D01*
X102166352Y-121344598D01*
X102166342Y-121344594D01*
X102056397Y-121319500D01*
X102056393Y-121319500D01*
X102000207Y-121319500D01*
X98000500Y-121319500D01*
X98000000Y-121319500D01*
X97943607Y-121319500D01*
X97943602Y-121319500D01*
X97833649Y-121344596D01*
X97822804Y-121349819D01*
X97815205Y-121352640D01*
X97815337Y-121352958D01*
X97807835Y-121356065D01*
X97801797Y-121359551D01*
X97793614Y-121363875D01*
X97732033Y-121393532D01*
X97732032Y-121393532D01*
X97710684Y-121410557D01*
X97695387Y-121420987D01*
X97695011Y-121421204D01*
X97694303Y-121421613D01*
X97694298Y-121421617D01*
X97689307Y-121426608D01*
X97678955Y-121435859D01*
X97643853Y-121463853D01*
X97615859Y-121498955D01*
X97606608Y-121509307D01*
X97601617Y-121514298D01*
X97601613Y-121514303D01*
X97601204Y-121515011D01*
X97600999Y-121515369D01*
X97600990Y-121515384D01*
X97590557Y-121530684D01*
X97573532Y-121552032D01*
X97573532Y-121552033D01*
X97543875Y-121613614D01*
X97539551Y-121621797D01*
X97536253Y-121627510D01*
X97536067Y-121627833D01*
X97534859Y-121632339D01*
X97524597Y-121653650D01*
X97499500Y-121763607D01*
X94327740Y-121763607D01*
X94327740Y-121706612D01*
X94324943Y-121676776D01*
X94324943Y-121676772D01*
X94280968Y-121551099D01*
X94201905Y-121443971D01*
X94094777Y-121364908D01*
X94094773Y-121364906D01*
X94094772Y-121364906D01*
X93969105Y-121320932D01*
X93939270Y-121318135D01*
X92915219Y-121318135D01*
X92885382Y-121320932D01*
X92885377Y-121320933D01*
X92815454Y-121345400D01*
X92745675Y-121348961D01*
X92685048Y-121314232D01*
X92652821Y-121252238D01*
X92650500Y-121228358D01*
X92650500Y-115251641D01*
X92670185Y-115184602D01*
X92722989Y-115138847D01*
X92792147Y-115128903D01*
X92815454Y-115134599D01*
X92827593Y-115138847D01*
X92885378Y-115159067D01*
X92885377Y-115159067D01*
X92889853Y-115159486D01*
X92915216Y-115161865D01*
X93939265Y-115161864D01*
X93969104Y-115159067D01*
X94094777Y-115115092D01*
X94201905Y-115036029D01*
X94280968Y-114928901D01*
X94305707Y-114858202D01*
X94324943Y-114803230D01*
X94324943Y-114803228D01*
X94327741Y-114773394D01*
X94327741Y-114735865D01*
X94347426Y-114668826D01*
X94400230Y-114623071D01*
X94451741Y-114611865D01*
X95564777Y-114611865D01*
X95564779Y-114611865D01*
X95653923Y-114587979D01*
X95733847Y-114541835D01*
X96172075Y-114103607D01*
X97499500Y-114103607D01*
X97499500Y-114112151D01*
X97499500Y-114716397D01*
X97524594Y-114826342D01*
X97524598Y-114826352D01*
X97529818Y-114837192D01*
X97532639Y-114844793D01*
X97532958Y-114844662D01*
X97536065Y-114852164D01*
X97539555Y-114858209D01*
X97543883Y-114866399D01*
X97573532Y-114927967D01*
X97590556Y-114949315D01*
X97600988Y-114964614D01*
X97601607Y-114965687D01*
X97601610Y-114965691D01*
X97601612Y-114965694D01*
X97601614Y-114965696D01*
X97601615Y-114965697D01*
X97606597Y-114970679D01*
X97615863Y-114981047D01*
X97643850Y-115016142D01*
X97643851Y-115016143D01*
X97643852Y-115016144D01*
X97643854Y-115016146D01*
X97678946Y-115044131D01*
X97678951Y-115044135D01*
X97689317Y-115053400D01*
X97694302Y-115058385D01*
X97694304Y-115058386D01*
X97694306Y-115058388D01*
X97695375Y-115059005D01*
X97710686Y-115069443D01*
X97732033Y-115086467D01*
X97732036Y-115086468D01*
X97732037Y-115086469D01*
X97793593Y-115116113D01*
X97801786Y-115120443D01*
X97807826Y-115123930D01*
X97815347Y-115127045D01*
X97815213Y-115127366D01*
X97822814Y-115130185D01*
X97833650Y-115135403D01*
X97943607Y-115160500D01*
X102056393Y-115160500D01*
X102166350Y-115135403D01*
X102177179Y-115130187D01*
X102184793Y-115127365D01*
X102184659Y-115127042D01*
X102192160Y-115123934D01*
X102192167Y-115123933D01*
X102198202Y-115120448D01*
X102206398Y-115116117D01*
X102219029Y-115110034D01*
X102267967Y-115086467D01*
X102289310Y-115069445D01*
X102304629Y-115059003D01*
X102305692Y-115058389D01*
X102305691Y-115058389D01*
X102305694Y-115058388D01*
X102310682Y-115053400D01*
X102321054Y-115044131D01*
X102334744Y-115033214D01*
X102356146Y-115016146D01*
X102384137Y-114981047D01*
X102393402Y-114970680D01*
X102398386Y-114965696D01*
X102398389Y-114965692D01*
X102399003Y-114964629D01*
X102409445Y-114949310D01*
X102426467Y-114927967D01*
X102454005Y-114870783D01*
X102456117Y-114866398D01*
X102460448Y-114858202D01*
X102463933Y-114852167D01*
X102463934Y-114852160D01*
X102467042Y-114844659D01*
X102467365Y-114844793D01*
X102470187Y-114837179D01*
X102475403Y-114826350D01*
X102486885Y-114776042D01*
X105422759Y-114776042D01*
X105429087Y-114845687D01*
X105479024Y-115005941D01*
X105565854Y-115149577D01*
X105565857Y-115149581D01*
X105684542Y-115268266D01*
X105684546Y-115268269D01*
X105828182Y-115355099D01*
X105988436Y-115405036D01*
X106058082Y-115411365D01*
X106322759Y-115411365D01*
X106822759Y-115411365D01*
X107087436Y-115411365D01*
X107157081Y-115405036D01*
X107317335Y-115355099D01*
X107460971Y-115268269D01*
X107460975Y-115268266D01*
X107579660Y-115149581D01*
X107579663Y-115149577D01*
X107666493Y-115005941D01*
X107716430Y-114845687D01*
X107722759Y-114776042D01*
X107722759Y-114511365D01*
X106822759Y-114511365D01*
X106822759Y-115411365D01*
X106322759Y-115411365D01*
X106322759Y-114511365D01*
X105422759Y-114511365D01*
X105422759Y-114776042D01*
X102486885Y-114776042D01*
X102500500Y-114716393D01*
X102500500Y-114660000D01*
X102500500Y-114659500D01*
X102500500Y-114221583D01*
X106372759Y-114221583D01*
X106372759Y-114301147D01*
X106403207Y-114374656D01*
X106459468Y-114430917D01*
X106532977Y-114461365D01*
X106612541Y-114461365D01*
X106686050Y-114430917D01*
X106742311Y-114374656D01*
X106772759Y-114301147D01*
X106772759Y-114221583D01*
X106742311Y-114148074D01*
X106686050Y-114091813D01*
X106612541Y-114061365D01*
X106532977Y-114061365D01*
X106459468Y-114091813D01*
X106403207Y-114148074D01*
X106372759Y-114221583D01*
X102500500Y-114221583D01*
X102500500Y-114159793D01*
X102500500Y-114103607D01*
X102475403Y-113993650D01*
X102465139Y-113972338D01*
X102463933Y-113967833D01*
X102458129Y-113957780D01*
X102426467Y-113892033D01*
X102403653Y-113863425D01*
X102398388Y-113854306D01*
X102388475Y-113844393D01*
X102356146Y-113803854D01*
X102316919Y-113772571D01*
X102313073Y-113768927D01*
X102312842Y-113768530D01*
X102310679Y-113766597D01*
X102305697Y-113761615D01*
X102305695Y-113761613D01*
X102305694Y-113761612D01*
X102305691Y-113761610D01*
X102305687Y-113761607D01*
X102304614Y-113760988D01*
X102289315Y-113750556D01*
X102284463Y-113746687D01*
X105422759Y-113746687D01*
X105422759Y-114011365D01*
X106322759Y-114011365D01*
X106822759Y-114011365D01*
X107722759Y-114011365D01*
X107722759Y-113746687D01*
X107716430Y-113677042D01*
X107666493Y-113516788D01*
X107579663Y-113373152D01*
X107579660Y-113373148D01*
X107460975Y-113254463D01*
X107460971Y-113254460D01*
X107317335Y-113167630D01*
X107157081Y-113117693D01*
X107087436Y-113111365D01*
X106822759Y-113111365D01*
X106822759Y-114011365D01*
X106322759Y-114011365D01*
X106322759Y-113111365D01*
X106058082Y-113111365D01*
X105988436Y-113117693D01*
X105828182Y-113167630D01*
X105684546Y-113254460D01*
X105684542Y-113254463D01*
X105565857Y-113373148D01*
X105565854Y-113373152D01*
X105479024Y-113516788D01*
X105429087Y-113677042D01*
X105422759Y-113746687D01*
X102284463Y-113746687D01*
X102267966Y-113733532D01*
X102267967Y-113733532D01*
X102206399Y-113703883D01*
X102198209Y-113699555D01*
X102192164Y-113696065D01*
X102184662Y-113692958D01*
X102184793Y-113692639D01*
X102177192Y-113689818D01*
X102166352Y-113684598D01*
X102166342Y-113684594D01*
X102056397Y-113659500D01*
X102056393Y-113659500D01*
X102000207Y-113659500D01*
X100000207Y-113659500D01*
X98000500Y-113659500D01*
X98000000Y-113659500D01*
X97943607Y-113659500D01*
X97943602Y-113659500D01*
X97833649Y-113684596D01*
X97822804Y-113689819D01*
X97815205Y-113692640D01*
X97815337Y-113692958D01*
X97807835Y-113696065D01*
X97801797Y-113699551D01*
X97793614Y-113703875D01*
X97732033Y-113733532D01*
X97732032Y-113733532D01*
X97710684Y-113750557D01*
X97695387Y-113760987D01*
X97695011Y-113761204D01*
X97694303Y-113761613D01*
X97694298Y-113761617D01*
X97689307Y-113766608D01*
X97678955Y-113775859D01*
X97643853Y-113803853D01*
X97615859Y-113838955D01*
X97606608Y-113849307D01*
X97601617Y-113854298D01*
X97601613Y-113854303D01*
X97600990Y-113855384D01*
X97590557Y-113870684D01*
X97573532Y-113892032D01*
X97573532Y-113892033D01*
X97543875Y-113953614D01*
X97539551Y-113961797D01*
X97536253Y-113967510D01*
X97536067Y-113967833D01*
X97534859Y-113972339D01*
X97524597Y-113993650D01*
X97499500Y-114103607D01*
X96172075Y-114103607D01*
X97106363Y-113169319D01*
X97167686Y-113135834D01*
X97194044Y-113133000D01*
X101610374Y-113133000D01*
X101610376Y-113133000D01*
X101699520Y-113109114D01*
X101779444Y-113062970D01*
X106853229Y-107989185D01*
X106899373Y-107909261D01*
X106923259Y-107820117D01*
X106923259Y-107727829D01*
X106923259Y-105003134D01*
X106942944Y-104936095D01*
X106995748Y-104890340D01*
X107047259Y-104879134D01*
X107084781Y-104879134D01*
X107084783Y-104879134D01*
X107114622Y-104876337D01*
X107240295Y-104832362D01*
X107347423Y-104753299D01*
X107426486Y-104646171D01*
X107460071Y-104550191D01*
X107470461Y-104520500D01*
X107470461Y-104520498D01*
X107470461Y-104520493D01*
X107473259Y-104490660D01*
X107473258Y-103466611D01*
X107470461Y-103436772D01*
X107426486Y-103311099D01*
X107347423Y-103203971D01*
X107240295Y-103124908D01*
X107240291Y-103124906D01*
X107240290Y-103124906D01*
X107114623Y-103080932D01*
X107084788Y-103078135D01*
X106060737Y-103078135D01*
X106030900Y-103080932D01*
X106030890Y-103080934D01*
X105905227Y-103124906D01*
X105905225Y-103124907D01*
X105905224Y-103124907D01*
X105905223Y-103124908D01*
X105798095Y-103203971D01*
X105746189Y-103274303D01*
X105719031Y-103311101D01*
X105719030Y-103311103D01*
X105675056Y-103436769D01*
X105675056Y-103436771D01*
X105672259Y-103466605D01*
X105672259Y-104490656D01*
X105675056Y-104520493D01*
X105675058Y-104520503D01*
X105719030Y-104646166D01*
X105719032Y-104646171D01*
X105798095Y-104753299D01*
X105905223Y-104832362D01*
X105950906Y-104848347D01*
X106030894Y-104876337D01*
X106044674Y-104877629D01*
X106060734Y-104879135D01*
X106098258Y-104879134D01*
X106165296Y-104898817D01*
X106211052Y-104951620D01*
X106222259Y-105003134D01*
X106222259Y-107577428D01*
X106202574Y-107644467D01*
X106185940Y-107665109D01*
X103043799Y-110807249D01*
X102982476Y-110840734D01*
X102912784Y-110835750D01*
X102856851Y-110793878D01*
X102832434Y-110728414D01*
X102832118Y-110719568D01*
X102832118Y-110567245D01*
X102824302Y-110517897D01*
X102823589Y-110513396D01*
X102832543Y-110444104D01*
X102858381Y-110406317D01*
X102951336Y-110313362D01*
X102951340Y-110313357D01*
X103033650Y-110174178D01*
X103076123Y-110027983D01*
X102395619Y-110027983D01*
X102328580Y-110008298D01*
X102282825Y-109955494D01*
X102271619Y-109903983D01*
X102271619Y-109777983D01*
X102145619Y-109777983D01*
X102078580Y-109758298D01*
X102032825Y-109705494D01*
X102021619Y-109653983D01*
X102021619Y-109364887D01*
X102015334Y-109353377D01*
X102012500Y-109327019D01*
X102012500Y-108737500D01*
X102514520Y-108737500D01*
X102521531Y-108923801D01*
X102521619Y-108928464D01*
X102521619Y-109527983D01*
X103076123Y-109527983D01*
X103033650Y-109381787D01*
X102951340Y-109242608D01*
X102951337Y-109242604D01*
X102926061Y-109217329D01*
X102892575Y-109156006D01*
X102897559Y-109086314D01*
X102926061Y-109041963D01*
X102953235Y-109014789D01*
X102953238Y-109014785D01*
X103034904Y-108876694D01*
X103075344Y-108737500D01*
X102514520Y-108737500D01*
X102012500Y-108737500D01*
X101449656Y-108737500D01*
X101490095Y-108876694D01*
X101571761Y-109014785D01*
X101571768Y-109014794D01*
X101608057Y-109051082D01*
X101641543Y-109112404D01*
X101636559Y-109182096D01*
X101608060Y-109226443D01*
X101591905Y-109242597D01*
X101591895Y-109242610D01*
X101543210Y-109324932D01*
X101492141Y-109372615D01*
X101423399Y-109385118D01*
X101374481Y-109369198D01*
X101351424Y-109355886D01*
X101262280Y-109332000D01*
X101262279Y-109332000D01*
X101239755Y-109332000D01*
X101172716Y-109312315D01*
X101152074Y-109295681D01*
X101060847Y-109204454D01*
X101060844Y-109204452D01*
X101060842Y-109204450D01*
X100961776Y-109153973D01*
X100947801Y-109146852D01*
X100854024Y-109132000D01*
X99615982Y-109132000D01*
X99522196Y-109146854D01*
X99508224Y-109153973D01*
X99439555Y-109166867D01*
X99374815Y-109140588D01*
X99334560Y-109083481D01*
X99331732Y-109017460D01*
X99331620Y-109017443D01*
X99331707Y-109016889D01*
X99331570Y-109013675D01*
X99333019Y-109008605D01*
X99345712Y-108928464D01*
X99348000Y-108914019D01*
X99347999Y-108550982D01*
X99333146Y-108457196D01*
X99333145Y-108457194D01*
X99331619Y-108447557D01*
X99333642Y-108447236D01*
X99332006Y-108389994D01*
X99368084Y-108330160D01*
X99430784Y-108299330D01*
X99500198Y-108307292D01*
X99508208Y-108311019D01*
X99522196Y-108318146D01*
X99522198Y-108318146D01*
X99522200Y-108318147D01*
X99522198Y-108318147D01*
X99615975Y-108332999D01*
X99615981Y-108333000D01*
X100854018Y-108332999D01*
X100947804Y-108318146D01*
X101060842Y-108260550D01*
X101150550Y-108170842D01*
X101208146Y-108057804D01*
X101208146Y-108057802D01*
X101208147Y-108057801D01*
X101223000Y-107964024D01*
X101223000Y-107942000D01*
X101242685Y-107874961D01*
X101295489Y-107829206D01*
X101347000Y-107818000D01*
X101438472Y-107818000D01*
X101505511Y-107837685D01*
X101551266Y-107890489D01*
X101561210Y-107959647D01*
X101545204Y-108005121D01*
X101490095Y-108098305D01*
X101449656Y-108237500D01*
X103075344Y-108237500D01*
X103034904Y-108098305D01*
X102953238Y-107960214D01*
X102953231Y-107960205D01*
X102846912Y-107853886D01*
X102813427Y-107792563D01*
X102818411Y-107722871D01*
X102821739Y-107715128D01*
X102822080Y-107714024D01*
X102822080Y-107714021D01*
X102822082Y-107714018D01*
X102833000Y-107639082D01*
X102833000Y-107295918D01*
X102822082Y-107220982D01*
X102812572Y-107201530D01*
X102800812Y-107132659D01*
X102828154Y-107068361D01*
X102836280Y-107059399D01*
X104080469Y-105815212D01*
X104126614Y-105735288D01*
X104128936Y-105726619D01*
X104128939Y-105726615D01*
X104128938Y-105726615D01*
X104132699Y-105712575D01*
X104150500Y-105646144D01*
X104150500Y-105353856D01*
X104150500Y-96536042D01*
X105422759Y-96536042D01*
X105429087Y-96605687D01*
X105479024Y-96765941D01*
X105565854Y-96909577D01*
X105565857Y-96909581D01*
X105684542Y-97028266D01*
X105684546Y-97028269D01*
X105828182Y-97115099D01*
X105988436Y-97165036D01*
X106058082Y-97171365D01*
X106322759Y-97171365D01*
X106822759Y-97171365D01*
X107087436Y-97171365D01*
X107157081Y-97165036D01*
X107317335Y-97115099D01*
X107460971Y-97028269D01*
X107460975Y-97028266D01*
X107579660Y-96909581D01*
X107579663Y-96909577D01*
X107666493Y-96765941D01*
X107716430Y-96605687D01*
X107722759Y-96536042D01*
X107722759Y-96271365D01*
X106822759Y-96271365D01*
X106822759Y-97171365D01*
X106322759Y-97171365D01*
X106322759Y-96271365D01*
X105422759Y-96271365D01*
X105422759Y-96536042D01*
X104150500Y-96536042D01*
X104150500Y-95981583D01*
X106372759Y-95981583D01*
X106372759Y-96061147D01*
X106403207Y-96134656D01*
X106459468Y-96190917D01*
X106532977Y-96221365D01*
X106612541Y-96221365D01*
X106686050Y-96190917D01*
X106742311Y-96134656D01*
X106772759Y-96061147D01*
X106772759Y-95981583D01*
X106742311Y-95908074D01*
X106686050Y-95851813D01*
X106612541Y-95821365D01*
X106532977Y-95821365D01*
X106459468Y-95851813D01*
X106403207Y-95908074D01*
X106372759Y-95981583D01*
X104150500Y-95981583D01*
X104150500Y-95506687D01*
X105422759Y-95506687D01*
X105422759Y-95771365D01*
X106322759Y-95771365D01*
X106822759Y-95771365D01*
X107722759Y-95771365D01*
X107722759Y-95506687D01*
X107716430Y-95437042D01*
X107666493Y-95276788D01*
X107579663Y-95133152D01*
X107579660Y-95133148D01*
X107460975Y-95014463D01*
X107460971Y-95014460D01*
X107317335Y-94927630D01*
X107157081Y-94877693D01*
X107087436Y-94871365D01*
X106822759Y-94871365D01*
X106822759Y-95771365D01*
X106322759Y-95771365D01*
X106322759Y-94871365D01*
X106058082Y-94871365D01*
X105988436Y-94877693D01*
X105828182Y-94927630D01*
X105684546Y-95014460D01*
X105684542Y-95014463D01*
X105565857Y-95133148D01*
X105565854Y-95133152D01*
X105479024Y-95276788D01*
X105429087Y-95437042D01*
X105422759Y-95506687D01*
X104150500Y-95506687D01*
X104150500Y-94696544D01*
X104170185Y-94629505D01*
X104186819Y-94608863D01*
X105258863Y-93536819D01*
X105320186Y-93503334D01*
X105346544Y-93500500D01*
X105422472Y-93500500D01*
X105422475Y-93500500D01*
X105562485Y-93462984D01*
X105688015Y-93390509D01*
X105790509Y-93288015D01*
X105862984Y-93162485D01*
X105900500Y-93022475D01*
X105900500Y-92877525D01*
X105862984Y-92737515D01*
X105823266Y-92668722D01*
X105790511Y-92611988D01*
X105790506Y-92611982D01*
X105688017Y-92509493D01*
X105688011Y-92509488D01*
X105562488Y-92437017D01*
X105562489Y-92437017D01*
X105548109Y-92433164D01*
X105422475Y-92399500D01*
X105277525Y-92399500D01*
X105151891Y-92433164D01*
X105137511Y-92437017D01*
X105011988Y-92509488D01*
X105011982Y-92509493D01*
X104909493Y-92611982D01*
X104909488Y-92611988D01*
X104837017Y-92737511D01*
X104837016Y-92737515D01*
X104799500Y-92877525D01*
X104799500Y-92877527D01*
X104799500Y-92953456D01*
X104779815Y-93020495D01*
X104763181Y-93041137D01*
X103519531Y-94284786D01*
X103519527Y-94284791D01*
X103494993Y-94327287D01*
X103473387Y-94364708D01*
X103473387Y-94364709D01*
X103449500Y-94453856D01*
X103449500Y-105403455D01*
X103429815Y-105470494D01*
X103413181Y-105491136D01*
X101982032Y-106922284D01*
X101982023Y-106922296D01*
X101978599Y-106928227D01*
X101928029Y-106976440D01*
X101925678Y-106977621D01*
X101850394Y-107014426D01*
X101784140Y-107080681D01*
X101722817Y-107114166D01*
X101696459Y-107117000D01*
X100503856Y-107117000D01*
X100414712Y-107140886D01*
X100414711Y-107140886D01*
X100414709Y-107140887D01*
X100414706Y-107140888D01*
X100334787Y-107187031D01*
X100334784Y-107187032D01*
X100326133Y-107195684D01*
X100264809Y-107229167D01*
X100238455Y-107232000D01*
X99615982Y-107232000D01*
X99535019Y-107244823D01*
X99522196Y-107246854D01*
X99409158Y-107304450D01*
X99409157Y-107304451D01*
X99409152Y-107304454D01*
X99319454Y-107394152D01*
X99319451Y-107394157D01*
X99319450Y-107394158D01*
X99300251Y-107431837D01*
X99261852Y-107507198D01*
X99247000Y-107600975D01*
X99247000Y-107964017D01*
X99263381Y-108067443D01*
X99261357Y-108067763D01*
X99262990Y-108125016D01*
X99226907Y-108184847D01*
X99164204Y-108215671D01*
X99094790Y-108207703D01*
X99086780Y-108203975D01*
X99072804Y-108196854D01*
X99072803Y-108196853D01*
X99072800Y-108196852D01*
X99072801Y-108196852D01*
X98979024Y-108182000D01*
X98979019Y-108182000D01*
X98379104Y-108182000D01*
X98312065Y-108162315D01*
X98266310Y-108109511D01*
X98256366Y-108040353D01*
X98272697Y-107999632D01*
X98271064Y-107998834D01*
X98314853Y-107909260D01*
X98332082Y-107874018D01*
X98343000Y-107799082D01*
X98343000Y-107355918D01*
X98332082Y-107280982D01*
X98315398Y-107246854D01*
X98275578Y-107165400D01*
X98275576Y-107165397D01*
X98184602Y-107074423D01*
X98184599Y-107074421D01*
X98069021Y-107017919D01*
X98069019Y-107017918D01*
X98069018Y-107017918D01*
X97994082Y-107007000D01*
X97650918Y-107007000D01*
X97575982Y-107017918D01*
X97575980Y-107017918D01*
X97575978Y-107017919D01*
X97460400Y-107074421D01*
X97460397Y-107074423D01*
X97400181Y-107134640D01*
X97338858Y-107168125D01*
X97269166Y-107163141D01*
X97224819Y-107134640D01*
X97164602Y-107074423D01*
X97164599Y-107074421D01*
X97049020Y-107017918D01*
X97049018Y-107017917D01*
X96970587Y-107006490D01*
X96907087Y-106977346D01*
X96900785Y-106971467D01*
X94364059Y-104434741D01*
X94330574Y-104373418D01*
X94327740Y-104347060D01*
X94327740Y-103523607D01*
X97499500Y-103523607D01*
X97499500Y-103532151D01*
X97499500Y-104136397D01*
X97524594Y-104246342D01*
X97524598Y-104246352D01*
X97529818Y-104257192D01*
X97532639Y-104264793D01*
X97532958Y-104264662D01*
X97536065Y-104272164D01*
X97539555Y-104278209D01*
X97543883Y-104286399D01*
X97573532Y-104347967D01*
X97590556Y-104369315D01*
X97600988Y-104384614D01*
X97601607Y-104385687D01*
X97601610Y-104385691D01*
X97601612Y-104385694D01*
X97601614Y-104385696D01*
X97601615Y-104385697D01*
X97606597Y-104390679D01*
X97615863Y-104401047D01*
X97643850Y-104436142D01*
X97643851Y-104436143D01*
X97643852Y-104436144D01*
X97643854Y-104436146D01*
X97678946Y-104464131D01*
X97678951Y-104464135D01*
X97689317Y-104473400D01*
X97694302Y-104478385D01*
X97694304Y-104478386D01*
X97694306Y-104478388D01*
X97695375Y-104479005D01*
X97710686Y-104489443D01*
X97732033Y-104506467D01*
X97732036Y-104506468D01*
X97732037Y-104506469D01*
X97793593Y-104536113D01*
X97801786Y-104540443D01*
X97807826Y-104543930D01*
X97815347Y-104547045D01*
X97815213Y-104547366D01*
X97822814Y-104550185D01*
X97833650Y-104555403D01*
X97943607Y-104580500D01*
X102056393Y-104580500D01*
X102166350Y-104555403D01*
X102177179Y-104550187D01*
X102184793Y-104547365D01*
X102184659Y-104547042D01*
X102192160Y-104543934D01*
X102192167Y-104543933D01*
X102198202Y-104540448D01*
X102206398Y-104536117D01*
X102219029Y-104530034D01*
X102267967Y-104506467D01*
X102289310Y-104489445D01*
X102304629Y-104479003D01*
X102305692Y-104478389D01*
X102305691Y-104478389D01*
X102305694Y-104478388D01*
X102310682Y-104473400D01*
X102321054Y-104464131D01*
X102356146Y-104436146D01*
X102384131Y-104401054D01*
X102393402Y-104390680D01*
X102398386Y-104385696D01*
X102398389Y-104385692D01*
X102399003Y-104384629D01*
X102409445Y-104369310D01*
X102426467Y-104347967D01*
X102454005Y-104290783D01*
X102456117Y-104286398D01*
X102460448Y-104278202D01*
X102463933Y-104272167D01*
X102463934Y-104272160D01*
X102467042Y-104264659D01*
X102467365Y-104264793D01*
X102470187Y-104257179D01*
X102475403Y-104246350D01*
X102500500Y-104136393D01*
X102500500Y-104080000D01*
X102500500Y-104079500D01*
X102500500Y-103579793D01*
X102500500Y-103523607D01*
X102475403Y-103413650D01*
X102470185Y-103402814D01*
X102467366Y-103395213D01*
X102467045Y-103395347D01*
X102463930Y-103387826D01*
X102460443Y-103381786D01*
X102456113Y-103373593D01*
X102426469Y-103312037D01*
X102426468Y-103312036D01*
X102426467Y-103312033D01*
X102409442Y-103290684D01*
X102399005Y-103275375D01*
X102398388Y-103274306D01*
X102398386Y-103274304D01*
X102398385Y-103274302D01*
X102393400Y-103269317D01*
X102384135Y-103258951D01*
X102356146Y-103223854D01*
X102356144Y-103223852D01*
X102356143Y-103223851D01*
X102356142Y-103223850D01*
X102321047Y-103195863D01*
X102310679Y-103186597D01*
X102305697Y-103181615D01*
X102305695Y-103181613D01*
X102305694Y-103181612D01*
X102305691Y-103181610D01*
X102305687Y-103181607D01*
X102304614Y-103180988D01*
X102289315Y-103170556D01*
X102267966Y-103153532D01*
X102267967Y-103153532D01*
X102206399Y-103123883D01*
X102198209Y-103119555D01*
X102192164Y-103116065D01*
X102184662Y-103112958D01*
X102184793Y-103112639D01*
X102177192Y-103109818D01*
X102166352Y-103104598D01*
X102166342Y-103104594D01*
X102056397Y-103079500D01*
X102056393Y-103079500D01*
X102000207Y-103079500D01*
X98000500Y-103079500D01*
X98000000Y-103079500D01*
X97943607Y-103079500D01*
X97943602Y-103079500D01*
X97833649Y-103104596D01*
X97822804Y-103109819D01*
X97815205Y-103112640D01*
X97815337Y-103112958D01*
X97807835Y-103116065D01*
X97801797Y-103119551D01*
X97793614Y-103123875D01*
X97732033Y-103153532D01*
X97732032Y-103153532D01*
X97710684Y-103170557D01*
X97695387Y-103180987D01*
X97695011Y-103181204D01*
X97694303Y-103181613D01*
X97694298Y-103181617D01*
X97689307Y-103186608D01*
X97678955Y-103195859D01*
X97643853Y-103223853D01*
X97615859Y-103258955D01*
X97606608Y-103269307D01*
X97601617Y-103274298D01*
X97601613Y-103274303D01*
X97601204Y-103275011D01*
X97600999Y-103275369D01*
X97600990Y-103275384D01*
X97590557Y-103290684D01*
X97573532Y-103312032D01*
X97573532Y-103312033D01*
X97543875Y-103373614D01*
X97539551Y-103381797D01*
X97536253Y-103387510D01*
X97536067Y-103387833D01*
X97534859Y-103392339D01*
X97524597Y-103413650D01*
X97499500Y-103523607D01*
X94327740Y-103523607D01*
X94327740Y-103466612D01*
X94324943Y-103436776D01*
X94324943Y-103436772D01*
X94280968Y-103311099D01*
X94201905Y-103203971D01*
X94094777Y-103124908D01*
X94094773Y-103124906D01*
X94094772Y-103124906D01*
X93969105Y-103080932D01*
X93939270Y-103078135D01*
X92915219Y-103078135D01*
X92885382Y-103080932D01*
X92885377Y-103080933D01*
X92815454Y-103105400D01*
X92745675Y-103108961D01*
X92685048Y-103074232D01*
X92652821Y-103012238D01*
X92650500Y-102988358D01*
X92650500Y-97011641D01*
X92670185Y-96944602D01*
X92722989Y-96898847D01*
X92792147Y-96888903D01*
X92815454Y-96894599D01*
X92827593Y-96898847D01*
X92885378Y-96919067D01*
X92885377Y-96919067D01*
X92889853Y-96919486D01*
X92915216Y-96921865D01*
X93939265Y-96921864D01*
X93969104Y-96919067D01*
X94094777Y-96875092D01*
X94201905Y-96796029D01*
X94280968Y-96688901D01*
X94305707Y-96618202D01*
X94324943Y-96563230D01*
X94324943Y-96563228D01*
X94327741Y-96533394D01*
X94327741Y-96495865D01*
X94347426Y-96428826D01*
X94400230Y-96383071D01*
X94451741Y-96371865D01*
X95564777Y-96371865D01*
X95564779Y-96371865D01*
X95653923Y-96347979D01*
X95733847Y-96301835D01*
X96172075Y-95863607D01*
X97499500Y-95863607D01*
X97499500Y-95872151D01*
X97499500Y-96476397D01*
X97524594Y-96586342D01*
X97524598Y-96586352D01*
X97529818Y-96597192D01*
X97532639Y-96604793D01*
X97532958Y-96604662D01*
X97536065Y-96612164D01*
X97539555Y-96618209D01*
X97543883Y-96626399D01*
X97573532Y-96687967D01*
X97590556Y-96709315D01*
X97600988Y-96724614D01*
X97601607Y-96725687D01*
X97601610Y-96725691D01*
X97601612Y-96725694D01*
X97601614Y-96725696D01*
X97601615Y-96725697D01*
X97606597Y-96730679D01*
X97615863Y-96741047D01*
X97643850Y-96776142D01*
X97643851Y-96776143D01*
X97643852Y-96776144D01*
X97643854Y-96776146D01*
X97678946Y-96804131D01*
X97678951Y-96804135D01*
X97689317Y-96813400D01*
X97694302Y-96818385D01*
X97694304Y-96818386D01*
X97694306Y-96818388D01*
X97695375Y-96819005D01*
X97710686Y-96829443D01*
X97732033Y-96846467D01*
X97732036Y-96846468D01*
X97732037Y-96846469D01*
X97793593Y-96876113D01*
X97801786Y-96880443D01*
X97807826Y-96883930D01*
X97815347Y-96887045D01*
X97815213Y-96887366D01*
X97822814Y-96890185D01*
X97833650Y-96895403D01*
X97943607Y-96920500D01*
X102056393Y-96920500D01*
X102166350Y-96895403D01*
X102177179Y-96890187D01*
X102184793Y-96887365D01*
X102184659Y-96887042D01*
X102192160Y-96883934D01*
X102192167Y-96883933D01*
X102198202Y-96880448D01*
X102206398Y-96876117D01*
X102219029Y-96870034D01*
X102267967Y-96846467D01*
X102289310Y-96829445D01*
X102304629Y-96819003D01*
X102305692Y-96818389D01*
X102305691Y-96818389D01*
X102305694Y-96818388D01*
X102310682Y-96813400D01*
X102321054Y-96804131D01*
X102334744Y-96793214D01*
X102356146Y-96776146D01*
X102384137Y-96741047D01*
X102393402Y-96730680D01*
X102398386Y-96725696D01*
X102398389Y-96725692D01*
X102399003Y-96724629D01*
X102409445Y-96709310D01*
X102426467Y-96687967D01*
X102454005Y-96630783D01*
X102456117Y-96626398D01*
X102460448Y-96618202D01*
X102463933Y-96612167D01*
X102463934Y-96612160D01*
X102467042Y-96604659D01*
X102467365Y-96604793D01*
X102470187Y-96597179D01*
X102475403Y-96586350D01*
X102500500Y-96476393D01*
X102500500Y-96420000D01*
X102500500Y-96419500D01*
X102500500Y-95919793D01*
X102500500Y-95863607D01*
X102475403Y-95753650D01*
X102470185Y-95742814D01*
X102467366Y-95735213D01*
X102467045Y-95735347D01*
X102463930Y-95727826D01*
X102460443Y-95721786D01*
X102456113Y-95713593D01*
X102426469Y-95652037D01*
X102426468Y-95652036D01*
X102426467Y-95652033D01*
X102409442Y-95630684D01*
X102399005Y-95615375D01*
X102398388Y-95614306D01*
X102398386Y-95614304D01*
X102398385Y-95614302D01*
X102393400Y-95609317D01*
X102384135Y-95598951D01*
X102356146Y-95563854D01*
X102356144Y-95563852D01*
X102356143Y-95563851D01*
X102356142Y-95563850D01*
X102321047Y-95535863D01*
X102310679Y-95526597D01*
X102305697Y-95521615D01*
X102305695Y-95521613D01*
X102305694Y-95521612D01*
X102305691Y-95521610D01*
X102305687Y-95521607D01*
X102304614Y-95520988D01*
X102289315Y-95510556D01*
X102267966Y-95493532D01*
X102267967Y-95493532D01*
X102206399Y-95463883D01*
X102198209Y-95459555D01*
X102192164Y-95456065D01*
X102184662Y-95452958D01*
X102184793Y-95452639D01*
X102177192Y-95449818D01*
X102166352Y-95444598D01*
X102166342Y-95444594D01*
X102056397Y-95419500D01*
X102056393Y-95419500D01*
X102000207Y-95419500D01*
X100000207Y-95419500D01*
X98000500Y-95419500D01*
X98000000Y-95419500D01*
X97943607Y-95419500D01*
X97943602Y-95419500D01*
X97833649Y-95444596D01*
X97822804Y-95449819D01*
X97815205Y-95452640D01*
X97815337Y-95452958D01*
X97807835Y-95456065D01*
X97801797Y-95459551D01*
X97793614Y-95463875D01*
X97732033Y-95493532D01*
X97732032Y-95493532D01*
X97710684Y-95510557D01*
X97695387Y-95520987D01*
X97695011Y-95521204D01*
X97694303Y-95521613D01*
X97694298Y-95521617D01*
X97689307Y-95526608D01*
X97678955Y-95535859D01*
X97643853Y-95563853D01*
X97615859Y-95598955D01*
X97606608Y-95609307D01*
X97601617Y-95614298D01*
X97601613Y-95614303D01*
X97601204Y-95615011D01*
X97600999Y-95615369D01*
X97600990Y-95615384D01*
X97590557Y-95630684D01*
X97573532Y-95652032D01*
X97573532Y-95652033D01*
X97543875Y-95713614D01*
X97539551Y-95721797D01*
X97536253Y-95727510D01*
X97536067Y-95727833D01*
X97534859Y-95732339D01*
X97524597Y-95753650D01*
X97499500Y-95863607D01*
X96172075Y-95863607D01*
X97106363Y-94929319D01*
X97167686Y-94895834D01*
X97194044Y-94893000D01*
X101610374Y-94893000D01*
X101610376Y-94893000D01*
X101699520Y-94869114D01*
X101706336Y-94865178D01*
X101731761Y-94850500D01*
X101731762Y-94850499D01*
X101779444Y-94822970D01*
X106853229Y-89749185D01*
X106899373Y-89669261D01*
X106923259Y-89580117D01*
X106923259Y-89487829D01*
X106923259Y-86763134D01*
X106942944Y-86696095D01*
X106995748Y-86650340D01*
X107047259Y-86639134D01*
X107084781Y-86639134D01*
X107084783Y-86639134D01*
X107114622Y-86636337D01*
X107240295Y-86592362D01*
X107347423Y-86513299D01*
X107426486Y-86406171D01*
X107460071Y-86310191D01*
X107470461Y-86280500D01*
X107470461Y-86280498D01*
X107470461Y-86280493D01*
X107473259Y-86250660D01*
X107473258Y-85226611D01*
X107470461Y-85196772D01*
X107426486Y-85071099D01*
X107347423Y-84963971D01*
X107240295Y-84884908D01*
X107240291Y-84884906D01*
X107240290Y-84884906D01*
X107114623Y-84840932D01*
X107084788Y-84838135D01*
X106060737Y-84838135D01*
X106030900Y-84840932D01*
X106030890Y-84840934D01*
X105905227Y-84884906D01*
X105905225Y-84884907D01*
X105905224Y-84884907D01*
X105905223Y-84884908D01*
X105798095Y-84963971D01*
X105722159Y-85066863D01*
X105719031Y-85071101D01*
X105719030Y-85071103D01*
X105675056Y-85196769D01*
X105675056Y-85196771D01*
X105672259Y-85226605D01*
X105672259Y-86250656D01*
X105675056Y-86280493D01*
X105675058Y-86280503D01*
X105703049Y-86360495D01*
X105719032Y-86406171D01*
X105798095Y-86513299D01*
X105905223Y-86592362D01*
X105950906Y-86608347D01*
X106030894Y-86636337D01*
X106044674Y-86637629D01*
X106060734Y-86639135D01*
X106098258Y-86639134D01*
X106165296Y-86658817D01*
X106211052Y-86711620D01*
X106222259Y-86763134D01*
X106222259Y-89337428D01*
X106202574Y-89404467D01*
X106185940Y-89425109D01*
X103043799Y-92567249D01*
X102982476Y-92600734D01*
X102912784Y-92595750D01*
X102856851Y-92553878D01*
X102832434Y-92488414D01*
X102832118Y-92479568D01*
X102832118Y-92327245D01*
X102824302Y-92277897D01*
X102823589Y-92273396D01*
X102832543Y-92204104D01*
X102858381Y-92166317D01*
X102951336Y-92073362D01*
X102951340Y-92073357D01*
X103033650Y-91934178D01*
X103076123Y-91787983D01*
X102395619Y-91787983D01*
X102328580Y-91768298D01*
X102282825Y-91715494D01*
X102271619Y-91663983D01*
X102271619Y-91537983D01*
X102145619Y-91537983D01*
X102078580Y-91518298D01*
X102032825Y-91465494D01*
X102021619Y-91413983D01*
X102021619Y-91124887D01*
X102015334Y-91113377D01*
X102012500Y-91087019D01*
X102012500Y-90497500D01*
X102514520Y-90497500D01*
X102521531Y-90683801D01*
X102521619Y-90688464D01*
X102521619Y-91287983D01*
X103076123Y-91287983D01*
X103033650Y-91141787D01*
X102951340Y-91002608D01*
X102951337Y-91002604D01*
X102926061Y-90977329D01*
X102892575Y-90916006D01*
X102897559Y-90846314D01*
X102926061Y-90801963D01*
X102953235Y-90774789D01*
X102953238Y-90774785D01*
X103034904Y-90636694D01*
X103075344Y-90497500D01*
X102514520Y-90497500D01*
X102012500Y-90497500D01*
X101449656Y-90497500D01*
X101490095Y-90636694D01*
X101571761Y-90774785D01*
X101571768Y-90774794D01*
X101608057Y-90811082D01*
X101641543Y-90872404D01*
X101636559Y-90942096D01*
X101608060Y-90986443D01*
X101591905Y-91002597D01*
X101591895Y-91002610D01*
X101543210Y-91084932D01*
X101492141Y-91132615D01*
X101423399Y-91145118D01*
X101374481Y-91129198D01*
X101351424Y-91115886D01*
X101262280Y-91092000D01*
X101262279Y-91092000D01*
X101239755Y-91092000D01*
X101172716Y-91072315D01*
X101152074Y-91055681D01*
X101060847Y-90964454D01*
X101060844Y-90964452D01*
X101060842Y-90964450D01*
X100961776Y-90913973D01*
X100947801Y-90906852D01*
X100854024Y-90892000D01*
X99615982Y-90892000D01*
X99522196Y-90906854D01*
X99508224Y-90913973D01*
X99439555Y-90926867D01*
X99374815Y-90900588D01*
X99334560Y-90843481D01*
X99331732Y-90777460D01*
X99331620Y-90777443D01*
X99331707Y-90776889D01*
X99331570Y-90773675D01*
X99333019Y-90768605D01*
X99345712Y-90688464D01*
X99348000Y-90674019D01*
X99347999Y-90310982D01*
X99333146Y-90217196D01*
X99333145Y-90217194D01*
X99331619Y-90207557D01*
X99333642Y-90207236D01*
X99332006Y-90149994D01*
X99368084Y-90090160D01*
X99430784Y-90059330D01*
X99500198Y-90067292D01*
X99508208Y-90071019D01*
X99522196Y-90078146D01*
X99522198Y-90078146D01*
X99522200Y-90078147D01*
X99522198Y-90078147D01*
X99615975Y-90092999D01*
X99615981Y-90093000D01*
X100854018Y-90092999D01*
X100947804Y-90078146D01*
X101060842Y-90020550D01*
X101150550Y-89930842D01*
X101208146Y-89817804D01*
X101208146Y-89817802D01*
X101208147Y-89817801D01*
X101223000Y-89724024D01*
X101223000Y-89702000D01*
X101242685Y-89634961D01*
X101295489Y-89589206D01*
X101347000Y-89578000D01*
X101438472Y-89578000D01*
X101505511Y-89597685D01*
X101551266Y-89650489D01*
X101561210Y-89719647D01*
X101545204Y-89765121D01*
X101490095Y-89858305D01*
X101449656Y-89997500D01*
X103075344Y-89997500D01*
X103034904Y-89858305D01*
X102953238Y-89720214D01*
X102953231Y-89720205D01*
X102846912Y-89613886D01*
X102813427Y-89552563D01*
X102818411Y-89482871D01*
X102821739Y-89475128D01*
X102822080Y-89474024D01*
X102822080Y-89474021D01*
X102822082Y-89474018D01*
X102833000Y-89399082D01*
X102833000Y-89204044D01*
X102852685Y-89137005D01*
X102869319Y-89116363D01*
X103315001Y-88670681D01*
X105280470Y-86705212D01*
X105326614Y-86625288D01*
X105350500Y-86536143D01*
X105350500Y-86443856D01*
X105350500Y-79933465D01*
X109936595Y-79933465D01*
X109936595Y-80188534D01*
X109954809Y-80303531D01*
X109976494Y-80440446D01*
X110055311Y-80683020D01*
X110171105Y-80910278D01*
X110321024Y-81116623D01*
X110501377Y-81296976D01*
X110707722Y-81446895D01*
X110934980Y-81562689D01*
X111177554Y-81641506D01*
X111307342Y-81662062D01*
X111429466Y-81681405D01*
X111429471Y-81681405D01*
X111684534Y-81681405D01*
X111795862Y-81663771D01*
X111936446Y-81641506D01*
X112179020Y-81562689D01*
X112406278Y-81446895D01*
X112612623Y-81296976D01*
X112792976Y-81116623D01*
X112942895Y-80910278D01*
X113058689Y-80683020D01*
X113137506Y-80440446D01*
X113159771Y-80299862D01*
X113177405Y-80188534D01*
X113177405Y-79933465D01*
X113156245Y-79799870D01*
X113137506Y-79681554D01*
X113058689Y-79438980D01*
X112942895Y-79211722D01*
X112792976Y-79005377D01*
X112612623Y-78825024D01*
X112406278Y-78675105D01*
X112179020Y-78559311D01*
X111936446Y-78480494D01*
X111684534Y-78440595D01*
X111684529Y-78440595D01*
X111429471Y-78440595D01*
X111429466Y-78440595D01*
X111177553Y-78480494D01*
X110934977Y-78559312D01*
X110707721Y-78675105D01*
X110599703Y-78753586D01*
X110501377Y-78825024D01*
X110501375Y-78825026D01*
X110501374Y-78825026D01*
X110321026Y-79005374D01*
X110321026Y-79005375D01*
X110321024Y-79005377D01*
X110318188Y-79009281D01*
X110171105Y-79211721D01*
X110055312Y-79438977D01*
X109976494Y-79681553D01*
X109936595Y-79933465D01*
X105350500Y-79933465D01*
X105350500Y-78753586D01*
X105370185Y-78686547D01*
X105422989Y-78640792D01*
X105492147Y-78630848D01*
X105555703Y-78659873D01*
X105562181Y-78665905D01*
X105684542Y-78788266D01*
X105684546Y-78788269D01*
X105828182Y-78875099D01*
X105988436Y-78925036D01*
X106058082Y-78931365D01*
X106322759Y-78931365D01*
X106822759Y-78931365D01*
X107087436Y-78931365D01*
X107157081Y-78925036D01*
X107317335Y-78875099D01*
X107460971Y-78788269D01*
X107460975Y-78788266D01*
X107579660Y-78669581D01*
X107579663Y-78669577D01*
X107666493Y-78525941D01*
X107716430Y-78365687D01*
X107722759Y-78296042D01*
X107722759Y-78031365D01*
X106822759Y-78031365D01*
X106822759Y-78931365D01*
X106322759Y-78931365D01*
X106322759Y-77741583D01*
X106372759Y-77741583D01*
X106372759Y-77821147D01*
X106403207Y-77894656D01*
X106459468Y-77950917D01*
X106532977Y-77981365D01*
X106612541Y-77981365D01*
X106686050Y-77950917D01*
X106742311Y-77894656D01*
X106772759Y-77821147D01*
X106772759Y-77741583D01*
X106742311Y-77668074D01*
X106686050Y-77611813D01*
X106612541Y-77581365D01*
X106532977Y-77581365D01*
X106459468Y-77611813D01*
X106403207Y-77668074D01*
X106372759Y-77741583D01*
X106322759Y-77741583D01*
X106322759Y-77531365D01*
X106822759Y-77531365D01*
X107722759Y-77531365D01*
X107722759Y-77266687D01*
X107716430Y-77197042D01*
X107666493Y-77036788D01*
X107579663Y-76893152D01*
X107579660Y-76893148D01*
X107460975Y-76774463D01*
X107460971Y-76774460D01*
X107317335Y-76687630D01*
X107157081Y-76637693D01*
X107087436Y-76631365D01*
X106822759Y-76631365D01*
X106822759Y-77531365D01*
X106322759Y-77531365D01*
X106322759Y-76631365D01*
X106058082Y-76631365D01*
X105988436Y-76637693D01*
X105828182Y-76687630D01*
X105684546Y-76774460D01*
X105684542Y-76774463D01*
X105562181Y-76896825D01*
X105500858Y-76930310D01*
X105431166Y-76925326D01*
X105375233Y-76883454D01*
X105350816Y-76817990D01*
X105350500Y-76809144D01*
X105350500Y-73946544D01*
X105370185Y-73879505D01*
X105386819Y-73858863D01*
X105408863Y-73836819D01*
X105470186Y-73803334D01*
X105496544Y-73800500D01*
X105572472Y-73800500D01*
X105572475Y-73800500D01*
X105712485Y-73762984D01*
X105838015Y-73690509D01*
X105940509Y-73588015D01*
X106012984Y-73462485D01*
X106050500Y-73322475D01*
X106050500Y-73177525D01*
X106012984Y-73037515D01*
X105959693Y-72945213D01*
X105940511Y-72911988D01*
X105940506Y-72911982D01*
X105838017Y-72809493D01*
X105838015Y-72809491D01*
X105805496Y-72790716D01*
X105797222Y-72785939D01*
X105749006Y-72735372D01*
X105735784Y-72666765D01*
X105761752Y-72601900D01*
X105771532Y-72590880D01*
X106853229Y-71509185D01*
X106899373Y-71429261D01*
X106923259Y-71340117D01*
X106923259Y-71247829D01*
X106923259Y-68523134D01*
X106942944Y-68456095D01*
X106995748Y-68410340D01*
X107047259Y-68399134D01*
X107084781Y-68399134D01*
X107084783Y-68399134D01*
X107114622Y-68396337D01*
X107240295Y-68352362D01*
X107347423Y-68273299D01*
X107426486Y-68166171D01*
X107460071Y-68070191D01*
X107470461Y-68040500D01*
X107470461Y-68040498D01*
X107470461Y-68040493D01*
X107473259Y-68010660D01*
X107473258Y-66986611D01*
X107470461Y-66956772D01*
X107426486Y-66831099D01*
X107347423Y-66723971D01*
X107240295Y-66644908D01*
X107240291Y-66644906D01*
X107240290Y-66644906D01*
X107114623Y-66600932D01*
X107084788Y-66598135D01*
X106060737Y-66598135D01*
X106030900Y-66600932D01*
X106030890Y-66600934D01*
X105905227Y-66644906D01*
X105905225Y-66644907D01*
X105905224Y-66644907D01*
X105905223Y-66644908D01*
X105798095Y-66723971D01*
X105746189Y-66794303D01*
X105719031Y-66831101D01*
X105719030Y-66831103D01*
X105675056Y-66956769D01*
X105675056Y-66956771D01*
X105672259Y-66986605D01*
X105672259Y-68010656D01*
X105675056Y-68040493D01*
X105675058Y-68040503D01*
X105719030Y-68166166D01*
X105719032Y-68166171D01*
X105798095Y-68273299D01*
X105905223Y-68352362D01*
X105950906Y-68368347D01*
X106030894Y-68396337D01*
X106044674Y-68397629D01*
X106060734Y-68399135D01*
X106098258Y-68399134D01*
X106165296Y-68418817D01*
X106211052Y-68471620D01*
X106222259Y-68523134D01*
X106222259Y-71097428D01*
X106202574Y-71164467D01*
X106185940Y-71185109D01*
X103043799Y-74327249D01*
X102982476Y-74360734D01*
X102912784Y-74355750D01*
X102856851Y-74313878D01*
X102832434Y-74248414D01*
X102832118Y-74239568D01*
X102832118Y-74087245D01*
X102824302Y-74037898D01*
X102823589Y-74033396D01*
X102832543Y-73964104D01*
X102858381Y-73926317D01*
X102951336Y-73833362D01*
X102951340Y-73833357D01*
X103033650Y-73694178D01*
X103076123Y-73547983D01*
X102395619Y-73547983D01*
X102328580Y-73528298D01*
X102282825Y-73475494D01*
X102271619Y-73423983D01*
X102271619Y-73297983D01*
X102145619Y-73297983D01*
X102078580Y-73278298D01*
X102032825Y-73225494D01*
X102021619Y-73173983D01*
X102021619Y-72884887D01*
X102015334Y-72873377D01*
X102012500Y-72847019D01*
X102012500Y-72257500D01*
X102514520Y-72257500D01*
X102521531Y-72443801D01*
X102521619Y-72448464D01*
X102521619Y-73047983D01*
X103076123Y-73047983D01*
X103033650Y-72901787D01*
X102951340Y-72762608D01*
X102951337Y-72762604D01*
X102926061Y-72737329D01*
X102892575Y-72676006D01*
X102897559Y-72606314D01*
X102926061Y-72561963D01*
X102953235Y-72534789D01*
X102953238Y-72534785D01*
X103034904Y-72396694D01*
X103075344Y-72257500D01*
X102514520Y-72257500D01*
X102012500Y-72257500D01*
X101449656Y-72257500D01*
X101490095Y-72396694D01*
X101571761Y-72534785D01*
X101571768Y-72534794D01*
X101608057Y-72571082D01*
X101641543Y-72632404D01*
X101636559Y-72702096D01*
X101608060Y-72746443D01*
X101591905Y-72762597D01*
X101591895Y-72762610D01*
X101543210Y-72844932D01*
X101492141Y-72892615D01*
X101423399Y-72905118D01*
X101374481Y-72889198D01*
X101351424Y-72875886D01*
X101262280Y-72852000D01*
X101262279Y-72852000D01*
X101239755Y-72852000D01*
X101172716Y-72832315D01*
X101152074Y-72815681D01*
X101060847Y-72724454D01*
X101060844Y-72724452D01*
X101060842Y-72724450D01*
X100961776Y-72673973D01*
X100947801Y-72666852D01*
X100854024Y-72652000D01*
X99615982Y-72652000D01*
X99522196Y-72666854D01*
X99508224Y-72673973D01*
X99439555Y-72686867D01*
X99374815Y-72660588D01*
X99334560Y-72603481D01*
X99331732Y-72537460D01*
X99331620Y-72537443D01*
X99331707Y-72536889D01*
X99331570Y-72533675D01*
X99333019Y-72528605D01*
X99345712Y-72448464D01*
X99348000Y-72434019D01*
X99347999Y-72070982D01*
X99333146Y-71977196D01*
X99333145Y-71977194D01*
X99331619Y-71967557D01*
X99333642Y-71967236D01*
X99332006Y-71909994D01*
X99368084Y-71850160D01*
X99430784Y-71819330D01*
X99500198Y-71827292D01*
X99508208Y-71831019D01*
X99522196Y-71838146D01*
X99522198Y-71838146D01*
X99522200Y-71838147D01*
X99522198Y-71838147D01*
X99615975Y-71852999D01*
X99615981Y-71853000D01*
X100854018Y-71852999D01*
X100947804Y-71838146D01*
X101060842Y-71780550D01*
X101150550Y-71690842D01*
X101208146Y-71577804D01*
X101208146Y-71577802D01*
X101208147Y-71577801D01*
X101223000Y-71484024D01*
X101223000Y-71462000D01*
X101242685Y-71394961D01*
X101295489Y-71349206D01*
X101347000Y-71338000D01*
X101438472Y-71338000D01*
X101505511Y-71357685D01*
X101551266Y-71410489D01*
X101561210Y-71479647D01*
X101545204Y-71525121D01*
X101490095Y-71618305D01*
X101449656Y-71757500D01*
X103075344Y-71757500D01*
X103034904Y-71618305D01*
X102979796Y-71525121D01*
X102962613Y-71457397D01*
X102984773Y-71391134D01*
X103039239Y-71347371D01*
X103086528Y-71338000D01*
X104108642Y-71338000D01*
X104108644Y-71338000D01*
X104197788Y-71314114D01*
X104200200Y-71312720D01*
X104200219Y-71312716D01*
X104200217Y-71312711D01*
X104277712Y-71267970D01*
X104883094Y-70662586D01*
X104944415Y-70629103D01*
X105002861Y-70630493D01*
X105077525Y-70650500D01*
X105077529Y-70650500D01*
X105222472Y-70650500D01*
X105222475Y-70650500D01*
X105362485Y-70612984D01*
X105488015Y-70540509D01*
X105590509Y-70438015D01*
X105662984Y-70312485D01*
X105700500Y-70172475D01*
X105700500Y-70027525D01*
X105662984Y-69887515D01*
X105590509Y-69761985D01*
X105488015Y-69659491D01*
X105488013Y-69659490D01*
X105488011Y-69659488D01*
X105362488Y-69587017D01*
X105362489Y-69587017D01*
X105351006Y-69583940D01*
X105222475Y-69549500D01*
X105077525Y-69549500D01*
X104948993Y-69583940D01*
X104937511Y-69587017D01*
X104811988Y-69659488D01*
X104811982Y-69659493D01*
X104709493Y-69761982D01*
X104709488Y-69761988D01*
X104637017Y-69887511D01*
X104637015Y-69887516D01*
X104634712Y-69896112D01*
X104602619Y-69951697D01*
X103953637Y-70600681D01*
X103892314Y-70634166D01*
X103865956Y-70637000D01*
X102828541Y-70637000D01*
X102761502Y-70617315D01*
X102740860Y-70600681D01*
X102674602Y-70534423D01*
X102674599Y-70534421D01*
X102559021Y-70477919D01*
X102559019Y-70477918D01*
X102559018Y-70477918D01*
X102484082Y-70467000D01*
X102040918Y-70467000D01*
X101965982Y-70477918D01*
X101965980Y-70477918D01*
X101965978Y-70477919D01*
X101850400Y-70534421D01*
X101850397Y-70534423D01*
X101784140Y-70600681D01*
X101722817Y-70634166D01*
X101696459Y-70637000D01*
X100503856Y-70637000D01*
X100414712Y-70660886D01*
X100414711Y-70660886D01*
X100414709Y-70660887D01*
X100414706Y-70660888D01*
X100334787Y-70707031D01*
X100334784Y-70707032D01*
X100326133Y-70715684D01*
X100264809Y-70749167D01*
X100238455Y-70752000D01*
X99615982Y-70752000D01*
X99535019Y-70764823D01*
X99522196Y-70766854D01*
X99409158Y-70824450D01*
X99409157Y-70824451D01*
X99409152Y-70824454D01*
X99319454Y-70914152D01*
X99319451Y-70914157D01*
X99319450Y-70914158D01*
X99300251Y-70951837D01*
X99261852Y-71027198D01*
X99247000Y-71120975D01*
X99247000Y-71484017D01*
X99263381Y-71587443D01*
X99261357Y-71587763D01*
X99262990Y-71645016D01*
X99226907Y-71704847D01*
X99164204Y-71735671D01*
X99094790Y-71727703D01*
X99086780Y-71723975D01*
X99072804Y-71716854D01*
X99072803Y-71716853D01*
X99072800Y-71716852D01*
X99072801Y-71716852D01*
X98979024Y-71702000D01*
X98979019Y-71702000D01*
X98379104Y-71702000D01*
X98312065Y-71682315D01*
X98266310Y-71629511D01*
X98256366Y-71560353D01*
X98272697Y-71519632D01*
X98271064Y-71518834D01*
X98314853Y-71429260D01*
X98332082Y-71394018D01*
X98343000Y-71319082D01*
X98343000Y-70875918D01*
X98332082Y-70800982D01*
X98315398Y-70766854D01*
X98275578Y-70685400D01*
X98275576Y-70685397D01*
X98184602Y-70594423D01*
X98184599Y-70594421D01*
X98069021Y-70537919D01*
X98069019Y-70537918D01*
X98069018Y-70537918D01*
X97994082Y-70527000D01*
X97650918Y-70527000D01*
X97575982Y-70537918D01*
X97575980Y-70537918D01*
X97575978Y-70537919D01*
X97460400Y-70594421D01*
X97460397Y-70594423D01*
X97400181Y-70654640D01*
X97338858Y-70688125D01*
X97269166Y-70683141D01*
X97224819Y-70654640D01*
X97164602Y-70594423D01*
X97164599Y-70594421D01*
X97049020Y-70537918D01*
X97049018Y-70537917D01*
X96970587Y-70526490D01*
X96907087Y-70497346D01*
X96900785Y-70491467D01*
X94364059Y-67954741D01*
X94330574Y-67893418D01*
X94327740Y-67867060D01*
X94327740Y-67043607D01*
X97499500Y-67043607D01*
X97499500Y-67052151D01*
X97499500Y-67656397D01*
X97524594Y-67766342D01*
X97524598Y-67766352D01*
X97529818Y-67777192D01*
X97532639Y-67784793D01*
X97532958Y-67784662D01*
X97536065Y-67792164D01*
X97539555Y-67798209D01*
X97543883Y-67806399D01*
X97573532Y-67867967D01*
X97590556Y-67889315D01*
X97600988Y-67904614D01*
X97601607Y-67905687D01*
X97601610Y-67905691D01*
X97601612Y-67905694D01*
X97601614Y-67905696D01*
X97601615Y-67905697D01*
X97606597Y-67910679D01*
X97615863Y-67921047D01*
X97643850Y-67956142D01*
X97643851Y-67956143D01*
X97643852Y-67956144D01*
X97643854Y-67956146D01*
X97678946Y-67984131D01*
X97678951Y-67984135D01*
X97689317Y-67993400D01*
X97694302Y-67998385D01*
X97694304Y-67998386D01*
X97694306Y-67998388D01*
X97695375Y-67999005D01*
X97710686Y-68009443D01*
X97732033Y-68026467D01*
X97732036Y-68026468D01*
X97732037Y-68026469D01*
X97793593Y-68056113D01*
X97801786Y-68060443D01*
X97807826Y-68063930D01*
X97815347Y-68067045D01*
X97815213Y-68067366D01*
X97822814Y-68070185D01*
X97833650Y-68075403D01*
X97943607Y-68100500D01*
X102056393Y-68100500D01*
X102166350Y-68075403D01*
X102177179Y-68070187D01*
X102184793Y-68067365D01*
X102184659Y-68067042D01*
X102192160Y-68063934D01*
X102192167Y-68063933D01*
X102198202Y-68060448D01*
X102206398Y-68056117D01*
X102219029Y-68050034D01*
X102267967Y-68026467D01*
X102289310Y-68009445D01*
X102304629Y-67999003D01*
X102305692Y-67998389D01*
X102305691Y-67998389D01*
X102305694Y-67998388D01*
X102310682Y-67993400D01*
X102321054Y-67984131D01*
X102356146Y-67956146D01*
X102384131Y-67921054D01*
X102393402Y-67910680D01*
X102398386Y-67905696D01*
X102398389Y-67905692D01*
X102399003Y-67904629D01*
X102409445Y-67889310D01*
X102426467Y-67867967D01*
X102454005Y-67810783D01*
X102456117Y-67806398D01*
X102460448Y-67798202D01*
X102463933Y-67792167D01*
X102463934Y-67792160D01*
X102467042Y-67784659D01*
X102467365Y-67784793D01*
X102470187Y-67777179D01*
X102475403Y-67766350D01*
X102500500Y-67656393D01*
X102500500Y-67600000D01*
X102500500Y-67599500D01*
X102500500Y-67099793D01*
X102500500Y-67043607D01*
X102475403Y-66933650D01*
X102470185Y-66922814D01*
X102467366Y-66915213D01*
X102467045Y-66915347D01*
X102463930Y-66907826D01*
X102460443Y-66901786D01*
X102456113Y-66893593D01*
X102426469Y-66832037D01*
X102426468Y-66832036D01*
X102426467Y-66832033D01*
X102409442Y-66810684D01*
X102399005Y-66795375D01*
X102398388Y-66794306D01*
X102398386Y-66794304D01*
X102398385Y-66794302D01*
X102393400Y-66789317D01*
X102384135Y-66778951D01*
X102356146Y-66743854D01*
X102356144Y-66743852D01*
X102356143Y-66743851D01*
X102356142Y-66743850D01*
X102321047Y-66715863D01*
X102310679Y-66706597D01*
X102305697Y-66701615D01*
X102305695Y-66701613D01*
X102305694Y-66701612D01*
X102305691Y-66701610D01*
X102305687Y-66701607D01*
X102304614Y-66700988D01*
X102289315Y-66690556D01*
X102267966Y-66673532D01*
X102267967Y-66673532D01*
X102206399Y-66643883D01*
X102198209Y-66639555D01*
X102192164Y-66636065D01*
X102184662Y-66632958D01*
X102184793Y-66632639D01*
X102177192Y-66629818D01*
X102166352Y-66624598D01*
X102166342Y-66624594D01*
X102056397Y-66599500D01*
X102056393Y-66599500D01*
X102000207Y-66599500D01*
X98000500Y-66599500D01*
X98000000Y-66599500D01*
X97943607Y-66599500D01*
X97943602Y-66599500D01*
X97833649Y-66624596D01*
X97822804Y-66629819D01*
X97815205Y-66632640D01*
X97815337Y-66632958D01*
X97807835Y-66636065D01*
X97801797Y-66639551D01*
X97793614Y-66643875D01*
X97732033Y-66673532D01*
X97732032Y-66673532D01*
X97710684Y-66690557D01*
X97695387Y-66700987D01*
X97695011Y-66701204D01*
X97694303Y-66701613D01*
X97694298Y-66701617D01*
X97689307Y-66706608D01*
X97678955Y-66715859D01*
X97643853Y-66743853D01*
X97615859Y-66778955D01*
X97606608Y-66789307D01*
X97601617Y-66794298D01*
X97601613Y-66794303D01*
X97601204Y-66795011D01*
X97600999Y-66795369D01*
X97600990Y-66795384D01*
X97590557Y-66810684D01*
X97573532Y-66832032D01*
X97573532Y-66832033D01*
X97543875Y-66893614D01*
X97539551Y-66901797D01*
X97536253Y-66907510D01*
X97536067Y-66907833D01*
X97534859Y-66912339D01*
X97524597Y-66933650D01*
X97499500Y-67043607D01*
X94327740Y-67043607D01*
X94327740Y-66986612D01*
X94324943Y-66956776D01*
X94324943Y-66956772D01*
X94280968Y-66831099D01*
X94201905Y-66723971D01*
X94094777Y-66644908D01*
X94094773Y-66644906D01*
X94094772Y-66644906D01*
X93969105Y-66600932D01*
X93939270Y-66598135D01*
X92915219Y-66598135D01*
X92885382Y-66600932D01*
X92885377Y-66600933D01*
X92815454Y-66625400D01*
X92745675Y-66628961D01*
X92685048Y-66594232D01*
X92652821Y-66532238D01*
X92650500Y-66508358D01*
X92650500Y-58546543D01*
X92670185Y-58479504D01*
X92686819Y-58458862D01*
X95458862Y-55686819D01*
X95520185Y-55653334D01*
X95546543Y-55650500D01*
X102220614Y-55650500D01*
X102287653Y-55670185D01*
X102308295Y-55686819D01*
X102361985Y-55740509D01*
X102361986Y-55740510D01*
X102361988Y-55740511D01*
X102487511Y-55812982D01*
X102487512Y-55812982D01*
X102487515Y-55812984D01*
X102627525Y-55850500D01*
X102627528Y-55850500D01*
X102772472Y-55850500D01*
X102772475Y-55850500D01*
X102912485Y-55812984D01*
X103038015Y-55740509D01*
X103140509Y-55638015D01*
X103212984Y-55512485D01*
X103250500Y-55372475D01*
X103250500Y-55227525D01*
X103212984Y-55087515D01*
X103173734Y-55019533D01*
X103140511Y-54961988D01*
X103140506Y-54961982D01*
X103038017Y-54859493D01*
X103038011Y-54859488D01*
X102912488Y-54787017D01*
X102912489Y-54787017D01*
X102901006Y-54783940D01*
X102772475Y-54749500D01*
X102627525Y-54749500D01*
X102498993Y-54783940D01*
X102487511Y-54787017D01*
X102361988Y-54859488D01*
X102361982Y-54859493D01*
X102308295Y-54913181D01*
X102246972Y-54946666D01*
X102220614Y-54949500D01*
X95303856Y-54949500D01*
X95214712Y-54973386D01*
X95214711Y-54973386D01*
X95214709Y-54973387D01*
X95214706Y-54973388D01*
X95134794Y-55019526D01*
X95134785Y-55019533D01*
X92019531Y-58134786D01*
X92019527Y-58134791D01*
X91973387Y-58214709D01*
X91973386Y-58214712D01*
X91949500Y-58303856D01*
X90983500Y-58303856D01*
X90983500Y-55649066D01*
X90983765Y-55640957D01*
X90983958Y-55638011D01*
X90998681Y-55413378D01*
X90999670Y-55403911D01*
X91007090Y-55352308D01*
X91008193Y-55345868D01*
X91047313Y-55149194D01*
X91049935Y-55138524D01*
X91062358Y-55096216D01*
X91063878Y-55091410D01*
X91131233Y-54892988D01*
X91135829Y-54881410D01*
X91146481Y-54858084D01*
X91148016Y-54854853D01*
X91247789Y-54652533D01*
X91255897Y-54638493D01*
X91392174Y-54434539D01*
X91402039Y-54421681D01*
X91563786Y-54237244D01*
X91575244Y-54225786D01*
X91759681Y-54064039D01*
X91772534Y-54054177D01*
X91976493Y-53917897D01*
X91990533Y-53909789D01*
X92192853Y-53810016D01*
X92196084Y-53808481D01*
X92219410Y-53797829D01*
X92230988Y-53793233D01*
X92429410Y-53725878D01*
X92434216Y-53724358D01*
X92476524Y-53711935D01*
X92487194Y-53709313D01*
X92683868Y-53670193D01*
X92690308Y-53669090D01*
X92741911Y-53661670D01*
X92751378Y-53660681D01*
X92966057Y-53646610D01*
X92978958Y-53645765D01*
X92987067Y-53645500D01*
X99999793Y-53645500D01*
X107012933Y-53645500D01*
X107021042Y-53645765D01*
G37*
%TD.AperFunction*%
%TD*%
M02*
