%TF.GenerationSoftware,KiCad,Pcbnew,10.0.5*%
%TF.CreationDate,2026-08-11T15:31:43-07:00*%
%TF.ProjectId,JFET String Preamp Bridge,4a464554-2053-4747-9269-6e6720507265,rev?*%
%TF.SameCoordinates,Original*%
%TF.FileFunction,Legend,Bot*%
%TF.FilePolarity,Positive*%
%FSLAX46Y46*%
G04 Gerber Fmt 4.6, Leading zero omitted, Abs format (unit mm)*
G04 Created by KiCad (PCBNEW 10.0.5) date 2026-08-11 15:31:43*
%MOMM*%
%LPD*%
G01*
G04 APERTURE LIST*
G04 Aperture macros list*
%AMRoundRect*
0 Rectangle with rounded corners*
0 $1 Rounding radius*
0 $2 $3 $4 $5 $6 $7 $8 $9 X,Y pos of 4 corners*
0 Add a 4 corners polygon primitive as box body*
4,1,4,$2,$3,$4,$5,$6,$7,$8,$9,$2,$3,0*
0 Add four circle primitives for the rounded corners*
1,1,$1+$1,$2,$3*
1,1,$1+$1,$4,$5*
1,1,$1+$1,$6,$7*
1,1,$1+$1,$8,$9*
0 Add four rect primitives between the rounded corners*
20,1,$1+$1,$2,$3,$4,$5,0*
20,1,$1+$1,$4,$5,$6,$7,0*
20,1,$1+$1,$6,$7,$8,$9,0*
20,1,$1+$1,$8,$9,$2,$3,0*%
G04 Aperture macros list end*
%ADD10C,0.150000*%
%ADD11C,0.120000*%
%ADD12RoundRect,0.191177X-0.458823X-0.458823X0.458823X-0.458823X0.458823X0.458823X-0.458823X0.458823X0*%
%ADD13RoundRect,0.150000X0.150000X0.625000X-0.150000X0.625000X-0.150000X-0.625000X0.150000X-0.625000X0*%
%ADD14RoundRect,0.250000X0.350000X0.650000X-0.350000X0.650000X-0.350000X-0.650000X0.350000X-0.650000X0*%
G04 APERTURE END LIST*
D10*
X100233333Y-54474819D02*
X100233333Y-55189104D01*
X100233333Y-55189104D02*
X100280952Y-55331961D01*
X100280952Y-55331961D02*
X100376190Y-55427200D01*
X100376190Y-55427200D02*
X100519047Y-55474819D01*
X100519047Y-55474819D02*
X100614285Y-55474819D01*
X99709523Y-55474819D02*
X99519047Y-55474819D01*
X99519047Y-55474819D02*
X99423809Y-55427200D01*
X99423809Y-55427200D02*
X99376190Y-55379580D01*
X99376190Y-55379580D02*
X99280952Y-55236723D01*
X99280952Y-55236723D02*
X99233333Y-55046247D01*
X99233333Y-55046247D02*
X99233333Y-54665295D01*
X99233333Y-54665295D02*
X99280952Y-54570057D01*
X99280952Y-54570057D02*
X99328571Y-54522438D01*
X99328571Y-54522438D02*
X99423809Y-54474819D01*
X99423809Y-54474819D02*
X99614285Y-54474819D01*
X99614285Y-54474819D02*
X99709523Y-54522438D01*
X99709523Y-54522438D02*
X99757142Y-54570057D01*
X99757142Y-54570057D02*
X99804761Y-54665295D01*
X99804761Y-54665295D02*
X99804761Y-54903390D01*
X99804761Y-54903390D02*
X99757142Y-54998628D01*
X99757142Y-54998628D02*
X99709523Y-55046247D01*
X99709523Y-55046247D02*
X99614285Y-55093866D01*
X99614285Y-55093866D02*
X99423809Y-55093866D01*
X99423809Y-55093866D02*
X99328571Y-55046247D01*
X99328571Y-55046247D02*
X99280952Y-54998628D01*
X99280952Y-54998628D02*
X99233333Y-54903390D01*
%TO.C,J9*%
D11*
X95790000Y-57215000D02*
X96840000Y-57215000D01*
X95790000Y-59715000D02*
X95790000Y-57215000D01*
X102840000Y-61685000D02*
X96960000Y-61685000D01*
X102960000Y-57215000D02*
X102960000Y-56225000D01*
X104010000Y-57215000D02*
X102960000Y-57215000D01*
X104010000Y-59715000D02*
X104010000Y-57215000D01*
%TD*%
%LPC*%
D12*
%TO.C,J3*%
X106572759Y-67498635D03*
%TD*%
%TO.C,J2*%
X106572759Y-77781365D03*
%TD*%
%TO.C,J11*%
X106572759Y-103978635D03*
%TD*%
%TO.C,J14*%
X93427241Y-122218635D03*
%TD*%
%TO.C,J15*%
X106572759Y-122218635D03*
%TD*%
%TO.C,J8*%
X106572759Y-96021365D03*
%TD*%
%TO.C,J1*%
X93427241Y-67498635D03*
%TD*%
%TO.C,J5*%
X93427241Y-85738635D03*
%TD*%
%TO.C,J10*%
X93427241Y-103978635D03*
%TD*%
%TO.C,J16*%
X93427241Y-132501365D03*
%TD*%
%TO.C,J4*%
X93427241Y-77781365D03*
%TD*%
%TO.C,J6*%
X106572759Y-85738635D03*
%TD*%
%TO.C,J13*%
X106572759Y-114261365D03*
%TD*%
%TO.C,J7*%
X93427241Y-96021365D03*
%TD*%
%TO.C,J17*%
X106572759Y-132501365D03*
%TD*%
%TO.C,J12*%
X93427241Y-114261365D03*
%TD*%
D13*
%TO.C,J9*%
X102400000Y-57000000D03*
X101400000Y-57000000D03*
X100400000Y-57000000D03*
X99400000Y-57000000D03*
X98400000Y-57000000D03*
X97400000Y-57000000D03*
D14*
X103700000Y-60875000D03*
X96100000Y-60875000D03*
%TD*%
%LPD*%
M02*
