%TF.GenerationSoftware,KiCad,Pcbnew,10.0.5*%
%TF.CreationDate,2026-08-12T12:57:42-07:00*%
%TF.ProjectId,JFET String Preamp Bridge,4a464554-2053-4747-9269-6e6720507265,rev?*%
%TF.SameCoordinates,Original*%
%TF.FileFunction,Copper,L2,Bot*%
%TF.FilePolarity,Positive*%
%FSLAX46Y46*%
G04 Gerber Fmt 4.6, Leading zero omitted, Abs format (unit mm)*
G04 Created by KiCad (PCBNEW 10.0.5) date 2026-08-12 12:57:42*
%MOMM*%
%LPD*%
G01*
G04 APERTURE LIST*
G04 Aperture macros list*
%AMRoundRect*
0 Rectangle with rounded corners*
0 $1 Rounding radius*
0 $2 $3 $4 $5 $6 $7 $8 $9 X,Y pos of 4 corners*
0 Add a 4 corners polygon primitive as box body*
4,1,4,$2,$3,$4,$5,$6,$7,$8,$9,$2,$3,0*
0 Add four circle primitives for the rounded corners*
1,1,$1+$1,$2,$3*
1,1,$1+$1,$4,$5*
1,1,$1+$1,$6,$7*
1,1,$1+$1,$8,$9*
0 Add four rect primitives between the rounded corners*
20,1,$1+$1,$2,$3,$4,$5,0*
20,1,$1+$1,$4,$5,$6,$7,0*
20,1,$1+$1,$6,$7,$8,$9,0*
20,1,$1+$1,$8,$9,$2,$3,0*%
G04 Aperture macros list end*
%TA.AperFunction,ComponentPad*%
%ADD10RoundRect,0.191177X-0.458823X-0.458823X0.458823X-0.458823X0.458823X0.458823X-0.458823X0.458823X0*%
%TD*%
%TA.AperFunction,SMDPad,CuDef*%
%ADD11RoundRect,0.150000X0.150000X0.625000X-0.150000X0.625000X-0.150000X-0.625000X0.150000X-0.625000X0*%
%TD*%
%TA.AperFunction,SMDPad,CuDef*%
%ADD12RoundRect,0.250000X0.350000X0.650000X-0.350000X0.650000X-0.350000X-0.650000X0.350000X-0.650000X0*%
%TD*%
%TA.AperFunction,ViaPad*%
%ADD13C,0.600000*%
%TD*%
%TA.AperFunction,Conductor*%
%ADD14C,0.200000*%
%TD*%
G04 APERTURE END LIST*
D10*
%TO.P,J3,1,Pin_1_1*%
%TO.N,Net-(J3-Pin_1)*%
X106572759Y-67498635D03*
%TD*%
%TO.P,J2,1,Pin_1_1*%
%TO.N,GND*%
X106572759Y-77781365D03*
%TD*%
%TO.P,J11,1,Pin_1_1*%
%TO.N,Net-(J11-Pin_1)*%
X106572759Y-103978635D03*
%TD*%
%TO.P,J14,1,Pin_1_1*%
%TO.N,Net-(J14-Pin_1)*%
X93427241Y-122218635D03*
%TD*%
%TO.P,J15,1,Pin_1_1*%
%TO.N,Net-(J15-Pin_1)*%
X106572759Y-122218635D03*
%TD*%
%TO.P,J8,1,Pin_1_1*%
%TO.N,GND*%
X106572759Y-96021365D03*
%TD*%
%TO.P,J1,1,Pin_1_1*%
%TO.N,Net-(J1-Pin_1)*%
X93427241Y-67498635D03*
%TD*%
%TO.P,J5,1,Pin_1_1*%
%TO.N,Net-(J5-Pin_1)*%
X93427241Y-85738635D03*
%TD*%
%TO.P,J10,1,Pin_1_1*%
%TO.N,Net-(J10-Pin_1)*%
X93427241Y-103978635D03*
%TD*%
%TO.P,J16,1,Pin_1_1*%
%TO.N,Net-(J15-Pin_1)*%
X93427241Y-132501365D03*
%TD*%
%TO.P,J4,1,Pin_1_1*%
%TO.N,Net-(J3-Pin_1)*%
X93427241Y-77781365D03*
%TD*%
%TO.P,J6,1,Pin_1_1*%
%TO.N,Net-(J6-Pin_1)*%
X106572759Y-85738635D03*
%TD*%
%TO.P,J13,1,Pin_1_1*%
%TO.N,GND*%
X106572759Y-114261365D03*
%TD*%
%TO.P,J7,1,Pin_1_1*%
%TO.N,Net-(J6-Pin_1)*%
X93427241Y-96021365D03*
%TD*%
%TO.P,J17,1,Pin_1_1*%
%TO.N,GND*%
X106572759Y-132501365D03*
%TD*%
%TO.P,J12,1,Pin_1_1*%
%TO.N,Net-(J11-Pin_1)*%
X93427241Y-114261365D03*
%TD*%
D11*
%TO.P,J9,1,Pin_1_1*%
%TO.N,/SIngle FET preamp/3.7V*%
X102400000Y-57000000D03*
%TO.P,J9,2,Pin_2_2*%
%TO.N,/SIngle FET preamp/Output*%
X101400000Y-57000000D03*
%TO.P,J9,3,Pin_3_3*%
%TO.N,/SIngle FET preamp1/Output*%
X100400000Y-57000000D03*
%TO.P,J9,4,Pin_4_4*%
%TO.N,/SIngle FET preamp2/Output*%
X99400000Y-57000000D03*
%TO.P,J9,5,Pin_5_5*%
%TO.N,/SIngle FET preamp3/Output*%
X98400000Y-57000000D03*
%TO.P,J9,6,Pin_6_6*%
%TO.N,GND*%
X97400000Y-57000000D03*
D12*
%TO.P,J9,MP*%
%TO.N,N/C*%
X103700000Y-60875000D03*
X96100000Y-60875000D03*
%TD*%
D13*
%TO.N,GND*%
X103900000Y-115900000D03*
X94300000Y-135900000D03*
X103335000Y-128472500D03*
X103335000Y-110232500D03*
X95100000Y-120000000D03*
X105400000Y-71150000D03*
X94650000Y-99900000D03*
X95450000Y-115700000D03*
X101150000Y-93700000D03*
X94900000Y-94750000D03*
X101100000Y-111950000D03*
X99750000Y-81550000D03*
X99750000Y-87400000D03*
X104250000Y-136250000D03*
X94300000Y-58400000D03*
X106200000Y-60850000D03*
X94950000Y-112950000D03*
X100150000Y-69650000D03*
X107450000Y-84250000D03*
X104000000Y-142100000D03*
X94600000Y-81250000D03*
X100000000Y-64850000D03*
X100300000Y-75500000D03*
X103335000Y-73752500D03*
X103335000Y-91992500D03*
X94750000Y-64750000D03*
X106850000Y-99900000D03*
X103750000Y-78900000D03*
X99750000Y-124400000D03*
X94500000Y-75850000D03*
X94350000Y-142000000D03*
X100650000Y-99850000D03*
X102000000Y-119900000D03*
%TO.N,/SIngle FET preamp/3.7V*%
X102700000Y-55300000D03*
%TO.N,/SIngle FET preamp1/Output*%
X105500000Y-73250000D03*
%TO.N,/SIngle FET preamp3/Output*%
X106200000Y-117600000D03*
%TO.N,/SIngle FET preamp2/Output*%
X105350000Y-92950000D03*
%TO.N,/SIngle FET preamp/Output*%
X105150000Y-70100000D03*
%TD*%
%TO.N,GND*%
D14*
X106621619Y-96147983D02*
X106621619Y-95279119D01*
X106691619Y-131791619D02*
X103405000Y-128505000D01*
X106521619Y-113589119D02*
X103235000Y-110302500D01*
X106521619Y-114457983D02*
X106521619Y-113589119D01*
X106621619Y-77039119D02*
X103335000Y-73752500D01*
X106621619Y-95279119D02*
X103335000Y-91992500D01*
X106621619Y-77907983D02*
X106621619Y-77039119D01*
X106691619Y-132660483D02*
X106691619Y-131791619D01*
%TO.N,/SIngle FET preamp/3.7V*%
X102400000Y-55600000D02*
X102700000Y-55300000D01*
X102400000Y-57000000D02*
X102400000Y-55600000D01*
%TO.N,/SIngle FET preamp1/Output*%
X100400000Y-60500000D02*
X100400000Y-57000000D01*
X104500000Y-72250000D02*
X104500000Y-64600000D01*
X105500000Y-73250000D02*
X104500000Y-72250000D01*
X104500000Y-64600000D02*
X100400000Y-60500000D01*
%TO.N,/SIngle FET preamp3/Output*%
X107750000Y-116050000D02*
X106200000Y-117600000D01*
X99876001Y-54749000D02*
X102928232Y-54749000D01*
X107750000Y-86569069D02*
X107750000Y-116050000D01*
X108550000Y-85769069D02*
X107750000Y-86569069D01*
X107700000Y-75250000D02*
X108550000Y-76100000D01*
X102928232Y-54749000D02*
X107700000Y-59520768D01*
X108550000Y-76100000D02*
X108550000Y-85769069D01*
X98400000Y-57000000D02*
X98400000Y-56225001D01*
X107700000Y-59520768D02*
X107700000Y-75250000D01*
X98400000Y-56225001D02*
X99876001Y-54749000D01*
%TO.N,/SIngle FET preamp2/Output*%
X103800000Y-72600000D02*
X107800000Y-76600000D01*
X105400000Y-92900000D02*
X105350000Y-92950000D01*
X105400000Y-84700000D02*
X105400000Y-92900000D01*
X107800000Y-82300000D02*
X105400000Y-84700000D01*
X107800000Y-76600000D02*
X107800000Y-82300000D01*
X99400000Y-57000000D02*
X99400000Y-60600000D01*
X103800000Y-65000000D02*
X103800000Y-72600000D01*
X99400000Y-60600000D02*
X103800000Y-65000000D01*
%TO.N,/SIngle FET preamp/Output*%
X101400000Y-60350000D02*
X105150000Y-64100000D01*
X101400000Y-57000000D02*
X101400000Y-60350000D01*
X105150000Y-64100000D02*
X105150000Y-70100000D01*
%TD*%
%TA.AperFunction,Conductor*%
%TO.N,GND*%
G36*
X108118834Y-82579362D02*
G01*
X108174767Y-82621234D01*
X108199184Y-82686698D01*
X108199500Y-82695544D01*
X108199500Y-85572525D01*
X108179815Y-85639564D01*
X108163181Y-85660206D01*
X107684939Y-86138447D01*
X107623616Y-86171932D01*
X107553924Y-86166948D01*
X107497991Y-86125076D01*
X107473574Y-86059612D01*
X107473258Y-86050788D01*
X107473258Y-85226611D01*
X107470461Y-85196772D01*
X107426486Y-85071099D01*
X107347423Y-84963971D01*
X107240295Y-84884908D01*
X107240291Y-84884906D01*
X107240290Y-84884906D01*
X107114623Y-84840932D01*
X107084788Y-84838135D01*
X107084784Y-84838135D01*
X107083372Y-84838135D01*
X106057837Y-84838136D01*
X106057837Y-84836891D01*
X105994703Y-84821476D01*
X105946563Y-84770838D01*
X105933441Y-84702212D01*
X105959505Y-84637385D01*
X105969172Y-84626509D01*
X107987819Y-82607863D01*
X108049142Y-82574378D01*
X108118834Y-82579362D01*
G37*
%TD.AperFunction*%
%TA.AperFunction,Conductor*%
G36*
X105705703Y-68153188D02*
G01*
X105724264Y-68173261D01*
X105798095Y-68273299D01*
X105905223Y-68352362D01*
X105950794Y-68368308D01*
X106030894Y-68396337D01*
X106038679Y-68397066D01*
X106060734Y-68399135D01*
X107084783Y-68399134D01*
X107114622Y-68396337D01*
X107155295Y-68382104D01*
X107184545Y-68371870D01*
X107254324Y-68368308D01*
X107314951Y-68403036D01*
X107347179Y-68465029D01*
X107349500Y-68488911D01*
X107349500Y-75296145D01*
X107360643Y-75337733D01*
X107358979Y-75407583D01*
X107319816Y-75465445D01*
X107255587Y-75492948D01*
X107186685Y-75481361D01*
X107153187Y-75457506D01*
X106750802Y-75055121D01*
X105664172Y-73968490D01*
X105630687Y-73907167D01*
X105635671Y-73837475D01*
X105677543Y-73781542D01*
X105705715Y-73767866D01*
X105704981Y-73766092D01*
X105712479Y-73762985D01*
X105712485Y-73762984D01*
X105838015Y-73690509D01*
X105940509Y-73588015D01*
X106012984Y-73462485D01*
X106050500Y-73322475D01*
X106050500Y-73177525D01*
X106012984Y-73037515D01*
X105940509Y-72911985D01*
X105838015Y-72809491D01*
X105838013Y-72809490D01*
X105838011Y-72809488D01*
X105712488Y-72737017D01*
X105712489Y-72737017D01*
X105701006Y-72733940D01*
X105572475Y-72699500D01*
X105572472Y-72699500D01*
X105496544Y-72699500D01*
X105429505Y-72679815D01*
X105408863Y-72663181D01*
X104886819Y-72141137D01*
X104853334Y-72079814D01*
X104850500Y-72053456D01*
X104850500Y-70751268D01*
X104870185Y-70684229D01*
X104922989Y-70638474D01*
X104992147Y-70628530D01*
X105006580Y-70631490D01*
X105077525Y-70650500D01*
X105077528Y-70650500D01*
X105222472Y-70650500D01*
X105222475Y-70650500D01*
X105362485Y-70612984D01*
X105488015Y-70540509D01*
X105590509Y-70438015D01*
X105662984Y-70312485D01*
X105700500Y-70172475D01*
X105700500Y-70027525D01*
X105662984Y-69887515D01*
X105590509Y-69761985D01*
X105536819Y-69708295D01*
X105503334Y-69646972D01*
X105500500Y-69620614D01*
X105500500Y-68246901D01*
X105520185Y-68179862D01*
X105572989Y-68134107D01*
X105642147Y-68124163D01*
X105705703Y-68153188D01*
G37*
%TD.AperFunction*%
%TA.AperFunction,Conductor*%
G36*
X103274371Y-55606667D02*
G01*
X103318718Y-55635168D01*
X107313181Y-59629631D01*
X107346666Y-59690954D01*
X107349500Y-59717312D01*
X107349500Y-66508358D01*
X107329815Y-66575397D01*
X107277011Y-66621152D01*
X107207853Y-66631096D01*
X107184546Y-66625400D01*
X107114619Y-66600932D01*
X107114622Y-66600932D01*
X107084788Y-66598135D01*
X106060737Y-66598135D01*
X106030900Y-66600932D01*
X106030890Y-66600934D01*
X105905227Y-66644906D01*
X105905225Y-66644907D01*
X105905224Y-66644907D01*
X105905223Y-66644908D01*
X105798095Y-66723971D01*
X105798094Y-66723972D01*
X105798093Y-66723973D01*
X105724270Y-66824001D01*
X105668623Y-66866252D01*
X105598967Y-66871711D01*
X105537417Y-66838644D01*
X105503516Y-66777550D01*
X105500500Y-66750368D01*
X105500500Y-64053858D01*
X105500500Y-64053856D01*
X105476614Y-63964712D01*
X105430470Y-63884788D01*
X103782862Y-62237180D01*
X103749377Y-62175857D01*
X103754361Y-62106165D01*
X103796233Y-62050232D01*
X103861697Y-62025815D01*
X103870543Y-62025499D01*
X104097871Y-62025499D01*
X104097872Y-62025499D01*
X104157483Y-62019091D01*
X104292331Y-61968796D01*
X104407546Y-61882546D01*
X104493796Y-61767331D01*
X104544091Y-61632483D01*
X104550500Y-61572873D01*
X104550499Y-60177128D01*
X104544091Y-60117517D01*
X104493796Y-59982669D01*
X104493795Y-59982668D01*
X104493793Y-59982664D01*
X104407547Y-59867455D01*
X104407544Y-59867452D01*
X104292335Y-59781206D01*
X104292328Y-59781202D01*
X104157482Y-59730908D01*
X104157483Y-59730908D01*
X104097883Y-59724501D01*
X104097881Y-59724500D01*
X104097873Y-59724500D01*
X104097864Y-59724500D01*
X103302129Y-59724500D01*
X103302123Y-59724501D01*
X103242516Y-59730908D01*
X103107671Y-59781202D01*
X103107664Y-59781206D01*
X102992455Y-59867452D01*
X102992452Y-59867455D01*
X102906206Y-59982664D01*
X102906202Y-59982671D01*
X102855908Y-60117517D01*
X102849501Y-60177116D01*
X102849501Y-60177123D01*
X102849500Y-60177135D01*
X102849500Y-61004456D01*
X102829815Y-61071495D01*
X102777011Y-61117250D01*
X102707853Y-61127194D01*
X102644297Y-61098169D01*
X102637819Y-61092137D01*
X101786819Y-60241137D01*
X101753334Y-60179814D01*
X101750500Y-60153456D01*
X101750500Y-58042254D01*
X101770185Y-57975215D01*
X101786817Y-57954574D01*
X101788339Y-57953051D01*
X101788342Y-57953050D01*
X101812320Y-57929071D01*
X101873639Y-57895588D01*
X101943330Y-57900571D01*
X101987680Y-57929073D01*
X102011652Y-57953045D01*
X102011654Y-57953046D01*
X102011658Y-57953050D01*
X102124694Y-58010645D01*
X102124698Y-58010647D01*
X102218475Y-58025499D01*
X102218481Y-58025500D01*
X102581518Y-58025499D01*
X102675304Y-58010646D01*
X102788342Y-57953050D01*
X102878050Y-57863342D01*
X102935646Y-57750304D01*
X102935646Y-57750302D01*
X102935647Y-57750301D01*
X102950499Y-57656524D01*
X102950500Y-57656519D01*
X102950499Y-56343482D01*
X102935646Y-56249696D01*
X102878050Y-56136658D01*
X102878046Y-56136654D01*
X102878045Y-56136652D01*
X102786819Y-56045426D01*
X102753334Y-55984103D01*
X102750500Y-55957745D01*
X102750500Y-55951536D01*
X102770185Y-55884497D01*
X102822989Y-55838742D01*
X102842396Y-55831764D01*
X102912485Y-55812984D01*
X103038015Y-55740509D01*
X103140509Y-55638015D01*
X103140509Y-55638014D01*
X103143356Y-55635168D01*
X103204679Y-55601683D01*
X103274371Y-55606667D01*
G37*
%TD.AperFunction*%
%TA.AperFunction,Conductor*%
G36*
X107021042Y-53645765D02*
G01*
X107035399Y-53646705D01*
X107248615Y-53660680D01*
X107258094Y-53661671D01*
X107309679Y-53669088D01*
X107316143Y-53670195D01*
X107512794Y-53709311D01*
X107523485Y-53711938D01*
X107565755Y-53724350D01*
X107570617Y-53725887D01*
X107768997Y-53793228D01*
X107780602Y-53797835D01*
X107803855Y-53808454D01*
X107807182Y-53810034D01*
X108009460Y-53909787D01*
X108023506Y-53917897D01*
X108227460Y-54054174D01*
X108240329Y-54064048D01*
X108424749Y-54225781D01*
X108436218Y-54237250D01*
X108597951Y-54421670D01*
X108607825Y-54434539D01*
X108744102Y-54638493D01*
X108752212Y-54652539D01*
X108851964Y-54854816D01*
X108853544Y-54858143D01*
X108860183Y-54872679D01*
X108864155Y-54881377D01*
X108868780Y-54893027D01*
X108936099Y-55091346D01*
X108937656Y-55096268D01*
X108950054Y-55138490D01*
X108952694Y-55149235D01*
X108991796Y-55345818D01*
X108992917Y-55352362D01*
X109000325Y-55403885D01*
X109001321Y-55413422D01*
X109016234Y-55640941D01*
X109016500Y-55649051D01*
X109016500Y-73955228D01*
X109015771Y-73964515D01*
X109017396Y-73966745D01*
X109028923Y-73967880D01*
X109443655Y-74050334D01*
X109448602Y-74051425D01*
X109540751Y-74073758D01*
X109545132Y-74074906D01*
X109914189Y-74178955D01*
X109919295Y-74180516D01*
X110007989Y-74209767D01*
X110012039Y-74211181D01*
X110373420Y-74344467D01*
X110378640Y-74346529D01*
X110462481Y-74381912D01*
X110466102Y-74383510D01*
X110818378Y-74545878D01*
X110823739Y-74548508D01*
X110901256Y-74588878D01*
X110904553Y-74590658D01*
X111246289Y-74782008D01*
X111251630Y-74785178D01*
X111321576Y-74829121D01*
X111324456Y-74830987D01*
X111464655Y-74924651D01*
X111654318Y-75051361D01*
X111659637Y-75055121D01*
X111720815Y-75100834D01*
X111723299Y-75102741D01*
X112039909Y-75352304D01*
X112045144Y-75356669D01*
X112096298Y-75401762D01*
X112098467Y-75403720D01*
X112400615Y-75682991D01*
X112405672Y-75687941D01*
X112445738Y-75729467D01*
X112447522Y-75731356D01*
X112734085Y-76041326D01*
X112738915Y-76046873D01*
X112766913Y-76081023D01*
X112768360Y-76082824D01*
X113038195Y-76425076D01*
X113042746Y-76431230D01*
X113057727Y-76452853D01*
X113058899Y-76454576D01*
X113310990Y-76831821D01*
X113315182Y-76838550D01*
X113316415Y-76840678D01*
X113317311Y-76842251D01*
X113429477Y-77042521D01*
X113539803Y-77239506D01*
X113548378Y-77254815D01*
X113552795Y-77263483D01*
X113603888Y-77374303D01*
X113751616Y-77694726D01*
X113755343Y-77703722D01*
X113919714Y-78149235D01*
X113922723Y-78158495D01*
X114051630Y-78615532D01*
X114053903Y-78625000D01*
X114146551Y-79090740D01*
X114148074Y-79100357D01*
X114203892Y-79571926D01*
X114204656Y-79581634D01*
X114223300Y-80056132D01*
X114223300Y-80065868D01*
X114204656Y-80540365D01*
X114203892Y-80550073D01*
X114148074Y-81021642D01*
X114146551Y-81031259D01*
X114053903Y-81496999D01*
X114051630Y-81506467D01*
X113922723Y-81963504D01*
X113919714Y-81972764D01*
X113755343Y-82418277D01*
X113751616Y-82427273D01*
X113552799Y-82858508D01*
X113548378Y-82867184D01*
X113317311Y-83279747D01*
X113316415Y-83281320D01*
X113315182Y-83283448D01*
X113310990Y-83290177D01*
X113058899Y-83667422D01*
X113057727Y-83669145D01*
X113042746Y-83690768D01*
X113038195Y-83696922D01*
X112768360Y-84039174D01*
X112766878Y-84041018D01*
X112738927Y-84075112D01*
X112734085Y-84080672D01*
X112447522Y-84390642D01*
X112445707Y-84392564D01*
X112405686Y-84434044D01*
X112400615Y-84439007D01*
X112098467Y-84718278D01*
X112096298Y-84720236D01*
X112045144Y-84765329D01*
X112039909Y-84769694D01*
X111723299Y-85019257D01*
X111720760Y-85021206D01*
X111659657Y-85066863D01*
X111654318Y-85070637D01*
X111324474Y-85290999D01*
X111321555Y-85292890D01*
X111251651Y-85336807D01*
X111246267Y-85340003D01*
X110904561Y-85531335D01*
X110901256Y-85533120D01*
X110823739Y-85573490D01*
X110818368Y-85576125D01*
X110466125Y-85738477D01*
X110462434Y-85740106D01*
X110378697Y-85775446D01*
X110373391Y-85777542D01*
X110012040Y-85910816D01*
X110007969Y-85912238D01*
X109919336Y-85941469D01*
X109914147Y-85943055D01*
X109545161Y-86047084D01*
X109540720Y-86048248D01*
X109448647Y-86070563D01*
X109443620Y-86071672D01*
X109028923Y-86154120D01*
X109017394Y-86155254D01*
X109015771Y-86157488D01*
X109016500Y-86166770D01*
X109016500Y-113833228D01*
X109015771Y-113842515D01*
X109017396Y-113844745D01*
X109028923Y-113845880D01*
X109443655Y-113928334D01*
X109448602Y-113929425D01*
X109540751Y-113951758D01*
X109545132Y-113952906D01*
X109914189Y-114056955D01*
X109919295Y-114058516D01*
X110007989Y-114087767D01*
X110012039Y-114089181D01*
X110373420Y-114222467D01*
X110378640Y-114224529D01*
X110462481Y-114259912D01*
X110466102Y-114261510D01*
X110818378Y-114423878D01*
X110823739Y-114426508D01*
X110901256Y-114466878D01*
X110904553Y-114468658D01*
X111246275Y-114660000D01*
X111251630Y-114663178D01*
X111321576Y-114707121D01*
X111324456Y-114708987D01*
X111465526Y-114803233D01*
X111654318Y-114929361D01*
X111659637Y-114933121D01*
X111720815Y-114978834D01*
X111723295Y-114980738D01*
X111893744Y-115115092D01*
X112039909Y-115230304D01*
X112045144Y-115234669D01*
X112096298Y-115279762D01*
X112098467Y-115281720D01*
X112400615Y-115560991D01*
X112405672Y-115565941D01*
X112445738Y-115607467D01*
X112447522Y-115609356D01*
X112734085Y-115919326D01*
X112738915Y-115924873D01*
X112766913Y-115959023D01*
X112768360Y-115960824D01*
X113038195Y-116303076D01*
X113042746Y-116309230D01*
X113057727Y-116330853D01*
X113058899Y-116332576D01*
X113310990Y-116709821D01*
X113315182Y-116716550D01*
X113316415Y-116718678D01*
X113317311Y-116720251D01*
X113429477Y-116920521D01*
X113522727Y-117087017D01*
X113548378Y-117132815D01*
X113552795Y-117141483D01*
X113608350Y-117261982D01*
X113751616Y-117572726D01*
X113755343Y-117581722D01*
X113919714Y-118027235D01*
X113922723Y-118036495D01*
X114051630Y-118493532D01*
X114053903Y-118503000D01*
X114146551Y-118968740D01*
X114148074Y-118978357D01*
X114203892Y-119449926D01*
X114204656Y-119459634D01*
X114223300Y-119934132D01*
X114223300Y-119943868D01*
X114204656Y-120418365D01*
X114203892Y-120428073D01*
X114148074Y-120899642D01*
X114146551Y-120909259D01*
X114053903Y-121374999D01*
X114051630Y-121384467D01*
X113922723Y-121841504D01*
X113919714Y-121850764D01*
X113755343Y-122296277D01*
X113751616Y-122305273D01*
X113552799Y-122736508D01*
X113548378Y-122745184D01*
X113317311Y-123157747D01*
X113316415Y-123159320D01*
X113315182Y-123161448D01*
X113310990Y-123168177D01*
X113058899Y-123545422D01*
X113057727Y-123547145D01*
X113042746Y-123568768D01*
X113038195Y-123574922D01*
X112768360Y-123917174D01*
X112766878Y-123919018D01*
X112738927Y-123953112D01*
X112734085Y-123958672D01*
X112447522Y-124268642D01*
X112445707Y-124270564D01*
X112405686Y-124312044D01*
X112400615Y-124317007D01*
X112098467Y-124596278D01*
X112096298Y-124598236D01*
X112045144Y-124643329D01*
X112039909Y-124647694D01*
X111723299Y-124897257D01*
X111720760Y-124899206D01*
X111659657Y-124944863D01*
X111654318Y-124948637D01*
X111324474Y-125168999D01*
X111321555Y-125170890D01*
X111251651Y-125214807D01*
X111246267Y-125218003D01*
X110904561Y-125409335D01*
X110901256Y-125411120D01*
X110823739Y-125451490D01*
X110818368Y-125454125D01*
X110466125Y-125616477D01*
X110462434Y-125618106D01*
X110378697Y-125653446D01*
X110373391Y-125655542D01*
X110012040Y-125788816D01*
X110007969Y-125790238D01*
X109919336Y-125819469D01*
X109914147Y-125821055D01*
X109545161Y-125925084D01*
X109540720Y-125926248D01*
X109448647Y-125948563D01*
X109443620Y-125949672D01*
X109028923Y-126032120D01*
X109017394Y-126033254D01*
X109015771Y-126035488D01*
X109016500Y-126044770D01*
X109016500Y-144350948D01*
X109016234Y-144359058D01*
X109001321Y-144586576D01*
X109000325Y-144596113D01*
X108992917Y-144647636D01*
X108991796Y-144654180D01*
X108952694Y-144850763D01*
X108950054Y-144861508D01*
X108937656Y-144903730D01*
X108936099Y-144908652D01*
X108868780Y-145106971D01*
X108864152Y-145118630D01*
X108853544Y-145141855D01*
X108851964Y-145145182D01*
X108752212Y-145347460D01*
X108744102Y-145361506D01*
X108607825Y-145565460D01*
X108597951Y-145578329D01*
X108436218Y-145762749D01*
X108424749Y-145774218D01*
X108240329Y-145935951D01*
X108227460Y-145945825D01*
X108023506Y-146082102D01*
X108009460Y-146090212D01*
X107807182Y-146189964D01*
X107803855Y-146191544D01*
X107780630Y-146202152D01*
X107768971Y-146206780D01*
X107570652Y-146274099D01*
X107565730Y-146275656D01*
X107523508Y-146288054D01*
X107512763Y-146290694D01*
X107316180Y-146329796D01*
X107309636Y-146330917D01*
X107258113Y-146338325D01*
X107248576Y-146339321D01*
X107021058Y-146354234D01*
X107012948Y-146354500D01*
X92987052Y-146354500D01*
X92978942Y-146354234D01*
X92751422Y-146339321D01*
X92741885Y-146338325D01*
X92690362Y-146330917D01*
X92683818Y-146329796D01*
X92487235Y-146290694D01*
X92476490Y-146288054D01*
X92434268Y-146275656D01*
X92429346Y-146274099D01*
X92289997Y-146226797D01*
X92231023Y-146206778D01*
X92219377Y-146202155D01*
X92210679Y-146198183D01*
X92196143Y-146191544D01*
X92192816Y-146189964D01*
X91990539Y-146090212D01*
X91976493Y-146082102D01*
X91772539Y-145945825D01*
X91759670Y-145935951D01*
X91575250Y-145774218D01*
X91563781Y-145762749D01*
X91402048Y-145578329D01*
X91392174Y-145565460D01*
X91255897Y-145361506D01*
X91247787Y-145347460D01*
X91148034Y-145145182D01*
X91146454Y-145141855D01*
X91135835Y-145118602D01*
X91131228Y-145106997D01*
X91063887Y-144908617D01*
X91062350Y-144903755D01*
X91049938Y-144861485D01*
X91047311Y-144850794D01*
X91008195Y-144654143D01*
X91007088Y-144647679D01*
X90999671Y-144596094D01*
X90998680Y-144586615D01*
X90983765Y-144359042D01*
X90983500Y-144350933D01*
X90983500Y-131989335D01*
X92526741Y-131989335D01*
X92526741Y-133013386D01*
X92529538Y-133043223D01*
X92529540Y-133043233D01*
X92573186Y-133167964D01*
X92573514Y-133168901D01*
X92652577Y-133276029D01*
X92759705Y-133355092D01*
X92784974Y-133363934D01*
X92885376Y-133399067D01*
X92893161Y-133399796D01*
X92915216Y-133401865D01*
X93939265Y-133401864D01*
X93969104Y-133399067D01*
X94094777Y-133355092D01*
X94201905Y-133276029D01*
X94280968Y-133168901D01*
X94305707Y-133098202D01*
X94324943Y-133043230D01*
X94324943Y-133043228D01*
X94327492Y-133016042D01*
X94327741Y-133013390D01*
X94327740Y-132343607D01*
X97499500Y-132343607D01*
X97499500Y-132352151D01*
X97499500Y-132956397D01*
X97524594Y-133066342D01*
X97524598Y-133066352D01*
X97529818Y-133077192D01*
X97532639Y-133084793D01*
X97532958Y-133084662D01*
X97536065Y-133092164D01*
X97539555Y-133098209D01*
X97543883Y-133106399D01*
X97573532Y-133167967D01*
X97590556Y-133189315D01*
X97600988Y-133204614D01*
X97601607Y-133205687D01*
X97601610Y-133205691D01*
X97601612Y-133205694D01*
X97601614Y-133205696D01*
X97601615Y-133205697D01*
X97606597Y-133210679D01*
X97615863Y-133221047D01*
X97643850Y-133256142D01*
X97643851Y-133256143D01*
X97643852Y-133256144D01*
X97643854Y-133256146D01*
X97678946Y-133284131D01*
X97678951Y-133284135D01*
X97689317Y-133293400D01*
X97694302Y-133298385D01*
X97694304Y-133298386D01*
X97694306Y-133298388D01*
X97695375Y-133299005D01*
X97710686Y-133309443D01*
X97732033Y-133326467D01*
X97732036Y-133326468D01*
X97732037Y-133326469D01*
X97793593Y-133356113D01*
X97801786Y-133360443D01*
X97807826Y-133363930D01*
X97815347Y-133367045D01*
X97815213Y-133367366D01*
X97822814Y-133370185D01*
X97833650Y-133375403D01*
X97943607Y-133400500D01*
X102056393Y-133400500D01*
X102166350Y-133375403D01*
X102177179Y-133370187D01*
X102184793Y-133367365D01*
X102184659Y-133367042D01*
X102192160Y-133363934D01*
X102192167Y-133363933D01*
X102198202Y-133360448D01*
X102206398Y-133356117D01*
X102219029Y-133350034D01*
X102267967Y-133326467D01*
X102289310Y-133309445D01*
X102304629Y-133299003D01*
X102305692Y-133298389D01*
X102305691Y-133298389D01*
X102305694Y-133298388D01*
X102310682Y-133293400D01*
X102321054Y-133284131D01*
X102356146Y-133256146D01*
X102384131Y-133221054D01*
X102393402Y-133210680D01*
X102398386Y-133205696D01*
X102398389Y-133205692D01*
X102399003Y-133204629D01*
X102409445Y-133189310D01*
X102426467Y-133167967D01*
X102454005Y-133110783D01*
X102456117Y-133106398D01*
X102460448Y-133098202D01*
X102463933Y-133092167D01*
X102463934Y-133092160D01*
X102467042Y-133084659D01*
X102467365Y-133084793D01*
X102470187Y-133077179D01*
X102475403Y-133066350D01*
X102486885Y-133016042D01*
X105422759Y-133016042D01*
X105429087Y-133085687D01*
X105479024Y-133245941D01*
X105565854Y-133389577D01*
X105565857Y-133389581D01*
X105684542Y-133508266D01*
X105684546Y-133508269D01*
X105828182Y-133595099D01*
X105988436Y-133645036D01*
X106058082Y-133651365D01*
X106322759Y-133651365D01*
X106822759Y-133651365D01*
X107087436Y-133651365D01*
X107157081Y-133645036D01*
X107317335Y-133595099D01*
X107460971Y-133508269D01*
X107460975Y-133508266D01*
X107579660Y-133389581D01*
X107579663Y-133389577D01*
X107666493Y-133245941D01*
X107716430Y-133085687D01*
X107722759Y-133016042D01*
X107722759Y-132751365D01*
X106822759Y-132751365D01*
X106822759Y-133651365D01*
X106322759Y-133651365D01*
X106322759Y-132751365D01*
X105422759Y-132751365D01*
X105422759Y-133016042D01*
X102486885Y-133016042D01*
X102500500Y-132956393D01*
X102500500Y-132900000D01*
X102500500Y-132899500D01*
X102500500Y-132461583D01*
X106372759Y-132461583D01*
X106372759Y-132541147D01*
X106403207Y-132614656D01*
X106459468Y-132670917D01*
X106532977Y-132701365D01*
X106612541Y-132701365D01*
X106686050Y-132670917D01*
X106742311Y-132614656D01*
X106772759Y-132541147D01*
X106772759Y-132461583D01*
X106742311Y-132388074D01*
X106686050Y-132331813D01*
X106612541Y-132301365D01*
X106532977Y-132301365D01*
X106459468Y-132331813D01*
X106403207Y-132388074D01*
X106372759Y-132461583D01*
X102500500Y-132461583D01*
X102500500Y-132399793D01*
X102500500Y-132343607D01*
X102475403Y-132233650D01*
X102465139Y-132212338D01*
X102463933Y-132207833D01*
X102458129Y-132197780D01*
X102426467Y-132132033D01*
X102403653Y-132103425D01*
X102398388Y-132094306D01*
X102388475Y-132084393D01*
X102356146Y-132043854D01*
X102316919Y-132012571D01*
X102313073Y-132008927D01*
X102312842Y-132008530D01*
X102310679Y-132006597D01*
X102305697Y-132001615D01*
X102305695Y-132001613D01*
X102305694Y-132001612D01*
X102305691Y-132001610D01*
X102305687Y-132001607D01*
X102304614Y-132000988D01*
X102289315Y-131990556D01*
X102284463Y-131986687D01*
X105422759Y-131986687D01*
X105422759Y-132251365D01*
X106322759Y-132251365D01*
X106822759Y-132251365D01*
X107722759Y-132251365D01*
X107722759Y-131986687D01*
X107716430Y-131917042D01*
X107666493Y-131756788D01*
X107579663Y-131613152D01*
X107579660Y-131613148D01*
X107460975Y-131494463D01*
X107460971Y-131494460D01*
X107317335Y-131407630D01*
X107157081Y-131357693D01*
X107087436Y-131351365D01*
X106822759Y-131351365D01*
X106822759Y-132251365D01*
X106322759Y-132251365D01*
X106322759Y-131351365D01*
X106058082Y-131351365D01*
X105988436Y-131357693D01*
X105828182Y-131407630D01*
X105684546Y-131494460D01*
X105684542Y-131494463D01*
X105565857Y-131613148D01*
X105565854Y-131613152D01*
X105479024Y-131756788D01*
X105429087Y-131917042D01*
X105422759Y-131986687D01*
X102284463Y-131986687D01*
X102267966Y-131973532D01*
X102267967Y-131973532D01*
X102206399Y-131943883D01*
X102198209Y-131939555D01*
X102192164Y-131936065D01*
X102184662Y-131932958D01*
X102184793Y-131932639D01*
X102177192Y-131929818D01*
X102166352Y-131924598D01*
X102166342Y-131924594D01*
X102056397Y-131899500D01*
X102056393Y-131899500D01*
X102000207Y-131899500D01*
X100000207Y-131899500D01*
X98000500Y-131899500D01*
X98000000Y-131899500D01*
X97943607Y-131899500D01*
X97943602Y-131899500D01*
X97833649Y-131924596D01*
X97822804Y-131929819D01*
X97815205Y-131932640D01*
X97815337Y-131932958D01*
X97807835Y-131936065D01*
X97801797Y-131939551D01*
X97793614Y-131943875D01*
X97732033Y-131973532D01*
X97732032Y-131973532D01*
X97710684Y-131990557D01*
X97695387Y-132000987D01*
X97695011Y-132001204D01*
X97694303Y-132001613D01*
X97694298Y-132001617D01*
X97689307Y-132006608D01*
X97678955Y-132015859D01*
X97643853Y-132043853D01*
X97615859Y-132078955D01*
X97606608Y-132089307D01*
X97601617Y-132094298D01*
X97601613Y-132094303D01*
X97600990Y-132095384D01*
X97590557Y-132110684D01*
X97573532Y-132132032D01*
X97573532Y-132132033D01*
X97543875Y-132193614D01*
X97539551Y-132201797D01*
X97536253Y-132207510D01*
X97536067Y-132207833D01*
X97534859Y-132212339D01*
X97524597Y-132233650D01*
X97499500Y-132343607D01*
X94327740Y-132343607D01*
X94327740Y-131989341D01*
X94324943Y-131959502D01*
X94280968Y-131833829D01*
X94201905Y-131726701D01*
X94094777Y-131647638D01*
X94094773Y-131647636D01*
X94094772Y-131647636D01*
X93969105Y-131603662D01*
X93939270Y-131600865D01*
X92915219Y-131600865D01*
X92885382Y-131603662D01*
X92885372Y-131603664D01*
X92759709Y-131647636D01*
X92759707Y-131647637D01*
X92759706Y-131647637D01*
X92759705Y-131647638D01*
X92652577Y-131726701D01*
X92573513Y-131833831D01*
X92573512Y-131833833D01*
X92529538Y-131959499D01*
X92529538Y-131959501D01*
X92526741Y-131989335D01*
X90983500Y-131989335D01*
X90983500Y-126044771D01*
X90984228Y-126035486D01*
X90982606Y-126033254D01*
X90971077Y-126032120D01*
X90556378Y-125949672D01*
X90551351Y-125948563D01*
X90459278Y-125926248D01*
X90454837Y-125925084D01*
X90085851Y-125821055D01*
X90080662Y-125819469D01*
X89992029Y-125790238D01*
X89987958Y-125788816D01*
X89626607Y-125655542D01*
X89621315Y-125653451D01*
X89569874Y-125631742D01*
X89537564Y-125618106D01*
X89533873Y-125616477D01*
X89181630Y-125454125D01*
X89176259Y-125451490D01*
X89098742Y-125411120D01*
X89095437Y-125409335D01*
X88753731Y-125218003D01*
X88748347Y-125214807D01*
X88678443Y-125170890D01*
X88675524Y-125168999D01*
X88345680Y-124948637D01*
X88340341Y-124944863D01*
X88279207Y-124899182D01*
X88276699Y-124897257D01*
X87960089Y-124647694D01*
X87954854Y-124643329D01*
X87903700Y-124598236D01*
X87901531Y-124596278D01*
X87599383Y-124317007D01*
X87594326Y-124312057D01*
X87554255Y-124270526D01*
X87552476Y-124268642D01*
X87265913Y-123958672D01*
X87261088Y-123953131D01*
X87233066Y-123918952D01*
X87231638Y-123917174D01*
X86961803Y-123574922D01*
X86957252Y-123568768D01*
X86942271Y-123547145D01*
X86941099Y-123545422D01*
X86689008Y-123168177D01*
X86684816Y-123161448D01*
X86683583Y-123159320D01*
X86682687Y-123157747D01*
X86451612Y-122745166D01*
X86447209Y-122736526D01*
X86248383Y-122305273D01*
X86244656Y-122296277D01*
X86080281Y-121850753D01*
X86077276Y-121841503D01*
X86047906Y-121737371D01*
X86039228Y-121706605D01*
X92526741Y-121706605D01*
X92526741Y-122730656D01*
X92529538Y-122760493D01*
X92529540Y-122760503D01*
X92573512Y-122886166D01*
X92573514Y-122886171D01*
X92652577Y-122993299D01*
X92759705Y-123072362D01*
X92805388Y-123088347D01*
X92885376Y-123116337D01*
X92893161Y-123117066D01*
X92915216Y-123119135D01*
X93939265Y-123119134D01*
X93969104Y-123116337D01*
X94094777Y-123072362D01*
X94201905Y-122993299D01*
X94280968Y-122886171D01*
X94314553Y-122790191D01*
X94324943Y-122760500D01*
X94324943Y-122760498D01*
X94324943Y-122760493D01*
X94327741Y-122730660D01*
X94327740Y-121763607D01*
X97499500Y-121763607D01*
X97499500Y-121772151D01*
X97499500Y-122376397D01*
X97524594Y-122486342D01*
X97524598Y-122486352D01*
X97529818Y-122497192D01*
X97532639Y-122504793D01*
X97532958Y-122504662D01*
X97536065Y-122512164D01*
X97539555Y-122518209D01*
X97543883Y-122526399D01*
X97573532Y-122587967D01*
X97590556Y-122609315D01*
X97600988Y-122624614D01*
X97601607Y-122625687D01*
X97601610Y-122625691D01*
X97601612Y-122625694D01*
X97601614Y-122625696D01*
X97601615Y-122625697D01*
X97606597Y-122630679D01*
X97615863Y-122641047D01*
X97643850Y-122676142D01*
X97643851Y-122676143D01*
X97643852Y-122676144D01*
X97643854Y-122676146D01*
X97678946Y-122704131D01*
X97678951Y-122704135D01*
X97689317Y-122713400D01*
X97694302Y-122718385D01*
X97694304Y-122718386D01*
X97694306Y-122718388D01*
X97695375Y-122719005D01*
X97710686Y-122729443D01*
X97732033Y-122746467D01*
X97732036Y-122746468D01*
X97732037Y-122746469D01*
X97793593Y-122776113D01*
X97801786Y-122780443D01*
X97807826Y-122783930D01*
X97815347Y-122787045D01*
X97815213Y-122787366D01*
X97822814Y-122790185D01*
X97833650Y-122795403D01*
X97943607Y-122820500D01*
X102056393Y-122820500D01*
X102166350Y-122795403D01*
X102177179Y-122790187D01*
X102184793Y-122787365D01*
X102184659Y-122787042D01*
X102192160Y-122783934D01*
X102192167Y-122783933D01*
X102198202Y-122780448D01*
X102206398Y-122776117D01*
X102219029Y-122770034D01*
X102267967Y-122746467D01*
X102289310Y-122729445D01*
X102304629Y-122719003D01*
X102305692Y-122718389D01*
X102305691Y-122718389D01*
X102305694Y-122718388D01*
X102310682Y-122713400D01*
X102321054Y-122704131D01*
X102356146Y-122676146D01*
X102384131Y-122641054D01*
X102393402Y-122630680D01*
X102398386Y-122625696D01*
X102398389Y-122625692D01*
X102399003Y-122624629D01*
X102409445Y-122609310D01*
X102426467Y-122587967D01*
X102454005Y-122530783D01*
X102456117Y-122526398D01*
X102460448Y-122518202D01*
X102463933Y-122512167D01*
X102463934Y-122512160D01*
X102467042Y-122504659D01*
X102467365Y-122504793D01*
X102470187Y-122497179D01*
X102475403Y-122486350D01*
X102500500Y-122376393D01*
X102500500Y-122320000D01*
X102500500Y-122319500D01*
X102500500Y-121819793D01*
X102500500Y-121763607D01*
X102487490Y-121706605D01*
X105672259Y-121706605D01*
X105672259Y-122730656D01*
X105675056Y-122760493D01*
X105675058Y-122760503D01*
X105719030Y-122886166D01*
X105719032Y-122886171D01*
X105798095Y-122993299D01*
X105905223Y-123072362D01*
X105950906Y-123088347D01*
X106030894Y-123116337D01*
X106038679Y-123117066D01*
X106060734Y-123119135D01*
X107084783Y-123119134D01*
X107114622Y-123116337D01*
X107240295Y-123072362D01*
X107347423Y-122993299D01*
X107426486Y-122886171D01*
X107460071Y-122790191D01*
X107470461Y-122760500D01*
X107470461Y-122760498D01*
X107470461Y-122760493D01*
X107473259Y-122730660D01*
X107473258Y-121706611D01*
X107470461Y-121676772D01*
X107426486Y-121551099D01*
X107347423Y-121443971D01*
X107240295Y-121364908D01*
X107240291Y-121364906D01*
X107240290Y-121364906D01*
X107114623Y-121320932D01*
X107084788Y-121318135D01*
X106060737Y-121318135D01*
X106030900Y-121320932D01*
X106030890Y-121320934D01*
X105905227Y-121364906D01*
X105905225Y-121364907D01*
X105905224Y-121364907D01*
X105905223Y-121364908D01*
X105798095Y-121443971D01*
X105742349Y-121519506D01*
X105719031Y-121551101D01*
X105719030Y-121551103D01*
X105675056Y-121676769D01*
X105675056Y-121676771D01*
X105672259Y-121706605D01*
X102487490Y-121706605D01*
X102475403Y-121653650D01*
X102465443Y-121632968D01*
X102464159Y-121628381D01*
X102463930Y-121627826D01*
X102460443Y-121621786D01*
X102456113Y-121613593D01*
X102426469Y-121552037D01*
X102426468Y-121552036D01*
X102426467Y-121552033D01*
X102409442Y-121530684D01*
X102399005Y-121515375D01*
X102398388Y-121514306D01*
X102398386Y-121514304D01*
X102398385Y-121514302D01*
X102393400Y-121509317D01*
X102384135Y-121498951D01*
X102356146Y-121463854D01*
X102356144Y-121463852D01*
X102356143Y-121463851D01*
X102356142Y-121463850D01*
X102321047Y-121435863D01*
X102310679Y-121426597D01*
X102305697Y-121421615D01*
X102305695Y-121421613D01*
X102305694Y-121421612D01*
X102305691Y-121421610D01*
X102305687Y-121421607D01*
X102304614Y-121420988D01*
X102289315Y-121410556D01*
X102267966Y-121393532D01*
X102267967Y-121393532D01*
X102206399Y-121363883D01*
X102198209Y-121359555D01*
X102192164Y-121356065D01*
X102184662Y-121352958D01*
X102184793Y-121352639D01*
X102177192Y-121349818D01*
X102166352Y-121344598D01*
X102166342Y-121344594D01*
X102056397Y-121319500D01*
X102056393Y-121319500D01*
X102000207Y-121319500D01*
X98000500Y-121319500D01*
X98000000Y-121319500D01*
X97943607Y-121319500D01*
X97943602Y-121319500D01*
X97833649Y-121344596D01*
X97822804Y-121349819D01*
X97815205Y-121352640D01*
X97815337Y-121352958D01*
X97807835Y-121356065D01*
X97801797Y-121359551D01*
X97793614Y-121363875D01*
X97732033Y-121393532D01*
X97732032Y-121393532D01*
X97710684Y-121410557D01*
X97695387Y-121420987D01*
X97695011Y-121421204D01*
X97694303Y-121421613D01*
X97694298Y-121421617D01*
X97689307Y-121426608D01*
X97678955Y-121435859D01*
X97643853Y-121463853D01*
X97615859Y-121498955D01*
X97606608Y-121509307D01*
X97601617Y-121514298D01*
X97601613Y-121514303D01*
X97601204Y-121515011D01*
X97600999Y-121515369D01*
X97600990Y-121515384D01*
X97590557Y-121530684D01*
X97573532Y-121552032D01*
X97573532Y-121552033D01*
X97543875Y-121613614D01*
X97539551Y-121621797D01*
X97536253Y-121627510D01*
X97536067Y-121627833D01*
X97534859Y-121632339D01*
X97524597Y-121653650D01*
X97499500Y-121763607D01*
X94327740Y-121763607D01*
X94327740Y-121706611D01*
X94324943Y-121676772D01*
X94280968Y-121551099D01*
X94201905Y-121443971D01*
X94094777Y-121364908D01*
X94094773Y-121364906D01*
X94094772Y-121364906D01*
X93969105Y-121320932D01*
X93939270Y-121318135D01*
X92915219Y-121318135D01*
X92885382Y-121320932D01*
X92885372Y-121320934D01*
X92759709Y-121364906D01*
X92759707Y-121364907D01*
X92759706Y-121364907D01*
X92759705Y-121364908D01*
X92652577Y-121443971D01*
X92596831Y-121519506D01*
X92573513Y-121551101D01*
X92573512Y-121551103D01*
X92529538Y-121676769D01*
X92529538Y-121676771D01*
X92526741Y-121706605D01*
X86039228Y-121706605D01*
X86010084Y-121603275D01*
X85948365Y-121384450D01*
X85946100Y-121375016D01*
X85853445Y-120909242D01*
X85851927Y-120899660D01*
X85796105Y-120428056D01*
X85795344Y-120418381D01*
X85776699Y-119943860D01*
X85776699Y-119934132D01*
X85781500Y-119811943D01*
X85781519Y-119811465D01*
X86822595Y-119811465D01*
X86822595Y-120066534D01*
X86840809Y-120181531D01*
X86862494Y-120318446D01*
X86941311Y-120561020D01*
X87057105Y-120788278D01*
X87207024Y-120994623D01*
X87387377Y-121174976D01*
X87593722Y-121324895D01*
X87820980Y-121440689D01*
X88063554Y-121519506D01*
X88193342Y-121540062D01*
X88315466Y-121559405D01*
X88315471Y-121559405D01*
X88570534Y-121559405D01*
X88681862Y-121541771D01*
X88822446Y-121519506D01*
X89065020Y-121440689D01*
X89292278Y-121324895D01*
X89498623Y-121174976D01*
X89678976Y-120994623D01*
X89828895Y-120788278D01*
X89944689Y-120561020D01*
X90023506Y-120318446D01*
X90045771Y-120177862D01*
X90063405Y-120066534D01*
X90063405Y-119811465D01*
X109936595Y-119811465D01*
X109936595Y-120066534D01*
X109954809Y-120181531D01*
X109976494Y-120318446D01*
X110055311Y-120561020D01*
X110171105Y-120788278D01*
X110321024Y-120994623D01*
X110501377Y-121174976D01*
X110707722Y-121324895D01*
X110934980Y-121440689D01*
X111177554Y-121519506D01*
X111307342Y-121540062D01*
X111429466Y-121559405D01*
X111429471Y-121559405D01*
X111684534Y-121559405D01*
X111795862Y-121541771D01*
X111936446Y-121519506D01*
X112179020Y-121440689D01*
X112406278Y-121324895D01*
X112612623Y-121174976D01*
X112792976Y-120994623D01*
X112942895Y-120788278D01*
X113058689Y-120561020D01*
X113137506Y-120318446D01*
X113159771Y-120177862D01*
X113177405Y-120066534D01*
X113177405Y-119811465D01*
X113156245Y-119677870D01*
X113137506Y-119559554D01*
X113058689Y-119316980D01*
X112942895Y-119089722D01*
X112792976Y-118883377D01*
X112612623Y-118703024D01*
X112406278Y-118553105D01*
X112179020Y-118437311D01*
X111936446Y-118358494D01*
X111684534Y-118318595D01*
X111684529Y-118318595D01*
X111429471Y-118318595D01*
X111429466Y-118318595D01*
X111177553Y-118358494D01*
X110934977Y-118437312D01*
X110707721Y-118553105D01*
X110589994Y-118638639D01*
X110501377Y-118703024D01*
X110501375Y-118703026D01*
X110501374Y-118703026D01*
X110321026Y-118883374D01*
X110321026Y-118883375D01*
X110321024Y-118883377D01*
X110318188Y-118887281D01*
X110171105Y-119089721D01*
X110055312Y-119316977D01*
X109976494Y-119559553D01*
X109936595Y-119811465D01*
X90063405Y-119811465D01*
X90042245Y-119677870D01*
X90023506Y-119559554D01*
X89944689Y-119316980D01*
X89828895Y-119089722D01*
X89678976Y-118883377D01*
X89498623Y-118703024D01*
X89292278Y-118553105D01*
X89065020Y-118437311D01*
X88822446Y-118358494D01*
X88570534Y-118318595D01*
X88570529Y-118318595D01*
X88315471Y-118318595D01*
X88315466Y-118318595D01*
X88063553Y-118358494D01*
X87820977Y-118437312D01*
X87593721Y-118553105D01*
X87475994Y-118638639D01*
X87387377Y-118703024D01*
X87387375Y-118703026D01*
X87387374Y-118703026D01*
X87207026Y-118883374D01*
X87207026Y-118883375D01*
X87207024Y-118883377D01*
X87204188Y-118887281D01*
X87057105Y-119089721D01*
X86941312Y-119316977D01*
X86862494Y-119559553D01*
X86822595Y-119811465D01*
X85781519Y-119811465D01*
X85795344Y-119459614D01*
X85796105Y-119449945D01*
X85851928Y-118978335D01*
X85853444Y-118968761D01*
X85946101Y-118502977D01*
X85948363Y-118493554D01*
X86077281Y-118036477D01*
X86080278Y-118027253D01*
X86244659Y-117581713D01*
X86248383Y-117572726D01*
X86269223Y-117527525D01*
X86447214Y-117141463D01*
X86451606Y-117132843D01*
X86682773Y-116720099D01*
X86683507Y-116718810D01*
X86684833Y-116716521D01*
X86688985Y-116709857D01*
X86941132Y-116332526D01*
X86942221Y-116330926D01*
X86957278Y-116309193D01*
X86961779Y-116303107D01*
X87231729Y-115960710D01*
X87232985Y-115959147D01*
X87261116Y-115924834D01*
X87265885Y-115919357D01*
X87552554Y-115609272D01*
X87554167Y-115607565D01*
X87594360Y-115565906D01*
X87599351Y-115561021D01*
X87901605Y-115281652D01*
X87903628Y-115279826D01*
X87954888Y-115234640D01*
X87960053Y-115230333D01*
X88276780Y-114980678D01*
X88279109Y-114978890D01*
X88340397Y-114933095D01*
X88345649Y-114929382D01*
X88675608Y-114708944D01*
X88678357Y-114707163D01*
X88748403Y-114663157D01*
X88753674Y-114660028D01*
X89095501Y-114468628D01*
X89098677Y-114466913D01*
X89176301Y-114426487D01*
X89181588Y-114423893D01*
X89533943Y-114261489D01*
X89537472Y-114259932D01*
X89621389Y-114224517D01*
X89626549Y-114222478D01*
X89987997Y-114089168D01*
X89991974Y-114087778D01*
X90080729Y-114058508D01*
X90085784Y-114056963D01*
X90454894Y-113952898D01*
X90459222Y-113951764D01*
X90551417Y-113929420D01*
X90556323Y-113928338D01*
X90983048Y-113843500D01*
X90983207Y-113843500D01*
X90983238Y-113843468D01*
X90983572Y-113843416D01*
X90983500Y-113842960D01*
X90983500Y-113749335D01*
X92526741Y-113749335D01*
X92526741Y-114773386D01*
X92529538Y-114803223D01*
X92529540Y-114803233D01*
X92573186Y-114927964D01*
X92573514Y-114928901D01*
X92652577Y-115036029D01*
X92759705Y-115115092D01*
X92784974Y-115123934D01*
X92885376Y-115159067D01*
X92893161Y-115159796D01*
X92915216Y-115161865D01*
X93939265Y-115161864D01*
X93969104Y-115159067D01*
X94094777Y-115115092D01*
X94201905Y-115036029D01*
X94280968Y-114928901D01*
X94305707Y-114858202D01*
X94324943Y-114803230D01*
X94324943Y-114803228D01*
X94327492Y-114776042D01*
X94327741Y-114773390D01*
X94327740Y-114103607D01*
X97499500Y-114103607D01*
X97499500Y-114112151D01*
X97499500Y-114716397D01*
X97524594Y-114826342D01*
X97524598Y-114826352D01*
X97529818Y-114837192D01*
X97532639Y-114844793D01*
X97532958Y-114844662D01*
X97536065Y-114852164D01*
X97539555Y-114858209D01*
X97543883Y-114866399D01*
X97573532Y-114927967D01*
X97590556Y-114949315D01*
X97600988Y-114964614D01*
X97601607Y-114965687D01*
X97601610Y-114965691D01*
X97601612Y-114965694D01*
X97601614Y-114965696D01*
X97601615Y-114965697D01*
X97606597Y-114970679D01*
X97615863Y-114981047D01*
X97643850Y-115016142D01*
X97643851Y-115016143D01*
X97643852Y-115016144D01*
X97643854Y-115016146D01*
X97678946Y-115044131D01*
X97678951Y-115044135D01*
X97689317Y-115053400D01*
X97694302Y-115058385D01*
X97694304Y-115058386D01*
X97694306Y-115058388D01*
X97695375Y-115059005D01*
X97710686Y-115069443D01*
X97732033Y-115086467D01*
X97732036Y-115086468D01*
X97732037Y-115086469D01*
X97793593Y-115116113D01*
X97801786Y-115120443D01*
X97807826Y-115123930D01*
X97815347Y-115127045D01*
X97815213Y-115127366D01*
X97822814Y-115130185D01*
X97833650Y-115135403D01*
X97943607Y-115160500D01*
X102056393Y-115160500D01*
X102166350Y-115135403D01*
X102177179Y-115130187D01*
X102184793Y-115127365D01*
X102184659Y-115127042D01*
X102192160Y-115123934D01*
X102192167Y-115123933D01*
X102198202Y-115120448D01*
X102206398Y-115116117D01*
X102219029Y-115110034D01*
X102267967Y-115086467D01*
X102289310Y-115069445D01*
X102304629Y-115059003D01*
X102305692Y-115058389D01*
X102305691Y-115058389D01*
X102305694Y-115058388D01*
X102310682Y-115053400D01*
X102321054Y-115044131D01*
X102356146Y-115016146D01*
X102384131Y-114981054D01*
X102393402Y-114970680D01*
X102398386Y-114965696D01*
X102398389Y-114965692D01*
X102399003Y-114964629D01*
X102409445Y-114949310D01*
X102426467Y-114927967D01*
X102454005Y-114870783D01*
X102456117Y-114866398D01*
X102460448Y-114858202D01*
X102463933Y-114852167D01*
X102463934Y-114852160D01*
X102467042Y-114844659D01*
X102467365Y-114844793D01*
X102470187Y-114837179D01*
X102475403Y-114826350D01*
X102486885Y-114776042D01*
X105422759Y-114776042D01*
X105429087Y-114845687D01*
X105479024Y-115005941D01*
X105565854Y-115149577D01*
X105565857Y-115149581D01*
X105684542Y-115268266D01*
X105684546Y-115268269D01*
X105828182Y-115355099D01*
X105988436Y-115405036D01*
X106058082Y-115411365D01*
X106322759Y-115411365D01*
X106322759Y-114511365D01*
X105422759Y-114511365D01*
X105422759Y-114776042D01*
X102486885Y-114776042D01*
X102500500Y-114716393D01*
X102500500Y-114660000D01*
X102500500Y-114659500D01*
X102500500Y-114221583D01*
X106372759Y-114221583D01*
X106372759Y-114301147D01*
X106403207Y-114374656D01*
X106459468Y-114430917D01*
X106532977Y-114461365D01*
X106612541Y-114461365D01*
X106686050Y-114430917D01*
X106742311Y-114374656D01*
X106772759Y-114301147D01*
X106772759Y-114221583D01*
X106742311Y-114148074D01*
X106686050Y-114091813D01*
X106612541Y-114061365D01*
X106532977Y-114061365D01*
X106459468Y-114091813D01*
X106403207Y-114148074D01*
X106372759Y-114221583D01*
X102500500Y-114221583D01*
X102500500Y-114159793D01*
X102500500Y-114103607D01*
X102475403Y-113993650D01*
X102465139Y-113972338D01*
X102463933Y-113967833D01*
X102458129Y-113957780D01*
X102426467Y-113892033D01*
X102403653Y-113863425D01*
X102398388Y-113854306D01*
X102388475Y-113844393D01*
X102356146Y-113803854D01*
X102316919Y-113772571D01*
X102313073Y-113768927D01*
X102312842Y-113768530D01*
X102310679Y-113766597D01*
X102305697Y-113761615D01*
X102305695Y-113761613D01*
X102305694Y-113761612D01*
X102305691Y-113761610D01*
X102305687Y-113761607D01*
X102304614Y-113760988D01*
X102289315Y-113750556D01*
X102284463Y-113746687D01*
X105422759Y-113746687D01*
X105422759Y-114011365D01*
X106322759Y-114011365D01*
X106322759Y-113111365D01*
X106058082Y-113111365D01*
X105988436Y-113117693D01*
X105828182Y-113167630D01*
X105684546Y-113254460D01*
X105684542Y-113254463D01*
X105565857Y-113373148D01*
X105565854Y-113373152D01*
X105479024Y-113516788D01*
X105429087Y-113677042D01*
X105422759Y-113746687D01*
X102284463Y-113746687D01*
X102267966Y-113733532D01*
X102267967Y-113733532D01*
X102206399Y-113703883D01*
X102198209Y-113699555D01*
X102192164Y-113696065D01*
X102184662Y-113692958D01*
X102184793Y-113692639D01*
X102177192Y-113689818D01*
X102166352Y-113684598D01*
X102166342Y-113684594D01*
X102056397Y-113659500D01*
X102056393Y-113659500D01*
X102000207Y-113659500D01*
X100000207Y-113659500D01*
X98000500Y-113659500D01*
X98000000Y-113659500D01*
X97943607Y-113659500D01*
X97943602Y-113659500D01*
X97833649Y-113684596D01*
X97822804Y-113689819D01*
X97815205Y-113692640D01*
X97815337Y-113692958D01*
X97807835Y-113696065D01*
X97801797Y-113699551D01*
X97793614Y-113703875D01*
X97732033Y-113733532D01*
X97732032Y-113733532D01*
X97710684Y-113750557D01*
X97695387Y-113760987D01*
X97695011Y-113761204D01*
X97694303Y-113761613D01*
X97694298Y-113761617D01*
X97689307Y-113766608D01*
X97678955Y-113775859D01*
X97643853Y-113803853D01*
X97615859Y-113838955D01*
X97606608Y-113849307D01*
X97601617Y-113854298D01*
X97601613Y-113854303D01*
X97600990Y-113855384D01*
X97590557Y-113870684D01*
X97573532Y-113892032D01*
X97573532Y-113892033D01*
X97543875Y-113953614D01*
X97539551Y-113961797D01*
X97536253Y-113967510D01*
X97536067Y-113967833D01*
X97534859Y-113972339D01*
X97524597Y-113993650D01*
X97499500Y-114103607D01*
X94327740Y-114103607D01*
X94327740Y-113749341D01*
X94324943Y-113719502D01*
X94280968Y-113593829D01*
X94201905Y-113486701D01*
X94094777Y-113407638D01*
X94094773Y-113407636D01*
X94094772Y-113407636D01*
X93969105Y-113363662D01*
X93939270Y-113360865D01*
X92915219Y-113360865D01*
X92885382Y-113363662D01*
X92885372Y-113363664D01*
X92759709Y-113407636D01*
X92759707Y-113407637D01*
X92759706Y-113407637D01*
X92759705Y-113407638D01*
X92652577Y-113486701D01*
X92573513Y-113593831D01*
X92573512Y-113593833D01*
X92529538Y-113719499D01*
X92529538Y-113719501D01*
X92526741Y-113749335D01*
X90983500Y-113749335D01*
X90983500Y-103466605D01*
X92526741Y-103466605D01*
X92526741Y-104490656D01*
X92529538Y-104520493D01*
X92529540Y-104520503D01*
X92573512Y-104646166D01*
X92573514Y-104646171D01*
X92652577Y-104753299D01*
X92759705Y-104832362D01*
X92805388Y-104848347D01*
X92885376Y-104876337D01*
X92893161Y-104877066D01*
X92915216Y-104879135D01*
X93939265Y-104879134D01*
X93969104Y-104876337D01*
X94094777Y-104832362D01*
X94201905Y-104753299D01*
X94280968Y-104646171D01*
X94314553Y-104550191D01*
X94324943Y-104520500D01*
X94324943Y-104520498D01*
X94324943Y-104520493D01*
X94327741Y-104490660D01*
X94327740Y-103523607D01*
X97499500Y-103523607D01*
X97499500Y-103532151D01*
X97499500Y-104136397D01*
X97524594Y-104246342D01*
X97524598Y-104246352D01*
X97529818Y-104257192D01*
X97532639Y-104264793D01*
X97532958Y-104264662D01*
X97536065Y-104272164D01*
X97539555Y-104278209D01*
X97543883Y-104286399D01*
X97573532Y-104347967D01*
X97590556Y-104369315D01*
X97600988Y-104384614D01*
X97601607Y-104385687D01*
X97601610Y-104385691D01*
X97601612Y-104385694D01*
X97601614Y-104385696D01*
X97601615Y-104385697D01*
X97606597Y-104390679D01*
X97615863Y-104401047D01*
X97643850Y-104436142D01*
X97643851Y-104436143D01*
X97643852Y-104436144D01*
X97643854Y-104436146D01*
X97678946Y-104464131D01*
X97678951Y-104464135D01*
X97689317Y-104473400D01*
X97694302Y-104478385D01*
X97694304Y-104478386D01*
X97694306Y-104478388D01*
X97695375Y-104479005D01*
X97710686Y-104489443D01*
X97732033Y-104506467D01*
X97732036Y-104506468D01*
X97732037Y-104506469D01*
X97793593Y-104536113D01*
X97801786Y-104540443D01*
X97807826Y-104543930D01*
X97815347Y-104547045D01*
X97815213Y-104547366D01*
X97822814Y-104550185D01*
X97833650Y-104555403D01*
X97943607Y-104580500D01*
X102056393Y-104580500D01*
X102166350Y-104555403D01*
X102177179Y-104550187D01*
X102184793Y-104547365D01*
X102184659Y-104547042D01*
X102192160Y-104543934D01*
X102192167Y-104543933D01*
X102198202Y-104540448D01*
X102206398Y-104536117D01*
X102219029Y-104530034D01*
X102267967Y-104506467D01*
X102289310Y-104489445D01*
X102304629Y-104479003D01*
X102305692Y-104478389D01*
X102305691Y-104478389D01*
X102305694Y-104478388D01*
X102310682Y-104473400D01*
X102321054Y-104464131D01*
X102356146Y-104436146D01*
X102384131Y-104401054D01*
X102393402Y-104390680D01*
X102398386Y-104385696D01*
X102398389Y-104385692D01*
X102399003Y-104384629D01*
X102409445Y-104369310D01*
X102426467Y-104347967D01*
X102454005Y-104290783D01*
X102456117Y-104286398D01*
X102460448Y-104278202D01*
X102463933Y-104272167D01*
X102463934Y-104272160D01*
X102467042Y-104264659D01*
X102467365Y-104264793D01*
X102470187Y-104257179D01*
X102475403Y-104246350D01*
X102500500Y-104136393D01*
X102500500Y-104080000D01*
X102500500Y-104079500D01*
X102500500Y-103579793D01*
X102500500Y-103523607D01*
X102475403Y-103413650D01*
X102470185Y-103402814D01*
X102467366Y-103395213D01*
X102467045Y-103395347D01*
X102463930Y-103387826D01*
X102460443Y-103381786D01*
X102456113Y-103373593D01*
X102426469Y-103312037D01*
X102426468Y-103312036D01*
X102426467Y-103312033D01*
X102409442Y-103290684D01*
X102399005Y-103275375D01*
X102398388Y-103274306D01*
X102398386Y-103274304D01*
X102398385Y-103274302D01*
X102393400Y-103269317D01*
X102384135Y-103258951D01*
X102356146Y-103223854D01*
X102356144Y-103223852D01*
X102356143Y-103223851D01*
X102356142Y-103223850D01*
X102321047Y-103195863D01*
X102310679Y-103186597D01*
X102305697Y-103181615D01*
X102305695Y-103181613D01*
X102305694Y-103181612D01*
X102305691Y-103181610D01*
X102305687Y-103181607D01*
X102304614Y-103180988D01*
X102289315Y-103170556D01*
X102267966Y-103153532D01*
X102267967Y-103153532D01*
X102206399Y-103123883D01*
X102198209Y-103119555D01*
X102192164Y-103116065D01*
X102184662Y-103112958D01*
X102184793Y-103112639D01*
X102177192Y-103109818D01*
X102166352Y-103104598D01*
X102166342Y-103104594D01*
X102056397Y-103079500D01*
X102056393Y-103079500D01*
X102000207Y-103079500D01*
X98000500Y-103079500D01*
X98000000Y-103079500D01*
X97943607Y-103079500D01*
X97943602Y-103079500D01*
X97833649Y-103104596D01*
X97822804Y-103109819D01*
X97815205Y-103112640D01*
X97815337Y-103112958D01*
X97807835Y-103116065D01*
X97801797Y-103119551D01*
X97793614Y-103123875D01*
X97732033Y-103153532D01*
X97732032Y-103153532D01*
X97710684Y-103170557D01*
X97695387Y-103180987D01*
X97695011Y-103181204D01*
X97694303Y-103181613D01*
X97694298Y-103181617D01*
X97689307Y-103186608D01*
X97678955Y-103195859D01*
X97643853Y-103223853D01*
X97615859Y-103258955D01*
X97606608Y-103269307D01*
X97601617Y-103274298D01*
X97601613Y-103274303D01*
X97601204Y-103275011D01*
X97600999Y-103275369D01*
X97600990Y-103275384D01*
X97590557Y-103290684D01*
X97573532Y-103312032D01*
X97573532Y-103312033D01*
X97543875Y-103373614D01*
X97539551Y-103381797D01*
X97536253Y-103387510D01*
X97536067Y-103387833D01*
X97534859Y-103392339D01*
X97524597Y-103413650D01*
X97499500Y-103523607D01*
X94327740Y-103523607D01*
X94327740Y-103466611D01*
X94324943Y-103436772D01*
X94280968Y-103311099D01*
X94201905Y-103203971D01*
X94094777Y-103124908D01*
X94094773Y-103124906D01*
X94094772Y-103124906D01*
X93969105Y-103080932D01*
X93939270Y-103078135D01*
X92915219Y-103078135D01*
X92885382Y-103080932D01*
X92885372Y-103080934D01*
X92759709Y-103124906D01*
X92759707Y-103124907D01*
X92759706Y-103124907D01*
X92759705Y-103124908D01*
X92652577Y-103203971D01*
X92600671Y-103274303D01*
X92573513Y-103311101D01*
X92573512Y-103311103D01*
X92529538Y-103436769D01*
X92529538Y-103436771D01*
X92526741Y-103466605D01*
X90983500Y-103466605D01*
X90983500Y-95509335D01*
X92526741Y-95509335D01*
X92526741Y-96533386D01*
X92529538Y-96563223D01*
X92529540Y-96563233D01*
X92573186Y-96687964D01*
X92573514Y-96688901D01*
X92652577Y-96796029D01*
X92759705Y-96875092D01*
X92784974Y-96883934D01*
X92885376Y-96919067D01*
X92893161Y-96919796D01*
X92915216Y-96921865D01*
X93939265Y-96921864D01*
X93969104Y-96919067D01*
X94094777Y-96875092D01*
X94201905Y-96796029D01*
X94280968Y-96688901D01*
X94305707Y-96618202D01*
X94324943Y-96563230D01*
X94324943Y-96563228D01*
X94327492Y-96536042D01*
X94327741Y-96533390D01*
X94327740Y-95863607D01*
X97499500Y-95863607D01*
X97499500Y-95872151D01*
X97499500Y-96476397D01*
X97524594Y-96586342D01*
X97524598Y-96586352D01*
X97529818Y-96597192D01*
X97532639Y-96604793D01*
X97532958Y-96604662D01*
X97536065Y-96612164D01*
X97539555Y-96618209D01*
X97543883Y-96626399D01*
X97573532Y-96687967D01*
X97590556Y-96709315D01*
X97600988Y-96724614D01*
X97601607Y-96725687D01*
X97601610Y-96725691D01*
X97601612Y-96725694D01*
X97601614Y-96725696D01*
X97601615Y-96725697D01*
X97606597Y-96730679D01*
X97615863Y-96741047D01*
X97643850Y-96776142D01*
X97643851Y-96776143D01*
X97643852Y-96776144D01*
X97643854Y-96776146D01*
X97678946Y-96804131D01*
X97678951Y-96804135D01*
X97689317Y-96813400D01*
X97694302Y-96818385D01*
X97694304Y-96818386D01*
X97694306Y-96818388D01*
X97695375Y-96819005D01*
X97710686Y-96829443D01*
X97732033Y-96846467D01*
X97732036Y-96846468D01*
X97732037Y-96846469D01*
X97793593Y-96876113D01*
X97801786Y-96880443D01*
X97807826Y-96883930D01*
X97815347Y-96887045D01*
X97815213Y-96887366D01*
X97822814Y-96890185D01*
X97833650Y-96895403D01*
X97943607Y-96920500D01*
X102056393Y-96920500D01*
X102166350Y-96895403D01*
X102177179Y-96890187D01*
X102184793Y-96887365D01*
X102184659Y-96887042D01*
X102192160Y-96883934D01*
X102192167Y-96883933D01*
X102198202Y-96880448D01*
X102206398Y-96876117D01*
X102219029Y-96870034D01*
X102267967Y-96846467D01*
X102289310Y-96829445D01*
X102304629Y-96819003D01*
X102305692Y-96818389D01*
X102305691Y-96818389D01*
X102305694Y-96818388D01*
X102310682Y-96813400D01*
X102321054Y-96804131D01*
X102356146Y-96776146D01*
X102384131Y-96741054D01*
X102393402Y-96730680D01*
X102398386Y-96725696D01*
X102398389Y-96725692D01*
X102399003Y-96724629D01*
X102409445Y-96709310D01*
X102426467Y-96687967D01*
X102454005Y-96630783D01*
X102456117Y-96626398D01*
X102460448Y-96618202D01*
X102463933Y-96612167D01*
X102463934Y-96612160D01*
X102467042Y-96604659D01*
X102467365Y-96604793D01*
X102470187Y-96597179D01*
X102475403Y-96586350D01*
X102486885Y-96536042D01*
X105422759Y-96536042D01*
X105429087Y-96605687D01*
X105479024Y-96765941D01*
X105565854Y-96909577D01*
X105565857Y-96909581D01*
X105684542Y-97028266D01*
X105684546Y-97028269D01*
X105828182Y-97115099D01*
X105988436Y-97165036D01*
X106058082Y-97171365D01*
X106322759Y-97171365D01*
X106322759Y-96271365D01*
X105422759Y-96271365D01*
X105422759Y-96536042D01*
X102486885Y-96536042D01*
X102500500Y-96476393D01*
X102500500Y-96420000D01*
X102500500Y-96419500D01*
X102500500Y-95981583D01*
X106372759Y-95981583D01*
X106372759Y-96061147D01*
X106403207Y-96134656D01*
X106459468Y-96190917D01*
X106532977Y-96221365D01*
X106612541Y-96221365D01*
X106686050Y-96190917D01*
X106742311Y-96134656D01*
X106772759Y-96061147D01*
X106772759Y-95981583D01*
X106742311Y-95908074D01*
X106686050Y-95851813D01*
X106612541Y-95821365D01*
X106532977Y-95821365D01*
X106459468Y-95851813D01*
X106403207Y-95908074D01*
X106372759Y-95981583D01*
X102500500Y-95981583D01*
X102500500Y-95919793D01*
X102500500Y-95863607D01*
X102475403Y-95753650D01*
X102465139Y-95732338D01*
X102463933Y-95727833D01*
X102458129Y-95717780D01*
X102426467Y-95652033D01*
X102403653Y-95623425D01*
X102398388Y-95614306D01*
X102388475Y-95604393D01*
X102356146Y-95563854D01*
X102316919Y-95532571D01*
X102313073Y-95528927D01*
X102312842Y-95528530D01*
X102310679Y-95526597D01*
X102305697Y-95521615D01*
X102305695Y-95521613D01*
X102305694Y-95521612D01*
X102305691Y-95521610D01*
X102305687Y-95521607D01*
X102304614Y-95520988D01*
X102289315Y-95510556D01*
X102284463Y-95506687D01*
X105422759Y-95506687D01*
X105422759Y-95771365D01*
X106322759Y-95771365D01*
X106322759Y-94871365D01*
X106058082Y-94871365D01*
X105988436Y-94877693D01*
X105828182Y-94927630D01*
X105684546Y-95014460D01*
X105684542Y-95014463D01*
X105565857Y-95133148D01*
X105565854Y-95133152D01*
X105479024Y-95276788D01*
X105429087Y-95437042D01*
X105422759Y-95506687D01*
X102284463Y-95506687D01*
X102267966Y-95493532D01*
X102267967Y-95493532D01*
X102206399Y-95463883D01*
X102198209Y-95459555D01*
X102192164Y-95456065D01*
X102184662Y-95452958D01*
X102184793Y-95452639D01*
X102177192Y-95449818D01*
X102166352Y-95444598D01*
X102166342Y-95444594D01*
X102056397Y-95419500D01*
X102056393Y-95419500D01*
X102000207Y-95419500D01*
X100000207Y-95419500D01*
X98000500Y-95419500D01*
X98000000Y-95419500D01*
X97943607Y-95419500D01*
X97943602Y-95419500D01*
X97833649Y-95444596D01*
X97822804Y-95449819D01*
X97815205Y-95452640D01*
X97815337Y-95452958D01*
X97807835Y-95456065D01*
X97801797Y-95459551D01*
X97793614Y-95463875D01*
X97732033Y-95493532D01*
X97732032Y-95493532D01*
X97710684Y-95510557D01*
X97695387Y-95520987D01*
X97695011Y-95521204D01*
X97694303Y-95521613D01*
X97694298Y-95521617D01*
X97689307Y-95526608D01*
X97678955Y-95535859D01*
X97643853Y-95563853D01*
X97615859Y-95598955D01*
X97606608Y-95609307D01*
X97601617Y-95614298D01*
X97601613Y-95614303D01*
X97600990Y-95615384D01*
X97590557Y-95630684D01*
X97573532Y-95652032D01*
X97573532Y-95652033D01*
X97543875Y-95713614D01*
X97539551Y-95721797D01*
X97536253Y-95727510D01*
X97536067Y-95727833D01*
X97534859Y-95732339D01*
X97524597Y-95753650D01*
X97499500Y-95863607D01*
X94327740Y-95863607D01*
X94327740Y-95509341D01*
X94324943Y-95479502D01*
X94280968Y-95353829D01*
X94201905Y-95246701D01*
X94094777Y-95167638D01*
X94094773Y-95167636D01*
X94094772Y-95167636D01*
X93969105Y-95123662D01*
X93939270Y-95120865D01*
X92915219Y-95120865D01*
X92885382Y-95123662D01*
X92885372Y-95123664D01*
X92759709Y-95167636D01*
X92759707Y-95167637D01*
X92759706Y-95167637D01*
X92759705Y-95167638D01*
X92652577Y-95246701D01*
X92573513Y-95353831D01*
X92573512Y-95353833D01*
X92529538Y-95479499D01*
X92529538Y-95479501D01*
X92526741Y-95509335D01*
X90983500Y-95509335D01*
X90983500Y-86166770D01*
X90984228Y-86157486D01*
X90982606Y-86155254D01*
X90971077Y-86154120D01*
X90556378Y-86071672D01*
X90551351Y-86070563D01*
X90459278Y-86048248D01*
X90454837Y-86047084D01*
X90085851Y-85943055D01*
X90080662Y-85941469D01*
X89992029Y-85912238D01*
X89987958Y-85910816D01*
X89626607Y-85777542D01*
X89621315Y-85775451D01*
X89569874Y-85753742D01*
X89537564Y-85740106D01*
X89533873Y-85738477D01*
X89181630Y-85576125D01*
X89176259Y-85573490D01*
X89098742Y-85533120D01*
X89095437Y-85531335D01*
X88753731Y-85340003D01*
X88748357Y-85336813D01*
X88731503Y-85326225D01*
X88678443Y-85292890D01*
X88675524Y-85290999D01*
X88579137Y-85226605D01*
X92526741Y-85226605D01*
X92526741Y-86250656D01*
X92529538Y-86280493D01*
X92529540Y-86280503D01*
X92555208Y-86353857D01*
X92573514Y-86406171D01*
X92652577Y-86513299D01*
X92759705Y-86592362D01*
X92805388Y-86608347D01*
X92885376Y-86636337D01*
X92893161Y-86637066D01*
X92915216Y-86639135D01*
X93939265Y-86639134D01*
X93969104Y-86636337D01*
X94094777Y-86592362D01*
X94201905Y-86513299D01*
X94280968Y-86406171D01*
X94314553Y-86310191D01*
X94324943Y-86280500D01*
X94324943Y-86280498D01*
X94324943Y-86280493D01*
X94327741Y-86250660D01*
X94327740Y-85283607D01*
X97499500Y-85283607D01*
X97499500Y-85292151D01*
X97499500Y-85896397D01*
X97524594Y-86006342D01*
X97524598Y-86006352D01*
X97529818Y-86017192D01*
X97532639Y-86024793D01*
X97532958Y-86024662D01*
X97536065Y-86032164D01*
X97539555Y-86038209D01*
X97543883Y-86046399D01*
X97573532Y-86107967D01*
X97590556Y-86129315D01*
X97600988Y-86144614D01*
X97601607Y-86145687D01*
X97601610Y-86145691D01*
X97601612Y-86145694D01*
X97601614Y-86145696D01*
X97601615Y-86145697D01*
X97606597Y-86150679D01*
X97615863Y-86161047D01*
X97643850Y-86196142D01*
X97643851Y-86196143D01*
X97643852Y-86196144D01*
X97643854Y-86196146D01*
X97678946Y-86224131D01*
X97678951Y-86224135D01*
X97689317Y-86233400D01*
X97694302Y-86238385D01*
X97694304Y-86238386D01*
X97694306Y-86238388D01*
X97695375Y-86239005D01*
X97710686Y-86249443D01*
X97732033Y-86266467D01*
X97732036Y-86266468D01*
X97732037Y-86266469D01*
X97793593Y-86296113D01*
X97801786Y-86300443D01*
X97807826Y-86303930D01*
X97815347Y-86307045D01*
X97815213Y-86307366D01*
X97822814Y-86310185D01*
X97833650Y-86315403D01*
X97943607Y-86340500D01*
X102056393Y-86340500D01*
X102166350Y-86315403D01*
X102177179Y-86310187D01*
X102184793Y-86307365D01*
X102184659Y-86307042D01*
X102192160Y-86303934D01*
X102192167Y-86303933D01*
X102198202Y-86300448D01*
X102206398Y-86296117D01*
X102219029Y-86290034D01*
X102267967Y-86266467D01*
X102289310Y-86249445D01*
X102304629Y-86239003D01*
X102305692Y-86238389D01*
X102305691Y-86238389D01*
X102305694Y-86238388D01*
X102310682Y-86233400D01*
X102321054Y-86224131D01*
X102356146Y-86196146D01*
X102384131Y-86161054D01*
X102393402Y-86150680D01*
X102398386Y-86145696D01*
X102398389Y-86145692D01*
X102399003Y-86144629D01*
X102409445Y-86129310D01*
X102426467Y-86107967D01*
X102455787Y-86047084D01*
X102456117Y-86046398D01*
X102460448Y-86038202D01*
X102463933Y-86032167D01*
X102463934Y-86032160D01*
X102467042Y-86024659D01*
X102467365Y-86024793D01*
X102470187Y-86017179D01*
X102475403Y-86006350D01*
X102500500Y-85896393D01*
X102500500Y-85840000D01*
X102500500Y-85839500D01*
X102500500Y-85339793D01*
X102500500Y-85283607D01*
X102475403Y-85173650D01*
X102470185Y-85162814D01*
X102467366Y-85155213D01*
X102467045Y-85155347D01*
X102463930Y-85147826D01*
X102460443Y-85141786D01*
X102456113Y-85133593D01*
X102426469Y-85072037D01*
X102426468Y-85072036D01*
X102426467Y-85072033D01*
X102409442Y-85050684D01*
X102399005Y-85035375D01*
X102398388Y-85034306D01*
X102398386Y-85034304D01*
X102398385Y-85034302D01*
X102393400Y-85029317D01*
X102384135Y-85018951D01*
X102356146Y-84983854D01*
X102356144Y-84983852D01*
X102356143Y-84983851D01*
X102356142Y-84983850D01*
X102321047Y-84955863D01*
X102310679Y-84946597D01*
X102305697Y-84941615D01*
X102305695Y-84941613D01*
X102305694Y-84941612D01*
X102305691Y-84941610D01*
X102305687Y-84941607D01*
X102304614Y-84940988D01*
X102289315Y-84930556D01*
X102267966Y-84913532D01*
X102267967Y-84913532D01*
X102206399Y-84883883D01*
X102198209Y-84879555D01*
X102192164Y-84876065D01*
X102184662Y-84872958D01*
X102184793Y-84872639D01*
X102177192Y-84869818D01*
X102166352Y-84864598D01*
X102166342Y-84864594D01*
X102056397Y-84839500D01*
X102056393Y-84839500D01*
X102000207Y-84839500D01*
X98000500Y-84839500D01*
X98000000Y-84839500D01*
X97943607Y-84839500D01*
X97943602Y-84839500D01*
X97833649Y-84864596D01*
X97822804Y-84869819D01*
X97815205Y-84872640D01*
X97815337Y-84872958D01*
X97807835Y-84876065D01*
X97801797Y-84879551D01*
X97793614Y-84883875D01*
X97732033Y-84913532D01*
X97732032Y-84913532D01*
X97710684Y-84930557D01*
X97695387Y-84940987D01*
X97695011Y-84941204D01*
X97694303Y-84941613D01*
X97694298Y-84941617D01*
X97689307Y-84946608D01*
X97678955Y-84955859D01*
X97643853Y-84983853D01*
X97615859Y-85018955D01*
X97606608Y-85029307D01*
X97601617Y-85034298D01*
X97601613Y-85034303D01*
X97601204Y-85035011D01*
X97600999Y-85035369D01*
X97600990Y-85035384D01*
X97590557Y-85050684D01*
X97573532Y-85072032D01*
X97573532Y-85072033D01*
X97543875Y-85133614D01*
X97539551Y-85141797D01*
X97536253Y-85147510D01*
X97536067Y-85147833D01*
X97534859Y-85152339D01*
X97524597Y-85173650D01*
X97499500Y-85283607D01*
X94327740Y-85283607D01*
X94327740Y-85226611D01*
X94324943Y-85196772D01*
X94280968Y-85071099D01*
X94201905Y-84963971D01*
X94094777Y-84884908D01*
X94094773Y-84884906D01*
X94094772Y-84884906D01*
X93969105Y-84840932D01*
X93939270Y-84838135D01*
X92915219Y-84838135D01*
X92885382Y-84840932D01*
X92885372Y-84840934D01*
X92759709Y-84884906D01*
X92759707Y-84884907D01*
X92759706Y-84884907D01*
X92759705Y-84884908D01*
X92652577Y-84963971D01*
X92576641Y-85066863D01*
X92573513Y-85071101D01*
X92573512Y-85071103D01*
X92529538Y-85196769D01*
X92529538Y-85196771D01*
X92526741Y-85226605D01*
X88579137Y-85226605D01*
X88345680Y-85070637D01*
X88340341Y-85066863D01*
X88318689Y-85050684D01*
X88279207Y-85021182D01*
X88276699Y-85019257D01*
X87960089Y-84769694D01*
X87954854Y-84765329D01*
X87903700Y-84720236D01*
X87901531Y-84718278D01*
X87599383Y-84439007D01*
X87594326Y-84434057D01*
X87554255Y-84392526D01*
X87552476Y-84390642D01*
X87265913Y-84080672D01*
X87261088Y-84075131D01*
X87233066Y-84040952D01*
X87231638Y-84039174D01*
X86961803Y-83696922D01*
X86957252Y-83690768D01*
X86942271Y-83669145D01*
X86941099Y-83667422D01*
X86689008Y-83290177D01*
X86684816Y-83283448D01*
X86683583Y-83281320D01*
X86682687Y-83279747D01*
X86451612Y-82867166D01*
X86447209Y-82858526D01*
X86248383Y-82427273D01*
X86244656Y-82418277D01*
X86183993Y-82253856D01*
X86080281Y-81972753D01*
X86077276Y-81963504D01*
X85948365Y-81506450D01*
X85946100Y-81497016D01*
X85853445Y-81031242D01*
X85851927Y-81021660D01*
X85796105Y-80550056D01*
X85795344Y-80540381D01*
X85776699Y-80065860D01*
X85776699Y-80056132D01*
X85781500Y-79933943D01*
X85781519Y-79933465D01*
X86822595Y-79933465D01*
X86822595Y-80188534D01*
X86840809Y-80303531D01*
X86862494Y-80440446D01*
X86941311Y-80683020D01*
X87057105Y-80910278D01*
X87207024Y-81116623D01*
X87387377Y-81296976D01*
X87593722Y-81446895D01*
X87820980Y-81562689D01*
X88063554Y-81641506D01*
X88193342Y-81662062D01*
X88315466Y-81681405D01*
X88315471Y-81681405D01*
X88570534Y-81681405D01*
X88681862Y-81663771D01*
X88822446Y-81641506D01*
X89065020Y-81562689D01*
X89292278Y-81446895D01*
X89498623Y-81296976D01*
X89678976Y-81116623D01*
X89828895Y-80910278D01*
X89944689Y-80683020D01*
X90023506Y-80440446D01*
X90045771Y-80299862D01*
X90063405Y-80188534D01*
X90063405Y-79933465D01*
X90042245Y-79799870D01*
X90023506Y-79681554D01*
X89944689Y-79438980D01*
X89828895Y-79211722D01*
X89678976Y-79005377D01*
X89498623Y-78825024D01*
X89292278Y-78675105D01*
X89065020Y-78559311D01*
X88822446Y-78480494D01*
X88570534Y-78440595D01*
X88570529Y-78440595D01*
X88315471Y-78440595D01*
X88315466Y-78440595D01*
X88063553Y-78480494D01*
X87820977Y-78559312D01*
X87593721Y-78675105D01*
X87475994Y-78760639D01*
X87387377Y-78825024D01*
X87387375Y-78825026D01*
X87387374Y-78825026D01*
X87207026Y-79005374D01*
X87207026Y-79005375D01*
X87207024Y-79005377D01*
X87204188Y-79009281D01*
X87057105Y-79211721D01*
X86941312Y-79438977D01*
X86862494Y-79681553D01*
X86822595Y-79933465D01*
X85781519Y-79933465D01*
X85795344Y-79581614D01*
X85796105Y-79571945D01*
X85851928Y-79100335D01*
X85853444Y-79090761D01*
X85946101Y-78624977D01*
X85948363Y-78615554D01*
X86077281Y-78158477D01*
X86080278Y-78149253D01*
X86244659Y-77703713D01*
X86248383Y-77694726D01*
X86254942Y-77680500D01*
X86444507Y-77269335D01*
X92526741Y-77269335D01*
X92526741Y-78293386D01*
X92529538Y-78323223D01*
X92529540Y-78323233D01*
X92572704Y-78446587D01*
X92573514Y-78448901D01*
X92652577Y-78556029D01*
X92759705Y-78635092D01*
X92784974Y-78643934D01*
X92885376Y-78679067D01*
X92893161Y-78679796D01*
X92915216Y-78681865D01*
X93939265Y-78681864D01*
X93969104Y-78679067D01*
X94094777Y-78635092D01*
X94201905Y-78556029D01*
X94280968Y-78448901D01*
X94305707Y-78378202D01*
X94324943Y-78323230D01*
X94324943Y-78323228D01*
X94327492Y-78296042D01*
X94327741Y-78293390D01*
X94327740Y-77623607D01*
X97499500Y-77623607D01*
X97499500Y-77632151D01*
X97499500Y-78236397D01*
X97524594Y-78346342D01*
X97524598Y-78346352D01*
X97529818Y-78357192D01*
X97532639Y-78364793D01*
X97532958Y-78364662D01*
X97536065Y-78372164D01*
X97539555Y-78378209D01*
X97543883Y-78386399D01*
X97573532Y-78447967D01*
X97590556Y-78469315D01*
X97600988Y-78484614D01*
X97601607Y-78485687D01*
X97601610Y-78485691D01*
X97601612Y-78485694D01*
X97601614Y-78485696D01*
X97601615Y-78485697D01*
X97606597Y-78490679D01*
X97615863Y-78501047D01*
X97643850Y-78536142D01*
X97643851Y-78536143D01*
X97643852Y-78536144D01*
X97643854Y-78536146D01*
X97672902Y-78559311D01*
X97678951Y-78564135D01*
X97689317Y-78573400D01*
X97694302Y-78578385D01*
X97694304Y-78578386D01*
X97694306Y-78578388D01*
X97695375Y-78579005D01*
X97710686Y-78589443D01*
X97732033Y-78606467D01*
X97732036Y-78606468D01*
X97732037Y-78606469D01*
X97793593Y-78636113D01*
X97801786Y-78640443D01*
X97807826Y-78643930D01*
X97815347Y-78647045D01*
X97815213Y-78647366D01*
X97822814Y-78650185D01*
X97833650Y-78655403D01*
X97943607Y-78680500D01*
X102056393Y-78680500D01*
X102166350Y-78655403D01*
X102177179Y-78650187D01*
X102184793Y-78647365D01*
X102184659Y-78647042D01*
X102192160Y-78643934D01*
X102192167Y-78643933D01*
X102198202Y-78640448D01*
X102206398Y-78636117D01*
X102219029Y-78630034D01*
X102267967Y-78606467D01*
X102289310Y-78589445D01*
X102304629Y-78579003D01*
X102305692Y-78578389D01*
X102305691Y-78578389D01*
X102305694Y-78578388D01*
X102310682Y-78573400D01*
X102321054Y-78564131D01*
X102356146Y-78536146D01*
X102384131Y-78501054D01*
X102393402Y-78490680D01*
X102398386Y-78485696D01*
X102398389Y-78485692D01*
X102399003Y-78484629D01*
X102409445Y-78469310D01*
X102426467Y-78447967D01*
X102454005Y-78390783D01*
X102456117Y-78386398D01*
X102460448Y-78378202D01*
X102463933Y-78372167D01*
X102463934Y-78372160D01*
X102467042Y-78364659D01*
X102467365Y-78364793D01*
X102470187Y-78357179D01*
X102475403Y-78346350D01*
X102486885Y-78296042D01*
X105422759Y-78296042D01*
X105429087Y-78365687D01*
X105479024Y-78525941D01*
X105565854Y-78669577D01*
X105565857Y-78669581D01*
X105684542Y-78788266D01*
X105684546Y-78788269D01*
X105828182Y-78875099D01*
X105988436Y-78925036D01*
X106058082Y-78931365D01*
X106322759Y-78931365D01*
X106322759Y-78031365D01*
X105422759Y-78031365D01*
X105422759Y-78296042D01*
X102486885Y-78296042D01*
X102500500Y-78236393D01*
X102500500Y-78180000D01*
X102500500Y-78179500D01*
X102500500Y-77741583D01*
X106372759Y-77741583D01*
X106372759Y-77821147D01*
X106403207Y-77894656D01*
X106459468Y-77950917D01*
X106532977Y-77981365D01*
X106612541Y-77981365D01*
X106686050Y-77950917D01*
X106742311Y-77894656D01*
X106772759Y-77821147D01*
X106772759Y-77741583D01*
X106742311Y-77668074D01*
X106686050Y-77611813D01*
X106612541Y-77581365D01*
X106532977Y-77581365D01*
X106459468Y-77611813D01*
X106403207Y-77668074D01*
X106372759Y-77741583D01*
X102500500Y-77741583D01*
X102500500Y-77679793D01*
X102500500Y-77623607D01*
X102475403Y-77513650D01*
X102465139Y-77492338D01*
X102463933Y-77487833D01*
X102458129Y-77477780D01*
X102426467Y-77412033D01*
X102403653Y-77383425D01*
X102398388Y-77374306D01*
X102388475Y-77364393D01*
X102356146Y-77323854D01*
X102316919Y-77292571D01*
X102313073Y-77288927D01*
X102312842Y-77288530D01*
X102310679Y-77286597D01*
X102305697Y-77281615D01*
X102305695Y-77281613D01*
X102305694Y-77281612D01*
X102305691Y-77281610D01*
X102305687Y-77281607D01*
X102304614Y-77280988D01*
X102289315Y-77270556D01*
X102284463Y-77266687D01*
X105422759Y-77266687D01*
X105422759Y-77531365D01*
X106322759Y-77531365D01*
X106322759Y-76631365D01*
X106058082Y-76631365D01*
X105988436Y-76637693D01*
X105828182Y-76687630D01*
X105684546Y-76774460D01*
X105684542Y-76774463D01*
X105565857Y-76893148D01*
X105565854Y-76893152D01*
X105479024Y-77036788D01*
X105429087Y-77197042D01*
X105422759Y-77266687D01*
X102284463Y-77266687D01*
X102267966Y-77253532D01*
X102267967Y-77253532D01*
X102206399Y-77223883D01*
X102198209Y-77219555D01*
X102192164Y-77216065D01*
X102184662Y-77212958D01*
X102184793Y-77212639D01*
X102177192Y-77209818D01*
X102166352Y-77204598D01*
X102166342Y-77204594D01*
X102056397Y-77179500D01*
X102056393Y-77179500D01*
X102000207Y-77179500D01*
X100000207Y-77179500D01*
X98000500Y-77179500D01*
X98000000Y-77179500D01*
X97943607Y-77179500D01*
X97943602Y-77179500D01*
X97833649Y-77204596D01*
X97822804Y-77209819D01*
X97815205Y-77212640D01*
X97815337Y-77212958D01*
X97807835Y-77216065D01*
X97801797Y-77219551D01*
X97793614Y-77223875D01*
X97732033Y-77253532D01*
X97732032Y-77253532D01*
X97710684Y-77270557D01*
X97695387Y-77280987D01*
X97695011Y-77281204D01*
X97694303Y-77281613D01*
X97694298Y-77281617D01*
X97689307Y-77286608D01*
X97678955Y-77295859D01*
X97643853Y-77323853D01*
X97615859Y-77358955D01*
X97606608Y-77369307D01*
X97601617Y-77374298D01*
X97601613Y-77374303D01*
X97600990Y-77375384D01*
X97590557Y-77390684D01*
X97573532Y-77412032D01*
X97573532Y-77412033D01*
X97543875Y-77473614D01*
X97539551Y-77481797D01*
X97536253Y-77487510D01*
X97536067Y-77487833D01*
X97534859Y-77492339D01*
X97524597Y-77513650D01*
X97499500Y-77623607D01*
X94327740Y-77623607D01*
X94327740Y-77269341D01*
X94324943Y-77239502D01*
X94280968Y-77113829D01*
X94201905Y-77006701D01*
X94094777Y-76927638D01*
X94094773Y-76927636D01*
X94094772Y-76927636D01*
X93969105Y-76883662D01*
X93939270Y-76880865D01*
X92915219Y-76880865D01*
X92885382Y-76883662D01*
X92885372Y-76883664D01*
X92759709Y-76927636D01*
X92759707Y-76927637D01*
X92759706Y-76927637D01*
X92759705Y-76927638D01*
X92652577Y-77006701D01*
X92573513Y-77113831D01*
X92573512Y-77113833D01*
X92529538Y-77239499D01*
X92529538Y-77239501D01*
X92526741Y-77269335D01*
X86444507Y-77269335D01*
X86447214Y-77263463D01*
X86451606Y-77254843D01*
X86682773Y-76842099D01*
X86683507Y-76840810D01*
X86684833Y-76838521D01*
X86688985Y-76831857D01*
X86941132Y-76454526D01*
X86942221Y-76452926D01*
X86957278Y-76431193D01*
X86961779Y-76425107D01*
X87231729Y-76082710D01*
X87232985Y-76081147D01*
X87261116Y-76046834D01*
X87265885Y-76041357D01*
X87552554Y-75731272D01*
X87554167Y-75729565D01*
X87594360Y-75687906D01*
X87599351Y-75683021D01*
X87901605Y-75403652D01*
X87903628Y-75401826D01*
X87954888Y-75356640D01*
X87960053Y-75352333D01*
X88276780Y-75102678D01*
X88279109Y-75100890D01*
X88340397Y-75055095D01*
X88345649Y-75051382D01*
X88675608Y-74830944D01*
X88678357Y-74829163D01*
X88748403Y-74785157D01*
X88753674Y-74782028D01*
X89095501Y-74590628D01*
X89098677Y-74588913D01*
X89176301Y-74548487D01*
X89181588Y-74545893D01*
X89533943Y-74383489D01*
X89537472Y-74381932D01*
X89621389Y-74346517D01*
X89626549Y-74344478D01*
X89987997Y-74211168D01*
X89991974Y-74209778D01*
X90080729Y-74180508D01*
X90085784Y-74178963D01*
X90454894Y-74074898D01*
X90459222Y-74073764D01*
X90551417Y-74051420D01*
X90556323Y-74050338D01*
X90971077Y-73967880D01*
X90982602Y-73966745D01*
X90983570Y-73965416D01*
X90983572Y-73965416D01*
X90983571Y-73965414D01*
X90984228Y-73964515D01*
X90983500Y-73955229D01*
X90983500Y-66986605D01*
X92526741Y-66986605D01*
X92526741Y-68010656D01*
X92529538Y-68040493D01*
X92529540Y-68040503D01*
X92562294Y-68134107D01*
X92573514Y-68166171D01*
X92652577Y-68273299D01*
X92759705Y-68352362D01*
X92805276Y-68368308D01*
X92885376Y-68396337D01*
X92893161Y-68397066D01*
X92915216Y-68399135D01*
X93939265Y-68399134D01*
X93969104Y-68396337D01*
X94094777Y-68352362D01*
X94201905Y-68273299D01*
X94280968Y-68166171D01*
X94314553Y-68070191D01*
X94324943Y-68040500D01*
X94324943Y-68040498D01*
X94324943Y-68040493D01*
X94327741Y-68010660D01*
X94327740Y-67043607D01*
X97499500Y-67043607D01*
X97499500Y-67052151D01*
X97499500Y-67656397D01*
X97524594Y-67766342D01*
X97524598Y-67766352D01*
X97529818Y-67777192D01*
X97532639Y-67784793D01*
X97532958Y-67784662D01*
X97536065Y-67792164D01*
X97539555Y-67798209D01*
X97543883Y-67806399D01*
X97573532Y-67867967D01*
X97590556Y-67889315D01*
X97600988Y-67904614D01*
X97601607Y-67905687D01*
X97601610Y-67905691D01*
X97601612Y-67905694D01*
X97601614Y-67905696D01*
X97601615Y-67905697D01*
X97606597Y-67910679D01*
X97615863Y-67921047D01*
X97643850Y-67956142D01*
X97643851Y-67956143D01*
X97643852Y-67956144D01*
X97643854Y-67956146D01*
X97678946Y-67984131D01*
X97678951Y-67984135D01*
X97689317Y-67993400D01*
X97694302Y-67998385D01*
X97694304Y-67998386D01*
X97694306Y-67998388D01*
X97695375Y-67999005D01*
X97710686Y-68009443D01*
X97732033Y-68026467D01*
X97732036Y-68026468D01*
X97732037Y-68026469D01*
X97793593Y-68056113D01*
X97801786Y-68060443D01*
X97807826Y-68063930D01*
X97815347Y-68067045D01*
X97815213Y-68067366D01*
X97822814Y-68070185D01*
X97833650Y-68075403D01*
X97943607Y-68100500D01*
X102056393Y-68100500D01*
X102166350Y-68075403D01*
X102177179Y-68070187D01*
X102184793Y-68067365D01*
X102184659Y-68067042D01*
X102192160Y-68063934D01*
X102192167Y-68063933D01*
X102198202Y-68060448D01*
X102206398Y-68056117D01*
X102219029Y-68050034D01*
X102267967Y-68026467D01*
X102289310Y-68009445D01*
X102304629Y-67999003D01*
X102305692Y-67998389D01*
X102305691Y-67998389D01*
X102305694Y-67998388D01*
X102310682Y-67993400D01*
X102321054Y-67984131D01*
X102356146Y-67956146D01*
X102384131Y-67921054D01*
X102393402Y-67910680D01*
X102398386Y-67905696D01*
X102398389Y-67905692D01*
X102399003Y-67904629D01*
X102409445Y-67889310D01*
X102426467Y-67867967D01*
X102454005Y-67810783D01*
X102456117Y-67806398D01*
X102460448Y-67798202D01*
X102463933Y-67792167D01*
X102463934Y-67792160D01*
X102467042Y-67784659D01*
X102467365Y-67784793D01*
X102470187Y-67777179D01*
X102475403Y-67766350D01*
X102500500Y-67656393D01*
X102500500Y-67600000D01*
X102500500Y-67599500D01*
X102500500Y-67099793D01*
X102500500Y-67043607D01*
X102475403Y-66933650D01*
X102470185Y-66922814D01*
X102467366Y-66915213D01*
X102467045Y-66915347D01*
X102463930Y-66907826D01*
X102460443Y-66901786D01*
X102456113Y-66893593D01*
X102426469Y-66832037D01*
X102426468Y-66832036D01*
X102426467Y-66832033D01*
X102409442Y-66810684D01*
X102399005Y-66795375D01*
X102398388Y-66794306D01*
X102398386Y-66794304D01*
X102398385Y-66794302D01*
X102393400Y-66789317D01*
X102384135Y-66778951D01*
X102383018Y-66777550D01*
X102356146Y-66743854D01*
X102356144Y-66743852D01*
X102356143Y-66743851D01*
X102356142Y-66743850D01*
X102321047Y-66715863D01*
X102310679Y-66706597D01*
X102305697Y-66701615D01*
X102305695Y-66701613D01*
X102305694Y-66701612D01*
X102305691Y-66701610D01*
X102305687Y-66701607D01*
X102304614Y-66700988D01*
X102289315Y-66690556D01*
X102267966Y-66673532D01*
X102267967Y-66673532D01*
X102206399Y-66643883D01*
X102198209Y-66639555D01*
X102192164Y-66636065D01*
X102184662Y-66632958D01*
X102184793Y-66632639D01*
X102177192Y-66629818D01*
X102166352Y-66624598D01*
X102166342Y-66624594D01*
X102056397Y-66599500D01*
X102056393Y-66599500D01*
X102000207Y-66599500D01*
X98000500Y-66599500D01*
X98000000Y-66599500D01*
X97943607Y-66599500D01*
X97943602Y-66599500D01*
X97833649Y-66624596D01*
X97822804Y-66629819D01*
X97815205Y-66632640D01*
X97815337Y-66632958D01*
X97807835Y-66636065D01*
X97801797Y-66639551D01*
X97793614Y-66643875D01*
X97732033Y-66673532D01*
X97732032Y-66673532D01*
X97710684Y-66690557D01*
X97695387Y-66700987D01*
X97695011Y-66701204D01*
X97694303Y-66701613D01*
X97694298Y-66701617D01*
X97689307Y-66706608D01*
X97678955Y-66715859D01*
X97643853Y-66743853D01*
X97615859Y-66778955D01*
X97606608Y-66789307D01*
X97601617Y-66794298D01*
X97601613Y-66794303D01*
X97601204Y-66795011D01*
X97600999Y-66795369D01*
X97600990Y-66795384D01*
X97590557Y-66810684D01*
X97573532Y-66832032D01*
X97573532Y-66832033D01*
X97543875Y-66893614D01*
X97539551Y-66901797D01*
X97536253Y-66907510D01*
X97536067Y-66907833D01*
X97534859Y-66912339D01*
X97524597Y-66933650D01*
X97499500Y-67043607D01*
X94327740Y-67043607D01*
X94327740Y-66986611D01*
X94324943Y-66956772D01*
X94280968Y-66831099D01*
X94201905Y-66723971D01*
X94094777Y-66644908D01*
X94094773Y-66644906D01*
X94094772Y-66644906D01*
X93969105Y-66600932D01*
X93939270Y-66598135D01*
X92915219Y-66598135D01*
X92885382Y-66600932D01*
X92885372Y-66600934D01*
X92759709Y-66644906D01*
X92759707Y-66644907D01*
X92759706Y-66644907D01*
X92759705Y-66644908D01*
X92652577Y-66723971D01*
X92578753Y-66824001D01*
X92573513Y-66831101D01*
X92573512Y-66831103D01*
X92529538Y-66956769D01*
X92529538Y-66956771D01*
X92526741Y-66986605D01*
X90983500Y-66986605D01*
X90983500Y-60177135D01*
X95249500Y-60177135D01*
X95249500Y-61572870D01*
X95249501Y-61572876D01*
X95255908Y-61632483D01*
X95306202Y-61767328D01*
X95306206Y-61767335D01*
X95392452Y-61882544D01*
X95392455Y-61882547D01*
X95507664Y-61968793D01*
X95507671Y-61968797D01*
X95642517Y-62019091D01*
X95642516Y-62019091D01*
X95649444Y-62019835D01*
X95702127Y-62025500D01*
X96497872Y-62025499D01*
X96557483Y-62019091D01*
X96692331Y-61968796D01*
X96807546Y-61882546D01*
X96893796Y-61767331D01*
X96944091Y-61632483D01*
X96950500Y-61572873D01*
X96950499Y-60177128D01*
X96944091Y-60117517D01*
X96893796Y-59982669D01*
X96893795Y-59982668D01*
X96893793Y-59982664D01*
X96807547Y-59867455D01*
X96807544Y-59867452D01*
X96692335Y-59781206D01*
X96692328Y-59781202D01*
X96557482Y-59730908D01*
X96557483Y-59730908D01*
X96497883Y-59724501D01*
X96497881Y-59724500D01*
X96497873Y-59724500D01*
X96497864Y-59724500D01*
X95702129Y-59724500D01*
X95702123Y-59724501D01*
X95642516Y-59730908D01*
X95507671Y-59781202D01*
X95507664Y-59781206D01*
X95392455Y-59867452D01*
X95392452Y-59867455D01*
X95306206Y-59982664D01*
X95306202Y-59982671D01*
X95255908Y-60117517D01*
X95249501Y-60177116D01*
X95249501Y-60177123D01*
X95249500Y-60177135D01*
X90983500Y-60177135D01*
X90983500Y-57690649D01*
X96600000Y-57690649D01*
X96602899Y-57727489D01*
X96602900Y-57727495D01*
X96648716Y-57885193D01*
X96648717Y-57885196D01*
X96732314Y-58026552D01*
X96732321Y-58026561D01*
X96848438Y-58142678D01*
X96848447Y-58142685D01*
X96989801Y-58226281D01*
X97147514Y-58272100D01*
X97147511Y-58272100D01*
X97149998Y-58272295D01*
X97150000Y-58272295D01*
X97150000Y-57250000D01*
X96600000Y-57250000D01*
X96600000Y-57690649D01*
X90983500Y-57690649D01*
X90983500Y-56309350D01*
X96600000Y-56309350D01*
X96600000Y-56750000D01*
X97150000Y-56750000D01*
X97150000Y-55727703D01*
X97650000Y-55727703D01*
X97650000Y-58272295D01*
X97650001Y-58272295D01*
X97652486Y-58272100D01*
X97810198Y-58226281D01*
X97951552Y-58142685D01*
X97951557Y-58142681D01*
X98044536Y-58049702D01*
X98105859Y-58016217D01*
X98151617Y-58014910D01*
X98180348Y-58019460D01*
X98218481Y-58025500D01*
X98581518Y-58025499D01*
X98675304Y-58010646D01*
X98788342Y-57953050D01*
X98812319Y-57929072D01*
X98873640Y-57895588D01*
X98943332Y-57900572D01*
X98987681Y-57929073D01*
X99013181Y-57954573D01*
X99046666Y-58015896D01*
X99049500Y-58042254D01*
X99049500Y-60646144D01*
X99064065Y-60700501D01*
X99064065Y-60700502D01*
X99073384Y-60735284D01*
X99073385Y-60735286D01*
X99119527Y-60815208D01*
X99119531Y-60815213D01*
X103413181Y-65108863D01*
X103446666Y-65170186D01*
X103449500Y-65196544D01*
X103449500Y-72646144D01*
X103463797Y-72699500D01*
X103463797Y-72699501D01*
X103473385Y-72735286D01*
X103519527Y-72815208D01*
X103519529Y-72815211D01*
X103519530Y-72815212D01*
X105375554Y-74671236D01*
X107124003Y-76419684D01*
X107157488Y-76481007D01*
X107152504Y-76550699D01*
X107110632Y-76606632D01*
X107045168Y-76631049D01*
X107036322Y-76631365D01*
X106822759Y-76631365D01*
X106822759Y-78931365D01*
X107087436Y-78931365D01*
X107157084Y-78925035D01*
X107288609Y-78884051D01*
X107358470Y-78882899D01*
X107417862Y-78919700D01*
X107447930Y-78982769D01*
X107449500Y-79002436D01*
X107449500Y-82103456D01*
X107429815Y-82170495D01*
X107413181Y-82191137D01*
X105119531Y-84484786D01*
X105119527Y-84484791D01*
X105073387Y-84564709D01*
X105073386Y-84564712D01*
X105049500Y-84653856D01*
X105049500Y-92420613D01*
X105029815Y-92487652D01*
X105013182Y-92508294D01*
X104909488Y-92611988D01*
X104837017Y-92737511D01*
X104837016Y-92737515D01*
X104799500Y-92877525D01*
X104799500Y-93022475D01*
X104837016Y-93162485D01*
X104837017Y-93162488D01*
X104909488Y-93288011D01*
X104909490Y-93288013D01*
X104909491Y-93288015D01*
X105011985Y-93390509D01*
X105011986Y-93390510D01*
X105011988Y-93390511D01*
X105137511Y-93462982D01*
X105137512Y-93462982D01*
X105137515Y-93462984D01*
X105277525Y-93500500D01*
X105277528Y-93500500D01*
X105422472Y-93500500D01*
X105422475Y-93500500D01*
X105562485Y-93462984D01*
X105688015Y-93390509D01*
X105790509Y-93288015D01*
X105862984Y-93162485D01*
X105900500Y-93022475D01*
X105900500Y-92877525D01*
X105862984Y-92737515D01*
X105790509Y-92611985D01*
X105786819Y-92608295D01*
X105753334Y-92546972D01*
X105750500Y-92520614D01*
X105750500Y-86712983D01*
X105770185Y-86645944D01*
X105822989Y-86600189D01*
X105892147Y-86590245D01*
X105915449Y-86595940D01*
X106030896Y-86636337D01*
X106030895Y-86636337D01*
X106035371Y-86636756D01*
X106060734Y-86639135D01*
X107084783Y-86639134D01*
X107114622Y-86636337D01*
X107234545Y-86594373D01*
X107304324Y-86590812D01*
X107364951Y-86625540D01*
X107397179Y-86687533D01*
X107399500Y-86711415D01*
X107399500Y-94784712D01*
X107379815Y-94851751D01*
X107327011Y-94897506D01*
X107257853Y-94907450D01*
X107238611Y-94903098D01*
X107157083Y-94877694D01*
X107087436Y-94871365D01*
X106822759Y-94871365D01*
X106822759Y-97171365D01*
X107087436Y-97171365D01*
X107157086Y-97165035D01*
X107238610Y-97139632D01*
X107308470Y-97138480D01*
X107367862Y-97175281D01*
X107397930Y-97238350D01*
X107399500Y-97258017D01*
X107399500Y-103005854D01*
X107379815Y-103072893D01*
X107327011Y-103118648D01*
X107257853Y-103128592D01*
X107234545Y-103122896D01*
X107197170Y-103109818D01*
X107114622Y-103080933D01*
X107114621Y-103080932D01*
X107114619Y-103080932D01*
X107084788Y-103078135D01*
X106060737Y-103078135D01*
X106030900Y-103080932D01*
X106030890Y-103080934D01*
X105905227Y-103124906D01*
X105905225Y-103124907D01*
X105905224Y-103124907D01*
X105905223Y-103124908D01*
X105798095Y-103203971D01*
X105746189Y-103274303D01*
X105719031Y-103311101D01*
X105719030Y-103311103D01*
X105675056Y-103436769D01*
X105675056Y-103436771D01*
X105672259Y-103466605D01*
X105672259Y-104490656D01*
X105675056Y-104520493D01*
X105675058Y-104520503D01*
X105719030Y-104646166D01*
X105719032Y-104646171D01*
X105798095Y-104753299D01*
X105905223Y-104832362D01*
X105950906Y-104848347D01*
X106030894Y-104876337D01*
X106038679Y-104877066D01*
X106060734Y-104879135D01*
X107084783Y-104879134D01*
X107114622Y-104876337D01*
X107234545Y-104834373D01*
X107304324Y-104830812D01*
X107364951Y-104865540D01*
X107397179Y-104927533D01*
X107399500Y-104951415D01*
X107399500Y-113024712D01*
X107379815Y-113091751D01*
X107327011Y-113137506D01*
X107257853Y-113147450D01*
X107238611Y-113143098D01*
X107157083Y-113117694D01*
X107087436Y-113111365D01*
X106822759Y-113111365D01*
X106822759Y-115411365D01*
X107087436Y-115411365D01*
X107157086Y-115405035D01*
X107238610Y-115379632D01*
X107308470Y-115378480D01*
X107367862Y-115415281D01*
X107397930Y-115478350D01*
X107399500Y-115498017D01*
X107399500Y-115853456D01*
X107379815Y-115920495D01*
X107363181Y-115941137D01*
X106291137Y-117013181D01*
X106229814Y-117046666D01*
X106203456Y-117049500D01*
X106127525Y-117049500D01*
X105998993Y-117083940D01*
X105987511Y-117087017D01*
X105861988Y-117159488D01*
X105861982Y-117159493D01*
X105759493Y-117261982D01*
X105759488Y-117261988D01*
X105687017Y-117387511D01*
X105687016Y-117387515D01*
X105649500Y-117527525D01*
X105649500Y-117672475D01*
X105683896Y-117800840D01*
X105687017Y-117812488D01*
X105759488Y-117938011D01*
X105759490Y-117938013D01*
X105759491Y-117938015D01*
X105861985Y-118040509D01*
X105861986Y-118040510D01*
X105861988Y-118040511D01*
X105987511Y-118112982D01*
X105987512Y-118112982D01*
X105987515Y-118112984D01*
X106127525Y-118150500D01*
X106127528Y-118150500D01*
X106272472Y-118150500D01*
X106272475Y-118150500D01*
X106412485Y-118112984D01*
X106538015Y-118040509D01*
X106640509Y-117938015D01*
X106712984Y-117812485D01*
X106750500Y-117672475D01*
X106750500Y-117596544D01*
X106770185Y-117529505D01*
X106786819Y-117508863D01*
X107375161Y-116920521D01*
X108030470Y-116265212D01*
X108076614Y-116185288D01*
X108100500Y-116096144D01*
X108100500Y-86765613D01*
X108120185Y-86698574D01*
X108136819Y-86677932D01*
X108475251Y-86339500D01*
X108830470Y-85984281D01*
X108876614Y-85904357D01*
X108900500Y-85815213D01*
X108900500Y-85722925D01*
X108900500Y-79933465D01*
X109936595Y-79933465D01*
X109936595Y-80188534D01*
X109954809Y-80303531D01*
X109976494Y-80440446D01*
X110055311Y-80683020D01*
X110171105Y-80910278D01*
X110321024Y-81116623D01*
X110501377Y-81296976D01*
X110707722Y-81446895D01*
X110934980Y-81562689D01*
X111177554Y-81641506D01*
X111307342Y-81662062D01*
X111429466Y-81681405D01*
X111429471Y-81681405D01*
X111684534Y-81681405D01*
X111795862Y-81663771D01*
X111936446Y-81641506D01*
X112179020Y-81562689D01*
X112406278Y-81446895D01*
X112612623Y-81296976D01*
X112792976Y-81116623D01*
X112942895Y-80910278D01*
X113058689Y-80683020D01*
X113137506Y-80440446D01*
X113159771Y-80299862D01*
X113177405Y-80188534D01*
X113177405Y-79933465D01*
X113156245Y-79799870D01*
X113137506Y-79681554D01*
X113058689Y-79438980D01*
X112942895Y-79211722D01*
X112792976Y-79005377D01*
X112612623Y-78825024D01*
X112406278Y-78675105D01*
X112179020Y-78559311D01*
X111936446Y-78480494D01*
X111684534Y-78440595D01*
X111684529Y-78440595D01*
X111429471Y-78440595D01*
X111429466Y-78440595D01*
X111177553Y-78480494D01*
X110934977Y-78559312D01*
X110707721Y-78675105D01*
X110589994Y-78760639D01*
X110501377Y-78825024D01*
X110501375Y-78825026D01*
X110501374Y-78825026D01*
X110321026Y-79005374D01*
X110321026Y-79005375D01*
X110321024Y-79005377D01*
X110318188Y-79009281D01*
X110171105Y-79211721D01*
X110055312Y-79438977D01*
X109976494Y-79681553D01*
X109936595Y-79933465D01*
X108900500Y-79933465D01*
X108900500Y-76053856D01*
X108876614Y-75964712D01*
X108830470Y-75884788D01*
X108086819Y-75141137D01*
X108053334Y-75079814D01*
X108050500Y-75053456D01*
X108050500Y-59474626D01*
X108050500Y-59474624D01*
X108026614Y-59385480D01*
X107980470Y-59305556D01*
X103143444Y-54468530D01*
X103143443Y-54468529D01*
X103143440Y-54468527D01*
X103063522Y-54422387D01*
X103063521Y-54422386D01*
X103063520Y-54422386D01*
X102974376Y-54398500D01*
X99829857Y-54398500D01*
X99740713Y-54422386D01*
X99740710Y-54422387D01*
X99660792Y-54468527D01*
X99660787Y-54468531D01*
X98199460Y-55929858D01*
X98138137Y-55963343D01*
X98068445Y-55958359D01*
X98024098Y-55929858D01*
X97951561Y-55857321D01*
X97951552Y-55857314D01*
X97810196Y-55773717D01*
X97810193Y-55773716D01*
X97652494Y-55727900D01*
X97652497Y-55727900D01*
X97650000Y-55727703D01*
X97150000Y-55727703D01*
X97147503Y-55727900D01*
X96989806Y-55773716D01*
X96989803Y-55773717D01*
X96848447Y-55857314D01*
X96848438Y-55857321D01*
X96732321Y-55973438D01*
X96732314Y-55973447D01*
X96648717Y-56114803D01*
X96648716Y-56114806D01*
X96602900Y-56272504D01*
X96602899Y-56272510D01*
X96600000Y-56309350D01*
X90983500Y-56309350D01*
X90983500Y-55649066D01*
X90983765Y-55640957D01*
X90986339Y-55601683D01*
X90998681Y-55413378D01*
X90999670Y-55403911D01*
X91007090Y-55352308D01*
X91008193Y-55345868D01*
X91047313Y-55149194D01*
X91049935Y-55138524D01*
X91062358Y-55096216D01*
X91063878Y-55091410D01*
X91131233Y-54892988D01*
X91135829Y-54881410D01*
X91146481Y-54858084D01*
X91148016Y-54854853D01*
X91247789Y-54652533D01*
X91255897Y-54638493D01*
X91327590Y-54531197D01*
X91392177Y-54434534D01*
X91402039Y-54421681D01*
X91563786Y-54237244D01*
X91575244Y-54225786D01*
X91759681Y-54064039D01*
X91772534Y-54054177D01*
X91976493Y-53917897D01*
X91990533Y-53909789D01*
X92192853Y-53810016D01*
X92196084Y-53808481D01*
X92219410Y-53797829D01*
X92230988Y-53793233D01*
X92429410Y-53725878D01*
X92434216Y-53724358D01*
X92476524Y-53711935D01*
X92487194Y-53709313D01*
X92683868Y-53670193D01*
X92690308Y-53669090D01*
X92741911Y-53661670D01*
X92751378Y-53660681D01*
X92966057Y-53646610D01*
X92978958Y-53645765D01*
X92987067Y-53645500D01*
X99999793Y-53645500D01*
X107012933Y-53645500D01*
X107021042Y-53645765D01*
G37*
%TD.AperFunction*%
%TD*%
M02*
