M48
; DRILL file KiCad 10.0.5 date 2026-08-11T15:31:43
; FORMAT={-:-/ absolute / inch / decimal}
; #@! TF.CreationDate,2026-08-11T15:31:43-07:00
; #@! TF.GenerationSoftware,Kicad,Pcbnew,10.0.5
; #@! TF.FileFunction,Plated,1,2,PTH
FMAT,2
INCH
; #@! TA.AperFunction,Plated,PTH,ViaDrill
T1C0.0118
; #@! TA.AperFunction,Plated,PTH,ComponentDrill
T2C0.0157
%
G90
G05
T1
X3.7126Y-2.2992
X3.7126Y-5.3504
X3.7146Y-5.5906
X3.7205Y-2.9862
X3.7244Y-3.1988
X3.7264Y-3.9331
X3.7303Y-2.5492
X3.7362Y-3.7303
X3.7382Y-4.4469
X3.7441Y-4.7244
X3.7579Y-4.5551
X3.9272Y-3.2106
X3.9272Y-3.4409
X3.9272Y-4.8976
X3.937Y-2.5531
X3.9429Y-2.7421
X3.9488Y-2.9724
X3.9626Y-3.9311
X3.9803Y-4.4075
X3.9823Y-3.689
X4.0157Y-4.7205
X4.0433Y-2.1772
X4.0683Y-2.9036
X4.0683Y-3.6218
X4.0683Y-4.3399
X4.0683Y-5.058
X4.0846Y-3.1063
X4.0906Y-4.563
X4.0945Y-5.5945
X4.1043Y-5.3642
X4.1398Y-2.7598
X4.1476Y-3.6594
X4.1496Y-2.8012
X4.1535Y-2.8839
X4.1811Y-2.3957
X4.1811Y-4.6299
X4.2067Y-3.9331
X4.2303Y-3.3169
X4.5472Y-3.0846
T2
X3.6782Y-2.6574
X3.6782Y-3.0623
X3.6782Y-3.3755
X3.6782Y-3.7804
X3.6782Y-4.0936
X3.6782Y-4.4985
X3.6782Y-4.8118
X3.6782Y-5.2166
X4.1958Y-2.6574
X4.1958Y-3.0623
X4.1958Y-3.3755
X4.1958Y-3.7804
X4.1958Y-4.0936
X4.1958Y-4.4985
X4.1958Y-4.8118
X4.1958Y-5.2166
M30
