%TF.GenerationSoftware,KiCad,Pcbnew,10.0.5*%
%TF.CreationDate,2026-08-12T12:38:36-07:00*%
%TF.ProjectId,JFET String Preamp Neck,4a464554-2053-4747-9269-6e6720507265,rev?*%
%TF.SameCoordinates,Original*%
%TF.FileFunction,Copper,L1,Top*%
%TF.FilePolarity,Positive*%
%FSLAX46Y46*%
G04 Gerber Fmt 4.6, Leading zero omitted, Abs format (unit mm)*
G04 Created by KiCad (PCBNEW 10.0.5) date 2026-08-12 12:38:36*
%MOMM*%
%LPD*%
G01*
G04 APERTURE LIST*
G04 Aperture macros list*
%AMRoundRect*
0 Rectangle with rounded corners*
0 $1 Rounding radius*
0 $2 $3 $4 $5 $6 $7 $8 $9 X,Y pos of 4 corners*
0 Add a 4 corners polygon primitive as box body*
4,1,4,$2,$3,$4,$5,$6,$7,$8,$9,$2,$3,0*
0 Add four circle primitives for the rounded corners*
1,1,$1+$1,$2,$3*
1,1,$1+$1,$4,$5*
1,1,$1+$1,$6,$7*
1,1,$1+$1,$8,$9*
0 Add four rect primitives between the rounded corners*
20,1,$1+$1,$2,$3,$4,$5,0*
20,1,$1+$1,$4,$5,$6,$7,0*
20,1,$1+$1,$6,$7,$8,$9,0*
20,1,$1+$1,$8,$9,$2,$3,0*%
G04 Aperture macros list end*
%TA.AperFunction,SMDPad,CuDef*%
%ADD10RoundRect,0.140000X-0.170000X0.140000X-0.170000X-0.140000X0.170000X-0.140000X0.170000X0.140000X0*%
%TD*%
%TA.AperFunction,ComponentPad*%
%ADD11RoundRect,0.191177X-0.458823X-0.458823X0.458823X-0.458823X0.458823X0.458823X-0.458823X0.458823X0*%
%TD*%
%TA.AperFunction,SMDPad,CuDef*%
%ADD12RoundRect,0.135000X-0.135000X-0.185000X0.135000X-0.185000X0.135000X0.185000X-0.135000X0.185000X0*%
%TD*%
%TA.AperFunction,SMDPad,CuDef*%
%ADD13RoundRect,0.140000X-0.140000X-0.170000X0.140000X-0.170000X0.140000X0.170000X-0.140000X0.170000X0*%
%TD*%
%TA.AperFunction,SMDPad,CuDef*%
%ADD14RoundRect,0.135000X-0.185000X0.135000X-0.185000X-0.135000X0.185000X-0.135000X0.185000X0.135000X0*%
%TD*%
%TA.AperFunction,SMDPad,CuDef*%
%ADD15RoundRect,0.150000X0.587500X0.150000X-0.587500X0.150000X-0.587500X-0.150000X0.587500X-0.150000X0*%
%TD*%
%TA.AperFunction,ViaPad*%
%ADD16C,0.600000*%
%TD*%
%TA.AperFunction,Conductor*%
%ADD17C,0.200000*%
%TD*%
G04 APERTURE END LIST*
D10*
%TO.P,C9,1*%
%TO.N,GND*%
X102273730Y-126682983D03*
%TO.P,C9,2*%
%TO.N,Net-(Q4-D)*%
X102273730Y-127642983D03*
%TD*%
D11*
%TO.P,J3,1,Pin_1_1*%
%TO.N,Net-(J3-Pin_1)*%
X106574870Y-68833635D03*
%TD*%
D12*
%TO.P,R8,1*%
%TO.N,/SIngle FET preamp/3.7V*%
X99742111Y-110485000D03*
%TO.P,R8,2*%
%TO.N,Net-(Q3-D)*%
X100762111Y-110485000D03*
%TD*%
%TO.P,R6,1*%
%TO.N,/SIngle FET preamp/3.7V*%
X99742111Y-93135000D03*
%TO.P,R6,2*%
%TO.N,Net-(Q2-D)*%
X100762111Y-93135000D03*
%TD*%
D10*
%TO.P,C5,1*%
%TO.N,GND*%
X102273730Y-91982983D03*
%TO.P,C5,2*%
%TO.N,Net-(Q2-D)*%
X102273730Y-92942983D03*
%TD*%
D13*
%TO.P,C3,1*%
%TO.N,GND*%
X96734611Y-74732500D03*
%TO.P,C3,2*%
%TO.N,Net-(Q1-G)*%
X97694611Y-74732500D03*
%TD*%
D14*
%TO.P,R4,1*%
%TO.N,/SIngle FET preamp1/Output*%
X102264611Y-89672500D03*
%TO.P,R4,2*%
%TO.N,GND*%
X102264611Y-90692500D03*
%TD*%
D11*
%TO.P,J2,1,Pin_1_1*%
%TO.N,GND*%
X106574870Y-79116365D03*
%TD*%
%TO.P,J11,1,Pin_1_1*%
%TO.N,Net-(J11-Pin_1)*%
X106574870Y-103533635D03*
%TD*%
%TO.P,J14,1,Pin_1_1*%
%TO.N,Net-(J14-Pin_1)*%
X93429352Y-120883635D03*
%TD*%
%TO.P,J15,1,Pin_1_1*%
%TO.N,Net-(J15-Pin_1)*%
X106574870Y-120883635D03*
%TD*%
D13*
%TO.P,C4,1*%
%TO.N,GND*%
X96734611Y-92082500D03*
%TO.P,C4,2*%
%TO.N,Net-(Q2-G)*%
X97694611Y-92082500D03*
%TD*%
D15*
%TO.P,Q4,1,D_1*%
%TO.N,Net-(Q4-D)*%
X100237111Y-126587500D03*
%TO.P,Q4,2,S_2*%
%TO.N,/SIngle FET preamp3/Output*%
X100237111Y-124687500D03*
%TO.P,Q4,3,G_3*%
%TO.N,Net-(Q4-G)*%
X98362111Y-125637500D03*
%TD*%
D11*
%TO.P,J8,1,Pin_1_1*%
%TO.N,GND*%
X106574870Y-96466365D03*
%TD*%
D12*
%TO.P,R10,1*%
%TO.N,Net-(J14-Pin_1)*%
X96804611Y-124482500D03*
%TO.P,R10,2*%
%TO.N,Net-(Q4-G)*%
X97824611Y-124482500D03*
%TD*%
%TO.P,R5,1*%
%TO.N,/SIngle FET preamp/3.7V*%
X99742111Y-75785000D03*
%TO.P,R5,2*%
%TO.N,Net-(Q1-D)*%
X100762111Y-75785000D03*
%TD*%
D11*
%TO.P,J1,1,Pin_1_1*%
%TO.N,Net-(J1-Pin_1)*%
X93429352Y-68833635D03*
%TD*%
%TO.P,J5,1,Pin_1_1*%
%TO.N,Net-(J5-Pin_1)*%
X93429352Y-86183635D03*
%TD*%
D15*
%TO.P,Q2,1,D_1*%
%TO.N,Net-(Q2-D)*%
X100237111Y-91887500D03*
%TO.P,Q2,2,S_2*%
%TO.N,/SIngle FET preamp1/Output*%
X100237111Y-89987500D03*
%TO.P,Q2,3,G_3*%
%TO.N,Net-(Q2-G)*%
X98362111Y-90937500D03*
%TD*%
D11*
%TO.P,J10,1,Pin_1_1*%
%TO.N,Net-(J10-Pin_1)*%
X93429352Y-103533635D03*
%TD*%
D15*
%TO.P,Q3,1,D_1*%
%TO.N,Net-(Q3-D)*%
X100237111Y-109237500D03*
%TO.P,Q3,2,S_2*%
%TO.N,/SIngle FET preamp2/Output*%
X100237111Y-107337500D03*
%TO.P,Q3,3,G_3*%
%TO.N,Net-(Q3-G)*%
X98362111Y-108287500D03*
%TD*%
D10*
%TO.P,C7,1*%
%TO.N,GND*%
X102273730Y-109332983D03*
%TO.P,C7,2*%
%TO.N,Net-(Q3-D)*%
X102273730Y-110292983D03*
%TD*%
D12*
%TO.P,R3,1*%
%TO.N,Net-(J5-Pin_1)*%
X96804611Y-89782500D03*
%TO.P,R3,2*%
%TO.N,Net-(Q2-G)*%
X97824611Y-89782500D03*
%TD*%
D15*
%TO.P,Q1,1,D_1*%
%TO.N,Net-(Q1-D)*%
X100237111Y-74537500D03*
%TO.P,Q1,2,S_2*%
%TO.N,/SIngle FET preamp/Output*%
X100237111Y-72637500D03*
%TO.P,Q1,3,G_3*%
%TO.N,Net-(Q1-G)*%
X98362111Y-73587500D03*
%TD*%
D12*
%TO.P,R7,1*%
%TO.N,Net-(J10-Pin_1)*%
X96804611Y-107132500D03*
%TO.P,R7,2*%
%TO.N,Net-(Q3-G)*%
X97824611Y-107132500D03*
%TD*%
%TO.P,R2,1*%
%TO.N,Net-(J1-Pin_1)*%
X96804611Y-72432500D03*
%TO.P,R2,2*%
%TO.N,Net-(Q1-G)*%
X97824611Y-72432500D03*
%TD*%
D13*
%TO.P,C6,1*%
%TO.N,GND*%
X96734611Y-109432500D03*
%TO.P,C6,2*%
%TO.N,Net-(Q3-G)*%
X97694611Y-109432500D03*
%TD*%
D11*
%TO.P,J16,1,Pin_1_1*%
%TO.N,Net-(J15-Pin_1)*%
X93429352Y-131166365D03*
%TD*%
D10*
%TO.P,C2,1*%
%TO.N,GND*%
X102273730Y-74632983D03*
%TO.P,C2,2*%
%TO.N,Net-(Q1-D)*%
X102273730Y-75592983D03*
%TD*%
D11*
%TO.P,J4,1,Pin_1_1*%
%TO.N,Net-(J3-Pin_1)*%
X93429352Y-79116365D03*
%TD*%
%TO.P,J6,1,Pin_1_1*%
%TO.N,Net-(J6-Pin_1)*%
X106574870Y-86183635D03*
%TD*%
D14*
%TO.P,R1,1*%
%TO.N,/SIngle FET preamp/Output*%
X102264611Y-72322500D03*
%TO.P,R1,2*%
%TO.N,GND*%
X102264611Y-73342500D03*
%TD*%
D11*
%TO.P,J13,1,Pin_1_1*%
%TO.N,GND*%
X106574870Y-113816365D03*
%TD*%
%TO.P,J7,1,Pin_1_1*%
%TO.N,Net-(J6-Pin_1)*%
X93429352Y-96466365D03*
%TD*%
D14*
%TO.P,R9,1*%
%TO.N,/SIngle FET preamp2/Output*%
X102264611Y-107022500D03*
%TO.P,R9,2*%
%TO.N,GND*%
X102264611Y-108042500D03*
%TD*%
D12*
%TO.P,R11,1*%
%TO.N,/SIngle FET preamp/3.7V*%
X99742111Y-127835000D03*
%TO.P,R11,2*%
%TO.N,Net-(Q4-D)*%
X100762111Y-127835000D03*
%TD*%
D11*
%TO.P,J17,1,Pin_1_1*%
%TO.N,GND*%
X106574870Y-131166365D03*
%TD*%
D13*
%TO.P,C8,1*%
%TO.N,GND*%
X96734611Y-126782500D03*
%TO.P,C8,2*%
%TO.N,Net-(Q4-G)*%
X97694611Y-126782500D03*
%TD*%
D14*
%TO.P,R12,1*%
%TO.N,/SIngle FET preamp3/Output*%
X102264611Y-124372500D03*
%TO.P,R12,2*%
%TO.N,GND*%
X102264611Y-125392500D03*
%TD*%
D11*
%TO.P,J12,1,Pin_1_1*%
%TO.N,Net-(J11-Pin_1)*%
X93429352Y-113816365D03*
%TD*%
D16*
%TO.N,GND*%
X93872637Y-71591312D03*
X94218179Y-74010108D03*
X93750000Y-89500000D03*
X93850000Y-92450000D03*
X94100000Y-110100000D03*
X94000000Y-106500000D03*
X95000000Y-124750000D03*
X103050000Y-115850000D03*
X94300000Y-135900000D03*
X104100000Y-123050000D03*
X103650000Y-126000000D03*
X103550000Y-108750000D03*
X95500000Y-118700000D03*
X105600000Y-72300000D03*
X94650000Y-99900000D03*
X95450000Y-115700000D03*
X101152111Y-94145000D03*
X94902111Y-95195000D03*
X97500000Y-82950000D03*
X99752111Y-87845000D03*
X104250000Y-136250000D03*
X96150000Y-58750000D03*
X106200000Y-60850000D03*
X100152111Y-70985000D03*
X107450000Y-84250000D03*
X104000000Y-142100000D03*
X94600000Y-81250000D03*
X99500000Y-65600000D03*
X103500000Y-74050000D03*
X103500000Y-91300000D03*
X95600000Y-65500000D03*
X105450000Y-99900000D03*
X102550000Y-82550000D03*
X100650000Y-123000000D03*
X94502111Y-77185000D03*
X94350000Y-142000000D03*
X100650000Y-99850000D03*
X102550000Y-118650000D03*
%TO.N,/SIngle FET preamp/3.7V*%
X103950000Y-57900000D03*
%TO.N,/SIngle FET preamp1/Output*%
X106250000Y-74050000D03*
%TO.N,/SIngle FET preamp3/Output*%
X98500000Y-56450000D03*
%TO.N,/SIngle FET preamp2/Output*%
X105352111Y-93395000D03*
%TO.N,/SIngle FET preamp/Output*%
X105152111Y-71435000D03*
%TD*%
%TO.N,/SIngle FET preamp/3.7V*%
D17*
X92300000Y-111850000D02*
X92700000Y-111450000D01*
X92700000Y-111450000D02*
X99400000Y-111450000D01*
X99400000Y-111450000D02*
X99740000Y-111110000D01*
X99740000Y-111110000D02*
X99740000Y-110487111D01*
X99740000Y-110487111D02*
X99742111Y-110485000D01*
%TO.N,/SIngle FET preamp3/Output*%
X98500000Y-56450000D02*
X104600000Y-56450000D01*
X108650000Y-84800000D02*
X107650000Y-85800000D01*
X103500000Y-120450000D02*
X103500000Y-121900000D01*
X104600000Y-56450000D02*
X107750000Y-59600000D01*
X107750000Y-59600000D02*
X107750000Y-74750000D01*
X107750000Y-74750000D02*
X107500000Y-75000000D01*
X102264611Y-123135389D02*
X102264611Y-124372500D01*
X107500000Y-75000000D02*
X108650000Y-76150000D01*
X108650000Y-76150000D02*
X108650000Y-84800000D01*
X107650000Y-85800000D02*
X107650000Y-107950000D01*
X107650000Y-107950000D02*
X105000000Y-110600000D01*
X105000000Y-110600000D02*
X105000000Y-118950000D01*
X105000000Y-118950000D02*
X103500000Y-120450000D01*
X103500000Y-121900000D02*
X102264611Y-123135389D01*
%TO.N,GND*%
X97334611Y-75332500D02*
X98064611Y-75332500D01*
X102273730Y-126682983D02*
X102273730Y-125401619D01*
X101627247Y-108686500D02*
X102273730Y-109332983D01*
X98064611Y-92682500D02*
X99410611Y-91336500D01*
X98064611Y-110032500D02*
X99410611Y-108686500D01*
X102273730Y-125401619D02*
X102264611Y-125392500D01*
X101627247Y-91336500D02*
X102273730Y-91982983D01*
X103550000Y-108750000D02*
X103465577Y-108750000D01*
X102273730Y-91982983D02*
X102273730Y-90701619D01*
X96734611Y-92082500D02*
X97334611Y-92682500D01*
X97294611Y-127342500D02*
X98174769Y-127342500D01*
X102273730Y-90701619D02*
X102264611Y-90692500D01*
X102273730Y-109332983D02*
X102273730Y-108051619D01*
X97334611Y-110032500D02*
X98064611Y-110032500D01*
X96734611Y-109432500D02*
X97334611Y-110032500D01*
X97334611Y-92682500D02*
X98064611Y-92682500D01*
X103500000Y-91300000D02*
X103500000Y-91365577D01*
X96734611Y-126782500D02*
X97294611Y-127342500D01*
X102273730Y-73351619D02*
X102264611Y-73342500D01*
X103500000Y-74050000D02*
X103465577Y-74050000D01*
X96734611Y-74732500D02*
X97334611Y-75332500D01*
X102273730Y-108051619D02*
X102264611Y-108042500D01*
X99410611Y-91336500D02*
X101627247Y-91336500D01*
X99410611Y-73986500D02*
X101627247Y-73986500D01*
X99479769Y-126037500D02*
X101628247Y-126037500D01*
X102273730Y-74632983D02*
X102273730Y-73351619D01*
X101627247Y-73986500D02*
X102273730Y-74632983D01*
X98174769Y-127342500D02*
X99479769Y-126037500D01*
X101628247Y-126037500D02*
X102273730Y-126682983D01*
X99410611Y-108686500D02*
X101627247Y-108686500D01*
X98064611Y-75332500D02*
X99410611Y-73986500D01*
%TO.N,Net-(Q4-D)*%
X100237111Y-126587500D02*
X101218247Y-126587500D01*
X100762111Y-127835000D02*
X100762111Y-127112500D01*
X100762111Y-127112500D02*
X100237111Y-126587500D01*
X99732111Y-126632500D02*
X99687111Y-126587500D01*
X101218247Y-126587500D02*
X102273730Y-127642983D01*
%TO.N,Net-(J3-Pin_1)*%
X96999611Y-77637500D02*
X101566343Y-77637500D01*
X93429352Y-79116365D02*
X95520746Y-79116365D01*
X101566343Y-77637500D02*
X106574870Y-72628973D01*
X106574870Y-72628973D02*
X106574870Y-68833635D01*
X95520746Y-79116365D02*
X96999611Y-77637500D01*
%TO.N,/SIngle FET preamp/3.7V*%
X103450000Y-57400000D02*
X103950000Y-57900000D01*
X92300000Y-111850000D02*
X92300000Y-124850000D01*
X98502111Y-75785000D02*
X98302111Y-75985000D01*
X99742111Y-75785000D02*
X98502111Y-75785000D01*
X99250000Y-128500000D02*
X95950000Y-128500000D01*
X92300000Y-93850000D02*
X92300000Y-111850000D01*
X99742111Y-93505000D02*
X99352111Y-93895000D01*
X99742111Y-128107889D02*
X99300000Y-128550000D01*
X92300000Y-76000000D02*
X92300000Y-93500000D01*
X95950000Y-128500000D02*
X92300000Y-124850000D01*
X92300000Y-93500000D02*
X92300000Y-93850000D01*
X98302111Y-75985000D02*
X92315000Y-75985000D01*
X99300000Y-128550000D02*
X99250000Y-128500000D01*
X92300000Y-76000000D02*
X92300000Y-59700000D01*
X99742111Y-127835000D02*
X99742111Y-128107889D01*
X92345000Y-93895000D02*
X92300000Y-93850000D01*
X92300000Y-59700000D02*
X94600000Y-57400000D01*
X92315000Y-75985000D02*
X92300000Y-76000000D01*
X99742111Y-93135000D02*
X99742111Y-93505000D01*
X99352111Y-93895000D02*
X92345000Y-93895000D01*
X94600000Y-57400000D02*
X103450000Y-57400000D01*
%TO.N,Net-(Q3-D)*%
X100762111Y-110485000D02*
X100762111Y-109762500D01*
X100762111Y-109762500D02*
X100237111Y-109237500D01*
X101218247Y-109237500D02*
X102273730Y-110292983D01*
X99732111Y-109282500D02*
X99687111Y-109237500D01*
X100237111Y-109237500D02*
X101218247Y-109237500D01*
%TO.N,Net-(Q2-D)*%
X100237111Y-91887500D02*
X101218247Y-91887500D01*
X99732111Y-91932500D02*
X99687111Y-91887500D01*
X100762111Y-92412500D02*
X100237111Y-91887500D01*
X100762111Y-93135000D02*
X100762111Y-92412500D01*
X101218247Y-91887500D02*
X102273730Y-92942983D01*
%TO.N,Net-(Q1-G)*%
X98362111Y-73587500D02*
X98362111Y-74065000D01*
X97824611Y-72432500D02*
X97824611Y-73050000D01*
X97824611Y-73050000D02*
X98362111Y-73587500D01*
X98362111Y-74065000D02*
X97694611Y-74732500D01*
%TO.N,/SIngle FET preamp1/Output*%
X102264611Y-87932500D02*
X102264611Y-89672500D01*
X104550000Y-75750000D02*
X104550000Y-85642889D01*
X100552111Y-89672500D02*
X100237111Y-89987500D01*
X99649611Y-89987500D02*
X99754611Y-89882500D01*
X104552111Y-85645000D02*
X102264611Y-87932500D01*
X102264611Y-89672500D02*
X100552111Y-89672500D01*
X104550000Y-85642889D02*
X104552111Y-85645000D01*
X106250000Y-74050000D02*
X104550000Y-75750000D01*
%TO.N,Net-(J11-Pin_1)*%
X93429352Y-113816365D02*
X95520746Y-113816365D01*
X101566343Y-112337500D02*
X106574870Y-107328973D01*
X106574870Y-107328973D02*
X106574870Y-103533635D01*
%TO.N,Net-(J14-Pin_1)*%
X96804611Y-124273864D02*
X96804611Y-124482500D01*
X96613247Y-124482500D02*
X96804611Y-124482500D01*
X93423730Y-120892983D02*
X96804611Y-124273864D01*
%TO.N,Net-(J15-Pin_1)*%
X93429352Y-131166365D02*
X95520746Y-131166365D01*
X95520746Y-131166365D02*
X96999611Y-129687500D01*
X101566343Y-129687500D02*
X106574870Y-124678973D01*
X106574870Y-124678973D02*
X106574870Y-120883635D01*
X96999611Y-129687500D02*
X101566343Y-129687500D01*
%TO.N,Net-(Q2-G)*%
X98362111Y-91415000D02*
X97694611Y-92082500D01*
X97824611Y-90400000D02*
X98362111Y-90937500D01*
X97824611Y-89782500D02*
X97824611Y-90400000D01*
X98362111Y-90937500D02*
X98362111Y-91415000D01*
%TO.N,/SIngle FET preamp3/Output*%
X99649611Y-124687500D02*
X99754611Y-124582500D01*
X100552111Y-124372500D02*
X100237111Y-124687500D01*
X102264611Y-124372500D02*
X100552111Y-124372500D01*
%TO.N,Net-(Q4-G)*%
X97824611Y-125100000D02*
X98362111Y-125637500D01*
X98362111Y-126115000D02*
X97694611Y-126782500D01*
X98362111Y-125637500D02*
X98362111Y-126115000D01*
X97824611Y-124482500D02*
X97824611Y-125100000D01*
%TO.N,Net-(Q1-D)*%
X100237111Y-74537500D02*
X101218247Y-74537500D01*
X100762111Y-75785000D02*
X100762111Y-75062500D01*
X100762111Y-75062500D02*
X100237111Y-74537500D01*
X101218247Y-74537500D02*
X102273730Y-75592983D01*
X99732111Y-74582500D02*
X99687111Y-74537500D01*
%TO.N,Net-(J1-Pin_1)*%
X96804611Y-72223864D02*
X96804611Y-72432500D01*
X93423730Y-68842983D02*
X96804611Y-72223864D01*
X96613247Y-72432500D02*
X96804611Y-72432500D01*
%TO.N,Net-(J5-Pin_1)*%
X96804611Y-89573864D02*
X96804611Y-89782500D01*
X96613247Y-89782500D02*
X96804611Y-89782500D01*
X93423730Y-86192983D02*
X96804611Y-89573864D01*
%TO.N,Net-(J10-Pin_1)*%
X96804611Y-106923864D02*
X96804611Y-107132500D01*
X96613247Y-107132500D02*
X96804611Y-107132500D01*
X93423730Y-103542983D02*
X96804611Y-106923864D01*
%TO.N,/SIngle FET preamp2/Output*%
X103800000Y-94947111D02*
X103800000Y-105600000D01*
X103802111Y-94945000D02*
X103800000Y-94947111D01*
X102264611Y-107022500D02*
X100552111Y-107022500D01*
X100552111Y-107022500D02*
X100237111Y-107337500D01*
X103800000Y-105600000D02*
X102262500Y-107137500D01*
X99649611Y-107337500D02*
X99754611Y-107232500D01*
X105352111Y-93395000D02*
X103802111Y-94945000D01*
%TO.N,Net-(Q3-G)*%
X98362111Y-108287500D02*
X98362111Y-108765000D01*
X98362111Y-108765000D02*
X97694611Y-109432500D01*
X97824611Y-107132500D02*
X97824611Y-107750000D01*
X97824611Y-107750000D02*
X98362111Y-108287500D01*
%TO.N,/SIngle FET preamp/Output*%
X100552111Y-72322500D02*
X100237111Y-72637500D01*
X104064611Y-72322500D02*
X102264611Y-72322500D01*
X99649611Y-72637500D02*
X99754611Y-72532500D01*
X105152111Y-71435000D02*
X104952111Y-71435000D01*
X104952111Y-71435000D02*
X104064611Y-72322500D01*
X102264611Y-72322500D02*
X100552111Y-72322500D01*
%TO.N,Net-(J6-Pin_1)*%
X106574870Y-89978973D02*
X106574870Y-86183635D01*
X101566343Y-94987500D02*
X106574870Y-89978973D01*
X95520746Y-96466365D02*
X96999611Y-94987500D01*
X96999611Y-94987500D02*
X101566343Y-94987500D01*
X93429352Y-96466365D02*
X95520746Y-96466365D01*
%TO.N,Net-(J11-Pin_1)*%
X95520746Y-113816365D02*
X96999611Y-112337500D01*
X96999611Y-112337500D02*
X101566343Y-112337500D01*
%TD*%
%TA.AperFunction,Conductor*%
%TO.N,GND*%
G36*
X92815451Y-121756129D02*
G01*
X92887489Y-121781337D01*
X92887488Y-121781337D01*
X92891964Y-121781756D01*
X92917327Y-121784135D01*
X93767837Y-121784134D01*
X93834876Y-121803818D01*
X93855518Y-121820453D01*
X96247792Y-124212727D01*
X96281277Y-124274050D01*
X96284111Y-124300408D01*
X96284111Y-124340299D01*
X96279885Y-124372392D01*
X96262747Y-124436356D01*
X96262747Y-124528644D01*
X96263900Y-124532947D01*
X96279886Y-124592607D01*
X96284111Y-124624700D01*
X96284111Y-124704082D01*
X96295029Y-124779018D01*
X96295029Y-124779019D01*
X96295030Y-124779021D01*
X96351532Y-124894599D01*
X96351534Y-124894602D01*
X96442508Y-124985576D01*
X96442511Y-124985578D01*
X96553267Y-125039722D01*
X96558093Y-125042082D01*
X96633029Y-125053000D01*
X96633034Y-125053000D01*
X96976188Y-125053000D01*
X96976193Y-125053000D01*
X97051129Y-125042082D01*
X97130448Y-125003305D01*
X97166710Y-124985578D01*
X97166711Y-124985576D01*
X97166713Y-124985576D01*
X97226931Y-124925357D01*
X97288252Y-124891874D01*
X97357944Y-124896858D01*
X97402292Y-124925359D01*
X97437792Y-124960859D01*
X97471277Y-125022182D01*
X97474111Y-125048540D01*
X97474111Y-125146144D01*
X97474909Y-125152208D01*
X97464140Y-125221243D01*
X97452294Y-125241266D01*
X97446562Y-125249155D01*
X97388963Y-125362198D01*
X97374111Y-125455975D01*
X97374111Y-125819017D01*
X97388965Y-125912805D01*
X97391980Y-125922082D01*
X97388458Y-125923226D01*
X97397951Y-125973831D01*
X97371661Y-126038566D01*
X97314546Y-126078811D01*
X97244739Y-126081788D01*
X97211452Y-126068162D01*
X97130804Y-126020467D01*
X97130801Y-126020465D01*
X96984612Y-125977993D01*
X96984611Y-125977994D01*
X96984611Y-127587003D01*
X97130806Y-127544531D01*
X97269985Y-127462221D01*
X97269990Y-127462217D01*
X97362944Y-127369263D01*
X97424267Y-127335778D01*
X97470021Y-127334470D01*
X97523876Y-127343000D01*
X97865345Y-127342999D01*
X97865350Y-127342999D01*
X97865350Y-127342998D01*
X97919198Y-127334470D01*
X97956781Y-127328518D01*
X97956782Y-127328518D01*
X97956783Y-127328517D01*
X97956786Y-127328517D01*
X98067002Y-127272359D01*
X98154470Y-127184891D01*
X98210628Y-127074675D01*
X98210628Y-127074673D01*
X98210629Y-127074672D01*
X98210629Y-127074671D01*
X98222975Y-126996718D01*
X98225111Y-126983235D01*
X98225110Y-126799043D01*
X98244794Y-126732004D01*
X98261424Y-126711367D01*
X98642581Y-126330212D01*
X98688725Y-126250288D01*
X98688724Y-126250288D01*
X98688892Y-126249999D01*
X98739459Y-126201784D01*
X98796279Y-126187999D01*
X98981128Y-126187999D01*
X98981129Y-126187999D01*
X99074915Y-126173146D01*
X99088884Y-126166028D01*
X99157549Y-126153132D01*
X99222290Y-126179407D01*
X99262548Y-126236512D01*
X99265379Y-126302539D01*
X99265491Y-126302557D01*
X99265404Y-126303105D01*
X99265542Y-126306318D01*
X99264092Y-126311388D01*
X99249111Y-126405975D01*
X99249111Y-126769017D01*
X99253867Y-126799044D01*
X99263965Y-126862804D01*
X99321561Y-126975842D01*
X99321563Y-126975844D01*
X99321565Y-126975847D01*
X99411263Y-127065545D01*
X99411267Y-127065548D01*
X99411269Y-127065550D01*
X99441421Y-127080913D01*
X99492216Y-127128886D01*
X99509011Y-127196707D01*
X99486474Y-127262842D01*
X99439586Y-127302797D01*
X99380009Y-127331922D01*
X99289034Y-127422897D01*
X99289032Y-127422900D01*
X99232530Y-127538478D01*
X99232529Y-127538480D01*
X99232529Y-127538482D01*
X99221611Y-127613418D01*
X99221611Y-127613423D01*
X99221611Y-128025500D01*
X99201926Y-128092539D01*
X99149122Y-128138294D01*
X99097611Y-128149500D01*
X96146544Y-128149500D01*
X96079505Y-128129815D01*
X96058863Y-128113181D01*
X94978182Y-127032500D01*
X95955821Y-127032500D01*
X95957465Y-127053410D01*
X96002579Y-127208695D01*
X96084889Y-127347874D01*
X96084896Y-127347883D01*
X96199227Y-127462214D01*
X96199236Y-127462221D01*
X96338415Y-127544531D01*
X96484611Y-127587004D01*
X96484611Y-127032500D01*
X95955821Y-127032500D01*
X94978182Y-127032500D01*
X94478181Y-126532499D01*
X95955820Y-126532499D01*
X95955821Y-126532500D01*
X96484611Y-126532500D01*
X96484611Y-125977994D01*
X96484609Y-125977993D01*
X96338420Y-126020465D01*
X96338417Y-126020467D01*
X96199236Y-126102778D01*
X96199227Y-126102785D01*
X96084896Y-126217116D01*
X96084889Y-126217125D01*
X96002579Y-126356304D01*
X96002577Y-126356309D01*
X95957466Y-126511581D01*
X95957465Y-126511587D01*
X95955820Y-126532499D01*
X94478181Y-126532499D01*
X92686819Y-124741137D01*
X92653334Y-124679814D01*
X92650500Y-124653456D01*
X92650500Y-121873172D01*
X92670185Y-121806133D01*
X92722989Y-121760378D01*
X92792147Y-121750434D01*
X92815451Y-121756129D01*
G37*
%TD.AperFunction*%
%TA.AperFunction,Conductor*%
G36*
X107264949Y-104456268D02*
G01*
X107297178Y-104518260D01*
X107299500Y-104542145D01*
X107299500Y-107753456D01*
X107279815Y-107820495D01*
X107263181Y-107841137D01*
X104719532Y-110384785D01*
X104719528Y-110384791D01*
X104687095Y-110440967D01*
X104673387Y-110464709D01*
X104673386Y-110464712D01*
X104649500Y-110553856D01*
X104649500Y-118753456D01*
X104629815Y-118820495D01*
X104613181Y-118841137D01*
X103219532Y-120234785D01*
X103219528Y-120234791D01*
X103175038Y-120311848D01*
X103175039Y-120311849D01*
X103173385Y-120314713D01*
X103149500Y-120403856D01*
X103149500Y-121703456D01*
X103129815Y-121770495D01*
X103113181Y-121791137D01*
X101984142Y-122920175D01*
X101984138Y-122920180D01*
X101937998Y-123000098D01*
X101937997Y-123000101D01*
X101914111Y-123089245D01*
X101914111Y-123811904D01*
X101894426Y-123878943D01*
X101858840Y-123910615D01*
X101860868Y-123913456D01*
X101852506Y-123919426D01*
X101786251Y-123985681D01*
X101724928Y-124019166D01*
X101698570Y-124022000D01*
X100505967Y-124022000D01*
X100416823Y-124045886D01*
X100416822Y-124045886D01*
X100416820Y-124045887D01*
X100416817Y-124045888D01*
X100336898Y-124092031D01*
X100336895Y-124092032D01*
X100328244Y-124100684D01*
X100266920Y-124134167D01*
X100240566Y-124137000D01*
X99618093Y-124137000D01*
X99537130Y-124149823D01*
X99524307Y-124151854D01*
X99411269Y-124209450D01*
X99411268Y-124209451D01*
X99411263Y-124209454D01*
X99321565Y-124299152D01*
X99321562Y-124299157D01*
X99321561Y-124299158D01*
X99314628Y-124312765D01*
X99263963Y-124412198D01*
X99249111Y-124505975D01*
X99249111Y-124869017D01*
X99265492Y-124972443D01*
X99263468Y-124972763D01*
X99265101Y-125030016D01*
X99229018Y-125089847D01*
X99166315Y-125120671D01*
X99096901Y-125112703D01*
X99088891Y-125108975D01*
X99074915Y-125101854D01*
X99074914Y-125101853D01*
X99074911Y-125101852D01*
X99074912Y-125101852D01*
X98981135Y-125087000D01*
X98981130Y-125087000D01*
X98381215Y-125087000D01*
X98314176Y-125067315D01*
X98268421Y-125014511D01*
X98258477Y-124945353D01*
X98274808Y-124904632D01*
X98273175Y-124903834D01*
X98322242Y-124803464D01*
X98334193Y-124779018D01*
X98345111Y-124704082D01*
X98345111Y-124260918D01*
X98334193Y-124185982D01*
X98331833Y-124181156D01*
X98277689Y-124070400D01*
X98277687Y-124070397D01*
X98186713Y-123979423D01*
X98186710Y-123979421D01*
X98071132Y-123922919D01*
X98071130Y-123922918D01*
X98071129Y-123922918D01*
X97996193Y-123912000D01*
X97653029Y-123912000D01*
X97578093Y-123922918D01*
X97578091Y-123922918D01*
X97578089Y-123922919D01*
X97462511Y-123979421D01*
X97462508Y-123979423D01*
X97402292Y-124039640D01*
X97340969Y-124073125D01*
X97271277Y-124068141D01*
X97226930Y-124039640D01*
X97166713Y-123979423D01*
X97166710Y-123979421D01*
X97051131Y-123922918D01*
X97051129Y-123922917D01*
X96972698Y-123911490D01*
X96909198Y-123882346D01*
X96902896Y-123876467D01*
X94366170Y-121339741D01*
X94351466Y-121312813D01*
X94334874Y-121286995D01*
X94333982Y-121280794D01*
X94332685Y-121278418D01*
X94329851Y-121252060D01*
X94329851Y-121041393D01*
X97501610Y-121041393D01*
X97526703Y-121151350D01*
X97526705Y-121151356D01*
X97531464Y-121161238D01*
X97534654Y-121169834D01*
X97534882Y-121169740D01*
X97537989Y-121177242D01*
X97542794Y-121185565D01*
X97547124Y-121193760D01*
X97575636Y-121252967D01*
X97575637Y-121252969D01*
X97575639Y-121252972D01*
X97591850Y-121273300D01*
X97602286Y-121288607D01*
X97603557Y-121290809D01*
X97603564Y-121290818D01*
X97609775Y-121297029D01*
X97619041Y-121307397D01*
X97645961Y-121341153D01*
X97679719Y-121368074D01*
X97690082Y-121377334D01*
X97696294Y-121383546D01*
X97698479Y-121384807D01*
X97713793Y-121395247D01*
X97734140Y-121411473D01*
X97793437Y-121440027D01*
X97801595Y-121444339D01*
X97809867Y-121449115D01*
X97809872Y-121449116D01*
X97817380Y-121452227D01*
X97817284Y-121452458D01*
X97825837Y-121455630D01*
X97835759Y-121460408D01*
X97945719Y-121485502D01*
X98002112Y-121485500D01*
X98002612Y-121485500D01*
X99999793Y-121485500D01*
X101999500Y-121485500D01*
X102000000Y-121485500D01*
X102056393Y-121485500D01*
X102166350Y-121460403D01*
X102177179Y-121455187D01*
X102184793Y-121452365D01*
X102184659Y-121452042D01*
X102192160Y-121448934D01*
X102192167Y-121448933D01*
X102198202Y-121445448D01*
X102206398Y-121441117D01*
X102219029Y-121435034D01*
X102267967Y-121411467D01*
X102289310Y-121394445D01*
X102304629Y-121384003D01*
X102305692Y-121383389D01*
X102305691Y-121383389D01*
X102305694Y-121383388D01*
X102310680Y-121378402D01*
X102321054Y-121369131D01*
X102322380Y-121368074D01*
X102356146Y-121341146D01*
X102384132Y-121306052D01*
X102393402Y-121295680D01*
X102398386Y-121290696D01*
X102398389Y-121290692D01*
X102399003Y-121289629D01*
X102409445Y-121274310D01*
X102426467Y-121252967D01*
X102454005Y-121195783D01*
X102456117Y-121191398D01*
X102460448Y-121183202D01*
X102463933Y-121177167D01*
X102463934Y-121177160D01*
X102467042Y-121169659D01*
X102467365Y-121169793D01*
X102470187Y-121162179D01*
X102475403Y-121151350D01*
X102500500Y-121041393D01*
X102500500Y-120985000D01*
X102500500Y-120984500D01*
X102500500Y-120484793D01*
X102500500Y-120428607D01*
X102475403Y-120318650D01*
X102470185Y-120307814D01*
X102467366Y-120300213D01*
X102467045Y-120300347D01*
X102463930Y-120292826D01*
X102460443Y-120286786D01*
X102456113Y-120278593D01*
X102426469Y-120217037D01*
X102426467Y-120217034D01*
X102426467Y-120217033D01*
X102409443Y-120195686D01*
X102399005Y-120180375D01*
X102398388Y-120179306D01*
X102398386Y-120179304D01*
X102398385Y-120179302D01*
X102393400Y-120174317D01*
X102384135Y-120163951D01*
X102365824Y-120140990D01*
X102356146Y-120128854D01*
X102356144Y-120128852D01*
X102356143Y-120128851D01*
X102356142Y-120128850D01*
X102321047Y-120100863D01*
X102310679Y-120091597D01*
X102305697Y-120086615D01*
X102305694Y-120086612D01*
X102305691Y-120086610D01*
X102305687Y-120086607D01*
X102304614Y-120085988D01*
X102289315Y-120075556D01*
X102267966Y-120058532D01*
X102267967Y-120058532D01*
X102206399Y-120028883D01*
X102198209Y-120024555D01*
X102192164Y-120021065D01*
X102184662Y-120017958D01*
X102184793Y-120017639D01*
X102177192Y-120014818D01*
X102166352Y-120009598D01*
X102166342Y-120009594D01*
X102056397Y-119984500D01*
X102056393Y-119984500D01*
X102000207Y-119984500D01*
X100254207Y-119984500D01*
X99748319Y-119984500D01*
X98001905Y-119984500D01*
X98001904Y-119984500D01*
X97945724Y-119984500D01*
X97945719Y-119984501D01*
X97835757Y-120009600D01*
X97825816Y-120014387D01*
X97817279Y-120017556D01*
X97817375Y-120017788D01*
X97809867Y-120020897D01*
X97801644Y-120025644D01*
X97793463Y-120029967D01*
X97734150Y-120058532D01*
X97713799Y-120074762D01*
X97698497Y-120085196D01*
X97696299Y-120086464D01*
X97690097Y-120092666D01*
X97679744Y-120101918D01*
X97645971Y-120128852D01*
X97645970Y-120128854D01*
X97619043Y-120162618D01*
X97609783Y-120172980D01*
X97603568Y-120179194D01*
X97602300Y-120181392D01*
X97591867Y-120196694D01*
X97575647Y-120217034D01*
X97547116Y-120276277D01*
X97542790Y-120284463D01*
X97538001Y-120292758D01*
X97534893Y-120300262D01*
X97534665Y-120300167D01*
X97531485Y-120308735D01*
X97526710Y-120318651D01*
X97501613Y-120428605D01*
X97501612Y-120428612D01*
X97501612Y-120458950D01*
X97501612Y-120484792D01*
X97501612Y-120484793D01*
X97501612Y-120984500D01*
X97501612Y-120985000D01*
X97501610Y-121041393D01*
X94329851Y-121041393D01*
X94329851Y-120371612D01*
X94328113Y-120353073D01*
X94327054Y-120341772D01*
X94283079Y-120216099D01*
X94204016Y-120108971D01*
X94096888Y-120029908D01*
X94096884Y-120029906D01*
X94096883Y-120029906D01*
X93971216Y-119985932D01*
X93941381Y-119983135D01*
X92917330Y-119983135D01*
X92887493Y-119985932D01*
X92887488Y-119985933D01*
X92815454Y-120011139D01*
X92745675Y-120014700D01*
X92685048Y-119979971D01*
X92652821Y-119917978D01*
X92650500Y-119894097D01*
X92650500Y-114805902D01*
X92670185Y-114738863D01*
X92722989Y-114693108D01*
X92792147Y-114683164D01*
X92815451Y-114688859D01*
X92887489Y-114714067D01*
X92887488Y-114714067D01*
X92891964Y-114714486D01*
X92917327Y-114716865D01*
X93941376Y-114716864D01*
X93971215Y-114714067D01*
X94096888Y-114670092D01*
X94204016Y-114591029D01*
X94283079Y-114483901D01*
X94309904Y-114407239D01*
X94327054Y-114358230D01*
X94327054Y-114358228D01*
X94329852Y-114328394D01*
X94329852Y-114290865D01*
X94335570Y-114271393D01*
X97501610Y-114271393D01*
X97526704Y-114381353D01*
X97531493Y-114391297D01*
X97534661Y-114399832D01*
X97534893Y-114399736D01*
X97538000Y-114407239D01*
X97542728Y-114415429D01*
X97547056Y-114423619D01*
X97575635Y-114482964D01*
X97575639Y-114482972D01*
X97576380Y-114483901D01*
X97591902Y-114503366D01*
X97602337Y-114518672D01*
X97603566Y-114520801D01*
X97603573Y-114520810D01*
X97609708Y-114526945D01*
X97618974Y-114537313D01*
X97645961Y-114571153D01*
X97679803Y-114598141D01*
X97690166Y-114607401D01*
X97696301Y-114613536D01*
X97698415Y-114614756D01*
X97713729Y-114625196D01*
X97734140Y-114641473D01*
X97793571Y-114670092D01*
X97801734Y-114674406D01*
X97809872Y-114679104D01*
X97809878Y-114679105D01*
X97817378Y-114682212D01*
X97817279Y-114682449D01*
X97825785Y-114685605D01*
X97835759Y-114690408D01*
X97945719Y-114715502D01*
X98002112Y-114715500D01*
X98002612Y-114715500D01*
X99747905Y-114715500D01*
X100253793Y-114715500D01*
X101999500Y-114715500D01*
X102000000Y-114715500D01*
X102056393Y-114715500D01*
X102166350Y-114690403D01*
X102177179Y-114685187D01*
X102184793Y-114682365D01*
X102184659Y-114682042D01*
X102192160Y-114678934D01*
X102192167Y-114678933D01*
X102198202Y-114675448D01*
X102206398Y-114671117D01*
X102267952Y-114641474D01*
X102267967Y-114641467D01*
X102289310Y-114624445D01*
X102304629Y-114614003D01*
X102305692Y-114613389D01*
X102305691Y-114613389D01*
X102305694Y-114613388D01*
X102310680Y-114608402D01*
X102321054Y-114599131D01*
X102322296Y-114598141D01*
X102356146Y-114571146D01*
X102384132Y-114536052D01*
X102393402Y-114525680D01*
X102398386Y-114520696D01*
X102398389Y-114520692D01*
X102399003Y-114519629D01*
X102409445Y-114504310D01*
X102426467Y-114482967D01*
X102456117Y-114421398D01*
X102460448Y-114413202D01*
X102463933Y-114407167D01*
X102463934Y-114407160D01*
X102467042Y-114399659D01*
X102467365Y-114399793D01*
X102470187Y-114392179D01*
X102475403Y-114381350D01*
X102500500Y-114271393D01*
X102500500Y-114215000D01*
X102500500Y-114214500D01*
X102500500Y-113714793D01*
X102500500Y-113658607D01*
X102475403Y-113548650D01*
X102470185Y-113537814D01*
X102467366Y-113530213D01*
X102467045Y-113530347D01*
X102463930Y-113522826D01*
X102460443Y-113516786D01*
X102456113Y-113508593D01*
X102426469Y-113447037D01*
X102426468Y-113447035D01*
X102426467Y-113447033D01*
X102409443Y-113425686D01*
X102399005Y-113410375D01*
X102398388Y-113409306D01*
X102398386Y-113409304D01*
X102398385Y-113409302D01*
X102393400Y-113404317D01*
X102384135Y-113393951D01*
X102356146Y-113358854D01*
X102356144Y-113358852D01*
X102356143Y-113358851D01*
X102356142Y-113358850D01*
X102321047Y-113330863D01*
X102310679Y-113321597D01*
X102305697Y-113316615D01*
X102305694Y-113316612D01*
X102305691Y-113316610D01*
X102305687Y-113316607D01*
X102304614Y-113315988D01*
X102289315Y-113305556D01*
X102267966Y-113288532D01*
X102267967Y-113288532D01*
X102206399Y-113258883D01*
X102198209Y-113254555D01*
X102192164Y-113251065D01*
X102184662Y-113247958D01*
X102184793Y-113247639D01*
X102177192Y-113244818D01*
X102166352Y-113239598D01*
X102166342Y-113239594D01*
X102056397Y-113214500D01*
X102056393Y-113214500D01*
X102000207Y-113214500D01*
X100002319Y-113214500D01*
X98001905Y-113214500D01*
X98001904Y-113214500D01*
X97945724Y-113214500D01*
X97945719Y-113214501D01*
X97835762Y-113239599D01*
X97835760Y-113239599D01*
X97835759Y-113239600D01*
X97825876Y-113244359D01*
X97817274Y-113247552D01*
X97817368Y-113247778D01*
X97809862Y-113250886D01*
X97801498Y-113255715D01*
X97793310Y-113260042D01*
X97734149Y-113288533D01*
X97713863Y-113304711D01*
X97698561Y-113315145D01*
X97696292Y-113316454D01*
X97690013Y-113322733D01*
X97679660Y-113331985D01*
X97645971Y-113358852D01*
X97645970Y-113358854D01*
X97619110Y-113392534D01*
X97609850Y-113402896D01*
X97603560Y-113409185D01*
X97603557Y-113409190D01*
X97602244Y-113411464D01*
X97591820Y-113426752D01*
X97575646Y-113447035D01*
X97547182Y-113506141D01*
X97542849Y-113514339D01*
X97537992Y-113522751D01*
X97534883Y-113530256D01*
X97534660Y-113530163D01*
X97531460Y-113538786D01*
X97526710Y-113548650D01*
X97501613Y-113658605D01*
X97501612Y-113658612D01*
X97501612Y-113691140D01*
X97501612Y-113714792D01*
X97501612Y-113714793D01*
X97501612Y-114214500D01*
X97501612Y-114215000D01*
X97501610Y-114271393D01*
X94335570Y-114271393D01*
X94349537Y-114223826D01*
X94402341Y-114178071D01*
X94453852Y-114166865D01*
X95566888Y-114166865D01*
X95566890Y-114166865D01*
X95656034Y-114142979D01*
X95735958Y-114096835D01*
X97108474Y-112724319D01*
X97169797Y-112690834D01*
X97196155Y-112688000D01*
X101612485Y-112688000D01*
X101612487Y-112688000D01*
X101701631Y-112664114D01*
X101781555Y-112617970D01*
X106855340Y-107544185D01*
X106901484Y-107464261D01*
X106925370Y-107375117D01*
X106925370Y-107282829D01*
X106925370Y-104558134D01*
X106945055Y-104491095D01*
X106997859Y-104445340D01*
X107049370Y-104434134D01*
X107086892Y-104434134D01*
X107086894Y-104434134D01*
X107116733Y-104431337D01*
X107134543Y-104425104D01*
X107204320Y-104421541D01*
X107264949Y-104456268D01*
G37*
%TD.AperFunction*%
%TA.AperFunction,Conductor*%
G36*
X92815451Y-104406129D02*
G01*
X92887489Y-104431337D01*
X92887488Y-104431337D01*
X92891964Y-104431756D01*
X92917327Y-104434135D01*
X93767837Y-104434134D01*
X93834876Y-104453818D01*
X93855518Y-104470453D01*
X96247792Y-106862727D01*
X96281277Y-106924050D01*
X96284111Y-106950408D01*
X96284111Y-106990299D01*
X96279886Y-107022392D01*
X96262747Y-107086356D01*
X96262747Y-107178643D01*
X96279886Y-107242607D01*
X96284111Y-107274700D01*
X96284111Y-107354082D01*
X96295029Y-107429018D01*
X96295029Y-107429019D01*
X96295030Y-107429021D01*
X96351532Y-107544599D01*
X96351534Y-107544602D01*
X96442508Y-107635576D01*
X96442511Y-107635578D01*
X96553267Y-107689722D01*
X96558093Y-107692082D01*
X96633029Y-107703000D01*
X96633034Y-107703000D01*
X96976188Y-107703000D01*
X96976193Y-107703000D01*
X97051129Y-107692082D01*
X97130448Y-107653305D01*
X97166710Y-107635578D01*
X97166711Y-107635576D01*
X97166713Y-107635576D01*
X97226931Y-107575357D01*
X97288252Y-107541874D01*
X97357944Y-107546858D01*
X97402292Y-107575359D01*
X97437792Y-107610859D01*
X97471277Y-107672182D01*
X97474111Y-107698540D01*
X97474111Y-107796145D01*
X97474909Y-107802209D01*
X97464140Y-107871244D01*
X97452294Y-107891266D01*
X97446562Y-107899155D01*
X97388963Y-108012198D01*
X97374111Y-108105975D01*
X97374111Y-108469017D01*
X97388965Y-108562805D01*
X97391980Y-108572082D01*
X97388458Y-108573226D01*
X97397951Y-108623831D01*
X97371661Y-108688566D01*
X97314546Y-108728811D01*
X97244739Y-108731788D01*
X97211452Y-108718162D01*
X97130804Y-108670467D01*
X97130801Y-108670465D01*
X96984612Y-108627993D01*
X96984611Y-108627994D01*
X96984611Y-110237003D01*
X97130806Y-110194531D01*
X97269985Y-110112221D01*
X97269990Y-110112217D01*
X97362944Y-110019263D01*
X97424267Y-109985778D01*
X97470021Y-109984470D01*
X97523876Y-109993000D01*
X97865345Y-109992999D01*
X97865350Y-109992999D01*
X97865350Y-109992998D01*
X97919198Y-109984470D01*
X97956781Y-109978518D01*
X97956782Y-109978518D01*
X97956783Y-109978517D01*
X97956786Y-109978517D01*
X98067002Y-109922359D01*
X98154470Y-109834891D01*
X98210628Y-109724675D01*
X98210628Y-109724673D01*
X98210629Y-109724672D01*
X98210629Y-109724671D01*
X98222975Y-109646718D01*
X98225111Y-109633235D01*
X98225110Y-109449043D01*
X98244794Y-109382004D01*
X98261424Y-109361367D01*
X98642581Y-108980212D01*
X98688725Y-108900288D01*
X98688724Y-108900288D01*
X98688892Y-108899999D01*
X98739459Y-108851784D01*
X98796279Y-108837999D01*
X98981128Y-108837999D01*
X98981129Y-108837999D01*
X99074915Y-108823146D01*
X99088884Y-108816028D01*
X99157549Y-108803132D01*
X99222290Y-108829407D01*
X99262548Y-108886512D01*
X99265379Y-108952539D01*
X99265491Y-108952557D01*
X99265404Y-108953105D01*
X99265542Y-108956318D01*
X99264092Y-108961388D01*
X99249111Y-109055975D01*
X99249111Y-109419017D01*
X99253867Y-109449044D01*
X99263965Y-109512804D01*
X99321561Y-109625842D01*
X99321563Y-109625844D01*
X99321565Y-109625847D01*
X99411263Y-109715545D01*
X99411267Y-109715548D01*
X99411269Y-109715550D01*
X99441421Y-109730913D01*
X99492216Y-109778886D01*
X99509011Y-109846707D01*
X99486474Y-109912842D01*
X99439586Y-109952797D01*
X99380009Y-109981922D01*
X99289034Y-110072897D01*
X99289032Y-110072900D01*
X99232530Y-110188478D01*
X99232529Y-110188480D01*
X99232529Y-110188482D01*
X99221611Y-110263418D01*
X99221611Y-110706582D01*
X99232529Y-110781518D01*
X99232529Y-110781519D01*
X99232530Y-110781521D01*
X99289032Y-110897099D01*
X99293564Y-110903446D01*
X99316499Y-110969444D01*
X99300112Y-111037365D01*
X99249606Y-111085644D01*
X99192647Y-111099500D01*
X92774500Y-111099500D01*
X92707461Y-111079815D01*
X92661706Y-111027011D01*
X92650500Y-110975500D01*
X92650500Y-109682500D01*
X95955821Y-109682500D01*
X95957465Y-109703410D01*
X96002579Y-109858695D01*
X96084889Y-109997874D01*
X96084896Y-109997883D01*
X96199227Y-110112214D01*
X96199236Y-110112221D01*
X96338415Y-110194531D01*
X96484611Y-110237004D01*
X96484611Y-109682500D01*
X95955821Y-109682500D01*
X92650500Y-109682500D01*
X92650500Y-109182499D01*
X95955820Y-109182499D01*
X95955821Y-109182500D01*
X96484611Y-109182500D01*
X96484611Y-108627994D01*
X96484609Y-108627993D01*
X96338420Y-108670465D01*
X96338417Y-108670467D01*
X96199236Y-108752778D01*
X96199227Y-108752785D01*
X96084896Y-108867116D01*
X96084889Y-108867125D01*
X96002579Y-109006304D01*
X96002577Y-109006309D01*
X95957466Y-109161581D01*
X95957465Y-109161587D01*
X95955820Y-109182499D01*
X92650500Y-109182499D01*
X92650500Y-104523172D01*
X92670185Y-104456133D01*
X92722989Y-104410378D01*
X92792147Y-104400434D01*
X92815451Y-104406129D01*
G37*
%TD.AperFunction*%
%TA.AperFunction,Conductor*%
G36*
X107264949Y-87106268D02*
G01*
X107297178Y-87168260D01*
X107299500Y-87192145D01*
X107299500Y-95199665D01*
X107279815Y-95266704D01*
X107227011Y-95312459D01*
X107164278Y-95323156D01*
X107089547Y-95316365D01*
X106824870Y-95316365D01*
X106824870Y-97616365D01*
X107089545Y-97616365D01*
X107164276Y-97609573D01*
X107232822Y-97623109D01*
X107283169Y-97671555D01*
X107299500Y-97733064D01*
X107299500Y-102525123D01*
X107279815Y-102592162D01*
X107227011Y-102637917D01*
X107157853Y-102647861D01*
X107134549Y-102642166D01*
X107116732Y-102635932D01*
X107116733Y-102635932D01*
X107086899Y-102633135D01*
X106062848Y-102633135D01*
X106033011Y-102635932D01*
X106033001Y-102635934D01*
X105907338Y-102679906D01*
X105907336Y-102679907D01*
X105907335Y-102679907D01*
X105907334Y-102679908D01*
X105800206Y-102758971D01*
X105735465Y-102846694D01*
X105721142Y-102866101D01*
X105721141Y-102866103D01*
X105677167Y-102991769D01*
X105677167Y-102991771D01*
X105674370Y-103021605D01*
X105674370Y-104045656D01*
X105677167Y-104075493D01*
X105677169Y-104075503D01*
X105698164Y-104135501D01*
X105721143Y-104201171D01*
X105800206Y-104308299D01*
X105907334Y-104387362D01*
X105944692Y-104400434D01*
X106033005Y-104431337D01*
X106046785Y-104432629D01*
X106062845Y-104434135D01*
X106100369Y-104434134D01*
X106167407Y-104453817D01*
X106213163Y-104506620D01*
X106224370Y-104558134D01*
X106224370Y-107132428D01*
X106204685Y-107199467D01*
X106188051Y-107220109D01*
X103045910Y-110362249D01*
X102984587Y-110395734D01*
X102914895Y-110390750D01*
X102858962Y-110348878D01*
X102834545Y-110283414D01*
X102834229Y-110274568D01*
X102834229Y-110122245D01*
X102826413Y-110072897D01*
X102825700Y-110068396D01*
X102834654Y-109999104D01*
X102860492Y-109961317D01*
X102953447Y-109868362D01*
X102953451Y-109868357D01*
X103035761Y-109729178D01*
X103078234Y-109582983D01*
X102397730Y-109582983D01*
X102330691Y-109563298D01*
X102284936Y-109510494D01*
X102273730Y-109458983D01*
X102273730Y-109332983D01*
X102147730Y-109332983D01*
X102080691Y-109313298D01*
X102034936Y-109260494D01*
X102023730Y-109208983D01*
X102023730Y-108919887D01*
X102017445Y-108908377D01*
X102014611Y-108882019D01*
X102014611Y-108292500D01*
X102516631Y-108292500D01*
X102523642Y-108478801D01*
X102523730Y-108483464D01*
X102523730Y-109082983D01*
X103078234Y-109082983D01*
X103035761Y-108936787D01*
X102953451Y-108797608D01*
X102953448Y-108797604D01*
X102928172Y-108772329D01*
X102894686Y-108711006D01*
X102899670Y-108641314D01*
X102928172Y-108596963D01*
X102955346Y-108569789D01*
X102955349Y-108569785D01*
X103037015Y-108431694D01*
X103077455Y-108292500D01*
X102516631Y-108292500D01*
X102014611Y-108292500D01*
X101451767Y-108292500D01*
X101492206Y-108431694D01*
X101573872Y-108569785D01*
X101573879Y-108569794D01*
X101610168Y-108606082D01*
X101643654Y-108667404D01*
X101638670Y-108737096D01*
X101610171Y-108781443D01*
X101594016Y-108797597D01*
X101594006Y-108797610D01*
X101545321Y-108879932D01*
X101494252Y-108927615D01*
X101425510Y-108940118D01*
X101376592Y-108924198D01*
X101353535Y-108910886D01*
X101264391Y-108887000D01*
X101264390Y-108887000D01*
X101241866Y-108887000D01*
X101174827Y-108867315D01*
X101154185Y-108850681D01*
X101062958Y-108759454D01*
X101062955Y-108759452D01*
X101062953Y-108759450D01*
X100963887Y-108708973D01*
X100949912Y-108701852D01*
X100856135Y-108687000D01*
X99618093Y-108687000D01*
X99524307Y-108701854D01*
X99510335Y-108708973D01*
X99441666Y-108721867D01*
X99376926Y-108695588D01*
X99336671Y-108638481D01*
X99333843Y-108572460D01*
X99333731Y-108572443D01*
X99333818Y-108571889D01*
X99333681Y-108568675D01*
X99335130Y-108563605D01*
X99347823Y-108483464D01*
X99350111Y-108469019D01*
X99350110Y-108105982D01*
X99335257Y-108012196D01*
X99335256Y-108012194D01*
X99333730Y-108002557D01*
X99335753Y-108002236D01*
X99334117Y-107944994D01*
X99370195Y-107885160D01*
X99432895Y-107854330D01*
X99502309Y-107862292D01*
X99510319Y-107866019D01*
X99524307Y-107873146D01*
X99524309Y-107873146D01*
X99524311Y-107873147D01*
X99524309Y-107873147D01*
X99618086Y-107887999D01*
X99618092Y-107888000D01*
X100856129Y-107887999D01*
X100949915Y-107873146D01*
X101062953Y-107815550D01*
X101152661Y-107725842D01*
X101210257Y-107612804D01*
X101210257Y-107612802D01*
X101210258Y-107612801D01*
X101225111Y-107519024D01*
X101225111Y-107497000D01*
X101244796Y-107429961D01*
X101297600Y-107384206D01*
X101349111Y-107373000D01*
X101440583Y-107373000D01*
X101507622Y-107392685D01*
X101553377Y-107445489D01*
X101563321Y-107514647D01*
X101547315Y-107560121D01*
X101492206Y-107653305D01*
X101451767Y-107792500D01*
X103077455Y-107792500D01*
X103037015Y-107653305D01*
X102955349Y-107515214D01*
X102955342Y-107515205D01*
X102849023Y-107408886D01*
X102815538Y-107347563D01*
X102820522Y-107277871D01*
X102823850Y-107270128D01*
X102824191Y-107269024D01*
X102824191Y-107269021D01*
X102824193Y-107269018D01*
X102835111Y-107194082D01*
X102835111Y-107111932D01*
X102854796Y-107044893D01*
X102871430Y-107024251D01*
X103430000Y-106465681D01*
X104080469Y-105815212D01*
X104126614Y-105735288D01*
X104150500Y-105646144D01*
X104150500Y-96981042D01*
X105424870Y-96981042D01*
X105431198Y-97050687D01*
X105481135Y-97210941D01*
X105567965Y-97354577D01*
X105567968Y-97354581D01*
X105686653Y-97473266D01*
X105686657Y-97473269D01*
X105830293Y-97560099D01*
X105990547Y-97610036D01*
X106060193Y-97616365D01*
X106324870Y-97616365D01*
X106324870Y-96716365D01*
X105424870Y-96716365D01*
X105424870Y-96981042D01*
X104150500Y-96981042D01*
X104150500Y-96426583D01*
X106374870Y-96426583D01*
X106374870Y-96506147D01*
X106405318Y-96579656D01*
X106461579Y-96635917D01*
X106535088Y-96666365D01*
X106614652Y-96666365D01*
X106688161Y-96635917D01*
X106744422Y-96579656D01*
X106774870Y-96506147D01*
X106774870Y-96426583D01*
X106744422Y-96353074D01*
X106688161Y-96296813D01*
X106614652Y-96266365D01*
X106535088Y-96266365D01*
X106461579Y-96296813D01*
X106405318Y-96353074D01*
X106374870Y-96426583D01*
X104150500Y-96426583D01*
X104150500Y-95951687D01*
X105424870Y-95951687D01*
X105424870Y-96216365D01*
X106324870Y-96216365D01*
X106324870Y-95316365D01*
X106060193Y-95316365D01*
X105990547Y-95322693D01*
X105830293Y-95372630D01*
X105686657Y-95459460D01*
X105686653Y-95459463D01*
X105567968Y-95578148D01*
X105567965Y-95578152D01*
X105481135Y-95721788D01*
X105431198Y-95882042D01*
X105424870Y-95951687D01*
X104150500Y-95951687D01*
X104150500Y-95143655D01*
X104170185Y-95076616D01*
X104186819Y-95055974D01*
X105260974Y-93981819D01*
X105322297Y-93948334D01*
X105348655Y-93945500D01*
X105424583Y-93945500D01*
X105424586Y-93945500D01*
X105564596Y-93907984D01*
X105690126Y-93835509D01*
X105792620Y-93733015D01*
X105865095Y-93607485D01*
X105902611Y-93467475D01*
X105902611Y-93322525D01*
X105865095Y-93182515D01*
X105825377Y-93113722D01*
X105792622Y-93056988D01*
X105792617Y-93056982D01*
X105690128Y-92954493D01*
X105690122Y-92954488D01*
X105564599Y-92882017D01*
X105564600Y-92882017D01*
X105550220Y-92878164D01*
X105424586Y-92844500D01*
X105279636Y-92844500D01*
X105154002Y-92878164D01*
X105139622Y-92882017D01*
X105014099Y-92954488D01*
X105014093Y-92954493D01*
X104911604Y-93056982D01*
X104911599Y-93056988D01*
X104839128Y-93182511D01*
X104839127Y-93182515D01*
X104801611Y-93322525D01*
X104801611Y-93322527D01*
X104801611Y-93398456D01*
X104781926Y-93465495D01*
X104765292Y-93486137D01*
X103519531Y-94731897D01*
X103519529Y-94731899D01*
X103494628Y-94775030D01*
X103474605Y-94809712D01*
X103473632Y-94811395D01*
X103473384Y-94811826D01*
X103449500Y-94900967D01*
X103449500Y-105403456D01*
X103429815Y-105470495D01*
X103413181Y-105491137D01*
X102438637Y-106465681D01*
X102377314Y-106499166D01*
X102350956Y-106502000D01*
X102043029Y-106502000D01*
X101968093Y-106512918D01*
X101968091Y-106512918D01*
X101968089Y-106512919D01*
X101852511Y-106569421D01*
X101852508Y-106569423D01*
X101786251Y-106635681D01*
X101724928Y-106669166D01*
X101698570Y-106672000D01*
X100505967Y-106672000D01*
X100416823Y-106695886D01*
X100416822Y-106695886D01*
X100416820Y-106695887D01*
X100416817Y-106695888D01*
X100336898Y-106742031D01*
X100336895Y-106742032D01*
X100328244Y-106750684D01*
X100266920Y-106784167D01*
X100240566Y-106787000D01*
X99618093Y-106787000D01*
X99537130Y-106799823D01*
X99524307Y-106801854D01*
X99411269Y-106859450D01*
X99411268Y-106859451D01*
X99411263Y-106859454D01*
X99321565Y-106949152D01*
X99321562Y-106949157D01*
X99321561Y-106949158D01*
X99302362Y-106986837D01*
X99263963Y-107062198D01*
X99249111Y-107155975D01*
X99249111Y-107519017D01*
X99265492Y-107622443D01*
X99263468Y-107622763D01*
X99265101Y-107680016D01*
X99229018Y-107739847D01*
X99166315Y-107770671D01*
X99096901Y-107762703D01*
X99088891Y-107758975D01*
X99074915Y-107751854D01*
X99074914Y-107751853D01*
X99074911Y-107751852D01*
X99074912Y-107751852D01*
X98981135Y-107737000D01*
X98981130Y-107737000D01*
X98381215Y-107737000D01*
X98314176Y-107717315D01*
X98268421Y-107664511D01*
X98258477Y-107595353D01*
X98274808Y-107554632D01*
X98273175Y-107553834D01*
X98316964Y-107464260D01*
X98334193Y-107429018D01*
X98345111Y-107354082D01*
X98345111Y-106910918D01*
X98334193Y-106835982D01*
X98317509Y-106801854D01*
X98277689Y-106720400D01*
X98277687Y-106720397D01*
X98186713Y-106629423D01*
X98186710Y-106629421D01*
X98071132Y-106572919D01*
X98071130Y-106572918D01*
X98071129Y-106572918D01*
X97996193Y-106562000D01*
X97653029Y-106562000D01*
X97578093Y-106572918D01*
X97578091Y-106572918D01*
X97578089Y-106572919D01*
X97462511Y-106629421D01*
X97462508Y-106629423D01*
X97402292Y-106689640D01*
X97340969Y-106723125D01*
X97271277Y-106718141D01*
X97226930Y-106689640D01*
X97166713Y-106629423D01*
X97166710Y-106629421D01*
X97051131Y-106572918D01*
X97051129Y-106572917D01*
X96972698Y-106561490D01*
X96909198Y-106532346D01*
X96902896Y-106526467D01*
X94366170Y-103989741D01*
X94351466Y-103962813D01*
X94334874Y-103936995D01*
X94333982Y-103930794D01*
X94332685Y-103928418D01*
X94329851Y-103902060D01*
X94329851Y-103691393D01*
X97501610Y-103691393D01*
X97526703Y-103801350D01*
X97526705Y-103801356D01*
X97531464Y-103811238D01*
X97534654Y-103819834D01*
X97534882Y-103819740D01*
X97537989Y-103827242D01*
X97542794Y-103835565D01*
X97547124Y-103843760D01*
X97575636Y-103902967D01*
X97575637Y-103902969D01*
X97575639Y-103902972D01*
X97591850Y-103923300D01*
X97602286Y-103938607D01*
X97603557Y-103940809D01*
X97603564Y-103940818D01*
X97609775Y-103947029D01*
X97619041Y-103957397D01*
X97645961Y-103991153D01*
X97679719Y-104018074D01*
X97690082Y-104027334D01*
X97696294Y-104033546D01*
X97698479Y-104034807D01*
X97713793Y-104045247D01*
X97734140Y-104061473D01*
X97793437Y-104090027D01*
X97801595Y-104094339D01*
X97809867Y-104099115D01*
X97809872Y-104099116D01*
X97817380Y-104102227D01*
X97817284Y-104102458D01*
X97825837Y-104105630D01*
X97835759Y-104110408D01*
X97945719Y-104135502D01*
X98002112Y-104135500D01*
X98002612Y-104135500D01*
X99999793Y-104135500D01*
X101999500Y-104135500D01*
X102000000Y-104135500D01*
X102056393Y-104135500D01*
X102166350Y-104110403D01*
X102177179Y-104105187D01*
X102184793Y-104102365D01*
X102184659Y-104102042D01*
X102192160Y-104098934D01*
X102192167Y-104098933D01*
X102198202Y-104095448D01*
X102206398Y-104091117D01*
X102219029Y-104085034D01*
X102267967Y-104061467D01*
X102289310Y-104044445D01*
X102304629Y-104034003D01*
X102305692Y-104033389D01*
X102305691Y-104033389D01*
X102305694Y-104033388D01*
X102310680Y-104028402D01*
X102321054Y-104019131D01*
X102322380Y-104018074D01*
X102356146Y-103991146D01*
X102384132Y-103956052D01*
X102393402Y-103945680D01*
X102398386Y-103940696D01*
X102398389Y-103940692D01*
X102399003Y-103939629D01*
X102409445Y-103924310D01*
X102426467Y-103902967D01*
X102454005Y-103845783D01*
X102456117Y-103841398D01*
X102460448Y-103833202D01*
X102463933Y-103827167D01*
X102463934Y-103827160D01*
X102467042Y-103819659D01*
X102467365Y-103819793D01*
X102470187Y-103812179D01*
X102475403Y-103801350D01*
X102500500Y-103691393D01*
X102500500Y-103635000D01*
X102500500Y-103634500D01*
X102500500Y-103134793D01*
X102500500Y-103078607D01*
X102475403Y-102968650D01*
X102470185Y-102957814D01*
X102467366Y-102950213D01*
X102467045Y-102950347D01*
X102463930Y-102942826D01*
X102460443Y-102936786D01*
X102456113Y-102928593D01*
X102426469Y-102867037D01*
X102426467Y-102867034D01*
X102426467Y-102867033D01*
X102409443Y-102845686D01*
X102399005Y-102830375D01*
X102398388Y-102829306D01*
X102398386Y-102829304D01*
X102398385Y-102829302D01*
X102393400Y-102824317D01*
X102384135Y-102813951D01*
X102383072Y-102812618D01*
X102356146Y-102778854D01*
X102356144Y-102778852D01*
X102356143Y-102778851D01*
X102356142Y-102778850D01*
X102321047Y-102750863D01*
X102310679Y-102741597D01*
X102305697Y-102736615D01*
X102305694Y-102736612D01*
X102305691Y-102736610D01*
X102305687Y-102736607D01*
X102304614Y-102735988D01*
X102289315Y-102725556D01*
X102267966Y-102708532D01*
X102267967Y-102708532D01*
X102206399Y-102678883D01*
X102198209Y-102674555D01*
X102192164Y-102671065D01*
X102184662Y-102667958D01*
X102184793Y-102667639D01*
X102177192Y-102664818D01*
X102166352Y-102659598D01*
X102166342Y-102659594D01*
X102056397Y-102634500D01*
X102056393Y-102634500D01*
X102000207Y-102634500D01*
X100254207Y-102634500D01*
X99748319Y-102634500D01*
X98001905Y-102634500D01*
X98001904Y-102634500D01*
X97945724Y-102634500D01*
X97945719Y-102634501D01*
X97835757Y-102659600D01*
X97825816Y-102664387D01*
X97817279Y-102667556D01*
X97817375Y-102667788D01*
X97809867Y-102670897D01*
X97801644Y-102675644D01*
X97793463Y-102679967D01*
X97734150Y-102708532D01*
X97713799Y-102724762D01*
X97698497Y-102735196D01*
X97696299Y-102736464D01*
X97690097Y-102742666D01*
X97679744Y-102751918D01*
X97645971Y-102778852D01*
X97645970Y-102778854D01*
X97619043Y-102812618D01*
X97609783Y-102822980D01*
X97603568Y-102829194D01*
X97602300Y-102831392D01*
X97591867Y-102846694D01*
X97575647Y-102867034D01*
X97547116Y-102926277D01*
X97542790Y-102934463D01*
X97538001Y-102942758D01*
X97534893Y-102950262D01*
X97534665Y-102950167D01*
X97531485Y-102958735D01*
X97526710Y-102968651D01*
X97501613Y-103078605D01*
X97501612Y-103078612D01*
X97501612Y-103134792D01*
X97501612Y-103134793D01*
X97501612Y-103634500D01*
X97501612Y-103635000D01*
X97501610Y-103691393D01*
X94329851Y-103691393D01*
X94329851Y-103021612D01*
X94327054Y-102991776D01*
X94327054Y-102991772D01*
X94283079Y-102866099D01*
X94204016Y-102758971D01*
X94096888Y-102679908D01*
X94096884Y-102679906D01*
X94096883Y-102679906D01*
X93971216Y-102635932D01*
X93941381Y-102633135D01*
X92917330Y-102633135D01*
X92887493Y-102635932D01*
X92887488Y-102635933D01*
X92815454Y-102661139D01*
X92745675Y-102664700D01*
X92685048Y-102629971D01*
X92652821Y-102567978D01*
X92650500Y-102544097D01*
X92650500Y-97455902D01*
X92670185Y-97388863D01*
X92722989Y-97343108D01*
X92792147Y-97333164D01*
X92815451Y-97338859D01*
X92887489Y-97364067D01*
X92887488Y-97364067D01*
X92891964Y-97364486D01*
X92917327Y-97366865D01*
X93941376Y-97366864D01*
X93971215Y-97364067D01*
X94096888Y-97320092D01*
X94204016Y-97241029D01*
X94283079Y-97133901D01*
X94309903Y-97057242D01*
X94327054Y-97008230D01*
X94327054Y-97008228D01*
X94329852Y-96978394D01*
X94329852Y-96940865D01*
X94335570Y-96921393D01*
X97501610Y-96921393D01*
X97526703Y-97031350D01*
X97526705Y-97031356D01*
X97531464Y-97041238D01*
X97534654Y-97049834D01*
X97534882Y-97049740D01*
X97537989Y-97057242D01*
X97542794Y-97065565D01*
X97547124Y-97073760D01*
X97575636Y-97132967D01*
X97575637Y-97132969D01*
X97575639Y-97132972D01*
X97591850Y-97153300D01*
X97602286Y-97168607D01*
X97603557Y-97170809D01*
X97603564Y-97170818D01*
X97609775Y-97177029D01*
X97619041Y-97187397D01*
X97645961Y-97221153D01*
X97679719Y-97248074D01*
X97690082Y-97257334D01*
X97696294Y-97263546D01*
X97698479Y-97264807D01*
X97713793Y-97275247D01*
X97734140Y-97291473D01*
X97793437Y-97320027D01*
X97801595Y-97324339D01*
X97809867Y-97329115D01*
X97809872Y-97329116D01*
X97817380Y-97332227D01*
X97817284Y-97332458D01*
X97825837Y-97335630D01*
X97835759Y-97340408D01*
X97945719Y-97365502D01*
X98002112Y-97365500D01*
X98002612Y-97365500D01*
X99747905Y-97365500D01*
X100253793Y-97365500D01*
X101999500Y-97365500D01*
X102000000Y-97365500D01*
X102056393Y-97365500D01*
X102166350Y-97340403D01*
X102177179Y-97335187D01*
X102184793Y-97332365D01*
X102184659Y-97332042D01*
X102192160Y-97328934D01*
X102192167Y-97328933D01*
X102198202Y-97325448D01*
X102206398Y-97321117D01*
X102219029Y-97315034D01*
X102267967Y-97291467D01*
X102289310Y-97274445D01*
X102304629Y-97264003D01*
X102305692Y-97263389D01*
X102305691Y-97263389D01*
X102305694Y-97263388D01*
X102310680Y-97258402D01*
X102321054Y-97249131D01*
X102322380Y-97248074D01*
X102356146Y-97221146D01*
X102384132Y-97186052D01*
X102393402Y-97175680D01*
X102398386Y-97170696D01*
X102398389Y-97170692D01*
X102399003Y-97169629D01*
X102409445Y-97154310D01*
X102426467Y-97132967D01*
X102454005Y-97075783D01*
X102456117Y-97071398D01*
X102460448Y-97063202D01*
X102463933Y-97057167D01*
X102463934Y-97057160D01*
X102467042Y-97049659D01*
X102467365Y-97049793D01*
X102470187Y-97042179D01*
X102475403Y-97031350D01*
X102500500Y-96921393D01*
X102500500Y-96865000D01*
X102500500Y-96864500D01*
X102500500Y-96364793D01*
X102500500Y-96308607D01*
X102475403Y-96198650D01*
X102470185Y-96187814D01*
X102467366Y-96180213D01*
X102467045Y-96180347D01*
X102463930Y-96172826D01*
X102460443Y-96166786D01*
X102456113Y-96158593D01*
X102426469Y-96097037D01*
X102426467Y-96097034D01*
X102426467Y-96097033D01*
X102409443Y-96075686D01*
X102399005Y-96060375D01*
X102398388Y-96059306D01*
X102398386Y-96059304D01*
X102398385Y-96059302D01*
X102393400Y-96054317D01*
X102384135Y-96043951D01*
X102356146Y-96008854D01*
X102356144Y-96008852D01*
X102356143Y-96008851D01*
X102356142Y-96008850D01*
X102321047Y-95980863D01*
X102310679Y-95971597D01*
X102305697Y-95966615D01*
X102305694Y-95966612D01*
X102305691Y-95966610D01*
X102305687Y-95966607D01*
X102304614Y-95965988D01*
X102289315Y-95955556D01*
X102267966Y-95938532D01*
X102267967Y-95938532D01*
X102206399Y-95908883D01*
X102198209Y-95904555D01*
X102192164Y-95901065D01*
X102184662Y-95897958D01*
X102184793Y-95897639D01*
X102177192Y-95894818D01*
X102166352Y-95889598D01*
X102166342Y-95889594D01*
X102056397Y-95864500D01*
X102056393Y-95864500D01*
X102000207Y-95864500D01*
X100002319Y-95864500D01*
X98001905Y-95864500D01*
X98001904Y-95864500D01*
X97945724Y-95864500D01*
X97945719Y-95864501D01*
X97835757Y-95889600D01*
X97825816Y-95894387D01*
X97817279Y-95897556D01*
X97817375Y-95897788D01*
X97809867Y-95900897D01*
X97801644Y-95905644D01*
X97793463Y-95909967D01*
X97734150Y-95938532D01*
X97713799Y-95954762D01*
X97698497Y-95965196D01*
X97696299Y-95966464D01*
X97690097Y-95972666D01*
X97679744Y-95981918D01*
X97645971Y-96008852D01*
X97645970Y-96008854D01*
X97619043Y-96042618D01*
X97609783Y-96052980D01*
X97603568Y-96059194D01*
X97602300Y-96061392D01*
X97591867Y-96076694D01*
X97575647Y-96097034D01*
X97547116Y-96156277D01*
X97542790Y-96164463D01*
X97538001Y-96172758D01*
X97534893Y-96180262D01*
X97534665Y-96180167D01*
X97531485Y-96188735D01*
X97526710Y-96198651D01*
X97501613Y-96308605D01*
X97501612Y-96308612D01*
X97501612Y-96353074D01*
X97501612Y-96364792D01*
X97501612Y-96364793D01*
X97501612Y-96864500D01*
X97501612Y-96865000D01*
X97501610Y-96921393D01*
X94335570Y-96921393D01*
X94349537Y-96873826D01*
X94402341Y-96828071D01*
X94453852Y-96816865D01*
X95566888Y-96816865D01*
X95566890Y-96816865D01*
X95656034Y-96792979D01*
X95735958Y-96746835D01*
X97108474Y-95374319D01*
X97169797Y-95340834D01*
X97196155Y-95338000D01*
X101612485Y-95338000D01*
X101612487Y-95338000D01*
X101701631Y-95314114D01*
X101781555Y-95267970D01*
X106855340Y-90194185D01*
X106901484Y-90114261D01*
X106925370Y-90025117D01*
X106925370Y-89932829D01*
X106925370Y-87208134D01*
X106945055Y-87141095D01*
X106997859Y-87095340D01*
X107049370Y-87084134D01*
X107086892Y-87084134D01*
X107086894Y-87084134D01*
X107116733Y-87081337D01*
X107134543Y-87075104D01*
X107204320Y-87071541D01*
X107264949Y-87106268D01*
G37*
%TD.AperFunction*%
%TA.AperFunction,Conductor*%
G36*
X101412783Y-92577717D02*
G01*
X101676911Y-92841845D01*
X101710396Y-92903168D01*
X101713230Y-92929525D01*
X101713230Y-93113722D01*
X101727711Y-93205153D01*
X101727711Y-93205154D01*
X101727712Y-93205157D01*
X101727713Y-93205158D01*
X101762260Y-93272961D01*
X101783872Y-93315375D01*
X101783875Y-93315379D01*
X101871333Y-93402837D01*
X101871335Y-93402838D01*
X101871339Y-93402842D01*
X101981555Y-93459000D01*
X101981556Y-93459000D01*
X101981558Y-93459001D01*
X102016677Y-93464562D01*
X102072995Y-93473483D01*
X102285315Y-93473482D01*
X102352354Y-93493166D01*
X102398109Y-93545970D01*
X102408053Y-93615128D01*
X102379028Y-93678684D01*
X102372996Y-93685163D01*
X101457480Y-94600681D01*
X101396157Y-94634166D01*
X101369799Y-94637000D01*
X96953467Y-94637000D01*
X96864323Y-94660886D01*
X96864320Y-94660887D01*
X96784402Y-94707027D01*
X96784397Y-94707031D01*
X95411883Y-96079546D01*
X95350560Y-96113031D01*
X95324202Y-96115865D01*
X94453851Y-96115865D01*
X94386812Y-96096180D01*
X94341057Y-96043376D01*
X94329851Y-95991865D01*
X94329851Y-95954342D01*
X94327054Y-95924506D01*
X94327054Y-95924502D01*
X94283079Y-95798829D01*
X94204016Y-95691701D01*
X94096888Y-95612638D01*
X94096884Y-95612636D01*
X94096883Y-95612636D01*
X93971216Y-95568662D01*
X93941381Y-95565865D01*
X92917330Y-95565865D01*
X92887493Y-95568662D01*
X92887488Y-95568663D01*
X92815454Y-95593869D01*
X92745675Y-95597430D01*
X92685048Y-95562701D01*
X92652821Y-95500708D01*
X92650500Y-95476827D01*
X92650500Y-94369500D01*
X92670185Y-94302461D01*
X92722989Y-94256706D01*
X92774500Y-94245500D01*
X99398253Y-94245500D01*
X99398255Y-94245500D01*
X99487399Y-94221614D01*
X99567323Y-94175470D01*
X100022580Y-93720212D01*
X100037623Y-93694155D01*
X100088186Y-93645941D01*
X100090464Y-93644796D01*
X100104213Y-93638076D01*
X100164432Y-93577856D01*
X100225751Y-93544374D01*
X100295443Y-93549358D01*
X100339791Y-93577859D01*
X100400008Y-93638076D01*
X100400011Y-93638078D01*
X100483073Y-93678684D01*
X100515593Y-93694582D01*
X100590529Y-93705500D01*
X100590534Y-93705500D01*
X100933688Y-93705500D01*
X100933693Y-93705500D01*
X101008629Y-93694582D01*
X101066421Y-93666329D01*
X101124210Y-93638078D01*
X101124213Y-93638076D01*
X101215187Y-93547102D01*
X101215189Y-93547099D01*
X101252001Y-93471799D01*
X101271693Y-93431518D01*
X101282611Y-93356582D01*
X101282611Y-92913418D01*
X101271693Y-92838482D01*
X101269577Y-92834154D01*
X101213702Y-92719858D01*
X101201942Y-92650985D01*
X101229286Y-92586688D01*
X101287050Y-92547381D01*
X101356895Y-92545543D01*
X101412783Y-92577717D01*
G37*
%TD.AperFunction*%
%TA.AperFunction,Conductor*%
G36*
X92815451Y-87056129D02*
G01*
X92887489Y-87081337D01*
X92887488Y-87081337D01*
X92891964Y-87081756D01*
X92917327Y-87084135D01*
X93767837Y-87084134D01*
X93834876Y-87103818D01*
X93855518Y-87120453D01*
X96247792Y-89512727D01*
X96281277Y-89574050D01*
X96284111Y-89600408D01*
X96284111Y-89640299D01*
X96279886Y-89672392D01*
X96262747Y-89736356D01*
X96262747Y-89828643D01*
X96279886Y-89892607D01*
X96284111Y-89924700D01*
X96284111Y-90004082D01*
X96295029Y-90079018D01*
X96295029Y-90079019D01*
X96295030Y-90079021D01*
X96351532Y-90194599D01*
X96351534Y-90194602D01*
X96442508Y-90285576D01*
X96442511Y-90285578D01*
X96553267Y-90339722D01*
X96558093Y-90342082D01*
X96633029Y-90353000D01*
X96633034Y-90353000D01*
X96976188Y-90353000D01*
X96976193Y-90353000D01*
X97051129Y-90342082D01*
X97130448Y-90303305D01*
X97166710Y-90285578D01*
X97166711Y-90285576D01*
X97166713Y-90285576D01*
X97226931Y-90225357D01*
X97288252Y-90191874D01*
X97357944Y-90196858D01*
X97402292Y-90225359D01*
X97437792Y-90260859D01*
X97471277Y-90322182D01*
X97474111Y-90348540D01*
X97474111Y-90446145D01*
X97474909Y-90452209D01*
X97464140Y-90521244D01*
X97452294Y-90541266D01*
X97446562Y-90549155D01*
X97388963Y-90662198D01*
X97374111Y-90755975D01*
X97374111Y-91119017D01*
X97388965Y-91212805D01*
X97391980Y-91222082D01*
X97388458Y-91223226D01*
X97397951Y-91273831D01*
X97371661Y-91338566D01*
X97314546Y-91378811D01*
X97244739Y-91381788D01*
X97211452Y-91368162D01*
X97130804Y-91320467D01*
X97130801Y-91320465D01*
X96984612Y-91277993D01*
X96984611Y-91277994D01*
X96984611Y-92887003D01*
X97130806Y-92844531D01*
X97269985Y-92762221D01*
X97269990Y-92762217D01*
X97362944Y-92669263D01*
X97424267Y-92635778D01*
X97470021Y-92634470D01*
X97523876Y-92643000D01*
X97865345Y-92642999D01*
X97865350Y-92642999D01*
X97865350Y-92642998D01*
X97919198Y-92634470D01*
X97956781Y-92628518D01*
X97956782Y-92628518D01*
X97956783Y-92628517D01*
X97956786Y-92628517D01*
X98067002Y-92572359D01*
X98154470Y-92484891D01*
X98210628Y-92374675D01*
X98210628Y-92374673D01*
X98210629Y-92374672D01*
X98210629Y-92374671D01*
X98222975Y-92296718D01*
X98225111Y-92283235D01*
X98225110Y-92099043D01*
X98244794Y-92032004D01*
X98261424Y-92011367D01*
X98642581Y-91630212D01*
X98688725Y-91550288D01*
X98688724Y-91550288D01*
X98688892Y-91549999D01*
X98739459Y-91501784D01*
X98796279Y-91487999D01*
X98981128Y-91487999D01*
X98981129Y-91487999D01*
X99074915Y-91473146D01*
X99088884Y-91466028D01*
X99157549Y-91453132D01*
X99222290Y-91479407D01*
X99262548Y-91536512D01*
X99265379Y-91602539D01*
X99265491Y-91602557D01*
X99265404Y-91603105D01*
X99265542Y-91606318D01*
X99264092Y-91611388D01*
X99249111Y-91705975D01*
X99249111Y-92069017D01*
X99253867Y-92099044D01*
X99263965Y-92162804D01*
X99321561Y-92275842D01*
X99321563Y-92275844D01*
X99321565Y-92275847D01*
X99411263Y-92365545D01*
X99411267Y-92365548D01*
X99411269Y-92365550D01*
X99441421Y-92380913D01*
X99492216Y-92428886D01*
X99509011Y-92496707D01*
X99486474Y-92562842D01*
X99439586Y-92602797D01*
X99380009Y-92631922D01*
X99289034Y-92722897D01*
X99289032Y-92722900D01*
X99232530Y-92838478D01*
X99232529Y-92838480D01*
X99232529Y-92838482D01*
X99221611Y-92913418D01*
X99221611Y-92913423D01*
X99221611Y-93356582D01*
X99228319Y-93402622D01*
X99218506Y-93471799D01*
X99172851Y-93524689D01*
X99105849Y-93544500D01*
X92774500Y-93544500D01*
X92707461Y-93524815D01*
X92661706Y-93472011D01*
X92650500Y-93420500D01*
X92650500Y-92332500D01*
X95955821Y-92332500D01*
X95957465Y-92353410D01*
X96002579Y-92508695D01*
X96084889Y-92647874D01*
X96084896Y-92647883D01*
X96199227Y-92762214D01*
X96199236Y-92762221D01*
X96338415Y-92844531D01*
X96484611Y-92887004D01*
X96484611Y-92332500D01*
X95955821Y-92332500D01*
X92650500Y-92332500D01*
X92650500Y-91832499D01*
X95955820Y-91832499D01*
X95955821Y-91832500D01*
X96484611Y-91832500D01*
X96484611Y-91277994D01*
X96484609Y-91277993D01*
X96338420Y-91320465D01*
X96338417Y-91320467D01*
X96199236Y-91402778D01*
X96199227Y-91402785D01*
X96084896Y-91517116D01*
X96084889Y-91517125D01*
X96002579Y-91656304D01*
X96002577Y-91656309D01*
X95957466Y-91811581D01*
X95957465Y-91811587D01*
X95955820Y-91832499D01*
X92650500Y-91832499D01*
X92650500Y-87173172D01*
X92670185Y-87106133D01*
X92722989Y-87060378D01*
X92792147Y-87050434D01*
X92815451Y-87056129D01*
G37*
%TD.AperFunction*%
%TA.AperFunction,Conductor*%
G36*
X107364951Y-69721278D02*
G01*
X107397178Y-69783271D01*
X107399500Y-69807153D01*
X107399500Y-74553454D01*
X107379815Y-74620493D01*
X107363181Y-74641135D01*
X107267350Y-74736965D01*
X107267346Y-74736971D01*
X107219531Y-74784786D01*
X107219527Y-74784791D01*
X107173385Y-74864713D01*
X107149501Y-74953850D01*
X107149501Y-75046149D01*
X107173384Y-75135285D01*
X107173385Y-75135286D01*
X107219527Y-75215208D01*
X107219531Y-75215213D01*
X108263181Y-76258863D01*
X108296666Y-76320186D01*
X108299500Y-76346544D01*
X108299500Y-84603455D01*
X108279815Y-84670494D01*
X108263181Y-84691136D01*
X107534570Y-85419746D01*
X107473247Y-85453231D01*
X107403555Y-85448247D01*
X107357715Y-85413931D01*
X107356105Y-85415542D01*
X107349537Y-85408974D01*
X107349535Y-85408972D01*
X107349534Y-85408971D01*
X107242406Y-85329908D01*
X107242402Y-85329906D01*
X107242401Y-85329906D01*
X107116734Y-85285932D01*
X107086899Y-85283135D01*
X106062848Y-85283135D01*
X106033011Y-85285932D01*
X106033001Y-85285934D01*
X105907338Y-85329906D01*
X105907336Y-85329907D01*
X105907335Y-85329907D01*
X105907334Y-85329908D01*
X105800206Y-85408971D01*
X105735465Y-85496694D01*
X105721142Y-85516101D01*
X105721141Y-85516103D01*
X105677167Y-85641769D01*
X105677167Y-85641771D01*
X105674370Y-85671605D01*
X105674370Y-86695656D01*
X105677167Y-86725493D01*
X105677169Y-86725503D01*
X105700247Y-86791454D01*
X105721143Y-86851171D01*
X105800206Y-86958299D01*
X105907334Y-87037362D01*
X105944692Y-87050434D01*
X106033005Y-87081337D01*
X106046785Y-87082629D01*
X106062845Y-87084135D01*
X106100369Y-87084134D01*
X106167407Y-87103817D01*
X106213163Y-87156620D01*
X106224370Y-87208134D01*
X106224370Y-89782428D01*
X106204685Y-89849467D01*
X106188051Y-89870109D01*
X103045910Y-93012249D01*
X102984587Y-93045734D01*
X102914895Y-93040750D01*
X102858962Y-92998878D01*
X102834545Y-92933414D01*
X102834229Y-92924568D01*
X102834229Y-92772245D01*
X102826413Y-92722897D01*
X102825700Y-92718396D01*
X102834654Y-92649104D01*
X102860492Y-92611317D01*
X102953447Y-92518362D01*
X102953451Y-92518357D01*
X103035761Y-92379178D01*
X103078234Y-92232983D01*
X102397730Y-92232983D01*
X102330691Y-92213298D01*
X102284936Y-92160494D01*
X102273730Y-92108983D01*
X102273730Y-91982983D01*
X102147730Y-91982983D01*
X102080691Y-91963298D01*
X102034936Y-91910494D01*
X102023730Y-91858983D01*
X102023730Y-91569887D01*
X102017445Y-91558377D01*
X102014611Y-91532019D01*
X102014611Y-90942500D01*
X102516631Y-90942500D01*
X102523642Y-91128801D01*
X102523730Y-91133464D01*
X102523730Y-91732983D01*
X103078234Y-91732983D01*
X103035761Y-91586787D01*
X102953451Y-91447608D01*
X102953448Y-91447604D01*
X102928172Y-91422329D01*
X102894686Y-91361006D01*
X102899670Y-91291314D01*
X102928172Y-91246963D01*
X102955346Y-91219789D01*
X102955349Y-91219785D01*
X103037015Y-91081694D01*
X103077455Y-90942500D01*
X102516631Y-90942500D01*
X102014611Y-90942500D01*
X101451767Y-90942500D01*
X101492206Y-91081694D01*
X101573872Y-91219785D01*
X101573879Y-91219794D01*
X101610168Y-91256082D01*
X101643654Y-91317404D01*
X101638670Y-91387096D01*
X101610171Y-91431443D01*
X101594016Y-91447597D01*
X101594006Y-91447610D01*
X101545321Y-91529932D01*
X101494252Y-91577615D01*
X101425510Y-91590118D01*
X101376592Y-91574198D01*
X101353535Y-91560886D01*
X101264391Y-91537000D01*
X101264390Y-91537000D01*
X101241866Y-91537000D01*
X101174827Y-91517315D01*
X101154185Y-91500681D01*
X101062958Y-91409454D01*
X101062955Y-91409452D01*
X101062953Y-91409450D01*
X100963887Y-91358973D01*
X100949912Y-91351852D01*
X100856135Y-91337000D01*
X99618093Y-91337000D01*
X99524307Y-91351854D01*
X99510335Y-91358973D01*
X99441666Y-91371867D01*
X99376926Y-91345588D01*
X99336671Y-91288481D01*
X99333843Y-91222460D01*
X99333731Y-91222443D01*
X99333818Y-91221889D01*
X99333681Y-91218675D01*
X99335130Y-91213605D01*
X99347823Y-91133464D01*
X99350111Y-91119019D01*
X99350110Y-90755982D01*
X99335257Y-90662196D01*
X99335256Y-90662194D01*
X99333730Y-90652557D01*
X99335753Y-90652236D01*
X99334117Y-90594994D01*
X99370195Y-90535160D01*
X99432895Y-90504330D01*
X99502309Y-90512292D01*
X99510319Y-90516019D01*
X99524307Y-90523146D01*
X99524309Y-90523146D01*
X99524311Y-90523147D01*
X99524309Y-90523147D01*
X99618086Y-90537999D01*
X99618092Y-90538000D01*
X100856129Y-90537999D01*
X100949915Y-90523146D01*
X101062953Y-90465550D01*
X101152661Y-90375842D01*
X101210257Y-90262804D01*
X101210257Y-90262802D01*
X101210258Y-90262801D01*
X101225111Y-90169024D01*
X101225111Y-90147000D01*
X101244796Y-90079961D01*
X101297600Y-90034206D01*
X101349111Y-90023000D01*
X101440583Y-90023000D01*
X101507622Y-90042685D01*
X101553377Y-90095489D01*
X101563321Y-90164647D01*
X101547315Y-90210121D01*
X101492206Y-90303305D01*
X101451767Y-90442500D01*
X103077455Y-90442500D01*
X103037015Y-90303305D01*
X102955349Y-90165214D01*
X102955342Y-90165205D01*
X102849023Y-90058886D01*
X102815538Y-89997563D01*
X102820522Y-89927871D01*
X102823850Y-89920128D01*
X102824191Y-89919024D01*
X102824191Y-89919021D01*
X102824193Y-89919018D01*
X102835111Y-89844082D01*
X102835111Y-89500918D01*
X102824193Y-89425982D01*
X102821833Y-89421156D01*
X102767689Y-89310400D01*
X102767687Y-89310397D01*
X102676716Y-89219426D01*
X102668354Y-89213456D01*
X102670529Y-89210408D01*
X102633052Y-89176150D01*
X102615111Y-89111904D01*
X102615111Y-88129044D01*
X102634796Y-88062005D01*
X102651430Y-88041363D01*
X103740169Y-86952624D01*
X104832581Y-85860212D01*
X104878725Y-85780288D01*
X104902611Y-85691143D01*
X104902611Y-85598856D01*
X104901560Y-85590871D01*
X104900500Y-85574690D01*
X104900500Y-79631042D01*
X105424870Y-79631042D01*
X105431198Y-79700687D01*
X105481135Y-79860941D01*
X105567965Y-80004577D01*
X105567968Y-80004581D01*
X105686653Y-80123266D01*
X105686657Y-80123269D01*
X105830293Y-80210099D01*
X105990547Y-80260036D01*
X106060193Y-80266365D01*
X106324870Y-80266365D01*
X106824870Y-80266365D01*
X107089547Y-80266365D01*
X107159192Y-80260036D01*
X107319446Y-80210099D01*
X107463082Y-80123269D01*
X107463086Y-80123266D01*
X107581771Y-80004581D01*
X107581774Y-80004577D01*
X107668604Y-79860941D01*
X107718541Y-79700687D01*
X107724870Y-79631042D01*
X107724870Y-79366365D01*
X106824870Y-79366365D01*
X106824870Y-80266365D01*
X106324870Y-80266365D01*
X106324870Y-79366365D01*
X105424870Y-79366365D01*
X105424870Y-79631042D01*
X104900500Y-79631042D01*
X104900500Y-79076583D01*
X106374870Y-79076583D01*
X106374870Y-79156147D01*
X106405318Y-79229656D01*
X106461579Y-79285917D01*
X106535088Y-79316365D01*
X106614652Y-79316365D01*
X106688161Y-79285917D01*
X106744422Y-79229656D01*
X106774870Y-79156147D01*
X106774870Y-79076583D01*
X106744422Y-79003074D01*
X106688161Y-78946813D01*
X106614652Y-78916365D01*
X106535088Y-78916365D01*
X106461579Y-78946813D01*
X106405318Y-79003074D01*
X106374870Y-79076583D01*
X104900500Y-79076583D01*
X104900500Y-78601687D01*
X105424870Y-78601687D01*
X105424870Y-78866365D01*
X106324870Y-78866365D01*
X106824870Y-78866365D01*
X107724870Y-78866365D01*
X107724870Y-78601687D01*
X107718541Y-78532042D01*
X107668604Y-78371788D01*
X107581774Y-78228152D01*
X107581771Y-78228148D01*
X107463086Y-78109463D01*
X107463082Y-78109460D01*
X107319446Y-78022630D01*
X107159192Y-77972693D01*
X107089547Y-77966365D01*
X106824870Y-77966365D01*
X106824870Y-78866365D01*
X106324870Y-78866365D01*
X106324870Y-77966365D01*
X106060193Y-77966365D01*
X105990547Y-77972693D01*
X105830293Y-78022630D01*
X105686657Y-78109460D01*
X105686653Y-78109463D01*
X105567968Y-78228148D01*
X105567965Y-78228152D01*
X105481135Y-78371788D01*
X105431198Y-78532042D01*
X105424870Y-78601687D01*
X104900500Y-78601687D01*
X104900500Y-75946544D01*
X104920185Y-75879505D01*
X104936819Y-75858863D01*
X106158863Y-74636819D01*
X106220186Y-74603334D01*
X106246544Y-74600500D01*
X106322472Y-74600500D01*
X106322475Y-74600500D01*
X106462485Y-74562984D01*
X106588015Y-74490509D01*
X106690509Y-74388015D01*
X106762984Y-74262485D01*
X106800500Y-74122475D01*
X106800500Y-73977525D01*
X106762984Y-73837515D01*
X106729085Y-73778801D01*
X106690511Y-73711988D01*
X106690506Y-73711982D01*
X106588017Y-73609493D01*
X106588011Y-73609488D01*
X106462488Y-73537017D01*
X106462483Y-73537015D01*
X106433355Y-73529210D01*
X106373695Y-73492845D01*
X106343167Y-73429997D01*
X106351462Y-73360622D01*
X106377766Y-73321758D01*
X106855340Y-72844185D01*
X106901484Y-72764261D01*
X106925370Y-72675117D01*
X106925370Y-72582829D01*
X106925370Y-69858134D01*
X106945055Y-69791095D01*
X106997859Y-69745340D01*
X107049370Y-69734134D01*
X107086892Y-69734134D01*
X107086894Y-69734134D01*
X107116733Y-69731337D01*
X107234547Y-69690111D01*
X107304323Y-69686549D01*
X107364951Y-69721278D01*
G37*
%TD.AperFunction*%
%TA.AperFunction,Conductor*%
G36*
X104118834Y-75683205D02*
G01*
X104174767Y-75725077D01*
X104199184Y-75790541D01*
X104199500Y-75799387D01*
X104199500Y-85450567D01*
X104179815Y-85517606D01*
X104163181Y-85538248D01*
X101984142Y-87717286D01*
X101984138Y-87717291D01*
X101937998Y-87797209D01*
X101937997Y-87797212D01*
X101914111Y-87886356D01*
X101914111Y-89111904D01*
X101894426Y-89178943D01*
X101858840Y-89210615D01*
X101860868Y-89213456D01*
X101852506Y-89219426D01*
X101786251Y-89285681D01*
X101724928Y-89319166D01*
X101698570Y-89322000D01*
X100505967Y-89322000D01*
X100416823Y-89345886D01*
X100416822Y-89345886D01*
X100416820Y-89345887D01*
X100416817Y-89345888D01*
X100336898Y-89392031D01*
X100336895Y-89392032D01*
X100328244Y-89400684D01*
X100266920Y-89434167D01*
X100240566Y-89437000D01*
X99618093Y-89437000D01*
X99537130Y-89449823D01*
X99524307Y-89451854D01*
X99411269Y-89509450D01*
X99411268Y-89509451D01*
X99411263Y-89509454D01*
X99321565Y-89599152D01*
X99321562Y-89599157D01*
X99321561Y-89599158D01*
X99302362Y-89636837D01*
X99263963Y-89712198D01*
X99249111Y-89805975D01*
X99249111Y-90169017D01*
X99265492Y-90272443D01*
X99263468Y-90272763D01*
X99265101Y-90330016D01*
X99229018Y-90389847D01*
X99166315Y-90420671D01*
X99096901Y-90412703D01*
X99088891Y-90408975D01*
X99074915Y-90401854D01*
X99074914Y-90401853D01*
X99074911Y-90401852D01*
X99074912Y-90401852D01*
X98981135Y-90387000D01*
X98981130Y-90387000D01*
X98381215Y-90387000D01*
X98314176Y-90367315D01*
X98268421Y-90314511D01*
X98258477Y-90245353D01*
X98274808Y-90204632D01*
X98273175Y-90203834D01*
X98316964Y-90114260D01*
X98334193Y-90079018D01*
X98345111Y-90004082D01*
X98345111Y-89560918D01*
X98334193Y-89485982D01*
X98317509Y-89451854D01*
X98277689Y-89370400D01*
X98277687Y-89370397D01*
X98186713Y-89279423D01*
X98186710Y-89279421D01*
X98071132Y-89222919D01*
X98071130Y-89222918D01*
X98071129Y-89222918D01*
X97996193Y-89212000D01*
X97653029Y-89212000D01*
X97578093Y-89222918D01*
X97578091Y-89222918D01*
X97578089Y-89222919D01*
X97462511Y-89279421D01*
X97462508Y-89279423D01*
X97402292Y-89339640D01*
X97340969Y-89373125D01*
X97271277Y-89368141D01*
X97226930Y-89339640D01*
X97166713Y-89279423D01*
X97166710Y-89279421D01*
X97051131Y-89222918D01*
X97051129Y-89222917D01*
X96972698Y-89211490D01*
X96909198Y-89182346D01*
X96902896Y-89176467D01*
X94366170Y-86639741D01*
X94351466Y-86612813D01*
X94334874Y-86586995D01*
X94333982Y-86580794D01*
X94332685Y-86578418D01*
X94329851Y-86552060D01*
X94329851Y-86341393D01*
X97501610Y-86341393D01*
X97526703Y-86451350D01*
X97526705Y-86451356D01*
X97531464Y-86461238D01*
X97534654Y-86469834D01*
X97534882Y-86469740D01*
X97537989Y-86477242D01*
X97542794Y-86485565D01*
X97547124Y-86493760D01*
X97575636Y-86552967D01*
X97575637Y-86552969D01*
X97575639Y-86552972D01*
X97591850Y-86573300D01*
X97602286Y-86588607D01*
X97603557Y-86590809D01*
X97603564Y-86590818D01*
X97609775Y-86597029D01*
X97619041Y-86607397D01*
X97645961Y-86641153D01*
X97679719Y-86668074D01*
X97690082Y-86677334D01*
X97696294Y-86683546D01*
X97698479Y-86684807D01*
X97713793Y-86695247D01*
X97734140Y-86711473D01*
X97793437Y-86740027D01*
X97801595Y-86744339D01*
X97809867Y-86749115D01*
X97809872Y-86749116D01*
X97817380Y-86752227D01*
X97817284Y-86752458D01*
X97825837Y-86755630D01*
X97835759Y-86760408D01*
X97945719Y-86785502D01*
X98002112Y-86785500D01*
X98002612Y-86785500D01*
X99999793Y-86785500D01*
X101999500Y-86785500D01*
X102000000Y-86785500D01*
X102056393Y-86785500D01*
X102166350Y-86760403D01*
X102177179Y-86755187D01*
X102184793Y-86752365D01*
X102184659Y-86752042D01*
X102192160Y-86748934D01*
X102192167Y-86748933D01*
X102198202Y-86745448D01*
X102206398Y-86741117D01*
X102219029Y-86735034D01*
X102267967Y-86711467D01*
X102289310Y-86694445D01*
X102304629Y-86684003D01*
X102305692Y-86683389D01*
X102305691Y-86683389D01*
X102305694Y-86683388D01*
X102310680Y-86678402D01*
X102321054Y-86669131D01*
X102322380Y-86668074D01*
X102356146Y-86641146D01*
X102384132Y-86606052D01*
X102393402Y-86595680D01*
X102398386Y-86590696D01*
X102398389Y-86590692D01*
X102399003Y-86589629D01*
X102409445Y-86574310D01*
X102426467Y-86552967D01*
X102454005Y-86495783D01*
X102456117Y-86491398D01*
X102460448Y-86483202D01*
X102463933Y-86477167D01*
X102463934Y-86477160D01*
X102467042Y-86469659D01*
X102467365Y-86469793D01*
X102470187Y-86462179D01*
X102475403Y-86451350D01*
X102500500Y-86341393D01*
X102500500Y-86285000D01*
X102500500Y-86284500D01*
X102500500Y-85784793D01*
X102500500Y-85728607D01*
X102475403Y-85618650D01*
X102470185Y-85607814D01*
X102467366Y-85600213D01*
X102467045Y-85600347D01*
X102463930Y-85592826D01*
X102460443Y-85586786D01*
X102456113Y-85578593D01*
X102426469Y-85517037D01*
X102426467Y-85517034D01*
X102426467Y-85517033D01*
X102409443Y-85495686D01*
X102399005Y-85480375D01*
X102398388Y-85479306D01*
X102398386Y-85479304D01*
X102398385Y-85479302D01*
X102393400Y-85474317D01*
X102384135Y-85463951D01*
X102383072Y-85462618D01*
X102356146Y-85428854D01*
X102356144Y-85428852D01*
X102356143Y-85428851D01*
X102356142Y-85428850D01*
X102321047Y-85400863D01*
X102310679Y-85391597D01*
X102305697Y-85386615D01*
X102305694Y-85386612D01*
X102305691Y-85386610D01*
X102305687Y-85386607D01*
X102304614Y-85385988D01*
X102289315Y-85375556D01*
X102267966Y-85358532D01*
X102267967Y-85358532D01*
X102206399Y-85328883D01*
X102198209Y-85324555D01*
X102192164Y-85321065D01*
X102184662Y-85317958D01*
X102184793Y-85317639D01*
X102177192Y-85314818D01*
X102166352Y-85309598D01*
X102166342Y-85309594D01*
X102056397Y-85284500D01*
X102056393Y-85284500D01*
X102000207Y-85284500D01*
X100254207Y-85284500D01*
X99748319Y-85284500D01*
X98001905Y-85284500D01*
X98001904Y-85284500D01*
X97945724Y-85284500D01*
X97945719Y-85284501D01*
X97835757Y-85309600D01*
X97825816Y-85314387D01*
X97817279Y-85317556D01*
X97817375Y-85317788D01*
X97809867Y-85320897D01*
X97801644Y-85325644D01*
X97793463Y-85329967D01*
X97734150Y-85358532D01*
X97713799Y-85374762D01*
X97698497Y-85385196D01*
X97696299Y-85386464D01*
X97690097Y-85392666D01*
X97679744Y-85401918D01*
X97645971Y-85428852D01*
X97645970Y-85428854D01*
X97619043Y-85462618D01*
X97609783Y-85472980D01*
X97603568Y-85479194D01*
X97602300Y-85481392D01*
X97591867Y-85496694D01*
X97575647Y-85517034D01*
X97547116Y-85576277D01*
X97542790Y-85584463D01*
X97538001Y-85592758D01*
X97534893Y-85600262D01*
X97534665Y-85600167D01*
X97531485Y-85608735D01*
X97526710Y-85618651D01*
X97501613Y-85728605D01*
X97501612Y-85728612D01*
X97501612Y-85770005D01*
X97501612Y-85784792D01*
X97501612Y-85784793D01*
X97501612Y-86284500D01*
X97501612Y-86285000D01*
X97501610Y-86341393D01*
X94329851Y-86341393D01*
X94329851Y-85671612D01*
X94327054Y-85641776D01*
X94327054Y-85641772D01*
X94283079Y-85516099D01*
X94204016Y-85408971D01*
X94096888Y-85329908D01*
X94096884Y-85329906D01*
X94096883Y-85329906D01*
X93971216Y-85285932D01*
X93941381Y-85283135D01*
X92917330Y-85283135D01*
X92887493Y-85285932D01*
X92887488Y-85285933D01*
X92815454Y-85311139D01*
X92745675Y-85314700D01*
X92685048Y-85279971D01*
X92652821Y-85217978D01*
X92650500Y-85194097D01*
X92650500Y-80105902D01*
X92670185Y-80038863D01*
X92722989Y-79993108D01*
X92792147Y-79983164D01*
X92815451Y-79988859D01*
X92887489Y-80014067D01*
X92887488Y-80014067D01*
X92891964Y-80014486D01*
X92917327Y-80016865D01*
X93941376Y-80016864D01*
X93971215Y-80014067D01*
X94096888Y-79970092D01*
X94204016Y-79891029D01*
X94283079Y-79783901D01*
X94309903Y-79707242D01*
X94327054Y-79658230D01*
X94327054Y-79658228D01*
X94329852Y-79628394D01*
X94329852Y-79590865D01*
X94335570Y-79571393D01*
X97501610Y-79571393D01*
X97526703Y-79681350D01*
X97526705Y-79681356D01*
X97531464Y-79691238D01*
X97534654Y-79699834D01*
X97534882Y-79699740D01*
X97537989Y-79707242D01*
X97542794Y-79715565D01*
X97547124Y-79723760D01*
X97575636Y-79782967D01*
X97575637Y-79782969D01*
X97575639Y-79782972D01*
X97591850Y-79803300D01*
X97602286Y-79818607D01*
X97603557Y-79820809D01*
X97603564Y-79820818D01*
X97609775Y-79827029D01*
X97619041Y-79837397D01*
X97645961Y-79871153D01*
X97679719Y-79898074D01*
X97690082Y-79907334D01*
X97696294Y-79913546D01*
X97698479Y-79914807D01*
X97713793Y-79925247D01*
X97734140Y-79941473D01*
X97793437Y-79970027D01*
X97801595Y-79974339D01*
X97809867Y-79979115D01*
X97809872Y-79979116D01*
X97817380Y-79982227D01*
X97817284Y-79982458D01*
X97825837Y-79985630D01*
X97835759Y-79990408D01*
X97945719Y-80015502D01*
X98002112Y-80015500D01*
X98002612Y-80015500D01*
X99747905Y-80015500D01*
X100253793Y-80015500D01*
X101999500Y-80015500D01*
X102000000Y-80015500D01*
X102056393Y-80015500D01*
X102166350Y-79990403D01*
X102177179Y-79985187D01*
X102184793Y-79982365D01*
X102184659Y-79982042D01*
X102192160Y-79978934D01*
X102192167Y-79978933D01*
X102198202Y-79975448D01*
X102206398Y-79971117D01*
X102258180Y-79946180D01*
X102267967Y-79941467D01*
X102289310Y-79924445D01*
X102304629Y-79914003D01*
X102305692Y-79913389D01*
X102305691Y-79913389D01*
X102305694Y-79913388D01*
X102310680Y-79908402D01*
X102321054Y-79899131D01*
X102322380Y-79898074D01*
X102356146Y-79871146D01*
X102384132Y-79836052D01*
X102393402Y-79825680D01*
X102398386Y-79820696D01*
X102398389Y-79820692D01*
X102399003Y-79819629D01*
X102409445Y-79804310D01*
X102426467Y-79782967D01*
X102454005Y-79725783D01*
X102456117Y-79721398D01*
X102460448Y-79713202D01*
X102463933Y-79707167D01*
X102463934Y-79707160D01*
X102467042Y-79699659D01*
X102467365Y-79699793D01*
X102470187Y-79692179D01*
X102475403Y-79681350D01*
X102500500Y-79571393D01*
X102500500Y-79515000D01*
X102500500Y-79514500D01*
X102500500Y-79014793D01*
X102500500Y-78958607D01*
X102475403Y-78848650D01*
X102470185Y-78837814D01*
X102467366Y-78830213D01*
X102467045Y-78830347D01*
X102463930Y-78822826D01*
X102460443Y-78816786D01*
X102456113Y-78808593D01*
X102426469Y-78747037D01*
X102426467Y-78747034D01*
X102426467Y-78747033D01*
X102409443Y-78725686D01*
X102399005Y-78710375D01*
X102398388Y-78709306D01*
X102398386Y-78709304D01*
X102398385Y-78709302D01*
X102393400Y-78704317D01*
X102384135Y-78693951D01*
X102356146Y-78658854D01*
X102356144Y-78658852D01*
X102356143Y-78658851D01*
X102356142Y-78658850D01*
X102321047Y-78630863D01*
X102310679Y-78621597D01*
X102305697Y-78616615D01*
X102305694Y-78616612D01*
X102305691Y-78616610D01*
X102305687Y-78616607D01*
X102304614Y-78615988D01*
X102289315Y-78605556D01*
X102267966Y-78588532D01*
X102267967Y-78588532D01*
X102206399Y-78558883D01*
X102198209Y-78554555D01*
X102192164Y-78551065D01*
X102184662Y-78547958D01*
X102184793Y-78547639D01*
X102177192Y-78544818D01*
X102166352Y-78539598D01*
X102166342Y-78539594D01*
X102056397Y-78514500D01*
X102056393Y-78514500D01*
X102000207Y-78514500D01*
X100002319Y-78514500D01*
X98001905Y-78514500D01*
X98001904Y-78514500D01*
X97945724Y-78514500D01*
X97945719Y-78514501D01*
X97835757Y-78539600D01*
X97825816Y-78544387D01*
X97817279Y-78547556D01*
X97817375Y-78547788D01*
X97809867Y-78550897D01*
X97801644Y-78555644D01*
X97793463Y-78559967D01*
X97734150Y-78588532D01*
X97713799Y-78604762D01*
X97698497Y-78615196D01*
X97696299Y-78616464D01*
X97690097Y-78622666D01*
X97679744Y-78631918D01*
X97645971Y-78658852D01*
X97645970Y-78658854D01*
X97619043Y-78692618D01*
X97609783Y-78702980D01*
X97603568Y-78709194D01*
X97602300Y-78711392D01*
X97591867Y-78726694D01*
X97575647Y-78747034D01*
X97547116Y-78806277D01*
X97542790Y-78814463D01*
X97538001Y-78822758D01*
X97534893Y-78830262D01*
X97534665Y-78830167D01*
X97531485Y-78838735D01*
X97526710Y-78848651D01*
X97501613Y-78958605D01*
X97501612Y-78958612D01*
X97501612Y-79003074D01*
X97501612Y-79014792D01*
X97501612Y-79014793D01*
X97501612Y-79514500D01*
X97501612Y-79515000D01*
X97501610Y-79571393D01*
X94335570Y-79571393D01*
X94349537Y-79523826D01*
X94402341Y-79478071D01*
X94453852Y-79466865D01*
X95566888Y-79466865D01*
X95566890Y-79466865D01*
X95656034Y-79442979D01*
X95735958Y-79396835D01*
X97108474Y-78024319D01*
X97169797Y-77990834D01*
X97196155Y-77988000D01*
X101612485Y-77988000D01*
X101612487Y-77988000D01*
X101701631Y-77964114D01*
X101781555Y-77917970D01*
X103987819Y-75711706D01*
X104049142Y-75678221D01*
X104118834Y-75683205D01*
G37*
%TD.AperFunction*%
%TA.AperFunction,Conductor*%
G36*
X101412783Y-75227717D02*
G01*
X101676911Y-75491845D01*
X101710396Y-75553168D01*
X101713230Y-75579525D01*
X101713230Y-75763722D01*
X101727711Y-75855153D01*
X101727711Y-75855154D01*
X101727712Y-75855157D01*
X101727713Y-75855158D01*
X101778002Y-75953856D01*
X101783872Y-75965375D01*
X101783875Y-75965379D01*
X101871333Y-76052837D01*
X101871335Y-76052838D01*
X101871339Y-76052842D01*
X101981555Y-76109000D01*
X101981556Y-76109000D01*
X101981558Y-76109001D01*
X102016677Y-76114562D01*
X102072995Y-76123483D01*
X102285315Y-76123482D01*
X102352354Y-76143166D01*
X102398109Y-76195970D01*
X102408053Y-76265128D01*
X102379028Y-76328684D01*
X102372996Y-76335163D01*
X101457480Y-77250681D01*
X101396157Y-77284166D01*
X101369799Y-77287000D01*
X96953467Y-77287000D01*
X96864323Y-77310886D01*
X96864320Y-77310887D01*
X96784402Y-77357027D01*
X96784397Y-77357031D01*
X95411883Y-78729546D01*
X95350560Y-78763031D01*
X95324202Y-78765865D01*
X94453851Y-78765865D01*
X94386812Y-78746180D01*
X94341057Y-78693376D01*
X94329851Y-78641865D01*
X94329851Y-78604342D01*
X94327054Y-78574506D01*
X94327054Y-78574502D01*
X94283079Y-78448829D01*
X94204016Y-78341701D01*
X94096888Y-78262638D01*
X94096884Y-78262636D01*
X94096883Y-78262636D01*
X93971216Y-78218662D01*
X93941381Y-78215865D01*
X92917330Y-78215865D01*
X92887493Y-78218662D01*
X92887488Y-78218663D01*
X92815454Y-78243869D01*
X92745675Y-78247430D01*
X92685048Y-78212701D01*
X92652821Y-78150708D01*
X92650500Y-78126827D01*
X92650500Y-76459500D01*
X92670185Y-76392461D01*
X92722989Y-76346706D01*
X92774500Y-76335500D01*
X98348253Y-76335500D01*
X98348255Y-76335500D01*
X98437399Y-76311614D01*
X98517323Y-76265470D01*
X98610974Y-76171819D01*
X98672297Y-76138334D01*
X98698655Y-76135500D01*
X99181515Y-76135500D01*
X99248554Y-76155185D01*
X99280226Y-76190770D01*
X99283067Y-76188743D01*
X99289037Y-76197105D01*
X99380008Y-76288076D01*
X99380011Y-76288078D01*
X99490767Y-76342222D01*
X99495593Y-76344582D01*
X99570529Y-76355500D01*
X99570534Y-76355500D01*
X99913688Y-76355500D01*
X99913693Y-76355500D01*
X99988629Y-76344582D01*
X100089678Y-76295182D01*
X100104210Y-76288078D01*
X100104213Y-76288076D01*
X100164430Y-76227860D01*
X100225753Y-76194375D01*
X100295445Y-76199359D01*
X100339792Y-76227860D01*
X100400008Y-76288076D01*
X100400011Y-76288078D01*
X100510767Y-76342222D01*
X100515593Y-76344582D01*
X100590529Y-76355500D01*
X100590534Y-76355500D01*
X100933688Y-76355500D01*
X100933693Y-76355500D01*
X101008629Y-76344582D01*
X101109678Y-76295182D01*
X101124210Y-76288078D01*
X101124213Y-76288076D01*
X101215187Y-76197102D01*
X101215189Y-76197099D01*
X101258257Y-76109001D01*
X101271693Y-76081518D01*
X101282611Y-76006582D01*
X101282611Y-75563418D01*
X101271693Y-75488482D01*
X101269577Y-75484154D01*
X101213702Y-75369858D01*
X101201942Y-75300985D01*
X101229286Y-75236688D01*
X101287050Y-75197381D01*
X101356895Y-75195543D01*
X101412783Y-75227717D01*
G37*
%TD.AperFunction*%
%TA.AperFunction,Conductor*%
G36*
X104470495Y-56820185D02*
G01*
X104491137Y-56836819D01*
X107363181Y-59708863D01*
X107396666Y-59770186D01*
X107399500Y-59796544D01*
X107399500Y-67860116D01*
X107379815Y-67927155D01*
X107327011Y-67972910D01*
X107257853Y-67982854D01*
X107234545Y-67977157D01*
X107116734Y-67935932D01*
X107086899Y-67933135D01*
X106062848Y-67933135D01*
X106033011Y-67935932D01*
X106033001Y-67935934D01*
X105907338Y-67979906D01*
X105907336Y-67979907D01*
X105907335Y-67979907D01*
X105907334Y-67979908D01*
X105800206Y-68058971D01*
X105735465Y-68146694D01*
X105721142Y-68166101D01*
X105721141Y-68166103D01*
X105677167Y-68291769D01*
X105677167Y-68291771D01*
X105674370Y-68321605D01*
X105674370Y-69345656D01*
X105677167Y-69375493D01*
X105677169Y-69375503D01*
X105698164Y-69435501D01*
X105721143Y-69501171D01*
X105800206Y-69608299D01*
X105907334Y-69687362D01*
X105944692Y-69700434D01*
X106033005Y-69731337D01*
X106046785Y-69732629D01*
X106062845Y-69734135D01*
X106100369Y-69734134D01*
X106167407Y-69753817D01*
X106213163Y-69806620D01*
X106224370Y-69858134D01*
X106224370Y-72432428D01*
X106204685Y-72499467D01*
X106188051Y-72520109D01*
X103045910Y-75662249D01*
X102984587Y-75695734D01*
X102914895Y-75690750D01*
X102858962Y-75648878D01*
X102834545Y-75583414D01*
X102834229Y-75574568D01*
X102834229Y-75422245D01*
X102826413Y-75372898D01*
X102825700Y-75368396D01*
X102834654Y-75299104D01*
X102860492Y-75261317D01*
X102953447Y-75168362D01*
X102953451Y-75168357D01*
X103035761Y-75029178D01*
X103078234Y-74882983D01*
X102397730Y-74882983D01*
X102330691Y-74863298D01*
X102284936Y-74810494D01*
X102273730Y-74758983D01*
X102273730Y-74632983D01*
X102147730Y-74632983D01*
X102080691Y-74613298D01*
X102034936Y-74560494D01*
X102023730Y-74508983D01*
X102023730Y-74219887D01*
X102017445Y-74208377D01*
X102014611Y-74182019D01*
X102014611Y-73592500D01*
X102516631Y-73592500D01*
X102523642Y-73778801D01*
X102523730Y-73783464D01*
X102523730Y-74382983D01*
X103078234Y-74382983D01*
X103035761Y-74236787D01*
X102953451Y-74097608D01*
X102953448Y-74097604D01*
X102928172Y-74072329D01*
X102894686Y-74011006D01*
X102899670Y-73941314D01*
X102928172Y-73896963D01*
X102955346Y-73869789D01*
X102955349Y-73869785D01*
X103037015Y-73731694D01*
X103077455Y-73592500D01*
X102516631Y-73592500D01*
X102014611Y-73592500D01*
X101451767Y-73592500D01*
X101492206Y-73731694D01*
X101573872Y-73869785D01*
X101573879Y-73869794D01*
X101610168Y-73906082D01*
X101643654Y-73967404D01*
X101638670Y-74037096D01*
X101610171Y-74081443D01*
X101594016Y-74097597D01*
X101594006Y-74097610D01*
X101545321Y-74179932D01*
X101494252Y-74227615D01*
X101425510Y-74240118D01*
X101376592Y-74224198D01*
X101353535Y-74210886D01*
X101264391Y-74187000D01*
X101264390Y-74187000D01*
X101241866Y-74187000D01*
X101174827Y-74167315D01*
X101154185Y-74150681D01*
X101062958Y-74059454D01*
X101062955Y-74059452D01*
X101062953Y-74059450D01*
X100963887Y-74008973D01*
X100949912Y-74001852D01*
X100856135Y-73987000D01*
X99618093Y-73987000D01*
X99524307Y-74001854D01*
X99510335Y-74008973D01*
X99441666Y-74021867D01*
X99376926Y-73995588D01*
X99336671Y-73938481D01*
X99333843Y-73872460D01*
X99333731Y-73872443D01*
X99333818Y-73871889D01*
X99333681Y-73868675D01*
X99335130Y-73863605D01*
X99347823Y-73783464D01*
X99350111Y-73769019D01*
X99350110Y-73405982D01*
X99335257Y-73312196D01*
X99335256Y-73312194D01*
X99333730Y-73302557D01*
X99335753Y-73302236D01*
X99334117Y-73244994D01*
X99370195Y-73185160D01*
X99432895Y-73154330D01*
X99502309Y-73162292D01*
X99510319Y-73166019D01*
X99524307Y-73173146D01*
X99524309Y-73173146D01*
X99524311Y-73173147D01*
X99524309Y-73173147D01*
X99618086Y-73187999D01*
X99618092Y-73188000D01*
X100856129Y-73187999D01*
X100949915Y-73173146D01*
X101062953Y-73115550D01*
X101152661Y-73025842D01*
X101210257Y-72912804D01*
X101210257Y-72912802D01*
X101210258Y-72912801D01*
X101225111Y-72819024D01*
X101225111Y-72797000D01*
X101244796Y-72729961D01*
X101297600Y-72684206D01*
X101349111Y-72673000D01*
X101440583Y-72673000D01*
X101507622Y-72692685D01*
X101553377Y-72745489D01*
X101563321Y-72814647D01*
X101547315Y-72860121D01*
X101492206Y-72953305D01*
X101451767Y-73092500D01*
X103077455Y-73092500D01*
X103037015Y-72953305D01*
X102981907Y-72860121D01*
X102964724Y-72792397D01*
X102986884Y-72726134D01*
X103041350Y-72682371D01*
X103088639Y-72673000D01*
X104110753Y-72673000D01*
X104110755Y-72673000D01*
X104199899Y-72649114D01*
X104202311Y-72647720D01*
X104202330Y-72647716D01*
X104202328Y-72647711D01*
X104279823Y-72602970D01*
X104885205Y-71997586D01*
X104946526Y-71964103D01*
X105004972Y-71965493D01*
X105079636Y-71985500D01*
X105079640Y-71985500D01*
X105224583Y-71985500D01*
X105224586Y-71985500D01*
X105364596Y-71947984D01*
X105490126Y-71875509D01*
X105592620Y-71773015D01*
X105665095Y-71647485D01*
X105702611Y-71507475D01*
X105702611Y-71362525D01*
X105665095Y-71222515D01*
X105592620Y-71096985D01*
X105490126Y-70994491D01*
X105490124Y-70994490D01*
X105490122Y-70994488D01*
X105364599Y-70922017D01*
X105364600Y-70922017D01*
X105353117Y-70918940D01*
X105224586Y-70884500D01*
X105079636Y-70884500D01*
X104951104Y-70918940D01*
X104939622Y-70922017D01*
X104814099Y-70994488D01*
X104814093Y-70994493D01*
X104711604Y-71096982D01*
X104711599Y-71096988D01*
X104639128Y-71222511D01*
X104639126Y-71222516D01*
X104636823Y-71231112D01*
X104604730Y-71286697D01*
X103955748Y-71935681D01*
X103894425Y-71969166D01*
X103868067Y-71972000D01*
X102830652Y-71972000D01*
X102763613Y-71952315D01*
X102742971Y-71935681D01*
X102676713Y-71869423D01*
X102676710Y-71869421D01*
X102561132Y-71812919D01*
X102561130Y-71812918D01*
X102561129Y-71812918D01*
X102486193Y-71802000D01*
X102043029Y-71802000D01*
X101968093Y-71812918D01*
X101968091Y-71812918D01*
X101968089Y-71812919D01*
X101852511Y-71869421D01*
X101852508Y-71869423D01*
X101786251Y-71935681D01*
X101724928Y-71969166D01*
X101698570Y-71972000D01*
X100505967Y-71972000D01*
X100416823Y-71995886D01*
X100416822Y-71995886D01*
X100416820Y-71995887D01*
X100416817Y-71995888D01*
X100336898Y-72042031D01*
X100336895Y-72042032D01*
X100328244Y-72050684D01*
X100266920Y-72084167D01*
X100240566Y-72087000D01*
X99618093Y-72087000D01*
X99537130Y-72099823D01*
X99524307Y-72101854D01*
X99411269Y-72159450D01*
X99411268Y-72159451D01*
X99411263Y-72159454D01*
X99321565Y-72249152D01*
X99321562Y-72249157D01*
X99321561Y-72249158D01*
X99302362Y-72286837D01*
X99263963Y-72362198D01*
X99249111Y-72455975D01*
X99249111Y-72819017D01*
X99265492Y-72922443D01*
X99263468Y-72922763D01*
X99265101Y-72980016D01*
X99229018Y-73039847D01*
X99166315Y-73070671D01*
X99096901Y-73062703D01*
X99088891Y-73058975D01*
X99074915Y-73051854D01*
X99074914Y-73051853D01*
X99074911Y-73051852D01*
X99074912Y-73051852D01*
X98981135Y-73037000D01*
X98981130Y-73037000D01*
X98381215Y-73037000D01*
X98314176Y-73017315D01*
X98268421Y-72964511D01*
X98258477Y-72895353D01*
X98274808Y-72854632D01*
X98273175Y-72853834D01*
X98316964Y-72764260D01*
X98334193Y-72729018D01*
X98345111Y-72654082D01*
X98345111Y-72210918D01*
X98334193Y-72135982D01*
X98317509Y-72101854D01*
X98277689Y-72020400D01*
X98277687Y-72020397D01*
X98186713Y-71929423D01*
X98186710Y-71929421D01*
X98071132Y-71872919D01*
X98071130Y-71872918D01*
X98071129Y-71872918D01*
X97996193Y-71862000D01*
X97653029Y-71862000D01*
X97578093Y-71872918D01*
X97578091Y-71872918D01*
X97578089Y-71872919D01*
X97462511Y-71929421D01*
X97462508Y-71929423D01*
X97402292Y-71989640D01*
X97340969Y-72023125D01*
X97271277Y-72018141D01*
X97226930Y-71989640D01*
X97166713Y-71929423D01*
X97166710Y-71929421D01*
X97051131Y-71872918D01*
X97051129Y-71872917D01*
X96972698Y-71861490D01*
X96909198Y-71832346D01*
X96902896Y-71826467D01*
X94366170Y-69289741D01*
X94351466Y-69262813D01*
X94334874Y-69236995D01*
X94333982Y-69230794D01*
X94332685Y-69228418D01*
X94329851Y-69202060D01*
X94329851Y-68991393D01*
X97501610Y-68991393D01*
X97526703Y-69101350D01*
X97526705Y-69101356D01*
X97531464Y-69111238D01*
X97534654Y-69119834D01*
X97534882Y-69119740D01*
X97537989Y-69127242D01*
X97542794Y-69135565D01*
X97547124Y-69143760D01*
X97575636Y-69202967D01*
X97575637Y-69202969D01*
X97575639Y-69202972D01*
X97591850Y-69223300D01*
X97602286Y-69238607D01*
X97603557Y-69240809D01*
X97603564Y-69240818D01*
X97609775Y-69247029D01*
X97619041Y-69257397D01*
X97645961Y-69291153D01*
X97679719Y-69318074D01*
X97690082Y-69327334D01*
X97696294Y-69333546D01*
X97698479Y-69334807D01*
X97713793Y-69345247D01*
X97734140Y-69361473D01*
X97793437Y-69390027D01*
X97801595Y-69394339D01*
X97809867Y-69399115D01*
X97809872Y-69399116D01*
X97817380Y-69402227D01*
X97817284Y-69402458D01*
X97825837Y-69405630D01*
X97835759Y-69410408D01*
X97945719Y-69435502D01*
X98002112Y-69435500D01*
X98002612Y-69435500D01*
X99999793Y-69435500D01*
X101999500Y-69435500D01*
X102000000Y-69435500D01*
X102056393Y-69435500D01*
X102166350Y-69410403D01*
X102177179Y-69405187D01*
X102184793Y-69402365D01*
X102184659Y-69402042D01*
X102192160Y-69398934D01*
X102192167Y-69398933D01*
X102198202Y-69395448D01*
X102206398Y-69391117D01*
X102219029Y-69385034D01*
X102267967Y-69361467D01*
X102289310Y-69344445D01*
X102304629Y-69334003D01*
X102305692Y-69333389D01*
X102305691Y-69333389D01*
X102305694Y-69333388D01*
X102310680Y-69328402D01*
X102321054Y-69319131D01*
X102322380Y-69318074D01*
X102356146Y-69291146D01*
X102384132Y-69256052D01*
X102393402Y-69245680D01*
X102398386Y-69240696D01*
X102398389Y-69240692D01*
X102399003Y-69239629D01*
X102409445Y-69224310D01*
X102426467Y-69202967D01*
X102454005Y-69145783D01*
X102456117Y-69141398D01*
X102460448Y-69133202D01*
X102463933Y-69127167D01*
X102463934Y-69127160D01*
X102467042Y-69119659D01*
X102467365Y-69119793D01*
X102470187Y-69112179D01*
X102475403Y-69101350D01*
X102500500Y-68991393D01*
X102500500Y-68935000D01*
X102500500Y-68934500D01*
X102500500Y-68434793D01*
X102500500Y-68378607D01*
X102475403Y-68268650D01*
X102470185Y-68257814D01*
X102467366Y-68250213D01*
X102467045Y-68250347D01*
X102463930Y-68242826D01*
X102460443Y-68236786D01*
X102456113Y-68228593D01*
X102426469Y-68167037D01*
X102426467Y-68167034D01*
X102426467Y-68167033D01*
X102409443Y-68145686D01*
X102399005Y-68130375D01*
X102398388Y-68129306D01*
X102398386Y-68129304D01*
X102398385Y-68129302D01*
X102393400Y-68124317D01*
X102384135Y-68113951D01*
X102383072Y-68112618D01*
X102356146Y-68078854D01*
X102356144Y-68078852D01*
X102356143Y-68078851D01*
X102356142Y-68078850D01*
X102321047Y-68050863D01*
X102310679Y-68041597D01*
X102305697Y-68036615D01*
X102305694Y-68036612D01*
X102305691Y-68036610D01*
X102305687Y-68036607D01*
X102304614Y-68035988D01*
X102289315Y-68025556D01*
X102267966Y-68008532D01*
X102267967Y-68008532D01*
X102206399Y-67978883D01*
X102198209Y-67974555D01*
X102192164Y-67971065D01*
X102184662Y-67967958D01*
X102184793Y-67967639D01*
X102177192Y-67964818D01*
X102166352Y-67959598D01*
X102166342Y-67959594D01*
X102056397Y-67934500D01*
X102056393Y-67934500D01*
X102000207Y-67934500D01*
X100254207Y-67934500D01*
X99748319Y-67934500D01*
X98001905Y-67934500D01*
X98001904Y-67934500D01*
X97945724Y-67934500D01*
X97945719Y-67934501D01*
X97835757Y-67959600D01*
X97825816Y-67964387D01*
X97817279Y-67967556D01*
X97817375Y-67967788D01*
X97809867Y-67970897D01*
X97801644Y-67975644D01*
X97793463Y-67979967D01*
X97734150Y-68008532D01*
X97713799Y-68024762D01*
X97698497Y-68035196D01*
X97696299Y-68036464D01*
X97690097Y-68042666D01*
X97679744Y-68051918D01*
X97645971Y-68078852D01*
X97645970Y-68078854D01*
X97619043Y-68112618D01*
X97609783Y-68122980D01*
X97603568Y-68129194D01*
X97602300Y-68131392D01*
X97591867Y-68146694D01*
X97575647Y-68167034D01*
X97547116Y-68226277D01*
X97542790Y-68234463D01*
X97538001Y-68242758D01*
X97534893Y-68250262D01*
X97534665Y-68250167D01*
X97531485Y-68258735D01*
X97526710Y-68268651D01*
X97501613Y-68378605D01*
X97501612Y-68378612D01*
X97501612Y-68434792D01*
X97501612Y-68434793D01*
X97501612Y-68934500D01*
X97501612Y-68935000D01*
X97501610Y-68991393D01*
X94329851Y-68991393D01*
X94329851Y-68321612D01*
X94327054Y-68291776D01*
X94327054Y-68291772D01*
X94283079Y-68166099D01*
X94204016Y-68058971D01*
X94096888Y-67979908D01*
X94096884Y-67979906D01*
X94096883Y-67979906D01*
X93971216Y-67935932D01*
X93941381Y-67933135D01*
X92917330Y-67933135D01*
X92887493Y-67935932D01*
X92887488Y-67935933D01*
X92815454Y-67961139D01*
X92745675Y-67964700D01*
X92685048Y-67929971D01*
X92652821Y-67867978D01*
X92650500Y-67844097D01*
X92650500Y-59896544D01*
X92670185Y-59829505D01*
X92686819Y-59808863D01*
X94708863Y-57786819D01*
X94770186Y-57753334D01*
X94796544Y-57750500D01*
X103253456Y-57750500D01*
X103320495Y-57770185D01*
X103341137Y-57786819D01*
X103363181Y-57808863D01*
X103396666Y-57870186D01*
X103399500Y-57896544D01*
X103399500Y-57972475D01*
X103437016Y-58112485D01*
X103437017Y-58112488D01*
X103509488Y-58238011D01*
X103509490Y-58238013D01*
X103509491Y-58238015D01*
X103611985Y-58340509D01*
X103611986Y-58340510D01*
X103611988Y-58340511D01*
X103737511Y-58412982D01*
X103737512Y-58412982D01*
X103737515Y-58412984D01*
X103877525Y-58450500D01*
X103877528Y-58450500D01*
X104022472Y-58450500D01*
X104022475Y-58450500D01*
X104162485Y-58412984D01*
X104288015Y-58340509D01*
X104390509Y-58238015D01*
X104462984Y-58112485D01*
X104500500Y-57972475D01*
X104500500Y-57827525D01*
X104462984Y-57687515D01*
X104390509Y-57561985D01*
X104288015Y-57459491D01*
X104288013Y-57459490D01*
X104288011Y-57459488D01*
X104162488Y-57387017D01*
X104162489Y-57387017D01*
X104151006Y-57383940D01*
X104022475Y-57349500D01*
X104022472Y-57349500D01*
X103946544Y-57349500D01*
X103879505Y-57329815D01*
X103858863Y-57313181D01*
X103665213Y-57119531D01*
X103665208Y-57119527D01*
X103585290Y-57073387D01*
X103585289Y-57073386D01*
X103585288Y-57073386D01*
X103496144Y-57049500D01*
X98978386Y-57049500D01*
X98911347Y-57029815D01*
X98865592Y-56977011D01*
X98855648Y-56907853D01*
X98884673Y-56844297D01*
X98890705Y-56837819D01*
X98891705Y-56836819D01*
X98953028Y-56803334D01*
X98979386Y-56800500D01*
X104403456Y-56800500D01*
X104470495Y-56820185D01*
G37*
%TD.AperFunction*%
%TA.AperFunction,Conductor*%
G36*
X92815451Y-69706129D02*
G01*
X92887489Y-69731337D01*
X92887488Y-69731337D01*
X92891964Y-69731756D01*
X92917327Y-69734135D01*
X93767837Y-69734134D01*
X93834876Y-69753818D01*
X93855518Y-69770453D01*
X96247792Y-72162727D01*
X96281277Y-72224050D01*
X96284111Y-72250408D01*
X96284111Y-72290299D01*
X96279886Y-72322392D01*
X96262747Y-72386356D01*
X96262747Y-72478643D01*
X96279886Y-72542607D01*
X96284111Y-72574700D01*
X96284111Y-72654082D01*
X96295029Y-72729018D01*
X96295029Y-72729019D01*
X96295030Y-72729021D01*
X96351532Y-72844599D01*
X96351534Y-72844602D01*
X96442508Y-72935576D01*
X96442511Y-72935578D01*
X96553267Y-72989722D01*
X96558093Y-72992082D01*
X96633029Y-73003000D01*
X96633034Y-73003000D01*
X96976188Y-73003000D01*
X96976193Y-73003000D01*
X97051129Y-72992082D01*
X97130448Y-72953305D01*
X97166710Y-72935578D01*
X97166711Y-72935576D01*
X97166713Y-72935576D01*
X97226931Y-72875357D01*
X97288252Y-72841874D01*
X97357944Y-72846858D01*
X97402292Y-72875359D01*
X97437792Y-72910859D01*
X97471277Y-72972182D01*
X97474111Y-72998540D01*
X97474111Y-73096145D01*
X97474909Y-73102209D01*
X97464140Y-73171244D01*
X97452294Y-73191266D01*
X97446562Y-73199155D01*
X97388963Y-73312198D01*
X97374111Y-73405975D01*
X97374111Y-73769017D01*
X97388965Y-73862805D01*
X97391980Y-73872082D01*
X97388458Y-73873226D01*
X97397951Y-73923831D01*
X97371661Y-73988566D01*
X97314546Y-74028811D01*
X97244739Y-74031788D01*
X97211452Y-74018162D01*
X97130804Y-73970467D01*
X97130801Y-73970465D01*
X96984612Y-73927993D01*
X96984611Y-73927994D01*
X96984611Y-74608500D01*
X96964926Y-74675539D01*
X96912122Y-74721294D01*
X96860611Y-74732500D01*
X96734611Y-74732500D01*
X96734611Y-74858500D01*
X96714926Y-74925539D01*
X96662122Y-74971294D01*
X96610611Y-74982500D01*
X95955821Y-74982500D01*
X95957465Y-75003410D01*
X96002579Y-75158695D01*
X96084889Y-75297874D01*
X96084896Y-75297883D01*
X96199233Y-75412220D01*
X96199621Y-75412521D01*
X96199847Y-75412834D01*
X96204749Y-75417736D01*
X96203958Y-75418526D01*
X96240528Y-75469163D01*
X96244318Y-75538930D01*
X96209787Y-75599671D01*
X96147899Y-75632100D01*
X96123621Y-75634500D01*
X92774500Y-75634500D01*
X92707461Y-75614815D01*
X92661706Y-75562011D01*
X92650500Y-75510500D01*
X92650500Y-74482499D01*
X95955820Y-74482499D01*
X95955821Y-74482500D01*
X96484611Y-74482500D01*
X96484611Y-73927994D01*
X96484609Y-73927993D01*
X96338420Y-73970465D01*
X96338417Y-73970467D01*
X96199236Y-74052778D01*
X96199227Y-74052785D01*
X96084896Y-74167116D01*
X96084889Y-74167125D01*
X96002579Y-74306304D01*
X96002577Y-74306309D01*
X95957466Y-74461581D01*
X95957465Y-74461587D01*
X95955820Y-74482499D01*
X92650500Y-74482499D01*
X92650500Y-69823172D01*
X92670185Y-69756133D01*
X92722989Y-69710378D01*
X92792147Y-69700434D01*
X92815451Y-69706129D01*
G37*
%TD.AperFunction*%
%TA.AperFunction,Conductor*%
G36*
X99222290Y-74129407D02*
G01*
X99262548Y-74186512D01*
X99265379Y-74252539D01*
X99265491Y-74252557D01*
X99265404Y-74253105D01*
X99265542Y-74256318D01*
X99264092Y-74261388D01*
X99249111Y-74355975D01*
X99249111Y-74719017D01*
X99251954Y-74736965D01*
X99263965Y-74812804D01*
X99321561Y-74925842D01*
X99321563Y-74925844D01*
X99321565Y-74925847D01*
X99411263Y-75015545D01*
X99411267Y-75015548D01*
X99411269Y-75015550D01*
X99441421Y-75030913D01*
X99492216Y-75078886D01*
X99509011Y-75146707D01*
X99486474Y-75212842D01*
X99439586Y-75252797D01*
X99380009Y-75281922D01*
X99380008Y-75281923D01*
X99289037Y-75372895D01*
X99283067Y-75381257D01*
X99280019Y-75379081D01*
X99245761Y-75416559D01*
X99181515Y-75434500D01*
X98455967Y-75434500D01*
X98369401Y-75457695D01*
X98369400Y-75457695D01*
X98366824Y-75458384D01*
X98366824Y-75458385D01*
X98286902Y-75504527D01*
X98286897Y-75504531D01*
X98193248Y-75598181D01*
X98131925Y-75631666D01*
X98105567Y-75634500D01*
X97345601Y-75634500D01*
X97278562Y-75614815D01*
X97232807Y-75562011D01*
X97222863Y-75492853D01*
X97251888Y-75429297D01*
X97269601Y-75412521D01*
X97269984Y-75412223D01*
X97362944Y-75319263D01*
X97424267Y-75285778D01*
X97470021Y-75284470D01*
X97523876Y-75293000D01*
X97865345Y-75292999D01*
X97865350Y-75292999D01*
X97865350Y-75292998D01*
X97919198Y-75284470D01*
X97956781Y-75278518D01*
X97956782Y-75278518D01*
X97956783Y-75278517D01*
X97956786Y-75278517D01*
X98067002Y-75222359D01*
X98154470Y-75134891D01*
X98210628Y-75024675D01*
X98210628Y-75024673D01*
X98210629Y-75024672D01*
X98210629Y-75024671D01*
X98217471Y-74981468D01*
X98225111Y-74933235D01*
X98225110Y-74749043D01*
X98244794Y-74682004D01*
X98261424Y-74661367D01*
X98642581Y-74280212D01*
X98688725Y-74200288D01*
X98688724Y-74200288D01*
X98688892Y-74199999D01*
X98739459Y-74151784D01*
X98796279Y-74137999D01*
X98981128Y-74137999D01*
X98981129Y-74137999D01*
X99074915Y-74123146D01*
X99088884Y-74116028D01*
X99157549Y-74103132D01*
X99222290Y-74129407D01*
G37*
%TD.AperFunction*%
%TA.AperFunction,Conductor*%
G36*
X107022101Y-55042765D02*
G01*
X107251166Y-55057770D01*
X107260655Y-55058762D01*
X107308627Y-55065658D01*
X107315069Y-55066761D01*
X107515080Y-55106540D01*
X107525782Y-55109169D01*
X107564348Y-55120493D01*
X107569140Y-55122010D01*
X107771046Y-55190543D01*
X107782678Y-55195159D01*
X107801759Y-55203873D01*
X107804974Y-55205399D01*
X108010530Y-55306764D01*
X108024576Y-55314874D01*
X108228536Y-55451152D01*
X108241406Y-55461027D01*
X108425827Y-55622759D01*
X108437296Y-55634228D01*
X108599028Y-55818649D01*
X108608903Y-55831518D01*
X108745181Y-56035477D01*
X108753291Y-56049525D01*
X108854179Y-56254114D01*
X108855761Y-56257446D01*
X108864988Y-56277651D01*
X108869613Y-56289305D01*
X108937729Y-56489983D01*
X108939288Y-56494910D01*
X108950965Y-56534685D01*
X108953604Y-56545426D01*
X108993110Y-56744060D01*
X108994231Y-56750608D01*
X109001331Y-56800011D01*
X109002327Y-56809545D01*
X109017291Y-57037954D01*
X109017556Y-57046060D01*
X109017556Y-74971228D01*
X109016827Y-74980515D01*
X109018452Y-74982745D01*
X109029979Y-74983880D01*
X109444718Y-75066334D01*
X109449641Y-75067420D01*
X109541775Y-75089749D01*
X109546189Y-75090905D01*
X109915273Y-75194961D01*
X109920352Y-75196514D01*
X110009077Y-75225775D01*
X110013082Y-75227174D01*
X110374448Y-75360453D01*
X110379713Y-75362533D01*
X110463549Y-75397914D01*
X110467164Y-75399509D01*
X110819485Y-75561897D01*
X110824743Y-75564476D01*
X110902364Y-75604900D01*
X110905575Y-75606634D01*
X111004899Y-75662249D01*
X111247327Y-75797992D01*
X111252701Y-75801181D01*
X111322704Y-75845160D01*
X111325500Y-75846972D01*
X111502728Y-75965374D01*
X111655383Y-76067360D01*
X111660708Y-76071124D01*
X111721873Y-76116828D01*
X111724375Y-76118749D01*
X112040976Y-76368304D01*
X112046191Y-76372651D01*
X112046228Y-76372684D01*
X112097360Y-76417758D01*
X112099528Y-76419715D01*
X112401679Y-76698988D01*
X112406717Y-76703918D01*
X112442195Y-76740690D01*
X112446811Y-76745474D01*
X112448624Y-76747395D01*
X112735141Y-77057314D01*
X112739981Y-77062871D01*
X112756146Y-77082589D01*
X112767961Y-77097001D01*
X112769443Y-77098844D01*
X113039256Y-77441067D01*
X113043805Y-77447218D01*
X113058805Y-77468867D01*
X113059979Y-77470593D01*
X113312067Y-77847836D01*
X113316263Y-77854571D01*
X113317446Y-77856613D01*
X113318338Y-77858180D01*
X113392635Y-77990834D01*
X113544864Y-78262636D01*
X113549444Y-78270812D01*
X113553861Y-78279480D01*
X113596419Y-78371788D01*
X113752682Y-78710723D01*
X113756409Y-78719718D01*
X113799983Y-78837820D01*
X113865537Y-79015500D01*
X113920781Y-79165232D01*
X113923790Y-79174493D01*
X114052698Y-79631531D01*
X114054971Y-79640999D01*
X114147619Y-80106739D01*
X114149142Y-80116356D01*
X114204960Y-80587925D01*
X114205724Y-80597633D01*
X114224368Y-81072132D01*
X114224368Y-81081868D01*
X114205724Y-81556366D01*
X114204960Y-81566074D01*
X114149142Y-82037643D01*
X114147619Y-82047260D01*
X114054971Y-82513000D01*
X114052698Y-82522468D01*
X113923790Y-82979506D01*
X113920781Y-82988767D01*
X113756409Y-83434281D01*
X113752682Y-83443276D01*
X113553865Y-83874510D01*
X113549444Y-83883186D01*
X113318338Y-84295818D01*
X113317446Y-84297385D01*
X113316263Y-84299427D01*
X113312067Y-84306162D01*
X113059979Y-84683405D01*
X113058805Y-84685131D01*
X113043805Y-84706780D01*
X113039256Y-84712931D01*
X112769443Y-85055154D01*
X112767961Y-85056997D01*
X112739984Y-85091123D01*
X112735141Y-85096684D01*
X112448624Y-85406603D01*
X112446811Y-85408524D01*
X112406735Y-85450062D01*
X112401663Y-85455026D01*
X112099528Y-85734283D01*
X112097360Y-85736240D01*
X112046201Y-85781338D01*
X112040964Y-85785704D01*
X111724375Y-86035249D01*
X111721837Y-86037198D01*
X111660722Y-86082864D01*
X111655383Y-86086638D01*
X111325537Y-86307002D01*
X111322616Y-86308895D01*
X111252709Y-86352812D01*
X111247327Y-86356006D01*
X110905607Y-86547346D01*
X110902303Y-86549131D01*
X110824808Y-86589490D01*
X110819436Y-86592125D01*
X110467202Y-86754472D01*
X110463510Y-86756101D01*
X110379740Y-86791454D01*
X110374435Y-86793550D01*
X110013105Y-86926816D01*
X110009034Y-86928238D01*
X109920413Y-86957465D01*
X109915223Y-86959052D01*
X109546188Y-87063093D01*
X109541748Y-87064256D01*
X109449699Y-87086565D01*
X109444672Y-87087674D01*
X109100610Y-87156077D01*
X109029978Y-87170120D01*
X109018450Y-87171254D01*
X109016827Y-87173488D01*
X109017556Y-87182770D01*
X109017556Y-112817228D01*
X109016827Y-112826515D01*
X109018452Y-112828745D01*
X109029979Y-112829880D01*
X109444718Y-112912334D01*
X109449641Y-112913420D01*
X109541775Y-112935749D01*
X109546189Y-112936905D01*
X109915273Y-113040961D01*
X109920352Y-113042514D01*
X110009077Y-113071775D01*
X110013082Y-113073174D01*
X110374448Y-113206453D01*
X110379713Y-113208533D01*
X110463549Y-113243914D01*
X110467164Y-113245509D01*
X110819485Y-113407897D01*
X110824743Y-113410476D01*
X110902364Y-113450900D01*
X110905575Y-113452634D01*
X111044202Y-113530256D01*
X111247327Y-113643992D01*
X111252701Y-113647181D01*
X111322704Y-113691160D01*
X111325500Y-113692972D01*
X111569745Y-113856147D01*
X111655383Y-113913360D01*
X111660708Y-113917124D01*
X111721873Y-113962828D01*
X111724375Y-113964749D01*
X112040976Y-114214304D01*
X112046191Y-114218651D01*
X112046228Y-114218684D01*
X112097360Y-114263758D01*
X112099528Y-114265715D01*
X112164913Y-114326149D01*
X112401679Y-114544988D01*
X112406717Y-114549918D01*
X112427198Y-114571146D01*
X112446811Y-114591474D01*
X112448624Y-114593395D01*
X112735141Y-114903314D01*
X112739981Y-114908871D01*
X112740987Y-114910099D01*
X112767961Y-114943001D01*
X112769443Y-114944844D01*
X113039256Y-115287067D01*
X113043805Y-115293218D01*
X113058805Y-115314867D01*
X113059979Y-115316593D01*
X113312067Y-115693836D01*
X113316263Y-115700571D01*
X113317446Y-115702613D01*
X113318338Y-115704180D01*
X113549444Y-116116812D01*
X113553865Y-116125488D01*
X113752682Y-116556723D01*
X113756409Y-116565718D01*
X113920781Y-117011232D01*
X113923790Y-117020493D01*
X114052698Y-117477531D01*
X114054971Y-117486999D01*
X114147619Y-117952739D01*
X114149142Y-117962356D01*
X114204960Y-118433925D01*
X114205724Y-118443633D01*
X114224368Y-118918132D01*
X114224368Y-118927868D01*
X114205724Y-119402366D01*
X114204960Y-119412074D01*
X114149142Y-119883643D01*
X114147619Y-119893260D01*
X114054971Y-120359000D01*
X114052698Y-120368468D01*
X113923790Y-120825506D01*
X113920781Y-120834767D01*
X113756409Y-121280281D01*
X113752682Y-121289276D01*
X113553865Y-121720510D01*
X113549444Y-121729186D01*
X113318338Y-122141818D01*
X113317446Y-122143385D01*
X113316263Y-122145427D01*
X113312067Y-122152162D01*
X113059979Y-122529405D01*
X113058805Y-122531131D01*
X113043805Y-122552780D01*
X113039256Y-122558931D01*
X112769443Y-122901154D01*
X112767961Y-122902997D01*
X112739984Y-122937123D01*
X112735141Y-122942684D01*
X112448624Y-123252603D01*
X112446811Y-123254524D01*
X112406735Y-123296062D01*
X112401663Y-123301026D01*
X112099528Y-123580283D01*
X112097360Y-123582240D01*
X112046201Y-123627338D01*
X112040964Y-123631704D01*
X111724375Y-123881249D01*
X111721837Y-123883198D01*
X111660722Y-123928864D01*
X111655383Y-123932638D01*
X111325537Y-124153002D01*
X111322616Y-124154895D01*
X111252709Y-124198812D01*
X111247327Y-124202006D01*
X110905607Y-124393346D01*
X110902303Y-124395131D01*
X110824808Y-124435490D01*
X110819436Y-124438125D01*
X110467202Y-124600472D01*
X110463510Y-124602101D01*
X110379740Y-124637454D01*
X110374435Y-124639550D01*
X110013105Y-124772816D01*
X110009034Y-124774238D01*
X109920413Y-124803465D01*
X109915223Y-124805052D01*
X109546188Y-124909093D01*
X109541748Y-124910256D01*
X109449699Y-124932565D01*
X109444672Y-124933674D01*
X109155088Y-124991247D01*
X109029978Y-125016120D01*
X109018450Y-125017254D01*
X109016827Y-125019488D01*
X109017556Y-125028770D01*
X109017556Y-142953945D01*
X109017290Y-142962057D01*
X109002370Y-143189627D01*
X109001374Y-143199163D01*
X108993986Y-143250544D01*
X108992865Y-143257089D01*
X108953720Y-143453873D01*
X108951081Y-143464613D01*
X108938785Y-143506492D01*
X108937226Y-143511418D01*
X108869782Y-143710098D01*
X108865156Y-143721754D01*
X108854818Y-143744389D01*
X108853237Y-143747718D01*
X108753257Y-143950455D01*
X108745147Y-143964502D01*
X108608871Y-144168452D01*
X108598997Y-144181320D01*
X108437265Y-144365740D01*
X108425796Y-144377209D01*
X108241376Y-144538941D01*
X108228508Y-144548815D01*
X108024558Y-144685091D01*
X108010512Y-144693201D01*
X107806896Y-144793615D01*
X107803563Y-144795197D01*
X107782089Y-144805004D01*
X107770437Y-144809629D01*
X107570620Y-144877460D01*
X107565697Y-144879018D01*
X107525100Y-144890939D01*
X107514356Y-144893579D01*
X107316268Y-144932984D01*
X107309726Y-144934104D01*
X107259856Y-144941276D01*
X107250317Y-144942273D01*
X107022113Y-144957234D01*
X107014001Y-144957500D01*
X92988115Y-144957500D01*
X92980000Y-144957234D01*
X92752428Y-144942309D01*
X92742894Y-144941313D01*
X92691516Y-144933925D01*
X92684971Y-144932804D01*
X92488186Y-144893656D01*
X92477444Y-144891016D01*
X92435552Y-144878715D01*
X92430627Y-144877156D01*
X92231960Y-144809712D01*
X92220314Y-144805091D01*
X92197681Y-144794756D01*
X92194342Y-144793170D01*
X91991614Y-144693191D01*
X91977568Y-144685082D01*
X91773610Y-144548799D01*
X91760743Y-144538925D01*
X91576328Y-144377196D01*
X91564859Y-144365727D01*
X91403130Y-144181312D01*
X91393256Y-144168445D01*
X91256973Y-143964487D01*
X91248864Y-143950441D01*
X91148423Y-143746776D01*
X91146907Y-143743583D01*
X91137058Y-143722019D01*
X91132438Y-143710378D01*
X91095785Y-143602410D01*
X91064591Y-143510519D01*
X91063046Y-143505636D01*
X91051118Y-143465017D01*
X91048492Y-143454336D01*
X91009073Y-143256192D01*
X91007961Y-143249702D01*
X91000779Y-143199760D01*
X90999789Y-143190288D01*
X90984822Y-142962056D01*
X90984556Y-142953942D01*
X90984556Y-125028771D01*
X90985284Y-125019486D01*
X90983662Y-125017254D01*
X90972133Y-125016120D01*
X90557442Y-124933673D01*
X90552416Y-124932564D01*
X90460351Y-124910252D01*
X90455909Y-124909089D01*
X90086888Y-124805051D01*
X90081699Y-124803464D01*
X89993081Y-124774238D01*
X89989009Y-124772816D01*
X89627662Y-124639543D01*
X89622357Y-124637447D01*
X89538619Y-124602107D01*
X89534929Y-124600478D01*
X89182677Y-124438123D01*
X89177336Y-124435504D01*
X89099800Y-124395124D01*
X89096507Y-124393345D01*
X88754784Y-124202004D01*
X88749400Y-124198808D01*
X88679498Y-124154892D01*
X88676579Y-124153001D01*
X88346730Y-123932636D01*
X88341392Y-123928862D01*
X88280299Y-123883213D01*
X88277759Y-123881264D01*
X88274814Y-123878943D01*
X88189765Y-123811904D01*
X87961122Y-123631679D01*
X87955887Y-123627314D01*
X87904755Y-123582240D01*
X87902627Y-123580319D01*
X87771655Y-123459264D01*
X87600422Y-123300996D01*
X87595396Y-123296077D01*
X87555303Y-123254523D01*
X87553528Y-123252643D01*
X87320056Y-123000101D01*
X87266969Y-122942677D01*
X87262131Y-122937121D01*
X87234150Y-122902990D01*
X87232668Y-122901147D01*
X86962861Y-122558932D01*
X86962860Y-122558931D01*
X86962856Y-122558925D01*
X86958319Y-122552791D01*
X86943304Y-122531119D01*
X86942132Y-122529396D01*
X86690054Y-122152168D01*
X86685872Y-122145456D01*
X86684660Y-122143365D01*
X86683754Y-122141775D01*
X86452664Y-121729167D01*
X86448253Y-121720510D01*
X86249435Y-121289275D01*
X86245711Y-121280288D01*
X86081329Y-120834747D01*
X86078330Y-120825516D01*
X85949416Y-120368450D01*
X85947151Y-120359016D01*
X85854496Y-119893242D01*
X85852978Y-119883660D01*
X85797156Y-119412057D01*
X85796395Y-119402382D01*
X85777750Y-118927860D01*
X85777750Y-118922998D01*
X86593814Y-118922998D01*
X86593814Y-118923001D01*
X86595454Y-118945407D01*
X86595785Y-118954459D01*
X86595785Y-119044144D01*
X86610843Y-119158529D01*
X86611573Y-119165657D01*
X86613531Y-119192395D01*
X86613533Y-119192410D01*
X86616671Y-119206496D01*
X86618577Y-119217272D01*
X86624804Y-119264569D01*
X86627409Y-119284354D01*
X86649294Y-119366030D01*
X86665900Y-119428005D01*
X86667158Y-119433137D01*
X86672261Y-119456045D01*
X86672264Y-119456056D01*
X86673816Y-119460113D01*
X86677773Y-119472318D01*
X86690114Y-119518375D01*
X86690117Y-119518384D01*
X86767551Y-119705327D01*
X86768798Y-119708455D01*
X86769066Y-119709156D01*
X86770226Y-119711786D01*
X86782832Y-119742216D01*
X86782840Y-119742233D01*
X86903976Y-119952047D01*
X87051468Y-120144263D01*
X87051474Y-120144270D01*
X87222787Y-120315583D01*
X87222791Y-120315586D01*
X87251623Y-120337709D01*
X87256982Y-120342324D01*
X87257018Y-120342281D01*
X87260503Y-120345181D01*
X87260506Y-120345184D01*
X87271534Y-120353073D01*
X87274824Y-120355512D01*
X87415008Y-120463079D01*
X87463059Y-120490821D01*
X87473208Y-120497359D01*
X87480190Y-120502354D01*
X87503530Y-120514354D01*
X87508747Y-120517199D01*
X87624833Y-120584221D01*
X87651293Y-120595181D01*
X87695178Y-120613359D01*
X87704421Y-120617640D01*
X87720417Y-120625864D01*
X87744753Y-120634166D01*
X87752134Y-120636951D01*
X87848674Y-120676939D01*
X87944697Y-120702668D01*
X87952584Y-120705067D01*
X87976068Y-120713079D01*
X87995345Y-120716639D01*
X88004868Y-120718791D01*
X88082702Y-120739647D01*
X88209054Y-120756281D01*
X88215307Y-120757269D01*
X88241693Y-120762143D01*
X88252311Y-120762531D01*
X88263938Y-120763506D01*
X88322914Y-120771271D01*
X88322921Y-120771271D01*
X88489205Y-120771271D01*
X88493734Y-120771353D01*
X88511631Y-120772008D01*
X88511631Y-120772007D01*
X88511633Y-120772008D01*
X88511789Y-120772002D01*
X88525132Y-120771271D01*
X88565199Y-120771271D01*
X88634533Y-120762143D01*
X88805410Y-120739647D01*
X89039438Y-120676939D01*
X89263279Y-120584221D01*
X89473104Y-120463079D01*
X89507903Y-120436376D01*
X89518790Y-120428909D01*
X89520636Y-120427783D01*
X89536925Y-120414226D01*
X89540653Y-120411246D01*
X89665321Y-120315586D01*
X89710260Y-120270646D01*
X89718592Y-120263043D01*
X89728262Y-120254996D01*
X89746276Y-120234890D01*
X89750880Y-120230026D01*
X89836642Y-120144265D01*
X89888449Y-120076747D01*
X89894420Y-120069551D01*
X89908516Y-120053820D01*
X89921618Y-120034016D01*
X89926610Y-120027015D01*
X89984135Y-119952048D01*
X90039055Y-119856922D01*
X90042991Y-119850560D01*
X90057559Y-119828542D01*
X90064475Y-119813787D01*
X90069336Y-119804474D01*
X90105277Y-119742223D01*
X90159288Y-119611828D01*
X90161511Y-119606789D01*
X90172212Y-119583964D01*
X90174088Y-119577726D01*
X90178255Y-119566037D01*
X90197995Y-119518382D01*
X90246814Y-119336186D01*
X90247806Y-119332699D01*
X90250033Y-119325299D01*
X90250034Y-119325291D01*
X90250941Y-119321221D01*
X90252203Y-119316075D01*
X90260702Y-119284356D01*
X90260703Y-119284354D01*
X90292327Y-119044142D01*
X90292327Y-118801858D01*
X90260703Y-118561646D01*
X90252202Y-118529921D01*
X90250945Y-118524794D01*
X90250034Y-118520707D01*
X90250033Y-118520706D01*
X90250033Y-118520701D01*
X90247804Y-118513292D01*
X90246804Y-118509778D01*
X90197995Y-118327618D01*
X90178261Y-118279978D01*
X90174079Y-118268243D01*
X90172213Y-118262040D01*
X90172211Y-118262034D01*
X90161531Y-118239251D01*
X90159258Y-118234099D01*
X90105281Y-118103785D01*
X90105276Y-118103776D01*
X90105272Y-118103769D01*
X90069345Y-118041541D01*
X90064463Y-118032185D01*
X90057560Y-118017459D01*
X90043009Y-117995466D01*
X90039046Y-117989062D01*
X89984135Y-117893952D01*
X89984134Y-117893950D01*
X89926637Y-117819019D01*
X89921598Y-117811953D01*
X89908516Y-117792180D01*
X89894445Y-117776476D01*
X89888420Y-117769214D01*
X89836644Y-117701737D01*
X89836637Y-117701730D01*
X89750904Y-117615997D01*
X89746249Y-117611079D01*
X89728267Y-117591009D01*
X89728264Y-117591007D01*
X89728262Y-117591004D01*
X89718594Y-117582958D01*
X89710244Y-117575337D01*
X89665325Y-117530417D01*
X89665319Y-117530412D01*
X89540723Y-117434807D01*
X89536890Y-117431744D01*
X89520636Y-117418217D01*
X89518769Y-117417077D01*
X89507898Y-117409619D01*
X89473103Y-117382920D01*
X89263282Y-117261780D01*
X89263267Y-117261773D01*
X89039438Y-117169061D01*
X88934419Y-117140921D01*
X88805410Y-117106353D01*
X88805409Y-117106352D01*
X88805406Y-117106352D01*
X88565199Y-117074729D01*
X88565198Y-117074729D01*
X88525132Y-117074729D01*
X88511789Y-117073997D01*
X88511633Y-117073991D01*
X88494105Y-117074632D01*
X88493734Y-117074646D01*
X88489205Y-117074729D01*
X88322913Y-117074729D01*
X88263949Y-117082491D01*
X88252301Y-117083469D01*
X88241693Y-117083857D01*
X88241686Y-117083858D01*
X88215342Y-117088723D01*
X88209010Y-117089724D01*
X88108847Y-117102910D01*
X88082702Y-117106353D01*
X88082700Y-117106353D01*
X88082691Y-117106355D01*
X88004893Y-117127201D01*
X87995328Y-117129362D01*
X87976074Y-117132919D01*
X87976066Y-117132921D01*
X87952614Y-117140921D01*
X87944677Y-117143335D01*
X87848674Y-117169060D01*
X87752153Y-117209041D01*
X87744741Y-117211837D01*
X87720414Y-117220136D01*
X87704416Y-117228361D01*
X87695180Y-117232639D01*
X87624838Y-117261776D01*
X87624823Y-117261784D01*
X87508781Y-117328779D01*
X87503488Y-117331666D01*
X87480196Y-117343642D01*
X87480179Y-117343653D01*
X87473194Y-117348649D01*
X87463064Y-117355174D01*
X87415013Y-117382917D01*
X87415005Y-117382922D01*
X87274843Y-117490472D01*
X87271514Y-117492939D01*
X87260508Y-117500813D01*
X87257023Y-117503714D01*
X87256987Y-117503671D01*
X87251625Y-117508287D01*
X87222796Y-117530409D01*
X87222789Y-117530415D01*
X87051473Y-117701730D01*
X87051468Y-117701736D01*
X86903976Y-117893952D01*
X86782838Y-118103769D01*
X86782834Y-118103777D01*
X86770218Y-118134235D01*
X86769048Y-118136887D01*
X86768779Y-118137592D01*
X86767549Y-118140677D01*
X86690115Y-118327621D01*
X86677776Y-118373671D01*
X86673825Y-118385860D01*
X86672264Y-118389940D01*
X86672262Y-118389949D01*
X86667156Y-118412868D01*
X86665899Y-118417996D01*
X86627409Y-118561646D01*
X86618578Y-118628721D01*
X86616674Y-118639489D01*
X86613531Y-118653599D01*
X86611573Y-118680343D01*
X86610843Y-118687470D01*
X86595785Y-118801855D01*
X86595785Y-118891540D01*
X86595454Y-118900592D01*
X86593814Y-118922998D01*
X85777750Y-118922998D01*
X85777750Y-118918132D01*
X85777928Y-118913601D01*
X85778795Y-118891540D01*
X85796395Y-118443615D01*
X85797156Y-118433944D01*
X85852979Y-117962335D01*
X85854495Y-117952761D01*
X85947152Y-117486977D01*
X85949414Y-117477554D01*
X86078332Y-117020476D01*
X86081327Y-117011260D01*
X86245714Y-116565702D01*
X86249435Y-116556724D01*
X86448266Y-116125462D01*
X86452658Y-116116842D01*
X86683850Y-115704054D01*
X86684580Y-115702771D01*
X86685884Y-115700522D01*
X86690040Y-115693851D01*
X86942185Y-115316523D01*
X86943236Y-115314978D01*
X86958341Y-115293176D01*
X86962832Y-115287104D01*
X87232759Y-114944737D01*
X87234093Y-114943078D01*
X87262154Y-114908849D01*
X87266939Y-114903354D01*
X87553613Y-114593264D01*
X87555214Y-114591568D01*
X87595430Y-114549886D01*
X87600385Y-114545037D01*
X87902705Y-114265608D01*
X87904673Y-114263831D01*
X87955934Y-114218644D01*
X87961096Y-114214340D01*
X88277862Y-113964654D01*
X88280196Y-113962863D01*
X88341424Y-113917113D01*
X88346699Y-113913383D01*
X88676632Y-113692962D01*
X88679444Y-113691140D01*
X88749446Y-113647162D01*
X88754737Y-113644021D01*
X89096593Y-113452606D01*
X89099697Y-113450929D01*
X89177402Y-113410461D01*
X89182611Y-113407907D01*
X89534975Y-113245499D01*
X89538528Y-113243931D01*
X89622429Y-113208522D01*
X89627604Y-113206477D01*
X89989072Y-113073159D01*
X89993019Y-113071781D01*
X90081773Y-113042511D01*
X90086814Y-113040969D01*
X90455984Y-112936889D01*
X90460279Y-112935763D01*
X90552456Y-112913424D01*
X90557414Y-112912331D01*
X90972133Y-112829880D01*
X90983658Y-112828745D01*
X90984626Y-112827416D01*
X90984628Y-112827416D01*
X90984627Y-112827414D01*
X90985284Y-112826515D01*
X90984556Y-112817229D01*
X90984556Y-87182771D01*
X90985284Y-87173486D01*
X90983662Y-87171254D01*
X90972133Y-87170120D01*
X90557442Y-87087673D01*
X90552416Y-87086564D01*
X90460351Y-87064252D01*
X90455909Y-87063089D01*
X90086888Y-86959051D01*
X90081699Y-86957464D01*
X89993081Y-86928238D01*
X89989009Y-86926816D01*
X89627662Y-86793543D01*
X89622357Y-86791447D01*
X89538619Y-86756107D01*
X89534929Y-86754478D01*
X89182677Y-86592123D01*
X89177336Y-86589504D01*
X89099800Y-86549124D01*
X89096507Y-86547345D01*
X88754784Y-86356004D01*
X88749400Y-86352808D01*
X88679498Y-86308892D01*
X88676579Y-86307001D01*
X88346730Y-86086636D01*
X88341392Y-86082862D01*
X88280299Y-86037213D01*
X88277759Y-86035264D01*
X87961122Y-85785679D01*
X87955887Y-85781314D01*
X87904755Y-85736240D01*
X87902627Y-85734319D01*
X87757485Y-85600167D01*
X87600422Y-85454996D01*
X87595396Y-85450077D01*
X87555303Y-85408523D01*
X87553528Y-85406643D01*
X87266973Y-85096682D01*
X87262131Y-85091121D01*
X87234150Y-85056990D01*
X87232668Y-85055147D01*
X86962856Y-84712925D01*
X86958319Y-84706791D01*
X86943304Y-84685119D01*
X86942132Y-84683396D01*
X86690054Y-84306168D01*
X86685872Y-84299456D01*
X86684660Y-84297365D01*
X86683754Y-84295775D01*
X86452664Y-83883167D01*
X86448253Y-83874510D01*
X86249435Y-83443275D01*
X86245711Y-83434288D01*
X86081329Y-82988747D01*
X86078330Y-82979516D01*
X85949416Y-82522450D01*
X85947151Y-82513016D01*
X85854496Y-82047242D01*
X85852978Y-82037660D01*
X85797156Y-81566057D01*
X85796395Y-81556382D01*
X85777750Y-81081860D01*
X85777750Y-81076998D01*
X86593814Y-81076998D01*
X86593814Y-81077001D01*
X86595454Y-81099407D01*
X86595785Y-81108459D01*
X86595785Y-81198144D01*
X86610843Y-81312529D01*
X86611573Y-81319657D01*
X86613531Y-81346395D01*
X86613533Y-81346410D01*
X86616671Y-81360496D01*
X86618577Y-81371272D01*
X86624804Y-81418569D01*
X86627409Y-81438354D01*
X86649294Y-81520030D01*
X86665900Y-81582005D01*
X86667158Y-81587137D01*
X86672261Y-81610045D01*
X86672264Y-81610056D01*
X86673816Y-81614113D01*
X86677773Y-81626318D01*
X86690114Y-81672375D01*
X86690117Y-81672384D01*
X86767551Y-81859327D01*
X86768798Y-81862455D01*
X86769066Y-81863156D01*
X86770226Y-81865786D01*
X86782832Y-81896216D01*
X86782840Y-81896233D01*
X86903976Y-82106047D01*
X87051468Y-82298263D01*
X87051474Y-82298270D01*
X87222787Y-82469583D01*
X87222791Y-82469586D01*
X87251623Y-82491709D01*
X87256982Y-82496324D01*
X87257018Y-82496281D01*
X87260503Y-82499181D01*
X87260506Y-82499184D01*
X87271534Y-82507073D01*
X87274824Y-82509512D01*
X87415008Y-82617079D01*
X87463059Y-82644821D01*
X87473208Y-82651359D01*
X87480190Y-82656354D01*
X87503530Y-82668354D01*
X87508747Y-82671199D01*
X87624833Y-82738221D01*
X87662548Y-82753843D01*
X87695178Y-82767359D01*
X87704421Y-82771640D01*
X87720417Y-82779864D01*
X87744753Y-82788166D01*
X87752134Y-82790951D01*
X87848674Y-82830939D01*
X87944697Y-82856668D01*
X87952584Y-82859067D01*
X87976068Y-82867079D01*
X87995345Y-82870639D01*
X88004868Y-82872791D01*
X88082702Y-82893647D01*
X88209054Y-82910281D01*
X88215307Y-82911269D01*
X88241693Y-82916143D01*
X88252311Y-82916531D01*
X88263938Y-82917506D01*
X88322914Y-82925271D01*
X88322921Y-82925271D01*
X88489205Y-82925271D01*
X88493734Y-82925353D01*
X88511631Y-82926008D01*
X88511631Y-82926007D01*
X88511633Y-82926008D01*
X88511789Y-82926002D01*
X88525132Y-82925271D01*
X88565199Y-82925271D01*
X88634533Y-82916143D01*
X88805410Y-82893647D01*
X89039438Y-82830939D01*
X89263279Y-82738221D01*
X89473104Y-82617079D01*
X89507903Y-82590376D01*
X89518790Y-82582909D01*
X89520636Y-82581783D01*
X89536925Y-82568226D01*
X89540653Y-82565246D01*
X89665321Y-82469586D01*
X89710260Y-82424646D01*
X89718592Y-82417043D01*
X89728262Y-82408996D01*
X89746276Y-82388890D01*
X89750880Y-82384026D01*
X89836642Y-82298265D01*
X89888449Y-82230747D01*
X89894420Y-82223551D01*
X89908516Y-82207820D01*
X89921618Y-82188016D01*
X89926610Y-82181015D01*
X89984135Y-82106048D01*
X90039055Y-82010922D01*
X90042991Y-82004560D01*
X90057559Y-81982542D01*
X90064475Y-81967787D01*
X90069336Y-81958474D01*
X90105277Y-81896223D01*
X90159288Y-81765828D01*
X90161511Y-81760789D01*
X90172212Y-81737964D01*
X90174088Y-81731726D01*
X90178255Y-81720037D01*
X90197995Y-81672382D01*
X90246814Y-81490186D01*
X90247806Y-81486699D01*
X90250033Y-81479299D01*
X90250034Y-81479291D01*
X90250941Y-81475221D01*
X90252203Y-81470075D01*
X90260702Y-81438356D01*
X90260703Y-81438354D01*
X90292327Y-81198142D01*
X90292327Y-80955858D01*
X90260703Y-80715646D01*
X90252202Y-80683921D01*
X90250945Y-80678794D01*
X90250034Y-80674707D01*
X90250033Y-80674706D01*
X90250033Y-80674701D01*
X90247804Y-80667292D01*
X90246804Y-80663778D01*
X90197995Y-80481618D01*
X90178261Y-80433978D01*
X90174079Y-80422243D01*
X90172213Y-80416040D01*
X90172211Y-80416034D01*
X90161531Y-80393251D01*
X90159258Y-80388099D01*
X90105281Y-80257785D01*
X90105276Y-80257776D01*
X90077750Y-80210099D01*
X90069345Y-80195541D01*
X90064463Y-80186185D01*
X90057560Y-80171459D01*
X90043009Y-80149466D01*
X90039046Y-80143062D01*
X89984135Y-80047952D01*
X89984134Y-80047950D01*
X89926637Y-79973019D01*
X89921598Y-79965953D01*
X89908516Y-79946180D01*
X89894442Y-79930473D01*
X89888420Y-79923214D01*
X89881352Y-79914003D01*
X89863723Y-79891028D01*
X89836644Y-79855737D01*
X89799514Y-79818607D01*
X89750904Y-79769997D01*
X89746249Y-79765079D01*
X89728267Y-79745009D01*
X89728264Y-79745007D01*
X89728262Y-79745004D01*
X89718594Y-79736958D01*
X89710244Y-79729337D01*
X89665325Y-79684417D01*
X89665319Y-79684412D01*
X89540723Y-79588807D01*
X89536890Y-79585744D01*
X89530674Y-79580571D01*
X89520636Y-79572217D01*
X89518769Y-79571077D01*
X89507898Y-79563619D01*
X89473103Y-79536920D01*
X89263282Y-79415780D01*
X89263267Y-79415773D01*
X89039438Y-79323061D01*
X88934419Y-79294921D01*
X88805410Y-79260353D01*
X88805409Y-79260352D01*
X88805406Y-79260352D01*
X88565199Y-79228729D01*
X88565198Y-79228729D01*
X88525132Y-79228729D01*
X88511789Y-79227997D01*
X88511633Y-79227991D01*
X88494105Y-79228632D01*
X88493734Y-79228646D01*
X88489205Y-79228729D01*
X88322913Y-79228729D01*
X88263949Y-79236491D01*
X88252301Y-79237469D01*
X88241693Y-79237857D01*
X88241686Y-79237858D01*
X88215342Y-79242723D01*
X88209010Y-79243724D01*
X88108847Y-79256910D01*
X88082702Y-79260353D01*
X88082700Y-79260353D01*
X88082691Y-79260355D01*
X88004893Y-79281201D01*
X87995328Y-79283362D01*
X87976074Y-79286919D01*
X87976066Y-79286921D01*
X87952614Y-79294921D01*
X87944677Y-79297335D01*
X87848674Y-79323060D01*
X87752153Y-79363041D01*
X87744741Y-79365837D01*
X87720414Y-79374136D01*
X87704416Y-79382361D01*
X87695180Y-79386639D01*
X87624838Y-79415776D01*
X87624823Y-79415784D01*
X87508781Y-79482779D01*
X87503488Y-79485666D01*
X87480196Y-79497642D01*
X87480179Y-79497653D01*
X87473194Y-79502649D01*
X87463064Y-79509174D01*
X87415013Y-79536917D01*
X87415005Y-79536922D01*
X87274843Y-79644472D01*
X87271514Y-79646939D01*
X87260508Y-79654813D01*
X87257023Y-79657714D01*
X87256987Y-79657671D01*
X87251625Y-79662287D01*
X87222796Y-79684409D01*
X87222789Y-79684415D01*
X87051473Y-79855730D01*
X87051468Y-79855736D01*
X86903976Y-80047952D01*
X86782838Y-80257769D01*
X86782834Y-80257777D01*
X86770218Y-80288235D01*
X86769048Y-80290887D01*
X86768779Y-80291592D01*
X86767549Y-80294677D01*
X86690115Y-80481621D01*
X86677776Y-80527671D01*
X86673825Y-80539860D01*
X86672264Y-80543940D01*
X86672262Y-80543949D01*
X86667156Y-80566868D01*
X86665899Y-80571996D01*
X86627409Y-80715646D01*
X86618578Y-80782721D01*
X86616674Y-80793489D01*
X86613531Y-80807599D01*
X86611573Y-80834343D01*
X86610843Y-80841470D01*
X86595785Y-80955855D01*
X86595785Y-81045540D01*
X86595454Y-81054592D01*
X86593814Y-81076998D01*
X85777750Y-81076998D01*
X85777750Y-81072132D01*
X85777928Y-81067601D01*
X85782319Y-80955855D01*
X85796395Y-80597615D01*
X85797156Y-80587944D01*
X85852979Y-80116335D01*
X85854495Y-80106761D01*
X85947152Y-79640977D01*
X85949414Y-79631554D01*
X86078332Y-79174476D01*
X86081327Y-79165260D01*
X86245714Y-78719702D01*
X86249435Y-78710724D01*
X86448266Y-78279462D01*
X86452658Y-78270842D01*
X86683850Y-77858054D01*
X86684580Y-77856771D01*
X86685884Y-77854522D01*
X86690040Y-77847851D01*
X86942185Y-77470523D01*
X86943236Y-77468978D01*
X86958341Y-77447176D01*
X86962832Y-77441104D01*
X87232759Y-77098737D01*
X87234093Y-77097078D01*
X87262154Y-77062849D01*
X87266939Y-77057354D01*
X87553613Y-76747264D01*
X87555214Y-76745568D01*
X87595430Y-76703886D01*
X87600385Y-76699037D01*
X87902705Y-76419608D01*
X87904673Y-76417831D01*
X87955934Y-76372644D01*
X87961096Y-76368340D01*
X88277862Y-76118654D01*
X88280196Y-76116863D01*
X88341424Y-76071113D01*
X88346699Y-76067383D01*
X88676632Y-75846962D01*
X88679444Y-75845140D01*
X88749446Y-75801162D01*
X88754737Y-75798021D01*
X89096593Y-75606606D01*
X89099697Y-75604929D01*
X89177402Y-75564461D01*
X89182611Y-75561907D01*
X89534975Y-75399499D01*
X89538528Y-75397931D01*
X89622429Y-75362522D01*
X89627604Y-75360477D01*
X89989072Y-75227159D01*
X89993019Y-75225781D01*
X90081773Y-75196511D01*
X90086814Y-75194969D01*
X90455984Y-75090889D01*
X90460279Y-75089763D01*
X90552456Y-75067424D01*
X90557414Y-75066331D01*
X90972133Y-74983880D01*
X90983658Y-74982745D01*
X90984626Y-74981416D01*
X90984628Y-74981416D01*
X90984627Y-74981414D01*
X90985284Y-74980515D01*
X90984556Y-74971229D01*
X90984556Y-59653856D01*
X91949500Y-59653856D01*
X91949500Y-75953856D01*
X91949500Y-93453856D01*
X91949500Y-93803856D01*
X91949500Y-111803856D01*
X91949500Y-124896144D01*
X91956967Y-124924009D01*
X91967361Y-124962804D01*
X91967873Y-124964712D01*
X91970030Y-124972763D01*
X91973386Y-124985289D01*
X92019527Y-125065208D01*
X92019529Y-125065211D01*
X92019530Y-125065212D01*
X95734788Y-128780470D01*
X95814712Y-128826614D01*
X95903856Y-128850500D01*
X95903857Y-128850500D01*
X95996144Y-128850500D01*
X99086256Y-128850500D01*
X99148254Y-128867112D01*
X99164712Y-128876614D01*
X99253857Y-128900500D01*
X99253859Y-128900500D01*
X99346142Y-128900500D01*
X99346144Y-128900500D01*
X99435288Y-128876614D01*
X99515212Y-128830470D01*
X99580470Y-128765212D01*
X99580470Y-128765211D01*
X99915607Y-128430072D01*
X99976928Y-128396589D01*
X99985398Y-128395052D01*
X99988629Y-128394582D01*
X99988632Y-128394580D01*
X99988634Y-128394580D01*
X100104210Y-128338078D01*
X100104213Y-128338076D01*
X100164430Y-128277860D01*
X100225753Y-128244375D01*
X100295445Y-128249359D01*
X100339792Y-128277860D01*
X100400008Y-128338076D01*
X100400011Y-128338078D01*
X100483073Y-128378684D01*
X100515593Y-128394582D01*
X100590529Y-128405500D01*
X100590534Y-128405500D01*
X100933688Y-128405500D01*
X100933693Y-128405500D01*
X101008629Y-128394582D01*
X101066421Y-128366329D01*
X101124210Y-128338078D01*
X101124213Y-128338076D01*
X101215187Y-128247102D01*
X101215189Y-128247099D01*
X101258257Y-128159001D01*
X101271693Y-128131518D01*
X101282611Y-128056582D01*
X101282611Y-127613418D01*
X101271693Y-127538482D01*
X101269577Y-127534154D01*
X101213702Y-127419858D01*
X101201942Y-127350985D01*
X101229286Y-127286688D01*
X101287050Y-127247381D01*
X101356895Y-127245543D01*
X101412783Y-127277717D01*
X101676911Y-127541845D01*
X101710396Y-127603168D01*
X101713230Y-127629525D01*
X101713230Y-127813722D01*
X101727711Y-127905153D01*
X101727711Y-127905154D01*
X101727712Y-127905157D01*
X101727713Y-127905158D01*
X101762260Y-127972961D01*
X101783872Y-128015375D01*
X101783875Y-128015379D01*
X101871333Y-128102837D01*
X101871335Y-128102838D01*
X101871339Y-128102842D01*
X101981555Y-128159000D01*
X101981556Y-128159000D01*
X101981558Y-128159001D01*
X102016677Y-128164562D01*
X102072995Y-128173483D01*
X102285315Y-128173482D01*
X102352354Y-128193166D01*
X102398109Y-128245970D01*
X102408053Y-128315128D01*
X102379028Y-128378684D01*
X102372996Y-128385163D01*
X101457480Y-129300681D01*
X101396157Y-129334166D01*
X101369799Y-129337000D01*
X96953467Y-129337000D01*
X96864323Y-129360886D01*
X96864320Y-129360887D01*
X96784402Y-129407027D01*
X96784397Y-129407031D01*
X95411883Y-130779546D01*
X95350560Y-130813031D01*
X95324202Y-130815865D01*
X94453851Y-130815865D01*
X94386812Y-130796180D01*
X94341057Y-130743376D01*
X94329851Y-130691865D01*
X94329851Y-130654342D01*
X94327054Y-130624506D01*
X94327054Y-130624502D01*
X94283079Y-130498829D01*
X94204016Y-130391701D01*
X94096888Y-130312638D01*
X94096884Y-130312636D01*
X94096883Y-130312636D01*
X93971216Y-130268662D01*
X93941381Y-130265865D01*
X92917330Y-130265865D01*
X92887493Y-130268662D01*
X92887483Y-130268664D01*
X92761820Y-130312636D01*
X92761818Y-130312637D01*
X92761817Y-130312637D01*
X92761816Y-130312638D01*
X92654688Y-130391701D01*
X92575624Y-130498831D01*
X92575623Y-130498833D01*
X92531649Y-130624499D01*
X92531649Y-130624501D01*
X92528852Y-130654335D01*
X92528852Y-131678386D01*
X92531649Y-131708223D01*
X92531651Y-131708233D01*
X92575300Y-131832972D01*
X92575625Y-131833901D01*
X92654688Y-131941029D01*
X92761816Y-132020092D01*
X92795967Y-132032042D01*
X92887487Y-132064067D01*
X92895272Y-132064796D01*
X92917327Y-132066865D01*
X93941376Y-132066864D01*
X93971215Y-132064067D01*
X94096888Y-132020092D01*
X94204016Y-131941029D01*
X94283079Y-131833901D01*
X94309903Y-131757242D01*
X94327054Y-131708230D01*
X94327054Y-131708228D01*
X94329852Y-131678394D01*
X94329852Y-131640865D01*
X94335570Y-131621393D01*
X97501610Y-131621393D01*
X97526703Y-131731350D01*
X97526705Y-131731356D01*
X97531464Y-131741238D01*
X97534654Y-131749834D01*
X97534882Y-131749740D01*
X97537989Y-131757242D01*
X97542794Y-131765565D01*
X97547124Y-131773760D01*
X97575636Y-131832967D01*
X97575637Y-131832969D01*
X97575639Y-131832972D01*
X97591850Y-131853300D01*
X97602286Y-131868607D01*
X97603557Y-131870809D01*
X97603564Y-131870818D01*
X97609775Y-131877029D01*
X97619041Y-131887397D01*
X97645961Y-131921153D01*
X97679719Y-131948074D01*
X97690082Y-131957334D01*
X97696294Y-131963546D01*
X97698479Y-131964807D01*
X97713793Y-131975247D01*
X97734140Y-131991473D01*
X97793437Y-132020027D01*
X97801595Y-132024339D01*
X97809867Y-132029115D01*
X97809872Y-132029116D01*
X97817380Y-132032227D01*
X97817284Y-132032458D01*
X97825837Y-132035630D01*
X97835759Y-132040408D01*
X97945719Y-132065502D01*
X98002112Y-132065500D01*
X98002612Y-132065500D01*
X99747905Y-132065500D01*
X100253793Y-132065500D01*
X101999500Y-132065500D01*
X102000000Y-132065500D01*
X102056393Y-132065500D01*
X102166350Y-132040403D01*
X102177179Y-132035187D01*
X102184793Y-132032365D01*
X102184659Y-132032042D01*
X102192160Y-132028934D01*
X102192167Y-132028933D01*
X102198202Y-132025448D01*
X102206398Y-132021117D01*
X102219029Y-132015034D01*
X102267967Y-131991467D01*
X102289310Y-131974445D01*
X102304629Y-131964003D01*
X102305692Y-131963389D01*
X102305691Y-131963389D01*
X102305694Y-131963388D01*
X102310680Y-131958402D01*
X102321054Y-131949131D01*
X102322380Y-131948074D01*
X102356146Y-131921146D01*
X102384132Y-131886052D01*
X102393402Y-131875680D01*
X102398386Y-131870696D01*
X102398389Y-131870692D01*
X102399003Y-131869629D01*
X102409445Y-131854310D01*
X102426467Y-131832967D01*
X102454005Y-131775783D01*
X102456117Y-131771398D01*
X102460448Y-131763202D01*
X102463933Y-131757167D01*
X102463934Y-131757160D01*
X102467042Y-131749659D01*
X102467365Y-131749793D01*
X102470187Y-131742179D01*
X102475403Y-131731350D01*
X102486885Y-131681042D01*
X105424870Y-131681042D01*
X105431198Y-131750687D01*
X105481135Y-131910941D01*
X105567965Y-132054577D01*
X105567968Y-132054581D01*
X105686653Y-132173266D01*
X105686657Y-132173269D01*
X105830293Y-132260099D01*
X105990547Y-132310036D01*
X106060193Y-132316365D01*
X106324870Y-132316365D01*
X106824870Y-132316365D01*
X107089547Y-132316365D01*
X107159192Y-132310036D01*
X107319446Y-132260099D01*
X107463082Y-132173269D01*
X107463086Y-132173266D01*
X107581771Y-132054581D01*
X107581774Y-132054577D01*
X107668604Y-131910941D01*
X107718541Y-131750687D01*
X107724870Y-131681042D01*
X107724870Y-131416365D01*
X106824870Y-131416365D01*
X106824870Y-132316365D01*
X106324870Y-132316365D01*
X106324870Y-131416365D01*
X105424870Y-131416365D01*
X105424870Y-131681042D01*
X102486885Y-131681042D01*
X102500500Y-131621393D01*
X102500500Y-131565000D01*
X102500500Y-131564500D01*
X102500500Y-131126583D01*
X106374870Y-131126583D01*
X106374870Y-131206147D01*
X106405318Y-131279656D01*
X106461579Y-131335917D01*
X106535088Y-131366365D01*
X106614652Y-131366365D01*
X106688161Y-131335917D01*
X106744422Y-131279656D01*
X106774870Y-131206147D01*
X106774870Y-131126583D01*
X106744422Y-131053074D01*
X106688161Y-130996813D01*
X106614652Y-130966365D01*
X106535088Y-130966365D01*
X106461579Y-130996813D01*
X106405318Y-131053074D01*
X106374870Y-131126583D01*
X102500500Y-131126583D01*
X102500500Y-131064793D01*
X102500500Y-131008607D01*
X102475403Y-130898650D01*
X102465139Y-130877338D01*
X102463933Y-130872833D01*
X102458129Y-130862780D01*
X102426467Y-130797033D01*
X102403653Y-130768425D01*
X102398388Y-130759306D01*
X102388475Y-130749393D01*
X102356146Y-130708854D01*
X102316919Y-130677571D01*
X102313073Y-130673927D01*
X102312842Y-130673530D01*
X102310679Y-130671597D01*
X102305697Y-130666615D01*
X102305694Y-130666612D01*
X102305691Y-130666610D01*
X102305687Y-130666607D01*
X102304614Y-130665988D01*
X102289315Y-130655556D01*
X102284463Y-130651687D01*
X105424870Y-130651687D01*
X105424870Y-130916365D01*
X106324870Y-130916365D01*
X106824870Y-130916365D01*
X107724870Y-130916365D01*
X107724870Y-130651687D01*
X107718541Y-130582042D01*
X107668604Y-130421788D01*
X107581774Y-130278152D01*
X107581771Y-130278148D01*
X107463086Y-130159463D01*
X107463082Y-130159460D01*
X107319446Y-130072630D01*
X107159192Y-130022693D01*
X107089547Y-130016365D01*
X106824870Y-130016365D01*
X106824870Y-130916365D01*
X106324870Y-130916365D01*
X106324870Y-130016365D01*
X106060193Y-130016365D01*
X105990547Y-130022693D01*
X105830293Y-130072630D01*
X105686657Y-130159460D01*
X105686653Y-130159463D01*
X105567968Y-130278148D01*
X105567965Y-130278152D01*
X105481135Y-130421788D01*
X105431198Y-130582042D01*
X105424870Y-130651687D01*
X102284463Y-130651687D01*
X102267966Y-130638532D01*
X102267967Y-130638532D01*
X102206399Y-130608883D01*
X102198209Y-130604555D01*
X102192164Y-130601065D01*
X102184662Y-130597958D01*
X102184793Y-130597639D01*
X102177192Y-130594818D01*
X102166352Y-130589598D01*
X102166342Y-130589594D01*
X102056397Y-130564500D01*
X102056393Y-130564500D01*
X102000207Y-130564500D01*
X100002319Y-130564500D01*
X98001905Y-130564500D01*
X98001904Y-130564500D01*
X97945724Y-130564500D01*
X97945719Y-130564501D01*
X97835757Y-130589600D01*
X97825816Y-130594387D01*
X97817279Y-130597556D01*
X97817375Y-130597788D01*
X97809867Y-130600897D01*
X97801644Y-130605644D01*
X97793463Y-130609967D01*
X97734150Y-130638532D01*
X97713799Y-130654762D01*
X97698497Y-130665196D01*
X97696299Y-130666464D01*
X97690097Y-130672666D01*
X97679744Y-130681918D01*
X97645971Y-130708852D01*
X97645970Y-130708854D01*
X97619043Y-130742618D01*
X97609783Y-130752980D01*
X97603568Y-130759194D01*
X97602300Y-130761392D01*
X97591867Y-130776694D01*
X97575647Y-130797034D01*
X97547116Y-130856277D01*
X97542790Y-130864463D01*
X97538001Y-130872758D01*
X97534893Y-130880262D01*
X97534665Y-130880167D01*
X97531485Y-130888735D01*
X97526710Y-130898651D01*
X97501613Y-131008605D01*
X97501612Y-131008612D01*
X97501612Y-131053074D01*
X97501612Y-131064792D01*
X97501612Y-131064793D01*
X97501612Y-131564500D01*
X97501612Y-131565000D01*
X97501610Y-131621393D01*
X94335570Y-131621393D01*
X94349537Y-131573826D01*
X94402341Y-131528071D01*
X94453852Y-131516865D01*
X95566888Y-131516865D01*
X95566890Y-131516865D01*
X95656034Y-131492979D01*
X95735958Y-131446835D01*
X97108474Y-130074319D01*
X97169797Y-130040834D01*
X97196155Y-130038000D01*
X101612485Y-130038000D01*
X101612487Y-130038000D01*
X101701631Y-130014114D01*
X101781555Y-129967970D01*
X106855340Y-124894185D01*
X106901484Y-124814261D01*
X106925370Y-124725117D01*
X106925370Y-124632829D01*
X106925370Y-121908134D01*
X106945055Y-121841095D01*
X106997859Y-121795340D01*
X107049370Y-121784134D01*
X107086892Y-121784134D01*
X107086894Y-121784134D01*
X107116733Y-121781337D01*
X107242406Y-121737362D01*
X107349534Y-121658299D01*
X107428597Y-121551171D01*
X107460356Y-121460409D01*
X107472572Y-121425500D01*
X107472572Y-121425498D01*
X107473887Y-121411473D01*
X107475370Y-121395660D01*
X107475369Y-120371611D01*
X107472572Y-120341772D01*
X107428597Y-120216099D01*
X107349534Y-120108971D01*
X107242406Y-120029908D01*
X107242402Y-120029906D01*
X107242401Y-120029906D01*
X107116734Y-119985932D01*
X107086899Y-119983135D01*
X106062848Y-119983135D01*
X106033011Y-119985932D01*
X106033001Y-119985934D01*
X105907338Y-120029906D01*
X105907336Y-120029907D01*
X105907335Y-120029907D01*
X105907334Y-120029908D01*
X105800206Y-120108971D01*
X105735465Y-120196694D01*
X105721142Y-120216101D01*
X105721141Y-120216103D01*
X105677167Y-120341769D01*
X105677167Y-120341771D01*
X105674370Y-120371605D01*
X105674370Y-121395656D01*
X105677167Y-121425493D01*
X105677169Y-121425503D01*
X105706490Y-121509296D01*
X105721143Y-121551171D01*
X105800206Y-121658299D01*
X105907334Y-121737362D01*
X105944692Y-121750434D01*
X106033005Y-121781337D01*
X106046785Y-121782629D01*
X106062845Y-121784135D01*
X106100369Y-121784134D01*
X106167407Y-121803817D01*
X106213163Y-121856620D01*
X106224370Y-121908134D01*
X106224370Y-124482428D01*
X106204685Y-124549467D01*
X106188051Y-124570109D01*
X103045910Y-127712249D01*
X102984587Y-127745734D01*
X102914895Y-127740750D01*
X102858962Y-127698878D01*
X102834545Y-127633414D01*
X102834229Y-127624568D01*
X102834229Y-127472245D01*
X102826413Y-127422897D01*
X102825700Y-127418396D01*
X102834654Y-127349104D01*
X102860492Y-127311317D01*
X102953447Y-127218362D01*
X102953451Y-127218357D01*
X103035761Y-127079178D01*
X103078234Y-126932983D01*
X102397730Y-126932983D01*
X102330691Y-126913298D01*
X102284936Y-126860494D01*
X102273730Y-126808983D01*
X102273730Y-126682983D01*
X102147730Y-126682983D01*
X102080691Y-126663298D01*
X102034936Y-126610494D01*
X102023730Y-126558983D01*
X102023730Y-126269887D01*
X102017445Y-126258377D01*
X102014611Y-126232019D01*
X102014611Y-125642500D01*
X102516631Y-125642500D01*
X102523642Y-125828801D01*
X102523730Y-125833464D01*
X102523730Y-126432983D01*
X103078234Y-126432983D01*
X103035761Y-126286787D01*
X102953451Y-126147608D01*
X102953448Y-126147604D01*
X102928172Y-126122329D01*
X102894686Y-126061006D01*
X102899670Y-125991314D01*
X102928172Y-125946963D01*
X102955346Y-125919789D01*
X102955349Y-125919785D01*
X103037015Y-125781694D01*
X103077455Y-125642500D01*
X102516631Y-125642500D01*
X102014611Y-125642500D01*
X101451767Y-125642500D01*
X101492206Y-125781694D01*
X101573872Y-125919785D01*
X101573879Y-125919794D01*
X101610168Y-125956082D01*
X101643654Y-126017404D01*
X101638670Y-126087096D01*
X101610171Y-126131443D01*
X101594016Y-126147597D01*
X101594006Y-126147610D01*
X101545321Y-126229932D01*
X101494252Y-126277615D01*
X101425510Y-126290118D01*
X101376592Y-126274198D01*
X101353535Y-126260886D01*
X101264391Y-126237000D01*
X101264390Y-126237000D01*
X101241866Y-126237000D01*
X101174827Y-126217315D01*
X101154185Y-126200681D01*
X101062958Y-126109454D01*
X101062955Y-126109452D01*
X101062953Y-126109450D01*
X100963887Y-126058973D01*
X100949912Y-126051852D01*
X100856135Y-126037000D01*
X99618093Y-126037000D01*
X99524307Y-126051854D01*
X99510335Y-126058973D01*
X99441666Y-126071867D01*
X99376926Y-126045588D01*
X99336671Y-125988481D01*
X99333843Y-125922460D01*
X99333731Y-125922443D01*
X99333818Y-125921889D01*
X99333681Y-125918675D01*
X99335130Y-125913605D01*
X99347823Y-125833464D01*
X99350111Y-125819019D01*
X99350110Y-125455982D01*
X99335257Y-125362196D01*
X99335256Y-125362194D01*
X99333730Y-125352557D01*
X99335753Y-125352236D01*
X99334117Y-125294994D01*
X99370195Y-125235160D01*
X99432895Y-125204330D01*
X99502309Y-125212292D01*
X99510319Y-125216019D01*
X99524307Y-125223146D01*
X99524309Y-125223146D01*
X99524311Y-125223147D01*
X99524309Y-125223147D01*
X99618086Y-125237999D01*
X99618092Y-125238000D01*
X100856129Y-125237999D01*
X100949915Y-125223146D01*
X101062953Y-125165550D01*
X101152661Y-125075842D01*
X101210257Y-124962804D01*
X101210257Y-124962802D01*
X101210258Y-124962801D01*
X101225111Y-124869024D01*
X101225111Y-124847000D01*
X101244796Y-124779961D01*
X101297600Y-124734206D01*
X101349111Y-124723000D01*
X101440583Y-124723000D01*
X101507622Y-124742685D01*
X101553377Y-124795489D01*
X101563321Y-124864647D01*
X101547315Y-124910121D01*
X101492206Y-125003305D01*
X101451767Y-125142500D01*
X103077455Y-125142500D01*
X103037015Y-125003305D01*
X102955349Y-124865214D01*
X102955342Y-124865205D01*
X102849023Y-124758886D01*
X102815538Y-124697563D01*
X102820522Y-124627871D01*
X102823850Y-124620128D01*
X102824191Y-124619024D01*
X102824191Y-124619021D01*
X102824193Y-124619018D01*
X102835111Y-124544082D01*
X102835111Y-124200918D01*
X102824193Y-124125982D01*
X102821833Y-124121156D01*
X102767689Y-124010400D01*
X102767687Y-124010397D01*
X102676716Y-123919426D01*
X102668354Y-123913456D01*
X102670529Y-123910408D01*
X102633052Y-123876150D01*
X102615111Y-123811904D01*
X102615111Y-123331933D01*
X102634796Y-123264894D01*
X102651430Y-123244252D01*
X103148218Y-122747464D01*
X103780470Y-122115212D01*
X103826614Y-122035288D01*
X103850500Y-121946144D01*
X103850500Y-120646543D01*
X103870185Y-120579504D01*
X103886819Y-120558862D01*
X104562039Y-119883642D01*
X105280469Y-119165212D01*
X105326614Y-119085288D01*
X105337726Y-119043817D01*
X105350500Y-118996144D01*
X105350500Y-118922998D01*
X109707814Y-118922998D01*
X109707814Y-118923001D01*
X109709454Y-118945407D01*
X109709785Y-118954459D01*
X109709785Y-119044144D01*
X109724843Y-119158529D01*
X109725573Y-119165657D01*
X109727531Y-119192395D01*
X109727533Y-119192410D01*
X109730671Y-119206496D01*
X109732577Y-119217272D01*
X109738804Y-119264569D01*
X109741409Y-119284354D01*
X109763294Y-119366030D01*
X109779900Y-119428005D01*
X109781158Y-119433137D01*
X109786261Y-119456045D01*
X109786264Y-119456056D01*
X109787816Y-119460113D01*
X109791773Y-119472318D01*
X109804114Y-119518375D01*
X109804117Y-119518384D01*
X109881551Y-119705327D01*
X109882798Y-119708455D01*
X109883066Y-119709156D01*
X109884226Y-119711786D01*
X109896832Y-119742216D01*
X109896840Y-119742233D01*
X110017976Y-119952047D01*
X110165468Y-120144263D01*
X110165474Y-120144270D01*
X110336787Y-120315583D01*
X110336791Y-120315586D01*
X110365623Y-120337709D01*
X110370982Y-120342324D01*
X110371018Y-120342281D01*
X110374503Y-120345181D01*
X110374506Y-120345184D01*
X110385534Y-120353073D01*
X110388824Y-120355512D01*
X110529008Y-120463079D01*
X110577059Y-120490821D01*
X110587208Y-120497359D01*
X110594190Y-120502354D01*
X110617530Y-120514354D01*
X110622747Y-120517199D01*
X110738833Y-120584221D01*
X110765293Y-120595181D01*
X110809178Y-120613359D01*
X110818421Y-120617640D01*
X110834417Y-120625864D01*
X110858753Y-120634166D01*
X110866134Y-120636951D01*
X110962674Y-120676939D01*
X111058697Y-120702668D01*
X111066584Y-120705067D01*
X111090068Y-120713079D01*
X111109345Y-120716639D01*
X111118868Y-120718791D01*
X111196702Y-120739647D01*
X111323054Y-120756281D01*
X111329307Y-120757269D01*
X111355693Y-120762143D01*
X111366311Y-120762531D01*
X111377938Y-120763506D01*
X111436914Y-120771271D01*
X111436921Y-120771271D01*
X111603205Y-120771271D01*
X111607734Y-120771353D01*
X111625631Y-120772008D01*
X111625631Y-120772007D01*
X111625633Y-120772008D01*
X111625789Y-120772002D01*
X111639132Y-120771271D01*
X111679199Y-120771271D01*
X111748533Y-120762143D01*
X111919410Y-120739647D01*
X112153438Y-120676939D01*
X112377279Y-120584221D01*
X112587104Y-120463079D01*
X112621903Y-120436376D01*
X112632790Y-120428909D01*
X112634636Y-120427783D01*
X112650925Y-120414226D01*
X112654653Y-120411246D01*
X112779321Y-120315586D01*
X112824260Y-120270646D01*
X112832592Y-120263043D01*
X112842262Y-120254996D01*
X112860276Y-120234890D01*
X112864880Y-120230026D01*
X112950642Y-120144265D01*
X113002449Y-120076747D01*
X113008420Y-120069551D01*
X113022516Y-120053820D01*
X113035618Y-120034016D01*
X113040610Y-120027015D01*
X113098135Y-119952048D01*
X113153055Y-119856922D01*
X113156991Y-119850560D01*
X113171559Y-119828542D01*
X113178475Y-119813787D01*
X113183336Y-119804474D01*
X113219277Y-119742223D01*
X113273288Y-119611828D01*
X113275511Y-119606789D01*
X113286212Y-119583964D01*
X113288088Y-119577726D01*
X113292255Y-119566037D01*
X113311995Y-119518382D01*
X113360814Y-119336186D01*
X113361806Y-119332699D01*
X113364033Y-119325299D01*
X113364034Y-119325291D01*
X113364941Y-119321221D01*
X113366203Y-119316075D01*
X113374702Y-119284356D01*
X113374703Y-119284354D01*
X113406327Y-119044142D01*
X113406327Y-118801858D01*
X113374703Y-118561646D01*
X113366202Y-118529921D01*
X113364945Y-118524794D01*
X113364034Y-118520707D01*
X113364033Y-118520706D01*
X113364033Y-118520701D01*
X113361804Y-118513292D01*
X113360804Y-118509778D01*
X113311995Y-118327618D01*
X113292261Y-118279978D01*
X113288079Y-118268243D01*
X113286213Y-118262040D01*
X113286211Y-118262034D01*
X113275531Y-118239251D01*
X113273258Y-118234099D01*
X113219281Y-118103785D01*
X113219276Y-118103776D01*
X113219272Y-118103769D01*
X113183345Y-118041541D01*
X113178463Y-118032185D01*
X113171560Y-118017459D01*
X113157009Y-117995466D01*
X113153046Y-117989062D01*
X113098135Y-117893952D01*
X113098134Y-117893950D01*
X113040637Y-117819019D01*
X113035598Y-117811953D01*
X113022516Y-117792180D01*
X113008445Y-117776476D01*
X113002420Y-117769214D01*
X112950644Y-117701737D01*
X112950637Y-117701730D01*
X112864904Y-117615997D01*
X112860249Y-117611079D01*
X112842267Y-117591009D01*
X112842264Y-117591007D01*
X112842262Y-117591004D01*
X112832594Y-117582958D01*
X112824244Y-117575337D01*
X112779325Y-117530417D01*
X112779319Y-117530412D01*
X112654723Y-117434807D01*
X112650890Y-117431744D01*
X112634636Y-117418217D01*
X112632769Y-117417077D01*
X112621898Y-117409619D01*
X112587103Y-117382920D01*
X112377282Y-117261780D01*
X112377267Y-117261773D01*
X112153438Y-117169061D01*
X112048419Y-117140921D01*
X111919410Y-117106353D01*
X111919409Y-117106352D01*
X111919406Y-117106352D01*
X111679199Y-117074729D01*
X111679198Y-117074729D01*
X111639132Y-117074729D01*
X111625789Y-117073997D01*
X111625633Y-117073991D01*
X111608105Y-117074632D01*
X111607734Y-117074646D01*
X111603205Y-117074729D01*
X111436913Y-117074729D01*
X111377949Y-117082491D01*
X111366301Y-117083469D01*
X111355693Y-117083857D01*
X111355686Y-117083858D01*
X111329342Y-117088723D01*
X111323010Y-117089724D01*
X111222847Y-117102910D01*
X111196702Y-117106353D01*
X111196700Y-117106353D01*
X111196691Y-117106355D01*
X111118893Y-117127201D01*
X111109328Y-117129362D01*
X111090074Y-117132919D01*
X111090066Y-117132921D01*
X111066614Y-117140921D01*
X111058677Y-117143335D01*
X110962674Y-117169060D01*
X110866153Y-117209041D01*
X110858741Y-117211837D01*
X110834414Y-117220136D01*
X110818416Y-117228361D01*
X110809180Y-117232639D01*
X110738838Y-117261776D01*
X110738823Y-117261784D01*
X110622781Y-117328779D01*
X110617488Y-117331666D01*
X110594196Y-117343642D01*
X110594179Y-117343653D01*
X110587194Y-117348649D01*
X110577064Y-117355174D01*
X110529013Y-117382917D01*
X110529005Y-117382922D01*
X110388843Y-117490472D01*
X110385514Y-117492939D01*
X110374508Y-117500813D01*
X110371023Y-117503714D01*
X110370987Y-117503671D01*
X110365625Y-117508287D01*
X110336796Y-117530409D01*
X110336789Y-117530415D01*
X110165473Y-117701730D01*
X110165468Y-117701736D01*
X110017976Y-117893952D01*
X109896838Y-118103769D01*
X109896834Y-118103777D01*
X109884218Y-118134235D01*
X109883048Y-118136887D01*
X109882779Y-118137592D01*
X109881549Y-118140677D01*
X109804115Y-118327621D01*
X109791776Y-118373671D01*
X109787825Y-118385860D01*
X109786264Y-118389940D01*
X109786262Y-118389949D01*
X109781156Y-118412868D01*
X109779899Y-118417996D01*
X109741409Y-118561646D01*
X109732578Y-118628721D01*
X109730674Y-118639489D01*
X109727531Y-118653599D01*
X109725573Y-118680343D01*
X109724843Y-118687470D01*
X109709785Y-118801855D01*
X109709785Y-118891540D01*
X109709454Y-118900592D01*
X109707814Y-118922998D01*
X105350500Y-118922998D01*
X105350500Y-114786341D01*
X105370185Y-114719302D01*
X105422989Y-114673547D01*
X105492147Y-114663603D01*
X105555703Y-114692628D01*
X105562338Y-114699602D01*
X105562664Y-114699277D01*
X105686653Y-114823266D01*
X105686657Y-114823269D01*
X105830293Y-114910099D01*
X105990547Y-114960036D01*
X106060193Y-114966365D01*
X106324870Y-114966365D01*
X106824870Y-114966365D01*
X107089547Y-114966365D01*
X107159192Y-114960036D01*
X107319446Y-114910099D01*
X107463082Y-114823269D01*
X107463086Y-114823266D01*
X107581771Y-114704581D01*
X107581774Y-114704577D01*
X107668604Y-114560941D01*
X107718541Y-114400687D01*
X107724870Y-114331042D01*
X107724870Y-114066365D01*
X106824870Y-114066365D01*
X106824870Y-114966365D01*
X106324870Y-114966365D01*
X106324870Y-113776583D01*
X106374870Y-113776583D01*
X106374870Y-113856147D01*
X106405318Y-113929656D01*
X106461579Y-113985917D01*
X106535088Y-114016365D01*
X106614652Y-114016365D01*
X106688161Y-113985917D01*
X106744422Y-113929656D01*
X106774870Y-113856147D01*
X106774870Y-113776583D01*
X106744422Y-113703074D01*
X106688161Y-113646813D01*
X106614652Y-113616365D01*
X106535088Y-113616365D01*
X106461579Y-113646813D01*
X106405318Y-113703074D01*
X106374870Y-113776583D01*
X106324870Y-113776583D01*
X106324870Y-113566365D01*
X106824870Y-113566365D01*
X107724870Y-113566365D01*
X107724870Y-113301687D01*
X107718541Y-113232042D01*
X107668604Y-113071788D01*
X107581774Y-112928152D01*
X107581771Y-112928148D01*
X107463086Y-112809463D01*
X107463082Y-112809460D01*
X107319446Y-112722630D01*
X107159192Y-112672693D01*
X107089547Y-112666365D01*
X106824870Y-112666365D01*
X106824870Y-113566365D01*
X106324870Y-113566365D01*
X106324870Y-112666365D01*
X106060193Y-112666365D01*
X105990547Y-112672693D01*
X105830293Y-112722630D01*
X105686657Y-112809460D01*
X105686653Y-112809463D01*
X105562664Y-112933453D01*
X105560431Y-112931220D01*
X105515224Y-112963510D01*
X105445439Y-112966934D01*
X105384880Y-112932086D01*
X105352775Y-112870030D01*
X105350500Y-112846388D01*
X105350500Y-110796544D01*
X105370185Y-110729505D01*
X105386819Y-110708863D01*
X106646638Y-109449044D01*
X107930470Y-108165212D01*
X107976614Y-108085288D01*
X107980097Y-108072288D01*
X108000500Y-107996144D01*
X108000500Y-85996544D01*
X108020185Y-85929505D01*
X108036819Y-85908863D01*
X108483064Y-85462618D01*
X108930470Y-85015212D01*
X108976614Y-84935288D01*
X109000500Y-84846143D01*
X109000500Y-84753856D01*
X109000500Y-81076998D01*
X109707814Y-81076998D01*
X109707814Y-81077001D01*
X109709454Y-81099407D01*
X109709785Y-81108459D01*
X109709785Y-81198144D01*
X109724843Y-81312529D01*
X109725573Y-81319657D01*
X109727531Y-81346395D01*
X109727533Y-81346410D01*
X109730671Y-81360496D01*
X109732577Y-81371272D01*
X109738804Y-81418569D01*
X109741409Y-81438354D01*
X109763294Y-81520030D01*
X109779900Y-81582005D01*
X109781158Y-81587137D01*
X109786261Y-81610045D01*
X109786264Y-81610056D01*
X109787816Y-81614113D01*
X109791773Y-81626318D01*
X109804114Y-81672375D01*
X109804117Y-81672384D01*
X109881551Y-81859327D01*
X109882798Y-81862455D01*
X109883066Y-81863156D01*
X109884226Y-81865786D01*
X109896832Y-81896216D01*
X109896840Y-81896233D01*
X110017976Y-82106047D01*
X110165468Y-82298263D01*
X110165474Y-82298270D01*
X110336787Y-82469583D01*
X110336791Y-82469586D01*
X110365623Y-82491709D01*
X110370982Y-82496324D01*
X110371018Y-82496281D01*
X110374503Y-82499181D01*
X110374506Y-82499184D01*
X110385534Y-82507073D01*
X110388824Y-82509512D01*
X110529008Y-82617079D01*
X110577059Y-82644821D01*
X110587208Y-82651359D01*
X110594190Y-82656354D01*
X110617530Y-82668354D01*
X110622747Y-82671199D01*
X110738833Y-82738221D01*
X110776548Y-82753843D01*
X110809178Y-82767359D01*
X110818421Y-82771640D01*
X110834417Y-82779864D01*
X110858753Y-82788166D01*
X110866134Y-82790951D01*
X110962674Y-82830939D01*
X111058697Y-82856668D01*
X111066584Y-82859067D01*
X111090068Y-82867079D01*
X111109345Y-82870639D01*
X111118868Y-82872791D01*
X111196702Y-82893647D01*
X111323054Y-82910281D01*
X111329307Y-82911269D01*
X111355693Y-82916143D01*
X111366311Y-82916531D01*
X111377938Y-82917506D01*
X111436914Y-82925271D01*
X111436921Y-82925271D01*
X111603205Y-82925271D01*
X111607734Y-82925353D01*
X111625631Y-82926008D01*
X111625631Y-82926007D01*
X111625633Y-82926008D01*
X111625789Y-82926002D01*
X111639132Y-82925271D01*
X111679199Y-82925271D01*
X111748533Y-82916143D01*
X111919410Y-82893647D01*
X112153438Y-82830939D01*
X112377279Y-82738221D01*
X112587104Y-82617079D01*
X112621903Y-82590376D01*
X112632790Y-82582909D01*
X112634636Y-82581783D01*
X112650925Y-82568226D01*
X112654653Y-82565246D01*
X112779321Y-82469586D01*
X112824260Y-82424646D01*
X112832592Y-82417043D01*
X112842262Y-82408996D01*
X112860276Y-82388890D01*
X112864880Y-82384026D01*
X112950642Y-82298265D01*
X113002449Y-82230747D01*
X113008420Y-82223551D01*
X113022516Y-82207820D01*
X113035618Y-82188016D01*
X113040610Y-82181015D01*
X113098135Y-82106048D01*
X113153055Y-82010922D01*
X113156991Y-82004560D01*
X113171559Y-81982542D01*
X113178475Y-81967787D01*
X113183336Y-81958474D01*
X113219277Y-81896223D01*
X113273288Y-81765828D01*
X113275511Y-81760789D01*
X113286212Y-81737964D01*
X113288088Y-81731726D01*
X113292255Y-81720037D01*
X113311995Y-81672382D01*
X113360814Y-81490186D01*
X113361806Y-81486699D01*
X113364033Y-81479299D01*
X113364034Y-81479291D01*
X113364941Y-81475221D01*
X113366203Y-81470075D01*
X113374702Y-81438356D01*
X113374703Y-81438354D01*
X113406327Y-81198142D01*
X113406327Y-80955858D01*
X113374703Y-80715646D01*
X113366202Y-80683921D01*
X113364945Y-80678794D01*
X113364034Y-80674707D01*
X113364033Y-80674706D01*
X113364033Y-80674701D01*
X113361804Y-80667292D01*
X113360804Y-80663778D01*
X113311995Y-80481618D01*
X113292261Y-80433978D01*
X113288079Y-80422243D01*
X113286213Y-80416040D01*
X113286211Y-80416034D01*
X113275531Y-80393251D01*
X113273258Y-80388099D01*
X113219281Y-80257785D01*
X113219276Y-80257776D01*
X113191750Y-80210099D01*
X113183345Y-80195541D01*
X113178463Y-80186185D01*
X113171560Y-80171459D01*
X113157009Y-80149466D01*
X113153046Y-80143062D01*
X113098135Y-80047952D01*
X113098134Y-80047950D01*
X113040637Y-79973019D01*
X113035598Y-79965953D01*
X113022516Y-79946180D01*
X113008442Y-79930473D01*
X113002420Y-79923214D01*
X112995352Y-79914003D01*
X112977723Y-79891028D01*
X112950644Y-79855737D01*
X112913514Y-79818607D01*
X112864904Y-79769997D01*
X112860249Y-79765079D01*
X112842267Y-79745009D01*
X112842264Y-79745007D01*
X112842262Y-79745004D01*
X112832594Y-79736958D01*
X112824244Y-79729337D01*
X112779325Y-79684417D01*
X112779319Y-79684412D01*
X112654723Y-79588807D01*
X112650890Y-79585744D01*
X112644674Y-79580571D01*
X112634636Y-79572217D01*
X112632769Y-79571077D01*
X112621898Y-79563619D01*
X112587103Y-79536920D01*
X112377282Y-79415780D01*
X112377267Y-79415773D01*
X112153438Y-79323061D01*
X112048419Y-79294921D01*
X111919410Y-79260353D01*
X111919409Y-79260352D01*
X111919406Y-79260352D01*
X111679199Y-79228729D01*
X111679198Y-79228729D01*
X111639132Y-79228729D01*
X111625789Y-79227997D01*
X111625633Y-79227991D01*
X111608105Y-79228632D01*
X111607734Y-79228646D01*
X111603205Y-79228729D01*
X111436913Y-79228729D01*
X111377949Y-79236491D01*
X111366301Y-79237469D01*
X111355693Y-79237857D01*
X111355686Y-79237858D01*
X111329342Y-79242723D01*
X111323010Y-79243724D01*
X111222847Y-79256910D01*
X111196702Y-79260353D01*
X111196700Y-79260353D01*
X111196691Y-79260355D01*
X111118893Y-79281201D01*
X111109328Y-79283362D01*
X111090074Y-79286919D01*
X111090066Y-79286921D01*
X111066614Y-79294921D01*
X111058677Y-79297335D01*
X110962674Y-79323060D01*
X110866153Y-79363041D01*
X110858741Y-79365837D01*
X110834414Y-79374136D01*
X110818416Y-79382361D01*
X110809180Y-79386639D01*
X110738838Y-79415776D01*
X110738823Y-79415784D01*
X110622781Y-79482779D01*
X110617488Y-79485666D01*
X110594196Y-79497642D01*
X110594179Y-79497653D01*
X110587194Y-79502649D01*
X110577064Y-79509174D01*
X110529013Y-79536917D01*
X110529005Y-79536922D01*
X110388843Y-79644472D01*
X110385514Y-79646939D01*
X110374508Y-79654813D01*
X110371023Y-79657714D01*
X110370987Y-79657671D01*
X110365625Y-79662287D01*
X110336796Y-79684409D01*
X110336789Y-79684415D01*
X110165473Y-79855730D01*
X110165468Y-79855736D01*
X110017976Y-80047952D01*
X109896838Y-80257769D01*
X109896834Y-80257777D01*
X109884218Y-80288235D01*
X109883048Y-80290887D01*
X109882779Y-80291592D01*
X109881549Y-80294677D01*
X109804115Y-80481621D01*
X109791776Y-80527671D01*
X109787825Y-80539860D01*
X109786264Y-80543940D01*
X109786262Y-80543949D01*
X109781156Y-80566868D01*
X109779899Y-80571996D01*
X109741409Y-80715646D01*
X109732578Y-80782721D01*
X109730674Y-80793489D01*
X109727531Y-80807599D01*
X109725573Y-80834343D01*
X109724843Y-80841470D01*
X109709785Y-80955855D01*
X109709785Y-81045540D01*
X109709454Y-81054592D01*
X109707814Y-81076998D01*
X109000500Y-81076998D01*
X109000500Y-76103856D01*
X108976614Y-76014712D01*
X108968242Y-76000212D01*
X108930470Y-75934788D01*
X108072283Y-75076601D01*
X108038798Y-75015278D01*
X108043782Y-74945586D01*
X108052578Y-74926918D01*
X108076614Y-74885288D01*
X108082127Y-74864712D01*
X108100500Y-74796144D01*
X108100500Y-59553856D01*
X108076614Y-59464712D01*
X108030470Y-59384788D01*
X104815212Y-56169530D01*
X104815211Y-56169529D01*
X104815208Y-56169527D01*
X104735290Y-56123387D01*
X104735289Y-56123386D01*
X104735288Y-56123386D01*
X104646144Y-56099500D01*
X104646143Y-56099500D01*
X98979386Y-56099500D01*
X98912347Y-56079815D01*
X98891705Y-56063181D01*
X98838017Y-56009493D01*
X98838011Y-56009488D01*
X98712488Y-55937017D01*
X98712489Y-55937017D01*
X98679546Y-55928190D01*
X98572475Y-55899500D01*
X98427525Y-55899500D01*
X98320454Y-55928190D01*
X98287511Y-55937017D01*
X98161988Y-56009488D01*
X98161982Y-56009493D01*
X98059493Y-56111982D01*
X98059488Y-56111988D01*
X97987017Y-56237511D01*
X97987016Y-56237515D01*
X97949500Y-56377525D01*
X97949500Y-56522475D01*
X97955650Y-56545426D01*
X97987017Y-56662488D01*
X98059488Y-56788011D01*
X98059493Y-56788017D01*
X98109295Y-56837819D01*
X98142780Y-56899142D01*
X98137796Y-56968834D01*
X98095924Y-57024767D01*
X98030460Y-57049184D01*
X98021614Y-57049500D01*
X94553856Y-57049500D01*
X94464712Y-57073386D01*
X94464709Y-57073387D01*
X94384791Y-57119527D01*
X94384786Y-57119531D01*
X92019531Y-59484786D01*
X92019530Y-59484788D01*
X91979654Y-59553856D01*
X91973386Y-59564712D01*
X91949500Y-59653856D01*
X90984556Y-59653856D01*
X90984556Y-57046063D01*
X90984821Y-57037956D01*
X90987275Y-57000500D01*
X90999831Y-56808885D01*
X91000821Y-56799415D01*
X91007722Y-56751413D01*
X91008825Y-56744975D01*
X91048604Y-56544986D01*
X91051236Y-56534272D01*
X91062560Y-56495706D01*
X91064071Y-56490933D01*
X91132613Y-56289011D01*
X91137228Y-56277379D01*
X91145945Y-56258292D01*
X91147448Y-56255127D01*
X91248838Y-56049526D01*
X91256944Y-56035485D01*
X91393222Y-55831530D01*
X91403093Y-55818667D01*
X91564828Y-55634242D01*
X91576298Y-55622772D01*
X91760723Y-55461037D01*
X91773586Y-55451166D01*
X91977541Y-55314888D01*
X91991583Y-55306782D01*
X92196229Y-55205863D01*
X92199474Y-55204321D01*
X92219740Y-55195066D01*
X92231319Y-55190471D01*
X92432094Y-55122318D01*
X92436927Y-55120789D01*
X92476779Y-55109089D01*
X92487451Y-55106466D01*
X92686172Y-55066940D01*
X92692639Y-55065834D01*
X92742080Y-55058726D01*
X92751577Y-55057733D01*
X92980012Y-55042765D01*
X92988120Y-55042500D01*
X100000849Y-55042500D01*
X107013996Y-55042500D01*
X107022101Y-55042765D01*
G37*
%TD.AperFunction*%
%TD*%
M02*
