%TF.GenerationSoftware,KiCad,Pcbnew,10.0.5*%
%TF.CreationDate,2026-08-11T14:23:26-07:00*%
%TF.ProjectId,JFET String Preamp Neck,4a464554-2053-4747-9269-6e6720507265,rev?*%
%TF.SameCoordinates,Original*%
%TF.FileFunction,Copper,L2,Bot*%
%TF.FilePolarity,Positive*%
%FSLAX46Y46*%
G04 Gerber Fmt 4.6, Leading zero omitted, Abs format (unit mm)*
G04 Created by KiCad (PCBNEW 10.0.5) date 2026-08-11 14:23:26*
%MOMM*%
%LPD*%
G01*
G04 APERTURE LIST*
G04 Aperture macros list*
%AMRoundRect*
0 Rectangle with rounded corners*
0 $1 Rounding radius*
0 $2 $3 $4 $5 $6 $7 $8 $9 X,Y pos of 4 corners*
0 Add a 4 corners polygon primitive as box body*
4,1,4,$2,$3,$4,$5,$6,$7,$8,$9,$2,$3,0*
0 Add four circle primitives for the rounded corners*
1,1,$1+$1,$2,$3*
1,1,$1+$1,$4,$5*
1,1,$1+$1,$6,$7*
1,1,$1+$1,$8,$9*
0 Add four rect primitives between the rounded corners*
20,1,$1+$1,$2,$3,$4,$5,0*
20,1,$1+$1,$4,$5,$6,$7,0*
20,1,$1+$1,$6,$7,$8,$9,0*
20,1,$1+$1,$8,$9,$2,$3,0*%
G04 Aperture macros list end*
%TA.AperFunction,ComponentPad*%
%ADD10RoundRect,0.191177X-0.458823X-0.458823X0.458823X-0.458823X0.458823X0.458823X-0.458823X0.458823X0*%
%TD*%
%TA.AperFunction,SMDPad,CuDef*%
%ADD11RoundRect,0.150000X0.150000X0.625000X-0.150000X0.625000X-0.150000X-0.625000X0.150000X-0.625000X0*%
%TD*%
%TA.AperFunction,SMDPad,CuDef*%
%ADD12RoundRect,0.250000X0.350000X0.650000X-0.350000X0.650000X-0.350000X-0.650000X0.350000X-0.650000X0*%
%TD*%
%TA.AperFunction,ViaPad*%
%ADD13C,0.600000*%
%TD*%
%TA.AperFunction,Conductor*%
%ADD14C,0.200000*%
%TD*%
G04 APERTURE END LIST*
D10*
%TO.P,J3,1,Pin_1_1*%
%TO.N,Net-(J3-Pin_1)*%
X106574870Y-68833635D03*
%TD*%
%TO.P,J2,1,Pin_1_1*%
%TO.N,GND*%
X106574870Y-79116365D03*
%TD*%
%TO.P,J11,1,Pin_1_1*%
%TO.N,Net-(J11-Pin_1)*%
X106574870Y-103533635D03*
%TD*%
%TO.P,J14,1,Pin_1_1*%
%TO.N,Net-(J14-Pin_1)*%
X93429352Y-120883635D03*
%TD*%
%TO.P,J15,1,Pin_1_1*%
%TO.N,Net-(J15-Pin_1)*%
X106574870Y-120883635D03*
%TD*%
%TO.P,J8,1,Pin_1_1*%
%TO.N,GND*%
X106574870Y-96466365D03*
%TD*%
%TO.P,J1,1,Pin_1_1*%
%TO.N,Net-(J1-Pin_1)*%
X93429352Y-68833635D03*
%TD*%
%TO.P,J5,1,Pin_1_1*%
%TO.N,Net-(J5-Pin_1)*%
X93429352Y-86183635D03*
%TD*%
%TO.P,J10,1,Pin_1_1*%
%TO.N,Net-(J10-Pin_1)*%
X93429352Y-103533635D03*
%TD*%
%TO.P,J16,1,Pin_1_1*%
%TO.N,Net-(J15-Pin_1)*%
X93429352Y-131166365D03*
%TD*%
%TO.P,J4,1,Pin_1_1*%
%TO.N,Net-(J3-Pin_1)*%
X93429352Y-79116365D03*
%TD*%
%TO.P,J6,1,Pin_1_1*%
%TO.N,Net-(J6-Pin_1)*%
X106574870Y-86183635D03*
%TD*%
%TO.P,J13,1,Pin_1_1*%
%TO.N,GND*%
X106574870Y-113816365D03*
%TD*%
%TO.P,J7,1,Pin_1_1*%
%TO.N,Net-(J6-Pin_1)*%
X93429352Y-96466365D03*
%TD*%
%TO.P,J17,1,Pin_1_1*%
%TO.N,GND*%
X106574870Y-131166365D03*
%TD*%
%TO.P,J12,1,Pin_1_1*%
%TO.N,Net-(J11-Pin_1)*%
X93429352Y-113816365D03*
%TD*%
D11*
%TO.P,J9,1,Pin_1_1*%
%TO.N,/SIngle FET preamp/3.7V*%
X102450000Y-58650000D03*
%TO.P,J9,2,Pin_2_2*%
%TO.N,/SIngle FET preamp/Output*%
X101450000Y-58650000D03*
%TO.P,J9,3,Pin_3_3*%
%TO.N,/SIngle FET preamp1/Output*%
X100450000Y-58650000D03*
%TO.P,J9,4,Pin_4_4*%
%TO.N,/SIngle FET preamp2/Output*%
X99450000Y-58650000D03*
%TO.P,J9,5,Pin_5_5*%
%TO.N,/SIngle FET preamp3/Output*%
X98450000Y-58650000D03*
%TO.P,J9,6,Pin_6_6*%
%TO.N,GND*%
X97450000Y-58650000D03*
D12*
%TO.P,J9,MP*%
%TO.N,N/C*%
X103750000Y-62525000D03*
X96150000Y-62525000D03*
%TD*%
D13*
%TO.N,*%
X93650000Y-106600000D03*
X94150000Y-110450000D03*
X104600000Y-106950000D03*
%TO.N,GND*%
X95000000Y-124750000D03*
X103050000Y-115850000D03*
X94300000Y-135900000D03*
X104100000Y-123050000D03*
X103650000Y-126000000D03*
X103550000Y-108750000D03*
X95500000Y-118700000D03*
X105600000Y-72300000D03*
X94650000Y-99900000D03*
X95450000Y-115700000D03*
X101152111Y-94145000D03*
X94902111Y-95195000D03*
X97500000Y-82950000D03*
X99752111Y-87845000D03*
X104250000Y-136250000D03*
X96150000Y-58750000D03*
X106200000Y-60850000D03*
X100152111Y-70985000D03*
X107450000Y-84250000D03*
X104000000Y-142100000D03*
X94600000Y-81250000D03*
X99500000Y-65600000D03*
X103500000Y-74050000D03*
X103500000Y-91300000D03*
X95600000Y-65500000D03*
X105450000Y-99900000D03*
X102550000Y-82550000D03*
X100650000Y-123000000D03*
X94502111Y-77185000D03*
X94350000Y-142000000D03*
X100650000Y-99850000D03*
X102550000Y-118650000D03*
%TO.N,/SIngle FET preamp/3.7V*%
X103950000Y-57900000D03*
%TO.N,/SIngle FET preamp1/Output*%
X106250000Y-74050000D03*
%TO.N,/SIngle FET preamp3/Output*%
X98500000Y-56450000D03*
%TO.N,/SIngle FET preamp2/Output*%
X105352111Y-93395000D03*
%TO.N,/SIngle FET preamp/Output*%
X105152111Y-71435000D03*
%TD*%
%TO.N,GND*%
D14*
X106623730Y-96592983D02*
X106623730Y-95724119D01*
%TO.N,/SIngle FET preamp/3.7V*%
X102450000Y-57400000D02*
X102450000Y-58650000D01*
X102900000Y-57400000D02*
X103400000Y-57900000D01*
X102900000Y-57400000D02*
X102450000Y-57400000D01*
X103400000Y-57900000D02*
X103950000Y-57900000D01*
%TO.N,/SIngle FET preamp1/Output*%
X104500000Y-66800000D02*
X104500000Y-72250000D01*
X104500000Y-72250000D02*
X106250000Y-74000000D01*
X100450000Y-58650000D02*
X100450000Y-62750000D01*
X100450000Y-62750000D02*
X104500000Y-66800000D01*
X106250000Y-74000000D02*
X106250000Y-74050000D01*
%TO.N,/SIngle FET preamp3/Output*%
X98450000Y-57150000D02*
X98450000Y-58650000D01*
X98500000Y-56450000D02*
X98500000Y-57100000D01*
X98500000Y-57100000D02*
X98450000Y-57150000D01*
%TO.N,/SIngle FET preamp2/Output*%
X107800000Y-82300000D02*
X105400000Y-84700000D01*
X105400000Y-92900000D02*
X105352111Y-92947889D01*
X99450000Y-60650000D02*
X99475000Y-60675000D01*
X107800000Y-76600000D02*
X107800000Y-82300000D01*
X105402111Y-93345000D02*
X105352111Y-93395000D01*
X99475000Y-62825000D02*
X103800000Y-67150000D01*
X103800000Y-67150000D02*
X103800000Y-72600000D01*
X99475000Y-60675000D02*
X99475000Y-62825000D01*
X105400000Y-84700000D02*
X105400000Y-92900000D01*
X105352111Y-92947889D02*
X105352111Y-93395000D01*
X103800000Y-72600000D02*
X107800000Y-76600000D01*
X99450000Y-58650000D02*
X99450000Y-60650000D01*
%TO.N,/SIngle FET preamp/Output*%
X105150000Y-71432889D02*
X105152111Y-71435000D01*
X101450000Y-58650000D02*
X101450000Y-62500000D01*
X101450000Y-62500000D02*
X105150000Y-66200000D01*
X105150000Y-66200000D02*
X105150000Y-71432889D01*
%TD*%
%TA.AperFunction,Conductor*%
%TO.N,GND*%
G36*
X107022101Y-55042765D02*
G01*
X107251166Y-55057770D01*
X107260655Y-55058762D01*
X107308627Y-55065658D01*
X107315069Y-55066761D01*
X107515080Y-55106540D01*
X107525782Y-55109169D01*
X107564348Y-55120493D01*
X107569140Y-55122010D01*
X107771046Y-55190543D01*
X107782678Y-55195159D01*
X107801759Y-55203873D01*
X107804974Y-55205399D01*
X108010530Y-55306764D01*
X108024576Y-55314874D01*
X108228536Y-55451152D01*
X108241406Y-55461027D01*
X108425827Y-55622759D01*
X108437296Y-55634228D01*
X108599028Y-55818649D01*
X108608903Y-55831518D01*
X108745181Y-56035477D01*
X108753291Y-56049525D01*
X108854179Y-56254114D01*
X108855761Y-56257446D01*
X108864988Y-56277651D01*
X108869613Y-56289305D01*
X108937729Y-56489983D01*
X108939288Y-56494910D01*
X108950965Y-56534685D01*
X108953604Y-56545426D01*
X108993110Y-56744060D01*
X108994231Y-56750608D01*
X109001331Y-56800011D01*
X109002327Y-56809545D01*
X109017291Y-57037954D01*
X109017556Y-57046060D01*
X109017556Y-74971228D01*
X109016827Y-74980515D01*
X109018452Y-74982745D01*
X109029979Y-74983880D01*
X109444718Y-75066334D01*
X109449641Y-75067420D01*
X109541775Y-75089749D01*
X109546189Y-75090905D01*
X109915273Y-75194961D01*
X109920352Y-75196514D01*
X110009077Y-75225775D01*
X110013082Y-75227174D01*
X110374448Y-75360453D01*
X110379713Y-75362533D01*
X110463549Y-75397914D01*
X110467164Y-75399509D01*
X110819485Y-75561897D01*
X110824743Y-75564476D01*
X110902364Y-75604900D01*
X110905575Y-75606634D01*
X111049519Y-75687233D01*
X111247327Y-75797992D01*
X111252701Y-75801181D01*
X111322704Y-75845160D01*
X111325500Y-75846972D01*
X111593784Y-76026207D01*
X111655383Y-76067360D01*
X111660708Y-76071124D01*
X111721873Y-76116828D01*
X111724375Y-76118749D01*
X112040976Y-76368304D01*
X112046191Y-76372651D01*
X112079581Y-76402086D01*
X112097360Y-76417758D01*
X112099528Y-76419715D01*
X112401679Y-76698988D01*
X112406717Y-76703918D01*
X112442195Y-76740690D01*
X112446811Y-76745474D01*
X112448624Y-76747395D01*
X112735141Y-77057314D01*
X112739981Y-77062871D01*
X112756146Y-77082589D01*
X112767961Y-77097001D01*
X112769443Y-77098844D01*
X113039256Y-77441067D01*
X113043805Y-77447218D01*
X113058805Y-77468867D01*
X113059979Y-77470593D01*
X113312067Y-77847836D01*
X113316263Y-77854571D01*
X113317446Y-77856613D01*
X113318338Y-77858180D01*
X113410443Y-78022630D01*
X113544864Y-78262636D01*
X113549444Y-78270812D01*
X113553865Y-78279488D01*
X113752682Y-78710723D01*
X113756409Y-78719718D01*
X113800320Y-78838735D01*
X113865537Y-79015500D01*
X113920781Y-79165232D01*
X113923790Y-79174493D01*
X114052698Y-79631531D01*
X114054971Y-79640999D01*
X114147619Y-80106739D01*
X114149142Y-80116356D01*
X114204960Y-80587925D01*
X114205724Y-80597633D01*
X114224368Y-81072132D01*
X114224368Y-81081868D01*
X114205724Y-81556366D01*
X114204960Y-81566074D01*
X114149142Y-82037643D01*
X114147619Y-82047260D01*
X114054971Y-82513000D01*
X114052698Y-82522468D01*
X113923790Y-82979506D01*
X113920781Y-82988767D01*
X113756409Y-83434281D01*
X113752682Y-83443276D01*
X113553865Y-83874510D01*
X113549444Y-83883186D01*
X113318338Y-84295818D01*
X113317446Y-84297385D01*
X113316263Y-84299427D01*
X113312067Y-84306162D01*
X113059979Y-84683405D01*
X113058805Y-84685131D01*
X113043805Y-84706780D01*
X113039256Y-84712931D01*
X112769443Y-85055154D01*
X112767961Y-85056997D01*
X112739984Y-85091123D01*
X112735141Y-85096684D01*
X112448624Y-85406603D01*
X112446811Y-85408524D01*
X112406735Y-85450062D01*
X112401663Y-85455026D01*
X112099528Y-85734283D01*
X112097360Y-85736240D01*
X112046201Y-85781338D01*
X112040964Y-85785704D01*
X111724375Y-86035249D01*
X111721837Y-86037198D01*
X111660722Y-86082864D01*
X111655383Y-86086638D01*
X111325537Y-86307002D01*
X111322616Y-86308895D01*
X111252709Y-86352812D01*
X111247327Y-86356006D01*
X110905607Y-86547346D01*
X110902303Y-86549131D01*
X110824808Y-86589490D01*
X110819436Y-86592125D01*
X110467202Y-86754472D01*
X110463510Y-86756101D01*
X110379740Y-86791454D01*
X110374435Y-86793550D01*
X110013105Y-86926816D01*
X110009034Y-86928238D01*
X109920413Y-86957465D01*
X109915223Y-86959052D01*
X109546188Y-87063093D01*
X109541748Y-87064256D01*
X109449699Y-87086565D01*
X109444672Y-87087674D01*
X109100610Y-87156077D01*
X109029978Y-87170120D01*
X109018450Y-87171254D01*
X109016827Y-87173488D01*
X109017556Y-87182770D01*
X109017556Y-112817228D01*
X109016827Y-112826515D01*
X109018452Y-112828745D01*
X109029979Y-112829880D01*
X109444718Y-112912334D01*
X109449641Y-112913420D01*
X109541775Y-112935749D01*
X109546189Y-112936905D01*
X109915273Y-113040961D01*
X109920352Y-113042514D01*
X110009077Y-113071775D01*
X110013082Y-113073174D01*
X110374448Y-113206453D01*
X110379713Y-113208533D01*
X110463549Y-113243914D01*
X110467164Y-113245509D01*
X110819485Y-113407897D01*
X110824743Y-113410476D01*
X110902364Y-113450900D01*
X110905575Y-113452634D01*
X111015997Y-113514463D01*
X111247327Y-113643992D01*
X111252701Y-113647181D01*
X111322704Y-113691160D01*
X111325500Y-113692972D01*
X111569745Y-113856147D01*
X111655383Y-113913360D01*
X111660708Y-113917124D01*
X111721873Y-113962828D01*
X111724375Y-113964749D01*
X112040976Y-114214304D01*
X112046191Y-114218651D01*
X112046228Y-114218684D01*
X112097360Y-114263758D01*
X112099528Y-114265715D01*
X112164913Y-114326149D01*
X112401679Y-114544988D01*
X112406717Y-114549918D01*
X112427198Y-114571146D01*
X112446811Y-114591474D01*
X112448624Y-114593395D01*
X112735141Y-114903314D01*
X112739981Y-114908871D01*
X112740987Y-114910099D01*
X112767961Y-114943001D01*
X112769443Y-114944844D01*
X113039256Y-115287067D01*
X113043805Y-115293218D01*
X113058805Y-115314867D01*
X113059979Y-115316593D01*
X113312067Y-115693836D01*
X113316263Y-115700571D01*
X113317446Y-115702613D01*
X113318338Y-115704180D01*
X113549444Y-116116812D01*
X113553865Y-116125488D01*
X113752682Y-116556723D01*
X113756409Y-116565718D01*
X113920781Y-117011232D01*
X113923790Y-117020493D01*
X114052698Y-117477531D01*
X114054971Y-117486999D01*
X114147619Y-117952739D01*
X114149142Y-117962356D01*
X114204960Y-118433925D01*
X114205724Y-118443633D01*
X114224368Y-118918132D01*
X114224368Y-118927868D01*
X114205724Y-119402366D01*
X114204960Y-119412074D01*
X114149142Y-119883643D01*
X114147619Y-119893260D01*
X114054971Y-120359000D01*
X114052698Y-120368468D01*
X113923790Y-120825506D01*
X113920781Y-120834767D01*
X113756409Y-121280281D01*
X113752682Y-121289276D01*
X113553865Y-121720510D01*
X113549444Y-121729186D01*
X113318338Y-122141818D01*
X113317446Y-122143385D01*
X113316263Y-122145427D01*
X113312067Y-122152162D01*
X113059979Y-122529405D01*
X113058805Y-122531131D01*
X113043805Y-122552780D01*
X113039256Y-122558931D01*
X112769443Y-122901154D01*
X112767961Y-122902997D01*
X112739984Y-122937123D01*
X112735141Y-122942684D01*
X112448624Y-123252603D01*
X112446811Y-123254524D01*
X112406735Y-123296062D01*
X112401663Y-123301026D01*
X112099528Y-123580283D01*
X112097360Y-123582240D01*
X112046201Y-123627338D01*
X112040964Y-123631704D01*
X111724375Y-123881249D01*
X111721837Y-123883198D01*
X111660722Y-123928864D01*
X111655383Y-123932638D01*
X111325537Y-124153002D01*
X111322616Y-124154895D01*
X111252709Y-124198812D01*
X111247327Y-124202006D01*
X110905607Y-124393346D01*
X110902303Y-124395131D01*
X110824808Y-124435490D01*
X110819436Y-124438125D01*
X110467202Y-124600472D01*
X110463510Y-124602101D01*
X110379740Y-124637454D01*
X110374435Y-124639550D01*
X110013105Y-124772816D01*
X110009034Y-124774238D01*
X109920413Y-124803465D01*
X109915223Y-124805052D01*
X109546188Y-124909093D01*
X109541748Y-124910256D01*
X109449699Y-124932565D01*
X109444672Y-124933674D01*
X109100610Y-125002077D01*
X109029978Y-125016120D01*
X109018450Y-125017254D01*
X109016827Y-125019488D01*
X109017556Y-125028770D01*
X109017556Y-142953945D01*
X109017290Y-142962057D01*
X109002370Y-143189627D01*
X109001374Y-143199163D01*
X108993986Y-143250544D01*
X108992865Y-143257089D01*
X108953720Y-143453873D01*
X108951081Y-143464613D01*
X108938785Y-143506492D01*
X108937226Y-143511418D01*
X108869782Y-143710098D01*
X108865156Y-143721754D01*
X108854818Y-143744389D01*
X108853237Y-143747718D01*
X108753257Y-143950455D01*
X108745147Y-143964502D01*
X108608871Y-144168452D01*
X108598997Y-144181320D01*
X108437265Y-144365740D01*
X108425796Y-144377209D01*
X108241376Y-144538941D01*
X108228508Y-144548815D01*
X108024558Y-144685091D01*
X108010512Y-144693201D01*
X107806896Y-144793615D01*
X107803563Y-144795197D01*
X107782089Y-144805004D01*
X107770437Y-144809629D01*
X107570620Y-144877460D01*
X107565697Y-144879018D01*
X107525100Y-144890939D01*
X107514356Y-144893579D01*
X107316268Y-144932984D01*
X107309726Y-144934104D01*
X107259856Y-144941276D01*
X107250317Y-144942273D01*
X107022113Y-144957234D01*
X107014001Y-144957500D01*
X92988115Y-144957500D01*
X92980000Y-144957234D01*
X92752428Y-144942309D01*
X92742894Y-144941313D01*
X92691516Y-144933925D01*
X92684971Y-144932804D01*
X92488186Y-144893656D01*
X92477444Y-144891016D01*
X92435552Y-144878715D01*
X92430627Y-144877156D01*
X92231960Y-144809712D01*
X92220314Y-144805091D01*
X92197681Y-144794756D01*
X92194342Y-144793170D01*
X91991614Y-144693191D01*
X91977568Y-144685082D01*
X91773610Y-144548799D01*
X91760743Y-144538925D01*
X91576328Y-144377196D01*
X91564859Y-144365727D01*
X91403130Y-144181312D01*
X91393256Y-144168445D01*
X91256973Y-143964487D01*
X91248864Y-143950441D01*
X91148423Y-143746776D01*
X91146907Y-143743583D01*
X91137058Y-143722019D01*
X91132438Y-143710378D01*
X91095785Y-143602410D01*
X91064591Y-143510519D01*
X91063046Y-143505636D01*
X91051118Y-143465017D01*
X91048492Y-143454336D01*
X91009073Y-143256192D01*
X91007961Y-143249702D01*
X91000779Y-143199760D01*
X90999789Y-143190288D01*
X90984822Y-142962056D01*
X90984556Y-142953942D01*
X90984556Y-130654335D01*
X92528852Y-130654335D01*
X92528852Y-131678386D01*
X92531649Y-131708223D01*
X92531651Y-131708233D01*
X92557369Y-131781729D01*
X92575625Y-131833901D01*
X92654688Y-131941029D01*
X92761816Y-132020092D01*
X92807499Y-132036077D01*
X92887487Y-132064067D01*
X92895272Y-132064796D01*
X92917327Y-132066865D01*
X93941376Y-132066864D01*
X93971215Y-132064067D01*
X94096888Y-132020092D01*
X94204016Y-131941029D01*
X94283079Y-131833901D01*
X94309904Y-131757239D01*
X94327054Y-131708230D01*
X94327054Y-131708228D01*
X94329852Y-131678394D01*
X94329852Y-131628352D01*
X94329852Y-131621393D01*
X97501610Y-131621393D01*
X97526704Y-131731353D01*
X97531493Y-131741297D01*
X97534661Y-131749832D01*
X97534893Y-131749736D01*
X97538000Y-131757239D01*
X97542728Y-131765429D01*
X97547056Y-131773619D01*
X97575635Y-131832964D01*
X97575639Y-131832972D01*
X97576380Y-131833901D01*
X97591902Y-131853366D01*
X97602337Y-131868672D01*
X97603566Y-131870801D01*
X97603573Y-131870810D01*
X97609708Y-131876945D01*
X97618974Y-131887313D01*
X97645961Y-131921153D01*
X97679803Y-131948141D01*
X97690166Y-131957401D01*
X97696301Y-131963536D01*
X97698415Y-131964756D01*
X97713729Y-131975196D01*
X97734140Y-131991473D01*
X97793571Y-132020092D01*
X97801734Y-132024406D01*
X97809872Y-132029104D01*
X97809878Y-132029105D01*
X97817378Y-132032212D01*
X97817279Y-132032449D01*
X97825785Y-132035605D01*
X97835759Y-132040408D01*
X97945719Y-132065502D01*
X98002112Y-132065500D01*
X98002612Y-132065500D01*
X99747905Y-132065500D01*
X100253793Y-132065500D01*
X101999500Y-132065500D01*
X102000000Y-132065500D01*
X102056393Y-132065500D01*
X102166350Y-132040403D01*
X102177179Y-132035187D01*
X102184793Y-132032365D01*
X102184659Y-132032042D01*
X102192160Y-132028934D01*
X102192167Y-132028933D01*
X102198202Y-132025448D01*
X102206398Y-132021117D01*
X102267952Y-131991474D01*
X102267967Y-131991467D01*
X102289310Y-131974445D01*
X102304629Y-131964003D01*
X102305692Y-131963389D01*
X102305691Y-131963389D01*
X102305694Y-131963388D01*
X102310680Y-131958402D01*
X102321054Y-131949131D01*
X102322296Y-131948141D01*
X102356146Y-131921146D01*
X102384132Y-131886052D01*
X102393402Y-131875680D01*
X102398386Y-131870696D01*
X102398389Y-131870692D01*
X102399003Y-131869629D01*
X102409445Y-131854310D01*
X102426467Y-131832967D01*
X102456117Y-131771398D01*
X102460448Y-131763202D01*
X102463933Y-131757167D01*
X102463934Y-131757160D01*
X102467042Y-131749659D01*
X102467365Y-131749793D01*
X102470187Y-131742179D01*
X102475403Y-131731350D01*
X102486885Y-131681042D01*
X105424870Y-131681042D01*
X105431198Y-131750687D01*
X105481135Y-131910941D01*
X105567965Y-132054577D01*
X105567968Y-132054581D01*
X105686653Y-132173266D01*
X105686657Y-132173269D01*
X105830293Y-132260099D01*
X105990547Y-132310036D01*
X106060193Y-132316365D01*
X106324870Y-132316365D01*
X106824870Y-132316365D01*
X107089547Y-132316365D01*
X107159192Y-132310036D01*
X107319446Y-132260099D01*
X107463082Y-132173269D01*
X107463086Y-132173266D01*
X107581771Y-132054581D01*
X107581774Y-132054577D01*
X107668604Y-131910941D01*
X107718541Y-131750687D01*
X107724870Y-131681042D01*
X107724870Y-131416365D01*
X106824870Y-131416365D01*
X106824870Y-132316365D01*
X106324870Y-132316365D01*
X106324870Y-131416365D01*
X105424870Y-131416365D01*
X105424870Y-131681042D01*
X102486885Y-131681042D01*
X102500500Y-131621393D01*
X102500500Y-131565000D01*
X102500500Y-131564500D01*
X102500500Y-131126583D01*
X106374870Y-131126583D01*
X106374870Y-131206147D01*
X106405318Y-131279656D01*
X106461579Y-131335917D01*
X106535088Y-131366365D01*
X106614652Y-131366365D01*
X106688161Y-131335917D01*
X106744422Y-131279656D01*
X106774870Y-131206147D01*
X106774870Y-131126583D01*
X106744422Y-131053074D01*
X106688161Y-130996813D01*
X106614652Y-130966365D01*
X106535088Y-130966365D01*
X106461579Y-130996813D01*
X106405318Y-131053074D01*
X106374870Y-131126583D01*
X102500500Y-131126583D01*
X102500500Y-131064793D01*
X102500500Y-131008607D01*
X102475403Y-130898650D01*
X102465139Y-130877338D01*
X102463933Y-130872833D01*
X102458129Y-130862780D01*
X102426467Y-130797033D01*
X102403653Y-130768425D01*
X102398388Y-130759306D01*
X102388475Y-130749393D01*
X102356146Y-130708854D01*
X102316919Y-130677571D01*
X102313073Y-130673927D01*
X102312842Y-130673530D01*
X102310679Y-130671597D01*
X102305697Y-130666615D01*
X102305694Y-130666612D01*
X102305691Y-130666610D01*
X102305687Y-130666607D01*
X102304614Y-130665988D01*
X102289315Y-130655556D01*
X102284463Y-130651687D01*
X105424870Y-130651687D01*
X105424870Y-130916365D01*
X106324870Y-130916365D01*
X106824870Y-130916365D01*
X107724870Y-130916365D01*
X107724870Y-130651687D01*
X107718541Y-130582042D01*
X107668604Y-130421788D01*
X107581774Y-130278152D01*
X107581771Y-130278148D01*
X107463086Y-130159463D01*
X107463082Y-130159460D01*
X107319446Y-130072630D01*
X107159192Y-130022693D01*
X107089547Y-130016365D01*
X106824870Y-130016365D01*
X106824870Y-130916365D01*
X106324870Y-130916365D01*
X106324870Y-130016365D01*
X106060193Y-130016365D01*
X105990547Y-130022693D01*
X105830293Y-130072630D01*
X105686657Y-130159460D01*
X105686653Y-130159463D01*
X105567968Y-130278148D01*
X105567965Y-130278152D01*
X105481135Y-130421788D01*
X105431198Y-130582042D01*
X105424870Y-130651687D01*
X102284463Y-130651687D01*
X102267966Y-130638532D01*
X102267967Y-130638532D01*
X102206399Y-130608883D01*
X102198209Y-130604555D01*
X102192164Y-130601065D01*
X102184662Y-130597958D01*
X102184793Y-130597639D01*
X102177192Y-130594818D01*
X102166352Y-130589598D01*
X102166342Y-130589594D01*
X102056397Y-130564500D01*
X102056393Y-130564500D01*
X102000207Y-130564500D01*
X100002319Y-130564500D01*
X98001905Y-130564500D01*
X98001904Y-130564500D01*
X97945724Y-130564500D01*
X97945719Y-130564501D01*
X97835762Y-130589599D01*
X97835760Y-130589599D01*
X97835759Y-130589600D01*
X97825876Y-130594359D01*
X97817274Y-130597552D01*
X97817368Y-130597778D01*
X97809862Y-130600886D01*
X97801498Y-130605715D01*
X97793310Y-130610042D01*
X97734149Y-130638533D01*
X97713863Y-130654711D01*
X97698561Y-130665145D01*
X97696292Y-130666454D01*
X97690013Y-130672733D01*
X97679660Y-130681985D01*
X97645971Y-130708852D01*
X97645970Y-130708854D01*
X97619110Y-130742534D01*
X97609850Y-130752896D01*
X97603560Y-130759185D01*
X97603557Y-130759190D01*
X97602244Y-130761464D01*
X97591820Y-130776752D01*
X97575646Y-130797035D01*
X97547182Y-130856141D01*
X97542849Y-130864339D01*
X97537992Y-130872751D01*
X97534883Y-130880256D01*
X97534660Y-130880163D01*
X97531460Y-130888786D01*
X97526710Y-130898650D01*
X97501613Y-131008605D01*
X97501612Y-131008612D01*
X97501612Y-131053074D01*
X97501612Y-131064792D01*
X97501612Y-131064793D01*
X97501612Y-131564500D01*
X97501612Y-131565000D01*
X97501610Y-131621393D01*
X94329852Y-131621393D01*
X94329851Y-130654343D01*
X94327054Y-130624506D01*
X94327054Y-130624502D01*
X94283079Y-130498829D01*
X94204016Y-130391701D01*
X94096888Y-130312638D01*
X94096884Y-130312636D01*
X94096883Y-130312636D01*
X93971216Y-130268662D01*
X93941381Y-130265865D01*
X92917330Y-130265865D01*
X92887493Y-130268662D01*
X92887483Y-130268664D01*
X92761820Y-130312636D01*
X92761818Y-130312637D01*
X92761817Y-130312637D01*
X92761816Y-130312638D01*
X92654688Y-130391701D01*
X92575624Y-130498831D01*
X92575623Y-130498833D01*
X92531649Y-130624499D01*
X92531649Y-130624501D01*
X92528852Y-130654335D01*
X90984556Y-130654335D01*
X90984556Y-125028771D01*
X90985284Y-125019486D01*
X90983662Y-125017254D01*
X90972133Y-125016120D01*
X90557442Y-124933673D01*
X90552416Y-124932564D01*
X90460351Y-124910252D01*
X90455909Y-124909089D01*
X90086888Y-124805051D01*
X90081699Y-124803464D01*
X89993081Y-124774238D01*
X89989009Y-124772816D01*
X89627662Y-124639543D01*
X89622357Y-124637447D01*
X89538619Y-124602107D01*
X89534929Y-124600478D01*
X89182677Y-124438123D01*
X89177336Y-124435504D01*
X89099800Y-124395124D01*
X89096507Y-124393345D01*
X88754784Y-124202004D01*
X88749400Y-124198808D01*
X88679498Y-124154892D01*
X88676579Y-124153001D01*
X88346730Y-123932636D01*
X88341392Y-123928862D01*
X88280299Y-123883213D01*
X88277759Y-123881264D01*
X87961122Y-123631679D01*
X87955887Y-123627314D01*
X87904755Y-123582240D01*
X87902627Y-123580319D01*
X87771655Y-123459264D01*
X87600422Y-123300996D01*
X87595396Y-123296077D01*
X87555303Y-123254523D01*
X87553528Y-123252643D01*
X87266973Y-122942682D01*
X87262131Y-122937121D01*
X87234150Y-122902990D01*
X87232668Y-122901147D01*
X86962861Y-122558932D01*
X86962860Y-122558931D01*
X86962856Y-122558925D01*
X86958319Y-122552791D01*
X86943304Y-122531119D01*
X86942132Y-122529396D01*
X86690054Y-122152168D01*
X86685872Y-122145456D01*
X86684660Y-122143365D01*
X86683754Y-122141775D01*
X86452664Y-121729167D01*
X86448253Y-121720510D01*
X86249435Y-121289275D01*
X86245711Y-121280288D01*
X86081329Y-120834747D01*
X86078330Y-120825516D01*
X85949416Y-120368450D01*
X85947151Y-120359016D01*
X85854496Y-119893242D01*
X85852978Y-119883660D01*
X85797156Y-119412057D01*
X85796395Y-119402382D01*
X85777750Y-118927860D01*
X85777750Y-118922998D01*
X86593814Y-118922998D01*
X86593814Y-118923001D01*
X86595454Y-118945407D01*
X86595785Y-118954459D01*
X86595785Y-119044144D01*
X86610843Y-119158529D01*
X86611573Y-119165657D01*
X86613531Y-119192395D01*
X86613533Y-119192410D01*
X86616671Y-119206496D01*
X86618577Y-119217272D01*
X86624804Y-119264569D01*
X86627409Y-119284354D01*
X86649294Y-119366030D01*
X86665900Y-119428005D01*
X86667158Y-119433137D01*
X86672261Y-119456045D01*
X86672264Y-119456056D01*
X86673816Y-119460113D01*
X86677773Y-119472318D01*
X86690114Y-119518375D01*
X86690117Y-119518384D01*
X86767551Y-119705327D01*
X86768798Y-119708455D01*
X86769066Y-119709156D01*
X86770226Y-119711786D01*
X86782832Y-119742216D01*
X86782840Y-119742233D01*
X86903976Y-119952047D01*
X87051468Y-120144263D01*
X87051474Y-120144270D01*
X87222787Y-120315583D01*
X87222791Y-120315586D01*
X87251623Y-120337709D01*
X87256982Y-120342324D01*
X87257018Y-120342281D01*
X87260503Y-120345181D01*
X87260506Y-120345184D01*
X87271534Y-120353073D01*
X87274824Y-120355512D01*
X87415008Y-120463079D01*
X87463059Y-120490821D01*
X87473208Y-120497359D01*
X87480190Y-120502354D01*
X87503530Y-120514354D01*
X87508747Y-120517199D01*
X87624833Y-120584221D01*
X87662548Y-120599843D01*
X87695178Y-120613359D01*
X87704421Y-120617640D01*
X87720417Y-120625864D01*
X87744753Y-120634166D01*
X87752134Y-120636951D01*
X87848674Y-120676939D01*
X87944697Y-120702668D01*
X87952584Y-120705067D01*
X87976068Y-120713079D01*
X87995345Y-120716639D01*
X88004868Y-120718791D01*
X88082702Y-120739647D01*
X88209054Y-120756281D01*
X88215307Y-120757269D01*
X88241693Y-120762143D01*
X88252311Y-120762531D01*
X88263938Y-120763506D01*
X88322914Y-120771271D01*
X88322921Y-120771271D01*
X88489205Y-120771271D01*
X88493734Y-120771353D01*
X88511631Y-120772008D01*
X88511631Y-120772007D01*
X88511633Y-120772008D01*
X88511789Y-120772002D01*
X88525132Y-120771271D01*
X88565199Y-120771271D01*
X88634533Y-120762143D01*
X88805410Y-120739647D01*
X89039438Y-120676939D01*
X89263279Y-120584221D01*
X89473104Y-120463079D01*
X89507903Y-120436376D01*
X89518790Y-120428909D01*
X89520636Y-120427783D01*
X89537232Y-120413971D01*
X89537460Y-120413783D01*
X89539031Y-120412491D01*
X89592315Y-120371605D01*
X92528852Y-120371605D01*
X92528852Y-121395656D01*
X92531649Y-121425493D01*
X92531651Y-121425503D01*
X92560972Y-121509296D01*
X92575625Y-121551171D01*
X92654688Y-121658299D01*
X92761816Y-121737362D01*
X92807499Y-121753347D01*
X92887487Y-121781337D01*
X92895272Y-121782066D01*
X92917327Y-121784135D01*
X93941376Y-121784134D01*
X93971215Y-121781337D01*
X94096888Y-121737362D01*
X94204016Y-121658299D01*
X94283079Y-121551171D01*
X94314838Y-121460409D01*
X94327054Y-121425500D01*
X94327054Y-121425498D01*
X94329852Y-121395664D01*
X94329852Y-121048352D01*
X94329852Y-121041393D01*
X97501610Y-121041393D01*
X97526703Y-121151350D01*
X97526705Y-121151356D01*
X97531464Y-121161238D01*
X97534654Y-121169834D01*
X97534882Y-121169740D01*
X97537989Y-121177242D01*
X97542794Y-121185565D01*
X97547124Y-121193760D01*
X97575636Y-121252967D01*
X97575637Y-121252969D01*
X97575639Y-121252972D01*
X97591850Y-121273300D01*
X97602286Y-121288607D01*
X97603557Y-121290809D01*
X97603564Y-121290818D01*
X97609775Y-121297029D01*
X97619041Y-121307397D01*
X97645961Y-121341153D01*
X97679719Y-121368074D01*
X97690082Y-121377334D01*
X97696294Y-121383546D01*
X97698479Y-121384807D01*
X97713793Y-121395247D01*
X97734140Y-121411473D01*
X97793437Y-121440027D01*
X97801595Y-121444339D01*
X97809867Y-121449115D01*
X97809872Y-121449116D01*
X97817380Y-121452227D01*
X97817284Y-121452458D01*
X97825837Y-121455630D01*
X97835759Y-121460408D01*
X97945719Y-121485502D01*
X98002112Y-121485500D01*
X98002612Y-121485500D01*
X99999793Y-121485500D01*
X101999500Y-121485500D01*
X102000000Y-121485500D01*
X102056393Y-121485500D01*
X102166350Y-121460403D01*
X102177179Y-121455187D01*
X102184793Y-121452365D01*
X102184659Y-121452042D01*
X102192160Y-121448934D01*
X102192167Y-121448933D01*
X102198202Y-121445448D01*
X102206398Y-121441117D01*
X102219029Y-121435034D01*
X102267967Y-121411467D01*
X102289310Y-121394445D01*
X102304629Y-121384003D01*
X102305692Y-121383389D01*
X102305691Y-121383389D01*
X102305694Y-121383388D01*
X102310680Y-121378402D01*
X102321054Y-121369131D01*
X102322380Y-121368074D01*
X102356146Y-121341146D01*
X102384132Y-121306052D01*
X102393402Y-121295680D01*
X102398386Y-121290696D01*
X102398389Y-121290692D01*
X102399003Y-121289629D01*
X102409445Y-121274310D01*
X102426467Y-121252967D01*
X102454005Y-121195783D01*
X102456117Y-121191398D01*
X102460448Y-121183202D01*
X102463933Y-121177167D01*
X102463934Y-121177160D01*
X102467042Y-121169659D01*
X102467365Y-121169793D01*
X102470187Y-121162179D01*
X102475403Y-121151350D01*
X102500500Y-121041393D01*
X102500500Y-120985000D01*
X102500500Y-120984500D01*
X102500500Y-120484793D01*
X102500500Y-120428607D01*
X102487490Y-120371605D01*
X105674370Y-120371605D01*
X105674370Y-121395656D01*
X105677167Y-121425493D01*
X105677169Y-121425503D01*
X105706490Y-121509296D01*
X105721143Y-121551171D01*
X105800206Y-121658299D01*
X105907334Y-121737362D01*
X105953017Y-121753347D01*
X106033005Y-121781337D01*
X106040790Y-121782066D01*
X106062845Y-121784135D01*
X107086894Y-121784134D01*
X107116733Y-121781337D01*
X107242406Y-121737362D01*
X107349534Y-121658299D01*
X107428597Y-121551171D01*
X107460356Y-121460409D01*
X107472572Y-121425500D01*
X107472572Y-121425498D01*
X107473887Y-121411473D01*
X107475370Y-121395660D01*
X107475369Y-120371611D01*
X107472572Y-120341772D01*
X107428597Y-120216099D01*
X107349534Y-120108971D01*
X107242406Y-120029908D01*
X107242402Y-120029906D01*
X107242401Y-120029906D01*
X107116734Y-119985932D01*
X107086899Y-119983135D01*
X106062848Y-119983135D01*
X106033011Y-119985932D01*
X106033001Y-119985934D01*
X105907338Y-120029906D01*
X105907336Y-120029907D01*
X105907335Y-120029907D01*
X105907334Y-120029908D01*
X105800206Y-120108971D01*
X105735465Y-120196694D01*
X105721142Y-120216101D01*
X105721141Y-120216103D01*
X105677167Y-120341769D01*
X105677167Y-120341771D01*
X105674370Y-120371605D01*
X102487490Y-120371605D01*
X102475403Y-120318650D01*
X102465443Y-120297968D01*
X102464159Y-120293381D01*
X102463930Y-120292826D01*
X102460443Y-120286786D01*
X102456113Y-120278593D01*
X102426469Y-120217037D01*
X102426467Y-120217034D01*
X102426467Y-120217033D01*
X102409443Y-120195686D01*
X102399005Y-120180375D01*
X102398388Y-120179306D01*
X102398386Y-120179304D01*
X102398385Y-120179302D01*
X102393400Y-120174317D01*
X102384135Y-120163951D01*
X102365824Y-120140990D01*
X102356146Y-120128854D01*
X102356144Y-120128852D01*
X102356143Y-120128851D01*
X102356142Y-120128850D01*
X102321047Y-120100863D01*
X102310679Y-120091597D01*
X102305697Y-120086615D01*
X102305694Y-120086612D01*
X102305691Y-120086610D01*
X102305687Y-120086607D01*
X102304614Y-120085988D01*
X102289315Y-120075556D01*
X102267966Y-120058532D01*
X102267967Y-120058532D01*
X102206399Y-120028883D01*
X102198209Y-120024555D01*
X102192164Y-120021065D01*
X102184662Y-120017958D01*
X102184793Y-120017639D01*
X102177192Y-120014818D01*
X102166352Y-120009598D01*
X102166342Y-120009594D01*
X102056397Y-119984500D01*
X102056393Y-119984500D01*
X102000207Y-119984500D01*
X100254207Y-119984500D01*
X99748319Y-119984500D01*
X98001905Y-119984500D01*
X98001904Y-119984500D01*
X97945724Y-119984500D01*
X97945719Y-119984501D01*
X97835757Y-120009600D01*
X97825816Y-120014387D01*
X97817279Y-120017556D01*
X97817375Y-120017788D01*
X97809867Y-120020897D01*
X97801644Y-120025644D01*
X97793463Y-120029967D01*
X97734150Y-120058532D01*
X97713799Y-120074762D01*
X97698497Y-120085196D01*
X97696299Y-120086464D01*
X97690097Y-120092666D01*
X97679744Y-120101918D01*
X97645971Y-120128852D01*
X97645970Y-120128854D01*
X97619043Y-120162618D01*
X97609783Y-120172980D01*
X97603568Y-120179194D01*
X97602300Y-120181392D01*
X97591867Y-120196694D01*
X97575647Y-120217034D01*
X97547116Y-120276277D01*
X97542790Y-120284463D01*
X97538001Y-120292758D01*
X97534893Y-120300262D01*
X97534665Y-120300167D01*
X97531485Y-120308735D01*
X97526710Y-120318651D01*
X97501613Y-120428605D01*
X97501612Y-120428612D01*
X97501612Y-120458950D01*
X97501612Y-120484792D01*
X97501612Y-120484793D01*
X97501612Y-120984500D01*
X97501612Y-120985000D01*
X97501610Y-121041393D01*
X94329852Y-121041393D01*
X94329851Y-120371613D01*
X94328113Y-120353073D01*
X94327054Y-120341772D01*
X94283079Y-120216099D01*
X94204016Y-120108971D01*
X94096888Y-120029908D01*
X94096884Y-120029906D01*
X94096883Y-120029906D01*
X93971216Y-119985932D01*
X93941381Y-119983135D01*
X92917330Y-119983135D01*
X92887493Y-119985932D01*
X92887483Y-119985934D01*
X92761820Y-120029906D01*
X92761818Y-120029907D01*
X92761817Y-120029907D01*
X92761816Y-120029908D01*
X92654688Y-120108971D01*
X92589947Y-120196694D01*
X92575624Y-120216101D01*
X92575623Y-120216103D01*
X92531649Y-120341769D01*
X92531649Y-120341771D01*
X92528852Y-120371605D01*
X89592315Y-120371605D01*
X89665321Y-120315586D01*
X89710262Y-120270644D01*
X89718592Y-120263043D01*
X89728262Y-120254996D01*
X89746276Y-120234890D01*
X89750880Y-120230026D01*
X89836642Y-120144265D01*
X89888449Y-120076747D01*
X89894420Y-120069551D01*
X89908516Y-120053820D01*
X89921618Y-120034016D01*
X89926610Y-120027015D01*
X89984135Y-119952048D01*
X90039055Y-119856922D01*
X90042991Y-119850560D01*
X90057559Y-119828542D01*
X90064475Y-119813787D01*
X90069336Y-119804474D01*
X90105277Y-119742223D01*
X90159288Y-119611828D01*
X90161511Y-119606789D01*
X90172212Y-119583964D01*
X90174088Y-119577726D01*
X90178255Y-119566037D01*
X90197995Y-119518382D01*
X90246814Y-119336186D01*
X90247806Y-119332699D01*
X90250033Y-119325299D01*
X90250034Y-119325291D01*
X90250941Y-119321221D01*
X90252203Y-119316075D01*
X90260702Y-119284356D01*
X90260703Y-119284354D01*
X90292327Y-119044142D01*
X90292327Y-118922998D01*
X109707814Y-118922998D01*
X109707814Y-118923001D01*
X109709454Y-118945407D01*
X109709785Y-118954459D01*
X109709785Y-119044144D01*
X109724843Y-119158529D01*
X109725573Y-119165657D01*
X109727531Y-119192395D01*
X109727533Y-119192410D01*
X109730671Y-119206496D01*
X109732577Y-119217272D01*
X109738804Y-119264569D01*
X109741409Y-119284354D01*
X109763294Y-119366030D01*
X109779900Y-119428005D01*
X109781158Y-119433137D01*
X109786261Y-119456045D01*
X109786264Y-119456056D01*
X109787816Y-119460113D01*
X109791773Y-119472318D01*
X109804114Y-119518375D01*
X109804117Y-119518384D01*
X109881551Y-119705327D01*
X109882798Y-119708455D01*
X109883066Y-119709156D01*
X109884226Y-119711786D01*
X109896832Y-119742216D01*
X109896840Y-119742233D01*
X110017976Y-119952047D01*
X110165468Y-120144263D01*
X110165474Y-120144270D01*
X110336787Y-120315583D01*
X110336791Y-120315586D01*
X110365623Y-120337709D01*
X110370982Y-120342324D01*
X110371018Y-120342281D01*
X110374503Y-120345181D01*
X110374506Y-120345184D01*
X110385534Y-120353073D01*
X110388824Y-120355512D01*
X110529008Y-120463079D01*
X110577059Y-120490821D01*
X110587208Y-120497359D01*
X110594190Y-120502354D01*
X110617530Y-120514354D01*
X110622747Y-120517199D01*
X110738833Y-120584221D01*
X110776548Y-120599843D01*
X110809178Y-120613359D01*
X110818421Y-120617640D01*
X110834417Y-120625864D01*
X110858753Y-120634166D01*
X110866134Y-120636951D01*
X110962674Y-120676939D01*
X111058697Y-120702668D01*
X111066584Y-120705067D01*
X111090068Y-120713079D01*
X111109345Y-120716639D01*
X111118868Y-120718791D01*
X111196702Y-120739647D01*
X111323054Y-120756281D01*
X111329307Y-120757269D01*
X111355693Y-120762143D01*
X111366311Y-120762531D01*
X111377938Y-120763506D01*
X111436914Y-120771271D01*
X111436921Y-120771271D01*
X111603205Y-120771271D01*
X111607734Y-120771353D01*
X111625631Y-120772008D01*
X111625631Y-120772007D01*
X111625633Y-120772008D01*
X111625789Y-120772002D01*
X111639132Y-120771271D01*
X111679199Y-120771271D01*
X111748533Y-120762143D01*
X111919410Y-120739647D01*
X112153438Y-120676939D01*
X112377279Y-120584221D01*
X112587104Y-120463079D01*
X112621903Y-120436376D01*
X112632790Y-120428909D01*
X112634636Y-120427783D01*
X112650925Y-120414226D01*
X112654653Y-120411246D01*
X112779321Y-120315586D01*
X112824260Y-120270646D01*
X112832592Y-120263043D01*
X112842262Y-120254996D01*
X112860276Y-120234890D01*
X112864880Y-120230026D01*
X112950642Y-120144265D01*
X113002449Y-120076747D01*
X113008420Y-120069551D01*
X113022516Y-120053820D01*
X113035618Y-120034016D01*
X113040610Y-120027015D01*
X113098135Y-119952048D01*
X113153055Y-119856922D01*
X113156991Y-119850560D01*
X113171559Y-119828542D01*
X113178475Y-119813787D01*
X113183336Y-119804474D01*
X113219277Y-119742223D01*
X113273288Y-119611828D01*
X113275511Y-119606789D01*
X113286212Y-119583964D01*
X113288088Y-119577726D01*
X113292255Y-119566037D01*
X113311995Y-119518382D01*
X113360814Y-119336186D01*
X113361806Y-119332699D01*
X113364033Y-119325299D01*
X113364034Y-119325291D01*
X113364941Y-119321221D01*
X113366203Y-119316075D01*
X113374702Y-119284356D01*
X113374703Y-119284354D01*
X113406327Y-119044142D01*
X113406327Y-118801858D01*
X113374703Y-118561646D01*
X113366202Y-118529921D01*
X113364945Y-118524794D01*
X113364034Y-118520707D01*
X113364033Y-118520706D01*
X113364033Y-118520701D01*
X113361804Y-118513292D01*
X113360804Y-118509778D01*
X113311995Y-118327618D01*
X113292261Y-118279978D01*
X113288079Y-118268243D01*
X113286213Y-118262040D01*
X113286211Y-118262034D01*
X113275531Y-118239251D01*
X113273258Y-118234099D01*
X113219281Y-118103785D01*
X113219276Y-118103776D01*
X113219272Y-118103769D01*
X113183345Y-118041541D01*
X113178463Y-118032185D01*
X113171560Y-118017459D01*
X113157009Y-117995466D01*
X113153046Y-117989062D01*
X113098135Y-117893952D01*
X113098134Y-117893950D01*
X113040637Y-117819019D01*
X113035598Y-117811953D01*
X113022516Y-117792180D01*
X113008445Y-117776476D01*
X113002420Y-117769214D01*
X112950644Y-117701737D01*
X112950637Y-117701730D01*
X112864904Y-117615997D01*
X112860249Y-117611079D01*
X112842267Y-117591009D01*
X112842264Y-117591007D01*
X112842262Y-117591004D01*
X112832594Y-117582958D01*
X112824244Y-117575337D01*
X112779325Y-117530417D01*
X112779319Y-117530412D01*
X112654723Y-117434807D01*
X112650890Y-117431744D01*
X112634636Y-117418217D01*
X112632769Y-117417077D01*
X112621898Y-117409619D01*
X112587103Y-117382920D01*
X112377282Y-117261780D01*
X112377267Y-117261773D01*
X112153438Y-117169061D01*
X112048419Y-117140921D01*
X111919410Y-117106353D01*
X111919409Y-117106352D01*
X111919406Y-117106352D01*
X111679199Y-117074729D01*
X111679198Y-117074729D01*
X111639132Y-117074729D01*
X111625789Y-117073997D01*
X111625633Y-117073991D01*
X111608105Y-117074632D01*
X111607734Y-117074646D01*
X111603205Y-117074729D01*
X111436913Y-117074729D01*
X111377949Y-117082491D01*
X111366301Y-117083469D01*
X111355693Y-117083857D01*
X111355686Y-117083858D01*
X111329342Y-117088723D01*
X111323010Y-117089724D01*
X111222847Y-117102910D01*
X111196702Y-117106353D01*
X111196700Y-117106353D01*
X111196691Y-117106355D01*
X111118893Y-117127201D01*
X111109328Y-117129362D01*
X111090074Y-117132919D01*
X111090066Y-117132921D01*
X111066614Y-117140921D01*
X111058677Y-117143335D01*
X110962674Y-117169060D01*
X110866153Y-117209041D01*
X110858741Y-117211837D01*
X110834414Y-117220136D01*
X110818416Y-117228361D01*
X110809180Y-117232639D01*
X110738838Y-117261776D01*
X110738823Y-117261784D01*
X110622781Y-117328779D01*
X110617488Y-117331666D01*
X110594196Y-117343642D01*
X110594179Y-117343653D01*
X110587194Y-117348649D01*
X110577064Y-117355174D01*
X110529013Y-117382917D01*
X110529005Y-117382922D01*
X110388843Y-117490472D01*
X110385514Y-117492939D01*
X110374508Y-117500813D01*
X110371023Y-117503714D01*
X110370987Y-117503671D01*
X110365625Y-117508287D01*
X110336796Y-117530409D01*
X110336789Y-117530415D01*
X110165473Y-117701730D01*
X110165468Y-117701736D01*
X110017976Y-117893952D01*
X109896838Y-118103769D01*
X109896834Y-118103777D01*
X109884218Y-118134235D01*
X109883048Y-118136887D01*
X109882779Y-118137592D01*
X109881549Y-118140677D01*
X109804115Y-118327621D01*
X109791776Y-118373671D01*
X109787825Y-118385860D01*
X109786264Y-118389940D01*
X109786262Y-118389949D01*
X109781156Y-118412868D01*
X109779899Y-118417996D01*
X109741409Y-118561646D01*
X109732578Y-118628721D01*
X109730674Y-118639489D01*
X109727531Y-118653599D01*
X109725573Y-118680343D01*
X109724843Y-118687470D01*
X109709785Y-118801855D01*
X109709785Y-118891540D01*
X109709454Y-118900592D01*
X109707814Y-118922998D01*
X90292327Y-118922998D01*
X90292327Y-118801858D01*
X90260703Y-118561646D01*
X90252202Y-118529921D01*
X90250945Y-118524794D01*
X90250034Y-118520707D01*
X90250033Y-118520706D01*
X90250033Y-118520701D01*
X90247804Y-118513292D01*
X90246804Y-118509778D01*
X90197995Y-118327618D01*
X90178261Y-118279978D01*
X90174079Y-118268243D01*
X90172213Y-118262040D01*
X90172211Y-118262034D01*
X90161531Y-118239251D01*
X90159258Y-118234099D01*
X90105281Y-118103785D01*
X90105276Y-118103776D01*
X90105272Y-118103769D01*
X90069345Y-118041541D01*
X90064463Y-118032185D01*
X90057560Y-118017459D01*
X90043009Y-117995466D01*
X90039046Y-117989062D01*
X89984135Y-117893952D01*
X89984134Y-117893950D01*
X89926637Y-117819019D01*
X89921598Y-117811953D01*
X89908516Y-117792180D01*
X89894445Y-117776476D01*
X89888420Y-117769214D01*
X89836644Y-117701737D01*
X89836637Y-117701730D01*
X89750904Y-117615997D01*
X89746249Y-117611079D01*
X89728267Y-117591009D01*
X89728264Y-117591007D01*
X89728262Y-117591004D01*
X89718594Y-117582958D01*
X89710244Y-117575337D01*
X89665325Y-117530417D01*
X89665319Y-117530412D01*
X89540723Y-117434807D01*
X89536890Y-117431744D01*
X89520636Y-117418217D01*
X89518769Y-117417077D01*
X89507898Y-117409619D01*
X89473103Y-117382920D01*
X89263282Y-117261780D01*
X89263267Y-117261773D01*
X89039438Y-117169061D01*
X88934419Y-117140921D01*
X88805410Y-117106353D01*
X88805409Y-117106352D01*
X88805406Y-117106352D01*
X88565199Y-117074729D01*
X88565198Y-117074729D01*
X88525132Y-117074729D01*
X88511789Y-117073997D01*
X88511633Y-117073991D01*
X88494105Y-117074632D01*
X88493734Y-117074646D01*
X88489205Y-117074729D01*
X88322913Y-117074729D01*
X88263949Y-117082491D01*
X88252301Y-117083469D01*
X88241693Y-117083857D01*
X88241686Y-117083858D01*
X88215342Y-117088723D01*
X88209010Y-117089724D01*
X88108847Y-117102910D01*
X88082702Y-117106353D01*
X88082700Y-117106353D01*
X88082691Y-117106355D01*
X88004893Y-117127201D01*
X87995328Y-117129362D01*
X87976074Y-117132919D01*
X87976066Y-117132921D01*
X87952614Y-117140921D01*
X87944677Y-117143335D01*
X87848674Y-117169060D01*
X87752153Y-117209041D01*
X87744741Y-117211837D01*
X87720414Y-117220136D01*
X87704416Y-117228361D01*
X87695180Y-117232639D01*
X87624838Y-117261776D01*
X87624823Y-117261784D01*
X87508781Y-117328779D01*
X87503488Y-117331666D01*
X87480196Y-117343642D01*
X87480179Y-117343653D01*
X87473194Y-117348649D01*
X87463064Y-117355174D01*
X87415013Y-117382917D01*
X87415005Y-117382922D01*
X87274843Y-117490472D01*
X87271514Y-117492939D01*
X87260508Y-117500813D01*
X87257023Y-117503714D01*
X87256987Y-117503671D01*
X87251625Y-117508287D01*
X87222796Y-117530409D01*
X87222789Y-117530415D01*
X87051473Y-117701730D01*
X87051468Y-117701736D01*
X86903976Y-117893952D01*
X86782838Y-118103769D01*
X86782834Y-118103777D01*
X86770218Y-118134235D01*
X86769048Y-118136887D01*
X86768779Y-118137592D01*
X86767549Y-118140677D01*
X86690115Y-118327621D01*
X86677776Y-118373671D01*
X86673825Y-118385860D01*
X86672264Y-118389940D01*
X86672262Y-118389949D01*
X86667156Y-118412868D01*
X86665899Y-118417996D01*
X86627409Y-118561646D01*
X86618578Y-118628721D01*
X86616674Y-118639489D01*
X86613531Y-118653599D01*
X86611573Y-118680343D01*
X86610843Y-118687470D01*
X86595785Y-118801855D01*
X86595785Y-118891540D01*
X86595454Y-118900592D01*
X86593814Y-118922998D01*
X85777750Y-118922998D01*
X85777750Y-118918132D01*
X85777928Y-118913601D01*
X85782319Y-118801855D01*
X85796395Y-118443615D01*
X85797156Y-118433944D01*
X85852979Y-117962335D01*
X85854495Y-117952761D01*
X85947152Y-117486977D01*
X85949414Y-117477554D01*
X86078332Y-117020476D01*
X86081327Y-117011260D01*
X86245714Y-116565702D01*
X86249435Y-116556724D01*
X86448266Y-116125462D01*
X86452658Y-116116842D01*
X86683850Y-115704054D01*
X86684580Y-115702771D01*
X86685884Y-115700522D01*
X86690040Y-115693851D01*
X86942185Y-115316523D01*
X86943236Y-115314978D01*
X86958341Y-115293176D01*
X86962832Y-115287104D01*
X87232759Y-114944737D01*
X87234093Y-114943078D01*
X87262154Y-114908849D01*
X87266939Y-114903354D01*
X87553613Y-114593264D01*
X87555214Y-114591568D01*
X87595430Y-114549886D01*
X87600385Y-114545037D01*
X87902705Y-114265608D01*
X87904673Y-114263831D01*
X87955934Y-114218644D01*
X87961096Y-114214340D01*
X88277862Y-113964654D01*
X88280196Y-113962863D01*
X88341424Y-113917113D01*
X88346699Y-113913383D01*
X88676632Y-113692962D01*
X88679444Y-113691140D01*
X88749446Y-113647162D01*
X88754737Y-113644021D01*
X89096593Y-113452606D01*
X89099697Y-113450929D01*
X89177402Y-113410461D01*
X89182611Y-113407907D01*
X89407323Y-113304335D01*
X92528852Y-113304335D01*
X92528852Y-114328386D01*
X92531649Y-114358223D01*
X92531651Y-114358233D01*
X92575300Y-114482972D01*
X92575625Y-114483901D01*
X92654688Y-114591029D01*
X92761816Y-114670092D01*
X92795967Y-114682042D01*
X92887487Y-114714067D01*
X92895272Y-114714796D01*
X92917327Y-114716865D01*
X93941376Y-114716864D01*
X93971215Y-114714067D01*
X94096888Y-114670092D01*
X94204016Y-114591029D01*
X94283079Y-114483901D01*
X94309903Y-114407242D01*
X94327054Y-114358230D01*
X94327054Y-114358228D01*
X94329852Y-114328394D01*
X94329852Y-114278352D01*
X94329852Y-114271393D01*
X97501610Y-114271393D01*
X97526703Y-114381350D01*
X97526705Y-114381356D01*
X97531464Y-114391238D01*
X97534654Y-114399834D01*
X97534882Y-114399740D01*
X97537989Y-114407242D01*
X97542794Y-114415565D01*
X97547124Y-114423760D01*
X97575636Y-114482967D01*
X97575637Y-114482969D01*
X97575639Y-114482972D01*
X97591850Y-114503300D01*
X97602286Y-114518607D01*
X97603557Y-114520809D01*
X97603564Y-114520818D01*
X97609775Y-114527029D01*
X97619041Y-114537397D01*
X97645961Y-114571153D01*
X97679719Y-114598074D01*
X97690082Y-114607334D01*
X97696294Y-114613546D01*
X97698479Y-114614807D01*
X97713793Y-114625247D01*
X97734140Y-114641473D01*
X97793437Y-114670027D01*
X97801595Y-114674339D01*
X97809867Y-114679115D01*
X97809872Y-114679116D01*
X97817380Y-114682227D01*
X97817284Y-114682458D01*
X97825837Y-114685630D01*
X97835759Y-114690408D01*
X97945719Y-114715502D01*
X98002112Y-114715500D01*
X98002612Y-114715500D01*
X99747905Y-114715500D01*
X100253793Y-114715500D01*
X101999500Y-114715500D01*
X102000000Y-114715500D01*
X102056393Y-114715500D01*
X102166350Y-114690403D01*
X102177179Y-114685187D01*
X102184793Y-114682365D01*
X102184659Y-114682042D01*
X102192160Y-114678934D01*
X102192167Y-114678933D01*
X102198202Y-114675448D01*
X102206398Y-114671117D01*
X102219029Y-114665034D01*
X102267967Y-114641467D01*
X102289310Y-114624445D01*
X102304629Y-114614003D01*
X102305692Y-114613389D01*
X102305691Y-114613389D01*
X102305694Y-114613388D01*
X102310680Y-114608402D01*
X102321054Y-114599131D01*
X102322380Y-114598074D01*
X102356146Y-114571146D01*
X102384132Y-114536052D01*
X102393402Y-114525680D01*
X102398386Y-114520696D01*
X102398389Y-114520692D01*
X102399003Y-114519629D01*
X102409445Y-114504310D01*
X102426467Y-114482967D01*
X102454005Y-114425783D01*
X102456117Y-114421398D01*
X102460448Y-114413202D01*
X102463933Y-114407167D01*
X102463934Y-114407160D01*
X102467042Y-114399659D01*
X102467365Y-114399793D01*
X102470187Y-114392179D01*
X102475403Y-114381350D01*
X102486885Y-114331042D01*
X105424870Y-114331042D01*
X105431198Y-114400687D01*
X105481135Y-114560941D01*
X105567965Y-114704577D01*
X105567968Y-114704581D01*
X105686653Y-114823266D01*
X105686657Y-114823269D01*
X105830293Y-114910099D01*
X105990547Y-114960036D01*
X106060193Y-114966365D01*
X106324870Y-114966365D01*
X106824870Y-114966365D01*
X107089547Y-114966365D01*
X107159192Y-114960036D01*
X107319446Y-114910099D01*
X107463082Y-114823269D01*
X107463086Y-114823266D01*
X107581771Y-114704581D01*
X107581774Y-114704577D01*
X107668604Y-114560941D01*
X107718541Y-114400687D01*
X107724870Y-114331042D01*
X107724870Y-114066365D01*
X106824870Y-114066365D01*
X106824870Y-114966365D01*
X106324870Y-114966365D01*
X106324870Y-114066365D01*
X105424870Y-114066365D01*
X105424870Y-114331042D01*
X102486885Y-114331042D01*
X102500500Y-114271393D01*
X102500500Y-114215000D01*
X102500500Y-114214500D01*
X102500500Y-113776583D01*
X106374870Y-113776583D01*
X106374870Y-113856147D01*
X106405318Y-113929656D01*
X106461579Y-113985917D01*
X106535088Y-114016365D01*
X106614652Y-114016365D01*
X106688161Y-113985917D01*
X106744422Y-113929656D01*
X106774870Y-113856147D01*
X106774870Y-113776583D01*
X106744422Y-113703074D01*
X106688161Y-113646813D01*
X106614652Y-113616365D01*
X106535088Y-113616365D01*
X106461579Y-113646813D01*
X106405318Y-113703074D01*
X106374870Y-113776583D01*
X102500500Y-113776583D01*
X102500500Y-113714793D01*
X102500500Y-113658607D01*
X102475403Y-113548650D01*
X102465139Y-113527338D01*
X102463933Y-113522833D01*
X102458129Y-113512780D01*
X102426467Y-113447033D01*
X102403653Y-113418425D01*
X102398388Y-113409306D01*
X102388475Y-113399393D01*
X102356146Y-113358854D01*
X102316919Y-113327571D01*
X102313073Y-113323927D01*
X102312842Y-113323530D01*
X102310679Y-113321597D01*
X102305697Y-113316615D01*
X102305694Y-113316612D01*
X102305691Y-113316610D01*
X102305687Y-113316607D01*
X102304614Y-113315988D01*
X102289315Y-113305556D01*
X102284463Y-113301687D01*
X105424870Y-113301687D01*
X105424870Y-113566365D01*
X106324870Y-113566365D01*
X106824870Y-113566365D01*
X107724870Y-113566365D01*
X107724870Y-113301687D01*
X107718541Y-113232042D01*
X107668604Y-113071788D01*
X107581774Y-112928152D01*
X107581771Y-112928148D01*
X107463086Y-112809463D01*
X107463082Y-112809460D01*
X107319446Y-112722630D01*
X107159192Y-112672693D01*
X107089547Y-112666365D01*
X106824870Y-112666365D01*
X106824870Y-113566365D01*
X106324870Y-113566365D01*
X106324870Y-112666365D01*
X106060193Y-112666365D01*
X105990547Y-112672693D01*
X105830293Y-112722630D01*
X105686657Y-112809460D01*
X105686653Y-112809463D01*
X105567968Y-112928148D01*
X105567965Y-112928152D01*
X105481135Y-113071788D01*
X105431198Y-113232042D01*
X105424870Y-113301687D01*
X102284463Y-113301687D01*
X102267966Y-113288532D01*
X102267967Y-113288532D01*
X102206399Y-113258883D01*
X102198209Y-113254555D01*
X102192164Y-113251065D01*
X102184662Y-113247958D01*
X102184793Y-113247639D01*
X102177192Y-113244818D01*
X102166352Y-113239598D01*
X102166342Y-113239594D01*
X102056397Y-113214500D01*
X102056393Y-113214500D01*
X102000207Y-113214500D01*
X100002319Y-113214500D01*
X98001905Y-113214500D01*
X98001904Y-113214500D01*
X97945724Y-113214500D01*
X97945719Y-113214501D01*
X97835757Y-113239600D01*
X97825816Y-113244387D01*
X97817279Y-113247556D01*
X97817375Y-113247788D01*
X97809867Y-113250897D01*
X97801644Y-113255644D01*
X97793463Y-113259967D01*
X97734150Y-113288532D01*
X97713799Y-113304762D01*
X97698497Y-113315196D01*
X97696299Y-113316464D01*
X97690097Y-113322666D01*
X97679744Y-113331918D01*
X97645971Y-113358852D01*
X97645970Y-113358854D01*
X97619043Y-113392618D01*
X97609783Y-113402980D01*
X97603568Y-113409194D01*
X97602300Y-113411392D01*
X97591867Y-113426694D01*
X97575647Y-113447034D01*
X97547116Y-113506277D01*
X97542790Y-113514463D01*
X97538001Y-113522758D01*
X97534893Y-113530262D01*
X97534665Y-113530167D01*
X97531485Y-113538735D01*
X97526710Y-113548651D01*
X97501613Y-113658605D01*
X97501612Y-113658612D01*
X97501612Y-113691140D01*
X97501612Y-113714792D01*
X97501612Y-113714793D01*
X97501612Y-114214500D01*
X97501612Y-114215000D01*
X97501610Y-114271393D01*
X94329852Y-114271393D01*
X94329851Y-113304343D01*
X94327054Y-113274506D01*
X94327054Y-113274502D01*
X94283079Y-113148829D01*
X94204016Y-113041701D01*
X94096888Y-112962638D01*
X94096884Y-112962636D01*
X94096883Y-112962636D01*
X93971216Y-112918662D01*
X93941381Y-112915865D01*
X92917330Y-112915865D01*
X92887493Y-112918662D01*
X92887483Y-112918664D01*
X92761820Y-112962636D01*
X92761818Y-112962637D01*
X92761817Y-112962637D01*
X92761816Y-112962638D01*
X92654688Y-113041701D01*
X92591392Y-113127466D01*
X92575624Y-113148831D01*
X92575623Y-113148833D01*
X92531649Y-113274499D01*
X92531649Y-113274501D01*
X92528852Y-113304335D01*
X89407323Y-113304335D01*
X89534958Y-113245507D01*
X89538360Y-113244043D01*
X89538608Y-113243897D01*
X89622429Y-113208522D01*
X89627604Y-113206477D01*
X89989072Y-113073159D01*
X89993019Y-113071781D01*
X90081773Y-113042511D01*
X90086814Y-113040969D01*
X90455984Y-112936889D01*
X90460279Y-112935763D01*
X90552456Y-112913424D01*
X90557414Y-112912331D01*
X90972133Y-112829880D01*
X90983658Y-112828745D01*
X90984626Y-112827416D01*
X90984628Y-112827416D01*
X90984627Y-112827414D01*
X90985284Y-112826515D01*
X90984556Y-112817229D01*
X90984556Y-110377525D01*
X93599500Y-110377525D01*
X93599500Y-110522475D01*
X93637016Y-110662485D01*
X93637017Y-110662488D01*
X93709488Y-110788011D01*
X93709490Y-110788013D01*
X93709491Y-110788015D01*
X93811985Y-110890509D01*
X93811986Y-110890510D01*
X93811988Y-110890511D01*
X93937511Y-110962982D01*
X93937512Y-110962982D01*
X93937515Y-110962984D01*
X94077525Y-111000500D01*
X94077528Y-111000500D01*
X94222472Y-111000500D01*
X94222475Y-111000500D01*
X94362485Y-110962984D01*
X94488015Y-110890509D01*
X94590509Y-110788015D01*
X94662984Y-110662485D01*
X94700500Y-110522475D01*
X94700500Y-110377525D01*
X94662984Y-110237515D01*
X94590509Y-110111985D01*
X94488015Y-110009491D01*
X94488013Y-110009490D01*
X94488011Y-110009488D01*
X94362488Y-109937017D01*
X94362489Y-109937017D01*
X94351006Y-109933940D01*
X94222475Y-109899500D01*
X94077525Y-109899500D01*
X93948993Y-109933940D01*
X93937511Y-109937017D01*
X93811988Y-110009488D01*
X93811982Y-110009493D01*
X93709493Y-110111982D01*
X93709488Y-110111988D01*
X93637017Y-110237511D01*
X93637016Y-110237515D01*
X93599500Y-110377525D01*
X90984556Y-110377525D01*
X90984556Y-106527525D01*
X93099500Y-106527525D01*
X93099500Y-106672475D01*
X93116927Y-106737511D01*
X93137017Y-106812488D01*
X93209488Y-106938011D01*
X93209490Y-106938013D01*
X93209491Y-106938015D01*
X93311985Y-107040509D01*
X93311986Y-107040510D01*
X93311988Y-107040511D01*
X93437511Y-107112982D01*
X93437512Y-107112982D01*
X93437515Y-107112984D01*
X93577525Y-107150500D01*
X93577528Y-107150500D01*
X93722472Y-107150500D01*
X93722475Y-107150500D01*
X93862485Y-107112984D01*
X93988015Y-107040509D01*
X94090509Y-106938015D01*
X94125433Y-106877525D01*
X104049500Y-106877525D01*
X104049500Y-107022475D01*
X104083805Y-107150500D01*
X104087017Y-107162488D01*
X104159488Y-107288011D01*
X104159490Y-107288013D01*
X104159491Y-107288015D01*
X104261985Y-107390509D01*
X104261986Y-107390510D01*
X104261988Y-107390511D01*
X104387511Y-107462982D01*
X104387512Y-107462982D01*
X104387515Y-107462984D01*
X104527525Y-107500500D01*
X104527528Y-107500500D01*
X104672472Y-107500500D01*
X104672475Y-107500500D01*
X104812485Y-107462984D01*
X104938015Y-107390509D01*
X105040509Y-107288015D01*
X105112984Y-107162485D01*
X105150500Y-107022475D01*
X105150500Y-106877525D01*
X105112984Y-106737515D01*
X105075431Y-106672472D01*
X105040511Y-106611988D01*
X105040506Y-106611982D01*
X104938017Y-106509493D01*
X104938011Y-106509488D01*
X104812488Y-106437017D01*
X104812489Y-106437017D01*
X104801006Y-106433940D01*
X104672475Y-106399500D01*
X104527525Y-106399500D01*
X104398993Y-106433940D01*
X104387511Y-106437017D01*
X104261988Y-106509488D01*
X104261982Y-106509493D01*
X104159493Y-106611982D01*
X104159488Y-106611988D01*
X104087017Y-106737511D01*
X104087016Y-106737515D01*
X104049500Y-106877525D01*
X94125433Y-106877525D01*
X94162984Y-106812485D01*
X94200500Y-106672475D01*
X94200500Y-106527525D01*
X94162984Y-106387515D01*
X94090509Y-106261985D01*
X93988015Y-106159491D01*
X93988013Y-106159490D01*
X93988011Y-106159488D01*
X93862488Y-106087017D01*
X93862489Y-106087017D01*
X93851006Y-106083940D01*
X93722475Y-106049500D01*
X93577525Y-106049500D01*
X93448993Y-106083940D01*
X93437511Y-106087017D01*
X93311988Y-106159488D01*
X93311982Y-106159493D01*
X93209493Y-106261982D01*
X93209488Y-106261988D01*
X93137017Y-106387511D01*
X93137016Y-106387515D01*
X93099500Y-106527525D01*
X90984556Y-106527525D01*
X90984556Y-103021605D01*
X92528852Y-103021605D01*
X92528852Y-104045656D01*
X92531649Y-104075493D01*
X92531651Y-104075503D01*
X92552646Y-104135501D01*
X92575625Y-104201171D01*
X92654688Y-104308299D01*
X92761816Y-104387362D01*
X92807499Y-104403347D01*
X92887487Y-104431337D01*
X92895272Y-104432066D01*
X92917327Y-104434135D01*
X93941376Y-104434134D01*
X93971215Y-104431337D01*
X94096888Y-104387362D01*
X94204016Y-104308299D01*
X94283079Y-104201171D01*
X94314838Y-104110409D01*
X94327054Y-104075500D01*
X94327054Y-104075498D01*
X94329852Y-104045664D01*
X94329852Y-103698352D01*
X94329852Y-103691393D01*
X97501610Y-103691393D01*
X97526703Y-103801350D01*
X97526705Y-103801356D01*
X97531464Y-103811238D01*
X97534654Y-103819834D01*
X97534882Y-103819740D01*
X97537989Y-103827242D01*
X97542794Y-103835565D01*
X97547124Y-103843760D01*
X97575636Y-103902967D01*
X97575637Y-103902969D01*
X97575639Y-103902972D01*
X97591850Y-103923300D01*
X97602286Y-103938607D01*
X97603557Y-103940809D01*
X97603564Y-103940818D01*
X97609775Y-103947029D01*
X97619041Y-103957397D01*
X97645961Y-103991153D01*
X97679719Y-104018074D01*
X97690082Y-104027334D01*
X97696294Y-104033546D01*
X97698479Y-104034807D01*
X97713793Y-104045247D01*
X97734140Y-104061473D01*
X97793437Y-104090027D01*
X97801595Y-104094339D01*
X97809867Y-104099115D01*
X97809872Y-104099116D01*
X97817380Y-104102227D01*
X97817284Y-104102458D01*
X97825837Y-104105630D01*
X97835759Y-104110408D01*
X97945719Y-104135502D01*
X98002112Y-104135500D01*
X98002612Y-104135500D01*
X99999793Y-104135500D01*
X101999500Y-104135500D01*
X102000000Y-104135500D01*
X102056393Y-104135500D01*
X102166350Y-104110403D01*
X102177179Y-104105187D01*
X102184793Y-104102365D01*
X102184659Y-104102042D01*
X102192160Y-104098934D01*
X102192167Y-104098933D01*
X102198202Y-104095448D01*
X102206398Y-104091117D01*
X102219029Y-104085034D01*
X102267967Y-104061467D01*
X102289310Y-104044445D01*
X102304629Y-104034003D01*
X102305692Y-104033389D01*
X102305691Y-104033389D01*
X102305694Y-104033388D01*
X102310680Y-104028402D01*
X102321054Y-104019131D01*
X102322380Y-104018074D01*
X102356146Y-103991146D01*
X102384132Y-103956052D01*
X102393402Y-103945680D01*
X102398386Y-103940696D01*
X102398389Y-103940692D01*
X102399003Y-103939629D01*
X102409445Y-103924310D01*
X102426467Y-103902967D01*
X102454005Y-103845783D01*
X102456117Y-103841398D01*
X102460448Y-103833202D01*
X102463933Y-103827167D01*
X102463934Y-103827160D01*
X102467042Y-103819659D01*
X102467365Y-103819793D01*
X102470187Y-103812179D01*
X102475403Y-103801350D01*
X102500500Y-103691393D01*
X102500500Y-103635000D01*
X102500500Y-103634500D01*
X102500500Y-103134793D01*
X102500500Y-103078607D01*
X102487490Y-103021605D01*
X105674370Y-103021605D01*
X105674370Y-104045656D01*
X105677167Y-104075493D01*
X105677169Y-104075503D01*
X105698164Y-104135501D01*
X105721143Y-104201171D01*
X105800206Y-104308299D01*
X105907334Y-104387362D01*
X105953017Y-104403347D01*
X106033005Y-104431337D01*
X106040790Y-104432066D01*
X106062845Y-104434135D01*
X107086894Y-104434134D01*
X107116733Y-104431337D01*
X107242406Y-104387362D01*
X107349534Y-104308299D01*
X107428597Y-104201171D01*
X107460356Y-104110409D01*
X107472572Y-104075500D01*
X107472572Y-104075498D01*
X107473887Y-104061473D01*
X107475370Y-104045660D01*
X107475369Y-103021611D01*
X107472572Y-102991772D01*
X107428597Y-102866099D01*
X107349534Y-102758971D01*
X107242406Y-102679908D01*
X107242402Y-102679906D01*
X107242401Y-102679906D01*
X107116734Y-102635932D01*
X107086899Y-102633135D01*
X106062848Y-102633135D01*
X106033011Y-102635932D01*
X106033001Y-102635934D01*
X105907338Y-102679906D01*
X105907336Y-102679907D01*
X105907335Y-102679907D01*
X105907334Y-102679908D01*
X105800206Y-102758971D01*
X105735465Y-102846694D01*
X105721142Y-102866101D01*
X105721141Y-102866103D01*
X105677167Y-102991769D01*
X105677167Y-102991771D01*
X105674370Y-103021605D01*
X102487490Y-103021605D01*
X102475403Y-102968650D01*
X102465443Y-102947968D01*
X102464159Y-102943381D01*
X102463930Y-102942826D01*
X102460443Y-102936786D01*
X102456113Y-102928593D01*
X102426469Y-102867037D01*
X102426467Y-102867034D01*
X102426467Y-102867033D01*
X102409443Y-102845686D01*
X102399005Y-102830375D01*
X102398388Y-102829306D01*
X102398386Y-102829304D01*
X102398385Y-102829302D01*
X102393400Y-102824317D01*
X102384135Y-102813951D01*
X102383072Y-102812618D01*
X102356146Y-102778854D01*
X102356144Y-102778852D01*
X102356143Y-102778851D01*
X102356142Y-102778850D01*
X102321047Y-102750863D01*
X102310679Y-102741597D01*
X102305697Y-102736615D01*
X102305694Y-102736612D01*
X102305691Y-102736610D01*
X102305687Y-102736607D01*
X102304614Y-102735988D01*
X102289315Y-102725556D01*
X102267966Y-102708532D01*
X102267967Y-102708532D01*
X102206399Y-102678883D01*
X102198209Y-102674555D01*
X102192164Y-102671065D01*
X102184662Y-102667958D01*
X102184793Y-102667639D01*
X102177192Y-102664818D01*
X102166352Y-102659598D01*
X102166342Y-102659594D01*
X102056397Y-102634500D01*
X102056393Y-102634500D01*
X102000207Y-102634500D01*
X100254207Y-102634500D01*
X99748319Y-102634500D01*
X98001905Y-102634500D01*
X98001904Y-102634500D01*
X97945724Y-102634500D01*
X97945719Y-102634501D01*
X97835757Y-102659600D01*
X97825816Y-102664387D01*
X97817279Y-102667556D01*
X97817375Y-102667788D01*
X97809867Y-102670897D01*
X97801644Y-102675644D01*
X97793463Y-102679967D01*
X97734150Y-102708532D01*
X97713799Y-102724762D01*
X97698497Y-102735196D01*
X97696299Y-102736464D01*
X97690097Y-102742666D01*
X97679744Y-102751918D01*
X97645971Y-102778852D01*
X97645970Y-102778854D01*
X97619043Y-102812618D01*
X97609783Y-102822980D01*
X97603568Y-102829194D01*
X97602300Y-102831392D01*
X97591867Y-102846694D01*
X97575647Y-102867034D01*
X97547116Y-102926277D01*
X97542790Y-102934463D01*
X97538001Y-102942758D01*
X97534893Y-102950262D01*
X97534665Y-102950167D01*
X97531485Y-102958735D01*
X97526710Y-102968651D01*
X97501613Y-103078605D01*
X97501612Y-103078612D01*
X97501612Y-103134792D01*
X97501612Y-103134793D01*
X97501612Y-103634500D01*
X97501612Y-103635000D01*
X97501610Y-103691393D01*
X94329852Y-103691393D01*
X94329851Y-103021613D01*
X94327054Y-102991776D01*
X94327054Y-102991772D01*
X94283079Y-102866099D01*
X94204016Y-102758971D01*
X94096888Y-102679908D01*
X94096884Y-102679906D01*
X94096883Y-102679906D01*
X93971216Y-102635932D01*
X93941381Y-102633135D01*
X92917330Y-102633135D01*
X92887493Y-102635932D01*
X92887483Y-102635934D01*
X92761820Y-102679906D01*
X92761818Y-102679907D01*
X92761817Y-102679907D01*
X92761816Y-102679908D01*
X92654688Y-102758971D01*
X92589947Y-102846694D01*
X92575624Y-102866101D01*
X92575623Y-102866103D01*
X92531649Y-102991769D01*
X92531649Y-102991771D01*
X92528852Y-103021605D01*
X90984556Y-103021605D01*
X90984556Y-95954335D01*
X92528852Y-95954335D01*
X92528852Y-96978386D01*
X92531649Y-97008223D01*
X92531651Y-97008233D01*
X92557369Y-97081729D01*
X92575625Y-97133901D01*
X92654688Y-97241029D01*
X92761816Y-97320092D01*
X92807499Y-97336077D01*
X92887487Y-97364067D01*
X92895272Y-97364796D01*
X92917327Y-97366865D01*
X93941376Y-97366864D01*
X93971215Y-97364067D01*
X94096888Y-97320092D01*
X94204016Y-97241029D01*
X94283079Y-97133901D01*
X94309904Y-97057239D01*
X94327054Y-97008230D01*
X94327054Y-97008228D01*
X94329852Y-96978394D01*
X94329852Y-96928352D01*
X94329852Y-96921393D01*
X97501610Y-96921393D01*
X97526704Y-97031353D01*
X97531493Y-97041297D01*
X97534661Y-97049832D01*
X97534893Y-97049736D01*
X97538000Y-97057239D01*
X97542728Y-97065429D01*
X97547056Y-97073619D01*
X97575635Y-97132964D01*
X97575639Y-97132972D01*
X97576380Y-97133901D01*
X97591902Y-97153366D01*
X97602337Y-97168672D01*
X97603566Y-97170801D01*
X97603573Y-97170810D01*
X97609708Y-97176945D01*
X97618974Y-97187313D01*
X97645961Y-97221153D01*
X97679803Y-97248141D01*
X97690166Y-97257401D01*
X97696301Y-97263536D01*
X97698415Y-97264756D01*
X97713729Y-97275196D01*
X97734140Y-97291473D01*
X97793571Y-97320092D01*
X97801734Y-97324406D01*
X97809872Y-97329104D01*
X97809878Y-97329105D01*
X97817378Y-97332212D01*
X97817279Y-97332449D01*
X97825785Y-97335605D01*
X97835759Y-97340408D01*
X97945719Y-97365502D01*
X98002112Y-97365500D01*
X98002612Y-97365500D01*
X99747905Y-97365500D01*
X100253793Y-97365500D01*
X101999500Y-97365500D01*
X102000000Y-97365500D01*
X102056393Y-97365500D01*
X102166350Y-97340403D01*
X102177179Y-97335187D01*
X102184793Y-97332365D01*
X102184659Y-97332042D01*
X102192160Y-97328934D01*
X102192167Y-97328933D01*
X102198202Y-97325448D01*
X102206398Y-97321117D01*
X102267952Y-97291474D01*
X102267967Y-97291467D01*
X102289310Y-97274445D01*
X102304629Y-97264003D01*
X102305692Y-97263389D01*
X102305691Y-97263389D01*
X102305694Y-97263388D01*
X102310680Y-97258402D01*
X102321054Y-97249131D01*
X102322296Y-97248141D01*
X102356146Y-97221146D01*
X102384132Y-97186052D01*
X102393402Y-97175680D01*
X102398386Y-97170696D01*
X102398389Y-97170692D01*
X102399003Y-97169629D01*
X102409445Y-97154310D01*
X102426467Y-97132967D01*
X102456117Y-97071398D01*
X102460448Y-97063202D01*
X102463933Y-97057167D01*
X102463934Y-97057160D01*
X102467042Y-97049659D01*
X102467365Y-97049793D01*
X102470187Y-97042179D01*
X102475403Y-97031350D01*
X102486885Y-96981042D01*
X105424870Y-96981042D01*
X105431198Y-97050687D01*
X105481135Y-97210941D01*
X105567965Y-97354577D01*
X105567968Y-97354581D01*
X105686653Y-97473266D01*
X105686657Y-97473269D01*
X105830293Y-97560099D01*
X105990547Y-97610036D01*
X106060193Y-97616365D01*
X106324870Y-97616365D01*
X106824870Y-97616365D01*
X107089547Y-97616365D01*
X107159192Y-97610036D01*
X107319446Y-97560099D01*
X107463082Y-97473269D01*
X107463086Y-97473266D01*
X107581771Y-97354581D01*
X107581774Y-97354577D01*
X107668604Y-97210941D01*
X107718541Y-97050687D01*
X107724870Y-96981042D01*
X107724870Y-96716365D01*
X106824870Y-96716365D01*
X106824870Y-97616365D01*
X106324870Y-97616365D01*
X106324870Y-96716365D01*
X105424870Y-96716365D01*
X105424870Y-96981042D01*
X102486885Y-96981042D01*
X102500500Y-96921393D01*
X102500500Y-96865000D01*
X102500500Y-96864500D01*
X102500500Y-96426583D01*
X106374870Y-96426583D01*
X106374870Y-96506147D01*
X106405318Y-96579656D01*
X106461579Y-96635917D01*
X106535088Y-96666365D01*
X106614652Y-96666365D01*
X106688161Y-96635917D01*
X106744422Y-96579656D01*
X106774870Y-96506147D01*
X106774870Y-96426583D01*
X106744422Y-96353074D01*
X106688161Y-96296813D01*
X106614652Y-96266365D01*
X106535088Y-96266365D01*
X106461579Y-96296813D01*
X106405318Y-96353074D01*
X106374870Y-96426583D01*
X102500500Y-96426583D01*
X102500500Y-96364793D01*
X102500500Y-96308607D01*
X102475403Y-96198650D01*
X102465139Y-96177338D01*
X102463933Y-96172833D01*
X102458129Y-96162780D01*
X102426467Y-96097033D01*
X102403653Y-96068425D01*
X102398388Y-96059306D01*
X102388475Y-96049393D01*
X102356146Y-96008854D01*
X102316919Y-95977571D01*
X102313073Y-95973927D01*
X102312842Y-95973530D01*
X102310679Y-95971597D01*
X102305697Y-95966615D01*
X102305694Y-95966612D01*
X102305691Y-95966610D01*
X102305687Y-95966607D01*
X102304614Y-95965988D01*
X102289315Y-95955556D01*
X102284463Y-95951687D01*
X105424870Y-95951687D01*
X105424870Y-96216365D01*
X106324870Y-96216365D01*
X106824870Y-96216365D01*
X107724870Y-96216365D01*
X107724870Y-95951687D01*
X107718541Y-95882042D01*
X107668604Y-95721788D01*
X107581774Y-95578152D01*
X107581771Y-95578148D01*
X107463086Y-95459463D01*
X107463082Y-95459460D01*
X107319446Y-95372630D01*
X107159192Y-95322693D01*
X107089547Y-95316365D01*
X106824870Y-95316365D01*
X106824870Y-96216365D01*
X106324870Y-96216365D01*
X106324870Y-95316365D01*
X106060193Y-95316365D01*
X105990547Y-95322693D01*
X105830293Y-95372630D01*
X105686657Y-95459460D01*
X105686653Y-95459463D01*
X105567968Y-95578148D01*
X105567965Y-95578152D01*
X105481135Y-95721788D01*
X105431198Y-95882042D01*
X105424870Y-95951687D01*
X102284463Y-95951687D01*
X102267966Y-95938532D01*
X102267967Y-95938532D01*
X102206399Y-95908883D01*
X102198209Y-95904555D01*
X102192164Y-95901065D01*
X102184662Y-95897958D01*
X102184793Y-95897639D01*
X102177192Y-95894818D01*
X102166352Y-95889598D01*
X102166342Y-95889594D01*
X102056397Y-95864500D01*
X102056393Y-95864500D01*
X102000207Y-95864500D01*
X100002319Y-95864500D01*
X98001905Y-95864500D01*
X98001904Y-95864500D01*
X97945724Y-95864500D01*
X97945719Y-95864501D01*
X97835762Y-95889599D01*
X97835760Y-95889599D01*
X97835759Y-95889600D01*
X97825876Y-95894359D01*
X97817274Y-95897552D01*
X97817368Y-95897778D01*
X97809862Y-95900886D01*
X97801498Y-95905715D01*
X97793310Y-95910042D01*
X97734149Y-95938533D01*
X97713863Y-95954711D01*
X97698561Y-95965145D01*
X97696292Y-95966454D01*
X97690013Y-95972733D01*
X97679660Y-95981985D01*
X97645971Y-96008852D01*
X97645970Y-96008854D01*
X97619110Y-96042534D01*
X97609850Y-96052896D01*
X97603560Y-96059185D01*
X97603557Y-96059190D01*
X97602244Y-96061464D01*
X97591820Y-96076752D01*
X97575646Y-96097035D01*
X97547182Y-96156141D01*
X97542849Y-96164339D01*
X97537992Y-96172751D01*
X97534883Y-96180256D01*
X97534660Y-96180163D01*
X97531460Y-96188786D01*
X97526710Y-96198650D01*
X97501613Y-96308605D01*
X97501612Y-96308612D01*
X97501612Y-96353074D01*
X97501612Y-96364792D01*
X97501612Y-96364793D01*
X97501612Y-96864500D01*
X97501612Y-96865000D01*
X97501610Y-96921393D01*
X94329852Y-96921393D01*
X94329851Y-95954343D01*
X94327054Y-95924506D01*
X94327054Y-95924502D01*
X94283079Y-95798829D01*
X94204016Y-95691701D01*
X94096888Y-95612638D01*
X94096884Y-95612636D01*
X94096883Y-95612636D01*
X93971216Y-95568662D01*
X93941381Y-95565865D01*
X92917330Y-95565865D01*
X92887493Y-95568662D01*
X92887483Y-95568664D01*
X92761820Y-95612636D01*
X92761818Y-95612637D01*
X92761817Y-95612637D01*
X92761816Y-95612638D01*
X92654688Y-95691701D01*
X92575624Y-95798831D01*
X92575623Y-95798833D01*
X92531649Y-95924499D01*
X92531649Y-95924501D01*
X92528852Y-95954335D01*
X90984556Y-95954335D01*
X90984556Y-87182771D01*
X90985284Y-87173486D01*
X90983662Y-87171254D01*
X90972133Y-87170120D01*
X90557442Y-87087673D01*
X90552416Y-87086564D01*
X90460351Y-87064252D01*
X90455909Y-87063089D01*
X90086888Y-86959051D01*
X90081699Y-86957464D01*
X89993081Y-86928238D01*
X89989009Y-86926816D01*
X89627662Y-86793543D01*
X89622357Y-86791447D01*
X89538619Y-86756107D01*
X89534929Y-86754478D01*
X89182677Y-86592123D01*
X89177336Y-86589504D01*
X89099800Y-86549124D01*
X89096507Y-86547345D01*
X88754784Y-86356004D01*
X88749400Y-86352808D01*
X88679498Y-86308892D01*
X88676579Y-86307001D01*
X88346730Y-86086636D01*
X88341392Y-86082862D01*
X88280299Y-86037213D01*
X88277759Y-86035264D01*
X87961122Y-85785679D01*
X87955888Y-85781315D01*
X87904796Y-85736276D01*
X87902627Y-85734319D01*
X87834775Y-85671605D01*
X92528852Y-85671605D01*
X92528852Y-86695656D01*
X92531649Y-86725493D01*
X92531651Y-86725503D01*
X92554729Y-86791454D01*
X92575625Y-86851171D01*
X92654688Y-86958299D01*
X92761816Y-87037362D01*
X92807499Y-87053347D01*
X92887487Y-87081337D01*
X92895272Y-87082066D01*
X92917327Y-87084135D01*
X93941376Y-87084134D01*
X93971215Y-87081337D01*
X94096888Y-87037362D01*
X94204016Y-86958299D01*
X94283079Y-86851171D01*
X94306408Y-86784500D01*
X94327054Y-86725500D01*
X94327054Y-86725498D01*
X94329852Y-86695664D01*
X94329852Y-86348352D01*
X94329852Y-86341393D01*
X97501610Y-86341393D01*
X97526703Y-86451350D01*
X97526705Y-86451356D01*
X97531464Y-86461238D01*
X97534654Y-86469834D01*
X97534882Y-86469740D01*
X97537989Y-86477242D01*
X97542794Y-86485565D01*
X97547124Y-86493760D01*
X97575636Y-86552967D01*
X97575637Y-86552969D01*
X97575639Y-86552972D01*
X97591850Y-86573300D01*
X97602286Y-86588607D01*
X97603557Y-86590809D01*
X97603564Y-86590818D01*
X97609775Y-86597029D01*
X97619041Y-86607397D01*
X97645961Y-86641153D01*
X97679719Y-86668074D01*
X97690082Y-86677334D01*
X97696294Y-86683546D01*
X97698479Y-86684807D01*
X97713793Y-86695247D01*
X97734140Y-86711473D01*
X97793437Y-86740027D01*
X97801595Y-86744339D01*
X97809867Y-86749115D01*
X97809872Y-86749116D01*
X97817380Y-86752227D01*
X97817284Y-86752458D01*
X97825837Y-86755630D01*
X97835759Y-86760408D01*
X97945719Y-86785502D01*
X98002112Y-86785500D01*
X98002612Y-86785500D01*
X99999793Y-86785500D01*
X101999500Y-86785500D01*
X102000000Y-86785500D01*
X102056393Y-86785500D01*
X102166350Y-86760403D01*
X102177179Y-86755187D01*
X102184793Y-86752365D01*
X102184659Y-86752042D01*
X102192160Y-86748934D01*
X102192167Y-86748933D01*
X102198202Y-86745448D01*
X102206398Y-86741117D01*
X102219029Y-86735034D01*
X102267967Y-86711467D01*
X102289310Y-86694445D01*
X102304629Y-86684003D01*
X102305692Y-86683389D01*
X102305691Y-86683389D01*
X102305694Y-86683388D01*
X102310680Y-86678402D01*
X102321054Y-86669131D01*
X102322380Y-86668074D01*
X102356146Y-86641146D01*
X102384132Y-86606052D01*
X102393402Y-86595680D01*
X102398386Y-86590696D01*
X102398389Y-86590692D01*
X102399003Y-86589629D01*
X102409445Y-86574310D01*
X102426467Y-86552967D01*
X102454005Y-86495783D01*
X102456117Y-86491398D01*
X102460448Y-86483202D01*
X102463933Y-86477167D01*
X102463934Y-86477160D01*
X102467042Y-86469659D01*
X102467365Y-86469793D01*
X102470187Y-86462179D01*
X102475403Y-86451350D01*
X102500500Y-86341393D01*
X102500500Y-86285000D01*
X102500500Y-86284500D01*
X102500500Y-85784793D01*
X102500500Y-85728607D01*
X102475403Y-85618650D01*
X102470185Y-85607814D01*
X102467366Y-85600213D01*
X102467045Y-85600347D01*
X102463930Y-85592826D01*
X102460443Y-85586786D01*
X102456113Y-85578593D01*
X102426469Y-85517037D01*
X102426467Y-85517034D01*
X102426467Y-85517033D01*
X102409443Y-85495686D01*
X102399005Y-85480375D01*
X102398388Y-85479306D01*
X102398386Y-85479304D01*
X102398385Y-85479302D01*
X102393400Y-85474317D01*
X102384135Y-85463951D01*
X102383072Y-85462618D01*
X102356146Y-85428854D01*
X102356144Y-85428852D01*
X102356143Y-85428851D01*
X102356142Y-85428850D01*
X102321047Y-85400863D01*
X102310679Y-85391597D01*
X102305697Y-85386615D01*
X102305694Y-85386612D01*
X102305691Y-85386610D01*
X102305687Y-85386607D01*
X102304614Y-85385988D01*
X102289315Y-85375556D01*
X102267966Y-85358532D01*
X102267967Y-85358532D01*
X102206399Y-85328883D01*
X102198209Y-85324555D01*
X102192164Y-85321065D01*
X102184662Y-85317958D01*
X102184793Y-85317639D01*
X102177192Y-85314818D01*
X102166352Y-85309598D01*
X102166342Y-85309594D01*
X102056397Y-85284500D01*
X102056393Y-85284500D01*
X102000207Y-85284500D01*
X100254207Y-85284500D01*
X99748319Y-85284500D01*
X98001905Y-85284500D01*
X98001904Y-85284500D01*
X97945724Y-85284500D01*
X97945719Y-85284501D01*
X97835757Y-85309600D01*
X97825816Y-85314387D01*
X97817279Y-85317556D01*
X97817375Y-85317788D01*
X97809867Y-85320897D01*
X97801644Y-85325644D01*
X97793463Y-85329967D01*
X97734150Y-85358532D01*
X97713799Y-85374762D01*
X97698497Y-85385196D01*
X97696299Y-85386464D01*
X97690097Y-85392666D01*
X97679744Y-85401918D01*
X97645971Y-85428852D01*
X97645970Y-85428854D01*
X97619043Y-85462618D01*
X97609783Y-85472980D01*
X97603568Y-85479194D01*
X97602300Y-85481392D01*
X97591867Y-85496694D01*
X97575647Y-85517034D01*
X97547116Y-85576277D01*
X97542790Y-85584463D01*
X97538001Y-85592758D01*
X97534893Y-85600262D01*
X97534665Y-85600167D01*
X97531485Y-85608735D01*
X97526710Y-85618651D01*
X97501613Y-85728605D01*
X97501612Y-85728612D01*
X97501612Y-85770005D01*
X97501612Y-85784792D01*
X97501612Y-85784793D01*
X97501612Y-86284500D01*
X97501612Y-86285000D01*
X97501610Y-86341393D01*
X94329852Y-86341393D01*
X94329851Y-85671613D01*
X94327054Y-85641776D01*
X94327054Y-85641772D01*
X94283079Y-85516099D01*
X94204016Y-85408971D01*
X94096888Y-85329908D01*
X94096884Y-85329906D01*
X94096883Y-85329906D01*
X93971216Y-85285932D01*
X93941381Y-85283135D01*
X92917330Y-85283135D01*
X92887493Y-85285932D01*
X92887483Y-85285934D01*
X92761820Y-85329906D01*
X92761818Y-85329907D01*
X92761817Y-85329907D01*
X92761816Y-85329908D01*
X92654688Y-85408971D01*
X92589947Y-85496694D01*
X92575624Y-85516101D01*
X92575623Y-85516103D01*
X92531649Y-85641769D01*
X92531649Y-85641771D01*
X92528852Y-85671605D01*
X87834775Y-85671605D01*
X87757485Y-85600167D01*
X87600422Y-85454996D01*
X87595396Y-85450077D01*
X87555303Y-85408523D01*
X87553528Y-85406643D01*
X87266973Y-85096682D01*
X87262131Y-85091121D01*
X87234150Y-85056990D01*
X87232668Y-85055147D01*
X87054769Y-84829505D01*
X86962856Y-84712925D01*
X86958319Y-84706791D01*
X86943304Y-84685119D01*
X86942132Y-84683396D01*
X86690054Y-84306168D01*
X86685872Y-84299456D01*
X86684660Y-84297365D01*
X86683754Y-84295775D01*
X86452664Y-83883167D01*
X86448253Y-83874510D01*
X86249435Y-83443275D01*
X86245711Y-83434288D01*
X86081329Y-82988747D01*
X86078330Y-82979516D01*
X85949416Y-82522450D01*
X85947151Y-82513016D01*
X85854496Y-82047242D01*
X85852978Y-82037660D01*
X85797156Y-81566057D01*
X85796395Y-81556382D01*
X85777750Y-81081860D01*
X85777750Y-81076998D01*
X86593814Y-81076998D01*
X86593814Y-81077001D01*
X86595454Y-81099407D01*
X86595785Y-81108459D01*
X86595785Y-81198144D01*
X86610843Y-81312529D01*
X86611573Y-81319657D01*
X86613531Y-81346395D01*
X86613533Y-81346410D01*
X86616671Y-81360496D01*
X86618577Y-81371272D01*
X86624804Y-81418569D01*
X86627409Y-81438354D01*
X86649294Y-81520030D01*
X86665900Y-81582005D01*
X86667158Y-81587137D01*
X86672261Y-81610045D01*
X86672264Y-81610056D01*
X86673816Y-81614113D01*
X86677773Y-81626318D01*
X86690114Y-81672375D01*
X86690117Y-81672384D01*
X86767551Y-81859327D01*
X86768798Y-81862455D01*
X86769066Y-81863156D01*
X86770226Y-81865786D01*
X86782832Y-81896216D01*
X86782840Y-81896233D01*
X86903976Y-82106047D01*
X87051468Y-82298263D01*
X87051474Y-82298270D01*
X87222787Y-82469583D01*
X87222791Y-82469586D01*
X87251623Y-82491709D01*
X87256982Y-82496324D01*
X87257018Y-82496281D01*
X87260503Y-82499181D01*
X87260506Y-82499184D01*
X87271534Y-82507073D01*
X87274824Y-82509512D01*
X87415008Y-82617079D01*
X87463059Y-82644821D01*
X87473208Y-82651359D01*
X87480190Y-82656354D01*
X87503530Y-82668354D01*
X87508747Y-82671199D01*
X87624833Y-82738221D01*
X87662548Y-82753843D01*
X87695178Y-82767359D01*
X87704421Y-82771640D01*
X87720417Y-82779864D01*
X87744753Y-82788166D01*
X87752134Y-82790951D01*
X87848674Y-82830939D01*
X87944697Y-82856668D01*
X87952584Y-82859067D01*
X87976068Y-82867079D01*
X87995345Y-82870639D01*
X88004868Y-82872791D01*
X88082702Y-82893647D01*
X88209054Y-82910281D01*
X88215307Y-82911269D01*
X88241693Y-82916143D01*
X88252311Y-82916531D01*
X88263938Y-82917506D01*
X88322914Y-82925271D01*
X88322921Y-82925271D01*
X88489205Y-82925271D01*
X88493734Y-82925353D01*
X88511631Y-82926008D01*
X88511631Y-82926007D01*
X88511633Y-82926008D01*
X88511789Y-82926002D01*
X88525132Y-82925271D01*
X88565199Y-82925271D01*
X88634533Y-82916143D01*
X88805410Y-82893647D01*
X89039438Y-82830939D01*
X89263279Y-82738221D01*
X89473104Y-82617079D01*
X89507903Y-82590376D01*
X89518790Y-82582909D01*
X89520636Y-82581783D01*
X89536925Y-82568226D01*
X89540653Y-82565246D01*
X89665321Y-82469586D01*
X89710260Y-82424646D01*
X89718592Y-82417043D01*
X89728262Y-82408996D01*
X89746276Y-82388890D01*
X89750880Y-82384026D01*
X89836642Y-82298265D01*
X89888449Y-82230747D01*
X89894420Y-82223551D01*
X89908516Y-82207820D01*
X89921618Y-82188016D01*
X89926610Y-82181015D01*
X89984135Y-82106048D01*
X89985632Y-82103456D01*
X89988504Y-82098479D01*
X90039055Y-82010922D01*
X90042991Y-82004560D01*
X90057559Y-81982542D01*
X90064475Y-81967787D01*
X90069336Y-81958474D01*
X90105277Y-81896223D01*
X90159288Y-81765828D01*
X90161511Y-81760789D01*
X90172212Y-81737964D01*
X90174088Y-81731726D01*
X90178255Y-81720037D01*
X90197995Y-81672382D01*
X90246814Y-81490186D01*
X90247806Y-81486699D01*
X90250033Y-81479299D01*
X90250034Y-81479291D01*
X90250941Y-81475221D01*
X90252203Y-81470075D01*
X90260702Y-81438356D01*
X90260703Y-81438354D01*
X90292327Y-81198142D01*
X90292327Y-80955858D01*
X90260703Y-80715646D01*
X90252202Y-80683921D01*
X90250945Y-80678794D01*
X90250034Y-80674707D01*
X90250033Y-80674706D01*
X90250033Y-80674701D01*
X90247804Y-80667292D01*
X90246804Y-80663778D01*
X90197995Y-80481618D01*
X90178261Y-80433978D01*
X90174079Y-80422243D01*
X90172213Y-80416040D01*
X90172211Y-80416034D01*
X90161531Y-80393251D01*
X90159258Y-80388099D01*
X90105281Y-80257785D01*
X90105276Y-80257776D01*
X90103880Y-80255358D01*
X90069345Y-80195541D01*
X90064463Y-80186185D01*
X90057560Y-80171459D01*
X90043009Y-80149466D01*
X90039046Y-80143062D01*
X89984135Y-80047952D01*
X89984134Y-80047950D01*
X89926637Y-79973019D01*
X89921598Y-79965953D01*
X89908516Y-79946180D01*
X89894442Y-79930473D01*
X89888420Y-79923214D01*
X89881352Y-79914003D01*
X89848472Y-79871152D01*
X89836644Y-79855737D01*
X89799514Y-79818607D01*
X89750904Y-79769997D01*
X89746249Y-79765079D01*
X89728267Y-79745009D01*
X89728264Y-79745007D01*
X89728262Y-79745004D01*
X89718594Y-79736958D01*
X89710244Y-79729337D01*
X89665325Y-79684417D01*
X89665319Y-79684412D01*
X89540723Y-79588807D01*
X89536890Y-79585744D01*
X89530674Y-79580571D01*
X89520636Y-79572217D01*
X89518769Y-79571077D01*
X89507898Y-79563619D01*
X89473103Y-79536920D01*
X89263282Y-79415780D01*
X89263267Y-79415773D01*
X89039438Y-79323061D01*
X88934419Y-79294921D01*
X88805410Y-79260353D01*
X88805409Y-79260352D01*
X88805406Y-79260352D01*
X88565199Y-79228729D01*
X88565198Y-79228729D01*
X88525132Y-79228729D01*
X88511789Y-79227997D01*
X88511633Y-79227991D01*
X88494105Y-79228632D01*
X88493734Y-79228646D01*
X88489205Y-79228729D01*
X88322913Y-79228729D01*
X88263949Y-79236491D01*
X88252301Y-79237469D01*
X88241693Y-79237857D01*
X88241686Y-79237858D01*
X88215342Y-79242723D01*
X88209010Y-79243724D01*
X88108847Y-79256910D01*
X88082702Y-79260353D01*
X88082700Y-79260353D01*
X88082691Y-79260355D01*
X88004893Y-79281201D01*
X87995328Y-79283362D01*
X87976074Y-79286919D01*
X87976066Y-79286921D01*
X87952614Y-79294921D01*
X87944677Y-79297335D01*
X87848674Y-79323060D01*
X87752153Y-79363041D01*
X87744741Y-79365837D01*
X87720414Y-79374136D01*
X87704416Y-79382361D01*
X87695180Y-79386639D01*
X87624838Y-79415776D01*
X87624823Y-79415784D01*
X87508781Y-79482779D01*
X87503488Y-79485666D01*
X87480196Y-79497642D01*
X87480179Y-79497653D01*
X87473194Y-79502649D01*
X87463064Y-79509174D01*
X87415013Y-79536917D01*
X87415005Y-79536922D01*
X87274843Y-79644472D01*
X87271514Y-79646939D01*
X87260508Y-79654813D01*
X87257023Y-79657714D01*
X87256987Y-79657671D01*
X87251625Y-79662287D01*
X87222796Y-79684409D01*
X87222789Y-79684415D01*
X87051473Y-79855730D01*
X87051468Y-79855736D01*
X86903976Y-80047952D01*
X86782838Y-80257769D01*
X86782834Y-80257777D01*
X86770218Y-80288235D01*
X86769048Y-80290887D01*
X86768779Y-80291592D01*
X86767549Y-80294677D01*
X86690115Y-80481621D01*
X86677776Y-80527671D01*
X86673825Y-80539860D01*
X86672264Y-80543940D01*
X86672262Y-80543949D01*
X86667156Y-80566868D01*
X86665899Y-80571996D01*
X86627409Y-80715646D01*
X86618578Y-80782721D01*
X86616674Y-80793489D01*
X86613531Y-80807599D01*
X86611573Y-80834343D01*
X86610843Y-80841470D01*
X86595785Y-80955855D01*
X86595785Y-81045540D01*
X86595454Y-81054592D01*
X86593814Y-81076998D01*
X85777750Y-81076998D01*
X85777750Y-81072132D01*
X85777928Y-81067601D01*
X85782319Y-80955855D01*
X85796395Y-80597615D01*
X85797156Y-80587944D01*
X85852979Y-80116335D01*
X85854495Y-80106761D01*
X85947152Y-79640977D01*
X85949414Y-79631554D01*
X86078332Y-79174476D01*
X86081327Y-79165260D01*
X86245714Y-78719702D01*
X86249435Y-78710724D01*
X86298485Y-78604335D01*
X92528852Y-78604335D01*
X92528852Y-79628386D01*
X92531649Y-79658223D01*
X92531651Y-79658233D01*
X92575300Y-79782972D01*
X92575625Y-79783901D01*
X92654688Y-79891029D01*
X92761816Y-79970092D01*
X92795967Y-79982042D01*
X92887487Y-80014067D01*
X92895272Y-80014796D01*
X92917327Y-80016865D01*
X93941376Y-80016864D01*
X93971215Y-80014067D01*
X94096888Y-79970092D01*
X94204016Y-79891029D01*
X94283079Y-79783901D01*
X94309903Y-79707242D01*
X94327054Y-79658230D01*
X94327054Y-79658228D01*
X94329852Y-79628394D01*
X94329852Y-79578352D01*
X94329852Y-79571393D01*
X97501610Y-79571393D01*
X97526703Y-79681350D01*
X97526705Y-79681356D01*
X97531464Y-79691238D01*
X97534654Y-79699834D01*
X97534882Y-79699740D01*
X97537989Y-79707242D01*
X97542794Y-79715565D01*
X97547124Y-79723760D01*
X97575636Y-79782967D01*
X97575637Y-79782969D01*
X97575639Y-79782972D01*
X97591850Y-79803300D01*
X97602286Y-79818607D01*
X97603557Y-79820809D01*
X97603564Y-79820818D01*
X97609775Y-79827029D01*
X97619041Y-79837397D01*
X97645961Y-79871153D01*
X97679719Y-79898074D01*
X97690082Y-79907334D01*
X97696294Y-79913546D01*
X97698479Y-79914807D01*
X97713793Y-79925247D01*
X97734140Y-79941473D01*
X97793437Y-79970027D01*
X97801595Y-79974339D01*
X97809867Y-79979115D01*
X97809872Y-79979116D01*
X97817380Y-79982227D01*
X97817284Y-79982458D01*
X97825837Y-79985630D01*
X97835759Y-79990408D01*
X97945719Y-80015502D01*
X98002112Y-80015500D01*
X98002612Y-80015500D01*
X99747905Y-80015500D01*
X100253793Y-80015500D01*
X101999500Y-80015500D01*
X102000000Y-80015500D01*
X102056393Y-80015500D01*
X102166350Y-79990403D01*
X102177179Y-79985187D01*
X102184793Y-79982365D01*
X102184659Y-79982042D01*
X102192160Y-79978934D01*
X102192167Y-79978933D01*
X102198202Y-79975448D01*
X102206398Y-79971117D01*
X102258180Y-79946180D01*
X102267967Y-79941467D01*
X102289310Y-79924445D01*
X102304629Y-79914003D01*
X102305692Y-79913389D01*
X102305691Y-79913389D01*
X102305694Y-79913388D01*
X102310680Y-79908402D01*
X102321054Y-79899131D01*
X102322380Y-79898074D01*
X102356146Y-79871146D01*
X102384132Y-79836052D01*
X102393402Y-79825680D01*
X102398386Y-79820696D01*
X102398389Y-79820692D01*
X102399003Y-79819629D01*
X102409445Y-79804310D01*
X102426467Y-79782967D01*
X102454005Y-79725783D01*
X102456117Y-79721398D01*
X102460448Y-79713202D01*
X102463933Y-79707167D01*
X102463934Y-79707160D01*
X102467042Y-79699659D01*
X102467365Y-79699793D01*
X102470187Y-79692179D01*
X102475403Y-79681350D01*
X102486885Y-79631042D01*
X105424870Y-79631042D01*
X105431198Y-79700687D01*
X105481135Y-79860941D01*
X105567965Y-80004577D01*
X105567968Y-80004581D01*
X105686653Y-80123266D01*
X105686657Y-80123269D01*
X105830293Y-80210099D01*
X105990547Y-80260036D01*
X106060193Y-80266365D01*
X106324870Y-80266365D01*
X106324870Y-79366365D01*
X105424870Y-79366365D01*
X105424870Y-79631042D01*
X102486885Y-79631042D01*
X102500500Y-79571393D01*
X102500500Y-79515000D01*
X102500500Y-79514500D01*
X102500500Y-79076583D01*
X106374870Y-79076583D01*
X106374870Y-79156147D01*
X106405318Y-79229656D01*
X106461579Y-79285917D01*
X106535088Y-79316365D01*
X106614652Y-79316365D01*
X106688161Y-79285917D01*
X106744422Y-79229656D01*
X106774870Y-79156147D01*
X106774870Y-79076583D01*
X106744422Y-79003074D01*
X106688161Y-78946813D01*
X106614652Y-78916365D01*
X106535088Y-78916365D01*
X106461579Y-78946813D01*
X106405318Y-79003074D01*
X106374870Y-79076583D01*
X102500500Y-79076583D01*
X102500500Y-79014793D01*
X102500500Y-78958607D01*
X102475403Y-78848650D01*
X102465139Y-78827338D01*
X102463933Y-78822833D01*
X102458129Y-78812780D01*
X102426467Y-78747033D01*
X102403653Y-78718425D01*
X102398388Y-78709306D01*
X102388475Y-78699393D01*
X102356146Y-78658854D01*
X102316919Y-78627571D01*
X102313073Y-78623927D01*
X102312842Y-78623530D01*
X102310679Y-78621597D01*
X102305697Y-78616615D01*
X102305694Y-78616612D01*
X102305691Y-78616610D01*
X102305687Y-78616607D01*
X102304614Y-78615988D01*
X102289315Y-78605556D01*
X102284463Y-78601687D01*
X105424870Y-78601687D01*
X105424870Y-78866365D01*
X106324870Y-78866365D01*
X106324870Y-77966365D01*
X106060193Y-77966365D01*
X105990547Y-77972693D01*
X105830293Y-78022630D01*
X105686657Y-78109460D01*
X105686653Y-78109463D01*
X105567968Y-78228148D01*
X105567965Y-78228152D01*
X105481135Y-78371788D01*
X105431198Y-78532042D01*
X105424870Y-78601687D01*
X102284463Y-78601687D01*
X102267966Y-78588532D01*
X102267967Y-78588532D01*
X102206399Y-78558883D01*
X102198209Y-78554555D01*
X102192164Y-78551065D01*
X102184662Y-78547958D01*
X102184793Y-78547639D01*
X102177192Y-78544818D01*
X102166352Y-78539598D01*
X102166342Y-78539594D01*
X102056397Y-78514500D01*
X102056393Y-78514500D01*
X102000207Y-78514500D01*
X100002319Y-78514500D01*
X98001905Y-78514500D01*
X98001904Y-78514500D01*
X97945724Y-78514500D01*
X97945719Y-78514501D01*
X97835757Y-78539600D01*
X97825816Y-78544387D01*
X97817279Y-78547556D01*
X97817375Y-78547788D01*
X97809867Y-78550897D01*
X97801644Y-78555644D01*
X97793463Y-78559967D01*
X97734150Y-78588532D01*
X97713799Y-78604762D01*
X97698497Y-78615196D01*
X97696299Y-78616464D01*
X97690097Y-78622666D01*
X97679744Y-78631918D01*
X97645971Y-78658852D01*
X97645970Y-78658854D01*
X97619043Y-78692618D01*
X97609783Y-78702980D01*
X97603568Y-78709194D01*
X97602300Y-78711392D01*
X97591867Y-78726694D01*
X97575647Y-78747034D01*
X97547116Y-78806277D01*
X97542790Y-78814463D01*
X97538001Y-78822758D01*
X97534893Y-78830262D01*
X97534665Y-78830167D01*
X97531485Y-78838735D01*
X97526710Y-78848651D01*
X97501613Y-78958605D01*
X97501612Y-78958612D01*
X97501612Y-79003074D01*
X97501612Y-79014792D01*
X97501612Y-79014793D01*
X97501612Y-79514500D01*
X97501612Y-79515000D01*
X97501610Y-79571393D01*
X94329852Y-79571393D01*
X94329851Y-78604343D01*
X94327054Y-78574506D01*
X94327054Y-78574502D01*
X94283079Y-78448829D01*
X94204016Y-78341701D01*
X94096888Y-78262638D01*
X94096884Y-78262636D01*
X94096883Y-78262636D01*
X93971216Y-78218662D01*
X93941381Y-78215865D01*
X92917330Y-78215865D01*
X92887493Y-78218662D01*
X92887483Y-78218664D01*
X92761820Y-78262636D01*
X92761818Y-78262637D01*
X92761817Y-78262637D01*
X92761816Y-78262638D01*
X92654688Y-78341701D01*
X92575624Y-78448831D01*
X92575623Y-78448833D01*
X92531649Y-78574499D01*
X92531649Y-78574501D01*
X92528852Y-78604335D01*
X86298485Y-78604335D01*
X86448266Y-78279462D01*
X86452658Y-78270842D01*
X86683850Y-77858054D01*
X86684580Y-77856771D01*
X86685884Y-77854522D01*
X86690040Y-77847851D01*
X86942185Y-77470523D01*
X86943236Y-77468978D01*
X86958341Y-77447176D01*
X86962832Y-77441104D01*
X87232759Y-77098737D01*
X87234093Y-77097078D01*
X87262154Y-77062849D01*
X87266939Y-77057354D01*
X87553613Y-76747264D01*
X87555214Y-76745568D01*
X87595430Y-76703886D01*
X87600385Y-76699037D01*
X87902705Y-76419608D01*
X87904673Y-76417831D01*
X87955934Y-76372644D01*
X87961096Y-76368340D01*
X88277862Y-76118654D01*
X88280196Y-76116863D01*
X88341424Y-76071113D01*
X88346699Y-76067383D01*
X88676632Y-75846962D01*
X88679444Y-75845140D01*
X88749446Y-75801162D01*
X88754737Y-75798021D01*
X89096593Y-75606606D01*
X89099697Y-75604929D01*
X89177402Y-75564461D01*
X89182611Y-75561907D01*
X89534975Y-75399499D01*
X89538528Y-75397931D01*
X89622429Y-75362522D01*
X89627604Y-75360477D01*
X89989072Y-75227159D01*
X89993019Y-75225781D01*
X90081773Y-75196511D01*
X90086814Y-75194969D01*
X90455984Y-75090889D01*
X90460279Y-75089763D01*
X90552456Y-75067424D01*
X90557414Y-75066331D01*
X90972133Y-74983880D01*
X90983658Y-74982745D01*
X90984626Y-74981416D01*
X90984628Y-74981416D01*
X90984627Y-74981414D01*
X90985284Y-74980515D01*
X90984556Y-74971229D01*
X90984556Y-68321605D01*
X92528852Y-68321605D01*
X92528852Y-69345656D01*
X92531649Y-69375493D01*
X92531651Y-69375503D01*
X92563404Y-69466246D01*
X92575625Y-69501171D01*
X92654688Y-69608299D01*
X92761816Y-69687362D01*
X92807499Y-69703347D01*
X92887487Y-69731337D01*
X92895272Y-69732066D01*
X92917327Y-69734135D01*
X93941376Y-69734134D01*
X93971215Y-69731337D01*
X94096888Y-69687362D01*
X94204016Y-69608299D01*
X94283079Y-69501171D01*
X94314838Y-69410409D01*
X94327054Y-69375500D01*
X94327054Y-69375498D01*
X94329852Y-69345664D01*
X94329852Y-68998352D01*
X94329852Y-68991393D01*
X97501610Y-68991393D01*
X97526703Y-69101350D01*
X97526705Y-69101356D01*
X97531464Y-69111238D01*
X97534654Y-69119834D01*
X97534882Y-69119740D01*
X97537989Y-69127242D01*
X97542794Y-69135565D01*
X97547124Y-69143760D01*
X97575636Y-69202967D01*
X97575637Y-69202969D01*
X97575639Y-69202972D01*
X97591850Y-69223300D01*
X97602286Y-69238607D01*
X97603557Y-69240809D01*
X97603564Y-69240818D01*
X97609775Y-69247029D01*
X97619041Y-69257397D01*
X97645961Y-69291153D01*
X97679719Y-69318074D01*
X97690082Y-69327334D01*
X97696294Y-69333546D01*
X97698479Y-69334807D01*
X97713793Y-69345247D01*
X97734140Y-69361473D01*
X97793437Y-69390027D01*
X97801595Y-69394339D01*
X97809867Y-69399115D01*
X97809872Y-69399116D01*
X97817380Y-69402227D01*
X97817284Y-69402458D01*
X97825837Y-69405630D01*
X97835759Y-69410408D01*
X97945719Y-69435502D01*
X98002112Y-69435500D01*
X98002612Y-69435500D01*
X99999793Y-69435500D01*
X101999500Y-69435500D01*
X102000000Y-69435500D01*
X102056393Y-69435500D01*
X102166350Y-69410403D01*
X102177179Y-69405187D01*
X102184793Y-69402365D01*
X102184659Y-69402042D01*
X102192160Y-69398934D01*
X102192167Y-69398933D01*
X102198202Y-69395448D01*
X102206398Y-69391117D01*
X102219029Y-69385034D01*
X102267967Y-69361467D01*
X102289310Y-69344445D01*
X102304629Y-69334003D01*
X102305692Y-69333389D01*
X102305691Y-69333389D01*
X102305694Y-69333388D01*
X102310680Y-69328402D01*
X102321054Y-69319131D01*
X102322380Y-69318074D01*
X102356146Y-69291146D01*
X102384132Y-69256052D01*
X102393402Y-69245680D01*
X102398386Y-69240696D01*
X102398389Y-69240692D01*
X102399003Y-69239629D01*
X102409445Y-69224310D01*
X102426467Y-69202967D01*
X102454005Y-69145783D01*
X102456117Y-69141398D01*
X102460448Y-69133202D01*
X102463933Y-69127167D01*
X102463934Y-69127160D01*
X102467042Y-69119659D01*
X102467365Y-69119793D01*
X102470187Y-69112179D01*
X102475403Y-69101350D01*
X102500500Y-68991393D01*
X102500500Y-68935000D01*
X102500500Y-68934500D01*
X102500500Y-68434793D01*
X102500500Y-68378607D01*
X102475403Y-68268650D01*
X102470185Y-68257814D01*
X102467366Y-68250213D01*
X102467045Y-68250347D01*
X102463930Y-68242826D01*
X102460443Y-68236786D01*
X102456113Y-68228593D01*
X102426469Y-68167037D01*
X102426467Y-68167034D01*
X102426467Y-68167033D01*
X102409443Y-68145686D01*
X102399005Y-68130375D01*
X102398388Y-68129306D01*
X102398386Y-68129304D01*
X102398385Y-68129302D01*
X102393400Y-68124317D01*
X102384135Y-68113951D01*
X102363622Y-68088229D01*
X102356146Y-68078854D01*
X102356144Y-68078852D01*
X102356143Y-68078851D01*
X102356142Y-68078850D01*
X102321047Y-68050863D01*
X102310679Y-68041597D01*
X102305697Y-68036615D01*
X102305694Y-68036612D01*
X102305691Y-68036610D01*
X102305687Y-68036607D01*
X102304614Y-68035988D01*
X102289315Y-68025556D01*
X102267966Y-68008532D01*
X102267967Y-68008532D01*
X102206399Y-67978883D01*
X102198209Y-67974555D01*
X102192164Y-67971065D01*
X102184662Y-67967958D01*
X102184793Y-67967639D01*
X102177192Y-67964818D01*
X102166352Y-67959598D01*
X102166342Y-67959594D01*
X102056397Y-67934500D01*
X102056393Y-67934500D01*
X102000207Y-67934500D01*
X100254207Y-67934500D01*
X99748319Y-67934500D01*
X98001905Y-67934500D01*
X98001904Y-67934500D01*
X97945724Y-67934500D01*
X97945719Y-67934501D01*
X97835757Y-67959600D01*
X97825816Y-67964387D01*
X97817279Y-67967556D01*
X97817375Y-67967788D01*
X97809867Y-67970897D01*
X97801644Y-67975644D01*
X97793463Y-67979967D01*
X97734150Y-68008532D01*
X97713799Y-68024762D01*
X97698497Y-68035196D01*
X97696299Y-68036464D01*
X97690097Y-68042666D01*
X97679744Y-68051918D01*
X97645971Y-68078852D01*
X97645970Y-68078854D01*
X97619043Y-68112618D01*
X97609783Y-68122980D01*
X97603568Y-68129194D01*
X97602300Y-68131392D01*
X97591867Y-68146694D01*
X97575647Y-68167034D01*
X97547116Y-68226277D01*
X97542790Y-68234463D01*
X97538001Y-68242758D01*
X97534893Y-68250262D01*
X97534665Y-68250167D01*
X97531485Y-68258735D01*
X97526710Y-68268651D01*
X97501613Y-68378605D01*
X97501612Y-68378612D01*
X97501612Y-68434792D01*
X97501612Y-68434793D01*
X97501612Y-68934500D01*
X97501612Y-68935000D01*
X97501610Y-68991393D01*
X94329852Y-68991393D01*
X94329851Y-68321613D01*
X94327054Y-68291776D01*
X94327054Y-68291772D01*
X94283079Y-68166099D01*
X94204016Y-68058971D01*
X94096888Y-67979908D01*
X94096884Y-67979906D01*
X94096883Y-67979906D01*
X93971216Y-67935932D01*
X93941381Y-67933135D01*
X92917330Y-67933135D01*
X92887493Y-67935932D01*
X92887483Y-67935934D01*
X92761820Y-67979906D01*
X92761818Y-67979907D01*
X92761817Y-67979907D01*
X92761816Y-67979908D01*
X92654688Y-68058971D01*
X92589947Y-68146694D01*
X92575624Y-68166101D01*
X92575623Y-68166103D01*
X92531649Y-68291769D01*
X92531649Y-68291771D01*
X92528852Y-68321605D01*
X90984556Y-68321605D01*
X90984556Y-61827135D01*
X95299500Y-61827135D01*
X95299500Y-63222870D01*
X95299501Y-63222876D01*
X95305908Y-63282483D01*
X95356202Y-63417328D01*
X95356206Y-63417335D01*
X95442452Y-63532544D01*
X95442455Y-63532547D01*
X95557664Y-63618793D01*
X95557671Y-63618797D01*
X95692517Y-63669091D01*
X95692516Y-63669091D01*
X95699444Y-63669835D01*
X95752127Y-63675500D01*
X96547872Y-63675499D01*
X96607483Y-63669091D01*
X96742331Y-63618796D01*
X96857546Y-63532546D01*
X96943796Y-63417331D01*
X96994091Y-63282483D01*
X97000500Y-63222873D01*
X97000499Y-61827128D01*
X96994091Y-61767517D01*
X96943796Y-61632669D01*
X96943795Y-61632668D01*
X96943793Y-61632664D01*
X96857547Y-61517455D01*
X96857544Y-61517452D01*
X96742335Y-61431206D01*
X96742328Y-61431202D01*
X96607482Y-61380908D01*
X96607483Y-61380908D01*
X96547883Y-61374501D01*
X96547881Y-61374500D01*
X96547873Y-61374500D01*
X96547864Y-61374500D01*
X95752129Y-61374500D01*
X95752123Y-61374501D01*
X95692516Y-61380908D01*
X95557671Y-61431202D01*
X95557664Y-61431206D01*
X95442455Y-61517452D01*
X95442452Y-61517455D01*
X95356206Y-61632664D01*
X95356202Y-61632671D01*
X95305908Y-61767517D01*
X95299501Y-61827116D01*
X95299501Y-61827123D01*
X95299500Y-61827135D01*
X90984556Y-61827135D01*
X90984556Y-59340649D01*
X96650000Y-59340649D01*
X96652899Y-59377489D01*
X96652900Y-59377495D01*
X96698716Y-59535193D01*
X96698717Y-59535196D01*
X96782314Y-59676552D01*
X96782321Y-59676561D01*
X96898438Y-59792678D01*
X96898447Y-59792685D01*
X97039801Y-59876281D01*
X97197514Y-59922100D01*
X97197511Y-59922100D01*
X97199998Y-59922295D01*
X97200000Y-59922295D01*
X97200000Y-58900000D01*
X96650000Y-58900000D01*
X96650000Y-59340649D01*
X90984556Y-59340649D01*
X90984556Y-57959350D01*
X96650000Y-57959350D01*
X96650000Y-58400000D01*
X97200000Y-58400000D01*
X97200000Y-57377703D01*
X97700000Y-57377703D01*
X97700000Y-59922295D01*
X97700001Y-59922295D01*
X97702486Y-59922100D01*
X97860198Y-59876281D01*
X98001552Y-59792685D01*
X98001557Y-59792681D01*
X98094536Y-59699702D01*
X98155859Y-59666217D01*
X98201617Y-59664910D01*
X98230348Y-59669460D01*
X98268481Y-59675500D01*
X98631518Y-59675499D01*
X98725304Y-59660646D01*
X98838342Y-59603050D01*
X98862319Y-59579072D01*
X98923640Y-59545588D01*
X98993332Y-59550572D01*
X99037681Y-59579073D01*
X99063181Y-59604573D01*
X99096666Y-59665896D01*
X99099500Y-59692254D01*
X99099500Y-60696144D01*
X99120275Y-60773680D01*
X99124500Y-60805768D01*
X99124500Y-62871143D01*
X99148386Y-62960287D01*
X99148387Y-62960290D01*
X99194527Y-63040208D01*
X99194531Y-63040213D01*
X103413181Y-67258863D01*
X103446666Y-67320186D01*
X103449500Y-67346544D01*
X103449500Y-72646143D01*
X103473386Y-72735287D01*
X103473387Y-72735290D01*
X103519527Y-72815208D01*
X103519531Y-72815213D01*
X107413181Y-76708862D01*
X107446666Y-76770185D01*
X107449500Y-76796543D01*
X107449500Y-77894635D01*
X107429815Y-77961674D01*
X107377011Y-78007429D01*
X107307853Y-78017373D01*
X107288610Y-78013021D01*
X107159192Y-77972693D01*
X107089547Y-77966365D01*
X106824870Y-77966365D01*
X106824870Y-80266365D01*
X107089547Y-80266365D01*
X107159197Y-80260035D01*
X107288610Y-80219709D01*
X107358470Y-80218557D01*
X107417862Y-80255358D01*
X107447930Y-80318427D01*
X107449500Y-80338094D01*
X107449500Y-82103456D01*
X107429815Y-82170495D01*
X107413181Y-82191137D01*
X105119531Y-84484786D01*
X105119527Y-84484791D01*
X105073387Y-84564709D01*
X105073386Y-84564712D01*
X105049500Y-84653856D01*
X105049500Y-92737800D01*
X105032887Y-92799800D01*
X105025498Y-92812597D01*
X105025498Y-92812598D01*
X105001611Y-92901745D01*
X105001611Y-92915614D01*
X104981926Y-92982653D01*
X104965292Y-93003295D01*
X104911604Y-93056982D01*
X104911599Y-93056988D01*
X104839128Y-93182511D01*
X104839127Y-93182515D01*
X104801611Y-93322525D01*
X104801611Y-93467475D01*
X104839127Y-93607485D01*
X104839128Y-93607488D01*
X104911599Y-93733011D01*
X104911601Y-93733013D01*
X104911602Y-93733015D01*
X105014096Y-93835509D01*
X105014097Y-93835510D01*
X105014099Y-93835511D01*
X105139622Y-93907982D01*
X105139623Y-93907982D01*
X105139626Y-93907984D01*
X105279636Y-93945500D01*
X105279639Y-93945500D01*
X105424583Y-93945500D01*
X105424586Y-93945500D01*
X105564596Y-93907984D01*
X105690126Y-93835509D01*
X105792620Y-93733015D01*
X105865095Y-93607485D01*
X105902611Y-93467475D01*
X105902611Y-93322525D01*
X105865095Y-93182515D01*
X105792620Y-93056985D01*
X105785745Y-93050110D01*
X105752260Y-92988787D01*
X105750822Y-92954273D01*
X105750500Y-92954273D01*
X105750500Y-92946551D01*
X105750487Y-92946240D01*
X105750500Y-92946141D01*
X105750500Y-87157244D01*
X105770185Y-87090205D01*
X105822989Y-87044450D01*
X105892147Y-87034506D01*
X105915446Y-87040200D01*
X106033007Y-87081337D01*
X106033006Y-87081337D01*
X106037482Y-87081756D01*
X106062845Y-87084135D01*
X107086894Y-87084134D01*
X107116733Y-87081337D01*
X107242406Y-87037362D01*
X107349534Y-86958299D01*
X107428597Y-86851171D01*
X107451926Y-86784500D01*
X107472572Y-86725500D01*
X107472572Y-86725498D01*
X107473887Y-86711473D01*
X107475370Y-86695660D01*
X107475369Y-85671611D01*
X107472572Y-85641772D01*
X107428597Y-85516099D01*
X107349534Y-85408971D01*
X107242406Y-85329908D01*
X107242402Y-85329906D01*
X107242401Y-85329906D01*
X107116734Y-85285932D01*
X107086899Y-85283135D01*
X106062848Y-85283135D01*
X106033011Y-85285932D01*
X106033001Y-85285934D01*
X105915455Y-85327066D01*
X105845676Y-85330628D01*
X105785049Y-85295900D01*
X105752821Y-85233906D01*
X105750500Y-85210025D01*
X105750500Y-84896544D01*
X105770185Y-84829505D01*
X105786819Y-84808863D01*
X106932387Y-83663295D01*
X108080470Y-82515212D01*
X108126614Y-82435288D01*
X108150500Y-82346143D01*
X108150500Y-82253856D01*
X108150500Y-81076998D01*
X109707814Y-81076998D01*
X109707814Y-81077001D01*
X109709454Y-81099407D01*
X109709785Y-81108459D01*
X109709785Y-81198144D01*
X109724843Y-81312529D01*
X109725573Y-81319657D01*
X109727531Y-81346395D01*
X109727533Y-81346410D01*
X109730671Y-81360496D01*
X109732577Y-81371272D01*
X109738804Y-81418569D01*
X109741409Y-81438354D01*
X109763294Y-81520030D01*
X109779900Y-81582005D01*
X109781158Y-81587137D01*
X109786261Y-81610045D01*
X109786264Y-81610056D01*
X109787816Y-81614113D01*
X109791773Y-81626318D01*
X109804114Y-81672375D01*
X109804117Y-81672384D01*
X109881551Y-81859327D01*
X109882798Y-81862455D01*
X109883066Y-81863156D01*
X109884226Y-81865786D01*
X109896832Y-81896216D01*
X109896840Y-81896233D01*
X110017976Y-82106047D01*
X110165468Y-82298263D01*
X110165474Y-82298270D01*
X110336787Y-82469583D01*
X110336791Y-82469586D01*
X110365623Y-82491709D01*
X110370982Y-82496324D01*
X110371018Y-82496281D01*
X110374503Y-82499181D01*
X110374506Y-82499184D01*
X110385534Y-82507073D01*
X110388824Y-82509512D01*
X110529008Y-82617079D01*
X110577059Y-82644821D01*
X110587208Y-82651359D01*
X110594190Y-82656354D01*
X110617530Y-82668354D01*
X110622747Y-82671199D01*
X110738833Y-82738221D01*
X110776548Y-82753843D01*
X110809178Y-82767359D01*
X110818421Y-82771640D01*
X110834417Y-82779864D01*
X110858753Y-82788166D01*
X110866134Y-82790951D01*
X110962674Y-82830939D01*
X111058697Y-82856668D01*
X111066584Y-82859067D01*
X111090068Y-82867079D01*
X111109345Y-82870639D01*
X111118868Y-82872791D01*
X111196702Y-82893647D01*
X111323054Y-82910281D01*
X111329307Y-82911269D01*
X111355693Y-82916143D01*
X111366311Y-82916531D01*
X111377938Y-82917506D01*
X111436914Y-82925271D01*
X111436921Y-82925271D01*
X111603205Y-82925271D01*
X111607734Y-82925353D01*
X111625631Y-82926008D01*
X111625631Y-82926007D01*
X111625633Y-82926008D01*
X111625789Y-82926002D01*
X111639132Y-82925271D01*
X111679199Y-82925271D01*
X111748533Y-82916143D01*
X111919410Y-82893647D01*
X112153438Y-82830939D01*
X112377279Y-82738221D01*
X112587104Y-82617079D01*
X112621903Y-82590376D01*
X112632790Y-82582909D01*
X112634636Y-82581783D01*
X112650925Y-82568226D01*
X112654653Y-82565246D01*
X112779321Y-82469586D01*
X112824260Y-82424646D01*
X112832592Y-82417043D01*
X112842262Y-82408996D01*
X112860276Y-82388890D01*
X112864880Y-82384026D01*
X112950642Y-82298265D01*
X113002449Y-82230747D01*
X113008420Y-82223551D01*
X113022516Y-82207820D01*
X113035618Y-82188016D01*
X113040610Y-82181015D01*
X113098135Y-82106048D01*
X113099632Y-82103456D01*
X113102504Y-82098479D01*
X113153055Y-82010922D01*
X113156991Y-82004560D01*
X113171559Y-81982542D01*
X113178475Y-81967787D01*
X113183336Y-81958474D01*
X113219277Y-81896223D01*
X113273288Y-81765828D01*
X113275511Y-81760789D01*
X113286212Y-81737964D01*
X113288088Y-81731726D01*
X113292255Y-81720037D01*
X113311995Y-81672382D01*
X113360814Y-81490186D01*
X113361806Y-81486699D01*
X113364033Y-81479299D01*
X113364034Y-81479291D01*
X113364941Y-81475221D01*
X113366203Y-81470075D01*
X113374702Y-81438356D01*
X113374703Y-81438354D01*
X113406327Y-81198142D01*
X113406327Y-80955858D01*
X113374703Y-80715646D01*
X113366202Y-80683921D01*
X113364945Y-80678794D01*
X113364034Y-80674707D01*
X113364033Y-80674706D01*
X113364033Y-80674701D01*
X113361804Y-80667292D01*
X113360804Y-80663778D01*
X113311995Y-80481618D01*
X113292261Y-80433978D01*
X113288079Y-80422243D01*
X113286213Y-80416040D01*
X113286211Y-80416034D01*
X113275531Y-80393251D01*
X113273258Y-80388099D01*
X113219281Y-80257785D01*
X113219276Y-80257776D01*
X113217880Y-80255358D01*
X113183345Y-80195541D01*
X113178463Y-80186185D01*
X113171560Y-80171459D01*
X113157009Y-80149466D01*
X113153046Y-80143062D01*
X113098135Y-80047952D01*
X113098134Y-80047950D01*
X113040637Y-79973019D01*
X113035598Y-79965953D01*
X113022516Y-79946180D01*
X113008442Y-79930473D01*
X113002420Y-79923214D01*
X112995352Y-79914003D01*
X112962472Y-79871152D01*
X112950644Y-79855737D01*
X112913514Y-79818607D01*
X112864904Y-79769997D01*
X112860249Y-79765079D01*
X112842267Y-79745009D01*
X112842264Y-79745007D01*
X112842262Y-79745004D01*
X112832594Y-79736958D01*
X112824244Y-79729337D01*
X112779325Y-79684417D01*
X112779319Y-79684412D01*
X112654723Y-79588807D01*
X112650890Y-79585744D01*
X112644674Y-79580571D01*
X112634636Y-79572217D01*
X112632769Y-79571077D01*
X112621898Y-79563619D01*
X112587103Y-79536920D01*
X112377282Y-79415780D01*
X112377267Y-79415773D01*
X112153438Y-79323061D01*
X112048419Y-79294921D01*
X111919410Y-79260353D01*
X111919409Y-79260352D01*
X111919406Y-79260352D01*
X111679199Y-79228729D01*
X111679198Y-79228729D01*
X111639132Y-79228729D01*
X111625789Y-79227997D01*
X111625633Y-79227991D01*
X111608105Y-79228632D01*
X111607734Y-79228646D01*
X111603205Y-79228729D01*
X111436913Y-79228729D01*
X111377949Y-79236491D01*
X111366301Y-79237469D01*
X111355693Y-79237857D01*
X111355686Y-79237858D01*
X111329342Y-79242723D01*
X111323010Y-79243724D01*
X111222847Y-79256910D01*
X111196702Y-79260353D01*
X111196700Y-79260353D01*
X111196691Y-79260355D01*
X111118893Y-79281201D01*
X111109328Y-79283362D01*
X111090074Y-79286919D01*
X111090066Y-79286921D01*
X111066614Y-79294921D01*
X111058677Y-79297335D01*
X110962674Y-79323060D01*
X110866153Y-79363041D01*
X110858741Y-79365837D01*
X110834414Y-79374136D01*
X110818416Y-79382361D01*
X110809180Y-79386639D01*
X110738838Y-79415776D01*
X110738823Y-79415784D01*
X110622781Y-79482779D01*
X110617488Y-79485666D01*
X110594196Y-79497642D01*
X110594179Y-79497653D01*
X110587194Y-79502649D01*
X110577064Y-79509174D01*
X110529013Y-79536917D01*
X110529005Y-79536922D01*
X110388843Y-79644472D01*
X110385514Y-79646939D01*
X110374508Y-79654813D01*
X110371023Y-79657714D01*
X110370987Y-79657671D01*
X110365625Y-79662287D01*
X110336796Y-79684409D01*
X110336789Y-79684415D01*
X110165473Y-79855730D01*
X110165468Y-79855736D01*
X110017976Y-80047952D01*
X109896838Y-80257769D01*
X109896834Y-80257777D01*
X109884218Y-80288235D01*
X109883048Y-80290887D01*
X109882779Y-80291592D01*
X109881549Y-80294677D01*
X109804115Y-80481621D01*
X109791776Y-80527671D01*
X109787825Y-80539860D01*
X109786264Y-80543940D01*
X109786262Y-80543949D01*
X109781156Y-80566868D01*
X109779899Y-80571996D01*
X109741409Y-80715646D01*
X109732578Y-80782721D01*
X109730674Y-80793489D01*
X109727531Y-80807599D01*
X109725573Y-80834343D01*
X109724843Y-80841470D01*
X109709785Y-80955855D01*
X109709785Y-81045540D01*
X109709454Y-81054592D01*
X109707814Y-81076998D01*
X108150500Y-81076998D01*
X108150500Y-76553856D01*
X108126614Y-76464712D01*
X108126611Y-76464706D01*
X108080473Y-76384794D01*
X108080470Y-76384791D01*
X108080469Y-76384788D01*
X108015212Y-76319531D01*
X106447536Y-74751855D01*
X106414051Y-74690532D01*
X106419035Y-74620840D01*
X106460907Y-74564907D01*
X106473206Y-74556793D01*
X106588015Y-74490509D01*
X106690509Y-74388015D01*
X106762984Y-74262485D01*
X106800500Y-74122475D01*
X106800500Y-73977525D01*
X106762984Y-73837515D01*
X106690509Y-73711985D01*
X106588015Y-73609491D01*
X106588013Y-73609490D01*
X106588011Y-73609488D01*
X106462488Y-73537017D01*
X106462489Y-73537017D01*
X106451006Y-73533940D01*
X106322475Y-73499500D01*
X106322472Y-73499500D01*
X106296544Y-73499500D01*
X106229505Y-73479815D01*
X106208863Y-73463181D01*
X104930868Y-72185186D01*
X104897383Y-72123863D01*
X104902367Y-72054171D01*
X104944239Y-71998238D01*
X105009703Y-71973821D01*
X105050640Y-71977730D01*
X105079636Y-71985500D01*
X105079638Y-71985500D01*
X105224583Y-71985500D01*
X105224586Y-71985500D01*
X105364596Y-71947984D01*
X105490126Y-71875509D01*
X105592620Y-71773015D01*
X105665095Y-71647485D01*
X105702611Y-71507475D01*
X105702611Y-71362525D01*
X105665095Y-71222515D01*
X105592620Y-71096985D01*
X105536819Y-71041184D01*
X105503334Y-70979861D01*
X105500500Y-70953503D01*
X105500500Y-69579040D01*
X105520185Y-69512001D01*
X105572989Y-69466246D01*
X105642147Y-69456302D01*
X105705703Y-69485327D01*
X105724262Y-69505397D01*
X105800206Y-69608299D01*
X105907334Y-69687362D01*
X105953017Y-69703347D01*
X106033005Y-69731337D01*
X106040790Y-69732066D01*
X106062845Y-69734135D01*
X107086894Y-69734134D01*
X107116733Y-69731337D01*
X107242406Y-69687362D01*
X107349534Y-69608299D01*
X107428597Y-69501171D01*
X107460356Y-69410409D01*
X107472572Y-69375500D01*
X107472572Y-69375498D01*
X107473887Y-69361473D01*
X107475370Y-69345660D01*
X107475369Y-68321611D01*
X107472572Y-68291772D01*
X107428597Y-68166099D01*
X107349534Y-68058971D01*
X107242406Y-67979908D01*
X107242402Y-67979906D01*
X107242401Y-67979906D01*
X107116734Y-67935932D01*
X107086899Y-67933135D01*
X106062848Y-67933135D01*
X106033011Y-67935932D01*
X106033001Y-67935934D01*
X105907338Y-67979906D01*
X105907336Y-67979907D01*
X105907335Y-67979907D01*
X105907334Y-67979908D01*
X105800206Y-68058971D01*
X105724268Y-68161863D01*
X105668623Y-68204113D01*
X105598967Y-68209572D01*
X105537418Y-68176505D01*
X105503516Y-68115411D01*
X105500500Y-68088229D01*
X105500500Y-66153858D01*
X105500500Y-66153856D01*
X105476614Y-66064712D01*
X105430470Y-65984788D01*
X103332862Y-63887180D01*
X103299377Y-63825857D01*
X103304361Y-63756165D01*
X103346233Y-63700232D01*
X103411697Y-63675815D01*
X103420517Y-63675499D01*
X104147872Y-63675499D01*
X104207483Y-63669091D01*
X104342331Y-63618796D01*
X104457546Y-63532546D01*
X104543796Y-63417331D01*
X104594091Y-63282483D01*
X104600500Y-63222873D01*
X104600499Y-61827128D01*
X104594091Y-61767517D01*
X104543796Y-61632669D01*
X104543795Y-61632668D01*
X104543793Y-61632664D01*
X104457547Y-61517455D01*
X104457544Y-61517452D01*
X104342335Y-61431206D01*
X104342328Y-61431202D01*
X104207482Y-61380908D01*
X104207483Y-61380908D01*
X104147883Y-61374501D01*
X104147881Y-61374500D01*
X104147873Y-61374500D01*
X104147864Y-61374500D01*
X103352129Y-61374500D01*
X103352123Y-61374501D01*
X103292516Y-61380908D01*
X103157671Y-61431202D01*
X103157664Y-61431206D01*
X103042455Y-61517452D01*
X103042452Y-61517455D01*
X102956206Y-61632664D01*
X102956202Y-61632671D01*
X102905908Y-61767517D01*
X102899501Y-61827116D01*
X102899501Y-61827123D01*
X102899500Y-61827135D01*
X102899500Y-63154456D01*
X102879815Y-63221495D01*
X102827011Y-63267250D01*
X102757853Y-63277194D01*
X102694297Y-63248169D01*
X102687819Y-63242137D01*
X101836819Y-62391137D01*
X101803334Y-62329814D01*
X101800500Y-62303456D01*
X101800500Y-59692254D01*
X101820185Y-59625215D01*
X101836817Y-59604574D01*
X101838339Y-59603051D01*
X101838342Y-59603050D01*
X101862320Y-59579071D01*
X101923639Y-59545588D01*
X101993330Y-59550571D01*
X102037680Y-59579073D01*
X102061652Y-59603045D01*
X102061654Y-59603046D01*
X102061658Y-59603050D01*
X102174694Y-59660645D01*
X102174698Y-59660647D01*
X102268475Y-59675499D01*
X102268481Y-59675500D01*
X102631518Y-59675499D01*
X102725304Y-59660646D01*
X102838342Y-59603050D01*
X102928050Y-59513342D01*
X102985646Y-59400304D01*
X102985646Y-59400302D01*
X102985647Y-59400301D01*
X103000499Y-59306524D01*
X103000500Y-59306519D01*
X103000499Y-58288844D01*
X103020183Y-58221806D01*
X103072987Y-58176051D01*
X103142146Y-58166107D01*
X103186497Y-58181457D01*
X103207787Y-58193748D01*
X103254085Y-58220478D01*
X103254087Y-58220480D01*
X103261342Y-58224668D01*
X103264712Y-58226614D01*
X103353856Y-58250500D01*
X103470614Y-58250500D01*
X103537653Y-58270185D01*
X103558295Y-58286819D01*
X103611985Y-58340509D01*
X103611986Y-58340510D01*
X103611988Y-58340511D01*
X103737511Y-58412982D01*
X103737512Y-58412982D01*
X103737515Y-58412984D01*
X103877525Y-58450500D01*
X103877528Y-58450500D01*
X104022472Y-58450500D01*
X104022475Y-58450500D01*
X104162485Y-58412984D01*
X104288015Y-58340509D01*
X104390509Y-58238015D01*
X104462984Y-58112485D01*
X104500500Y-57972475D01*
X104500500Y-57827525D01*
X104462984Y-57687515D01*
X104432146Y-57634103D01*
X104390511Y-57561988D01*
X104390506Y-57561982D01*
X104288017Y-57459493D01*
X104288011Y-57459488D01*
X104162488Y-57387017D01*
X104162489Y-57387017D01*
X104151006Y-57383940D01*
X104022475Y-57349500D01*
X103877525Y-57349500D01*
X103748993Y-57383940D01*
X103737511Y-57387017D01*
X103611986Y-57459490D01*
X103609526Y-57461378D01*
X103607077Y-57462324D01*
X103604946Y-57463555D01*
X103604754Y-57463222D01*
X103544356Y-57486569D01*
X103475911Y-57472529D01*
X103446362Y-57450680D01*
X103115213Y-57119531D01*
X103115208Y-57119527D01*
X103035290Y-57073387D01*
X103035289Y-57073386D01*
X103035288Y-57073386D01*
X102946144Y-57049500D01*
X102496144Y-57049500D01*
X102403856Y-57049500D01*
X102314712Y-57073386D01*
X102314711Y-57073386D01*
X102314709Y-57073387D01*
X102314706Y-57073388D01*
X102234794Y-57119526D01*
X102234785Y-57119533D01*
X102169533Y-57184785D01*
X102169526Y-57184794D01*
X102123388Y-57264706D01*
X102123387Y-57264709D01*
X102099500Y-57353856D01*
X102099500Y-57607745D01*
X102079815Y-57674784D01*
X102063181Y-57695426D01*
X102037681Y-57720926D01*
X101976358Y-57754411D01*
X101906666Y-57749427D01*
X101862319Y-57720926D01*
X101838347Y-57696954D01*
X101838344Y-57696952D01*
X101838342Y-57696950D01*
X101761517Y-57657805D01*
X101725301Y-57639352D01*
X101631524Y-57624500D01*
X101268482Y-57624500D01*
X101187519Y-57637323D01*
X101174696Y-57639354D01*
X101061658Y-57696950D01*
X101061657Y-57696951D01*
X101061652Y-57696954D01*
X101037681Y-57720926D01*
X100976358Y-57754411D01*
X100906666Y-57749427D01*
X100862319Y-57720926D01*
X100838347Y-57696954D01*
X100838344Y-57696952D01*
X100838342Y-57696950D01*
X100761517Y-57657805D01*
X100725301Y-57639352D01*
X100631524Y-57624500D01*
X100268482Y-57624500D01*
X100187519Y-57637323D01*
X100174696Y-57639354D01*
X100061658Y-57696950D01*
X100061657Y-57696951D01*
X100061652Y-57696954D01*
X100037681Y-57720926D01*
X99976358Y-57754411D01*
X99906666Y-57749427D01*
X99862319Y-57720926D01*
X99838347Y-57696954D01*
X99838344Y-57696952D01*
X99838342Y-57696950D01*
X99761517Y-57657805D01*
X99725301Y-57639352D01*
X99631524Y-57624500D01*
X99268482Y-57624500D01*
X99187519Y-57637323D01*
X99174696Y-57639354D01*
X99061658Y-57696950D01*
X99061657Y-57696951D01*
X99061652Y-57696954D01*
X99037681Y-57720926D01*
X98976358Y-57754411D01*
X98906666Y-57749427D01*
X98862319Y-57720926D01*
X98836819Y-57695426D01*
X98803334Y-57634103D01*
X98800500Y-57607745D01*
X98800500Y-57313744D01*
X98817113Y-57251743D01*
X98826614Y-57235288D01*
X98850500Y-57146144D01*
X98850500Y-56929386D01*
X98870185Y-56862347D01*
X98886819Y-56841705D01*
X98940509Y-56788015D01*
X99012984Y-56662485D01*
X99050500Y-56522475D01*
X99050500Y-56377525D01*
X99012984Y-56237515D01*
X98940509Y-56111985D01*
X98838015Y-56009491D01*
X98838013Y-56009490D01*
X98838011Y-56009488D01*
X98712488Y-55937017D01*
X98712489Y-55937017D01*
X98679546Y-55928190D01*
X98572475Y-55899500D01*
X98427525Y-55899500D01*
X98320454Y-55928190D01*
X98287511Y-55937017D01*
X98161988Y-56009488D01*
X98161982Y-56009493D01*
X98059493Y-56111982D01*
X98059488Y-56111988D01*
X97987017Y-56237511D01*
X97987016Y-56237515D01*
X97949500Y-56377525D01*
X97949500Y-56522475D01*
X97955650Y-56545426D01*
X97987017Y-56662488D01*
X98059488Y-56788011D01*
X98059493Y-56788017D01*
X98113181Y-56841705D01*
X98146666Y-56903028D01*
X98149500Y-56929386D01*
X98149500Y-56936254D01*
X98132893Y-56998243D01*
X98131596Y-57000490D01*
X98131593Y-57000496D01*
X98123388Y-57014708D01*
X98123386Y-57014711D01*
X98123386Y-57014712D01*
X98099500Y-57103856D01*
X98099500Y-57103858D01*
X98099500Y-57347845D01*
X98079815Y-57414884D01*
X98027011Y-57460639D01*
X97957853Y-57470583D01*
X97912380Y-57454578D01*
X97860194Y-57423716D01*
X97702494Y-57377900D01*
X97702497Y-57377900D01*
X97700000Y-57377703D01*
X97200000Y-57377703D01*
X97197503Y-57377900D01*
X97039806Y-57423716D01*
X97039803Y-57423717D01*
X96898447Y-57507314D01*
X96898438Y-57507321D01*
X96782321Y-57623438D01*
X96782314Y-57623447D01*
X96698717Y-57764803D01*
X96698716Y-57764806D01*
X96652900Y-57922504D01*
X96652899Y-57922510D01*
X96650000Y-57959350D01*
X90984556Y-57959350D01*
X90984556Y-57046063D01*
X90984821Y-57037956D01*
X90987275Y-57000500D01*
X90999831Y-56808885D01*
X91000821Y-56799415D01*
X91007722Y-56751413D01*
X91008825Y-56744975D01*
X91048604Y-56544986D01*
X91051236Y-56534272D01*
X91062560Y-56495706D01*
X91064071Y-56490933D01*
X91132613Y-56289011D01*
X91137228Y-56277379D01*
X91145945Y-56258292D01*
X91147448Y-56255127D01*
X91248838Y-56049526D01*
X91256944Y-56035485D01*
X91393222Y-55831530D01*
X91403093Y-55818667D01*
X91564828Y-55634242D01*
X91576298Y-55622772D01*
X91760723Y-55461037D01*
X91773586Y-55451166D01*
X91977541Y-55314888D01*
X91991583Y-55306782D01*
X92196229Y-55205863D01*
X92199474Y-55204321D01*
X92219740Y-55195066D01*
X92231319Y-55190471D01*
X92432094Y-55122318D01*
X92436927Y-55120789D01*
X92476779Y-55109089D01*
X92487451Y-55106466D01*
X92686172Y-55066940D01*
X92692639Y-55065834D01*
X92742080Y-55058726D01*
X92751577Y-55057733D01*
X92980012Y-55042765D01*
X92988120Y-55042500D01*
X100000849Y-55042500D01*
X107013996Y-55042500D01*
X107022101Y-55042765D01*
G37*
%TD.AperFunction*%
%TD*%
M02*
