M48
; DRILL file KiCad 10.0.5 date 2026-08-11T14:23:26
; FORMAT={-:-/ absolute / inch / decimal}
; #@! TF.CreationDate,2026-08-11T14:23:26-07:00
; #@! TF.GenerationSoftware,Kicad,Pcbnew,10.0.5
; #@! TF.FileFunction,Plated,1,2,PTH
FMAT,2
INCH
; #@! TA.AperFunction,Plated,PTH,ViaDrill
T1C0.0118
; #@! TA.AperFunction,Plated,PTH,ComponentDrill
T2C0.0157
%
G90
G05
T1
X3.687Y-4.1969
X3.7067Y-4.3484
X3.7126Y-5.3504
X3.7146Y-5.5906
X3.7206Y-3.0388
X3.7244Y-3.1988
X3.7264Y-3.9331
X3.7363Y-3.7478
X3.7402Y-4.9114
X3.7579Y-4.5551
X3.7598Y-4.6732
X3.7638Y-2.5787
X3.7854Y-2.313
X3.8386Y-3.2657
X3.878Y-2.2224
X3.9173Y-2.5827
X3.9272Y-3.4585
X3.943Y-2.7947
X3.9626Y-3.9311
X3.9626Y-4.8425
X3.9824Y-3.7065
X4.0374Y-3.25
X4.0374Y-4.6713
X4.0571Y-4.561
X4.0748Y-2.9154
X4.0748Y-3.5945
X4.0768Y-4.2815
X4.0807Y-4.9606
X4.0925Y-2.2795
X4.0945Y-5.5945
X4.0984Y-4.8445
X4.1043Y-5.3642
X4.1181Y-4.2106
X4.1398Y-2.8124
X4.1477Y-3.677
X4.1516Y-3.9331
X4.1575Y-2.8465
X4.1811Y-2.3957
X4.1831Y-2.9154
X4.2303Y-3.3169
T2
X3.6783Y-2.71
X3.6783Y-3.1148
X3.6783Y-3.3931
X3.6783Y-3.7979
X3.6783Y-4.0761
X3.6783Y-4.481
X3.6783Y-4.7592
X3.6783Y-5.164
X4.1959Y-2.71
X4.1959Y-3.1148
X4.1959Y-3.3931
X4.1959Y-3.7979
X4.1959Y-4.0761
X4.1959Y-4.481
X4.1959Y-4.7592
X4.1959Y-5.164
M30
